<svg xmlns="http://www.w3.org/2000/svg" viewBox="0 0 231.08 246.27"><defs><style>.cls-1{opacity:0.15;}.cls-2{fill:#e63429;}.cls-3{fill:#37474f;}.cls-4{fill:#263238;}.cls-5{fill:#666;}.cls-6{fill:#004b93;}.cls-7{opacity:0.15;}.cls-10,.cls-11,.cls-7{isolation:isolate;}.cls-8{fill:#ffbe9d;}.cls-9{fill:#eb996e;}.cls-10{opacity:0.45;}.cls-11{opacity:0.2;}.cls-12{fill:#874c4c;}.cls-13{fill:#f28f8f;}</style></defs><title>dibujo 5</title><g id="Capa_2" data-name="Capa 2"><g id="Esquema"><g id="freepik--Shadow--inject-2" class="cls-1"><ellipse id="freepik--shadow--inject-2-2" data-name="freepik--shadow--inject-2" class="cls-2" cx="49.83" cy="220.28" rx="45.02" ry="25.99"/><ellipse id="freepik--shadow--inject-2-3" data-name="freepik--shadow--inject-2" class="cls-2" cx="138.72" cy="180" rx="64.23" ry="31.96" transform="translate(-68.82 87.43) rotate(-28.34)"/></g><g id="freepik--check-mark--inject-2"><g id="freepik--check-mark--inject-2-2" data-name="freepik--check-mark--inject-2"><g id="freepik--Circle--inject-2"><path class="cls-3" d="M190.64,53.63h0l-.1-.05h0l-24.16-13.9h0l-.14-.07h0c-11.29-5.71-26.35-4-42.55,6.48-32.54,21-57.33,69.47-55.38,108.18,1,19.29,8.41,32.51,19.65,38.33h0l.09.05h0l24.17,13.91h0l.11.07h0c11.29,5.7,26.36,4,42.58-6.47,32.53-21,57.33-69.48,55.38-108.18C209.33,72.68,201.89,59.45,190.64,53.63Z"/><path class="cls-4" d="M111.39,206.11l-23.3-13.47h0l-.12-.07c-11.24-5.83-18.67-19.06-19.65-38.32C67.46,137,71.91,117.8,80,100l.15-.4,24,14.3c-8.08,17.82-12.53,37-11.66,54.27C93.41,187,100.55,200.1,111.39,206.11Z"/><path class="cls-5" d="M154.92,200.14c32.54-21,57.33-69.47,55.38-108.18s-29.92-53-62.45-32S90.51,129.46,92.46,168.16,122.38,221.18,154.92,200.14Z"/></g><path id="freepik--shadow--inject-2-4" data-name="freepik--shadow--inject-2" class="cls-3" d="M182.48,50.63l-40.79,84-8.78-9.51a14.43,14.43,0,0,0-21.2,19.58l23.13,25.05a14.4,14.4,0,0,0,9.82,4.62h.8a14.71,14.71,0,0,0,2.09-.16,14.41,14.41,0,0,0,10.89-8l46.77-96.33C200.41,59.23,192.43,52.6,182.48,50.63Z"/><path class="cls-6" d="M215.6,23c-.26-.15-.52-.29-.79-.42a12.54,12.54,0,0,0-16.74,5.8l-51.9,106.89-2.95-3.17a12.36,12.36,0,0,0-2.94-2.35l-9.19-5.31a12.53,12.53,0,0,0-15.48,19.35l23.13,25.05a12.21,12.21,0,0,0,3,2.37c1.51.86,8.06,4.66,9.14,5.28A12.52,12.52,0,0,0,168,171.89a7.82,7.82,0,0,0,.43-.81l61.4-126.45a12.56,12.56,0,0,0-5-16.33Z"/><path class="cls-7" d="M215.6,23c-.26-.15-.52-.29-.79-.42a12.54,12.54,0,0,0-16.74,5.8l-51.9,106.89-2.95-3.17a12.36,12.36,0,0,0-2.94-2.35l-9.19-5.31a12.53,12.53,0,0,0-15.48,19.35l23.13,25.05a12.21,12.21,0,0,0,3,2.37c1.51.86,8.06,4.66,9.14,5.28A12.52,12.52,0,0,0,168,171.89a7.82,7.82,0,0,0,.43-.81l61.4-126.45a12.56,12.56,0,0,0-5-16.33Z"/><path class="cls-7" d="M150.83,176.43c-1.06-.64-7.6-4.44-9.13-5.28a12.74,12.74,0,0,1-3-2.38l-23.12-25.05a12.45,12.45,0,0,1-2.39-3.8l9.19,5.31a12.3,12.3,0,0,0,2.4,3.8l23.13,25.05A12.94,12.94,0,0,0,150.83,176.43Z"/><path class="cls-7" d="M210.17,29.79a12.61,12.61,0,0,0-2.9,3.86l-53.38,110-7.72-8.37,51.9-106.89A12.11,12.11,0,0,1,201,24.48Z"/><path id="freepik--Check--inject-2" class="cls-6" d="M224,27.86a12.55,12.55,0,0,0-16.74,5.79l-53.38,110L143.23,132a12.52,12.52,0,0,0-18.38,17L148,174.09a12.52,12.52,0,0,0,17.7.69,12.35,12.35,0,0,0,2.77-3.72L229.83,44.6A12.54,12.54,0,0,0,224,27.86Z"/></g></g><g id="freepik--Character--inject-2"><g id="freepik--character--inject-2-2" data-name="freepik--character--inject-2"><path class="cls-8" d="M48.94,40.21c-4.84,0-8.15,1.27-11.58,6.15-3.17,4.49-11.82,19.45-11.82,19.45s-6.33-13-7-15.6-.59-3.75,0-4.88a10.21,10.21,0,0,0,1.6-4.43c.25-3.12,1-5.79.31-5.88-1.93-.1-2,2.38-3,3.84a1.21,1.21,0,0,1-1.72.08,1.09,1.09,0,0,1-.23-.29c-.43-.86-.2-2.29-.4-3.32a12.13,12.13,0,0,1,.27-1.69,7.51,7.51,0,0,0,2.22.06C18.43,35,19,35.56,20.17,35c.15-.24-.5-1.9-1.27-3.17a.86.86,0,0,0-.52-.39,9.71,9.71,0,0,0-4.29-.12.82.82,0,0,0-.56.3,10.56,10.56,0,0,0-1.26,2.54c-.09.27-.34.26-.4,0a52.19,52.19,0,0,1-.64-9.44c0-1.61-2.34-1.86-2.42.43A75,75,0,0,0,9,34.45c0,.28-.28.41-.39.1a38.21,38.21,0,0,1-1.82-10c-.12-1.52-2.57-1.77-2.54.37A54.71,54.71,0,0,0,5.69,36.15c.08.26-.17.5-.35.19a36.35,36.35,0,0,1-2.75-7c-.53-1.84-3-1.37-2.54.92.77,4.1,2,9.28,3.81,13,1.94,4,3.61,5.95,4.57,9.06s5,20.74,9.22,27.61c3.34,5.38,7.16,4.88,11.27,2S47.73,58.68,47.73,58.68Z"/><path class="cls-9" d="M25.54,65.8a19.93,19.93,0,0,1,2.38,6.29,11,11,0,0,0-1.46-7.87Z"/><path class="cls-6" d="M50,40.21A13,13,0,0,0,41,42c-3.41,2.15-4.6,5.14-6.25,7.75s-7.37,11.89-7.37,11.89,2.1,8.81,10.44,10.62l12.49-17Z"/><path d="M61.16,195c.64-.08,1.48,2.08,1.49,2.79A9,9,0,0,1,61,201.42,26,26,0,0,0,58,206.89a18.64,18.64,0,0,1-3.37,5.79c-2.22,2.84-7.43,7.6-15.34,5.54a7.37,7.37,0,0,1-3.6-1.82,2.36,2.36,0,0,1-.55-2.42Z"/><path class="cls-5" d="M45.62,192.53v.07a5.07,5.07,0,0,0,.05,1.78,12.49,12.49,0,0,1-3,9.76,19.08,19.08,0,0,1-3.71,3c-4,2.53-4.43,4.26-3.87,6.85,1.35,3,10.43,4.84,15.65.36a15.33,15.33,0,0,0,5-6.76A47.4,47.4,0,0,1,58.36,202c1-1.9,2.92-4,3-6,0-1.08-1-3.08-2.07-4.73s-1.93-3-2.78-2.79l.24.86c-.72.74-1.75,1-2.37,1.9-.78,1.07-.75,2.53-1.23,3.74a.41.41,0,0,1-.23.28.3.3,0,0,1-.34-.17,1,1,0,0,1-.07-.39l-.05-1.85a1.63,1.63,0,0,0-.27-1c-.49-.55-1.71-.49-2.39-.52-.91,0-1.82.07-2.73.17a1.33,1.33,0,0,0-.89.23A1.57,1.57,0,0,0,45.62,192.53Z"/><path class="cls-8" d="M32.2,155.68c2.11,6.94,12,31,12.57,32.41l2,4.77a7.29,7.29,0,0,0,4,.17c.21,2.3.55,5.91.69,7.73a30.91,30.91,0,0,1-.22,6.8c-.39,1.78-.84,3.64-1.18,5.42-.14.79-.29,1.58-.41,2.37a4,4,0,0,0,.2,2.49,3,3,0,0,0,.78.89,7,7,0,0,0,5,1.46,5.17,5.17,0,0,0,2.64-.88c1.53-1.09,2.07-3,2.85-4.62s.58-1.95.64-3.84c0-1.31.41-4.66.94-8.16s2.79-15.79,3.88-28a99.3,99.3,0,0,0,0-16.36C75.18,134.77,79,120.79,80.17,113s.6-10.78.45-15.33l-42.1,1C35.15,120.43,29.37,146.38,32.2,155.68Z"/><path class="cls-6" d="M31.54,138.32c.87-8,6.85-38.75,6.85-38.75H80.8s.28,5.9.2,8.62a80.85,80.85,0,0,1-2.47,13.94c-1.51,6.28-7.13,24-8.23,26.62s-3.17,10.18-3.17,10.18c1,14.23-1.67,27-3.7,44,0,0-.59,2.29-6.6,1.84-5.84-.45-7-2.6-7-2.6l-.38-14.64s-3.17,1-5.08.53c0,0-12.55-31-13.16-32.86S30.67,146.32,31.54,138.32Z"/><path class="cls-10" d="M31.54,138.32c.87-8,6.85-38.75,6.85-38.75H80.8s.28,5.9.2,8.62a80.85,80.85,0,0,1-2.47,13.94c-1.51,6.28-7.13,24-8.23,26.62s-3.17,10.18-3.17,10.18c1,14.23-1.67,27-3.7,44,0,0-.59,2.29-6.6,1.84-5.84-.45-7-2.6-7-2.6l-.38-14.64s-3.17,1-5.08.53c0,0-12.55-31-13.16-32.86S30.67,146.32,31.54,138.32Z"/><path class="cls-11" d="M49.53,119.61c-6-5.41-7.34-9.72-7.34-9.72a40,40,0,0,0,10.58,8.48s-5.71,30.11-5.29,36.31,2,32.81,2,32.81c0,.26-4-28.16-4.17-30.42C45,151.08,49.53,119.61,49.53,119.61Z"/><path d="M62.73,218c.59.18.52,1.94.25,2.6a8,8,0,0,1-2.72,2.82,13.22,13.22,0,0,0-4,4.33,20.38,20.38,0,0,1-6.31,6.16,15.21,15.21,0,0,1-11.09,1.55c-4-1.13-4.35-2.1-4.32-3.61Z"/><path class="cls-5" d="M50.44,208.75c-1,5.07-2.87,8.8-7.08,11.93-3.36,2.49-5.79,3.76-8.47,6-1.14,1-1.23,3-.37,5.15,1.82,1.45,4.39,2.29,7.84,2.28,3.87,0,5.35-.69,7.57-2.2a20.5,20.5,0,0,0,3-2.54c1.86-1.86,3.17-4.16,4.49-5.64s4.24-3,5.07-4.77c.46-1,.27-3.23,0-5.16-.28-1.77.26-4.88-.59-5.07L61.77,210c-.07.28-.25.43-.84.63a4.26,4.26,0,0,1-1.63,0,1,1,0,0,0-1.1.31c-.57.68-.72,1.63-1.45,2.18a.32.32,0,0,1-.17.09.17.17,0,0,1-.18,0,.26.26,0,0,1,0-.21l.2-1.9a1.82,1.82,0,0,0,0-.57,1.26,1.26,0,0,0-.63-.84,6.63,6.63,0,0,0-1.7-.7,10.32,10.32,0,0,0-1.91-.33A6,6,0,0,0,50.44,208.75Z"/><path class="cls-6" d="M77,42a25.48,25.48,0,0,1,3.16,7.34A120.21,120.21,0,0,1,82.81,74c0,11.2-1.51,29.35-1.51,29.35-13,6.51-34,2.66-43.19-3.7.37-2,.69-12.61,1.42-19.6.48-12,.89-18.27,1-23.61C40.67,45.81,46,40.3,50,40.22l10.18.16Z"/><path class="cls-9" d="M80.18,100.09c-1.93,1.59-5.7,4.64-6.42,6.18-.8,1.77-1.27,4.44-1.8,5.44s.27,1.51,1.38,1.15,1.79-1.31,2.65-3.61a11,11,0,0,1,3.25-4.12Z"/><path class="cls-8" d="M73.12,120.83c.46.89,1.54.9,2.54,1a8,8,0,0,0,3.59-.41,6.59,6.59,0,0,0,3.46-2.4c1-1.41,1.22-3.17,1.78-4.79,1.17-3.39,4.64-5.83,5.21-9.43a24,24,0,0,1,.64-4.15c.24-.54,6-10.37,8-14.63,2-4.1,3.42-6,1.65-10.94s-7.82-22.23-12.1-28.24C85.46,43.41,81.61,42.43,77,42c-3.55,9.24.58,18.79.58,18.79L87,78.94S83.29,91.41,81,98.34c-.63,1.91-1.9,3.12-3.35,5.26a40.38,40.38,0,0,0-2.57,3.54,12.11,12.11,0,0,0-1,3.9C73.64,113.9,72.88,120.41,73.12,120.83Z"/><path class="cls-6" d="M76.47,42c2.46.1,6,.52,8.09,1.58s3.56,2.38,6,7.23,6,14.29,6,14.29-1.17,7.11-12.43,9L76.47,60A28,28,0,0,1,76.47,42Z"/><path d="M47.23,19.33a14.36,14.36,0,0,1,.86,1.87,11.27,11.27,0,0,0,1.43,2.35,24,24,0,0,0,5.37,4.1,5.83,5.83,0,0,0,3.81,1.21,20,20,0,0,1,4.35.22l5,.45-.28,5.25s.64-1.39,1.47-3.05C69.94,30.3,73,23.07,73,23c1.5-3.58,3.29-8.36,1.49-12.13a5,5,0,0,0-2-2.23,4.52,4.52,0,0,0,.16-1.79A5.75,5.75,0,0,0,70,2.69,12.58,12.58,0,0,0,65.33.75,29.9,29.9,0,0,0,58.53,0a40.45,40.45,0,0,0-6.68.77,24.56,24.56,0,0,1-3.72.38,7.22,7.22,0,0,1-1.61-.07,16.82,16.82,0,0,1-2-.71.53.53,0,0,0-.35,0,.42.42,0,0,0-.18.3,5.62,5.62,0,0,0,1,4.57A3,3,0,0,1,44.25,5a7.87,7.87,0,0,1-.86-.47,5.09,5.09,0,0,1-1.2-1.16.35.35,0,0,0-.2-.14.38.38,0,0,0-.3.19,4.46,4.46,0,0,0-.64,3.5,7.63,7.63,0,0,0,1.65,3.24,4.43,4.43,0,0,0-.23,4.25A5.82,5.82,0,0,0,43.59,16c.57.59,1.27,1.06,1.85,1.61A10.67,10.67,0,0,1,47.23,19.33Z"/><path class="cls-8" d="M62.42,10.6a9.84,9.84,0,0,0,.37,2.8,5.45,5.45,0,0,0,1.41,2.1,15.28,15.28,0,0,1,2,2,8.44,8.44,0,0,1,1.11,3.65,2.53,2.53,0,0,0,1,2c1.36.84,2.17-.79,2.89-1.59.93-.86,3.7-1.9,5,1S75,29.61,72.75,30.23c-3.83,1.07-4.67-1.54-4.67-1.54l-.73,13.69c-2.16,4.1-7.25,5.41-10.59,4.75-2.88-.56-4.46-2.58-1.75-5.51l.14-4.17a24.11,24.11,0,0,1-5.12.1c-2.79-.52-4.16-2.89-4.91-5.94-1.2-4.9-1.75-10-.26-21.08.67-.38,3.42,1.76,7.6,2A19.26,19.26,0,0,0,62.42,10.6Z"/><path class="cls-9" d="M55.13,37.44s6.27-1,8.49-2.14a7.24,7.24,0,0,0,3.11-2.89,9.69,9.69,0,0,1-1.83,3.46c-1.66,2-9.83,3.23-9.83,3.23Z"/><path d="M58.39,15.5l2.92.89a1.6,1.6,0,0,0-1.05-2,1.49,1.49,0,0,0-1.85,1Z"/><path class="cls-12" d="M57.38,29.34l-4.3,1.46a2.24,2.24,0,0,0,2.77,1.52l.07,0A2.39,2.39,0,0,0,57.38,29.34Z"/><path class="cls-13" d="M57,30.39a2.53,2.53,0,0,0-2.45,1.9,2.19,2.19,0,0,0,1.34,0,2.35,2.35,0,0,0,1.53-1.86A2,2,0,0,0,57,30.39Z"/><path d="M45.35,16l3-.39a1.45,1.45,0,0,0-1.61-1.27h0A1.53,1.53,0,0,0,45.35,16Z"/><path class="cls-5" d="M63.62,17.23l9.81,3.34A3.58,3.58,0,0,0,70.6,22l-6.94-2.64Z"/><path d="M46.81,21.05a1.19,1.19,0,0,0,1.1,1.27h0a1.19,1.19,0,0,0,1.21-1.18h0a1.18,1.18,0,0,0-1.1-1.27h0a1.2,1.2,0,0,0-1.21,1.18Z"/><path d="M58,21.05a1.18,1.18,0,1,0,1.21-1.17A1.19,1.19,0,0,0,58,21.05Z"/><path class="cls-5" d="M41,17.94a2.65,2.65,0,0,0,.63,1.38,1.27,1.27,0,0,1,.25.49,24.52,24.52,0,0,0,.87,3.74,4.11,4.11,0,0,0,4,2.64,5.72,5.72,0,0,0,1.37-.11h.11a4.08,4.08,0,0,0,1.11-.44l.06,0,.1-.06.12-.08.11-.09.12-.09.11-.11a1.52,1.52,0,0,0,.22-.22,5.18,5.18,0,0,0,.89-1.41c.58-1.31.43-3.13,1.38-3.35h.24c1.27,0,1.16,2,1.9,3.43a4.87,4.87,0,0,0,4.74,2.85H60a5.06,5.06,0,0,0,.68-.1l.21-.05a.66.66,0,0,0,.2-.06l.14,0a5.28,5.28,0,0,0,.76-.36c.08-.06.17-.11.25-.18a3.16,3.16,0,0,0,.44-.38A4.39,4.39,0,0,0,63.55,24a23.23,23.23,0,0,0,.77-3.7,1.69,1.69,0,0,1,.21-.54,2.59,2.59,0,0,0,.64-1.33,1.17,1.17,0,0,0-.79-1.17l-.69-.09a20.73,20.73,0,0,0-6.84.08c-2.16.59-2.92,1.27-4.13,1.27s-1.86-.75-3.92-1.42a18.39,18.39,0,0,0-6.41-.33l-.63.07A1.09,1.09,0,0,0,41,17.94ZM55.3,19.3a1.91,1.91,0,0,1,.63-.5.3.3,0,0,1,.11-.06h.07a1.4,1.4,0,0,1,.3-.15l.28-.11a8.37,8.37,0,0,1,.93-.3l.37-.09c.31-.06.63-.11.95-.14h.23c2.08-.17,3.39.32,3.86.75s.27,2.37.07,3.36v.14a1.62,1.62,0,0,1-.09.4,1,1,0,0,1-.07.24h0c0,.14-.09.27-.14.41h0a.84.84,0,0,1-.06.14l0,.08-.05.09,0,.12-.07.13c0,.05-.06.09-.09.13l-.09.14a3.29,3.29,0,0,1-2.92,1.39,4.06,4.06,0,0,1-3.08-1.18h0a4.4,4.4,0,0,1-1-2C55,21.2,54.89,19.89,55.3,19.3ZM43,18.28a1.77,1.77,0,0,1,.5-.32h0l.23-.09.14-.05h.34a3.42,3.42,0,0,0,.48-.08h1.1a6.6,6.6,0,0,1,1,.09,5.94,5.94,0,0,1,3.46,1.52,4.9,4.9,0,0,1,.12,3,4.73,4.73,0,0,1-.19.74v.17l0,.09-.08.18c0,.05,0,.11-.08.16v.05l-.06.11-.06.09h0a3.31,3.31,0,0,1-3.1,1.42A3.77,3.77,0,0,1,45.22,25a4.4,4.4,0,0,1-2-3.17c-.31-1.14-.61-3.08-.16-3.51Z"/><path class="cls-9" d="M53.08,20.22l-.23,8.15-4.54-1.31,4.24-6.91A1.36,1.36,0,0,1,53.08,20.22Z"/></g></g></g></g></svg>