<svg xmlns="http://www.w3.org/2000/svg" xmlns:xlink="http://www.w3.org/1999/xlink" viewBox="0 0 602.68 397.81"><defs><style>.cls-1{isolation:isolate;}.cls-2{fill:#ffd446;opacity:0.15;}.cls-3{fill:url(#linear-gradient);}.cls-4{fill:#f49206;}.cls-5{fill:#bcbcbc;}.cls-10,.cls-11,.cls-12,.cls-13,.cls-14,.cls-21,.cls-24,.cls-25,.cls-26,.cls-29,.cls-5,.cls-7{mix-blend-mode:color-burn;}.cls-6{fill:#e8f1f9;}.cls-7{fill:#8e8e8e;}.cls-8{fill:#05436d;}.cls-9{fill:#5e85dd;}.cls-10{fill:url(#linear-gradient-2);}.cls-11{fill:url(#linear-gradient-3);}.cls-12{fill:url(#linear-gradient-4);}.cls-13{fill:url(#linear-gradient-5);}.cls-14{fill:url(#linear-gradient-6);}.cls-15{fill:#050505;}.cls-16{fill:#ffb680;}.cls-17{fill:#2e5fb7;}.cls-18{fill:#fecd6c;}.cls-19{fill:#94b6f2;}.cls-20{fill:#6394db;}.cls-21{fill:#afafaf;}.cls-22{fill:#f5f5f5;}.cls-23{fill:#ffa466;}.cls-24{fill:url(#linear-gradient-7);}.cls-25{fill:url(#linear-gradient-8);}.cls-26{fill:url(#linear-gradient-9);}.cls-27{fill:#ffe9c2;}.cls-28{fill:#3777c4;}.cls-30{fill:url(#linear-gradient-10);}.cls-31{fill:url(#linear-gradient-11);}.cls-32{fill:url(#linear-gradient-12);}.cls-33{fill:url(#linear-gradient-13);}.cls-34{fill:url(#linear-gradient-14);}</style><linearGradient id="linear-gradient" x1="269.38" y1="84.09" x2="269.38" y2="238.51" gradientUnits="userSpaceOnUse"><stop offset="0" stop-color="#fecd6c"/><stop offset="1" stop-color="#fa2"/></linearGradient><linearGradient id="linear-gradient-2" x1="343.56" y1="102.82" x2="318.68" y2="102.82" gradientUnits="userSpaceOnUse"><stop offset="0" stop-color="#ccc"/><stop offset="1" stop-color="#fff"/></linearGradient><linearGradient id="linear-gradient-3" x1="242.64" y1="102.82" x2="217.76" y2="102.82" xlink:href="#linear-gradient-2"/><linearGradient id="linear-gradient-4" x1="326.04" y1="94.84" x2="326.04" y2="68.32" gradientUnits="userSpaceOnUse"><stop offset="0" stop-color="#a3a3a3"/><stop offset="1" stop-color="#fff"/></linearGradient><linearGradient id="linear-gradient-5" x1="225.13" y1="94.84" x2="225.13" y2="68.32" xlink:href="#linear-gradient-4"/><linearGradient id="linear-gradient-6" x1="345.08" y1="218.35" x2="345.08" y2="124.74" xlink:href="#linear-gradient-2"/><linearGradient id="linear-gradient-7" x1="97.55" y1="200.21" x2="95.2" y2="173.24" gradientUnits="userSpaceOnUse"><stop offset="0" stop-color="#fff"/><stop offset="1" stop-color="#aaa"/></linearGradient><linearGradient id="linear-gradient-8" x1="70.37" y1="192.89" x2="74.67" y2="224.95" xlink:href="#linear-gradient-7"/><linearGradient id="linear-gradient-9" x1="113.79" y1="345.05" x2="39.91" y2="204.91" xlink:href="#linear-gradient-7"/><linearGradient id="linear-gradient-10" x1="545.02" y1="175.56" x2="533.56" y2="213.87" xlink:href="#linear-gradient-7"/><linearGradient id="linear-gradient-11" x1="537.59" y1="173.34" x2="526.13" y2="211.65" xlink:href="#linear-gradient-7"/><linearGradient id="linear-gradient-12" x1="521.23" y1="168.44" x2="509.76" y2="206.75" xlink:href="#linear-gradient-7"/><linearGradient id="linear-gradient-13" x1="502.35" y1="162.79" x2="490.88" y2="201.1" xlink:href="#linear-gradient-7"/><linearGradient id="linear-gradient-14" x1="492.72" y1="159.91" x2="481.26" y2="198.22" xlink:href="#linear-gradient-7"/></defs><title>dibujo 7</title><g class="cls-1"><g id="Capa_2" data-name="Capa 2"><g id="Esquema"><path class="cls-2" d="M503.86,397.57c4.6-8.38,31.49-62.95,12-113.15-21.2-54.74-48.33-51.78-102.08-64.6s4.93-81.37-8.88-136.11S330-2.1,260.45,32.91s-43.4,134.63-156.83,155.84C-6,209.25,35.49,386.23,38.37,397.81c0,0,77.5-.58,237.22-.58C430,397.23,503.86,397.57,503.86,397.57Z"/><path class="cls-3" d="M342.47,224.7a7.32,7.32,0,0,1-7.3,7.3l-131.59,0a7.33,7.33,0,0,1-7.3-7.3l0-110.54a7.33,7.33,0,0,1,7.3-7.31l131.58,0a7.32,7.32,0,0,1,7.3,7.3Z"/><path class="cls-4" d="M347.59,106.86H335.18a7.32,7.32,0,0,1,7.3,7.3V224.7a7.31,7.31,0,0,1-7.21,7.29h12.32a7.31,7.31,0,0,0,7.29-7.3l0-110.54A7.32,7.32,0,0,0,347.59,106.86Z"/><path class="cls-5" d="M268.43,200.07a10.82,10.82,0,0,1-7.62-3.14,10.6,10.6,0,0,1-3.19-7.6V174.26a19.73,19.73,0,1,1,25.79-29.73,19.52,19.52,0,0,1-2.31,29.74v15.07a10.59,10.59,0,0,1-3.19,7.59,10.8,10.8,0,0,1-7.64,3.13h-1.84Z"/><path class="cls-6" d="M285.87,158.47a16.49,16.49,0,1,0-24.89,14v16.87a7.43,7.43,0,0,0,7.46,7.38h1.83a7.41,7.41,0,0,0,7.47-7.37V172.46A16.25,16.25,0,0,0,285.87,158.47Z"/><path class="cls-7" d="M266.38,189.33V172.46a16.25,16.25,0,0,1,5.7-30.12,15.84,15.84,0,0,0-2.69-.22A16.27,16.27,0,0,0,261,172.46v16.87a7.43,7.43,0,0,0,7.46,7.38h1.83a7.48,7.48,0,0,0,1.78-.21A7.4,7.4,0,0,1,266.38,189.33Z"/><path class="cls-8" d="M233.84,98.76V57.29a39.94,39.94,0,0,1,39.88-39.88h3.78A39.93,39.93,0,0,1,317.35,57.3V98.78h17.4V57.3A57.33,57.33,0,0,0,277.5,0h-3.78a57.34,57.34,0,0,0-57.29,57.28V98.76Z"/><path class="cls-9" d="M344.05,106.86l-2.9-5a6.73,6.73,0,0,0-5.25-3H316.19a6.73,6.73,0,0,0-5.25,3l-2.9,5Z"/><path class="cls-10" d="M317.61,106.86h26.44l-2.9-5a6.73,6.73,0,0,0-5.25-3H317.61Z"/><path class="cls-9" d="M243.13,106.86l-2.9-5a6.73,6.73,0,0,0-5.25-3H215.27a6.75,6.75,0,0,0-5.25,3l-2.9,5Z"/><path class="cls-11" d="M216.69,106.86h26.44l-2.9-5a6.73,6.73,0,0,0-5.25-3H216.69Z"/><rect class="cls-12" x="317.35" y="66.68" width="17.4" height="32.1"/><rect class="cls-13" x="216.43" y="66.68" width="17.4" height="32.1"/><path class="cls-14" d="M342.48,122.48V224.7a7.31,7.31,0,0,1-7.21,7.29h12.32a7.31,7.31,0,0,0,7.29-7.3l0-102.22Z"/><path class="cls-15" d="M75.27,372.55s-2.46,5,2.59,7.23,19.66,7.67,21.34,4.8c1.25-2.14-6.66-7.27-11.88-10.22S76.74,368.59,75.27,372.55Z"/><path class="cls-16" d="M76.6,374.11c2.08.94,18.51,8.3,18.85,7,.41-1.52-14.9-9.13-15.92-9.67Z"/><path class="cls-16" d="M84,374.3c3.93-10.08,9.51-27.87,9.71-28.54l-5-1.51c-.06.16-6.23,19-10.09,28.9Z"/><path class="cls-9" d="M118.5,300.77c1.63-3.33,2.26-4.34,3.81-7.89,1.63-3.73-1.27-10.64-9.81-10-5.65.4-8.48,6.14-8.89,7.67-3.74,14-19.39,51.82-17.67,55.34s9.83,5.84,10.5,5S105.78,326.81,118.5,300.77Z"/><path class="cls-9" d="M91.21,226.73c-10.47-13.31-29,11.09-21.68,23.86,4.58,8,21.22,27.48,34.68,43a13.45,13.45,0,0,0,12.57,4.14c6.24-1.37,7.24-9.25,6.22-11.47C114.76,268.42,91.21,226.73,91.21,226.73Z"/><path class="cls-17" d="M90.7,241.66c.64-11.74-13.08-16.06-21.9-9.13-4.37,3.43-9.25,8.32-10.14,12.75-1.8,9-2.19,34.64-2.31,55.18a13.42,13.42,0,0,0,6.7,11.4c5.6,3.1,11.55-2.17,12.24-4.51C80.87,288.52,90.7,241.66,90.7,241.66Z"/><path class="cls-15" d="M44.16,391s-.68,5.54,4.82,6,21.09.78,21.73-2.48c.47-2.43-8.68-4.68-14.58-5.74S44.24,386.78,44.16,391Z"/><path class="cls-16" d="M45.92,392c2.28.2,20.21,1.74,20.12.45-.11-1.58-17.07-3.73-18.21-3.9Z"/><path class="cls-16" d="M51.44,392.28c2.21-10.59,4.77-29.06,4.86-29.75l-5.21-.66c0,.17-3,19.77-5.17,30.17Z"/><path class="cls-17" d="M73.27,314.07c1.06-3.56,1.52-4.65,2.46-8.41,1-3.94-3-10.28-11.33-8.27-5.5,1.33-7.35,7.45-7.5,9-1.37,14.45-10.57,54.31-8.29,57.49s10.66,4.14,11.17,3.18S65,341.85,73.27,314.07Z"/><path class="cls-15" d="M52,159.9c-1.51-3.36-1.56-4.76-3.78-5.8s-17.4-5.26-19.61,12.53c-1.52,12.23-4.75,21-12,20.89C10.75,187.4,0,189.83,0,205.77s19.35,24,33.62,16.54,20.69-18.47,20.54-30.14C54,179.9,54.09,164.55,52,159.9Z"/><path class="cls-18" d="M52.84,152.15l-4.63,1.95a19.71,19.71,0,0,0,1.76,8c1.83,3.58,3.18,3.64,3.18,3.64l6.79-3.58a9.71,9.71,0,0,0-1.43-7.2A6.51,6.51,0,0,0,52.84,152.15Z"/><path class="cls-15" d="M88,144.67C87.6,130.38,62.8,128,55.89,140.4s3.65,29,17.85,28.56C85,168.61,88.7,168.22,88,144.67Z"/><path class="cls-16" d="M76.87,180.53a270,270,0,0,0,51.1-4.7,4.94,4.94,0,0,1,5.54,4c1.11,4.9-3.26,5.81-3.26,5.81l-.31.08c-25.14,6.75-50.23,6.89-54.27,3.33S73,180.94,76.87,180.53Z"/><path class="cls-18" d="M103,175.67l3.84,18.56s-24.25,2.52-33.83.56-12.11-20.49,1.59-20.26C89.25,174.76,103,175.67,103,175.67Z"/><path class="cls-18" d="M77.52,175.39c8.76,4,14,44.1,18.25,59.88.74,2.72,2,12.69-8.88,18.38-16.42,8.54-26.87,4.49-29.84.52,1.46-14-3-60,2-73C60.75,176.64,70.2,172.05,77.52,175.39Z"/><path class="cls-18" d="M77.52,175.39c8.76,4,14,44.1,18.25,59.88.74,2.72,2,12.69-8.88,18.38-16.42,8.54-26.87,4.49-29.84.52,1.46-14-3-60,2-73C60.75,176.64,70.2,172.05,77.52,175.39Z"/><path class="cls-16" d="M84.07,149.06s2.5,15.69-.85,19.14-9.48.76-9.48.76.29,5,.49,6.09,7.69,8.63.52,10.83c-6.07,1.87-9.85-8.38-9.85-8.38L65,156.61s-3.89-3.26-2-6.54,5.42,1.78,5.42,1.78l-.86-8.62S78.82,150.22,84.07,149.06Z"/><path class="cls-16" d="M15.39,235.59l6.82-3.69s1-2.69,2-11.21c0,0,.67-4.2-4.36-3.7-4.75.47-4.41,4.2-4.41,4.2S15.39,235.59,15.39,235.59Z"/><path class="cls-16" d="M59.45,186.75a270.35,270.35,0,0,1-41.76,29.83,5,5,0,0,0-1.6,6.63c2.36,4.43,6.27,2.26,6.27,2.26l.28-.13C46.08,214,65.17,197.73,65.9,192.4S62.65,184.53,59.45,186.75Z"/><path class="cls-18" d="M36.47,200.16l9.21,16.57s13-8,20.31-14.55c4.75-4.23,0-27.94-5.91-22.77C49.06,189,36.47,200.16,36.47,200.16Z"/><path class="cls-19" d="M94.4,245.14l9.09-9.08a8.91,8.91,0,0,0,2.25-5.34l0-3.31a3.22,3.22,0,0,1,3.16-3.16l3.31,0a3.23,3.23,0,0,0,3.16-3.17l0-1.66a3.23,3.23,0,0,1,3.17-3.16l1.66,0a3.24,3.24,0,0,0,3.16-3.17l0-1.66a3.23,3.23,0,0,1,3.16-3.17l1.66,0a3.23,3.23,0,0,0,3.17-3.16l.1-8.06a3.23,3.23,0,0,1,3.16-3.17l8.06-.1a3.23,3.23,0,0,0,3.17-3.16l0-3.31a3.22,3.22,0,0,1,3.17-3.16l3.3,0a3.24,3.24,0,0,0,3.16-3.17l0-1.37.07-5.83h0l.16-12.2a2.67,2.67,0,0,0-2.71-2.7l-19.8.25a7.77,7.77,0,0,0-4.67,2L69.45,220.18a44.4,44.4,0,1,0,25,25Z"/><path class="cls-20" d="M154.88,159.35h0Zm1.9,1.44-.12-.09-.13-.1-.13-.1-.12-.09-.13-.1-.13-.09-.12-.1-.13-.1-.13-.09-.12-.1-.13-.09-.13-.1-.12-.09-.13-.1-.12-.1a2.69,2.69,0,0,1,1,2.09l-.16,12.2h0l-.07,5.83,0,1.37a3.24,3.24,0,0,1-3.16,3.17l-3.3,0a3.22,3.22,0,0,0-3.17,3.16l0,3.31a3.23,3.23,0,0,1-3.17,3.16l-8.06.1a3.23,3.23,0,0,0-3.16,3.17l-.1,8.06a3.23,3.23,0,0,1-3.17,3.16l-1.66,0a3.23,3.23,0,0,0-3.16,3.17l0,1.66a3.24,3.24,0,0,1-3.16,3.17l-1.66,0a3.23,3.23,0,0,0-3.17,3.16l0,1.66a3.23,3.23,0,0,1-3.16,3.17l-3.31,0a3.22,3.22,0,0,0-3.16,3.16l0,3.31a8.91,8.91,0,0,1-2.25,5.34l-9.09,9.08A44.39,44.39,0,0,1,26.12,296.7l.09.08.14.1.13.1.11.08.14.11.12.09.13.1.13.09.12.1.13.1.12.08.13.11.13.09.11.09.14.11a44.4,44.4,0,0,0,68.43-51.46l9.09-9.08a8.91,8.91,0,0,0,2.25-5.34l0-3.3a3.23,3.23,0,0,1,3.16-3.17l3.31,0a3.23,3.23,0,0,0,3.16-3.17l0-1.66a3.23,3.23,0,0,1,3.17-3.16l1.66,0a3.25,3.25,0,0,0,3.17-3.17l0-1.66a3.22,3.22,0,0,1,3.16-3.16l1.66,0a3.23,3.23,0,0,0,3.17-3.16l.1-8.06a3.24,3.24,0,0,1,3.16-3.17l8.06-.1a3.23,3.23,0,0,0,3.17-3.16l0-3.3a3.24,3.24,0,0,1,3.17-3.17l3.3,0a3.23,3.23,0,0,0,3.16-3.17l0-1.37.07-5.83h0l.16-12.21A2.65,2.65,0,0,0,156.78,160.79Z"/><path class="cls-21" d="M68.58,227.57a4.33,4.33,0,0,0,0,6.09l.19.18a4.32,4.32,0,0,0,6.08,0l75.06-75.06-12.7.16Z"/><path class="cls-21" d="M48,222.05a39.77,39.77,0,1,0,44.58,44.58Z"/><path class="cls-22" d="M37,286.84a6.55,6.55,0,1,0-9.26,0A6.54,6.54,0,0,0,37,286.84Z"/><path class="cls-16" d="M157.86,164.11c1.06-.46,2-.7,2.3-.28,1.48,2.09-1,2.35-2.37,5Z"/><path class="cls-23" d="M155,174.1c.26-5.89,1.35-6.09,3.65-6.6,3.13-.68,2.92,11.28-.19,12.05S154.78,178.43,155,174.1Z"/><path class="cls-23" d="M26.16,226.35c-.42-1.07-.77-1.7-1.28-1.62-2.52.42-1.32,1.63-2.28,4.5Z"/><path class="cls-23" d="M21.11,235.44c4-4.33,3.37-5.25,2.1-7.24-1.71-2.7-10.06,5.87-8.42,8.63S18.17,238.63,21.11,235.44Z"/><path class="cls-24" d="M94.44,195.2l16.73-16.74-1.06.13c-2.73,2.26-13.29,11-15.37,12.74-2.39,2-4.58,2.45-5.6.25l0-.06a51.22,51.22,0,0,0-9-13.87h0c2.62,3.47,4.9,10.11,6.92,17.84C89.51,195.44,92.05,195.33,94.44,195.2Z"/><path class="cls-25" d="M88.4,201.23c-.34-1.45-.68-2.88-1-4.29.58,2.38-5.23,8.62-8.94,12.58s-9.33,9.77-9.33,9.77a67.12,67.12,0,0,0-8.51-3.47c-2.83-.73-3.2-1.76-3.22-3.08,0-2.54,5.91-5.52,9.11-11.11a3.71,3.71,0,0,1-.48.55,113.85,113.85,0,0,1-9.39,7.28c0,2.56.06,5.16.12,7.77a44.39,44.39,0,0,1,12.73,3Z"/><path class="cls-26" d="M56.16,312.25a48.37,48.37,0,0,0,18.1-1.4c.36-1.13.67-2.14,1-3.54.5-1.66,1-3.55,1.57-5.6a44.33,44.33,0,0,1-20.06,5.64C56.65,308.79,56.43,310.44,56.16,312.25Zm43.22-64.57,2.21-2.3-1.38-2.5-3.79,3.79a44.53,44.53,0,0,1-1.53,36.09l4.33,5.05C109.63,265,99.38,247.68,99.38,247.68Z"/><path class="cls-16" d="M515.23,178.47a269.82,269.82,0,0,1-50.29,10.19,5,5,0,0,0-4.17,5.4c.35,5,4.8,4.62,4.8,4.62h.31c26-.76,50.09-7.85,52.94-12.42S519.06,177.74,515.23,178.47Z"/><path class="cls-18" d="M488.78,181.33l1.65,18.88s21.9-2.69,30.52-7.33,5.7-23.1-7.35-18.95C499.66,178.36,488.78,181.33,488.78,181.33Z"/><path class="cls-15" d="M557.06,348s4.51,3.3,1.07,7.6-13.86,15.93-16.67,14.17c-2.1-1.32,2.51-9.53,5.78-14.57S553.93,345.15,557.06,348Z"/><path class="cls-16" d="M556.61,350c-1.41,1.8-12.54,15.95-13.42,15-1.07-1.15,8.95-15,9.6-15.95Z"/><path class="cls-16" d="M550.46,354.07c-8.69-6.45-22.87-18.55-23.4-19l3.45-3.95c.13.11,15.38,12.79,23.91,19.12Z"/><path class="cls-17" d="M482.18,310.12c-3.15-2-4.22-2.48-7.42-4.66-3.37-2.29-4.59-9.68,3-13.71,5-2.66,10.44.69,11.61,1.77,10.62,9.89,44,33.58,44.38,37.47s-5.21,10.18-6.24,9.8S506.79,325.41,482.18,310.12Z"/><path class="cls-17" d="M497.6,233.78c9.28-14.16,29.88,8.55,23.65,21.91-3.87,8.3-18.77,29.19-30.84,45.81a13.45,13.45,0,0,1-12.17,5.21c-6.33-.83-8-8.59-7.18-10.89C477.73,277.35,497.6,233.78,497.6,233.78Z"/><path class="cls-9" d="M501.41,246.78c0-11.76,14-15.29,22.39-7.87,4.16,3.67,8.75,8.83,9.39,13.3,1.29,9.08.22,34.71-.82,55.22a13.43,13.43,0,0,1-7.35,11c-5.76,2.77-11.4-2.82-12-5.2C508.56,294.12,501.41,246.78,501.41,246.78Z"/><path class="cls-27" d="M514.59,173.43c-7.72,2.66-13.9,46.7-18.18,62.47-.74,2.73.5,12,10.4,17.38,12.89,7,25.29,3.19,28.27-.77-1.46-14,3-60-2-73C531.38,175,522.32,170.77,514.59,173.43Z"/><path class="cls-18" d="M523.51,173c-1.8-.25,0,2.72-1.16,5.6s-4,6.26-4.7,17.35,4.59,16.37,5.58,30.44.59,34.4.29,42.71-.47,16.22,1.28,16.42a12.69,12.69,0,0,0,11.43-5.38,26,26,0,0,0,4.1-11.05s-3.09-15.37-3.09-26.18-.78-35.75-1.17-45.24-1.37-16.34-3.26-19.38S526.2,173.4,523.51,173Z"/><path class="cls-18" d="M513.41,174.17s-2.06,2.35-3.72,8-6.19,26.24-8.16,36.11C498,235.93,494.78,240,494.78,240s1.48-4.69,2.26-8.11,2.49-10.89,3.32-15.14,2.56-11.89,3-13.85,2.91-12.35,3.67-15a85.93,85.93,0,0,1,2.94-8.47C511.75,175.2,513.41,174.17,513.41,174.17Z"/><path class="cls-15" d="M566.63,390.58s.84,5.52-4.64,6.11-21.06,1.41-21.8-1.83c-.55-2.41,8.54-4.93,14.41-6.17S566.42,386.36,566.63,390.58Z"/><path class="cls-16" d="M564.9,391.67c-2.27.27-20.15,2.35-20.1,1.05.06-1.57,17-4.24,18.08-4.44Z"/><path class="cls-16" d="M558.8,392.37c-4.79-9.7-11.9-26.94-12.16-27.58l4.87-2c.07.16,7.87,18.39,12.57,27.91Z"/><path class="cls-9" d="M518.06,322.13c-1.92-3.18-2.64-4.12-4.49-7.53-2-3.57.33-10.71,8.9-10.85,5.65-.09,9,5.38,9.52,6.87,5,13.65,23.84,49.93,22.44,53.58s-9.28,6.68-10,5.87S533,347,518.06,322.13Z"/><path class="cls-16" d="M470.46,192.1c-1.55-11.91-4.09-29.86-4.09-29.86l-4.36,0S461.16,179,460.77,194c0,1.89,1.94,5.36,6.67,3.56,4.46-1.7,3.14-5.22,3.14-5.22A1.15,1.15,0,0,1,470.46,192.1Z"/><path class="cls-16" d="M531.06,181.19a270.55,270.55,0,0,0,39.68,32.55,5,5,0,0,1,1.15,6.72c-2.65,4.26-6.4,1.84-6.4,1.84l-.27-.15c-22.64-12.86-40.59-30.38-41-35.76S528,178.76,531.06,181.19Z"/><path class="cls-18" d="M553.1,196.11,542.8,212s-9.46-8.74-20.6-17.15c-7.81-5.89,2.57-22.08,8.11-19C539.4,180.87,553.1,196.11,553.1,196.11Z"/><path class="cls-15" d="M499.77,163.6s-9-1.21-11.31-15.32,21-22,30.68-11.54.53,20.14,4.25,24.84c3.87,4.89-6.66,12-13.58,2.49S499.77,163.6,499.77,163.6Z"/><path class="cls-16" d="M495.47,153.17s2.29,15.72,6.52,18,9.27-2.1,9.27-2.1l2,5.11c-.07,1.13-5.9,9.43,1.57,10,6.11.47,7.62-11.13,7.62-11.13l-6.61-18.37s2.74-4.28,0-6.84-4.64,3.32-4.64,3.32l-1.75-8.48S500.82,152.71,495.47,153.17Z"/><path class="cls-16" d="M569.13,213.47c-27.75-.32-53.39-1.73-53.39-1.73l-1.89,3.94a545,545,0,0,0,55.07,7.82s3.38.12,3.82-4.92c.41-4.76-3.33-5.11-3.33-5.11Z"/><path class="cls-16" d="M455.24,161.57c-1.08.4-1.92.88-1.85,1.39.38,2.53,2.36,1,5.21,2Z"/><path class="cls-23" d="M464.24,166.79c-4.26-4.07-5.19-3.47-7.2-2.24-2.74,1.67,5.68,10.17,8.47,8.58S467.37,169.78,464.24,166.79Z"/><path class="cls-20" d="M390.26,138.84a3.39,3.39,0,0,0,0,4.78l6.5,6.5a3.38,3.38,0,0,0,4.77,0L422.66,129l-11.28-11.28Z"/><path class="cls-20" d="M419.73,168.31a3.37,3.37,0,0,0,0,4.77l6.5,6.51a3.4,3.4,0,0,0,4.78,0l21.11-21.11-11.28-11.29Z"/><path class="cls-20" d="M412.2,146.37a3.4,3.4,0,0,0,0,4.78l6.51,6.5a3.39,3.39,0,0,0,4.77,0l13.91-13.91-11.28-11.28Z"/><path class="cls-19" d="M413.35,107,563.11,256.75l-6.36,6.36L407,113.34a4.5,4.5,0,1,1,6.36-6.36Z"/><path class="cls-28" d="M405.27,123.84c7.3,3.65,15.52,9.65,23.31,17.44s13.78,16,17.44,23.3l6.1-6.1-40.74-40.75Z"/><path class="cls-19" d="M549.13,270.73l21.61-21.61a17.89,17.89,0,0,1,27,23.32,17.89,17.89,0,0,1-25.3,25.3,17.89,17.89,0,0,1-23.32-27ZM588,272.58l3.1-3.1a10.9,10.9,0,1,0-15.42-15.41l-21.61,21.6a10.9,10.9,0,0,0,15.42,15.42l3.1-3.1,4.51,4.52a10.9,10.9,0,1,0,15.41-15.42Z"/><path class="cls-28" d="M561.73,251.09l3.52,3.52-10.63,10.63-3.52-3.52a2,2,0,0,1,0-2.85l7.78-7.78A2,2,0,0,1,561.73,251.09Z"/><path class="cls-16" d="M512,205.67c.4-1.08.89-1.92,1.4-1.84,2.53.39,1,2.36,2,5.21Z"/><path class="cls-23" d="M517.19,214.69c-4-4.28-3.43-5.2-2.19-7.21,1.68-2.72,10.13,5.74,8.53,8.52S520.17,217.85,517.19,214.69Z"/><g class="cls-29"><path class="cls-30" d="M528,218.23l-.63-.11-.69-.11-.59-.1-2.14-.37,13.17,13.16c0-1-.05-2.1-.07-3.18v-.07c0-1.69-.09-3.42-.13-5.16,0,1.92-1.91,2-3.19.7l-3-3c-.76-.76.17-.68,2.13-.42s4,.63,4,1.59c0-.51,0-1-.05-1.52-2.91-.44-5.63-.88-8.11-1.29Z"/><path class="cls-31" d="M537.26,244.58c0-.14,0-.27,0-.41v-.57l-35.14-35.13-.21,1L531.44,239c2.67,2.67,5.88,10.32,6.66,16h0C537.68,251.59,537.35,247.92,537.26,244.58Z"/><path class="cls-32" d="M488.89,182.52l15.4,15.4.25,0-.06.25,7.55,7.55c.4-1.08.89-1.92,1.4-1.84a2.43,2.43,0,0,1,.74.21c.94.44.81,1.36.85,2.63v.05a2.35,2.35,0,0,0,0,.26v.08l0,.35a1.07,1.07,0,0,1,.14-.16l0,0,.11-.08.07,0,.11-.06.07,0,.12,0,.08,0H516a.81.81,0,0,1,.22,0h.07l.17,0,.09,0,.17,0,.1,0,.17.07.09,0,.2.09.08,0,.28.15h0l.27.15.09.05.21.14.1.06.21.15.09.06.23.17.07.05.31.24h0a17,17,0,0,1,2.39,2.4h0a12.11,12.11,0,0,1,.84,1.12c3.59.17,8.43.38,14.11.59-.07-2.21-.14-4.34-.21-6.31-3.5-3-8.14-6.87-13.19-10.73,3.93,3.07,12,11.48,12.33,13.42s.3,2.63-2.14,2.7-8.78-.43-9.65-.5-1.86-1.7-3.73-3.07a42.46,42.46,0,0,1-5.14-4h0l-9.53-9.53c.68-2.83,1.36-5.55,1.7-6.72a85.93,85.93,0,0,1,2.94-8.47c.19-.46.38-.87.57-1.25l0,0c-1.65,3.24-5.58,16.06-9.11,12.51l-5.17-5.17h0c-2.22-2.21-2.59-5.58,1.07-6.64-2.67.78-4.83,1.4-6.3,1.81H491l-.58.17h0l-1.6.44Z"/><path class="cls-33" d="M490.22,197.77,492.4,200l1-.15-3.33-3.34Z"/><path class="cls-34" d="M480.25,186.6h0c-1.23.21-2.47.41-3.74.6h0c1.68-.26,4,.85,5.41,2.27h0l6.94,6.94,1-.17-9.64-9.64Z"/></g></g></g></g></svg>