<svg xmlns="http://www.w3.org/2000/svg" viewBox="0 0 327.19 58.94"><defs><style>.cls-1{fill:#e63429;}.cls-2{font-size:24px;font-family:ArialMT, Arial;}.cls-2,.cls-5{fill:#fff;}.cls-3{letter-spacing:0.1em;}.cls-4{fill:none;stroke:#fff;stroke-miterlimit:10;}</style></defs><title>paso 1 seleccionar 2</title><g id="Capa_2" data-name="Capa 2"><g id="Esquema"><rect class="cls-1" width="327.19" height="58.94" rx="10" ry="10"/><text class="cls-2" transform="translate(87.57 38.03)"><tspan class="cls-3">1•</tspan><tspan x="26.55" y="0">SELECCIONAR</tspan></text><circle class="cls-4" cx="49.89" cy="28.66" r="20"/><path class="cls-5" d="M42.12,25.92a.45.45,0,0,0-.71.1l-2.64,4.42a.6.6,0,0,0,.19.79l9.77,6.45a.67.67,0,0,0,.84-.11l11.53-13a.63.63,0,0,0,0-.83l-3.72-4a.44.44,0,0,0-.71,0L48.53,31a.49.49,0,0,1-.74.08Z"/></g></g></svg>