<svg xmlns="http://www.w3.org/2000/svg" viewBox="0 0 704.11 379.5"><defs><style>.cls-1{fill:#004b93;}.cls-2{fill:#e63429;}.cls-3{font-size:16px;font-family:Arial-BoldMT, Arial;font-weight:700;}.cls-3,.cls-7{fill:#fff;}.cls-4{letter-spacing:-0.02em;}.cls-5{letter-spacing:-0.04em;}.cls-6{letter-spacing:-0.07em;}</style></defs><title>recuadro 1 auditar</title><g id="Capa_2" data-name="Capa 2"><g id="Esquema"><rect class="cls-1" width="171.87" height="41.26" rx="5" ry="5"/><rect class="cls-2" x="182.07" width="171.87" height="41.26" rx="5" ry="5"/><path class="cls-1" d="M0,37.93H694A10.08,10.08,0,0,1,704.11,48V369.43A10.08,10.08,0,0,1,694,379.5h-684A10.08,10.08,0,0,1,0,369.43V37.93A0,0,0,0,1,0,37.93Z"/><text class="cls-3" transform="translate(19.86 26.07)">VO<tspan class="cls-4" x="23.12" y="0">T</tspan><tspan x="32.6" y="0">O</tspan><tspan class="cls-5" x="45.05" y="0"> </tspan><tspan x="48.9" y="0">AUDI</tspan><tspan class="cls-6" x="88.01" y="0">T</tspan><tspan x="96.59" y="0">ADO</tspan></text><text class="cls-3" transform="translate(215.71 26.07)">IMPOR<tspan class="cls-6" x="52.45" y="0">T</tspan><tspan x="61.03" y="0">ANTE</tspan></text><rect class="cls-7" x="30" y="67.93" width="643.73" height="281.58"/></g></g></svg>