<svg xmlns="http://www.w3.org/2000/svg" viewBox="0 0 251.76 218.45"><defs><style>.cls-1{fill:#ffbe9d;}.cls-2{fill:#eb996e;}.cls-3{fill:#263238;}.cls-4{fill:#666;}.cls-5{fill:#fff;}.cls-6{fill:#004b93;}.cls-7{opacity:0.3;}.cls-8{fill:#e0e0e0;}</style></defs><title>dibujo niña lupa</title><g id="Capa_2" data-name="Capa 2"><g id="Esquema"><g id="freepik--Character--inject-4"><polygon points="62.86 100.42 65.85 137.61 69.94 138.21 67.08 99.53 62.86 100.42"/><path class="cls-1" d="M57.71,102.55l12.58,3,11.09,10.6L77,121.43,67,110.18S56,107.39,57.71,102.55Z"/><path class="cls-1" d="M84.19,124.57v-.1l-2.81-8.3L71.21,111.4A6.82,6.82,0,0,0,69.92,113a16.7,16.7,0,0,0-4.41-4l-2-1.27a3.53,3.53,0,0,0-3.89,5.63,2.85,2.85,0,0,0-.45,5,3.77,3.77,0,0,0-.83,5.26,4,4,0,0,0,.42.49,2.63,2.63,0,0,0-.71,2.72,6.35,6.35,0,0,0,1.6,2.56,22.51,22.51,0,0,0,3.82,3.41,4.47,4.47,0,0,0,1.58.77,2.25,2.25,0,0,0,2.18-2.3l6.19,4.46,5.44,11.5,14-8.52Z"/><path class="cls-2" d="M75,127.46a1.48,1.48,0,0,1-.31-.15,6,6,0,0,1-.84-.54,8.39,8.39,0,0,1-3-8.2,13,13,0,0,1,.46-1.5,1.67,1.67,0,0,0,0-1.43,4.16,4.16,0,0,0-1.26-1,6.53,6.53,0,0,1-1.36-1.16,6.76,6.76,0,0,1-1-1.48,16.1,16.1,0,0,0-.72-1.5,2.22,2.22,0,0,0-1.13-1c-.47-.17-1-.27-1.48-.42a15,15,0,0,1-4.95-2.2,4.13,4.13,0,0,1-1.91-3v-.58l.1-.41a1.15,1.15,0,0,1,.1-.33,2,2,0,0,1,0,.34l-.06.41v.56a4.13,4.13,0,0,0,1.91,2.86,15.34,15.34,0,0,0,4.89,2.08c.49.15,1,.23,1.52.43a2.51,2.51,0,0,1,1.31,1.09c.31.49.49,1,.74,1.53a6.23,6.23,0,0,0,1,1.39,6,6,0,0,0,1.26,1.11,4.23,4.23,0,0,1,1.36,1.08,2,2,0,0,1,.08,1.72,12.57,12.57,0,0,0-.47,1.47,8.15,8.15,0,0,0,.57,5.17,8.43,8.43,0,0,0,2.14,2.85C74.55,127.21,75,127.42,75,127.46Z"/><path class="cls-2" d="M68.66,113.34a3.24,3.24,0,0,1,.45.53,8.07,8.07,0,0,1,1,1.65,2.55,2.55,0,0,1,.26,1.36,3.66,3.66,0,0,1-.58,1.45,2.34,2.34,0,0,1-1.4,1.06,3.15,3.15,0,0,1-1.82-.4,18.21,18.21,0,0,1-5.15-3.59A15.51,15.51,0,0,1,60.13,114a2.52,2.52,0,0,1-.39-.59s.68.75,1.83,1.83a20.18,20.18,0,0,0,5.13,3.45,2.87,2.87,0,0,0,1.62.37,2,2,0,0,0,1.18-.9,3.34,3.34,0,0,0,.56-1.3,2.42,2.42,0,0,0-.2-1.22A11,11,0,0,0,69,114,2.46,2.46,0,0,1,68.66,113.34Z"/><path class="cls-2" d="M67,118.8a3.21,3.21,0,0,1,.68.45,8.38,8.38,0,0,1,1.64,1.56,4.49,4.49,0,0,1,.74,1.4,3.2,3.2,0,0,1,0,1.84,2.52,2.52,0,0,1-1.29,1.58,2.7,2.7,0,0,1-2.19-.07A18.23,18.23,0,0,1,60.73,121a17.1,17.1,0,0,1-1.36-1.81,3.59,3.59,0,0,1-.4-.72c.05,0,.68,1,1.93,2.36a19.92,19.92,0,0,0,5.78,4.41,2.37,2.37,0,0,0,1.9.08A2.32,2.32,0,0,0,69.72,124a2.93,2.93,0,0,0,0-1.66,4.74,4.74,0,0,0-.68-1.37,10,10,0,0,0-1.53-1.59A3.87,3.87,0,0,1,67,118.8Z"/><path class="cls-2" d="M69.05,124.9a1.87,1.87,0,0,1,.43.5,3.66,3.66,0,0,1,.68,1.67,2.59,2.59,0,0,1-.18,1.26,1.93,1.93,0,0,1-1,1.06,2.5,2.5,0,0,1-1.62.06,8.49,8.49,0,0,1-1.58-.62,30.73,30.73,0,0,1-5-3.07c-.59-.45-1-.85-1.36-1.13a2.42,2.42,0,0,1-.46-.47s.75.55,2,1.4a36.75,36.75,0,0,0,5,2.95,7.92,7.92,0,0,0,1.51.6,2.27,2.27,0,0,0,1.41,0,1.67,1.67,0,0,0,.89-.88,2.53,2.53,0,0,0,.2-1.12,3.85,3.85,0,0,0-.54-1.61A4.3,4.3,0,0,1,69.05,124.9Z"/><path class="cls-2" d="M66.19,128.71a4.33,4.33,0,0,1,.49.86,9.88,9.88,0,0,1,.45,1,2.61,2.61,0,0,1,.11,1.36,2.15,2.15,0,0,1-.69,1.21,1.75,1.75,0,0,1-1.07.4c-.68,0-1-.35-1-.36a2.67,2.67,0,0,0,.93.11,1.71,1.71,0,0,0,.88-.39,2,2,0,0,0,.57-1,4,4,0,0,0-.43-2.2A2.29,2.29,0,0,1,66.19,128.71Z"/><path class="cls-3" d="M69.58,133.39l-.12-4.18a3.4,3.4,0,0,1-2.92.06,6.58,6.58,0,0,1,.43,3.14l-.22,1.53Z"/><path class="cls-4" d="M53.05,80.62c-.87-11.58,2.12-20.48,6.57-21.9.6-.18,2.91-1.31,3.51-1.12,4.34,1.37,7.49,10.53,8.25,20.72.68,8.66.09,17-2.93,20.64-1,1.23-3.37,1.36-4.65,1.52C58.74,101.11,53.93,92.22,53.05,80.62Z"/><path class="cls-5" d="M63.72,57.62C58.35,58.8,55,68.69,55.82,79.79c1,13,5.83,20.43,10.89,19.75a5.84,5.84,0,0,0,1.78-.85c3-3.64,3.57-12,2.92-20.62C70.64,68,68,59.07,63.72,57.62Z"/><path class="cls-3" d="M71.1,78.82C71.78,87.47,71,95.61,68,99.24c4.09-2.35,6.92-11.1,6.13-21.37-.87-11.58-5.92-20.9-11-20.27-.16,0-.21.34-.36.38C67.09,59.41,70.34,68.66,71.1,78.82Z"/><path d="M55.82,79.81a2.34,2.34,0,0,1,0,.26l.08.74c.08.68.18,1.62.4,2.85a41.79,41.79,0,0,0,1,4.44,30.51,30.51,0,0,0,2.13,5.62,19,19,0,0,0,1.84,2.94,8.71,8.71,0,0,0,2.82,2.41,4.15,4.15,0,0,0,3.79,0,7.7,7.7,0,0,0,2.94-3,24.16,24.16,0,0,0,2.82-8.71A44.81,44.81,0,0,0,74,77.54a43.91,43.91,0,0,0-1.82-9.71,21,21,0,0,0-4.31-8,5.9,5.9,0,0,0-3.62-2,4.6,4.6,0,0,0-3.55,1.42,10.76,10.76,0,0,0-2.16,3,20.41,20.41,0,0,0-1.29,3.22,38.63,38.63,0,0,0-1.48,10.42c0,1.24,0,2.21,0,2.87v.75a1,1,0,0,1,0,.25,1,1,0,0,1,0-.25c0-.18,0-.43-.07-.74,0-.68-.1-1.64-.1-2.89a37.22,37.22,0,0,1,1.36-10.49,21.5,21.5,0,0,1,1.27-3.29A11.3,11.3,0,0,1,60.42,59,5,5,0,0,1,64.2,57.5a6.12,6.12,0,0,1,3.82,2,21.24,21.24,0,0,1,4.41,8.17,43.12,43.12,0,0,1,1.84,9.81,45.54,45.54,0,0,1-.32,10,24.46,24.46,0,0,1-2.89,8.85A7.93,7.93,0,0,1,68,99.42a4.24,4.24,0,0,1-2,.46,4.63,4.63,0,0,1-2-.51,8.75,8.75,0,0,1-2.9-2.51,18.52,18.52,0,0,1-1.86-3,31.12,31.12,0,0,1-2.09-5.67,40.44,40.44,0,0,1-.92-4.48c-.19-1.23-.27-2.2-.34-2.86a3.84,3.84,0,0,0,0-.74A1,1,0,0,1,55.82,79.81Z"/><path d="M66.61,76.89c.09,0-.73,3.26-1.84,7.22s-2.08,7.16-2.18,7.13S63.32,88,64.43,84,66.51,76.86,66.61,76.89Z"/><path d="M67.05,70.4c.1,0-.73,3.26-1.84,7.23S63.13,84.78,63,84.76s.73-3.27,1.84-7.23S67,70.37,67.05,70.4Z"/><path d="M187,30,121.81,41.31c.2,1,.41,2,.63,3l-.17-.41c2.66,12.17,5.26,25.19.68,36.76-1.51,3.82-3.81,7.49-3.8,11.62,0,1.93.54,3.82.64,5.76s-.34,4.08-1.84,5.27-4.34,1.51-4.94,3.5c-.41,1.36.51,2.76,1.46,3.83a29.86,29.86,0,0,0,9.23,7,14.59,14.59,0,0,0,3.07,6.8l12.63-5.93-.78-4.09a6.11,6.11,0,0,0,4.27,3.45c2.37.56,4.85,0,7.22-.6a205.43,205.43,0,0,0,39.77-14.53c1.69-.82,10.22-1.46,10.22-1.46C201.55,79.67,195,50.13,187,30Z"/><path d="M185.21,26.3C180.69,16.84,176,7,166.42,2.73c-8.54-3.79-17.06-3.29-26-.62-4.41,1.31-8.93,4.64-12.26,7.82-4.56,4.36-5.26,11.05-6.43,17.25-2.33,12.42,2.13,27.31,6.67,30.64l52.74,12.73c7.14-6.36,12.14-9.75,12-19.31C193.08,44.75,188.05,32.18,185.21,26.3Z"/><path class="cls-1" d="M167.77,12.17l-31.43-1.24c-9.77,1-13.62,14.12-12.21,23.83,1.58,10.79,3.94,23.91,6.88,31.59,5.92,15.45,18.6,14.89,18.6,14.89s.09.23,1.19,5l2.25,10.69c6.76,12.09,19.53,7.66,34.45-2.65L174,16.81A5.75,5.75,0,0,0,167.77,12.17Z"/><path d="M130.44,46.53a2.09,2.09,0,0,0,2.41,1.65,2.05,2.05,0,0,0,1.73-2.3,2.1,2.1,0,0,0-2.42-1.65A2,2,0,0,0,130.44,46.53Z"/><path d="M128.75,42.64c.31.21,1.62-1.27,3.83-1.72s4.09.3,4.24,0-.27-.57-1.08-.94a5.81,5.81,0,0,0-3.47-.32,5.53,5.53,0,0,0-3,1.71C128.71,42,128.6,42.51,128.75,42.64Z"/><path d="M151,41.56a2.09,2.09,0,0,0,2.41,1.65,2,2,0,0,0,1.73-2.29,2.1,2.1,0,0,0-2.41-1.66A2,2,0,0,0,151,41.56Z"/><path d="M150.16,37.46c.31.22,1.62-1.27,3.83-1.72s4.08.3,4.24,0-.27-.58-1.09-.94a5.78,5.78,0,0,0-3.46-.32,5.56,5.56,0,0,0-3,1.71C150.14,36.83,150,37.36,150.16,37.46Z"/><path d="M145.62,54.83a15.14,15.14,0,0,0-3.73.11c-.57.06-1.13.06-1.3-.3a2.9,2.9,0,0,1,0-1.75c.24-1.48.5-3,.76-4.64,1-6.59,1.63-12,1.36-12s-1.31,5.28-2.33,11.87l-.69,4.65a3.38,3.38,0,0,0,.18,2.28,1.44,1.44,0,0,0,1.1.62,4.12,4.12,0,0,0,1-.06A15,15,0,0,0,145.62,54.83Z"/><path class="cls-2" d="M149.61,81.26A41.51,41.51,0,0,0,169.81,71s-2.92,12.31-19.24,14.19Z"/><path d="M152.85,55c-.37.06.12,2.45-1.58,4.58S147,61.94,147,62.28c0,.16.68.35,1.75.16a6.09,6.09,0,0,0,3.58-2.14,5.3,5.3,0,0,0,1.17-3.81C153.39,55.47,153,54.94,152.85,55Z"/><path d="M135.62,9.16a36.39,36.39,0,0,0,7.26,18.26,13.43,13.43,0,0,0,4,3.76,6,6,0,0,0,5.34.36,22.2,22.2,0,0,1-7.43-11.22c3,4,6.09,8.13,10.22,11s9.53,4.45,14.25,2.8L168.17,31a11.6,11.6,0,0,0,5.35,5.11c2.34.92,5.35.49,6.85-1.53-3.6-7.53-.88-17.35-5.8-24.11C171.17,5.77,165,4,159.23,3.64A46,46,0,0,0,135.62,8.5"/><path class="cls-3" d="M136.32,9.13v.36h.06A3.35,3.35,0,0,0,136.32,9.13Z"/><path d="M136.33,9.49l-1.06-.16c-3.37-.81-5.77-2-9.4,3.2a29.57,29.57,0,0,0-4.16,10.55c-.68,3.4-1.43,7.09-1.12,10.55a43.61,43.61,0,0,0,2.68,12.25c2.24-2.45,2.84-6,2.92-9.3s-.2-6.71.68-9.92a25.42,25.42,0,0,0,1.52,8.17,3.4,3.4,0,0,0,1.36,1.78,1.45,1.45,0,0,0,2-.49,17.88,17.88,0,0,1-2.35-9.53,50.57,50.57,0,0,1,1.37-9.86,48.72,48.72,0,0,0,4.59,16,4.32,4.32,0,0,0,1.43,1.89,3.86,3.86,0,0,0,3.45-.14,8.32,8.32,0,0,1,3.41-1A46.88,46.88,0,0,1,136.33,9.49Z"/><polygon class="cls-1" points="150.57 85.21 199.85 87.74 168.17 127.38 155.16 133.5 143.62 130.74 140.97 122.34 150.57 85.21"/><path class="cls-3" d="M207.52,94.93a6.65,6.65,0,0,1-1,.11,22.62,22.62,0,0,0-2.73.34A12.41,12.41,0,0,0,200,96.74a18.37,18.37,0,0,0-4,3,19.67,19.67,0,0,0-2.88,4.08,36.4,36.4,0,0,0-1.77,3.67c-.44,1.09-.76,2-1,2.59a6,6,0,0,1-.37.95,5.71,5.71,0,0,1,.24-1c.18-.63.47-1.54.88-2.64a32.54,32.54,0,0,1,1.7-3.76,19.41,19.41,0,0,1,2.92-4.15,17.4,17.4,0,0,1,4.08-3,12.52,12.52,0,0,1,3.93-1.33,19.91,19.91,0,0,1,2.78-.22A5.57,5.57,0,0,1,207.52,94.93Z"/><path class="cls-6" d="M76.28,145.72s18.3,35.48,21.37,39.44c7.25,9.34,23.83,6.37,26.17,1.24,4.08-8.85,17.12-38.4,17.12-38.4l-4.31-10.62-14.5-29.95-14.22,49.2L89.48,133.3Z"/><path class="cls-6" d="M226.42,164.32s-1.65-50-3.75-56.92S218,96.68,212.79,93.32c-5.93-3.83-12.26-4.94-12.94-5.58,0,0-18,20-27,31.42s-20.73,12-23.14,9-4.21-9.15-2.11-18.85,3-24.12,3-24.12l-2.09.23a30.72,30.72,0,0,0-25.9,20.63c-.15.43-.29.87-.42,1.36-4.22,14.45,12.34,35.23,12.34,34.32a52.71,52.71,0,0,0,1.06,11.39c2.4,9.63,23.44,25.77,24.64,30.47s2.2,34.81,2.2,34.81,36.47.07,51.18,0c12-.06,38.19,0,38.19,0Z"/><path class="cls-3" d="M133.3,105s.07.19.19.57c.17.55.32,1.1.44,1.67a32.56,32.56,0,0,1,.75,6.3,79.67,79.67,0,0,1-.33,9.4c-.27,3.54-.68,7.4-.91,11.48a59.24,59.24,0,0,0,.39,11.45,33.84,33.84,0,0,0,2.56,9,32.31,32.31,0,0,0,3.18,5.45c.44.6.81,1,1,1.36a4.29,4.29,0,0,1,.36.48,2.85,2.85,0,0,1-.41-.44c-.25-.3-.64-.74-1.1-1.33a29.59,29.59,0,0,1-3.29-5.45,32.3,32.3,0,0,1-2.66-9,56.89,56.89,0,0,1-.42-11.52c.21-4.09.64-7.95.93-11.48a83.71,83.71,0,0,0,.41-9.37,34.83,34.83,0,0,0-.64-6.28c-.12-.74-.28-1.3-.37-1.68A2.66,2.66,0,0,1,133.3,105Z"/><g class="cls-7"><path d="M137.51,156.72c-4.34-2.89-6.71-8.08-7.38-13.25s.16-10.4,1-15.56c.91-5.72,2.42-10.89,3.33-16.6.59,7.92-.3,14.83-.87,22.54s-.29,15.94,3.94,22.41"/></g><path class="cls-3" d="M120.26,172c-.08.06-6.93-8.41-15.31-18.9s-15.11-19.07-15-19.12,6.93,8.4,15.31,18.9S120.34,171.89,120.26,172Z"/><g class="cls-7"><path d="M178.44,113.23a13.48,13.48,0,0,0,3.36,3.5,4.63,4.63,0,0,0,4.63.43c1.71-.94,2.27-3.07,2.81-4.94a42.52,42.52,0,0,1,14.68-21.68c-5.2,2.1-10.45,4.24-15,7.48s-8.5,7.75-10,13.17"/></g><path class="cls-5" d="M183.35,151a2.68,2.68,0,0,1-.49.11l-1.41.26c-.61.12-1.36.25-2.23.36s-1.88.29-3,.41c-2.21.28-4.85.52-7.79.68s-6.18.23-9.58.16-6.62-.31-9.53-.59-5.55-.69-7.75-1c-1.09-.17-2.08-.38-3-.54s-1.61-.32-2.22-.46L135,150a2.18,2.18,0,0,1-.48-.14,4.29,4.29,0,0,1,.5.07l1.41.26c.61.12,1.36.27,2.22.4s1.86.34,3,.49c2.19.35,4.82.68,7.74,1s6.12.48,9.53.56,6.61,0,9.53-.13,5.57-.37,7.77-.61c1.11-.11,2.11-.25,3-.35s1.62-.21,2.24-.31l1.42-.19A2,2,0,0,1,183.35,151Z"/><path class="cls-5" d="M186.83,124.27a2.86,2.86,0,0,1-.43.35l-1.31,1-1,.68c-.36.24-.76.48-1.19.74-1,.62-1.95,1.19-3,1.71l-1.78.9c-.62.31-1.3.56-2,.85a45.2,45.2,0,0,1-4.48,1.62,49.35,49.35,0,0,1-21.6,1.58,46.17,46.17,0,0,1-4.68-1c-.71-.19-1.42-.34-2.08-.56l-1.88-.63a29.2,29.2,0,0,1-3.18-1.26c-.47-.2-.9-.37-1.29-.56l-1-.55-1.44-.75a2.43,2.43,0,0,1-.49-.29,3.54,3.54,0,0,1,.53.23l1.46.68,1.05.53,1.29.53a32.93,32.93,0,0,0,3.19,1.2l1.88.62c.68.2,1.36.34,2.08.53,1.43.4,3,.62,4.64.91a50.39,50.39,0,0,0,21.46-1.53c1.59-.52,3.11-1,4.46-1.58.68-.29,1.36-.53,2-.83l1.78-.87c1.15-.53,2.1-1.16,3-1.66.42-.26.83-.48,1.19-.71l1-.68,1.36-.92A3.37,3.37,0,0,1,186.83,124.27Z"/><path class="cls-5" d="M99.47,149.84a3.65,3.65,0,0,1-.47.57c-.32.36-.81.85-1.42,1.45a52.23,52.23,0,0,1-5.09,4.31,50.24,50.24,0,0,1-5.62,3.62c-.75.41-1.36.73-1.8.93a3.16,3.16,0,0,1-.68.29s.9-.56,2.36-1.43,3.4-2.15,5.53-3.69a63,63,0,0,0,5.13-4.22A27.27,27.27,0,0,1,99.47,149.84Z"/><path class="cls-5" d="M114.91,165.87a4.36,4.36,0,0,1-.29.93,10.54,10.54,0,0,1-.42,1.07c-.19.39-.37.89-.63,1.36a30.91,30.91,0,0,1-2,3.45,32.13,32.13,0,0,1-6.47,7.23,32.15,32.15,0,0,1-3.22,2.33c-.47.31-.92.55-1.31.77a9.94,9.94,0,0,1-1,.54,3.71,3.71,0,0,1-.89.39,6.36,6.36,0,0,1,.83-.51,11,11,0,0,0,1-.59c.38-.24.82-.49,1.28-.82a32.58,32.58,0,0,0,3.14-2.36,34.89,34.89,0,0,0,6.41-7.15,37.62,37.62,0,0,0,2-3.41c.27-.49.47-1,.68-1.36s.35-.75.47-1A5.82,5.82,0,0,1,114.91,165.87Z"/><path class="cls-5" d="M132.26,168a6.93,6.93,0,0,1-.68-.93c-.39-.62-1-1.5-1.74-2.56s-1.71-2.29-2.82-3.61-2.41-2.69-3.85-4.09a50.43,50.43,0,0,0-4.26-3.63c-1.36-1.06-2.65-1.93-3.75-2.63s-2-1.25-2.64-1.6a7.38,7.38,0,0,1-1-.59,5.63,5.63,0,0,1,1,.47c.69.32,1.59.84,2.73,1.51a45.34,45.34,0,0,1,3.81,2.58,49.67,49.67,0,0,1,4.31,3.64,51.29,51.29,0,0,1,3.86,4.08c1.1,1.36,2,2.59,2.77,3.68s1.29,2,1.65,2.62A7.1,7.1,0,0,1,132.26,168Z"/><path class="cls-5" d="M133.4,135.8s-.84-.65-2.22-1.67a45,45,0,0,0-11.73-6.31c-1.6-.58-2.62-.87-2.61-.94a3.14,3.14,0,0,1,.74.15c.46.1,1.14.29,2,.56a37.08,37.08,0,0,1,11.79,6.34,16,16,0,0,1,1.56,1.36A3.08,3.08,0,0,1,133.4,135.8Z"/><path class="cls-5" d="M134.45,114.64a15.39,15.39,0,0,1-1.8-.94c-1.1-.58-2.64-1.36-4.39-2.13s-3.35-1.37-4.54-1.77a14.33,14.33,0,0,1-1.9-.68,9.48,9.48,0,0,1,2,.45,37.91,37.91,0,0,1,4.61,1.68,39.91,39.91,0,0,1,4.36,2.25A9.55,9.55,0,0,1,134.45,114.64Z"/><path class="cls-5" d="M147.63,99.28s-.9-.36-2.31-.94a50.67,50.67,0,0,0-11.52-3.2,24.76,24.76,0,0,1-2.46-.38,2.58,2.58,0,0,1,.68,0,17.59,17.59,0,0,1,1.83.15,39.55,39.55,0,0,1,5.91,1.15,39.13,39.13,0,0,1,5.67,2c.68.32,1.26.6,1.64.81A3.33,3.33,0,0,1,147.63,99.28Z"/><path class="cls-5" d="M178.41,174.56a4.9,4.9,0,0,1-1,.13c-.65.07-1.58.14-2.73.21a90.11,90.11,0,0,1-9.05,0c-3-.14-6-.42-9-.86-1.14-.17-2-.33-2.72-.46a4.52,4.52,0,0,1-1-.23,6.78,6.78,0,0,1,1,.1l2.72.34c2.29.28,5.45.6,9,.77s6.72.15,9,.08l2.72-.08A6.37,6.37,0,0,1,178.41,174.56Z"/><path class="cls-5" d="M243.57,202.63a.64.64,0,0,1-.19.08l-.57.19-2.23.68c-1,.31-2.16.68-3.56,1s-3,.86-4.76,1.29-3.69.94-5.78,1.4-4.32.92-6.68,1.4c-4.72.88-10,1.7-15.46,2.33s-10.8.95-15.61,1.13c-2.4.06-4.68.13-6.8.11s-4.13,0-6-.08-3.46-.15-4.9-.22-2.68-.16-3.7-.25l-2.32-.2-.61-.06a.64.64,0,0,1-.2,0h.81l2.33.13c1,.07,2.25.14,3.7.18s3.08.15,4.9.17,3.8.07,5.94,0,4.41-.08,6.8-.14c4.77-.2,10.07-.56,15.57-1.16s10.72-1.44,15.45-2.3c2.35-.47,4.59-.88,6.67-1.37s4-.91,5.78-1.36l4.77-1.23c1.42-.37,2.59-.68,3.57-1l2.24-.65.6-.16Z"/><path class="cls-5" d="M236.39,184.51c0,.09-6.87.9-15.37,1.79s-15.38,1.54-15.38,1.44,6.87-.9,15.37-1.79S236.37,184.41,236.39,184.51Z"/><path class="cls-5" d="M225.77,164.71c0,.1-3.4,1.07-7.72,2.17s-7.79,1.92-7.82,1.83,3.41-1.07,7.73-2.17S225.74,164.62,225.77,164.71Z"/><path class="cls-5" d="M223.65,146.69a37.74,37.74,0,0,1-4.91,1.41,36.6,36.6,0,0,1-5,1.07,36.23,36.23,0,0,1,4.91-1.41A36.93,36.93,0,0,1,223.65,146.69Z"/><g class="cls-7"><path d="M162,208.37c8.46,1.7,16.19,4.56,24.76,3.62s17.25-5,21.67-12.39c3.29-5.49,3.89-12.14,4.41-18.52q1.71-20.82,3.4-41.63l-17.53,48.63-8.41,12.82Z"/></g><path class="cls-6" d="M129.8,190.34l48.61-8.3s10.16-61.49,10.44-62.59,3.68-20.24,13.32-21.88,18.41,2.19,19,11.49c.45,7.44-10.34,60.85-17.14,85.59-2,7.12-9.75,13.42-17.38,13.56-19.87.37-56.62,0-56.62,0Z"/><path class="cls-3" d="M188.84,119.45c-.19,1.18-4.09,24.68-10.3,62.64v.1h-.11l-48.59,8.32.15-.17c.06,5.69.13,11.72.19,17.88L130,208l18.39.13c10.28.05,20.33.05,30,0l7.21-.09a17.26,17.26,0,0,0,6.84-1.29,20.59,20.59,0,0,0,10-8.85l.39-.73.33-.76a11.79,11.79,0,0,0,.56-1.54c.32-1,.58-2.11.86-3.16.58-2.09,1.08-4.17,1.6-6.22,1-4.08,2-8.08,2.86-11.94,1.79-7.73,3.35-14.94,4.77-21.54,2.72-13.2,4.77-23.93,6-31.37.3-1.86.56-3.52.75-5,.1-.68.19-1.37.27-2s.12-1.16.17-1.66a20.89,20.89,0,0,0,.15-2.24,5.66,5.66,0,0,1,0-.77v.77a17,17,0,0,1-.12,2.25q-.06.75-.15,1.65c-.06.61-.17,1.28-.26,2-.17,1.44-.42,3.1-.71,5-1.15,7.49-3.15,18.19-5.86,31.4-1.36,6.6-2.92,13.82-4.69,21.55q-1.32,5.81-2.84,12c-.52,2-1,4.13-1.6,6.23-.28,1-.53,2.11-.85,3.17a12.88,12.88,0,0,1-.58,1.57l-.33.77-.4.74a20.76,20.76,0,0,1-10.14,9,17.17,17.17,0,0,1-7,1.32l-7.27.09c-9.71.08-19.75.07-30,0L130,208.36h-.17v-.18c-.06-6.13-.13-12.18-.19-17.87v-.14h.14l48.65-8.27-.13.11c3.18-19,5.8-34.63,7.62-45.54.93-5.45,1.66-9.69,2.15-12.59l.6-3.31C188.75,119.83,188.84,119.45,188.84,119.45Z"/><path class="cls-5" d="M214.09,143.55a6.06,6.06,0,0,1-1.12-.1l-3.06-.38c-2.58-.32-6.12-.68-10.11-.89s-7.54-.23-10.14-.19l-3.08,0a7.1,7.1,0,0,1-1.13,0,7,7,0,0,1,1.12-.12c.73-.06,1.78-.12,3.08-.17,2.6-.09,6.2-.11,10.17.1s7.55.61,10.12,1c1.29.19,2.33.36,3.05.49A8.24,8.24,0,0,1,214.09,143.55Z"/><path class="cls-5" d="M219,117.88a6.77,6.77,0,0,1-1.09-.21c-.68-.17-1.72-.38-3-.6a54.89,54.89,0,0,0-19.88,0c-1.26.23-2.28.45-3,.61a8.24,8.24,0,0,1-1.1.22,6.58,6.58,0,0,1,1.06-.35c.68-.21,1.7-.46,3-.73a49.79,49.79,0,0,1,20,0c1.26.26,2.27.51,3,.72A6.33,6.33,0,0,1,219,117.88Z"/><path class="cls-5" d="M207.52,174.9a5.51,5.51,0,0,1-.91-.6c-.29-.2-.64-.45-1.07-.71s-.89-.59-1.45-.89a33.74,33.74,0,0,0-3.94-2,34.46,34.46,0,0,0-10.45-2.6,34.18,34.18,0,0,0-4.41-.1c-.63,0-1.19.07-1.69.11s-.93.08-1.28.13a5.06,5.06,0,0,1-1.1.09,8.32,8.32,0,0,1,1.08-.23c.35-.07.78-.14,1.27-.19s1.07-.14,1.71-.16a30,30,0,0,1,4.45,0,32.66,32.66,0,0,1,10.55,2.63,30.6,30.6,0,0,1,3.94,2c.55.31,1,.68,1.43.94a8.53,8.53,0,0,1,1,.77A6.61,6.61,0,0,1,207.52,174.9Z"/><path class="cls-5" d="M196.22,203.91a7,7,0,0,1-.58-.94c-.34-.61-.87-1.49-1.52-2.56A82.29,82.29,0,0,0,182,184.93c-.89-.89-1.62-1.6-2.13-2.08a7.08,7.08,0,0,1-.77-.78,6.94,6.94,0,0,1,.86.68c.54.45,1.3,1.13,2.22,2a71.89,71.89,0,0,1,6.64,7.32,70.71,70.71,0,0,1,5.55,8.17c.62,1.1,1.11,2,1.43,2.64A6.3,6.3,0,0,1,196.22,203.91Z"/><path class="cls-5" d="M154.7,208.24a3.29,3.29,0,0,1-.07-.83c0-.6,0-1.35-.06-2.24,0-1.9-.16-4.52-.37-7.4s-.5-5.5-.73-7.38c-.1-.88-.2-1.63-.27-2.23a3.82,3.82,0,0,1-.06-.83,4.56,4.56,0,0,1,.2.81c.1.52.24,1.28.38,2.22.29,1.88.62,4.48.84,7.38s.28,5.52.26,7.42c0,1,0,1.72,0,2.25A3.88,3.88,0,0,1,154.7,208.24Z"/><path class="cls-5" d="M218,100.4c0,.1-5-.09-11.16-.43s-11.13-.69-11.12-.79,5,.1,11.14.43S218,100.31,218,100.4Z"/><g class="cls-7"><path d="M178.41,182a49.93,49.93,0,0,1-14.56-10.43c2,0,4,.87,6,1.41s4.32.72,6-.51a8.57,8.57,0,0,0,2.39-3.58,86.88,86.88,0,0,0,4.14-11.05c-1.17,7.72-2.44,16.47-4,24.16"/></g><g class="cls-7"><path d="M108.06,156.19a50.83,50.83,0,0,1,14.52,14c.25.37.5.86.25,1.23s-1,.3-1.47,0c-4.53-3.41-9.79-10.29-13.32-15.21"/></g><path d="M192.63,47.05,179,22.3l-14.22,1.56c-1,11,9.24,20.52,9,31.59-.09,4.56-2,9-1.36,13.57.56,4.27,3.29,8,3.89,12.26.71,5-1.61,9.94-3.44,14.69s-3.17,10.31-.68,14.75c5.27,2.38,7.45,2.51,12.44,3.54,3.81-3.56,5.21-11.52,10.79-17.08,0,0,7.06-8.63,13.12-6,0,0,7-4-7.78-24.6C197.41,61.91,194.43,53.19,192.63,47.05Z"/><path class="cls-1" d="M79.39,192.14l10.22-7.61a5.27,5.27,0,0,1,3.5-1l8.17.68,19.07,8.28,9.3-1.25.15,16.22s-8.28.45-11.58-.1-7.81-3.45-7.81-3.45,1.09,1.63.54,2.91-4.91,3.27-4.91,3.27-3.09,1.09-3.63-1.09c0,0-5.45.72-6-3.64,0,0-8.34-1.41-7.15-5.25.88-2.84,1.78-4.93,1.78-4.93l2.45-5.44-2.72-.49s-5,3.73-7.17,4.09A6.2,6.2,0,0,1,79.39,192.14Z"/><path class="cls-2" d="M100,192.79a21.39,21.39,0,0,0-1.77,1.43,9.2,9.2,0,0,0-2.61,4.66,10.27,10.27,0,0,0,0,3c.13.92.32,1.74.48,2.42a17.13,17.13,0,0,1,.51,2.23,1.86,1.86,0,0,1-.24-.56c-.13-.38-.32-.92-.52-1.6s-.41-1.62-.55-2.44a9.71,9.71,0,0,1-.08-3.09,9,9,0,0,1,2.79-4.77,7.89,7.89,0,0,1,1.36-1A1.71,1.71,0,0,1,100,192.79Z"/><path class="cls-2" d="M104.41,197.36h-.57a2.91,2.91,0,0,0-1.43.51,3.78,3.78,0,0,0-1.43,1.71,5.64,5.64,0,0,0-.34,2.73,16.6,16.6,0,0,0,.6,2.78c.23.85.45,1.62.68,2.25.41,1.27.77,2,.72,2s-.14-.16-.32-.5a14.66,14.66,0,0,1-.64-1.46c-.25-.62-.49-1.39-.74-2.24a14.75,14.75,0,0,1-.64-2.84,5.82,5.82,0,0,1,.39-2.92,4,4,0,0,1,1.59-1.79,2.83,2.83,0,0,1,1.57-.44A1.21,1.21,0,0,1,104.41,197.36Z"/><path class="cls-2" d="M107.65,204.17s0-.22.27-.43a2.11,2.11,0,0,1,1.11-.49,1.58,1.58,0,0,1,1.21.27c.25.22.28.43.25.45s-.16-.13-.39-.24a1.63,1.63,0,0,0-1-.12A4.31,4.31,0,0,0,107.65,204.17Z"/><path class="cls-2" d="M108.15,200.9s.21.11.32.41a3.3,3.3,0,0,1,.14,1.21,2.32,2.32,0,0,1-.38,1.16c-.19.27-.39.35-.41.31s.09-.18.2-.43a3.53,3.53,0,0,0,.23-1.07,5.24,5.24,0,0,0,0-1.12C108.18,201.09,108.11,200.93,108.15,200.9Z"/><path class="cls-2" d="M89.29,200.15a2.22,2.22,0,0,1,.19-.68c.15-.42.37-1,.68-1.76.56-1.48,1.36-3.51,2.28-5.75.33-.8.68-1.57,1-2.29v0h0a4.93,4.93,0,0,1,2.15-1.41,5,5,0,0,1,2-.26,4.08,4.08,0,0,1,1.29.28c.29.11.43.19.42.22a7.74,7.74,0,0,0-1.72-.29,5.13,5.13,0,0,0-3.89,1.67v0l-.92,2.3c-.91,2.24-1.76,4.25-2.38,5.71-.32.72-.58,1.31-.77,1.72A2.4,2.4,0,0,1,89.29,200.15Z"/></g><g id="freepik--Device--inject-4"><path class="cls-8" d="M.3,139.47,34.07,215h78.68a6.75,6.75,0,0,0-6.57-5.44l-67.59-.49L6.06,136.87A3.15,3.15,0,0,0,2,135.26H2a3.17,3.17,0,0,0-1.71,4.15Z"/><path class="cls-3" d="M.3,139.47a3.12,3.12,0,0,1-.15-.39A2.85,2.85,0,0,1,0,137.85,3.15,3.15,0,0,1,.83,136a3.2,3.2,0,0,1,5.31.91c.54,1.17,1.12,2.45,1.75,3.84l4.31,9.54,26.56,58.76-.15-.1,35.41.25,19.19.13,9.88.08h2.5a7.8,7.8,0,0,1,2.54.3,7,7,0,0,1,4,3.13,6.83,6.83,0,0,1,.59,1.29c.07.23.14.45.19.68l0,.17c-.36.43-.11.12-.19.21H34l0-.08L9.52,160.32,2.71,144.94.92,140.86l-.45-1.05-.15-.35s.06.11.17.34.26.59.47,1l1.84,4c1.59,3.55,3.92,8.73,6.9,15.34L34.21,215l-.14-.08h78.66c-.07.09.19-.21-.15.21l0-.16a5.41,5.41,0,0,0-.19-.69,6.34,6.34,0,0,0-.55-1.22,6.57,6.57,0,0,0-3.77-3,7.4,7.4,0,0,0-2.43-.29h-2.5l-9.88-.08L74,209.55l-35.4-.27h-.1l0-.1L12.06,150.37l-4.27-9.53L6.06,137a3.1,3.1,0,0,0-5.14-.91,3.14,3.14,0,0,0-.73,3A2.38,2.38,0,0,1,.3,139.47Z"/><path class="cls-3" d="M38.59,209.12a12.7,12.7,0,0,1-2.2,2.85,33.72,33.72,0,0,1-2.47,2.6,12.91,12.91,0,0,1,2.21-2.84A31.91,31.91,0,0,1,38.59,209.12Z"/><path class="cls-3" d="M42.24,211.33a.47.47,0,0,1,.24-.07,1.06,1.06,0,0,1,.63.25,1.15,1.15,0,0,1,.39,1,1.14,1.14,0,0,1-1.34.88,1.16,1.16,0,0,1-.7-.46,1.14,1.14,0,0,1,0-1,1.06,1.06,0,0,1,.47-.49c.15-.06.24,0,.24,0a1.34,1.34,0,0,0-.48.61.92.92,0,0,0,.06.76.82.82,0,0,0,1.16.12.81.81,0,0,0,.28-.42.88.88,0,0,0-.25-.72C42.6,211.33,42.24,211.39,42.24,211.33Z"/><path class="cls-3" d="M45.85,211.33a.47.47,0,0,1,.24-.07,1.06,1.06,0,0,1,.63.25,1.14,1.14,0,0,1,.38,1,1.13,1.13,0,0,1-1.32.89,1.18,1.18,0,0,1-.72-.47,1.14,1.14,0,0,1,0-1,1,1,0,0,1,.48-.49c.15-.06.24,0,.24,0a1.4,1.4,0,0,0-.49.61.92.92,0,0,0,.06.76.84.84,0,0,0,1.17.12.87.87,0,0,0,.28-.42,1,1,0,0,0-.25-.72C46.21,211.33,45.85,211.39,45.85,211.33Z"/></g></g></g></svg>