<svg xmlns="http://www.w3.org/2000/svg" viewBox="0 0 172 252.27"><defs><style>.cls-1{opacity:0.1;}.cls-2{fill:#004b93;}.cls-3{fill:#fff;opacity:0.4;}.cls-3,.cls-4{isolation:isolate;}.cls-4{opacity:0.1;}.cls-5{fill:#ebebeb;}.cls-6{fill:#fafafa;}.cls-7{fill:#e0e0e0;}.cls-8{fill:#37474f;}.cls-9{fill:#455a64;}.cls-10{fill:#263238;}.cls-11{fill:#f5f5f5;}.cls-12{opacity:0.15;}</style></defs><title>dibujo 3</title><g id="Capa_2" data-name="Capa 2"><g id="Esquema"><g id="freepik--background-simple--inject-3" class="cls-1"><path class="cls-2" d="M58.93,238.59C39.43,229,34.3,216.75,24.11,197.54S8.32,157,4.35,135.62c-3.5-18.87-7.43-43.84-.61-61.78C13,49.48,49.2,2,107.44,0c15.13-.48,30.84,3.06,43,12.12,14.08,10.5,21.74,28.37,21.57,46s-7.67,34.62-19,48c-8.44,10-19.24,18.52-23.5,30.81-5.89,17,2.44,35.36,3.22,53.34.59,13.91-3.69,28.26-12.79,38.84s-23.1,17.1-37,16.11S47.7,236.4,42.44,223.47"/></g><g id="freepik--Tabs--inject-16"><g id="freepik--Tab--inject-16"><path class="cls-2" d="M22.7,251.92l-.5-.3a3.22,3.22,0,0,1-1.47-2.53V78.26a3.23,3.23,0,0,1,1.47-2.54L132.27,12.17a3.22,3.22,0,0,1,2.93,0l.5.29A3.23,3.23,0,0,1,137.17,15V185.83a3.21,3.21,0,0,1-1.47,2.54L25.64,251.92A3.3,3.3,0,0,1,22.7,251.92Z"/><path class="cls-3" d="M137.16,14.77c-.1-.76-.72-1-1.45-.62L25.63,77.7a2.94,2.94,0,0,0-1,1.1l-3.44-2a3,3,0,0,1,1-1.1L132.27,12.17a3.22,3.22,0,0,1,2.93,0l.51.29A3.34,3.34,0,0,1,137.16,14.77Z"/><path class="cls-4" d="M25.39,252a3.31,3.31,0,0,1-2.67-.11l-.51-.3a3.2,3.2,0,0,1-1.46-2.54V78.26a2.82,2.82,0,0,1,.43-1.44l3.43,2a3,3,0,0,0-.47,1.42V251.07C24.14,251.91,24.7,252.3,25.39,252Z"/></g><g id="freepik--tabs--inject-16-2" data-name="freepik--tabs--inject-16"><g id="freepik--tab--inject-16-2" data-name="freepik--tab--inject-16"><path class="cls-5" d="M37.15,190.13l-.51-.29a3.27,3.27,0,0,1-1.47-2.54V156.6a3.27,3.27,0,0,1,1.47-2.54l99.94-57.75a3.2,3.2,0,0,1,2.92,0l.51.29a3.24,3.24,0,0,1,1.47,2.54v30.71a3.22,3.22,0,0,1-1.47,2.53L40.08,190.13A3.22,3.22,0,0,1,37.15,190.13Z"/><path class="cls-6" d="M141.46,98.91c-.1-.76-.71-1-1.45-.62L40.07,156.05a3,3,0,0,0-1,1.09l-3.43-2a3,3,0,0,1,1-1.1l99.93-57.75a3.2,3.2,0,0,1,2.92,0l.51.29A3.29,3.29,0,0,1,141.46,98.91Z"/><path class="cls-7" d="M39.83,190.25a3.23,3.23,0,0,1-2.67-.12l-.52-.29a3.26,3.26,0,0,1-1.45-2.54V156.6a2.91,2.91,0,0,1,.42-1.44l3.44,2a3.19,3.19,0,0,0-.44,1.44v30.71C38.61,190.12,39.14,190.52,39.83,190.25Z"/><path class="cls-2" d="M54.21,154c5.7-3.3,10.32-.74,10.32,5.72S59.9,174,54.19,177.22s-10.32.66-10.32-5.72S48.51,157.28,54.21,154Z"/></g><g id="freepik--tab--inject-16-3" data-name="freepik--tab--inject-16"><path class="cls-5" d="M37.15,231.74l-.51-.29a3.25,3.25,0,0,1-1.47-2.53V198.21a3.28,3.28,0,0,1,1.47-2.54l99.94-57.75a3.2,3.2,0,0,1,2.92,0l.51.29a3.26,3.26,0,0,1,1.47,2.54v30.71A3.22,3.22,0,0,1,140,174L40.08,231.74A3.22,3.22,0,0,1,37.15,231.74Z"/><path class="cls-6" d="M141.46,140.51c-.1-.76-.71-1-1.45-.61L40.07,197.66a3.13,3.13,0,0,0-1,1.08l-3.43-2a2.88,2.88,0,0,1,1-1L136.58,138a3.2,3.2,0,0,1,2.92,0l.51.29A3.24,3.24,0,0,1,141.46,140.51Z"/><path class="cls-7" d="M39.83,231.86a3.27,3.27,0,0,1-2.67-.12l-.52-.29a3.24,3.24,0,0,1-1.45-2.54v-30.7a2.94,2.94,0,0,1,.42-1.44l3.44,2a3.23,3.23,0,0,0-.44,1.45v30.71C38.61,231.74,39.14,232.13,39.83,231.86Z"/><path class="cls-2" d="M54.21,195.6c5.7-3.3,10.32-.74,10.32,5.72s-4.63,14.29-10.34,17.51-10.32.67-10.32-5.72S48.51,198.88,54.21,195.6Z"/></g><g id="freepik--tab--inject-16-4" data-name="freepik--tab--inject-16"><path class="cls-5" d="M37.15,120.55l-.51-.3a3.25,3.25,0,0,1-1.47-2.54V87a3.27,3.27,0,0,1,1.47-2.54l99.94-57.78a3.26,3.26,0,0,1,2.92,0l.51.3a3.22,3.22,0,0,1,1.47,2.53V60.26A3.26,3.26,0,0,1,140,62.8L40.08,120.55A3.28,3.28,0,0,1,37.15,120.55Z"/><path class="cls-6" d="M141.46,29.32c-.1-.76-.71-1-1.45-.62L40.07,86.46a3,3,0,0,0-1,1.09l-3.43-2a2.79,2.79,0,0,1,1-1.09L136.58,26.7a3.26,3.26,0,0,1,2.92,0l.51.3A3.25,3.25,0,0,1,141.46,29.32Z"/><path class="cls-7" d="M39.83,120.66a3.23,3.23,0,0,1-2.67-.11l-.52-.3a3.25,3.25,0,0,1-1.46-2.55V87a3,3,0,0,1,.43-1.45l3.43,2A3.06,3.06,0,0,0,38.61,89V119.7C38.61,120.54,39.14,120.93,39.83,120.66Z"/><path class="cls-2" d="M54.21,84.4c5.7-3.29,10.32-.73,10.32,5.71s-4.63,14.3-10.34,17.52-10.32.67-10.32-5.72S48.51,87.7,54.21,84.4Z"/></g><g id="freepik--tab--inject-16-5" data-name="freepik--tab--inject-16"><path class="cls-8" d="M44.17,159.53l-.5-.29a3.24,3.24,0,0,1-1.47-2.54V126a3.26,3.26,0,0,1,1.47-2.54L143.6,65.7a3.28,3.28,0,0,1,2.93,0L147,66a3.25,3.25,0,0,1,1.46,2.54v30.7a3.22,3.22,0,0,1-1.46,2.54L47.1,159.53A3.22,3.22,0,0,1,44.17,159.53Z"/><path class="cls-9" d="M148.49,68.3c-.1-.76-.71-1-1.45-.61L47.1,125.45a3.07,3.07,0,0,0-1,1.08l-3.43-2a3.13,3.13,0,0,1,1-1.1L143.6,65.7a3.28,3.28,0,0,1,2.93,0L147,66A3.32,3.32,0,0,1,148.49,68.3Z"/><path class="cls-10" d="M46.85,159.65a3.25,3.25,0,0,1-2.66-.12l-.52-.29a3.27,3.27,0,0,1-1.46-2.54V126a3,3,0,0,1,.44-1.44l3.42,2a3.08,3.08,0,0,0-.42,1.44v30.72C45.63,159.52,46.13,159.91,46.85,159.65Z"/><path class="cls-11" d="M61.23,123.38c5.7-3.29,10.32-.73,10.32,5.72s-4.62,14.29-10.33,17.52-10.33.67-10.33-5.72S55.53,126.67,61.23,123.38Z"/><path class="cls-2" d="M61.47,141.93a1.12,1.12,0,0,1-1.27.06l-4.53-3.42c-.61-.46-.54-1.72.16-2.83s1.76-1.63,2.36-1.17l3.16,2.4,8.78-18.86c.55-1.18,1.6-2,2.34-1.77s.91,1.33.36,2.49l-10,21.54a3.59,3.59,0,0,1-1.29,1.52Z"/></g></g></g><g id="freepik--Hand--inject-16"><path class="cls-2" d="M148.48,113.9l-2.9-1.67h0c-1.26-.72-2.8,0-3.62.49l-1.83-1h0c-2.19-1.33-5.25,1.45-5.93,2.11l-.78-.45h0c-2.33-1.4-6.56,2.35-6.56,2.35v-14l1.84-.89-2.93-1.69h0a2.64,2.64,0,0,0-2.6.27h0a8.24,8.24,0,0,0-3.72,6.44v32.38c-2.66-2-5.52-3.2-8-2.75a8.07,8.07,0,0,0-4.84,3.33c-1.22,2.18.8,3.54,3.42,6.52s4.88,6.54,7.24,8.74a12.62,12.62,0,0,0,4.07,2.77V161l2.86,1.66,19-14.27V144.2s2.71-10.81,3.57-15.33c.84-4.35,1.6-11.29.17-14.89l1.55-.11Z"/><path class="cls-3" d="M148.48,113.9l-2.9-1.67h0c-1.26-.72-2.8,0-3.62.49l-1.83-1h0c-2.19-1.33-5.25,1.45-5.93,2.11l-.78-.45h0c-2.33-1.4-6.56,2.35-6.56,2.35v-14l1.84-.89-2.93-1.69h0a2.64,2.64,0,0,0-2.6.27h0a8.24,8.24,0,0,0-3.72,6.44v32.38c-2.66-2-5.52-3.2-8-2.75a8.07,8.07,0,0,0-4.84,3.33c-1.22,2.18.8,3.54,3.42,6.52s4.88,6.54,7.24,8.74a12.62,12.62,0,0,0,4.07,2.77V161l2.86,1.66,19-14.27V144.2s2.71-10.81,3.57-15.33c.84-4.35,1.6-11.29.17-14.89l1.55-.11Z"/><path class="cls-2" d="M127.07,151.11l-14.36-8.28-6.28-3.64c-.8,2,1.14,3.34,3.59,6.14,2.59,3,4.88,6.54,7.24,8.74a12.73,12.73,0,0,0,4.07,2.77V161l2.87,1.66,4.19-3.15C127.85,156,127.07,151.11,127.07,151.11Z"/><polygon class="cls-2" points="122.33 107.51 119.46 105.85 119.46 139.81 122.33 139.89 122.33 107.51"/><path class="cls-2" d="M144.85,116.08l2.23-1.64c-.06-.15-.1-.29-.16-.43l.82-.06-1.79-.08-3-1.64a6.77,6.77,0,0,0-1,.5l.94.54Z"/><path class="cls-2" d="M137,115.59l2.09-1.58-2.88-1.75a13.6,13.6,0,0,0-1.94,1.53l2,1.16Z"/><polygon class="cls-2" points="132.6 115.44 129.75 113.77 129.76 113.75 129.76 117.35 133.09 116.14 132.6 115.44"/><g class="cls-12"><path d="M127.07,151.11l-14.36-8.28-6.28-3.64c-.8,2,1.14,3.34,3.59,6.14,2.59,3,4.88,6.54,7.24,8.74a12.73,12.73,0,0,0,4.07,2.77V161l2.87,1.66,4.19-3.15C127.85,156,127.07,151.11,127.07,151.11Z"/><polygon points="122.33 107.51 119.46 105.85 119.46 139.81 122.33 139.89 122.33 107.51"/><path d="M144.85,116.08l2.23-1.64c-.06-.15-.1-.29-.16-.43l.82-.06-1.79-.08-3-1.64a6.77,6.77,0,0,0-1,.5l.94.54Z"/><path d="M137,115.59l2.09-1.58-2.88-1.75a13.6,13.6,0,0,0-1.94,1.53l2,1.16Z"/><polygon points="132.6 115.44 129.75 113.77 129.76 113.75 129.76 117.35 133.09 116.14 132.6 115.44"/></g><path class="cls-2" d="M124.2,162.72V158.5a12.71,12.71,0,0,1-4.07-2.8c-2.36-2.2-4.66-5.77-7.24-8.73s-4.66-4.36-3.41-6.52a8,8,0,0,1,4.84-3.34c2.49-.44,5.33.78,8,2.76V107.51a8.21,8.21,0,0,1,3.71-6.44h0c2.05-1.19,3.72-.23,3.72,2.14v14.14s5.13-4.54,7.19-1.76c0,0,5-5.27,7.34-.82,0,0,3.69-3,5.33.48s.87,10.78,0,15.3S146,145.89,146,145.89v4.22Z"/><path class="cls-9" d="M129.76,123.43s.47-6.46,2.84-8h-.08a16.19,16.19,0,0,0-2.76,1.88v-.12a.24.24,0,0,0,0,.12Z"/><path class="cls-9" d="M137,115.59v5.91s.67-6.07,2-7.54A12.5,12.5,0,0,0,137,115.59Z"/><path class="cls-9" d="M144.27,114.77h0v5.93s.36-6,1.65-6.85A6.84,6.84,0,0,0,144.27,114.77Z"/><path class="cls-5" d="M123.16,95.33h0c-.47.26-.84.11-.84-.36V90.31a1.74,1.74,0,0,1,.84-1.34h0c.46-.26.83-.1.83.36V94A1.75,1.75,0,0,1,123.16,95.33Z"/><path class="cls-5" d="M116.13,102.72h0c-.32.56-.85.87-1.18.67l-2.71-1.57c-.33-.19-.33-.8,0-1.33h0c.33-.57.85-.88,1.18-.67l2.71,1.57C116.49,101.54,116.49,102.15,116.13,102.72Z"/><path class="cls-5" d="M113.26,112.41v.13a1.84,1.84,0,0,1-.9,1.41l-3.71,2.14c-.49.29-.9.12-.9-.38v-.13a1.87,1.87,0,0,1,.9-1.41l3.71-2.14C112.86,111.74,113.26,111.91,113.26,112.41Z"/><path class="cls-5" d="M133.05,101.11V101a1.86,1.86,0,0,1,.9-1.42l3.71-2.14c.49-.29.9-.11.9.38v.13a1.9,1.9,0,0,1-.9,1.42L134,101.49C133.46,101.77,133.05,101.61,133.05,101.11Z"/><path class="cls-5" d="M130.13,94.63h0c-.33-.18-.33-.79,0-1.33l2.71-4.67c.33-.56.86-.87,1.18-.66h0c.33.19.33.8,0,1.36L131.31,94C131,94.52,130.48,94.83,130.13,94.63Z"/></g></g></g></svg>