<svg xmlns="http://www.w3.org/2000/svg" viewBox="0 0 208 45.38"><defs><style>.cls-1{fill:#e63429;}.cls-2{font-size:16px;font-family:Arial-BoldMT, Arial;font-weight:700;}.cls-2,.cls-4{fill:#fff;}.cls-3{letter-spacing:-0.02em;}</style></defs><title>bot enviar 1</title><g id="Capa_2" data-name="Capa 2"><g id="Esquema"><rect class="cls-1" width="208" height="45.38" rx="8.68" ry="8.68"/><text class="cls-2" transform="translate(67.02 29.54)">ENVIAR VO<tspan class="cls-3" x="88.02" y="0">T</tspan><tspan x="97.5" y="0">O</tspan></text><path class="cls-4" d="M48.91,14.45c-.06.83-.54,3.74-1,6.88l-1.49,9.32s-.12,1.37-1.12,1.61-2.68-.84-3-1.07-4.45-2.85-6-4.16a1.13,1.13,0,0,1,.06-1.9c2.14-2,4.69-4.39,6.23-5.93.72-.71,1.43-2.38-1.54-.36L32.7,24.48a3.51,3.51,0,0,1-2.73.06c-1.78-.53-3.86-1.25-3.86-1.25s-1.42-.89,1-1.84h0L41,15.76c1.37-.6,6-2.5,6-2.5S49.08,12.43,48.91,14.45Z"/></g></g></svg>