<svg xmlns="http://www.w3.org/2000/svg" viewBox="0 0 208 45.57"><defs><style>.cls-1{fill:#fff;}.cls-2{opacity:0.2;}.cls-3,.cls-4{fill:#004b93;}.cls-4{font-size:16px;font-family:Arial-BoldMT, Arial;font-weight:700;}.cls-5{letter-spacing:-0.07em;}.cls-6{letter-spacing:-0.02em;}</style></defs><title>bot auditar 1</title><g id="Capa_2" data-name="Capa 2"><g id="Esquema"><rect class="cls-1" width="208" height="45.38" rx="8.68" ry="8.68"/><g class="cls-2"><rect class="cls-3" y="0.19" width="208" height="45.38" rx="8.68" ry="8.68"/></g><text class="cls-4" transform="translate(62.51 29.73)">AUDI<tspan class="cls-5" x="39.11" y="0">T</tspan><tspan x="47.7" y="0">AR VO</tspan><tspan class="cls-6" x="98.37" y="0">T</tspan><tspan x="107.85" y="0">O</tspan></text><path class="cls-3" d="M39.68,21v-1.8a5.95,5.95,0,1,0-11.89,0V21A1.92,1.92,0,0,0,26,22.87v7.75a1.92,1.92,0,0,0,1.93,1.93H39.55a1.92,1.92,0,0,0,1.93-1.93V22.87A1.93,1.93,0,0,0,39.68,21Zm-5.11,6.4v2.16a.83.83,0,1,1-1.66,0V27.35a1.66,1.66,0,1,1,2.49-1.43A1.67,1.67,0,0,1,34.57,27.35Zm3-6.41H29.86V19.15a3.88,3.88,0,1,1,7.75,0Z"/></g></g></svg>