<svg xmlns="http://www.w3.org/2000/svg" viewBox="0 0 260.58 202.76"><defs><style>.cls-1{opacity:0.1;}.cls-2{fill:#004b93;}.cls-3{fill:#e0e0e0;}.cls-4{fill:#ffbe9d;}.cls-5{fill:#eb996e;}.cls-6{fill:#fff;}</style></defs><title>dibujo 1</title><g id="Capa_2" data-name="Capa 2"><g id="Esquema"><g id="freepik--background-simple--inject-3" class="cls-1"><path class="cls-2" d="M30.22,154.93c-14.5-3.56-26-16.3-29.22-30.88s1.52-30.4,11.31-41.68,24.32-18,39.13-19.54c19.15-2,39.88,4,57-4.85,12.35-6.42,19.76-19.17,29-29.64C149.8,14.24,166.67,3.67,185.26.77s38.68,2.44,52,15.72C248.7,27.94,254.87,44,256.7,60.12c7,61.94-37.72,107.58-62.07,121.17-17.92,10-45,9.69-65.48,8.91-23.25-.89-46.68-3.51-68.59-11.33S18.22,157.68,5,138.53"/></g><g id="freepik--Character--inject-3"><path class="cls-2" d="M63.6,154.28l-23-23.05L52.19,110c11.54-14.78,36-13.83,36-13.83a140.36,140.36,0,0,1,36,2.22C143.57,102.23,142,115,142,115l2.6,47.55,2.79,38.72-71.55,1.44L63.6,154.31"/><path class="cls-2" d="M102.14,200.49l-64.08.76A20.83,20.83,0,0,1,19,171.53l27.41-50.81,25,16.87-17,35.31,51.87.93Z"/><path class="cls-2" d="M139.74,107.29l51.42,79.4-30,2S143.24,160.42,143.64,161C144.36,162.06,139.74,107.29,139.74,107.29Z"/><path d="M70.05,142.15a1.18,1.18,0,0,1,.07-.41l.27-1.15c.24-1,.59-2.44.94-4.23s.76-4,1-6.36a33.08,33.08,0,0,0,0-7.83,20.61,20.61,0,0,0-2.65-7.31,29.31,29.31,0,0,0-3.8-5.14,34.33,34.33,0,0,0-3.11-3,15,15,0,0,1-1.2-1.05,2.56,2.56,0,0,1,.35.22c.21.16.55.38,1,.71a30.83,30.83,0,0,1,3.22,2.94A28.75,28.75,0,0,1,70,114.64a20.5,20.5,0,0,1,2.73,7.44,31.88,31.88,0,0,1-.06,7.93,62.3,62.3,0,0,1-1.09,6.37c-.4,1.8-.76,3.24-1.07,4.22-.14.5-.26.88-.34,1.14A2.83,2.83,0,0,1,70.05,142.15Z"/><path d="M68,144.89a6.66,6.66,0,0,1-.44,1.15c-.3.76-.76,1.78-1.34,3-1.17,2.57-2.82,6.11-4.72,10s-3.69,7.35-5,9.88c-.67,1.25-1.21,2.28-1.6,2.94a8.78,8.78,0,0,1-.64,1.06,7.61,7.61,0,0,1,.5-1.13c.39-.76.89-1.78,1.52-3l4.92-9.88C63,155.09,64.71,151.61,66,149c.59-1.22,1.07-2.24,1.45-3A8.3,8.3,0,0,1,68,144.89Z"/><path d="M102.14,200.49V200c0-.36.09-.87.15-1.52.16-1.35.37-3.27.63-5.7.57-4.91,1.37-11.83,2.28-20l.19.19H86.46l-33.07,0-10-.06-2.73,0h-1a1,1,0,0,1,.25,0h.71l2.73,0,10-.06,33.12,0h19.14v.2c-1,8.15-1.85,15.06-2.46,20-.3,2.42-.55,4.34-.76,5.69-.08.64-.15,1.15-.2,1.52l-.07.39S102.15,200.49,102.14,200.49Z"/><path d="M54.76,173.46a15.21,15.21,0,0,1-1.28-1.6,25,25,0,0,0-7.46-6.3,19.42,19.42,0,0,1-1.79-1,7.4,7.4,0,0,1,1.92.76,20.52,20.52,0,0,1,7.55,6.38A7.43,7.43,0,0,1,54.76,173.46Z"/><path d="M145.66,178.49a3.5,3.5,0,0,1-.1-.66c-.06-.46-.12-1.09-.21-1.89-.18-1.64-.42-4-.67-7-.52-5.89-1.12-14-1.65-23s-.91-17.16-1.12-23.07c-.11-2.95-.18-5.32-.21-7,0-.8,0-1.43,0-1.9q0-.33,0-.66a4.93,4.93,0,0,1,.07.66c0,.47.06,1.1.1,1.9.09,1.69.2,4.07.35,7,.28,5.9.7,14,1.23,23s1.09,17.14,1.52,23c.23,2.91.41,5.32.54,7,.06.76.1,1.43.14,1.9A2.94,2.94,0,0,1,145.66,178.49Z"/><path class="cls-3" d="M177.54,175.44a7.08,7.08,0,0,1-.76-.68l-2.09-2-7.15-7,.32-.13c-.06,1.87-.12,3.89-.19,6s-.15,4.19-.22,6.08v.44l-.31-.31-7-7.11-2-2.07a7.06,7.06,0,0,1-.69-.76,5.5,5.5,0,0,1,.76.68l2.07,2,7.07,7-.33.13c.06-1.9.13-3.95.2-6.08s.15-4.13.22-6v-.43l.3.3,7.05,7.12,2,2.08A6.14,6.14,0,0,1,177.54,175.44Z"/><path class="cls-4" d="M104.29,182.45s12.78-3.68,17-4.76c1.65-.42,8.71,3.31,13.59,6.41,0,0,6.71,4,6.17,5.2s-3,1.08-7-.76c0,0,1.39,4-1.33,3.92,0,0,1.35,4.33-1.19,4.78s-3.13-5.08-5.36-5.38-6.84-.6-6.84-.6-3.86,6.39-6.84,6.84-9.88-.36-9.88-.36Z"/><path class="cls-5" d="M126.11,183.34a21.23,21.23,0,0,1,3.57,2,20.11,20.11,0,0,1,3.36,2.36A41.9,41.9,0,0,1,126.11,183.34Z"/><path class="cls-5" d="M125.36,185.82a27,27,0,0,1,4.24,1.74,27.15,27.15,0,0,1,4.06,2.06,26,26,0,0,1-4.24-1.73A25.85,25.85,0,0,1,125.36,185.82Z"/><path class="cls-5" d="M126.73,191.76a20.79,20.79,0,0,1,5.71.76A21.58,21.58,0,0,1,126.73,191.76Z"/><path d="M87.66,50.55a2.62,2.62,0,0,1-3.7,3.1c-1.74-.87-2-3.27-1.61-5.18s1-3.95.19-5.72c-.62-1.35-2-2.21-3-3.27a8.42,8.42,0,0,1-2.34-7.12,7.06,7.06,0,0,1,4.85-5.54c2.55-.71,5.69.07,7.6-1.77,1.38-1.34,1.46-3.52,2.52-5.12,1.65-2.48,5.14-2.87,8.09-2.47s5.94,1.35,8.83.63c2.41-.6,4.39-2.28,6.65-3.31a13,13,0,0,1,17,17.87,8.38,8.38,0,0,1-4,4"/><path class="cls-4" d="M102.32,113.33h0a14.65,14.65,0,0,0,14.62-14.67v-.18l-.19-14s11.73-1.18,12.51-12.8.22-38.46.22-38.46h0a40.5,40.5,0,0,0-40.9,2.86l-1.8,1.24.88,61.51A14.64,14.64,0,0,0,102.32,113.33Z"/><path d="M126.41,54.35a1.74,1.74,0,0,1,0-3.46.66.66,0,0,1,.28,0,1.74,1.74,0,0,1,0,3.46Z"/><path d="M128.69,50.59c-.19.2-1.29-.76-2.89-.84s-2.81.67-3,.46.11-.45.64-.81a4,4,0,0,1,4.69.31C128.63,50.14,128.79,50.55,128.69,50.59Z"/><path d="M110.15,51a1.7,1.7,0,1,1-2.36.43h0A1.69,1.69,0,0,1,110.15,51Z"/><path d="M111.21,51.06c-.2.2-1.29-.76-2.89-.85s-2.81.67-3,.46.12-.45.65-.8a3.94,3.94,0,0,1,4.68.31C111.15,50.6,111.3,51,111.21,51.06Z"/><path d="M116.94,64.63a8.06,8.06,0,0,1,2.62-.41c.42,0,.76-.1.8-.32a2.29,2.29,0,0,0-.24-1.21c-.35-1.09-.71-2.19-1.09-3.33-1.52-4.74-2.52-8.64-2.28-8.71s1.65,3.7,3.14,8.43c.35,1.16.7,2.28,1,3.35a2.7,2.7,0,0,1,.14,1.75,1.07,1.07,0,0,1-.76.63,2.51,2.51,0,0,1-.72.06A7.43,7.43,0,0,1,116.94,64.63Z"/><path class="cls-6" d="M111.62,66.12a29.85,29.85,0,0,0,7.73,2.71A4.43,4.43,0,0,1,114,70.31C110.61,68.84,111.62,66.12,111.62,66.12Z"/><path class="cls-5" d="M116.79,84.34a27.15,27.15,0,0,1-14.94-5.13s3.13,8.56,14.8,8.15Z"/><path d="M129.58,36.19s-7,3.57-16.34-.85c-6.08-2.91-13.2-4.25-14.74-3s-1.74,7.49-7.7,9.42c0,0,.65,11.91-4.11,11.57s-2.14-18.82-2.14-18.82l11.5-5.9L108.67,26l12,1.45,9.29,2.35Z"/><path class="cls-4" d="M87.56,49.51c-.19-.1-7.87-2.81-8,5.17s7.86,6.5,7.87,6.27S87.56,49.51,87.56,49.51Z"/><path class="cls-5" d="M85,57.88a2.66,2.66,0,0,1-.38.19,1.34,1.34,0,0,1-1,0c-.84-.32-1.52-1.68-1.52-3.11a4.88,4.88,0,0,1,.43-2,1.63,1.63,0,0,1,1.07-1,.78.78,0,0,1,.82.41c.1.22,0,.38.08.39s.18-.13.12-.46a.93.93,0,0,0-.3-.5,1.11,1.11,0,0,0-.76-.23,2,2,0,0,0-1.48,1.21A4.84,4.84,0,0,0,81.52,55c0,1.6.81,3.13,2,3.49a1.53,1.53,0,0,0,1.28-.19C85,58.07,85,57.89,85,57.88Z"/><path d="M83.5,24.56a4.37,4.37,0,0,1,4.92,1.84A11.69,11.69,0,0,0,86.14,25,12.39,12.39,0,0,0,83.5,24.56Z"/><path d="M88.3,19.79c.14,0-.08,1.68.19,3.67a15.8,15.8,0,0,0,1.12,3.47,3.52,3.52,0,0,1-.67-.87,7.37,7.37,0,0,1-.83-2.54A8.11,8.11,0,0,1,88.3,19.79Z"/><path d="M121,46.75c0-.09.3-.37.94-.63a7.19,7.19,0,0,1,5.32.05c.64.28,1,.56.94.65s-1.64-.39-3.6-.39S121.13,47,121,46.75Z"/><path d="M103.26,45.09c-.05-.09.3-.36.94-.63a7.17,7.17,0,0,1,2.67-.48,6.85,6.85,0,0,1,2.67.54c.63.27,1,.55.93.65a35.41,35.41,0,0,0-3.61-.4C104.89,44.77,103.37,45.31,103.26,45.09Z"/><path d="M119.67,48a3.68,3.68,0,0,1,0,.47c0,.33,0,.76,0,1.28s0,1.23,0,2a7.37,7.37,0,0,0,.38,2.59A6.7,6.7,0,0,0,125,58.74a6.33,6.33,0,0,0,1.94.17,6.21,6.21,0,0,0,2-.42A6.71,6.71,0,0,0,133.22,52V48l.19.18-9.88-.09-2.87-.06h-1a8,8,0,0,1,1,0l2.82-.05,10-.1h.25V52a7.15,7.15,0,0,1-1.12,4.1,7,7,0,0,1-3.48,2.8,6.57,6.57,0,0,1-2.11.44,7,7,0,0,1-7-4.84,7.43,7.43,0,0,1-.33-2.69c0-.76,0-1.47,0-2s0-.93,0-1.27A2.26,2.26,0,0,1,119.67,48Z"/><path d="M101,47.63v1.76c0,.56,0,1.23,0,2a7.8,7.8,0,0,0,.38,2.58,6.85,6.85,0,0,0,1.68,2.65,6.72,6.72,0,0,0,10.35-1.17,6.85,6.85,0,0,0,1.07-3.89V47.63l.18.18-9.88-.09-2.85,0H101a8,8,0,0,1,1,0l2.82,0,10-.1h.18v4.12a7.08,7.08,0,0,1-4.59,6.9,7,7,0,0,1-2.11.43,6.74,6.74,0,0,1-2-.19,7,7,0,0,1-5-4.65,7.66,7.66,0,0,1-.34-2.69c0-.76,0-1.47,0-2a10.56,10.56,0,0,0,0-1.27A1.57,1.57,0,0,1,101,47.63Z"/><path d="M119.83,48.58a17.7,17.7,0,0,1-5.24,0A17.05,17.05,0,0,1,119.83,48.58Z"/><path d="M86.54,48.68a67.82,67.82,0,0,1,7.27-.22,70.58,70.58,0,0,1,7.27.17,60.82,60.82,0,0,1-7.27.22A65.35,65.35,0,0,1,86.54,48.68Z"/><path class="cls-4" d="M164.72,192.09a18.69,18.69,0,0,0,17.78,9.78h0A18.69,18.69,0,0,0,199.68,186l4.41-50.46-17.65-4.36-7.22,39.52S175.45,187.26,164.72,192.09Z"/><path class="cls-4" d="M186.28,134.84l.58-8.86s2.5-19.86,2.5-21.81c0-2.23,1.07-2.78,1.9-2.72,1.29.08,2.2,1.67,2.28,3.6,0,.66-.06,11.16-.06,11.16a25.72,25.72,0,0,1,2-2.84c1.52-2,5.2-3.09,8.94-3s4.78.49,4.8,1.94a1.88,1.88,0,0,1-.76,1.41,3.71,3.71,0,0,1-2.47.86c-6-.11-7.6,3.09-7.6,3.09l-.08,1.16s3.64-2.61,6.55-1.52a3.29,3.29,0,0,1,1.15.72,4.69,4.69,0,0,1,4.07,7,2,2,0,0,1-1.89,1.18,2.55,2.55,0,0,1-1.05-.65,4.19,4.19,0,0,0-.54-.4L206,128.4s-1.89,7.14-2.36,10.35"/><path class="cls-4" d="M188,134.14a2.71,2.71,0,0,0,2.82-1.47c.59-1,.84-2.12,1.36-3.14,1.57-3,5.32-4.48,6.76-7.6.19-.43.3-1-.08-1.31s-.85-.06-1.24.16l-9.88,5.47"/><path class="cls-5" d="M187.74,126.23a5.19,5.19,0,0,1,1-.7c.66-.41,1.65-1,2.86-1.7l4.29-2.45,1.24-.7a2.26,2.26,0,0,1,1.64-.47.94.94,0,0,1,.64.85,1.91,1.91,0,0,1-.16.91,6.67,6.67,0,0,1-.85,1.43c-1.37,1.78-3.14,2.89-4.41,4.19a8.57,8.57,0,0,0-1.57,2c-.37.7-.61,1.43-.89,2.09a4,4,0,0,1-2.28,2.46c-.82.24-1.27,0-1.24,0a2.84,2.84,0,0,0,1.15-.19,3.85,3.85,0,0,0,2-2.4c.25-.73.53-1.46.85-2.16a8.44,8.44,0,0,1,1.61-2.18c1.31-1.37,3-2.52,4.32-4.17a6.64,6.64,0,0,0,.76-1.28c.19-.44.16-.87-.08-.92a2.32,2.32,0,0,0-1.14.4l-1.26.68-4.36,2.37c-1.24.67-2.28,1.18-3,1.52A4,4,0,0,1,187.74,126.23Z"/><path class="cls-5" d="M198.21,118.94a4.47,4.47,0,0,1,.69-2,3.6,3.6,0,0,1,1.82-1.32,8.9,8.9,0,0,1,2.85-.45,15.55,15.55,0,0,0,3-.26,4.7,4.7,0,0,0,2.2-1.11,1.83,1.83,0,0,0,.59-1.52,1.17,1.17,0,0,0-.19-.57s0,.22,0,.58a1.75,1.75,0,0,1-.63,1.33,4.78,4.78,0,0,1-2.09.94,16.4,16.4,0,0,1-2.89.22,9,9,0,0,0-3,.46,3.8,3.8,0,0,0-1.94,1.52,3.42,3.42,0,0,0-.5,1.58A1.09,1.09,0,0,0,198.21,118.94Z"/><path class="cls-5" d="M193.49,104.3a10.43,10.43,0,0,0,0,2.09c0,1.43,0,3.14,0,5s0,3.6,0,5a12.19,12.19,0,0,0,.05,2.09,9.12,9.12,0,0,0,.25-2.09c.09-1.28.15-3,.14-5s-.08-3.75-.17-5A9.69,9.69,0,0,0,193.49,104.3Z"/><path class="cls-5" d="M200.58,121.28a2.28,2.28,0,0,0,.61-.24,2,2,0,0,1,1.61-.07,1,1,0,0,1,.54.87,5.09,5.09,0,0,1-.09,1.35,2.23,2.23,0,0,0,.25,1.64,2,2,0,0,0,1.59.84,2.25,2.25,0,0,0,1.64-.71,2.69,2.69,0,0,0,.76-1.46,9.32,9.32,0,0,0,0-2.69,5.45,5.45,0,0,0-.54-1.73c-.22-.38-.41-.52-.43-.51s.12.21.28.58a6.26,6.26,0,0,1,.39,1.7,9.69,9.69,0,0,1,0,2.58,2.28,2.28,0,0,1-2,1.82,1.56,1.56,0,0,1-1.27-.64,2,2,0,0,1-.21-1.37,5,5,0,0,0,.06-1.45,1.33,1.33,0,0,0-.76-1.09,2,2,0,0,0-1.81.2C200.75,121.11,200.53,121.22,200.58,121.28Z"/><path class="cls-5" d="M206.56,124.64a.86.86,0,0,0,.06.59,1.85,1.85,0,0,0,1.22,1.08,2.41,2.41,0,0,0,2.28-.72,3.93,3.93,0,0,0,1-2.75,4.86,4.86,0,0,0-.89-2.81,4.57,4.57,0,0,0-1.88-1.52,4.29,4.29,0,0,0-1.57-.37c-.38,0-.58,0-.58.06a7.25,7.25,0,0,1,2,.58,4.43,4.43,0,0,1,1.68,1.45,4.58,4.58,0,0,1,.76,2.58,3.7,3.7,0,0,1-.88,2.5,2.16,2.16,0,0,1-2,.69,1.7,1.7,0,0,1-1.13-.86C206.61,124.85,206.61,124.64,206.56,124.64Z"/><path class="cls-5" d="M199.34,131.66a1.7,1.7,0,0,0-1,0,4,4,0,0,0-2.19,1.32l.35.11a11,11,0,0,0-.23-1.4,9,9,0,0,0-2.17-4.39,22.7,22.7,0,0,1,1.77,4.48c.1.47.18.93.23,1.35l.06.47.3-.37a4.16,4.16,0,0,1,1.94-1.33C199,131.73,199.34,131.71,199.34,131.66Z"/><path class="cls-5" d="M199.53,113.79c-.1,0,.3.76,1.23,1.2s1.75.18,1.71.07-.76-.1-1.52-.45S199.63,113.72,199.53,113.79Z"/><path class="cls-2" d="M183.24,140.57l22.18,1.58s-3.41,39.26-4.07,45.34-4.56,15.27-18.11,15.27-16.08-4.61-22.1-14.11c7.1-4.93,18.39-19.63,18.39-19.63Z"/><path class="cls-3" d="M193.69,145.85a6.76,6.76,0,0,1-.41,1L192,149.43l-4.37,9-.22-.26,5.75-1.71,5.84-1.72.43-.12-.21.39-4.56,8.85-1.34,2.54a5.65,5.65,0,0,1-.53.89c.12-.32.26-.64.41-.95.32-.65.76-1.52,1.25-2.59l4.42-8.91.22.26-5.84,1.74-5.76,1.68-.42.13.2-.39,4.54-8.95c.55-1.05,1-1.92,1.33-2.57A7.46,7.46,0,0,1,193.69,145.85Z"/><path class="cls-3" d="M191.6,183.6a7.22,7.22,0,0,1-1,.14l-2.89.25-10,.76.12-.33,4.38,4.11,4.43,4.18.32.3h-.44l-9.94.55-2.87.12a5.91,5.91,0,0,1-1,0,5.91,5.91,0,0,1,1-.12l2.87-.24,9.92-.68-.11.32-4.45-4.17-4.36-4.12-.32-.29h.44l10-.6,2.89-.15A9.21,9.21,0,0,1,191.6,183.6Z"/></g><g id="freepik--Device--inject-3"><polygon points="168.1 137.36 142.88 199.74 97.39 199.74 97.39 202.56 232.87 202.56 260.58 137.36 168.1 137.36"/><path class="cls-6" d="M206.66,174.19c-.91,3.13-3.57,5.12-5.94,4.43s-3.55-3.8-2.64-6.93,3.58-5.13,5.95-4.44S207.58,171.05,206.66,174.19Z"/></g></g></g></svg>