<svg xmlns="http://www.w3.org/2000/svg" viewBox="0 0 173.08 74.02"><defs><style>.cls-1{fill:#fff;}</style></defs><title>logo UChile</title><g id="Capa_2" data-name="Capa 2"><g id="Esquema"><path class="cls-1" d="M17.34,17.35l4,2.55-1.2-4.56,3.65-3-4.7-.27L17.34,7.69l-1.71,4.39-4.71.27,3.65,3-1.2,4.56Zm-4.52,3.3,1.37-5.19L10,12.06l5.36-.3,1.95-5,1.94,5,5.37.3-4.16,3.4,1.36,5.19-4.51-2.9Z"/><polygon class="cls-1" points="16.14 10.31 14.1 4.06 13.88 4.13 16 10.66 16.14 10.31"/><path class="cls-1" d="M16,10.83h0a.16.16,0,0,1-.15-.12L13.72,4.18a.17.17,0,0,1,.1-.21l.23-.07a.15.15,0,0,1,.13,0,.14.14,0,0,1,.08.1l2,6.25a.14.14,0,0,1,0,.11l-.13.35a.17.17,0,0,1-.16.11"/><polygon class="cls-1" points="6.51 14.28 6.51 14.52 13.3 14.52 13.01 14.28 6.51 14.28"/><path class="cls-1" d="M13.3,14.69H6.51a.17.17,0,0,1-.17-.17v-.24a.16.16,0,0,1,.17-.17H13a.15.15,0,0,1,.11,0l.29.23a.2.2,0,0,1,.05.19.17.17,0,0,1-.16.12"/><polygon class="cls-1" points="15.51 11.92 15.57 11.76 9.07 2.82 8.88 2.96 15.4 11.93 15.51 11.92"/><path class="cls-1" d="M15.4,12.1a.17.17,0,0,1-.14-.07l-6.52-9a.19.19,0,0,1,0-.13.19.19,0,0,1,.07-.11L9,2.68a.17.17,0,0,1,.24,0l6.5,8.94a.18.18,0,0,1,0,.16l-.06.16a.17.17,0,0,1-.15.11H15.4"/><polygon class="cls-1" points="17.22 0.17 17.22 7.53 17.34 7.22 17.46 7.53 17.46 0.17 17.22 0.17"/><path class="cls-1" d="M17.46,7.7a.17.17,0,0,1-.12,0,.2.2,0,0,1-.15,0,.16.16,0,0,1-.14-.16V.17A.18.18,0,0,1,17.22,0h.24a.18.18,0,0,1,.17.17V7.53a.16.16,0,0,1-.14.16h0"/><polygon class="cls-1" points="20.82 12.01 26.17 8.13 26.03 7.93 20.45 11.99 20.82 12.01"/><path class="cls-1" d="M20.82,12.18h0l-.37,0a.16.16,0,0,1-.16-.12.18.18,0,0,1,.07-.19l5.58-4a.15.15,0,0,1,.13,0,.17.17,0,0,1,.11.06l.14.2a.16.16,0,0,1,0,.23l-5.35,3.89a.17.17,0,0,1-.1,0"/><polygon class="cls-1" points="24.2 12.21 24.03 12.35 30.91 10.11 30.83 9.89 23.77 12.18 24.2 12.21"/><path class="cls-1" d="M24,12.52a.19.19,0,0,1-.15-.09.1.1,0,0,1,0-.07h-.1a.16.16,0,0,1-.16-.15.17.17,0,0,1,.12-.18l7.06-2.29a.15.15,0,0,1,.13,0,.14.14,0,0,1,.08.1l.08.22a.18.18,0,0,1-.11.22l-6.88,2.23h0"/><polygon class="cls-1" points="14.23 11.99 8.64 7.93 8.5 8.13 13.86 12.01 14.23 11.99"/><path class="cls-1" d="M13.86,12.18a.17.17,0,0,1-.1,0L8.4,8.26a.16.16,0,0,1,0-.23l.14-.2a.14.14,0,0,1,.11-.06.13.13,0,0,1,.12,0l5.59,4.05a.18.18,0,0,1,.06.19.16.16,0,0,1-.15.12l-.37,0h0"/><polygon class="cls-1" points="18.68 10.66 20.8 4.13 20.57 4.06 18.54 10.31 18.68 10.66"/><path class="cls-1" d="M18.68,10.83a.16.16,0,0,1-.16-.11l-.14-.35a.2.2,0,0,1,0-.11l2-6.25a.17.17,0,0,1,.21-.11l.23.07a.16.16,0,0,1,.1.08.2.2,0,0,1,0,.13l-2.12,6.53a.17.17,0,0,1-.16.12Z"/><polygon class="cls-1" points="19.17 11.92 19.28 11.93 25.8 2.96 25.6 2.82 19.11 11.76 19.17 11.92"/><path class="cls-1" d="M19.28,12.1h-.12A.16.16,0,0,1,19,12L19,11.82a.16.16,0,0,1,0-.16l6.5-8.94a.16.16,0,0,1,.23,0l.2.14a.17.17,0,0,1,.06.11.15.15,0,0,1,0,.13l-6.51,9a.19.19,0,0,1-.14.07"/><polygon class="cls-1" points="21.67 14.28 21.38 14.52 28.17 14.52 28.17 14.28 21.67 14.28"/><path class="cls-1" d="M21.38,14.69a.16.16,0,0,1-.16-.12.16.16,0,0,1,.05-.19l.29-.23a.15.15,0,0,1,.11,0h6.5a.18.18,0,0,1,.12.05.17.17,0,0,1,.05.12v.24a.18.18,0,0,1-.17.17Z"/><polygon class="cls-1" points="10.47 12.21 10.91 12.18 3.84 9.89 3.77 10.11 10.65 12.35 10.47 12.21"/><path class="cls-1" d="M10.65,12.52H10.6L3.72,10.28a.18.18,0,0,1-.11-.22l.07-.22a.18.18,0,0,1,.09-.1.15.15,0,0,1,.13,0L11,12a.16.16,0,0,1,.11.18.15.15,0,0,1-.15.15h-.1a.17.17,0,0,1-.17.16"/><polygon class="cls-1" points="18.47 18.28 20.57 24.74 20.8 24.66 18.79 18.48 18.47 18.28"/><path class="cls-1" d="M20.57,24.9h-.08a.2.2,0,0,1-.08-.1l-2.1-6.46a.18.18,0,0,1,.06-.19.2.2,0,0,1,.2,0l.31.21a.16.16,0,0,1,.07.09l2,6.18a.16.16,0,0,1-.11.21l-.23.08h-.05"/><polygon class="cls-1" points="17.22 17.62 17.22 28.62 17.46 28.62 17.46 17.62 17.34 17.55 17.22 17.62"/><path class="cls-1" d="M17.46,28.79h-.24a.17.17,0,0,1-.17-.17v-11a.17.17,0,0,1,.08-.14l.12-.08a.19.19,0,0,1,.18,0l.12.08a.17.17,0,0,1,.08.14v11a.17.17,0,0,1-.17.17"/><polygon class="cls-1" points="20.72 17 26.03 20.86 26.17 20.67 20.62 16.64 20.72 17"/><path class="cls-1" d="M26,21a.19.19,0,0,1-.1,0l-5.31-3.86a.23.23,0,0,1-.07-.1l-.09-.36a.16.16,0,0,1,.07-.18.17.17,0,0,1,.19,0l5.55,4a.17.17,0,0,1,0,.24l-.14.19a.19.19,0,0,1-.11.07h0"/><polygon class="cls-1" points="20.3 15.4 20.32 15.49 30.83 18.91 30.91 18.68 20.44 15.28 20.3 15.4"/><path class="cls-1" d="M30.83,19.08h0L20.27,15.65a.15.15,0,0,1-.11-.12l0-.09a.18.18,0,0,1,.06-.17l.14-.12a.16.16,0,0,1,.16,0L31,18.52a.16.16,0,0,1,.11.21L31,19a.16.16,0,0,1-.08.1l-.08,0"/><polygon class="cls-1" points="21.58 20.27 21.36 20.13 25.6 25.98 25.8 25.84 21.48 19.89 21.58 20.27"/><path class="cls-1" d="M25.6,26.15a.17.17,0,0,1-.13-.07l-4.25-5.85a.16.16,0,0,1,.1-.26v0a.16.16,0,0,1,.09-.2.18.18,0,0,1,.21.06l4.31,5.94a.13.13,0,0,1,0,.12.14.14,0,0,1-.06.11l-.2.14a.13.13,0,0,1-.1,0"/><polygon class="cls-1" points="15.89 18.48 13.88 24.66 14.1 24.74 16.2 18.28 15.89 18.48"/><path class="cls-1" d="M14.1,24.9h0l-.23-.08a.14.14,0,0,1-.09-.08.12.12,0,0,1,0-.13l2-6.18a.15.15,0,0,1,.06-.09l.32-.21a.18.18,0,0,1,.2,0,.19.19,0,0,1,.05.19l-2.1,6.46a.16.16,0,0,1-.16.11"/><polygon class="cls-1" points="14.05 16.64 8.51 20.67 8.64 20.86 13.96 17 14.05 16.64"/><path class="cls-1" d="M8.64,21h0A.14.14,0,0,1,8.51,21l-.14-.19a.17.17,0,0,1,0-.24l5.55-4a.18.18,0,0,1,.2,0,.16.16,0,0,1,.07.18l-.1.36a.21.21,0,0,1-.06.1L8.74,21a.17.17,0,0,1-.1,0"/><polygon class="cls-1" points="14.38 15.4 14.24 15.28 3.77 18.68 3.84 18.91 14.36 15.49 14.38 15.4"/><path class="cls-1" d="M3.84,19.08l-.07,0a.22.22,0,0,1-.09-.1l-.07-.23a.16.16,0,0,1,.11-.21l10.46-3.4a.15.15,0,0,1,.16,0l.15.12a.16.16,0,0,1,0,.17l0,.09a.19.19,0,0,1-.11.12L3.9,19.07H3.84"/><polygon class="cls-1" points="13.1 20.27 13.2 19.89 8.88 25.84 9.07 25.98 13.32 20.13 13.1 20.27"/><path class="cls-1" d="M9.07,26.15a.14.14,0,0,1-.1,0L8.78,26a.14.14,0,0,1-.07-.11.24.24,0,0,1,0-.12l4.32-5.94a.17.17,0,0,1,.21-.06.18.18,0,0,1,.09.2v0a.13.13,0,0,1,.09,0,.18.18,0,0,1,0,.22L9.21,26.08a.19.19,0,0,1-.14.07"/><rect class="cls-1" x="17.27" y="7.25" width="0.14" height="10.3"/><path class="cls-1" d="M17.33,7.31h0V17.49h0ZM17.21,17.6h.25V7.19h-.25Z"/><rect class="cls-1" x="15.32" y="8.66" width="0.14" height="10.3" transform="matrix(0.31, -0.95, 0.95, 0.31, -2.5, 24.17)"/><path class="cls-1" d="M10.54,12.24l9.69,3.15v0l-9.68-3.15Zm9.76,3.29-9.9-3.22.07-.23,9.91,3.21Z"/><rect class="cls-1" x="14.13" y="13.74" width="10.3" height="0.14" transform="translate(-3.28 6.51) rotate(-17.69)"/><path class="cls-1" d="M14.43,15.37v0l9.69-3.15v0Zm-.07.16-.08-.24,9.9-3.21.08.23Z"/><polygon class="cls-1" points="21.51 20.29 15.46 11.96 15.57 11.88 21.62 20.21 21.51 20.29"/><path class="cls-1" d="M15.54,12l6,8.24,0,0-6-8.24Zm6,8.39L15.38,12l.2-.14,6.12,8.42Z"/><polygon class="cls-1" points="13.16 20.29 13.05 20.21 19.11 11.88 19.22 11.96 13.16 20.29"/><path class="cls-1" d="M13.13,20.2l0,0,6-8.24,0,0Zm0,.17-.2-.14,6.11-8.42.21.14Z"/><path class="cls-1" d="M17.79,74h-.9v-.45c0-.68-1.52-.83-2.06-.83H2.54A2.32,2.32,0,0,1,0,70.2V28.28H17.34v.91H.91v41a1.43,1.43,0,0,0,1.63,1.63H14.82a4,4,0,0,1,2.52.73,4,4,0,0,1,2.52-.73H32.14a1.43,1.43,0,0,0,1.63-1.63v-41H17.34v-.91H34.68V70.2a2.32,2.32,0,0,1-2.54,2.54H19.86c-.54,0-2.07.15-2.07.83Z"/><path class="cls-1" d="M20.63,32.88a.17.17,0,0,1,.14.07l1.15,1.62a3.29,3.29,0,0,1,.41-1l-.74-1.13a.17.17,0,0,1,0-.2.86.86,0,0,0,.2-1,.63.63,0,0,0-.55-.23,1.73,1.73,0,0,0-1,.34c-.59.4-.89,1-.65,1.38a.63.63,0,0,0,.55.23,1.44,1.44,0,0,0,.4-.06h.05M22,35.17a.17.17,0,0,1-.14-.07l-1.33-1.85a1.69,1.69,0,0,1-.38,0,1,1,0,0,1-.83-.38c-.35-.52,0-1.33.74-1.85a2.06,2.06,0,0,1,1.16-.4,1,1,0,0,1,.83.38,1.13,1.13,0,0,1-.14,1.28l.73,1.12a.17.17,0,0,1,0,.19A3.05,3.05,0,0,0,22.19,35a.14.14,0,0,1-.12.14h0"/><path class="cls-1" d="M23.72,35.67a1.52,1.52,0,0,0,.15,1.18c.15.23.39.33.84.33Zm1,1.85h0A1.22,1.22,0,0,1,23.59,37a1.9,1.9,0,0,1-.07-1.81.18.18,0,0,1,.14-.1.19.19,0,0,1,.16.08l1.34,2a.17.17,0,0,1,0,.17.14.14,0,0,1-.14.09h-.29"/><path class="cls-1" d="M24.8,34a.23.23,0,1,1-.45,0,.23.23,0,1,1,.45,0"/><path class="cls-1" d="M24.57,33.92a.11.11,0,0,0,0,.22.11.11,0,1,0,0-.22m0,.45a.34.34,0,0,1,0-.68.34.34,0,0,1,0,.68"/><path class="cls-1" d="M12.59,49.52H.47v.57h12c0-.19.08-.38.14-.57"/><path class="cls-1" d="M22.09,49.52c.05.19.1.38.13.57H34.35v-.57Z"/><path class="cls-1" d="M17.34,46h.28V28.78h-.57V46h.29"/><path class="cls-1" d="M17.34,55.94h-.29V73.06h.57V55.93h-.28"/><path class="cls-1" d="M14,52.89h6.67l-3.33-5.78Zm7,.34H13.71L13.56,53l3.63-6.29h.29L21.11,53Z"/><path class="cls-1" d="M19.16,47.36a.12.12,0,0,1-.08,0,9.39,9.39,0,0,0-1.1-.26.77.77,0,0,1-.55-.32.22.22,0,0,1,0-.22.38.38,0,0,1,.24-.18l-.19-.21a.35.35,0,0,1,0-.34c.09-.21.36-.36.82-.44.63-.11.95.37,1.18.73a1.48,1.48,0,0,0,.31.36.17.17,0,1,1-.15.3,1.22,1.22,0,0,1-.44-.48c-.26-.39-.46-.64-.84-.58s-.55.2-.56.24,0,0,0,0,.2.21.36.36a.2.2,0,0,1,0,.18.16.16,0,0,1-.14.11l-.22.05a1,1,0,0,0,.23.08,8.16,8.16,0,0,1,1.19.29.17.17,0,0,1,.08.23.16.16,0,0,1-.15.09"/><path class="cls-1" d="M17.34,55a4,4,0,1,1,4-4,4,4,0,0,1-4,4m1.94-7.95-.12.13A8.09,8.09,0,0,0,18,46.92c-.12,0-.36-.09-.43-.24a.08.08,0,0,1,0-.07h-.24a4.36,4.36,0,1,0,1.94.45"/><path class="cls-1" d="M19.37,46.27a1.18,1.18,0,0,0,.32.34l-.11.13a4.79,4.79,0,1,1-2.24-.56l.42,0-.14-.14a.22.22,0,0,1,0-.21h-.29a5.16,5.16,0,1,0,2,.43"/><path class="cls-1" d="M18.41,46a.1.1,0,1,1-.1-.1.09.09,0,0,1,.1.1"/><path class="cls-1" d="M18.31,46.22a.22.22,0,1,1,.22-.22.22.22,0,0,1-.22.22"/><path class="cls-1" d="M17.34,49.85A1.15,1.15,0,1,0,18.49,51a1.15,1.15,0,0,0-1.15-1.15m0,2.56A1.41,1.41,0,1,1,18.75,51a1.42,1.42,0,0,1-1.41,1.41"/><path class="cls-1" d="M12.86,70.35h1V66.24H3.57v1.12h9.12a.18.18,0,0,1,.17.17Zm1.17.34H12.69a.16.16,0,0,1-.17-.17V67.7H3.41a.17.17,0,0,1-.17-.17V66.07a.16.16,0,0,1,.17-.17H14a.17.17,0,0,1,.17.17v4.45a.17.17,0,0,1-.17.17"/><path class="cls-1" d="M11,59.26a3.26,3.26,0,1,0,3.26,3.26A3.26,3.26,0,0,0,11,59.26m0,6.85a3.6,3.6,0,1,1,3.6-3.59A3.6,3.6,0,0,1,11,66.11"/><rect class="cls-1" x="7.66" y="52.93" width="0.17" height="7.12" transform="translate(-44.02 32.6) rotate(-57.42)"/><polygon class="cls-1" points="9.94 58.6 4.66 54.68 4.76 54.54 10.04 58.46 9.94 58.6"/><rect class="cls-1" x="6.95" y="53.56" width="0.17" height="6.25" transform="translate(-40.56 25.11) rotate(-49.37)"/><polygon class="cls-1" points="8.88 59.01 4.56 54.74 4.68 54.62 9 58.89 8.88 59.01"/><polygon class="cls-1" points="8.46 59.27 4.51 54.78 4.64 54.66 8.59 59.16 8.46 59.27"/><polygon class="cls-1" points="8.1 59.59 4.46 54.81 4.6 54.71 8.23 59.49 8.1 59.59"/><polygon class="cls-1" points="7.76 59.93 4.42 54.84 4.56 54.75 7.91 59.84 7.76 59.93"/><polygon class="cls-1" points="7.46 60.33 4.37 54.87 4.52 54.79 7.61 60.25 7.46 60.33"/><polygon class="cls-1" points="7.17 60.81 4.32 54.9 4.48 54.83 7.33 60.74 7.17 60.81"/><polygon class="cls-1" points="6.93 61.42 4.28 54.94 4.43 54.87 7.09 61.35 6.93 61.42"/><rect class="cls-1" x="5.51" y="54.73" width="0.17" height="7.87" transform="translate(-18.78 5.01) rotate(-18.99)"/><path class="cls-1" d="M3.53,54l.36.29-.12.45.39-.25.38.25-.11-.45L4.78,54l-.46,0-.16-.42L4,54ZM5.09,55.5l-.93-.6-.94.6.28-1.07-.86-.71,1.11-.06.41-1,.4,1,1.11.06-.86.71Z"/><path class="cls-1" d="M9.38,63.08a.88.88,0,0,0,.36.2c.18.06.24.29.28.43s0,0,0,.06a1.42,1.42,0,0,1,0,.46v.27a1.72,1.72,0,0,1,0,.29c0,.14,0,.38,0,.49l.07,0a7.5,7.5,0,0,0,.25-.86c.05-.31.09-.37.18-.47a.45.45,0,0,0,.07-.07,2.64,2.64,0,0,1,.41-.41.89.89,0,0,0,.21-.57c0-.08-.17-.2-.49-.29a2.43,2.43,0,0,1-.6-.26,8.82,8.82,0,0,0-.8-.61A1.47,1.47,0,0,1,8.9,61a.66.66,0,0,1,.2-.52.17.17,0,0,1,.14-.06.42.42,0,0,1,.15,0h.06a.33.33,0,0,1,.25.29v.05a.2.2,0,0,0,.06-.11.83.83,0,0,1,.43-.4.27.27,0,0,1,.12,0,.42.42,0,0,1,.26.12l0,0a.14.14,0,0,0,.1-.06.14.14,0,0,0,.05-.13,1.74,1.74,0,0,1,0-.31c0-.05,0-.1,0-.19h0a.54.54,0,0,1-.22,0,1.06,1.06,0,0,0-.19.16.65.65,0,0,1-.26.2.32.32,0,0,1-.4-.32c0-.08,0-.21,0-.31a5.52,5.52,0,0,0-.74.43,4.9,4.9,0,0,0-.75.9.94.94,0,0,0,.43.16c.18,0,.3.22.41.45l0,0a.85.85,0,0,0,.16.11c.22.15.33.22.35.32L9.6,62c.08,0,.19.09.17.21s-.14.16-.29.23l-.12.06a1.84,1.84,0,0,0,0,.4c0,.1,0,.18,0,.23m.7,2.21v0Zm0,.23a.15.15,0,0,1-.16-.11,3.59,3.59,0,0,1-.07-.6c0-.12,0-.25,0-.28a1.37,1.37,0,0,1,0-.3c0-.13,0-.34,0-.39a.41.41,0,0,0,0-.07c0-.07-.07-.25-.14-.28-.54-.2-.52-.37-.51-.43a1.58,1.58,0,0,0,0-.19c0-.31,0-.52.09-.6l.15-.08.1,0c-.07,0-.16-.09-.18-.18L9,61.77a1.46,1.46,0,0,1-.21-.14l-.07-.11c-.13-.27-.19-.32-.21-.33s-.55-.11-.64-.3a.21.21,0,0,1,0-.19,6,6,0,0,1,.82-1,6.08,6.08,0,0,1,.93-.52.09.09,0,0,1,.1,0,.15.15,0,0,1,.06.09s0,.32.05.47,0,.14.11.13a1.07,1.07,0,0,0,.17-.15c.12-.12.23-.23.35-.23h0l.11,0a.44.44,0,0,1,.15-.05c.05,0,.18,0,.18.24v.22a1.11,1.11,0,0,0,0,.26.37.37,0,0,1-.1.31.32.32,0,0,1-.38.11l-.06,0a.22.22,0,0,0-.12-.07h0a.63.63,0,0,0-.3.28c-.06.17-.22.32-.34.32H9.59c-.11,0-.12-.18-.12-.33a.07.07,0,0,0-.06-.06l-.1,0-.06,0a.44.44,0,0,0-.13.31,1.5,1.5,0,0,0,.38.58,7.23,7.23,0,0,1,.87.66,4.19,4.19,0,0,0,.51.2c.28.08.63.23.66.48a1.12,1.12,0,0,1-.3.78,2.71,2.71,0,0,0-.38.38l-.07.08c-.06.06-.08.08-.13.35a6.75,6.75,0,0,1-.27.93.1.1,0,0,1-.05.06.65.65,0,0,1-.26.09"/><path class="cls-1" d="M11.78,60h0a1.91,1.91,0,0,0,0-.32.59.59,0,0,0,0-.11,1.29,1.29,0,0,1,.1-.22,2.32,2.32,0,0,0-.57-.12l0,.09a.6.6,0,0,0,.05.24c0,.06.06.08.14.12a.47.47,0,0,1,.23.31m.07.23c-.17,0-.29-.07-.3-.19a.22.22,0,0,0-.09-.14.52.52,0,0,1-.26-.23,1.25,1.25,0,0,1-.07-.34s0,0,0,0l.07-.2a.09.09,0,0,1,.11-.07,2.8,2.8,0,0,1,.85.18.13.13,0,0,1,.06.07.09.09,0,0,1,0,.1.88.88,0,0,0-.13.26s0,0,0,.09c0,.32,0,.51-.19.52h0"/><path class="cls-1" d="M13.18,62.31a.5.5,0,0,1,.05.13.53.53,0,0,0,.08.17.6.6,0,0,1,.1.23.93.93,0,0,0,.09.2.68.68,0,0,1,.18.37.69.69,0,0,0,.06.13.84.84,0,0,1,.09.25s0,.1,0,.16v.16s0,0,0,0a3,3,0,0,0,.37-1,3.62,3.62,0,0,0-.15-1.91A8.74,8.74,0,0,0,13.15,60a1.66,1.66,0,0,0-.26-.2.74.74,0,0,1-.16.12v0a.28.28,0,0,0,0,.1l0,0a.29.29,0,0,1,.1.18v.05a1,1,0,0,1,0,.21.48.48,0,0,1-.14.27.82.82,0,0,0-.12.16l0,0a.46.46,0,0,1-.22,0h-.1l0,0v0a.27.27,0,0,1,0,.22.52.52,0,0,0-.06.15l.14,0a.6.6,0,0,0,.19-.06c0-.07,0-.18,0-.22v0c0-.08.09-.21.19-.23h0A.54.54,0,0,1,13,61a1.08,1.08,0,0,1,.21.11l.12,0a.43.43,0,0,0,.22,0h0a.2.2,0,0,1,.13,0,.36.36,0,0,1,.16,0,.11.11,0,0,1,.08.13.56.56,0,0,0,0,.16,1.3,1.3,0,0,1,.06.19.14.14,0,0,1,0,.14s-.14.18-.25.18l-.27.07-.2.11a.49.49,0,0,0-.08.21m.51,2.38h0a.1.1,0,0,1-.06-.12c0-.15.05-.33.05-.38a.69.69,0,0,1,0-.23.61.61,0,0,0,0-.14.56.56,0,0,0-.07-.17.8.8,0,0,1-.08-.21.52.52,0,0,0-.12-.25.75.75,0,0,1-.13-.27.48.48,0,0,0-.07-.16.72.72,0,0,1-.11-.24.49.49,0,0,0,0-.07c-.13-.13.09-.48.09-.48a1,1,0,0,1,.3-.18h0l.31-.08.09-.08a.56.56,0,0,0,0-.12.36.36,0,0,1,0-.18h0a.27.27,0,0,1-.12,0,.72.72,0,0,1-.33-.06h-.06a.15.15,0,0,1-.1,0,.7.7,0,0,0-.17-.09h-.11l0,.07c0,.09,0,.2,0,.22s-.31.25-.41.25h-.05c-.25-.05-.3-.09-.32-.16s.06-.29.08-.35a.43.43,0,0,1,0-.05.21.21,0,0,1,0-.19.83.83,0,0,1,.12-.13.11.11,0,0,1,.08,0h.23l.12-.17h0a.27.27,0,0,0,.07-.13.34.34,0,0,0,0-.15s0,0,0-.06,0,0,0-.06l0-.06a.43.43,0,0,1-.1-.23.24.24,0,0,1,.13-.22,1.22,1.22,0,0,0,.18-.15.1.1,0,0,1,.13,0s.17.11.36.27a9.61,9.61,0,0,1,1,1.32,3.83,3.83,0,0,1,.17,2.06,3,3,0,0,1-.67,1.44.09.09,0,0,1-.08,0"/><path class="cls-1" d="M29.48,68.47v1.28l2.61-3.36a.56.56,0,0,1-.17-.31,1.12,1.12,0,0,1,0-.41Zm-.17,2h0a.18.18,0,0,1-.12-.16V68.4a.15.15,0,0,1,0-.11l2.74-3.21a.18.18,0,0,1,.2,0,.15.15,0,0,1,.1.16v.24a1.54,1.54,0,0,0,0,.57.31.31,0,0,0,.14.19.16.16,0,0,1,.1.11.16.16,0,0,1,0,.15l-3,3.89a.21.21,0,0,1-.14.07"/><path class="cls-1" d="M26,57.75l-.11,5.84a2.91,2.91,0,0,1,1.63-.39,7.87,7.87,0,0,1,1.9.27c0-1.51,0-4.85,0-5.79a2.9,2.9,0,0,1-.94.18,1.59,1.59,0,0,1-.66-.13,2.42,2.42,0,0,0-1-.25,1.54,1.54,0,0,0-.85.27m-.28,6.41h-.05a.17.17,0,0,1-.12-.17l.11-6.33a.16.16,0,0,1,.08-.14,2,2,0,0,1,1.11-.37,2.75,2.75,0,0,1,1.1.28,1.29,1.29,0,0,0,.53.1,2.5,2.5,0,0,0,1-.25.18.18,0,0,1,.16,0,.17.17,0,0,1,.08.14s0,4.68,0,6.27a.21.21,0,0,1-.07.13.21.21,0,0,1-.15,0,7.71,7.71,0,0,0-2-.31c-1.3,0-1.65.53-1.66.54a.17.17,0,0,1-.14.08"/><path class="cls-1" d="M24.1,63.29a2.76,2.76,0,0,1,1.44.3c.05-2.34.12-5.25.13-5.83a1.13,1.13,0,0,0-.51-.1A2.07,2.07,0,0,0,24.1,58a3.5,3.5,0,0,1-1.78.47,2.22,2.22,0,0,1-.41,0L22,63.55a10.55,10.55,0,0,1,2.13-.26m1.6.85a.19.19,0,0,1-.14-.07c-.2-.29-.71-.44-1.46-.44a11,11,0,0,0-2.25.3.2.2,0,0,1-.15,0,.16.16,0,0,1-.06-.13l-.07-5.53a.2.2,0,0,1,.06-.14.17.17,0,0,1,.14,0,2.86,2.86,0,0,0,.55,0,3.09,3.09,0,0,0,1.61-.43,2.49,2.49,0,0,1,1.23-.37,1.43,1.43,0,0,1,.77.19.18.18,0,0,1,.08.15s-.08,3.65-.14,6.31a.16.16,0,0,1-.12.16H25.7"/><path class="cls-1" d="M24.1,63.29a2.76,2.76,0,0,1,1.44.3c.05-2.34.12-5.25.13-5.83a1.13,1.13,0,0,0-.51-.1A2.07,2.07,0,0,0,24.1,58a3.5,3.5,0,0,1-1.78.47,2.22,2.22,0,0,1-.41,0L22,63.55a10.55,10.55,0,0,1,2.13-.26m1.6.85a.19.19,0,0,1-.14-.07c-.2-.29-.71-.44-1.46-.44a11,11,0,0,0-2.25.3.2.2,0,0,1-.15,0,.16.16,0,0,1-.06-.13l-.07-5.53a.2.2,0,0,1,.06-.14.17.17,0,0,1,.14,0,2.86,2.86,0,0,0,.55,0,3.09,3.09,0,0,0,1.61-.43,2.49,2.49,0,0,1,1.23-.37,1.43,1.43,0,0,1,.77.19.18.18,0,0,1,.08.15s-.08,3.65-.14,6.31a.16.16,0,0,1-.12.16H25.7"/><path class="cls-1" d="M29.12,66.29l0,.92,2.22-2.56a.59.59,0,0,1-.14-.26,1.19,1.19,0,0,1,0-.33ZM29,67.81h0a.2.2,0,0,1-.12-.16l0-1.42a.16.16,0,0,1,0-.12l2.43-2.6a.15.15,0,0,1,.18,0,.16.16,0,0,1,.11.16v.2a1.24,1.24,0,0,0,0,.49.21.21,0,0,0,.11.14.19.19,0,0,1,.1.12.2.2,0,0,1,0,.15l-2.63,3a.19.19,0,0,1-.13,0"/><path class="cls-1" d="M31.37,63.75h0l-.93-.08a.17.17,0,0,1-.15-.18.18.18,0,0,1,.18-.16l.93.08a.17.17,0,0,1,0,.34"/><path class="cls-1" d="M20.28,64.52a.2.2,0,0,0-.14.06.45.45,0,0,0-.09.32c0,.42.29.5.32.5l8.42,2V66.3ZM29,67.83h0l-8.62-2.1a.79.79,0,0,1-.59-.83.8.8,0,0,1,.18-.56.59.59,0,0,1,.42-.16h0L29,66a.18.18,0,0,1,.13.17v1.51a.17.17,0,0,1-.07.13.17.17,0,0,1-.1,0"/><path class="cls-1" d="M20,64.61a.18.18,0,0,1-.13-.06.17.17,0,0,1,0-.24l1-.88a.17.17,0,1,1,.23.25l-1,.88a.16.16,0,0,1-.11,0"/><path class="cls-1" d="M21.88,66.1a.17.17,0,0,1-.17-.17V64.74a.17.17,0,0,1,.17-.17.18.18,0,0,1,.17.17v1.19a.18.18,0,0,1-.17.17"/><path class="cls-1" d="M22.7,66.31a.17.17,0,0,1-.17-.17V65a.17.17,0,0,1,.17-.17.18.18,0,0,1,.17.17v1.16a.18.18,0,0,1-.17.17"/><path class="cls-1" d="M26.37,67.16A.18.18,0,0,1,26.2,67V65.75a.17.17,0,0,1,.17-.17.16.16,0,0,1,.17.17V67a.17.17,0,0,1-.17.17"/><path class="cls-1" d="M19.35,66.21c-.12,0-.3.07-.3.46s.34.61.38.62L29.1,70V68.57Zm9.92,4.19h-.05l-9.87-2.77a.91.91,0,0,1-.64-1c0-.59.35-.8.64-.8h.06l9.9,2.39a.18.18,0,0,1,.13.17v1.79a.21.21,0,0,1-.07.14.19.19,0,0,1-.1,0"/><path class="cls-1" d="M19.07,66.31a.19.19,0,0,1-.13-.06A.17.17,0,0,1,19,66l.89-.77a.16.16,0,0,1,.24,0,.17.17,0,0,1,0,.24l-.89.77a.16.16,0,0,1-.11,0"/><path class="cls-1" d="M32.07,65.32h0l-.78-.08a.17.17,0,0,1-.15-.19.17.17,0,0,1,.18-.15l.78.08a.16.16,0,0,1,.15.18.16.16,0,0,1-.16.16"/><path class="cls-1" d="M20.41,67.82a.11.11,0,0,1-.12-.11V66.37a.12.12,0,0,1,.12-.12.12.12,0,0,1,.11.12v1.34a.11.11,0,0,1-.11.11"/><path class="cls-1" d="M26.15,69.44a.11.11,0,0,1-.11-.12V67.75a.11.11,0,0,1,.22,0v1.57a.11.11,0,0,1-.11.12"/><path class="cls-1" d="M24.57,56.64a1.33,1.33,0,0,0,2.33,0,2.35,2.35,0,0,1-.44.11.13.13,0,0,1-.12-.08.11.11,0,0,1,0-.13,1.25,1.25,0,0,0,.39-.56,1.8,1.8,0,0,1-.43.11.12.12,0,0,1-.12-.07.11.11,0,0,1,0-.13,1.13,1.13,0,0,0,.29-.44,2.09,2.09,0,0,1-.36.07s-.06,0-.09,0a1.59,1.59,0,0,1-.38-.89h0v0a1.6,1.6,0,0,1-.36.91.17.17,0,0,1-.1,0,1.35,1.35,0,0,1-.33-.09,1,1,0,0,0,.28.41.11.11,0,0,1,0,.13.13.13,0,0,1-.12.08A2.45,2.45,0,0,1,24.7,56a1.31,1.31,0,0,0,.39.56.11.11,0,0,1-.08.2,1.89,1.89,0,0,1-.44-.1m1.17.92a1.52,1.52,0,0,1-1.48-1.1.13.13,0,0,1,0-.12.11.11,0,0,1,.12,0l.27.11a2,2,0,0,1-.29-.64.11.11,0,0,1,0-.12.1.1,0,0,1,.12,0l.28.12a2.89,2.89,0,0,1-.21-.49.12.12,0,0,1,0-.12.12.12,0,0,1,.13,0,1.41,1.41,0,0,0,.43.17,1.49,1.49,0,0,0,.27-.74c0-.21.05-.4.23-.4s.18.17.22.37a1.31,1.31,0,0,0,.28.73,2.41,2.41,0,0,0,.46-.13.11.11,0,0,1,.12,0,.12.12,0,0,1,0,.12,1.86,1.86,0,0,1-.21.49,1.51,1.51,0,0,0,.28-.12.12.12,0,0,1,.13,0,.11.11,0,0,1,0,.12,2,2,0,0,1-.29.64,1.65,1.65,0,0,0,.27-.11.1.1,0,0,1,.12,0,.11.11,0,0,1,0,.12,1.51,1.51,0,0,1-1.47,1.1"/><path class="cls-1" d="M8.18,44.64a.16.16,0,0,1-.13-.06.17.17,0,0,1,0-.24l1.29-1.09a.16.16,0,0,1,.24,0,.16.16,0,0,1,0,.23L8.29,44.6a.15.15,0,0,1-.11,0"/><path class="cls-1" d="M8.13,45.64A.19.19,0,0,1,8,45.58a.16.16,0,0,1,0-.23l1.32-1.1a.17.17,0,0,1,.22.26L8.24,45.6a.15.15,0,0,1-.11,0"/><path class="cls-1" d="M7.52,45.92a1.35,1.35,0,0,0,2.67,0ZM8.86,47.4a1.68,1.68,0,0,1-1.69-1.65.15.15,0,0,1,0-.12.17.17,0,0,1,.12-.05h3a.17.17,0,0,1,.12.05.18.18,0,0,1,.05.12A1.69,1.69,0,0,1,8.86,47.4"/><path class="cls-1" d="M6.75,43.21H11v-.42H6.75Zm4.38.34H6.58a.18.18,0,0,1-.17-.17v-.76a.18.18,0,0,1,.17-.17h4.55a.17.17,0,0,1,.17.17v.76a.17.17,0,0,1-.17.17"/><path class="cls-1" d="M8.26,45.58H9.37l-.1-2H8.36Zm1.29.34H8.08A.14.14,0,0,1,8,45.86a.18.18,0,0,1,0-.12L8,43.37a.17.17,0,0,1,.17-.16H9.43a.17.17,0,0,1,.17.16l.12,2.34v0a.17.17,0,0,1-.17.17"/><path class="cls-1" d="M11.16,37.67a2.13,2.13,0,0,0,4.26,0L13.18,32.6H8.88l-.07,0-.07,0H4.5L2.26,37.67a2.13,2.13,0,0,0,4.26,0l-2-4.54a.15.15,0,0,1,0-.16.16.16,0,0,1,.14-.08h4a.17.17,0,0,1,.1,0,.17.17,0,0,1,.1,0H13a.17.17,0,0,1,.14.08.18.18,0,0,1,0,.16ZM8.41,42.45h.8l-.4-8Zm1,.34H8.24a.19.19,0,0,1-.13,0,.14.14,0,0,1,0-.12l.46-9.39H4.93l1.91,4.34a.24.24,0,0,1,0,.08,2.47,2.47,0,0,1-4.94,0,.24.24,0,0,1,0-.08l2.29-5.21a.18.18,0,0,1,.16-.1H8.58l.06-1.19a.17.17,0,0,1,.17-.16.17.17,0,0,1,.17.16L9,32.26h4.25a.18.18,0,0,1,.16.1l2.29,5.21a.24.24,0,0,1,0,.08,2.47,2.47,0,0,1-4.94,0,.24.24,0,0,1,0-.08l1.91-4.34H9.09l.47,9.36v0a.16.16,0,0,1-.16.17"/><path class="cls-1" d="M3,37.42H5.82l-1.43-3.3Zm3.12.34H2.7a.16.16,0,0,1-.14-.08.15.15,0,0,1,0-.16l1.68-3.89a.18.18,0,0,1,.32,0L6.23,37.5a.24.24,0,0,1,0,.09.17.17,0,0,1-.17.17"/><path class="cls-1" d="M11.86,37.42h2.86l-1.43-3.3Zm3.12.34H11.6a.16.16,0,0,1-.14-.08.15.15,0,0,1,0-.16l1.69-3.89a.15.15,0,0,1,.15-.1.18.18,0,0,1,.16.1l1.68,3.87a.24.24,0,0,1,0,.09.17.17,0,0,1-.17.17"/><path class="cls-1" d="M25.77,38.34c.35,0,.64.5.8.87a1.16,1.16,0,0,0,0-1.39,1.08,1.08,0,0,0-.94-.33l-.44,0h-.44A1.22,1.22,0,0,1,23.59,37a1.85,1.85,0,0,1-.16-1.6,1.24,1.24,0,0,1,.49-.7.17.17,0,0,1,.2.05c.22.27.48.48.6.48a2.14,2.14,0,0,0,.3-1.45,1.2,1.2,0,0,0-1.17-.88,1.27,1.27,0,0,0-.88.37l0,0a1.71,1.71,0,0,0-.49.69,4.8,4.8,0,0,0-.22,2.67,2,2,0,0,0,2.31,1.79,6.34,6.34,0,0,0,1.06-.11l.12,0h0m.76,1.38h0a.16.16,0,0,1-.13-.11c-.16-.44-.44-.93-.6-.93h-.1a5.78,5.78,0,0,1-1.12.12,2.35,2.35,0,0,1-2.65-2.08c-.39-2.69.7-3.58.85-3.68a1.56,1.56,0,0,1,1.1-.46,1.54,1.54,0,0,1,1.5,1.15,2.22,2.22,0,0,1-.48,1.83.33.33,0,0,1-.15,0,1.26,1.26,0,0,1-.75-.47,1.47,1.47,0,0,0-.25.52,1.52,1.52,0,0,0,.15,1.2c.15.24.4.33.86.33h.42l.46,0a1.45,1.45,0,0,1,1.21.46,1.6,1.6,0,0,1-.16,2.06.17.17,0,0,1-.13,0"/><path class="cls-1" d="M25.12,39.66c-.25.35-.71,1.16-.16,1.74a1.13,1.13,0,0,0,.86.28,6.5,6.5,0,0,0,1.08-.13,5,5,0,0,1,.78-.1.68.68,0,0,1,.4.11c.32-.41.23-.65.12-.8a.87.87,0,0,0-.76-.32,2.3,2.3,0,0,0-.6.09,4.46,4.46,0,0,1-.85.12c-.26,0-.43-.06-.51-.2a.35.35,0,0,1,0-.3l-.33-.49m.7,2.36a1.47,1.47,0,0,1-1.1-.38c-.75-.79-.15-1.89.28-2.37a.16.16,0,0,1,.13-.06.17.17,0,0,1,.13.07s.23.31.53.76a.17.17,0,0,1,0,.17l0,.07a.54.54,0,0,0,.22,0,3.63,3.63,0,0,0,.76-.11,1.52,1.52,0,0,1,1.73.37c.29.41.19.88-.3,1.38A.16.16,0,0,1,28,42a.16.16,0,0,1-.12-.13s-.08-.07-.21-.07a4.54,4.54,0,0,0-.72.1,7.1,7.1,0,0,1-1.14.13"/><path class="cls-1" d="M24.94,38.79,26,40.31a3,3,0,0,0,.65-.1l-1-1.52h0a5.11,5.11,0,0,1-.73.1m1,1.86h0a.17.17,0,0,1-.13-.07l-1.32-1.85a.15.15,0,0,1,0-.17.16.16,0,0,1,.15-.09,6.74,6.74,0,0,0,1-.11l.12,0h0a.16.16,0,0,1,.14.08l1.19,1.81a.18.18,0,0,1,0,.16.17.17,0,0,1-.12.1l-.15,0a4.35,4.35,0,0,1-.85.12"/><path class="cls-1" d="M27,42.21c-.21.24-.58.77-.3,1.24a1.17,1.17,0,0,0,.8.58,1.57,1.57,0,0,1,.62.31,1.39,1.39,0,0,1,.47,1.16.66.66,0,0,0,0,.14c0,.24.15.36.32.52l.19.19a1.22,1.22,0,0,1,.23.49l0,.13a4.87,4.87,0,0,0,.16-1.39c0-.11-.06-.17-.18-.28A1.1,1.1,0,0,1,29,44.13c.08-.44,0-.68-.32-.83a.74.74,0,0,0-.36-.07c-.12,0-.24,0-.35,0l-.22,0a.25.25,0,0,1-.22-.1.2.2,0,0,1,0-.2,5.38,5.38,0,0,0-.52-.77m2.4,5.19h0c-.21,0-.28-.26-.34-.46a.92.92,0,0,0-.16-.36l-.17-.17a1,1,0,0,1-.43-.75v-.14a1,1,0,0,0-.85-1.16,1.53,1.53,0,0,1-1-.74c-.51-.86.45-1.76.49-1.79a.15.15,0,0,1,.13,0,.24.24,0,0,1,.11.06,3.41,3.41,0,0,1,.71,1.09h.09c.11,0,.25,0,.39,0a1.1,1.1,0,0,1,.51.11,1,1,0,0,1,.5,1.2.79.79,0,0,0,.25.85.69.69,0,0,1,.29.52,3.8,3.8,0,0,1-.31,1.75.26.26,0,0,1-.17.08"/><path class="cls-1" d="M27.14,41.85l.16.23.32.45.28.39h0c.11,0,.25,0,.39,0h.13l-.72-1.11a4.83,4.83,0,0,0-.57.06m1.69,1.52-.09,0-.08,0a.74.74,0,0,0-.36-.07c-.12,0-.24,0-.35,0h-.11a.17.17,0,0,1-.16-.07l-.34-.48c-.11-.16-.23-.33-.32-.44l-.32-.45a.18.18,0,0,1,0-.16.19.19,0,0,1,.13-.1l.08,0a3.9,3.9,0,0,1,.94-.09.2.2,0,0,1,.12.08l1,1.55a.21.21,0,0,1,0,.11.18.18,0,0,1-.17.17Z"/><path class="cls-1" d="M31.48,47.92l.21.15-.06-.25-2.32-3.58a.75.75,0,0,0,.25.81.69.69,0,0,1,.29.52v.08Zm.47.7-.09,0-.6-.4s0,0,0,0l-1.67-2.34a.21.21,0,0,1,0-.1v-.13c0-.11-.06-.17-.18-.28A1.1,1.1,0,0,1,29,44.13a1.34,1.34,0,0,0,0-.39.17.17,0,0,1,.31-.11l2.62,4,0,.05.16.71a.17.17,0,0,1-.17.2"/><path class="cls-1" d="M30.58,57.89a.16.16,0,0,0-.15,0c-.27.08-.59.16-.86.22v.34c.22,0,.49-.1.74-.17,0,1.17,0,4.86,0,5.77a15.79,15.79,0,0,0-2.61-.25,5,5,0,0,0-1.81.26.15.15,0,0,1-.1.09H25.7a.19.19,0,0,1-.14-.07v0a6.23,6.23,0,0,0-1.91-.28,7.09,7.09,0,0,0-2.4.42c0-1.42-.09-4.42-.11-5.24l.45.07v-.34l-.58-.1a.15.15,0,0,0-.14,0,.16.16,0,0,0-.06.13s.11,4.22.11,5.69a.16.16,0,0,0,.08.14.14.14,0,0,0,.09,0h.06a6.67,6.67,0,0,1,2.51-.49,5.79,5.79,0,0,1,2,.33.16.16,0,0,0,.15,0,4.22,4.22,0,0,1,1.87-.32,16.66,16.66,0,0,1,2.75.28.15.15,0,0,0,.14,0,.16.16,0,0,0,.06-.13s0-5.29,0-6.2a.17.17,0,0,0-.07-.14"/><path class="cls-1" d="M15.11,51a2.74,2.74,0,0,0,4.46,0,2.72,2.72,0,0,0-4.46,0m2.23,1.49a3.08,3.08,0,0,1-2.58-1.4L14.7,51l.06-.1a3.08,3.08,0,0,1,5.16,0L20,51l-.06.09a3.09,3.09,0,0,1-2.58,1.4"/><path class="cls-1" d="M17.94,51a.6.6,0,1,1-.6-.6.6.6,0,0,1,.6.6"/><path class="cls-1" d="M4.84,63.44l-.45,1.24.68-1.13Zm-1,2.65L3.61,66l1.08-2.91.79.38Z"/><path class="cls-1" d="M5.6,63.55l.69,1.13-.46-1.24Zm1.21,2.54L5.2,63.43,6,63.05,7.06,66Z"/><path class="cls-1" d="M5.34,62.33a.48.48,0,1,0,.48.48.49.49,0,0,0-.48-.48m0,1.3a.82.82,0,1,1,.82-.82.82.82,0,0,1-.82.82"/><path class="cls-1" d="M53.59,39.46a.65.65,0,0,0-.48.17.93.93,0,0,0-.22.43,1.79,1.79,0,0,0-.07.53v7.74a5,5,0,0,1-1.37,3.81,5.3,5.3,0,0,1-3.84,1.32,5.24,5.24,0,0,1-3.86-1.34,5.12,5.12,0,0,1-1.36-3.83V40.47a2.37,2.37,0,0,0-.1-.73c-.07-.19-.29-.28-.64-.28h-.31v-.21h3.83v.21l-.52,0a.55.55,0,0,0-.31.12.58.58,0,0,0-.16.31,3.94,3.94,0,0,0,0,.56v7.86a4.68,4.68,0,0,0,.88,3,3.43,3.43,0,0,0,2.85,1.1,3.75,3.75,0,0,0,2.82-1,3.87,3.87,0,0,0,1-2.82V40.41a1.31,1.31,0,0,0-.09-.52.71.71,0,0,0-.32-.32,1.61,1.61,0,0,0-.66-.11v-.21H53.9v.21Z"/><path class="cls-1" d="M68.35,39.55a.63.63,0,0,0-.32.28,1.23,1.23,0,0,0-.1.48c0,.19,0,.42,0,.68V53.32h-1L58.6,41.48v10c0,.27,0,.49,0,.67a1.26,1.26,0,0,0,.1.47.58.58,0,0,0,.32.27,2.13,2.13,0,0,0,.64.08v.21H56.35V53a2.18,2.18,0,0,0,.66-.08.63.63,0,0,0,.33-.26.88.88,0,0,0,.11-.45c0-.19,0-.42,0-.7V40.33l-.2-.45a1.17,1.17,0,0,0-.19-.27.52.52,0,0,0-.26-.12,2.54,2.54,0,0,0-.46,0v-.21h2.72c1.27,1.92,2.55,3.79,3.86,5.63s2.59,3.72,3.86,5.63V41c0-.28,0-.51,0-.71a1.2,1.2,0,0,0-.11-.47.57.57,0,0,0-.33-.27,2.3,2.3,0,0,0-.67-.08v-.21H69v.21a1.86,1.86,0,0,0-.66.09"/><path class="cls-1" d="M71.55,53.22V53l.57,0a.68.68,0,0,0,.34-.11.54.54,0,0,0,.16-.3,3,3,0,0,0,0-.58V40.47a3,3,0,0,0,0-.58.54.54,0,0,0-.16-.3.68.68,0,0,0-.34-.11l-.57,0v-.21h4v.21l-.57,0a.68.68,0,0,0-.34.11.49.49,0,0,0-.16.3,3,3,0,0,0,0,.58V52a3,3,0,0,0,0,.58.49.49,0,0,0,.16.3A.68.68,0,0,0,75,53l.57,0v.21Z"/><path class="cls-1" d="M90.26,39.71a2.42,2.42,0,0,0-.34.6l-5,13H84l-5.33-13a1.8,1.8,0,0,0-.4-.63.93.93,0,0,0-.67-.26v-.21h3.65v.21h-.39a.88.88,0,0,0-.31.08.32.32,0,0,0-.15.22.67.67,0,0,0,.07.39l4.21,10.6,3.87-10.15a1.12,1.12,0,0,0,.11-.84c-.09-.18-.35-.28-.79-.31v-.21h3v.21a.72.72,0,0,0-.61.25"/><path class="cls-1" d="M100.75,53.22h-9.4V53a1.17,1.17,0,0,0,.8-.18,1.31,1.31,0,0,0,.17-.83V40.47a1.37,1.37,0,0,0-.17-.84,1.25,1.25,0,0,0-.8-.17v-.21h9.19l0,2.13h-.29c-.07-.52-.23-.84-.49-1a2.64,2.64,0,0,0-1.1-.18H94.52c-.23,0-.36,0-.4.08a.94.94,0,0,0-.05.4v4.72h4.19a4.67,4.67,0,0,0,.57,0,1,1,0,0,0,.4-.13.62.62,0,0,0,.24-.31,2.21,2.21,0,0,0,.13-.56h.26v3.11H99.6a2.1,2.1,0,0,0-.13-.57.61.61,0,0,0-.24-.32.76.76,0,0,0-.39-.15,4.73,4.73,0,0,0-.58,0H94.07v5.38a.35.35,0,0,0,.11.28.66.66,0,0,0,.27.12h4a5.34,5.34,0,0,0,.86-.06A1.72,1.72,0,0,0,100,52a1.8,1.8,0,0,0,.51-.45,3.16,3.16,0,0,0,.44-.75h.33Z"/><path class="cls-1" d="M105.43,45.71h1a8.81,8.81,0,0,0,1.46-.13,4,4,0,0,0,1.29-.48,2.62,2.62,0,0,0,.92-.92,2.65,2.65,0,0,0,.35-1.44,2.4,2.4,0,0,0-.29-1.26,2,2,0,0,0-.77-.77,3,3,0,0,0-1.1-.38,7.47,7.47,0,0,0-1.26-.11h-.41l-.44,0a1.44,1.44,0,0,0-.42.11.83.83,0,0,0-.32.22Zm6.35,7.51c-.33-.73-.66-1.39-1-2a13.62,13.62,0,0,0-1.07-1.64,14.42,14.42,0,0,0-1.26-1.47c-.45-.46-1-1-1.54-1.46l-1.49,0V52a3.94,3.94,0,0,0,0,.56.64.64,0,0,0,.15.31.52.52,0,0,0,.31.12l.53,0v.21h-3.75V53a3.58,3.58,0,0,0,.51,0,.49.49,0,0,0,.43-.43,3.91,3.91,0,0,0,0-.55V40.47a4,4,0,0,0,0-.54.5.5,0,0,0-.14-.3.47.47,0,0,0-.29-.14,3.58,3.58,0,0,0-.51,0v-.21h4.93a7.67,7.67,0,0,1,1.74.2,4.39,4.39,0,0,1,1.48.63,3.36,3.36,0,0,1,1,1.13,3.67,3.67,0,0,1,.38,1.74,3.1,3.1,0,0,1-.29,1.37,2.91,2.91,0,0,1-.78,1,4.23,4.23,0,0,1-1.14.65,6.43,6.43,0,0,1-1.34.35c.4.33.72.61,1,.84s.46.46.65.67l.55.66.64.8a9.75,9.75,0,0,1,.78,1.16c.25.43.48.84.69,1.22s.41.7.59,1,.35.39.51.39v.21Z"/><path class="cls-1" d="M116.59,52.94a.33.33,0,0,0-.1.26h-.25l-.1-3,0-.06h.18a3.79,3.79,0,0,0,1,1.43,4.3,4.3,0,0,0,1.33.77,3.67,3.67,0,0,0,1.43.19,3,3,0,0,0,1.31-.35,2.48,2.48,0,0,0,.94-.85,2.52,2.52,0,0,0-.12-2.78A5.55,5.55,0,0,0,121,47.45a17.6,17.6,0,0,0-1.57-.93,10,10,0,0,1-1.58-1,5.2,5.2,0,0,1-1.21-1.27,3.28,3.28,0,0,1-.48-1.83,2.91,2.91,0,0,1,.34-1.43,3.59,3.59,0,0,1,.89-1.09,4.23,4.23,0,0,1,1.27-.69,4.55,4.55,0,0,1,1.46-.23,4.8,4.8,0,0,1,.85.07,8.45,8.45,0,0,1,.84.19l.22.08.41.11.4.11a.85.85,0,0,0,.21.05.4.4,0,0,0,.39-.39h.22c.06.51.11,1,.16,1.57a10.36,10.36,0,0,1,0,1.57h-.23a3.18,3.18,0,0,0-.8-1.3,3.69,3.69,0,0,0-1.19-.79,3.64,3.64,0,0,0-1.35-.26,3.2,3.2,0,0,0-1.25.24,2.32,2.32,0,0,0-.92.75,2,2,0,0,0-.36,1.21,1.64,1.64,0,0,0,.29,1,4.39,4.39,0,0,0,.72.78,12,12,0,0,0,1.13.8c.4.25.8.48,1.22.7L121,45.4a14,14,0,0,1,1.31.76,6.91,6.91,0,0,1,1.13.93,3.87,3.87,0,0,1,.78,1.17,3.67,3.67,0,0,1,.29,1.49,3.16,3.16,0,0,1-.39,1.58,3.8,3.8,0,0,1-1,1.16,4.66,4.66,0,0,1-1.42.73,5.38,5.38,0,0,1-1.59.24,6.9,6.9,0,0,1-1.65-.2l-1.6-.44a.53.53,0,0,0-.25.12"/><path class="cls-1" d="M126.45,53.22V53l.56,0a.62.62,0,0,0,.34-.11.5.5,0,0,0,.17-.3,3,3,0,0,0,0-.58V40.47a3,3,0,0,0,0-.58.5.5,0,0,0-.17-.3.62.62,0,0,0-.34-.11l-.56,0v-.21h4v.21l-.57,0a.65.65,0,0,0-.34.11.49.49,0,0,0-.16.3,2.82,2.82,0,0,0,0,.58V52a2.82,2.82,0,0,0,0,.58.49.49,0,0,0,.16.3.65.65,0,0,0,.34.11l.57,0v.21Z"/><path class="cls-1" d="M135.79,51.73a.36.36,0,0,0,.14.29,1,1,0,0,0,.35.15,2,2,0,0,0,.42.07H137a10.65,10.65,0,0,0,2.74-.34,5.51,5.51,0,0,0,2.1-1.08A4.68,4.68,0,0,0,143.19,49a7.14,7.14,0,0,0,.48-2.76,6.94,6.94,0,0,0-.46-2.65,4.79,4.79,0,0,0-1.29-1.86,5.22,5.22,0,0,0-2-1.11,9.08,9.08,0,0,0-2.65-.36,5.06,5.06,0,0,0-.76.06,1.64,1.64,0,0,0-.7.31ZM133,53l.51,0a.47.47,0,0,0,.31-.13.5.5,0,0,0,.14-.3,2.75,2.75,0,0,0,0-.56V40.47a2.75,2.75,0,0,0,0-.56.56.56,0,0,0-.14-.31.52.52,0,0,0-.31-.12l-.51,0v-.21h4.78a10.89,10.89,0,0,1,3.12.43A6.51,6.51,0,0,1,143.36,41a5.72,5.72,0,0,1,1.56,2.18,7.83,7.83,0,0,1,.56,3.12,8.33,8.33,0,0,1-.47,2.81,5.59,5.59,0,0,1-1.65,2.32,6.63,6.63,0,0,1-2.68,1.42,11.46,11.46,0,0,1-3,.4H133Z"/><path class="cls-1" d="M152,41.28,149.26,48h5.44Zm3.65,11.94V53a1.13,1.13,0,0,0,.7-.18q.22-.16,0-.69L155.05,49h-6.21l-1.15,2.89a1.28,1.28,0,0,0-.14.82c.07.19.32.29.76.29v.21h-2.89V53a.81.81,0,0,0,.42-.14,1.72,1.72,0,0,0,.31-.29,1.6,1.6,0,0,0,.23-.38c.06-.13.12-.27.17-.41l5.28-12.68H153l5.48,13.22a1.12,1.12,0,0,0,.89.68v.21Z"/><path class="cls-1" d="M163.38,51.73a.34.34,0,0,0,.15.29.86.86,0,0,0,.35.15,1.85,1.85,0,0,0,.41.07h.31a10.59,10.59,0,0,0,2.74-.34,5.48,5.48,0,0,0,2.11-1.08A4.88,4.88,0,0,0,170.79,49a7.34,7.34,0,0,0,.47-2.76,7.14,7.14,0,0,0-.45-2.65,5,5,0,0,0-1.29-1.86,5.29,5.29,0,0,0-2-1.11,9.13,9.13,0,0,0-2.65-.36,5.09,5.09,0,0,0-.77.06,1.64,1.64,0,0,0-.7.31ZM160.62,53l.51,0a.47.47,0,0,0,.31-.13.57.57,0,0,0,.15-.3,2.86,2.86,0,0,0,0-.56V40.47a2.86,2.86,0,0,0,0-.56.64.64,0,0,0-.15-.31.52.52,0,0,0-.31-.12l-.51,0v-.21h4.78a11,11,0,0,1,3.13.43A6.47,6.47,0,0,1,171,41a5.74,5.74,0,0,1,1.57,2.18,8.72,8.72,0,0,1,.08,5.93A5.59,5.59,0,0,1,171,51.4a6.63,6.63,0,0,1-2.68,1.42,11.46,11.46,0,0,1-3,.4h-4.62Z"/><path class="cls-1" d="M44.16,71.2a.33.33,0,0,0,.15.29,1,1,0,0,0,.35.16,2.7,2.7,0,0,0,.41.06h.31a10.18,10.18,0,0,0,2.74-.34,5.61,5.61,0,0,0,2.11-1.07,5,5,0,0,0,1.34-1.88A7.29,7.29,0,0,0,52,65.68,7.1,7.1,0,0,0,51.59,63a5.13,5.13,0,0,0-1.29-1.87,5.27,5.27,0,0,0-2-1.1,9.13,9.13,0,0,0-2.65-.36,5.09,5.09,0,0,0-.77.06,1.43,1.43,0,0,0-.7.31ZM41.4,72.48l.51,0a.46.46,0,0,0,.31-.12.6.6,0,0,0,.15-.31,2.86,2.86,0,0,0,0-.56V59.94a2.69,2.69,0,0,0,0-.55.6.6,0,0,0-.15-.31.52.52,0,0,0-.31-.13l-.51,0v-.2h4.78a11,11,0,0,1,3.13.42,6.47,6.47,0,0,1,2.42,1.29,5.74,5.74,0,0,1,1.57,2.18,8.72,8.72,0,0,1,.08,5.93,5.53,5.53,0,0,1-1.65,2.32,6.65,6.65,0,0,1-2.68,1.43,11.88,11.88,0,0,1-3,.39H41.4Z"/><path class="cls-1" d="M65,72.69h-9.4v-.21a1.25,1.25,0,0,0,.8-.17,1.37,1.37,0,0,0,.17-.84V59.94a1.31,1.31,0,0,0-.17-.83,1.17,1.17,0,0,0-.8-.18v-.2h9.2l0,2.12h-.29c-.07-.52-.23-.84-.49-1a2.66,2.66,0,0,0-1.1-.17H58.76c-.23,0-.36,0-.4.07a1,1,0,0,0,0,.4v4.72H62.5a4.67,4.67,0,0,0,.57,0,.94.94,0,0,0,.41-.13.62.62,0,0,0,.23-.31,2.11,2.11,0,0,0,.13-.56h.27V67h-.27a2.18,2.18,0,0,0-.13-.58.65.65,0,0,0-.23-.32,1,1,0,0,0-.4-.15,4.62,4.62,0,0,0-.58,0H58.31v5.39a.34.34,0,0,0,.11.27.55.55,0,0,0,.27.12,1.76,1.76,0,0,0,.33,0h3.7a7,7,0,0,0,.86,0A1.77,1.77,0,0,0,64.74,71a3.11,3.11,0,0,0,.44-.76h.33Z"/><path class="cls-1" d="M82.24,72.55a7.9,7.9,0,0,1-2.48.39,7.74,7.74,0,0,1-2.94-.53,6.35,6.35,0,0,1-2.2-1.47,6.57,6.57,0,0,1-1.38-2.28,8.64,8.64,0,0,1-.47-2.94,8.22,8.22,0,0,1,.49-2.88,6.77,6.77,0,0,1,1.41-2.31A6.63,6.63,0,0,1,76.88,59a7.39,7.39,0,0,1,2.88-.54,9.53,9.53,0,0,1,2.18.25l.32.09.41.11a2.79,2.79,0,0,0,.39.1,1.32,1.32,0,0,0,.31.05.47.47,0,0,0,.49-.38h.23v.77c0,.27,0,.55,0,.84s0,.57,0,.85a3.6,3.6,0,0,1-.12.72,5.63,5.63,0,0,0-1.61-1.78A4,4,0,0,0,80,59.47a5.4,5.4,0,0,0-2.39.5A4.89,4.89,0,0,0,76,61.32a6.1,6.1,0,0,0-1,2,9,9,0,0,0-.32,2.4A8.7,8.7,0,0,0,75,68.13a5.72,5.72,0,0,0,1,2,4.7,4.7,0,0,0,1.69,1.32,5.69,5.69,0,0,0,2.43.48c.33,0,.69,0,1.07,0a8.47,8.47,0,0,0,1.14-.11,5.64,5.64,0,0,0,1.09-.29,3.33,3.33,0,0,0,.93-.54l.08.35a6,6,0,0,1-2.18,1.26"/><path class="cls-1" d="M94.28,72.69v-.21a3.79,3.79,0,0,0,.53,0,.52.52,0,0,0,.31-.13.61.61,0,0,0,.15-.3,3.56,3.56,0,0,0,0-.55v-5.4H88.56v5.4a3.82,3.82,0,0,0,0,.55.53.53,0,0,0,.14.3.52.52,0,0,0,.3.13,3.54,3.54,0,0,0,.52,0v.21H85.78v-.21a4,4,0,0,0,.54,0,.49.49,0,0,0,.3-.13.61.61,0,0,0,.15-.3,2.62,2.62,0,0,0,0-.55V59.94a2.58,2.58,0,0,0,0-.54.61.61,0,0,0-.15-.3.5.5,0,0,0-.3-.14,4,4,0,0,0-.54,0v-.2h3.77v.2A3.54,3.54,0,0,0,89,59a.48.48,0,0,0-.44.45,3.7,3.7,0,0,0,0,.53V65h6.75V59.94a3.51,3.51,0,0,0,0-.54.61.61,0,0,0-.15-.3.53.53,0,0,0-.31-.14,3.79,3.79,0,0,0-.53,0v-.2h3.79v.2a3.7,3.7,0,0,0-.53,0,.59.59,0,0,0-.31.14.53.53,0,0,0-.14.31,3.7,3.7,0,0,0,0,.53V71.47a3.82,3.82,0,0,0,0,.55.53.53,0,0,0,.14.3.59.59,0,0,0,.31.13,3.7,3.7,0,0,0,.53,0v.21Z"/><path class="cls-1" d="M100.65,72.69v-.21a4.71,4.71,0,0,0,.57,0,.62.62,0,0,0,.33-.11.45.45,0,0,0,.17-.3,3,3,0,0,0,0-.58V59.94a2.84,2.84,0,0,0,0-.57.45.45,0,0,0-.17-.3.62.62,0,0,0-.33-.12l-.57,0v-.2h4v.2l-.57,0a.65.65,0,0,0-.34.12.44.44,0,0,0-.16.3,2.84,2.84,0,0,0,0,.57V71.47a3,3,0,0,0,0,.58.44.44,0,0,0,.16.3.65.65,0,0,0,.34.11,4.71,4.71,0,0,0,.57,0v.21Z"/><path class="cls-1" d="M116.53,72.69h-9.3v-.21a3.54,3.54,0,0,0,.52,0,.52.52,0,0,0,.3-.13.6.6,0,0,0,.14-.3,3.82,3.82,0,0,0,0-.55V59.94a3.7,3.7,0,0,0,0-.53.6.6,0,0,0-.14-.31.53.53,0,0,0-.3-.14,3.54,3.54,0,0,0-.52,0v-.2H111v.2a4,4,0,0,0-.54,0,.56.56,0,0,0-.31.14.54.54,0,0,0-.16.3,2.58,2.58,0,0,0,0,.54V71.31a.34.34,0,0,0,.11.27.55.55,0,0,0,.27.12,1.76,1.76,0,0,0,.33,0H114c.37,0,.7,0,1,0a2.42,2.42,0,0,0,.76-.2,1.64,1.64,0,0,0,.59-.47,4.64,4.64,0,0,0,.51-.86l.26.06Z"/><path class="cls-1" d="M127.52,72.69h-9.41v-.21a1.26,1.26,0,0,0,.81-.17,1.39,1.39,0,0,0,.16-.84V59.94a1.33,1.33,0,0,0-.16-.83,1.19,1.19,0,0,0-.81-.18v-.2h9.2l0,2.12H127c-.06-.52-.23-.84-.48-1a2.66,2.66,0,0,0-1.1-.17h-4.17c-.23,0-.37,0-.4.07a.82.82,0,0,0,0,.4v4.72H125a4.85,4.85,0,0,0,.58,0,.86.86,0,0,0,.4-.13.64.64,0,0,0,.24-.31,2.15,2.15,0,0,0,.12-.56h.27V67h-.27a2.24,2.24,0,0,0-.12-.58.66.66,0,0,0-.24-.32.86.86,0,0,0-.39-.15,4.8,4.8,0,0,0-.59,0h-4.18v5.39a.31.31,0,0,0,.11.27.55.55,0,0,0,.27.12,1.76,1.76,0,0,0,.33,0h3.7a7,7,0,0,0,.86,0,2,2,0,0,0,.65-.22,1.93,1.93,0,0,0,.51-.44,3.11,3.11,0,0,0,.43-.76H128Z"/></g></g></svg>