<svg xmlns="http://www.w3.org/2000/svg" viewBox="0 0 224.45 49.1"><defs><style>.cls-1{fill:#004a92;}.cls-2{fill:#e53328;}.cls-3{fill:#ffd344;}.cls-4{fill:#007e47;}</style></defs><title>logo</title><g id="Capa_2" data-name="Capa 2"><g id="Esquema"><path class="cls-1" d="M12.13,18a8,8,0,0,1,2.07,2.32,8.31,8.31,0,0,1,.57,1.16,6.85,6.85,0,0,1,1.68-2.82l2.25-2.24a7.27,7.27,0,0,1,5.53-2.05h.19a7.2,7.2,0,0,0,5.89-2.85,7.26,7.26,0,0,0,1.43-4.84v0a7,7,0,0,0-.11-.8s0,0,0-.08c-.05-.23-.11-.47-.18-.7l0-.11a7.48,7.48,0,0,0-.67-1.47l-.06-.1a5.06,5.06,0,0,0-.47-.67,5.88,5.88,0,0,0-.58-.64c-.06-.07-.13-.12-.19-.18A5.46,5.46,0,0,0,29,1.53a7.61,7.61,0,0,0-1.83-1L27,.44c-.18-.07-.36-.12-.54-.18l-.16,0A5.6,5.6,0,0,0,25.75.1l-.09,0C25.44.05,25.22,0,25,0h-.66L24,0l-.39,0-.28,0-.6.13-.09,0-.61.19L21.91.5c-.17.06-.34.14-.5.21l-.15.08a5.7,5.7,0,0,0-.54.3l-.08,0a5.9,5.9,0,0,0-.59.43l-.32.28-.27.24,0,0c-.11.11-.2.22-.3.34l-.21.23c-.09.11-.17.23-.26.35l-.19.27,0,.05a7.24,7.24,0,0,0-1.11,4.14v.1a7.46,7.46,0,0,1-2.08,5.52l-2.15,2.15A6.92,6.92,0,0,1,10.24,17a8.2,8.2,0,0,1,1.15.57A8,8,0,0,1,12.13,18Zm9.65-13.6A3.91,3.91,0,1,1,27.31,10h0a3.91,3.91,0,0,1-5.53-5.54Z"/><path class="cls-2" d="M24.55,10.1a2.87,2.87,0,0,0,2-.84h0a2.88,2.88,0,0,0,.85-2,2.9,2.9,0,0,0-2.89-2.89,2.89,2.89,0,1,0,0,5.78Z"/><path class="cls-3" d="M18,37a8.24,8.24,0,0,1,2.31-2.06,7.34,7.34,0,0,1,1.16-.57,6.78,6.78,0,0,1-2.81-1.69L16.45,30.4a6.85,6.85,0,0,1-1.68-2.82,7.72,7.72,0,0,1-.36-2.71c0-.11,0-.22,0-.32a7.3,7.3,0,0,0-.64-3,7.25,7.25,0,0,0-2.21-2.75A6.58,6.58,0,0,0,10.19,18a7.36,7.36,0,0,0-2.72-.64H6.72c-.22,0-.44,0-.66.08H6c-.24,0-.48.09-.71.15h0c-.21.06-.42.12-.63.2l-.12.05a5.22,5.22,0,0,0-.54.24l-.11.05c-.2.11-.4.22-.59.34h0l-.55.4,0,0c-.13.1-.24.21-.35.31l-.24.21-.27.3c-.08.09-.18.19-.26.29s-.15.21-.23.32-.15.2-.22.31L.94,21l-.18.33a3.68,3.68,0,0,0-.15.35A3.49,3.49,0,0,0,.46,22c-.05.12-.08.24-.12.36s-.08.23-.11.35-.05.24-.08.36,0,.25-.07.37,0,.25,0,.37,0,.24,0,.37v.74c0,.12,0,.25,0,.37s0,.24,0,.37.05.24.07.36.05.24.08.36.07.24.11.36.07.24.12.36.1.23.15.34.09.23.15.35.12.22.19.33.12.22.19.33.15.21.22.31l.23.32c.08.1.17.19.26.29l.26.28h0a2.29,2.29,0,0,0,.23.21c.12.11.23.22.36.32s.38.29.58.42l0,0c.19.12.39.23.58.33L4,31l.54.24.12,0,.63.21h0a5.62,5.62,0,0,0,.71.16h0c.22,0,.44.06.66.07h.1c.22,0,.43,0,.64,0h0a8.2,8.2,0,0,1,2.75.37,7.05,7.05,0,0,1,2.87,1.72L15.26,36A7,7,0,0,1,17,38.86a7.39,7.39,0,0,1,.58-1.16A8.6,8.6,0,0,1,18,37ZM10,27.31a3.91,3.91,0,1,1,0-5.53A3.9,3.9,0,0,1,10,27.31Z"/><path class="cls-1" d="M7.21,21.66a2.89,2.89,0,1,0,2,.84A2.88,2.88,0,0,0,7.21,21.66Z"/><path class="cls-4" d="M36.11,30.32a8.39,8.39,0,0,1-1.21-1.58,8.73,8.73,0,0,1-.58-1.14,6.78,6.78,0,0,1-1.68,2.8L30.4,32.64a6.88,6.88,0,0,1-2.82,1.69,7.92,7.92,0,0,1-2.71.35h-.32a7,7,0,0,0-3,.64,7.22,7.22,0,0,0-2.75,2.2A7.05,7.05,0,0,0,18,38.9a7.18,7.18,0,0,0-.64,2.73c0,.21,0,.43,0,.64v.1c0,.22,0,.45.08.67v0c0,.24.09.47.15.7v0c.06.21.12.42.2.63l.05.12q.11.27.24.54a1.17,1.17,0,0,1,.05.11,4.88,4.88,0,0,0,.34.58v0c.13.19.26.38.4.56l0,0,.31.35.21.24.3.27.29.25a3.09,3.09,0,0,0,.31.23l.32.23c.1.07.22.12.32.19l.34.19.34.15.35.15.36.12.35.11.37.07.36.08.37,0c.12,0,.24,0,.37,0h.74l.36,0,.38,0,.35-.08.37-.07.36-.12.36-.11.34-.15.35-.15.32-.19.34-.19.31-.22.32-.23.29-.27.28-.25h0c.08-.08.14-.16.21-.24s.22-.23.32-.35.29-.39.42-.59l0,0a6.65,6.65,0,0,0,.33-.58l.06-.11c.09-.18.16-.36.23-.54a.61.61,0,0,0,.05-.12q.12-.31.21-.63v0a5.47,5.47,0,0,0,.16-.7v0c0-.22.06-.45.07-.67a.34.34,0,0,1,0-.1c0-.21,0-.43,0-.64v0a7.87,7.87,0,0,1,.37-2.74A7.05,7.05,0,0,1,33.84,36L36,33.84a7.05,7.05,0,0,1,2.87-1.72,8.47,8.47,0,0,1-2.75-1.8Zm-8.8,14.33h0a3.9,3.9,0,1,1,1.15-2.76A3.9,3.9,0,0,1,27.31,44.65Z"/><path class="cls-3" d="M24.55,39a2.89,2.89,0,1,0,2,4.93h0a2.89,2.89,0,0,0-2-4.93Z"/><path class="cls-4" d="M41.89,21.66A2.89,2.89,0,0,0,39,24.55a2.84,2.84,0,0,0,.85,2,2.89,2.89,0,1,0,2-4.93Z"/><path class="cls-2" d="M49.09,24.35a2.35,2.35,0,0,0,0-.26c0-.21,0-.42-.06-.64h0a.29.29,0,0,1,0-.09,5.61,5.61,0,0,0-.13-.59.75.75,0,0,0,0-.16c0-.1,0-.2-.08-.29l-.09-.26v0a1,1,0,0,1,0-.1c-.07-.18-.15-.37-.24-.55s0-.11-.08-.17a7.15,7.15,0,0,0-.64-1l-.08-.09q-.2-.24-.39-.45l-.18-.2a6.81,6.81,0,0,0-1.31-1l-.11-.07a6.82,6.82,0,0,0-1.46-.66l0,0H44a4.35,4.35,0,0,0-.71-.18l-.07,0a7.28,7.28,0,0,0-.8-.1h0c-.27,0-.53,0-.8,0h0a5,5,0,0,1-.77,0,4.4,4.4,0,0,1-.51-.05l-.24,0a6.42,6.42,0,0,1-.66-.13h-.08c-.16,0-.32-.1-.48-.15a6.8,6.8,0,0,1-2.76-1.65l-.61-.6-.06-.06h0l-1.61-1.61a6.83,6.83,0,0,1-1.68-2.8,7.92,7.92,0,0,1-1.05,1.88,8.32,8.32,0,0,1-3.5,2.64,7.08,7.08,0,0,1,2.89,1.72L32,18.06h0l.07.07.6.6h0a7.08,7.08,0,0,1,1.65,2.82,3.33,3.33,0,0,1,.13.45.3.3,0,0,1,0,.1c.05.21.1.42.13.64l0,.29c0,.16,0,.31,0,.46s0,.52,0,.77,0,.28,0,.42a7.24,7.24,0,0,0,2.1,5,7.17,7.17,0,0,0,2.13,1.46,7,7,0,0,0,2.6.64,7.17,7.17,0,0,0,2.75-.39h0c.16-.05.32-.12.49-.19l.08,0a3.11,3.11,0,0,0,.41-.2,5.46,5.46,0,0,0,.48-.27l0,0c.1-.06.18-.13.27-.19l.36-.27h0c.07-.06.14-.14.22-.2l.11-.1.24-.22h0l.13-.15.11-.12c.1-.11.2-.21.29-.32s0,0,0,0a5.6,5.6,0,0,0,.36-.49l.05-.08,0-.07c.11-.18.21-.36.31-.54l.07-.15c.08-.17.15-.33.22-.5l.06-.17,0-.09c.06-.17.11-.34.16-.51a.36.36,0,0,1,0-.1q.07-.3.12-.6a2.51,2.51,0,0,0,0-.27l0-.24c0-.05,0-.1,0-.15s0-.2,0-.3A2.81,2.81,0,0,0,49.09,24.35Zm-4.44,3a3.91,3.91,0,1,1-5.53-5.53,3.91,3.91,0,0,1,5.53,5.53Z"/><path class="cls-1" d="M56.08,17.78h5.79c3.21,0,4.44,2,4.44,4.12S65.08,26,61.87,26h-3v4.6H56.08Zm2.82,6h2.19c1.3,0,2.48-.29,2.48-1.92S62.39,20,61.09,20H58.9Z"/><path class="cls-1" d="M65.51,30.61,71.34,17.8h2.84l5.73,12.81H77.18l-1.26-2.84H69.43l-1.35,2.84Zm7.28-10.4-2.15,5H74.9l-2.09-5Z"/><path class="cls-1" d="M88.56,25.87l3.59,4.76H88.7L85.47,26H84.08v4.62H81.24V17.78H87c3.23,0,4.48,2,4.48,4.12a3.85,3.85,0,0,1-3.06,4ZM84.08,20v3.87h2.19c1.35,0,2.47-.31,2.47-1.94S87.62,20,86.27,20Z"/><path class="cls-1" d="M97.15,20.15H93.07V17.8h11v2.37h-4V30.61H97.15Z"/><path class="cls-1" d="M105.63,17.78h2.82V30.61h-2.82Z"/><path class="cls-1" d="M116.63,30.65A6.51,6.51,0,1,1,122.28,21c-1.1.58-1.19.63-2.41,1.22a3.75,3.75,0,0,0-3.24-1.85,3.81,3.81,0,0,0,0,7.62A3.76,3.76,0,0,0,120,26c1.22.63,1.25.7,2.41,1.22A6.46,6.46,0,0,1,116.63,30.65Z"/><path class="cls-1" d="M124.13,17.78H127V30.61h-2.82Z"/><path class="cls-1" d="M129.43,17.78h5.79c3.22,0,4.44,2,4.44,4.12S138.44,26,135.22,26h-3v4.6h-2.82Zm2.82,6h2.2c1.29,0,2.48-.29,2.48-1.92S135.74,20,134.45,20h-2.2Z"/><path class="cls-1" d="M138.87,30.61l5.82-12.81h2.84l5.74,12.81h-2.74l-1.26-2.84h-6.48l-1.35,2.84Zm7.28-10.4-2.16,5h4.26l-2.08-5Z"/><path class="cls-1" d="M154.34,27.82h2.79v2.79h-2.79Z"/><path class="cls-1" d="M169.78,25.76c0,3.47-2.05,5.16-5.49,5.16s-5.46-1.65-5.46-5.16v-8h2.82v8c0,1.4.36,2.79,2.64,2.79,2,0,2.66-.87,2.66-2.79v-8h2.83Z"/><path class="cls-1" d="M178,30.65A6.51,6.51,0,1,1,183.67,21c-1.1.58-1.19.63-2.41,1.22A3.75,3.75,0,0,0,178,20.33,3.81,3.81,0,1,0,178,28a3.75,3.75,0,0,0,3.34-2c1.22.63,1.26.7,2.41,1.22A6.46,6.46,0,0,1,178,30.65Z"/><path class="cls-1" d="M194,25.11H188v5.47h-2.75V17.71H188v4.65H194V17.74h2.77V30.58H194Z"/><path class="cls-1" d="M198.84,17.78h2.82V30.61h-2.82Z"/><path class="cls-1" d="M203.87,30.52V17.73h2.77V28.15h6.58v2.37Z"/><path class="cls-1" d="M217.21,25.49v2.73h7.24V30.6h-10V17.73h9.36V20.1h-6.63V23h5.86v2.5Z"/></g></g></svg>