<svg xmlns="http://www.w3.org/2000/svg" viewBox="0 0 424.68 244.68"><defs><style>.cls-1{fill:#a9c2ff;}.cls-2{fill:#8eaff1;}.cls-3{fill:#00b7ff;}.cls-4{opacity:0.4;}.cls-5{fill:#ffbe9d;}.cls-6{fill:#eb996e;}.cls-7{fill:#f8caa4;}.cls-8{fill:#004b93;}.cls-9{opacity:0.3;}.cls-10{fill:#e63429;}.cls-11{fill:#fff;}</style></defs><title>dibujo</title><g id="Capa_2" data-name="Capa 2"><g id="Información"><path class="cls-1" d="M379.28,94.54a79.12,79.12,0,0,1-8.61,12.85h0c-3.27,3.9-6.62,6.87-9.45,7.88h0a3.73,3.73,0,0,1-.44.14h0a5.36,5.36,0,0,1-1.64.21c-9.28-.42-19.05-20.31-19.05-20.31a7,7,0,0,1,2.06-4,8.27,8.27,0,0,1,2.78-1.84s10,10.26,12.43,11c1.53.46,3.55-6.7,6.44-15.69s13.05-11.22,13.05-11.22S387.09,80.06,379.28,94.54Z"/><path class="cls-2" d="M370.67,107.39h0c-3.27,3.9-6.62,6.87-9.45,7.88h0l-.44.14h0c.1-.07,3.13-1.64,3.6-4.55s-2.66-5.41,5.25-10C374.2,98.18,370.67,107.39,370.67,107.39Z"/><path d="M363.43,243.82h21.73c1.56-1-.42-11.38-.42-11.38s-5.93-2.25-7,2.33-7.55,6-11,6.59C364.41,241.74,363.66,243,363.43,243.82Z"/><path class="cls-3" d="M396.57,136.8s-.68,12.68-1.54,27.37c-.62,10.54-1.32,22.11-1.92,30.78-.08,1.15-.16,2.24-.24,3.28,0,.33,0,.65-.07,1A193.64,193.64,0,0,1,386,235.65c-6.11,1.29-8.87-1.07-8.87-1.07s-4.21-49.35-5.77-69.25c-1.15-14.65-2.13-36-2.13-36Z"/><path class="cls-4" d="M395,164.17c-.62,10.54-1.32,22.11-1.92,30.78-4-9.43-12.16-46.16-12.16-46.16Z"/><path d="M395.66,243.82H417.4c1.55-1-.42-11.38-.42-11.38s-5.94-2.25-7,2.33-7.56,6-11,6.59C396.64,241.74,395.9,243,395.66,243.82Z"/><path class="cls-3" d="M375.18,134.28s15.52,38.64,20.48,53.28c3.54,10.43,13.5,47,13.5,47a10,10,0,0,0,8-1.23s3.71-37.39-3.78-47.93c-4-5.6-1-58.15-17.1-58.6S375.18,134.28,375.18,134.28Z"/><path class="cls-1" d="M407,121.86c-.07,5.49-.13,9.52-.11,10.54,0,3.33-2.08,4.08-4.27,4.58,0,0-2,.44-4.58.87a50.83,50.83,0,0,1-7.65.82,69.21,69.21,0,0,1-20-3.29c-2.05,0-3-3.18-3.32-7.61-.23-3,.7-32.88.81-40.35.08-5.35,3-10.3,3.84-11,7.61-6.73,30.07-5.88,34.11-1.24,1,1.15,1.29,12.21,1.32,24.34C407.11,107.3,407,115.54,407,121.86Z"/><path class="cls-5" d="M393.48,72.49c-2.87,3.11-12.5,2.65-12.21-.06,0-.33.1-2.32.13-2.63s.05-.49.07-.71c.06-.67.12-1.26.16-1.77.13-1.49.17-2.3.17-2.3h0c.27-.07,6.47-1.83,9.55-2.56a4.68,4.68,0,0,1,1.7-.28C392.12,69.09,394.42,71.48,393.48,72.49Z"/><path class="cls-6" d="M391.68,64.5s-2.58,2.63-10.05,2.82c.13-1.49.17-2.3.17-2.3h0c.27-.07,6.47-1.83,9.55-2.56C391.9,62.68,391.18,64.13,391.68,64.5Z"/><path class="cls-5" d="M379.91,64.65a23.57,23.57,0,0,0,4.3,1c3.52.47,8.16.19,9.61-4.07,2.45-7.18,5.59-11.48-1.63-14.41-3.86-1.57-6.33-1.66-8-1.06a5.82,5.82,0,0,0-3,2.57C379.81,50.89,377,63.4,379.91,64.65Z"/><path d="M381.75,43.14a3.4,3.4,0,0,0,1.3,6.19,25.17,25.17,0,0,1,4.23.78c1.8.8,3.34,1.64,2.92,4.43-.15.94-.61,2.1,1.83,1.52a1.17,1.17,0,0,1,.88.06c1,.6-.28,3.51-.67,4.13,0,0-.56,2.09.69,3.1.15.12,2.59,1.19,8.48-7.83a8.35,8.35,0,0,0,.38-7.67c-1.42-3.07-5.41-7-12.91-7A14.27,14.27,0,0,0,381.75,43.14Z"/><path class="cls-2" d="M407,121.86c-1.1,5.09-.82,5.15-2.5,3.81-6.85-5.45-4.85-8.3-3.33-13s-3.82-12.11,0-15.26,5.87,1.89,6,2.11C407.11,107.3,407,115.54,407,121.86Z"/><path class="cls-5" d="M406.79,121.2s-2.58,4.22-4.28,4.08-4-.79-5.29.47-3.45,4.51-2.86,5.38,3,.09,4.7-.85,4.43.46,5.87-.61a50.7,50.7,0,0,0,4.89-5.35Z"/><path class="cls-1" d="M405.77,75.16s21.44,20.17,18.66,33.59c-1.27,6.12-5.21,11.28-15.7,19.63,0,0-5-3.43-6.05-6.21,0,0,9.52-13.42,9.15-15.7-.45-2.79-6.95-9.8-9.28-10.89S400.43,77.5,405.77,75.16Z"/><path class="cls-5" d="M402.51,125.28s-2.26-1-3-1.42-.57.27-.34.61a2.49,2.49,0,0,0,1.71,1.19A2.82,2.82,0,0,0,402.51,125.28Z"/><path d="M25.5,81.43c-.78-1.49,16.91-6.88,17.19,7.88,0,0,33.14-.82,17.31-19.28-5.47-6.4-4.91-11.68-4.74-16.6S51.84,34.2,39.58,35.64a9.15,9.15,0,0,0-7.22.78C23.24,41.14,2.83,86.87,25.5,81.43Z"/><path class="cls-5" d="M79.67,95s2.15-3.29,3.89-3.35,5-1,4.7-.32S86,92,85.82,92.4s3,1,3.86,1,3,0,3,.45-3.83,2.32-6.48,2.06a17.84,17.84,0,0,0-5.94.78Z"/><path class="cls-1" d="M48.48,96a32.2,32.2,0,0,0,3.3,5c2.56,3.21,6.51,6.92,11.47,7.65a12.29,12.29,0,0,0,6.82-1.11h0c6-2.68,10.55-8.83,10.55-8.83A4.94,4.94,0,0,0,80,93.88S67.79,96.62,66.63,96s-8.28-16.39-9.57-19A14.43,14.43,0,0,0,50,69.82Z"/><path class="cls-2" d="M51.78,101c2.56,3.21,6.51,6.92,11.47,7.65a12.29,12.29,0,0,0,6.82-1.11c-.24,0-6.25.78-8.65-3.52s-5.1-11.33-8.73-9C51.12,96,51.19,98.53,51.78,101Z"/><path d="M3.08,227.38s-3.71,3.39-3,5.8,4.08,4,4.53,6.95,2.27,4.55,3.9,4.55h7.77s1.2-2.07-1.7-2.7-4-4.08-3.81-7.29a56.93,56.93,0,0,0-.27-7.49l-6.16-1.42Z"/><path d="M34.51,228.82s-1.34,14.35.29,15.16l20.86,0s0-2.4-3.35-2.94-9.24-2.5-10.23-6.87S34.51,228.82,34.51,228.82Z"/><path class="cls-1" d="M18.46,86.36a83.27,83.27,0,0,0,0,9.64c.21,3.49,3.73,8.15,4.23,9.31,1.26,2.9,2.67,3.37,2.67,3.37l11,2.68,3.85.94,12.14-3.62s5.53-15.44,3.31-24.13A67,67,0,0,0,50,69.82S41.78,66.57,27.2,69Z"/><path class="cls-7" d="M21.67,97.42c.2,3.49.52,6.73,1,7.89,1.26,2.9,2.67,3.37,2.67,3.37l11,2.68,4.75-1.4S25.19,107.56,27,93.9Z"/><path class="cls-8" d="M51.54,111s6,18.72,6.4,25.09-11.5,90.55-12,93.48c-.45,2.77-3.89,4.53-3.89,4.53a5.18,5.18,0,0,1-3.84.3c-3.13-.88-4.12-1.94-4.12-1.94s-4.68-60-1.78-81.47a341.38,341.38,0,0,0,2.93-40Z"/><path class="cls-9" d="M51.54,111s6,18.72,6.4,25.09-11.5,90.55-12,93.48c-.45,2.77-3.89,4.53-3.89,4.53a5.18,5.18,0,0,1-3.84.3c-3.13-.88-4.12-1.94-4.12-1.94s-4.68-60-1.78-81.47a341.38,341.38,0,0,0,2.93-40Z"/><path class="cls-8" d="M26.06,110.46s-9.17,12.31-10,20.63-1.34,37.55-3.16,45.66-8.52,23.73-8.52,49A5.06,5.06,0,0,0,7.19,228a21.7,21.7,0,0,0,2.51.69,3.91,3.91,0,0,0,4.39-2.09c4.53-9.11,19-38.5,19.69-44.6.52-4.32,5.07-32.89,15-49.66,2.38-4-1.46-20-1.46-20Z"/><path class="cls-8" d="M52.5,108.13s-2.41,1.91-7.21,2c-5.73.11-19.92-1.46-19.92-1.46a11.5,11.5,0,0,0-.61,3.62s17.34,4.37,27.38.64A6.34,6.34,0,0,0,52.5,108.13Z"/><rect class="cls-3" x="10.05" y="95.32" width="32.24" height="23.55" rx="2.44" ry="2.44" transform="translate(-71.78 56.5) rotate(-48.95)"/><path class="cls-5" d="M29.37,111.57c.2.06,7.48.91,7.48,2.42,0,1.74-2.13,4.07-4.14,4-.82,0-4.57-3.5-4.57-3.5Z"/><path class="cls-5" d="M33.11,68.2a24.26,24.26,0,0,0,1.3-8.85l.55.11,9.24,1.83S44,64.2,44,66.94V67c0,2.38,1.6,4.77-2.21,5.71C40.6,73,31.37,72.42,33.11,68.2Z"/><path class="cls-6" d="M44.2,61.29S44,64.2,44,66.94c-5.18-.15-7.91-4.87-9-7.48Z"/><path class="cls-5" d="M45.93,63.88s-12.24.2-12.25-7.42S32.09,43.73,39.9,43.27s9.34,2.46,10,5S49.11,63.63,45.93,63.88Z"/><path d="M45.48,43.09S42.13,52,37,53.36s-7.37-.06-7.37-.06a14.56,14.56,0,0,0,4.76-8.61S43,38.83,45.48,43.09Z"/><path d="M44.65,43.81a7.59,7.59,0,0,1,3.5,2.74,12.28,12.28,0,0,1,1.66,7s2.52-6.09-.31-9.52C46.49,40.39,44.65,43.81,44.65,43.81Z"/><path class="cls-5" d="M29.37,111.57a8.24,8.24,0,0,1,2.91-.39c1.17.16,2,0,2,.3s-1.51.48-1.83.64A16.31,16.31,0,0,1,29.37,111.57Z"/><path class="cls-1" d="M27.2,69s-8.69.61-12,8.7-9.65,21.7-9.65,24S9.05,111,28,115.07c0,0,2-2.06,1.85-3.69,0,0-11.84-10.16-11.81-11.35.06-2.25,1.94-5.22,12.33-15.61C33.21,81.59,27.2,69,27.2,69Z"/><path class="cls-10" d="M270,0H176.13a8.55,8.55,0,0,0-6,2.51l-66.4,66.4a8.57,8.57,0,0,0-2.51,6v93.9a8.61,8.61,0,0,0,2.51,6.06l66.4,66.4a8.58,8.58,0,0,0,6,2.5H270a8.56,8.56,0,0,0,6-2.5l66.4-66.4a8.57,8.57,0,0,0,2.51-6.06V75a8.53,8.53,0,0,0-2.51-6l-66.4-66.4A8.53,8.53,0,0,0,270,0Z"/><path class="cls-11" d="M263.43,231.62H182.74A12.19,12.19,0,0,1,174,228L117,171a12.26,12.26,0,0,1-3.6-8.7V81.57a12.22,12.22,0,0,1,3.6-8.7L174,15.81a12.22,12.22,0,0,1,8.7-3.6h80.69a12.22,12.22,0,0,1,8.7,3.6l57.06,57.06a12.22,12.22,0,0,1,3.6,8.7v80.69a12.26,12.26,0,0,1-3.6,8.7l-57.06,57A12.19,12.19,0,0,1,263.43,231.62Zm-80.69-211A3.88,3.88,0,0,0,180,21.73L122.9,78.78a3.93,3.93,0,0,0-1.15,2.79v80.69A3.91,3.91,0,0,0,122.9,165L180,222.1a3.91,3.91,0,0,0,2.78,1.15h80.69a4,4,0,0,0,2.79-1.15l57-57.06a3.91,3.91,0,0,0,1.15-2.78V81.57a3.93,3.93,0,0,0-1.15-2.79l-57-57a3.92,3.92,0,0,0-2.79-1.16Z"/><path class="cls-11" d="M288.16,125l-1.64-1.42a10,10,0,0,0-14,1l-9.28,10.72a2.19,2.19,0,0,1-3.85-1.43h0a23.36,23.36,0,0,0-.13-2.52V63.83a8.08,8.08,0,0,0-8.07-8.06h-.59a8.08,8.08,0,0,0-8.06,8.06v43.94a1.94,1.94,0,0,1-1.93,1.93h0a2.13,2.13,0,0,1-2.13-2.13V55.32a7.82,7.82,0,0,0-7.8-7.8h-1.13a7.81,7.81,0,0,0-7.79,7.8v52.59A1.79,1.79,0,0,1,220,109.7h0a2.27,2.27,0,0,1-2.27-2.28V65.5a8.09,8.09,0,0,0-8.07-8.07H209A8.08,8.08,0,0,0,201,65.5v42.26A1.94,1.94,0,0,1,199,109.7h0a2.12,2.12,0,0,1-2.12-2.13V74.5a8.09,8.09,0,0,0-8.07-8.06h-.59a8.08,8.08,0,0,0-8.06,8.06v58.06c0,.17,0,.33,0,.48s0,.55,0,.82v32a23.67,23.67,0,0,0,23.61,23.61h32a23.65,23.65,0,0,0,19.87-10.88,50,50,0,0,1,4.18-5.65L289.17,139A10,10,0,0,0,288.16,125Z"/></g></g></svg>