<svg xmlns="http://www.w3.org/2000/svg" viewBox="0 0 258.78 241.67"><defs><style>.cls-1{opacity:0.1;}.cls-2{fill:#007e47;}.cls-3{fill:#ffbe9d;}.cls-4{fill:#eb996e;}.cls-5{fill:#263238;}.cls-6{fill:#666;}.cls-7{fill:#fff;}.cls-8{fill:#004b93;}.cls-9{opacity:0.3;}.cls-10{fill:#e0e0e0;}</style></defs><title>dibujo 3_1</title><g id="Capa_2" data-name="Capa 2"><g id="Esquema"><g id="freepik--background-simple--inject-4" class="cls-1"><path class="cls-2" d="M234.66,33.82l-1.48-2.42C220.77,11,198.34-1.38,174.68.12a61.35,61.35,0,0,0-9.05,1.24c-21.51,4.6-40.23,20.87-48,41.7-4.56,12.26-5.84,26.36-14.5,36.09C91.89,91.8,72.76,92.2,55.94,91.67S20,91.6,8.77,104.3c-7,8-9.26,19.28-8.68,30,1.49,28.21,21.15,53.44,46.15,66s54.46,13.65,81.8,8.17c38.33-7.73,74.78-28.95,96.68-61.73S252.19,69.2,234.66,33.82Z"/><circle class="cls-2" cx="71.51" cy="50.21" r="24.62"/></g><g id="freepik--Character--inject-4"><polygon points="69.88 123.64 72.86 160.83 76.96 161.43 74.1 122.75 69.88 123.64"/><path class="cls-3" d="M64.73,125.77l12.57,3,11.09,10.6L84,144.65,74,133.4S63,130.61,64.73,125.77Z"/><path class="cls-3" d="M91.21,147.79v-.1l-2.82-8.3-10.16-4.77a6.82,6.82,0,0,0-1.29,1.64,16.7,16.7,0,0,0-4.41-4l-2-1.27a3.54,3.54,0,0,0-3.9,5.63,2.85,2.85,0,0,0-.44,5,3.77,3.77,0,0,0-.83,5.26,4,4,0,0,0,.42.49,2.63,2.63,0,0,0-.71,2.72,6.35,6.35,0,0,0,1.6,2.56,22.51,22.51,0,0,0,3.82,3.41,4.39,4.39,0,0,0,1.58.77,2.25,2.25,0,0,0,2.18-2.3L80.4,159l5.44,11.49,14-8.51Z"/><path class="cls-4" d="M82,150.68a1.48,1.48,0,0,1-.31-.15,6,6,0,0,1-.84-.54,8.06,8.06,0,0,1-2.27-2.85,8.27,8.27,0,0,1-.68-5.36,13.46,13.46,0,0,1,.46-1.49,1.67,1.67,0,0,0,0-1.43,4.16,4.16,0,0,0-1.26-1,6.53,6.53,0,0,1-1.36-1.16,6.76,6.76,0,0,1-1-1.48c-.26-.52-.44-1.05-.72-1.5a2.2,2.2,0,0,0-1.14-1c-.47-.17-1-.27-1.47-.42a15,15,0,0,1-4.95-2.2,4.13,4.13,0,0,1-1.91-3v-.58l.1-.41a1.15,1.15,0,0,1,.1-.33,1.32,1.32,0,0,1,0,.34l-.05.41v.56A4.13,4.13,0,0,0,66.51,130,15.56,15.56,0,0,0,71.4,132c.49.15,1,.23,1.52.43a2.55,2.55,0,0,1,1.31,1.09c.31.49.49,1,.74,1.53a6.23,6.23,0,0,0,1,1.39,6,6,0,0,0,1.26,1.11,4.2,4.2,0,0,1,1.36,1.08,2,2,0,0,1,.08,1.72,12.57,12.57,0,0,0-.47,1.47,8.15,8.15,0,0,0,.57,5.17,8.43,8.43,0,0,0,2.14,2.85C81.57,150.43,82,150.64,82,150.68Z"/><path class="cls-4" d="M75.68,136.56a3.24,3.24,0,0,1,.45.53,8.78,8.78,0,0,1,1,1.64,2.61,2.61,0,0,1,.26,1.37,3.66,3.66,0,0,1-.58,1.45,2.34,2.34,0,0,1-1.4,1.06,3.15,3.15,0,0,1-1.82-.4,18.21,18.21,0,0,1-5.15-3.59,17,17,0,0,1-1.27-1.42,2.52,2.52,0,0,1-.39-.59s.68.75,1.83,1.83a20,20,0,0,0,5.13,3.45,2.85,2.85,0,0,0,1.62.37,2,2,0,0,0,1.18-.9,3.34,3.34,0,0,0,.56-1.3,2.42,2.42,0,0,0-.2-1.22,11.93,11.93,0,0,0-.87-1.66A2.46,2.46,0,0,1,75.68,136.56Z"/><path class="cls-4" d="M74,142a3.09,3.09,0,0,1,.68.45A8.09,8.09,0,0,1,76.32,144a4.49,4.49,0,0,1,.74,1.4,3.2,3.2,0,0,1,0,1.84,2.58,2.58,0,0,1-1.29,1.58,2.7,2.7,0,0,1-2.19-.07,18.37,18.37,0,0,1-5.83-4.56,17.1,17.1,0,0,1-1.36-1.81,3.39,3.39,0,0,1-.4-.72c.05,0,.68,1,1.93,2.35a19.78,19.78,0,0,0,5.78,4.42,2.37,2.37,0,0,0,1.9.08,2.32,2.32,0,0,0,1.14-1.36,2.93,2.93,0,0,0,0-1.66,4.74,4.74,0,0,0-.68-1.37,10,10,0,0,0-1.53-1.59A3.87,3.87,0,0,1,74,142Z"/><path class="cls-4" d="M76.07,148.12a1.87,1.87,0,0,1,.43.5,3.62,3.62,0,0,1,.68,1.67,2.59,2.59,0,0,1-.18,1.26,2,2,0,0,1-1,1.06,2.5,2.5,0,0,1-1.62.06,7.89,7.89,0,0,1-1.58-.63,30,30,0,0,1-5-3.06c-.59-.46-1.06-.85-1.36-1.13a2.42,2.42,0,0,1-.46-.47s.75.55,2,1.4a35.69,35.69,0,0,0,5,2.94,7.49,7.49,0,0,0,1.5.61,2.3,2.3,0,0,0,1.42,0,1.67,1.67,0,0,0,.89-.88,2.53,2.53,0,0,0,.2-1.12,3.85,3.85,0,0,0-.54-1.61A4.3,4.3,0,0,1,76.07,148.12Z"/><path class="cls-4" d="M73.21,151.93a4.33,4.33,0,0,1,.49.86,9,9,0,0,1,.45,1,2.51,2.51,0,0,1,.1,1.36,2.08,2.08,0,0,1-.68,1.21,1.75,1.75,0,0,1-1.07.4c-.68,0-1-.35-1-.36a2.64,2.64,0,0,0,.93.11,1.71,1.71,0,0,0,.88-.39,2,2,0,0,0,.57-1,4,4,0,0,0-.43-2.2A2.15,2.15,0,0,1,73.21,151.93Z"/><path class="cls-5" d="M76.6,156.61l-.12-4.18a3.4,3.4,0,0,1-2.92.06,6.71,6.71,0,0,1,.43,3.14l-.22,1.53Z"/><path class="cls-6" d="M60.07,103.84c-.87-11.58,2.12-20.48,6.57-21.9.6-.18,2.91-1.31,3.51-1.12,4.34,1.37,7.49,10.53,8.25,20.72.68,8.66.09,17-2.93,20.64-1,1.23-3.37,1.36-4.65,1.52C65.76,124.33,61,115.44,60.07,103.84Z"/><path class="cls-7" d="M70.73,80.84C65.37,82,62,91.91,62.84,103c1,13,5.82,20.43,10.89,19.75a5.87,5.87,0,0,0,1.78-.86c3-3.63,3.57-12,2.92-20.61C77.66,91.19,75.06,82.29,70.73,80.84Z"/><path class="cls-5" d="M78.12,102c.68,8.64-.13,16.79-3.14,20.42,4.09-2.35,6.92-11.1,6.13-21.37-.87-11.58-5.92-20.9-11-20.27-.16,0-.21.34-.37.38C74.11,82.63,77.36,91.88,78.12,102Z"/><path d="M62.84,103a2.34,2.34,0,0,1,0,.26L63,104c.07.68.18,1.62.39,2.85a45.09,45.09,0,0,0,1,4.44,30.15,30.15,0,0,0,2.13,5.61,18.67,18.67,0,0,0,1.84,2.95,8.61,8.61,0,0,0,2.82,2.41,4.15,4.15,0,0,0,3.79,0,7.77,7.77,0,0,0,2.94-3,24.16,24.16,0,0,0,2.82-8.71,44.81,44.81,0,0,0,.32-9.89,43.91,43.91,0,0,0-1.82-9.71,21,21,0,0,0-4.31-8,5.9,5.9,0,0,0-3.62-2,4.65,4.65,0,0,0-3.56,1.41,11.23,11.23,0,0,0-2.15,3.05,20.92,20.92,0,0,0-1.29,3.23,38.63,38.63,0,0,0-1.48,10.42c0,1.24,0,2.21,0,2.87v.75a1,1,0,0,1,0,.25,1,1,0,0,1,0-.25c0-.18,0-.43-.07-.74,0-.68-.1-1.64-.1-2.89A37.22,37.22,0,0,1,64,88.66a21.5,21.5,0,0,1,1.27-3.29,11.3,11.3,0,0,1,2.21-3.14,5,5,0,0,1,3.78-1.51,6.12,6.12,0,0,1,3.82,2,21.24,21.24,0,0,1,4.41,8.17,43.12,43.12,0,0,1,1.84,9.81,45.56,45.56,0,0,1-.32,10,24.52,24.52,0,0,1-2.89,8.85A8,8,0,0,1,75,122.64a4.24,4.24,0,0,1-2,.46,4.63,4.63,0,0,1-2-.51,8.75,8.75,0,0,1-2.9-2.51,18.52,18.52,0,0,1-1.86-3,31.12,31.12,0,0,1-2.09-5.67,40.44,40.44,0,0,1-.92-4.48c-.19-1.23-.27-2.2-.34-2.86a3.84,3.84,0,0,0,0-.74A1,1,0,0,1,62.84,103Z"/><path d="M73.63,100.1c.09,0-.73,3.27-1.84,7.23s-2.08,7.16-2.18,7.13.73-3.26,1.84-7.23S73.53,100.08,73.63,100.1Z"/><path d="M74.07,93.62c.1,0-.73,3.26-1.84,7.23S70.15,108,70.05,108s.73-3.27,1.84-7.23S74,93.59,74.07,93.62Z"/><path d="M194,53.2,128.83,64.53c.2,1,.41,2,.63,3l-.17-.41c2.66,12.17,5.26,25.19.68,36.76-1.51,3.82-3.81,7.49-3.8,11.62,0,1.93.54,3.82.64,5.76s-.34,4.08-1.84,5.27-4.35,1.51-4.94,3.5c-.41,1.36.51,2.76,1.46,3.83a29.86,29.86,0,0,0,9.23,7,14.49,14.49,0,0,0,3.07,6.8l12.62-5.93-.77-4.09a6.11,6.11,0,0,0,4.27,3.45c2.37.56,4.85,0,7.22-.6A205.43,205.43,0,0,0,196.9,126c1.69-.82,10.22-1.46,10.22-1.46C208.57,102.89,202.05,73.35,194,53.2Z"/><path d="M192.23,49.52C187.71,40.06,183,30.2,173.44,26c-8.54-3.79-17.06-3.29-26-.62C143,26.64,138.5,30,135.17,33.15c-4.56,4.36-5.27,11.05-6.43,17.25-2.34,12.42,2.13,27.31,6.67,30.63l52.74,12.74c7.14-6.36,12.14-9.75,12-19.31C200.1,68,195.07,55.4,192.23,49.52Z"/><path class="cls-3" d="M174.79,35.39l-31.43-1.24c-9.77,1-13.62,14.12-12.21,23.83,1.58,10.79,3.94,23.91,6.88,31.59,5.92,15.45,18.6,14.89,18.6,14.89s.09.23,1.19,5l2.24,10.69c6.77,12.09,19.54,7.66,34.46-2.65L181,40A5.75,5.75,0,0,0,174.79,35.39Z"/><path d="M137.45,69.75a2.1,2.1,0,0,0,2.42,1.64,2,2,0,0,0,1.72-2.29,2.09,2.09,0,0,0-2.41-1.65A2,2,0,0,0,137.45,69.75Z"/><path d="M135.77,65.86c.31.21,1.62-1.27,3.83-1.72s4.08.3,4.24,0-.27-.57-1.08-.94a5.81,5.81,0,0,0-3.47-.32,5.5,5.5,0,0,0-3,1.71C135.73,65.18,135.62,65.73,135.77,65.86Z"/><path d="M158,64.78a2.09,2.09,0,0,0,2.41,1.65,2,2,0,0,0,1.72-2.29,2.09,2.09,0,0,0-2.41-1.66A2,2,0,0,0,158,64.78Z"/><path d="M157.18,60.68c.31.22,1.62-1.27,3.82-1.72s4.09.3,4.25,0-.27-.58-1.09-.94a5.78,5.78,0,0,0-3.46-.32,5.56,5.56,0,0,0-3,1.71C157.16,60.05,157,60.58,157.18,60.68Z"/><path d="M152.64,78.05a15.14,15.14,0,0,0-3.73.11c-.57.06-1.13.06-1.3-.3a2.9,2.9,0,0,1,0-1.75c.24-1.48.5-3,.76-4.64,1-6.59,1.63-12,1.36-12s-1.31,5.28-2.34,11.87c-.24,1.62-.46,3.17-.68,4.65a3.38,3.38,0,0,0,.18,2.28,1.42,1.42,0,0,0,1.1.62,4,4,0,0,0,1-.06A15,15,0,0,0,152.64,78.05Z"/><path class="cls-4" d="M156.63,104.48a41.55,41.55,0,0,0,20.2-10.22s-2.92,12.31-19.24,14.19Z"/><path d="M159.87,78.2c-.37.06.12,2.45-1.58,4.58S154,85.16,154,85.5c0,.16.68.35,1.75.16a6.12,6.12,0,0,0,3.58-2.14,5.3,5.3,0,0,0,1.17-3.81C160.41,78.69,160,78.16,159.87,78.2Z"/><path d="M142.64,32.38a36.39,36.39,0,0,0,7.26,18.26,13.31,13.31,0,0,0,4,3.76,6,6,0,0,0,5.34.36,22.14,22.14,0,0,1-7.43-11.22c3,4,6.09,8.13,10.22,11s9.53,4.45,14.25,2.8l-1.13-3.18a11.6,11.6,0,0,0,5.35,5.11c2.34.92,5.35.49,6.85-1.53-3.61-7.54-.88-17.35-5.8-24.11-3.4-4.67-9.57-6.44-15.34-6.8a46,46,0,0,0-23.61,4.86"/><path class="cls-5" d="M143.34,32.35v.36h.06C143.38,32.59,143.36,32.5,143.34,32.35Z"/><path d="M143.35,32.71l-1.06-.16c-3.37-.81-5.77-2-9.4,3.2a29.57,29.57,0,0,0-4.16,10.55c-.68,3.4-1.43,7.09-1.12,10.55a43.61,43.61,0,0,0,2.68,12.25c2.24-2.45,2.83-6,2.92-9.3s-.2-6.71.68-9.92a25.42,25.42,0,0,0,1.52,8.17,3.4,3.4,0,0,0,1.36,1.78,1.44,1.44,0,0,0,2-.49,17.87,17.87,0,0,1-2.34-9.53A51.33,51.33,0,0,1,137.75,40a49,49,0,0,0,4.6,16,4.32,4.32,0,0,0,1.43,1.89,3.86,3.86,0,0,0,3.45-.14,8.27,8.27,0,0,1,3.41-1A46.88,46.88,0,0,1,143.35,32.71Z"/><polygon class="cls-3" points="157.59 108.43 206.87 110.96 175.19 150.59 162.18 156.72 150.64 153.96 147.99 145.56 157.59 108.43"/><path class="cls-5" d="M214.54,118.15a6.65,6.65,0,0,1-1,.11,22.62,22.62,0,0,0-2.73.34A12.41,12.41,0,0,0,207,120a18.37,18.37,0,0,0-4,3,20.1,20.1,0,0,0-2.89,4.08,38.6,38.6,0,0,0-1.76,3.67c-.44,1.09-.76,2-1,2.59a6,6,0,0,1-.37,1,6.77,6.77,0,0,1,.23-1c.19-.63.47-1.54.89-2.64a30.25,30.25,0,0,1,1.7-3.76,18.73,18.73,0,0,1,2.92-4.15,17.72,17.72,0,0,1,4.08-3,12.67,12.67,0,0,1,3.93-1.32,19.91,19.91,0,0,1,2.78-.22A5.57,5.57,0,0,1,214.54,118.15Z"/><path class="cls-8" d="M83.3,168.94s18.3,35.48,21.37,39.44c7.25,9.34,23.83,6.37,26.17,1.24,4.08-8.85,17.12-38.4,17.12-38.4l-4.31-10.62-14.5-29.95-14.22,49.2L96.5,156.52Z"/><path class="cls-8" d="M233.44,187.54s-1.65-50-3.75-56.92-4.68-10.72-9.88-14.08c-5.93-3.83-12.26-4.94-12.94-5.58,0,0-18,20-27,31.42s-20.74,12-23.15,9-4.2-9.15-2.1-18.85,3-24.12,3-24.12l-2.09.23a30.75,30.75,0,0,0-25.91,20.62c-.14.44-.28.88-.41,1.37C125,145.1,141.51,165.88,141.51,165a52.71,52.71,0,0,0,1.06,11.39C145,186,166,202.13,167.21,206.83s2.2,34.81,2.2,34.81,36.47.07,51.18,0c11.95-.06,38.19,0,38.19,0Z"/><path class="cls-5" d="M140.31,128.24a5.76,5.76,0,0,1,.19.57,15.8,15.8,0,0,1,.45,1.67,32.56,32.56,0,0,1,.75,6.3,79.67,79.67,0,0,1-.33,9.4c-.27,3.54-.68,7.4-.91,11.47a58.53,58.53,0,0,0,.39,11.46,33.84,33.84,0,0,0,2.56,9,33,33,0,0,0,3.17,5.45c.45.6.82,1,1,1.36a4.29,4.29,0,0,1,.36.48,2.85,2.85,0,0,1-.41-.44c-.25-.3-.64-.74-1.1-1.33a29.59,29.59,0,0,1-3.29-5.45,32.3,32.3,0,0,1-2.66-9,56.92,56.92,0,0,1-.42-11.52c.2-4.09.64-8,.93-11.48a86.16,86.16,0,0,0,.41-9.37,34.83,34.83,0,0,0-.64-6.28c-.12-.74-.28-1.3-.37-1.68A3.5,3.5,0,0,1,140.31,128.24Z"/><g class="cls-9"><path d="M144.53,179.94c-4.35-2.89-6.71-8.08-7.38-13.25s.15-10.4,1-15.56c.91-5.72,2.42-10.89,3.32-16.6.6,7.92-.29,14.83-.86,22.54s-.29,15.94,3.94,22.41"/></g><path class="cls-5" d="M127.28,195.17c-.08.07-6.93-8.4-15.31-18.89s-15.11-19.07-15-19.12,6.93,8.4,15.31,18.9S127.36,195.11,127.28,195.17Z"/><g class="cls-9"><path d="M185.46,136.45a13.48,13.48,0,0,0,3.36,3.5,4.66,4.66,0,0,0,4.63.43c1.7-.94,2.27-3.07,2.81-4.94a42.52,42.52,0,0,1,14.68-21.68c-5.2,2.1-10.45,4.24-15,7.48s-8.5,7.75-10,13.17"/></g><path class="cls-7" d="M190.37,174.25a2.68,2.68,0,0,1-.49.11l-1.41.26c-.61.12-1.36.25-2.23.36s-1.88.29-3,.41c-2.21.28-4.85.52-7.79.68s-6.18.23-9.58.16-6.62-.31-9.53-.59-5.55-.69-7.75-1c-1.09-.17-2.08-.38-3-.54s-1.61-.32-2.22-.46l-1.4-.33a2.18,2.18,0,0,1-.48-.14,4.29,4.29,0,0,1,.5.07l1.41.26c.61.12,1.36.27,2.22.4s1.86.33,3,.49c2.2.35,4.82.68,7.75,1s6.12.48,9.53.56,6.61,0,9.53-.13,5.57-.37,7.77-.62c1.11-.1,2.11-.24,3-.34s1.62-.21,2.24-.31l1.42-.19A2,2,0,0,1,190.37,174.25Z"/><path class="cls-7" d="M193.85,147.49a2.86,2.86,0,0,1-.43.35l-1.31,1-1,.68c-.36.24-.76.47-1.19.74a33.6,33.6,0,0,1-3,1.71l-1.77.9c-.62.31-1.3.56-2,.85-1.47.61-3,1.16-4.48,1.62a49.38,49.38,0,0,1-21.61,1.58,46.54,46.54,0,0,1-4.67-1c-.71-.19-1.42-.34-2.08-.56l-1.89-.63a29.87,29.87,0,0,1-3.17-1.26c-.47-.2-.9-.37-1.29-.56l-1-.55-1.44-.75a3,3,0,0,1-.49-.29,3,3,0,0,1,.52.23l1.47.68,1,.53,1.29.53a32,32,0,0,0,3.19,1.2l1.88.62c.68.2,1.36.34,2.08.53,1.43.4,3,.62,4.64.91a50.39,50.39,0,0,0,21.46-1.53c1.59-.52,3.11-1,4.46-1.58.68-.29,1.36-.53,2-.83l1.78-.87c1.15-.53,2.1-1.16,3-1.66.43-.26.84-.48,1.2-.71l1-.68,1.36-.92A3.37,3.37,0,0,1,193.85,147.49Z"/><path class="cls-7" d="M106.48,173.05a2.91,2.91,0,0,1-.47.58c-.32.36-.8.85-1.41,1.45a55,55,0,0,1-5.09,4.31A51.17,51.17,0,0,1,93.89,183c-.75.41-1.36.73-1.8.93a3.16,3.16,0,0,1-.68.29s.9-.56,2.36-1.43,3.4-2.15,5.52-3.69a61.7,61.7,0,0,0,5.14-4.22C105.69,173.75,106.45,173,106.48,173.05Z"/><path class="cls-7" d="M121.93,189.09a4.36,4.36,0,0,1-.29.93,10.54,10.54,0,0,1-.42,1.07c-.19.39-.37.88-.63,1.36a32.58,32.58,0,0,1-2,3.45,32.13,32.13,0,0,1-6.47,7.23,32.15,32.15,0,0,1-3.22,2.33c-.47.31-.92.55-1.31.77a9.94,9.94,0,0,1-1,.54,3.61,3.61,0,0,1-.9.39,5.53,5.53,0,0,1,.84-.51c.27-.15.61-.34,1-.59s.82-.49,1.28-.82a32.58,32.58,0,0,0,3.14-2.36,34.89,34.89,0,0,0,6.41-7.15,37.62,37.62,0,0,0,2-3.41c.27-.49.47-1,.68-1.36s.35-.75.47-1A5.82,5.82,0,0,1,121.93,189.09Z"/><path class="cls-7" d="M139.28,191.22a6.93,6.93,0,0,1-.68-.93c-.39-.62-1-1.5-1.74-2.56s-1.71-2.29-2.82-3.61-2.41-2.69-3.85-4.09a50.43,50.43,0,0,0-4.26-3.63c-1.36-1.06-2.65-1.93-3.75-2.63s-2-1.25-2.64-1.6a6.78,6.78,0,0,1-1-.59,5.63,5.63,0,0,1,1,.47c.68.32,1.59.83,2.73,1.51a45.34,45.34,0,0,1,3.81,2.58,51.39,51.39,0,0,1,4.31,3.63,53.2,53.2,0,0,1,3.86,4.09c1.1,1.36,2,2.59,2.77,3.68s1.29,2,1.65,2.62A8.18,8.18,0,0,1,139.28,191.22Z"/><path class="cls-7" d="M140.42,159s-.84-.65-2.22-1.67A45,45,0,0,0,126.47,151c-1.6-.58-2.62-.87-2.61-.94a3.14,3.14,0,0,1,.74.15,20.14,20.14,0,0,1,2,.56,37.13,37.13,0,0,1,11.8,6.34,15.84,15.84,0,0,1,1.56,1.36A3.08,3.08,0,0,1,140.42,159Z"/><path class="cls-7" d="M141.46,137.86a18,18,0,0,1-1.79-.94c-1.11-.58-2.64-1.36-4.39-2.13s-3.35-1.37-4.54-1.77a14.38,14.38,0,0,1-1.9-.69,10.18,10.18,0,0,1,2,.46,37.91,37.91,0,0,1,4.61,1.68,40.84,40.84,0,0,1,4.36,2.25A8.65,8.65,0,0,1,141.46,137.86Z"/><path class="cls-7" d="M154.65,122.5s-.9-.36-2.31-.94a50.16,50.16,0,0,0-11.52-3.2,24.76,24.76,0,0,1-2.46-.38,2.58,2.58,0,0,1,.68,0,17.59,17.59,0,0,1,1.83.15,39.8,39.8,0,0,1,5.91,1.15,38.39,38.39,0,0,1,5.67,2c.68.32,1.26.6,1.64.81A3.33,3.33,0,0,1,154.65,122.5Z"/><path class="cls-7" d="M185.43,197.78a4.9,4.9,0,0,1-1,.13c-.64.07-1.57.14-2.72.21a90.11,90.11,0,0,1-9,0c-3-.14-6.05-.42-9.05-.86-1.15-.17-2-.33-2.73-.46a4.81,4.81,0,0,1-1-.23,6.91,6.91,0,0,1,1,.1l2.72.34c2.29.28,5.45.6,9,.77s6.72.15,9,.08l2.72-.08A6.37,6.37,0,0,1,185.43,197.78Z"/><path class="cls-7" d="M250.59,225.85l-.19.08-.58.19-2.22.68c-1,.31-2.16.68-3.56,1s-3,.86-4.76,1.29-3.69.94-5.78,1.4-4.33.92-6.68,1.4c-4.73.88-9.95,1.7-15.46,2.33s-10.8.95-15.61,1.13c-2.4.06-4.68.13-6.8.11s-4.13,0-5.95-.09-3.46-.14-4.9-.21-2.68-.16-3.7-.25l-2.33-.2-.6-.06a.76.76,0,0,1-.21,0h.81l2.34.13c1,.07,2.25.14,3.7.18s3.08.15,4.9.17,3.8.07,5.94,0,4.41-.08,6.8-.14c4.77-.2,10.07-.56,15.57-1.16s10.72-1.44,15.44-2.31c2.36-.46,4.6-.87,6.68-1.36s4-.91,5.78-1.36l4.77-1.23c1.42-.37,2.59-.68,3.57-1l2.24-.65.6-.16Z"/><path class="cls-7" d="M243.4,207.73c0,.09-6.87.9-15.36,1.79s-15.38,1.54-15.38,1.44,6.87-.9,15.36-1.79S243.39,207.63,243.4,207.73Z"/><path class="cls-7" d="M232.79,187.93c0,.1-3.4,1.07-7.72,2.17s-7.79,1.92-7.82,1.83,3.41-1.07,7.73-2.17S232.76,187.84,232.79,187.93Z"/><path class="cls-7" d="M230.67,169.91a37.74,37.74,0,0,1-4.91,1.41,36.6,36.6,0,0,1-5,1.07,34.84,34.84,0,0,1,4.91-1.41A36.6,36.6,0,0,1,230.67,169.91Z"/><g class="cls-9"><path d="M169,231.59c8.46,1.7,16.18,4.56,24.76,3.62s17.25-5,21.67-12.39c3.28-5.49,3.89-12.14,4.41-18.52q1.71-20.82,3.4-41.63L205.74,211.3l-8.41,12.82Z"/></g><path class="cls-8" d="M136.81,213.56l48.62-8.3s10.16-61.49,10.44-62.59,3.68-20.24,13.32-21.88,18.41,2.19,19,11.49c.45,7.43-10.34,60.85-17.14,85.59-2,7.12-9.76,13.42-17.38,13.56-19.87.37-56.62,0-56.62,0Z"/><path class="cls-5" d="M195.86,142.67c-.2,1.18-4.09,24.68-10.31,62.64v.1h-.1l-48.59,8.32.15-.17c.06,5.69.12,11.72.19,17.88l-.17-.18,18.38.13c10.29.05,20.34.05,30,0l7.21-.09A17.26,17.26,0,0,0,199.5,230a20.56,20.56,0,0,0,10-8.86l.39-.72.33-.76a11.79,11.79,0,0,0,.56-1.54c.32-1,.58-2.11.86-3.16.58-2.09,1.08-4.17,1.6-6.22,1-4.08,2-8.08,2.86-11.94,1.79-7.73,3.35-14.95,4.77-21.54,2.72-13.2,4.76-23.93,6-31.37.3-1.86.56-3.52.74-5,.11-.69.2-1.37.28-2s.12-1.16.17-1.66a20.89,20.89,0,0,0,.15-2.24,5.66,5.66,0,0,1,0-.77v.77a17,17,0,0,1-.12,2.25c0,.5-.09,1.05-.15,1.65s-.17,1.28-.26,2c-.17,1.44-.43,3.1-.71,5-1.15,7.49-3.15,18.19-5.86,31.4-1.36,6.6-2.92,13.82-4.69,21.55q-1.32,5.81-2.84,12c-.52,2-1,4.13-1.6,6.22-.28,1-.53,2.12-.85,3.18a12.88,12.88,0,0,1-.58,1.57l-.33.77-.4.74a20.78,20.78,0,0,1-10.15,9,17.43,17.43,0,0,1-7,1.32l-7.27.09c-9.71.08-19.75.07-30.05,0L137,231.58h-.17v-.18c-.06-6.13-.13-12.18-.19-17.87v-.14h.14l48.65-8.28-.13.12c3.18-19,5.8-34.63,7.62-45.54.93-5.45,1.66-9.69,2.15-12.59l.59-3.31C195.77,143.05,195.86,142.67,195.86,142.67Z"/><path class="cls-7" d="M221.11,166.77a6.06,6.06,0,0,1-1.12-.1l-3.06-.38c-2.58-.32-6.12-.68-10.11-.89s-7.54-.23-10.14-.2l-3.08.06a7.1,7.1,0,0,1-1.13,0,7,7,0,0,1,1.12-.12c.73-.06,1.78-.12,3.08-.17,2.6-.09,6.2-.11,10.17.1s7.55.61,10.12,1c1.29.19,2.33.36,3,.49A8.07,8.07,0,0,1,221.11,166.77Z"/><path class="cls-7" d="M226,141.1a6.77,6.77,0,0,1-1.09-.21c-.68-.17-1.72-.38-3-.6a55,55,0,0,0-19.89,0c-1.25.23-2.27.45-3,.61a8.24,8.24,0,0,1-1.1.22,6.58,6.58,0,0,1,1.06-.35c.68-.21,1.7-.46,3-.73a49.79,49.79,0,0,1,20,0c1.26.26,2.27.51,3,.72A6.33,6.33,0,0,1,226,141.1Z"/><path class="cls-7" d="M214.54,198.12a6,6,0,0,1-.92-.6c-.28-.2-.64-.45-1.06-.71s-.9-.59-1.45-.89a34.54,34.54,0,0,0-3.94-2,35.36,35.36,0,0,0-5.12-1.71,38.27,38.27,0,0,0-5.33-.9,36.07,36.07,0,0,0-4.41-.09c-.63,0-1.19.07-1.69.11s-.93.08-1.28.13a5.06,5.06,0,0,1-1.1.09,8.32,8.32,0,0,1,1.08-.23c.35-.07.78-.14,1.27-.19s1.07-.14,1.7-.16a30.18,30.18,0,0,1,4.46,0,32.66,32.66,0,0,1,10.55,2.63,30.6,30.6,0,0,1,3.94,2c.55.31,1,.68,1.43.94a9.39,9.39,0,0,1,1,.77A8.39,8.39,0,0,1,214.54,198.12Z"/><path class="cls-7" d="M203.24,227.13a7,7,0,0,1-.58-.94c-.34-.61-.87-1.49-1.52-2.56A82,82,0,0,0,189,208.15c-.89-.89-1.62-1.6-2.13-2.08a6.38,6.38,0,0,1-.77-.79,8.12,8.12,0,0,1,.86.69c.54.45,1.3,1.13,2.22,2a71.89,71.89,0,0,1,6.64,7.32,70.71,70.71,0,0,1,5.55,8.17c.62,1.1,1.11,2,1.43,2.64A7.29,7.29,0,0,1,203.24,227.13Z"/><path class="cls-7" d="M161.72,231.46a3.33,3.33,0,0,1-.07-.83c0-.6,0-1.35-.06-2.24-.05-1.9-.16-4.52-.37-7.41s-.5-5.49-.73-7.37c-.11-.88-.2-1.63-.27-2.23a3.82,3.82,0,0,1-.06-.83,4.56,4.56,0,0,1,.2.81c.1.52.24,1.28.38,2.22.29,1.88.62,4.48.84,7.38s.28,5.52.26,7.42c0,1,0,1.72-.05,2.25A3.88,3.88,0,0,1,161.72,231.46Z"/><path class="cls-7" d="M225,123.62c0,.1-5-.09-11.16-.44s-11.13-.68-11.12-.78,5,.1,11.14.43S225,123.53,225,123.62Z"/><g class="cls-9"><path d="M185.43,205.26a49.93,49.93,0,0,1-14.56-10.43c2,0,4,.87,6,1.41s4.32.72,6-.51a8.57,8.57,0,0,0,2.39-3.58,87.45,87.45,0,0,0,4.14-11.05c-1.17,7.72-2.45,16.47-4,24.16"/></g><g class="cls-9"><path d="M115.08,179.41a51,51,0,0,1,14.52,14c.25.37.5.86.25,1.23s-1,.3-1.47,0c-4.53-3.41-9.79-10.29-13.32-15.21"/></g><path d="M199.65,70.27,186,45.52l-14.22,1.56c-1,11,9.24,20.52,9,31.59-.09,4.56-2,9-1.36,13.57.56,4.27,3.29,8,3.89,12.26.71,5-1.61,9.94-3.44,14.69s-3.17,10.31-.68,14.75c5.27,2.38,7.45,2.51,12.44,3.54,3.81-3.56,5.21-11.52,10.79-17.08,0,0,7.06-8.63,13.12-6,0,0,7-4-7.78-24.6C204.43,85.13,201.45,76.41,199.65,70.27Z"/><path class="cls-3" d="M86.41,215.36l10.22-7.61a5.27,5.27,0,0,1,3.5-1l8.17.68,19.06,8.28,9.31-1.25.14,16.22s-8.27.45-11.57-.1-7.82-3.45-7.82-3.45,1.09,1.63.55,2.91-4.91,3.27-4.91,3.27-3.09,1.09-3.63-1.09c0,0-5.45.72-6-3.64,0,0-8.34-1.41-7.15-5.25.88-2.85,1.78-4.93,1.78-4.93l2.45-5.45-2.72-.48s-5,3.73-7.18,4.09A6.19,6.19,0,0,1,86.41,215.36Z"/><path class="cls-4" d="M107,216a21.39,21.39,0,0,0-1.77,1.43,9.2,9.2,0,0,0-2.61,4.66,10.27,10.27,0,0,0,0,3c.13.92.32,1.74.48,2.42a17.13,17.13,0,0,1,.51,2.23,1.86,1.86,0,0,1-.24-.56c-.14-.38-.32-.92-.52-1.6a22.64,22.64,0,0,1-.55-2.44,9.71,9.71,0,0,1-.08-3.09,9,9,0,0,1,2.78-4.77,8.38,8.38,0,0,1,1.37-1A1.71,1.71,0,0,1,107,216Z"/><path class="cls-4" d="M111.43,220.58h-.57a2.91,2.91,0,0,0-1.43.51A3.78,3.78,0,0,0,108,222.8a5.64,5.64,0,0,0-.34,2.73,17.63,17.63,0,0,0,.59,2.78c.24.85.46,1.62.69,2.25.41,1.27.76,2.05.72,2.05s-.14-.16-.32-.5a12.66,12.66,0,0,1-.64-1.46c-.25-.62-.49-1.39-.75-2.24a15.51,15.51,0,0,1-.63-2.84,5.82,5.82,0,0,1,.39-2.92,4,4,0,0,1,1.59-1.79,2.83,2.83,0,0,1,1.57-.44A1.21,1.21,0,0,1,111.43,220.58Z"/><path class="cls-4" d="M114.67,227.39s0-.22.27-.43a2.11,2.11,0,0,1,1.11-.49,1.55,1.55,0,0,1,1.2.27c.26.22.29.43.26.45s-.16-.13-.39-.24a1.63,1.63,0,0,0-1-.12A4.31,4.31,0,0,0,114.67,227.39Z"/><path class="cls-4" d="M115.17,224.12s.21.11.31.41a3.1,3.1,0,0,1,.15,1.21,2.32,2.32,0,0,1-.38,1.16c-.19.27-.39.35-.41.31s.09-.18.2-.43a3.53,3.53,0,0,0,.23-1.07,5.24,5.24,0,0,0,0-1.12C115.2,224.31,115.13,224.15,115.17,224.12Z"/><path class="cls-4" d="M96.31,223.37a2.22,2.22,0,0,1,.19-.68c.15-.42.37-1,.68-1.76.56-1.48,1.36-3.51,2.28-5.75.33-.8.68-1.58.94-2.29v0h0a5.16,5.16,0,0,1,4.16-1.67,4.08,4.08,0,0,1,1.29.28c.29.11.43.19.42.21a8.34,8.34,0,0,0-1.72-.28,5.13,5.13,0,0,0-3.89,1.67v0l-.92,2.3c-.92,2.24-1.76,4.25-2.39,5.71-.31.72-.57,1.31-.76,1.71A2.31,2.31,0,0,1,96.31,223.37Z"/></g><g id="freepik--Device--inject-4"><path class="cls-10" d="M7.32,162.69l33.77,75.57h78.68a6.75,6.75,0,0,0-6.57-5.44l-67.59-.49L13.08,160.09A3.15,3.15,0,0,0,9,158.48H9a3.17,3.17,0,0,0-1.71,4.15Z"/><path class="cls-5" d="M7.32,162.69a3.12,3.12,0,0,1-.15-.39A2.7,2.7,0,0,1,7,161.07a3.15,3.15,0,0,1,.81-1.83,3.2,3.2,0,0,1,5.31.91c.54,1.17,1.12,2.45,1.75,3.84l4.31,9.53,26.56,58.77-.15-.1,35.41.25,19.19.13,9.88.08h2.5a7.7,7.7,0,0,1,2.53.3,7,7,0,0,1,4,3.13,7.52,7.52,0,0,1,.59,1.29c.07.22.14.45.19.68l0,.17c-.36.43-.11.12-.19.21H41l0-.08L16.53,183.54l-6.8-15.38-1.79-4.09-.45-1-.15-.35s.06.11.17.34.26.58.47,1l1.83,4,6.91,15.34,24.51,54.75-.14-.08h78.66c-.07.09.19-.21-.15.21l0-.17a5.76,5.76,0,0,0-.19-.68,6.34,6.34,0,0,0-.55-1.22,6.57,6.57,0,0,0-3.77-3,7.4,7.4,0,0,0-2.43-.29h-2.5l-9.89-.08L81,232.77l-35.4-.27h-.1l0-.1L19.08,173.59l-4.28-9.53-1.72-3.85A3.1,3.1,0,0,0,9,158.55a3,3,0,0,0-1.07.75,3.13,3.13,0,0,0-.73,3C7.25,162.43,7.29,162.56,7.32,162.69Z"/><path class="cls-5" d="M45.61,232.34a12.7,12.7,0,0,1-2.2,2.85,33.72,33.72,0,0,1-2.47,2.6A12.68,12.68,0,0,1,43.15,235,30.36,30.36,0,0,1,45.61,232.34Z"/><path class="cls-5" d="M49.26,234.55a.47.47,0,0,1,.24-.07,1.06,1.06,0,0,1,.63.25,1.15,1.15,0,0,1,.39,1,1.13,1.13,0,0,1-2,.42,1.08,1.08,0,0,1,0-1,1,1,0,0,1,.47-.49c.15-.06.24,0,.24,0a1.34,1.34,0,0,0-.48.61,1,1,0,0,0,0,.76.84.84,0,0,0,1.17.12.87.87,0,0,0,.28-.42.88.88,0,0,0-.25-.72C49.62,234.55,49.26,234.61,49.26,234.55Z"/><path class="cls-5" d="M52.87,234.55a.42.42,0,0,1,.24-.07,1,1,0,0,1,.62.25,1.05,1.05,0,0,1-.93,1.84,1.18,1.18,0,0,1-.72-.47,1.14,1.14,0,0,1,0-1,1,1,0,0,1,.48-.49c.15-.06.24,0,.24,0a1.33,1.33,0,0,0-.49.61.92.92,0,0,0,.06.76.84.84,0,0,0,1.17.12.87.87,0,0,0,.28-.42,1,1,0,0,0-.25-.72C53.23,234.55,52.87,234.61,52.87,234.55Z"/></g></g></g></svg>