<svg xmlns="http://www.w3.org/2000/svg" viewBox="0 0 448.26 347.56"><defs><style>.cls-1{isolation:isolate;}.cls-2{fill:#262f5f;}.cls-3{fill:#004b93;}.cls-4{fill:#c7ddf3;}.cls-5{fill:#211f44;}.cls-6{fill:#739cd2;}.cls-7{opacity:0.25;}.cls-8{fill:#fff;}.cls-9{opacity:0.5;mix-blend-mode:multiply;}.cls-10{fill:#304982;}</style></defs><title>dibujo 6</title><g class="cls-1"><g id="Capa_2" data-name="Capa 2"><g id="Esquema"><rect class="cls-2" y="340.58" width="448.26" height="6.97"/><rect class="cls-3" x="54.82" y="110.02" width="339.8" height="210.16" rx="46.06" ry="46.06"/><rect class="cls-4" x="64.61" y="120.99" width="320.22" height="186.44"/><rect class="cls-5" x="64.61" y="120.99" width="4.54" height="186.44"/><rect class="cls-5" x="380.29" y="120.99" width="4.54" height="186.44"/><rect class="cls-5" x="222.45" y="-36.85" width="4.54" height="320.22" transform="translate(101.45 347.98) rotate(-90)"/><path class="cls-3" d="M25.15,322.45H424.29a0,0,0,0,1,0,0v0a18.13,18.13,0,0,1-18.13,18.13H43.28a18.13,18.13,0,0,1-18.13-18.13v0a0,0,0,0,1,0,0Z"/><path class="cls-6" d="M47.33,318.45H402.11a4,4,0,0,1,4,4v0a0,0,0,0,1,0,0H43.32a0,0,0,0,1,0,0v0a4,4,0,0,1,4-4Z"/><g class="cls-7"><polygon class="cls-8" points="69.15 307.43 380.29 125.54 380.29 307.43 69.15 307.43"/></g><rect class="cls-4" x="104.81" y="181.31" width="61.31" height="65.42" rx="30.66" ry="30.66"/><path class="cls-6" d="M200,283.54a1.3,1.3,0,0,1-.54-.13c-3-1.49-6.44-3.24-9.8-5.09a1.21,1.21,0,1,1,1.17-2.12c3.32,1.83,6.75,3.56,9.71,5a1.21,1.21,0,0,1-.54,2.3Zm-22.11-13a1.17,1.17,0,0,1-.73-.25,55.4,55.4,0,0,1-8.24-7.62,1.21,1.21,0,0,1,1.83-1.59,53.16,53.16,0,0,0,7.88,7.29,1.21,1.21,0,0,1-.74,2.17Zm2.3-5.94a1.21,1.21,0,0,1-.26-2.4,27.66,27.66,0,0,0,3.64-1.05,24.94,24.94,0,0,0,5.92-3.13,1.21,1.21,0,1,1,1.4,2,27.32,27.32,0,0,1-6.49,3.43,29.33,29.33,0,0,1-3.95,1.14Zm-14.53-.28a1.43,1.43,0,0,1-.29,0,39.21,39.21,0,0,1-10.49-4.21,1.21,1.21,0,1,1,1.22-2.1,36.49,36.49,0,0,0,9.84,4,1.21,1.21,0,0,1-.28,2.39Zm-21.19-13.62a1.2,1.2,0,0,1-.94-.45,48.92,48.92,0,0,1-6-9.5,1.21,1.21,0,0,1,.56-1.62,1.2,1.2,0,0,1,1.62.56,46.28,46.28,0,0,0,5.71,9,1.22,1.22,0,0,1-.18,1.71A1.2,1.2,0,0,1,144.48,250.75Zm18-.17a1.22,1.22,0,0,1-1.16-.86,33.15,33.15,0,0,1-1.4-9.61c0-.55,0-1.12,0-1.67a1.21,1.21,0,1,1,2.42.12c0,.51,0,1,0,1.55a30.66,30.66,0,0,0,1.3,8.9,1.2,1.2,0,0,1-.8,1.51A1.13,1.13,0,0,1,162.51,250.58Zm37-1.43A1.17,1.17,0,0,1,199,249a1.21,1.21,0,0,1-.58-1.61,23.06,23.06,0,0,0,2.23-9.75v-.36a1.22,1.22,0,0,1,1.19-1.24h0a1.21,1.21,0,0,1,1.21,1.19c0,.14,0,.27,0,.41a25.3,25.3,0,0,1-2.47,10.77A1.21,1.21,0,0,1,199.5,249.15ZM134,227.61a1.22,1.22,0,0,1-1.19-1,66.19,66.19,0,0,1-1.26-11.11,1.22,1.22,0,0,1,1.18-1.25,1.2,1.2,0,0,1,1.24,1.17,64.68,64.68,0,0,0,1.22,10.72,1.21,1.21,0,0,1-.95,1.42Zm31.43-1.76a1.14,1.14,0,0,1-.66-.2,1.21,1.21,0,0,1-.36-1.67,20,20,0,0,1,8.7-7.57,1.21,1.21,0,1,1,1,2.22,17.47,17.47,0,0,0-7.64,6.67A1.23,1.23,0,0,1,165.43,225.85Zm31.23-.73a1.22,1.22,0,0,1-.92-.43,22,22,0,0,0-8.34-6.07,1.21,1.21,0,1,1,.91-2.24,24.38,24.38,0,0,1,9.28,6.74,1.22,1.22,0,0,1-.14,1.71A1.24,1.24,0,0,1,196.66,225.12Zm-62.87-23h-.19a1.22,1.22,0,0,1-1-1.39A105.06,105.06,0,0,1,135,189.82a1.21,1.21,0,0,1,2.34.64A100.06,100.06,0,0,0,135,201.07,1.21,1.21,0,0,1,133.79,202.09Zm7-24.64a1.31,1.31,0,0,1-.43-.08,1.22,1.22,0,0,1-.7-1.57c1.23-3.19,2.61-6.53,4.23-10.21a1.21,1.21,0,0,1,2.22,1c-1.6,3.65-3,6.95-4.19,10.11A1.21,1.21,0,0,1,140.74,177.45ZM151.08,154a1.23,1.23,0,0,1-.52-.12,1.22,1.22,0,0,1-.57-1.62c1.21-2.55,2.46-5.14,3.66-7.64l1.1-2.27a1.21,1.21,0,1,1,2.18,1l-1.09,2.27c-1.21,2.5-2.45,5.09-3.66,7.63A1.22,1.22,0,0,1,151.08,154Zm11-23.17a1.34,1.34,0,0,1-.51-.11,1.21,1.21,0,0,1-.59-1.61l.76-1.68c-1.38.12-2.76.2-4.13.26a1.21,1.21,0,1,1-.11-2.42c1.78-.08,3.58-.2,5.38-.38.9-2,1.73-3.94,2.52-5.8a1.21,1.21,0,1,1,2.23.94q-.93,2.2-2,4.56l2.65-.36a1.21,1.21,0,0,1,.35,2.4c-1.38.2-2.76.38-4.15.53-.43,1-.88,2-1.34,3A1.2,1.2,0,0,1,162.11,130.81ZM143,127.19h-.14a87.9,87.9,0,0,1-11-1.93,1.21,1.21,0,1,1,.57-2.35,88.71,88.71,0,0,0,10.67,1.87,1.21,1.21,0,0,1-.13,2.42Zm39.89-3.67a1.23,1.23,0,0,1-1.17-.88,1.21,1.21,0,0,1,.84-1.5c3.45-1,6.92-2.15,10.31-3.46a1.2,1.2,0,0,1,1.57.69,1.22,1.22,0,0,1-.69,1.57c-3.46,1.34-7,2.53-10.53,3.53A1.26,1.26,0,0,1,182.84,123.52Zm-64.58-2.93a1.24,1.24,0,0,1-.49-.11,73.59,73.59,0,0,1-9.81-5.34,1.21,1.21,0,1,1,1.32-2,71.61,71.61,0,0,0,9.48,5.17,1.21,1.21,0,0,1-.5,2.32Zm88.32-6.68a1.21,1.21,0,0,1-.57-2.28c3-1.62,6.13-3.41,9.45-5.46a1.21,1.21,0,1,1,1.27,2.06c-3.36,2.08-6.49,3.9-9.58,5.54A1.17,1.17,0,0,1,206.58,113.91Zm-34.78-6.84a1.34,1.34,0,0,1-.39-.07,1.22,1.22,0,0,1-.76-1.54c1.22-3.56,2.3-7.07,3.19-10.43a1.21,1.21,0,1,1,2.34.62c-.9,3.42-2,7-3.23,10.6A1.22,1.22,0,0,1,171.8,107.07Zm-74.65-.83a1.23,1.23,0,0,1-.84-.34,78.09,78.09,0,0,1-7.47-8.3,1.22,1.22,0,0,1,1.92-1.49,75.32,75.32,0,0,0,7.23,8,1.22,1.22,0,0,1-.84,2.09Zm131.18-5.91a1.2,1.2,0,0,1-1-.52,1.22,1.22,0,0,1,.3-1.69c2.66-1.84,5.35-3.73,8-5.57l1-.74a1.22,1.22,0,0,1,1.69.29,1.21,1.21,0,0,1-.29,1.69l-1,.74c-2.6,1.84-5.3,3.74-8,5.59A1.23,1.23,0,0,1,228.33,100.33ZM82,85.67A1.2,1.2,0,0,1,80.93,85a67.88,67.88,0,0,1-4.11-10.4,1.21,1.21,0,1,1,2.32-.7,65.54,65.54,0,0,0,4,10,1.21,1.21,0,0,1-.55,1.62A1.32,1.32,0,0,1,82,85.67Zm167.35,0a1.21,1.21,0,0,1-.67-2.22c3.36-2.25,6.4-4.19,9.31-6a1.22,1.22,0,0,1,1.26,2.08c-2.88,1.73-5.9,3.66-9.22,5.88A1.21,1.21,0,0,1,249.37,85.67ZM178,82.21h-.18a1.23,1.23,0,0,1-1-1.38c.11-.73.21-1.48.3-2.21A80.8,80.8,0,0,0,177.6,70a1.21,1.21,0,0,1,1.21-1.2h0a1.22,1.22,0,0,1,1.2,1.23,83,83,0,0,1-.58,8.84c-.09.75-.19,1.51-.3,2.27A1.2,1.2,0,0,1,178,82.21Zm93.59-9.39a1.21,1.21,0,0,1-.51-2.31,103.71,103.71,0,0,1,10.32-4.13,1.21,1.21,0,1,1,.78,2.29,105,105,0,0,0-10.09,4A1.25,1.25,0,0,1,271.55,72.82Zm60.12-3a1.17,1.17,0,0,1-.55-.13,47.26,47.26,0,0,0-10-3.78,1.21,1.21,0,0,1-.87-1.48,1.2,1.2,0,0,1,1.47-.87,50.57,50.57,0,0,1,10.52,4,1.21,1.21,0,0,1-.56,2.29ZM296,65.15a1.21,1.21,0,0,1-.2-2.41,73,73,0,0,1,11.13-1,1.22,1.22,0,0,1,0,2.43,70.69,70.69,0,0,0-10.76.93ZM75.45,61.07a1.21,1.21,0,0,1-1.21-1.15c0-1-.08-2-.08-3,0-1.82.09-3.66.26-5.46.09-.93.21-1.87.35-2.8a1.21,1.21,0,0,1,2.4.37c-.14.89-.25,1.78-.34,2.66-.16,1.73-.24,3.49-.24,5.23,0,.94,0,1.89.07,2.83a1.21,1.21,0,0,1-1.15,1.27Zm102.24-4.42a1.21,1.21,0,0,1-1.19-1,81.71,81.71,0,0,0-2.45-10.55,1.23,1.23,0,0,1,.81-1.52,1.21,1.21,0,0,1,1.51.81,84,84,0,0,1,2.52,10.86,1.21,1.21,0,0,1-1,1.4ZM80.26,36.14a1.16,1.16,0,0,1-.51-.12,1.21,1.21,0,0,1-.59-1.61,58.31,58.31,0,0,1,5.73-9.64,1.21,1.21,0,1,1,2,1.43,55.9,55.9,0,0,0-5.48,9.24A1.22,1.22,0,0,1,80.26,36.14Zm89.41-3.74a1.22,1.22,0,0,1-1.07-.65,64.17,64.17,0,0,0-5.82-9.07,1.21,1.21,0,1,1,1.92-1.48,65.61,65.61,0,0,1,6,9.42,1.21,1.21,0,0,1-.5,1.64A1.3,1.3,0,0,1,169.67,32.4ZM95.9,16.06a1.21,1.21,0,0,1-.77-2.15,57.8,57.8,0,0,1,9.29-6.27,1.21,1.21,0,1,1,1.15,2.14,54.68,54.68,0,0,0-8.9,6A1.2,1.2,0,0,1,95.9,16.06Zm57.46-3.18a1.2,1.2,0,0,1-.72-.24,45.35,45.35,0,0,0-9.27-5.3,1.21,1.21,0,0,1,.94-2.23,47.55,47.55,0,0,1,9.77,5.58,1.22,1.22,0,0,1-.72,2.19Zm-34.65-8a1.21,1.21,0,0,1-.23-2.4,45.28,45.28,0,0,1,8.85-.9c.8,0,1.6,0,2.38.07A1.22,1.22,0,0,1,130.86,3a1.21,1.21,0,0,1-1.28,1.14c-.74,0-1.5-.06-2.25-.06a42.1,42.1,0,0,0-8.38.85Z"/><polygon class="cls-3" points="422 0 401.83 65.52 398.6 76.02 389.38 68.24 365.29 47.92 422 0"/><polygon class="cls-3" points="422 0 351.91 40.48 320.03 29.91 422 0"/><polygon class="cls-5" points="422 0 365.29 47.92 354.39 69.71 351.91 40.48 422 0"/><g class="cls-9"><rect class="cls-6" x="69.15" y="125.54" width="311.13" height="11.69"/></g><circle class="cls-2" cx="77.46" cy="131.6" r="2.29" transform="translate(-68.42 176.75) rotate(-76.72)"/><circle class="cls-2" cx="84.45" cy="131.6" r="2.29"/><circle class="cls-2" cx="91.45" cy="131.6" r="2.29"/><g class="cls-9"><rect class="cls-10" x="247.03" y="169.08" width="103.67" height="122.2"/></g><rect class="cls-8" x="239.73" y="146.83" width="103.67" height="138.23"/><path class="cls-10" d="M272.89,187.85H253.57a1.35,1.35,0,0,1-1.35-1.35V167.18a1.36,1.36,0,0,1,1.35-1.35h19.32a1.35,1.35,0,0,1,1.35,1.35V186.5A1.34,1.34,0,0,1,272.89,187.85Zm-18-2.71h16.6v-16.6h-16.6Z"/><path class="cls-10" d="M272.89,227H253.57a1.35,1.35,0,0,1-1.35-1.35V206.28a1.36,1.36,0,0,1,1.35-1.35h19.32a1.35,1.35,0,0,1,1.35,1.35V225.6A1.34,1.34,0,0,1,272.89,227Zm-18-2.71h16.6v-16.6h-16.6Z"/><path class="cls-10" d="M272.89,266.05H253.57a1.35,1.35,0,0,1-1.35-1.35V245.38a1.36,1.36,0,0,1,1.35-1.35h19.32a1.35,1.35,0,0,1,1.35,1.35V264.7A1.34,1.34,0,0,1,272.89,266.05Zm-18-2.71h16.6v-16.6h-16.6Z"/><path class="cls-10" d="M325.84,173.82H283.78a1.36,1.36,0,1,1,0-2.71h42.06a1.36,1.36,0,1,1,0,2.71Z"/><path class="cls-10" d="M332,182.57H283.78a1.36,1.36,0,1,1,0-2.71H332a1.36,1.36,0,0,1,0,2.71Z"/><path class="cls-10" d="M315.42,209.84H283.78a1.36,1.36,0,1,1,0-2.71h31.64a1.36,1.36,0,1,1,0,2.71Z"/><path class="cls-10" d="M328.82,217.3h-45a1.36,1.36,0,1,1,0-2.71h45a1.36,1.36,0,1,1,0,2.71Z"/><path class="cls-10" d="M328.82,260.81h-45a1.36,1.36,0,1,1,0-2.71h45a1.36,1.36,0,1,1,0,2.71Z"/><path class="cls-10" d="M309.74,252h-26a1.36,1.36,0,1,1,0-2.71h26a1.36,1.36,0,1,1,0,2.71Z"/><path class="cls-10" d="M302.15,224.75H283.78a1.36,1.36,0,1,1,0-2.71h18.37a1.36,1.36,0,1,1,0,2.71Z"/><path class="cls-10" d="M261.91,183.48h0a1.36,1.36,0,0,1-1.17-.74l-2.37-4.61a1.36,1.36,0,0,1,2.42-1.23l1.22,2.39,4.84-8.41a1.36,1.36,0,0,1,2.35,1.36l-6.08,10.56A1.37,1.37,0,0,1,261.91,183.48Z"/><path class="cls-10" d="M261.91,222.58h0a1.36,1.36,0,0,1-1.17-.74l-2.37-4.61a1.36,1.36,0,0,1,2.42-1.23l1.22,2.39,4.84-8.41a1.36,1.36,0,0,1,2.35,1.36l-6.08,10.56A1.37,1.37,0,0,1,261.91,222.58Z"/></g></g></g></svg>