<svg xmlns="http://www.w3.org/2000/svg" viewBox="0 0 326.68 265.9"><defs><style>.cls-1{isolation:isolate;}.cls-2{fill:#fff;}.cls-3{fill:#004b93;}.cls-4{fill:#bae2ff;}.cls-5{fill:#e3eeff;}.cls-6{opacity:0.5;mix-blend-mode:darken;}.cls-7{fill:#00b7ff;}.cls-8{fill:#0e0e0e;}.cls-9{fill:#2475b3;}.cls-10{fill:#3f9ee6;}.cls-11{fill:#61b3f2;}.cls-12{fill:#1a5380;}.cls-13{fill:#ccc;}.cls-14{fill:gray;}.cls-15{fill:#666;}.cls-16{fill:#f7af0c;}.cls-17{fill:#cc840a;}.cls-18{fill:#803d00;}.cls-19{fill:#e6950b;}</style></defs><title>dibujo carpeta</title><g class="cls-1"><g id="Capa_2" data-name="Capa 2"><g id="Información"><path class="cls-2" d="M136.36,53.06V40.34A10.46,10.46,0,0,0,125.9,29.88H14.55A10.46,10.46,0,0,0,4.09,40.34V265.9h288V53.06Z"/><path class="cls-3" d="M137.29,53.06V40.34a10.46,10.46,0,0,0-10.46-10.46H15.47A10.46,10.46,0,0,0,5,40.34V265.9h288V53.06Z"/><polygon class="cls-4" points="14.66 61.85 14.66 265.9 281.49 265.9 281.49 60.85 14.66 61.85"/><path class="cls-2" d="M306.89,53.07H43.29a10,10,0,0,0-10.17,8.72V265.9H320.81V67C320.88,59.64,314.29,53.07,306.89,53.07Z"/><rect class="cls-4" x="104.46" y="15.19" width="163.83" height="124.5" transform="translate(-0.22 0.52) rotate(-0.16)"/><rect class="cls-2" x="108.56" y="19.25" width="155.45" height="114.46" transform="translate(-0.21 0.52) rotate(-0.16)"/><polygon class="cls-5" points="121.83 124.7 221.72 124.42 167.1 72.03 121.83 124.7"/><polygon class="cls-5" points="167.25 124.58 251.18 124.34 205.64 81.03 167.25 124.58"/><circle class="cls-5" cx="198.3" cy="60.37" r="11.57"/><rect class="cls-4" x="137.61" y="0.24" width="151.88" height="132.08" transform="translate(-0.21 0.68) rotate(-0.18)"/><rect class="cls-2" x="141.84" y="4.55" width="143.25" height="121.42" transform="translate(-0.21 0.69) rotate(-0.18)"/><path class="cls-3" d="M308.16,53.07H44.56a10,10,0,0,0-10.18,8.72V265.9h287.7V67C322.15,59.64,315.55,53.07,308.16,53.07Z"/><polygon class="cls-2" points="33.12 265.9 4.09 265.9 4.09 265.9 33.12 265.9 33.12 265.9"/><polygon class="cls-6" points="4.09 139.11 14.66 146.01 29.2 146.01 33.12 148.76 33.12 146.19 320.81 146.19 320.81 139.11 4.09 139.11"/><rect class="cls-3" y="105.36" width="326.68" height="36.91"/><rect class="cls-7" x="29.41" y="105.36" width="297.27" height="36.91"/><polygon class="cls-8" points="111.59 105.36 111.59 142.26 137.42 142.26 119.31 105.36 111.59 105.36"/><path class="cls-9" d="M112.38,105.37h-6.86v36.89h6.86c2.25,0,4.28-2,5.74-5.43a32.82,32.82,0,0,0,2.4-13.06C120.52,113.64,116.88,105.37,112.38,105.37Zm-.65,18.4c0-3.08,1-5.59,2.29-6,1.28.4,2.28,2.91,2.28,6s-1,5.68-2.28,6.08C112.73,129.45,111.73,126.94,111.73,123.77Z"/><path class="cls-10" d="M108.51,105.37h-3v36.89h3c2.35,0,4.48-2,6-5.43a31.55,31.55,0,0,0,2.5-13.06C117,113.64,113.21,105.37,108.51,105.37Zm1.94,24.48c-1.35-.4-2.39-2.91-2.39-6.08s1-5.59,2.39-6c1.34.4,3.28,2.91,3.28,6S111.79,129.45,110.45,129.85Z"/><path class="cls-9" d="M109.09,105.37h-6.86v36.89h6.86c2.25,0,4.28-2,5.75-5.43a32.83,32.83,0,0,0,2.39-13.06C117.23,113.64,113.59,105.37,109.09,105.37Zm-.64,18.4c0-3.08,1-5.59,2.28-6,1.29.4,2.29,2.91,2.29,6s-1,5.68-2.29,6.08C109.45,129.45,108.45,126.94,108.45,123.77Z"/><path class="cls-11" d="M105.22,105.37h-3v36.89h3c2.35,0,4.48-2,6-5.43a31.54,31.54,0,0,0,2.51-13.06C113.74,113.64,109.93,105.37,105.22,105.37Zm2.84,24.48c-1.35-.4-2.39-2.91-2.39-6.08s1-5.59,2.39-6c1.34.4,2.39,2.91,2.39,6S109.4,129.45,108.06,129.85Z"/><path class="cls-12" d="M109.12,142.5h0a.25.25,0,0,1-.23-.25.24.24,0,0,1,.25-.23,5.25,5.25,0,0,0,3.44-1.66c1.93-1.87,4.23-6.1,4.23-15.7,0-17.52-7.64-19-7.72-19a.25.25,0,0,1-.2-.28.24.24,0,0,1,.28-.19c.09,0,2.1.38,4.11,3,1.83,2.38,4,7.18,4,16.51,0,9.79-2.39,14.14-4.4,16.06A5.64,5.64,0,0,1,109.12,142.5Z"/><path class="cls-13" d="M108.06,129.36l-.89.24c.08.08.08.08,0,.08a31.65,31.65,0,0,0-22.7,30.24v30.81H74.1V159.92a42,42,0,0,1,32.75-40.86,6.76,6.76,0,0,1,1.21-.32C111.06,118.09,111.31,128.87,108.06,129.36Z"/><path class="cls-13" d="M120.34,118.19v10.32a31.84,31.84,0,0,1,27,24.61,3.59,3.59,0,0,1,.16.81,17.11,17.11,0,0,1,.33,2.11,31.61,31.61,0,0,1,.24,3.89v30.81h10.3V159.93A42.09,42.09,0,0,0,120.34,118.19Z"/><path class="cls-14" d="M108.3,126.32C84,130.58,80.84,157.07,80.84,157.07v33.67h3.65V159.93a31.74,31.74,0,0,1,23.56-30.55c1-.33,1.68-3.36,1.68-3.36Z"/><path class="cls-14" d="M120.34,126.32v2.19a31.84,31.84,0,0,1,27,24.61C146.81,145.55,140.53,129,120.34,126.32Z"/><path class="cls-15" d="M108.06,129.36l-.89.24a11,11,0,0,0,1.73-5.2c.16-3.16-.92-5.3-2.05-5.34a6.76,6.76,0,0,1,1.21-.32C111.06,118.09,111.31,128.87,108.06,129.36Z"/><rect class="cls-16" x="65.19" y="182.33" width="102.22" height="83.56"/><path class="cls-17" d="M103.09,215.58a12.77,12.77,0,0,0,7.46,11.62v21.52a5.26,5.26,0,0,0,4.14,5.16h.24a2.79,2.79,0,0,0,.81.08,5.25,5.25,0,0,0,5.19-5.24V227.2a12.88,12.88,0,0,0,7.46-11.62,12.66,12.66,0,0,0-12.65-12.69,3.51,3.51,0,0,0-1,.09A12.57,12.57,0,0,0,103.09,215.58Z"/><path class="cls-18" d="M103.09,215.58a12.77,12.77,0,0,0,7.46,11.62v21.52a5.26,5.26,0,0,0,4.14,5.16h.24a5.26,5.26,0,0,0,4.13-5.16V227.2a12.86,12.86,0,0,0,7.46-11.62A12.58,12.58,0,0,0,114.77,203,12.57,12.57,0,0,0,103.09,215.58Z"/><path class="cls-19" d="M135,265.9h32.44V182.33h-9S160.81,244,135,265.9Z"/></g></g></g></svg>