<svg xmlns="http://www.w3.org/2000/svg" viewBox="0 0 411.44 387.19"><defs><style>.cls-1{fill:#ffbe9d;}.cls-2{fill:#e63429;}.cls-3{fill:#fe875e;}.cls-4{fill:#ffd444;}.cls-5{fill:#f48c7f;}.cls-6{fill:#004b93;}.cls-7{fill:#00b7ff;}.cls-8{fill:#eb996e;}.cls-9{fill:#fff;}.cls-10{fill:#f7a491;}.cls-11{fill:#007e48;}</style></defs><title>dibujo 1</title><g id="Capa_2" data-name="Capa 2"><g id="Esquema"><path class="cls-1" d="M331.59,294.4a5.58,5.58,0,0,1,2.66.85,46.84,46.84,0,0,0,4.86-2.2s13.28-6.56,14-6.94l9.59-12.05,7.38,3.4s-10.77,12.82-11.46,13.39-19.71,7.24-21.37,7.88c0,0-1.67,1.53-2.75,2.45a11.32,11.32,0,0,1-2.87,1.49,11.69,11.69,0,0,1-2.92,1c-1.45.32-.25-.67-.25-.67s2.57-1.08,2.44-1.28-1.46.53-3.06.89l-1.19.27c-1,.21-1.41-.35-.43-.74a10.65,10.65,0,0,1,1.38-.45,7.18,7.18,0,0,0,1.26-.49,10.1,10.1,0,0,0,1.3-.52s.06-.2-.38-.12a22.17,22.17,0,0,1-2.39.67c-.45.05-1.38.22-1.38.22s-1.64.16-1.66-.08c0-.5,1-.78,1.62-.77a6.31,6.31,0,0,1,1.37-.34s1.91-.76,1.8-1a14,14,0,0,0-2.42.14c-1.3.09-2.24.09-2.31-.16-.11-.4.92-.55.92-.55s.91-.13,1.21-.2,1.38-.4,1.38-.4,3.51-1.29,3.38-1.55-.7-.8-.95-.8-.69.25-.94.25-.78-.05-.82-.36,1.34-1,1.34-1A3.87,3.87,0,0,1,331.59,294.4Z"/><path class="cls-2" d="M356,281.53s2.39,2.17,3.38,2.88c.83.6,4.86,2.54,4.86,2.54s4-6.14,5.76-9.22c2.13-3.73,3.6-9.28,3.09-9.43a7.32,7.32,0,0,0-5.14.14C361.76,271.28,356,281.53,356,281.53Z"/><path class="cls-3" d="M333.91,297.61a2.31,2.31,0,0,1-2.62-1C331.18,297.75,332.93,298.33,333.91,297.61Z"/><path d="M36.76,254.56a21.69,21.69,0,0,0-2-10.43c-1.37-2.87-4.76-4.49-7.85-4.49-9.81,0-11.06,13-17.31,18-1.91,1.54-4,2.79-5.85,4.44-6.67,6.11-3.67,17.43,2.46,22.79,4.25,3.72,10.93,5.83,16.17,2.92A16.52,16.52,0,0,0,28.7,281c2.1-3.92,3.45-8.45,4.94-12.63A47.39,47.39,0,0,0,36.76,254.56Z"/><path class="cls-4" d="M38.36,271.86c-3.06-9.3-7.11-9.15-7.11-9.15l3.27,19.8c1.89-.52,4.36-1.67,6.25-2.2A84.7,84.7,0,0,0,38.36,271.86Z"/><path class="cls-5" d="M53.86,303.58,42.65,295s-1.13-8-2.64-15c-1.89.53-3.6,2-5.49,2.53l2.85,15.85,14.69,7.58,4.15,5.34.94-5.48Z"/><path class="cls-6" d="M156,293.17a19.27,19.27,0,0,1,9.57,2.52,10.25,10.25,0,0,0,1.15.56,13.19,13.19,0,0,0,18-12.33V238.13H139a13.19,13.19,0,0,1-12.33-18,11.35,11.35,0,0,1,.56-1.16,19.42,19.42,0,0,0-17.82-29,19.48,19.48,0,0,0-18.48,18.84,19.26,19.26,0,0,0,2.38,9.88,11.7,11.7,0,0,1,.55,1.18,13.42,13.42,0,0,1-12.58,18.26H35.88V342.47A44.58,44.58,0,0,0,80.45,387H184.79V341.4A13.28,13.28,0,0,0,166.67,329a8.91,8.91,0,0,0-1.16.56A19.42,19.42,0,1,1,156,293.17Z"/><path class="cls-7" d="M255.27,264.83a19.4,19.4,0,0,1,3-9.44,11,11,0,0,0,.61-1.13c3.94-8.44-2.17-18.16-11.47-18.6l-45.74-2.14-2.14,45.75a13.18,13.18,0,0,1-18.59,11.47,10,10,0,0,1-1.13-.62A19.41,19.41,0,1,0,178,324c.38-.18.78-.35,1.2-.5a13.43,13.43,0,0,1,17.66,13.42l-2.12,45.35,104.22,4.87a44.56,44.56,0,0,0,46.6-42.43l4.87-104.23-45.59-2.13a13.27,13.27,0,0,0-13.25,17.52,9.09,9.09,0,0,0,.5,1.18,19.42,19.42,0,1,1-36.77,7.78Z"/><path class="cls-7" d="M127.82,192.8a19.38,19.38,0,0,1-2,9.69,9.09,9.09,0,0,0-.5,1.18,13.19,13.19,0,0,0,13.21,17.4l45.74-2.3L181.93,173a13.18,13.18,0,0,1,17.4-13.21,9.73,9.73,0,0,1,1.18.5,19.43,19.43,0,0,0,28-19.25,19.42,19.42,0,0,0-29.49-14.65,11.32,11.32,0,0,1-1.15.61A13.41,13.41,0,0,1,179,115.39l-2.28-45.34L72.54,75.29A44.56,44.56,0,0,0,30.27,122l5.24,104.21L81.09,224a13.27,13.27,0,0,0,11.5-18.72A11,11,0,0,0,92,204.1a19.42,19.42,0,1,1,35.84-11.3Z"/><path class="cls-6" d="M221.42,167.56a19.27,19.27,0,0,1-9.57-2.52,10.25,10.25,0,0,0-1.15-.56,13.19,13.19,0,0,0-18,12.33V222.6h45.79a13.19,13.19,0,0,1,12.33,18,11.35,11.35,0,0,1-.56,1.16,19.21,19.21,0,0,0-2.52,9.56A19.41,19.41,0,1,0,284.14,242a11.7,11.7,0,0,1-.55-1.18,13.42,13.42,0,0,1,12.58-18.26h45.4V118.26A44.58,44.58,0,0,0,297,73.69H192.66v45.64a13.28,13.28,0,0,0,18.12,12.43,10.42,10.42,0,0,0,1.16-.56,19.42,19.42,0,1,1,9.48,36.36Z"/><path class="cls-1" d="M6.08,369.62S5.39,374.43,4.2,376a12.3,12.3,0,0,0-1.61,2.12,6.21,6.21,0,0,0,.22,4.84c.28.62,0,.62.62.82a3.94,3.94,0,0,0,4.74-2.23,11.39,11.39,0,0,0,.93-4.1,14.87,14.87,0,0,1,1.55-6.58Z"/><path class="cls-1" d="M26.89,371.82s.43,5.42.08,7.18c-.18.94-1.22,2.89-.74,3.77a2.35,2.35,0,0,0,1,1.11l12.29.2c.67,0,.23-.42-.31-.82a25.35,25.35,0,0,0-4.42-2.45c-.19-.09-.86-.51-1.1-.66A8.76,8.76,0,0,1,32,378.59c-.89-1-1-5.75-1-5.75Z"/><path class="cls-7" d="M36.49,299.76s1.55,8.8.54,14.57-5.9,59.26-5.9,59.26l-5.41.3s-1.14-22.34-.94-25.45a49,49,0,0,1,1.81-8.3l-.54-18,6.84-23.7Z"/><path class="cls-7" d="M20.57,297.91s-4.27,6.43-5.28,11.76.74,21.7-1.21,28.68C13,342.13,9,348,8.4,352.84s-3,17.67-3,17.67l5.42,1.08L23.4,339.65l9.88-28.87,2.53-14.87Z"/><path class="cls-4" d="M24,261.29s-5.65-.36-7.88,2.08,5,21.75,5.36,24.86-2.07,11.37-2.07,11.37,13.27,2.68,17.06.16c0,0,.41-22.34,0-24.56S32.7,264,31.89,263.07,24,261.29,24,261.29Z"/><path class="cls-1" d="M25.9,253.73l-.08.45A43.24,43.24,0,0,1,24,261.29c-.8,1.5,2.71,6.29,6.08,5.7,1-.17-.85-4.39-.76-4.84l.64-3.22c.13-.68.26-1.36.39-2L31,253.6Z"/><path class="cls-8" d="M25.82,254.18l.08-.45L31,253.6l-.66,3.32c-.13.64-.26,1.33-.39,2a4.78,4.78,0,0,1-2.41-1.21A6.32,6.32,0,0,1,25.67,255Z"/><path class="cls-1" d="M29.3,242.22a4.53,4.53,0,0,0-3.87,1.66c-1.49,1.93-3.1,7.91.61,11.17s7.37-.43,7.91-4.34S34.7,242.08,29.3,242.22Z"/><path class="cls-1" d="M35.05,250.66c-.45.86-1.19,1.34-1.66,1.06s-.5-1.19-.06-2.05,1.19-1.34,1.66-1.07S35.49,249.79,35.05,250.66Z"/><path d="M29.57,241.58s-3.18,5.69-5.46,5.95-2.57,3.29-2.57,3.29.81-7,3.07-8.31A8.28,8.28,0,0,1,29.57,241.58Z"/><path d="M8.54,380.57a6,6,0,0,1-5.94-2.49c-.75,1.47-1.12,3.66-.57,4.86s1.91,1,3,1.08a2.92,2.92,0,0,0,2.68-1.65A9.62,9.62,0,0,0,8.54,380.57Z"/><path d="M33.7,380.15a11.06,11.06,0,0,1-7-.28c-.35,1-.81,2.22-.57,2.93.3.88.73,1.07,1.1,1.08,3,.08,10.87.19,13.14.22a.37.37,0,0,0,.28-.61C40.1,382.82,33.94,380.3,33.7,380.15Z"/><path class="cls-1" d="M24.71,249c.19,1-.19,1.94-.83,2.07s-1.32-.58-1.5-1.59.18-1.94.83-2.07S24.53,248,24.71,249Z"/><path class="cls-9" d="M28.43,252.46l2.87.13a1.26,1.26,0,0,1-1.38,1.07C28.38,253.63,28.43,252.46,28.43,252.46Z"/><path class="cls-2" d="M273.34,23.44c.36,0,1.34.34,2.77,3,1.83,3.46,4.51,13.91,4.51,13.91l-8,3-1-2.18L269.92,24.4S273.24,23.43,273.34,23.44Z"/><path class="cls-2" d="M262.79,21.93a49,49,0,0,1,10.55,1.51s1.93,16.56-1.73,29.14c-.82,2.81.68,11.67.68,11.67l-23.66-.31s2.8-21.42,1.74-24.88-1.08-15.51-1.08-15.51l5.32-.92A54.62,54.62,0,0,1,262.79,21.93Z"/><path class="cls-10" d="M260,95s.52,6,1.49,7.71,0,4.52-.11,4.91-2,1-5.16.61-3.09-1.06-2.84-2.23,1.93-2.67,2-3.79a29.17,29.17,0,0,0-1-5.13Z"/><path class="cls-4" d="M269.62,59.26s16.33-.9,20,1.31-2.6,13-2.6,13-11.36-.52-33.62.76c-5.27.31-5.73-13.74-4.74-14.9S269.62,59.26,269.62,59.26Z"/><path d="M255.86,108.68c-3.24-.34-2.84-1.93-2.58-3.14a10.76,10.76,0,0,1,1.65-2.48,5.49,5.49,0,0,0,2.16,1c1.46.43,3.46-.42,4.73-1a15,15,0,0,1,.43,4.17C262.2,107.72,259.09,109,255.86,108.68Z"/><path class="cls-4" d="M257.64,71l3.89,29.51-7.5.93s-9.22-32.08-8.75-37,3.93-5.32,3.93-5.32S255.91,57.88,257.64,71Z"/><path class="cls-1" d="M249,25.39c2.22-.83,3.3,19.1,3.6,27.31a97,97,0,0,0,12.44-.13c.8-.06,2.65-.73,3.44-.84a8.31,8.31,0,0,1,2-.09A38.26,38.26,0,0,1,275,53.7c.44.46,1.61,1.6,1.41,2.1s-2.25-1.38-2.25-1.38l-1-.57c1.26,1.22,3.64,2.83,3.3,3.42s-2.49-1.06-4-2.18c1.31,1.19,2.95,3.32,2.57,3.65s-2.2-2.16-4.18-2.87c-.74-.26-1.47.46-2.05.55a4.23,4.23,0,0,1-1.5.08l-2.15-.61c-.73.07-.75.5-1.49.66s-2.27.38-3.36.64c-6.3,1.54-8.4,2.26-10.33,2.25C244.15,59.44,243.81,27.35,249,25.39Z"/><path class="cls-2" d="M244.84,44.1c-.42-8.4-.36-18.76,4.35-20.52,1.86-.7,5.14,3.49,4.55,20.69A35,35,0,0,1,244.84,44.1Z"/><path class="cls-10" d="M282,100.15a4.08,4.08,0,0,0,.52,3.48c1.17,1.39,6,2.75,6.67,3.5a2.14,2.14,0,0,1,.6,1.39l-13.66-.38.14-4.12.63-3Z"/><path d="M283.32,104.32s-3.51,1.42-5.21.58-1.64-1.07-2.13-.76-.67,4.18-.67,4.18l15.36.45c1.07,0,1.61-.81.74-1.48a11.17,11.17,0,0,0-1.67-1A47.82,47.82,0,0,0,283.32,104.32Z"/><path class="cls-4" d="M281.43,63.13c1.06-2.22,3.46-5.11,7.68-3.37,4,1.66,5.12,5.75,3.84,9.93s-9.64,28.76-9.93,32.14l-6.68,0s1.21-19.47,1.51-24.17A45.89,45.89,0,0,1,281.43,63.13Z"/><path d="M292.28,40.49H269.94a1.44,1.44,0,0,0-1.34.91l-6.88,16.83H249.4a.63.63,0,0,0-.62.63h0a.62.62,0,0,0,.62.62h35A2.44,2.44,0,0,0,286.68,58l6.93-15.48A1.46,1.46,0,0,0,292.28,40.49Z"/><path class="cls-9" d="M280.25,50.29a1.22,1.22,0,1,1-.92-1.6A1.3,1.3,0,0,1,280.25,50.29Z"/><path d="M268.1,1.71a15.41,15.41,0,0,1-2-.79,9.77,9.77,0,0,0-2.25-.85c-1.25-.19-3.39-.06-4.57,1.22-1.48,1.6-4.1.29-3.57,8.66.6,9.48,5.87,8.44,6,8.28l4.7-6.07s1.6,3.5,1.6,3.37S276.18,4.44,268.1,1.71Z"/><path class="cls-1" d="M264.1,18.93l.45,3.38s1,4.88-.29,5.82-5.58-6-5.58-6l.46-8.58Z"/><path class="cls-8" d="M259,16.37a9.72,9.72,0,0,0,5.49,5.43l-.38-2.87-5-5.34Z"/><path class="cls-1" d="M263.83,4.26A4.51,4.51,0,0,1,269,8.82a34.64,34.64,0,0,1-.38,4.35c-.61,3.9-3.27,7.35-5,7s-6.2-3.68-5.42-9.24C258.68,7.53,260.91,4.73,263.83,4.26Z"/><path class="cls-1" d="M259.42,11.63a1.32,1.32,0,1,1-2.54-.44,1.32,1.32,0,1,1,2.54.44Z"/><path d="M258.42,9.85s2.13.53,2.92-.84,3.62-4.33,7.22-3.1-3.17-3-3.45-3l-3.74,0s-2.67,2.19-2.76,2.43-.86,2.86-.86,2.86Z"/><path class="cls-9" d="M262.32,15.57l3.88.75a1.73,1.73,0,0,1-2.09,1.18C262,17.16,262.32,15.57,262.32,15.57Z"/><path class="cls-1" d="M196.7,285.65a4,4,0,0,0,.42,1,39.32,39.32,0,0,0,4,5.37l2.19-4.91s-.36-1.55-1-3.76C200.26,283.92,198.26,284.24,196.7,285.65Z"/><path class="cls-11" d="M209.22,281.38s-12.18,5.24-12.57,5.14-5-8-5.05-15.46c0-3.45,3.56-7.59,7.55-6.77,2,.41,2,1,5,5.29S209.22,281.38,209.22,281.38Z"/><path class="cls-1" d="M219.61,375.4l-.29,4.79c-.1.61-.52,2.11-.52,2.66,0,2.07,9.84-1.76,7.64-2.68-.2-.08-1.25-.71-1.31-1.42-.11-1.09-.36-3.29-.36-3.29Z"/><path d="M226.41,380.15s-2.31.63-3.49.79-2.75-1.18-3.58-.81-.89,4-.89,4,12.4,1,15.88,0C235.71,383.64,231.14,381.63,226.41,380.15Z"/><path class="cls-1" d="M199.47,375.4l-.29,4.79a25.39,25.39,0,0,0-.52,2.66c0,2.07,9.84-1.76,7.64-2.68-.2-.08-1.56-1.18-1.63-1.89-.1-1.09,0-2.82,0-2.82Z"/><path d="M206.27,380.15s-2.31.63-3.5.79-2.74-1.18-3.58-.81-1,4-1,4,12.46,1.18,16,0C215.55,383.59,211,381.63,206.27,380.15Z"/><path class="cls-1" d="M204.17,290.57a3.89,3.89,0,0,1,0-4.58l7-9.84.24-.66c.43-1.2,1.34-3.71,2.13-6.21v0c.25-.88.78-2.4,1.29-3.87.57-1.64,1.27-3.67,1.29-4l-.11-.31a27.38,27.38,0,0,1-.9-3.65c-.1-.54-.2-1.86.45-1.86,1,0,.53,1.32,1,2.14a21.22,21.22,0,0,0,.67-2.52,3.59,3.59,0,0,0,.05-.46l.16-2.35c0-.2-.18-1.62.54-1.62h0c.64.05.63,1.56.89,4.12.09-.29.17-.65.24-1a9.74,9.74,0,0,1,.21-1.36c-.13-.71-.05-1.84.71-1.73.38.05.35,1.62.35,1.62,0,.22,0,1.88,0,2.21.08-.56.39-2.94,1-2.94s.54.64.53,1.15c0,.3-.32,2.88-.34,3.18.24-.39.51-2.66.74-2.66,1,0,.62,3.22.26,4.06,0,.09-.06.26-.11.45a8.05,8.05,0,0,1-.82,2.41c-.43.73-1,1.76-1.3,2.39a3.9,3.9,0,0,0-.37,1.14c-.14.85-.37,2.33-.65,4.1-.16,1-.33,2.08-.51,3.21h0c0,.25-.22,1-.9,3.95a35.15,35.15,0,0,1-1.08,4.24c-.41.72-9.76,13.42-10.16,14l-.23.32Z"/><path class="cls-8" d="M218.61,260s-.7-1.8-2-1.8a1.45,1.45,0,0,1,1.3.22A2.5,2.5,0,0,1,218.61,260Z"/><path class="cls-1" d="M199.93,259.35l-.28,1.75a3.89,3.89,0,0,0,1.9,4c1.4.79,3.17,1.53,4.45,1.16,1.72-.5,1.05-2.43.76-3.1a3.73,3.73,0,0,1-.2-.56,16.14,16.14,0,0,1-.67-5.41c.15-.9-1-1.12-2.26-1.1A3.86,3.86,0,0,0,199.93,259.35Z"/><path class="cls-8" d="M201.19,258.62A17.52,17.52,0,0,0,206,260a9.07,9.07,0,0,1-.11-2.81c.15-.91-1-1.13-2.3-1.1-1.7.15-3.21.41-3.21.41l-.21,1.36A3.47,3.47,0,0,0,201.19,258.62Z"/><path class="cls-1" d="M196.15,246.59a3.88,3.88,0,0,0-.75,3.56c.68,2.42,2.18,6.49,4.17,7.43,2.88,1.36,7.16.65,8-1.47.89-2.35-2.36-10.4-6.4-11.42A4.83,4.83,0,0,0,196.15,246.59Z"/><path d="M198.34,241.09a9.05,9.05,0,0,0-3.7,4.1c-1.08.51-2.38,1.61-3,4.59-.77,3.67,2,6.49,4.87,7.34s3.35,2.77,3.35,2.77l.32-2.07a8.12,8.12,0,0,0-1.61-2.7c-1-.9.46-2.21.58-3.28.1-.82-.51-2.42-.37-3.77,0,0,1.61-2.44,3.2-3C204.67,244,201.29,239.39,198.34,241.09Z"/><path class="cls-1" d="M199.56,253.22c.38.91.23,1.81-.34,2s-1.33-.37-1.7-1.28-.23-1.82.34-2S199.19,252.31,199.56,253.22Z"/><path class="cls-1" d="M210.27,288.49,227,285.76s-1.91-4.79-2.59-4.79-12.65,5.23-12.65,5.23l-.95,1.91Z"/><path class="cls-6" d="M201.7,300s-1.67,8.07-1,14.19.73,27.84.73,27.84l-2.59,34.77,6.16.13s7.3-34.75,7.16-33.85,2.45-24.47,2.45-24.47l-8.7-19.37Z"/><path class="cls-6" d="M203.33,299.58s-1.09,7.26.27,10.45,11.67,34.44,11.81,37S219,377.74,219,377.74l7.16-.2,1.55-31.32-3.25-39.36-3.15-10Z"/><path class="cls-1" d="M199.27,263.54a6.43,6.43,0,0,0,3.41,1,11.49,11.49,0,0,0,4-1.65l-.33-1.1s-4.26-.62-4.37-.56S199.27,263.54,199.27,263.54Z"/><path class="cls-1" d="M218.09,280.74s6.32,6,9.18,4.95,4-4.51-2.93-9.6C218.1,271.52,218.09,280.74,218.09,280.74Z"/><path class="cls-11" d="M222.37,288.11c-.94-5.11-7.75-21-8.29-24-.27-1.42-3.94-1.46-7.44-1.27-3.7.2-7.37.66-7.37.66s-3.27.54-4.71,1.89-1.83,5.08.24,12.17c1.64,5.59,3.66,8.66,4.66,12.73.21,1.37.38,2.71.61,4.29.37,6.09,0,14.13,0,14.13s17.81,3.7,24.48-1.91C224.55,306.84,223.34,293.35,222.37,288.11Z"/><path class="cls-11" d="M226.92,277.11s-7,5.77-7.4,5.77-10-7.14-12.22-13c-1.24-3.25,1.36-6.88,4.33-6.87,2.06,0,3,.54,7.05,4S226.92,277.11,226.92,277.11Z"/><path d="M103.93,19.52c1.15-2.76,2.31-5.52,5.29-6.92a6.64,6.64,0,0,1,7,.91c6.06,4.55.78,9.57,7.68,18.2,2.14,2.69,4.73,4.85,6,8,1.8,4.4-.34,6.51-3.77,8.62-16.41,10.09-25-10.62-24.7-15.36C101.72,29.45,103.2,21.29,103.93,19.52Z"/><path class="cls-1" d="M86.9,73.2c.7-.11,2.38-1.32,3-1.43l1.88-.29C92.26,69.54,94.9,59,95.2,55.87,95.52,52.52,97.89,38,97.89,38L104,39.12s-2.55,11.17-3.26,16.58c-.6,4.65-5.7,15.11-6.35,16.21a.22.22,0,0,1,0,.08c-.09,1.64-.88,1.1-.88,1.1l-1.29.33s-4.55.43-4.84.54S86.21,73.31,86.9,73.2Z"/><path class="cls-7" d="M103.25,29.52C98.9,31,96.43,42.8,96.43,42.8s6.82,1.9,8.56.9c0,0,2-8.78,2.69-8.47Z"/><path class="cls-1" d="M69.65,93.6a45.85,45.85,0,0,0-2.08,7.29c0,.19.25,1.14.22,1.35-2.67,3.64-6.5,4.43-9.79,4.67,1.68-1.64,4.14-3.19,4.25-3.71A64,64,0,0,0,64,93.62C66,94.57,67.38,93.82,69.65,93.6Z"/><path class="cls-11" d="M107.45,54.39l5.87,16.53-13,2.42c-3.53.65-23.23,1.51-23.73,1.86s-4.44,13.42-6.26,20.68a17.09,17.09,0,0,1-7.47-.74c1-10.39,4.68-26.84,5.86-28.63C70.67,63.59,107.45,54.39,107.45,54.39Z"/><path class="cls-1" d="M84.52,100.84a47.12,47.12,0,0,0-.68,7.55c0,.2.46,1.09.47,1.29-1.94,4.07-5.55,5.57-8.74,6.42,1.34-1.92,3.47-3.9,3.49-4.43a65.16,65.16,0,0,0-.13-9.73C81.11,102.48,82.33,101.49,84.52,100.84Z"/><path class="cls-11" d="M114.3,55.24l2.28,3.89a11.15,11.15,0,0,1-5.59,16l-.1,0c-3.34,1.3-22.54,5.83-23,6.27s-1.85,14-2.27,21.49a17,17,0,0,1-7.48.67c-1-10.39-.43-27.24.38-29.22C79.9,71.18,114.3,55.24,114.3,55.24Z"/><path d="M83.55,108.51c.51-.57,2.38,2.54,2.85,3.2a1.51,1.51,0,0,1,.32,1.43c-.17.3-10.06,6.12-12.48,6.54a1.28,1.28,0,0,1-.72-.19c-.94-.84,3.4-7,5.35-7.81A9.4,9.4,0,0,0,83.55,108.51Z"/><path d="M67.25,101c.61-.46,1.87,2.94,2.21,3.68a1.5,1.5,0,0,1,0,1.46c-.22.27-11,4.13-13.48,4.09a1.21,1.21,0,0,1-.67-.33c-.77-1,4.65-6.24,6.71-6.67A9.27,9.27,0,0,0,67.25,101Z"/><path class="cls-7" d="M107.36,29.48h0a1.1,1.1,0,0,1-.43-.09,7.64,7.64,0,0,0-4,.23c-1.67.7-4.25,7.28-4.1,14,.06,1,.13,2,.18,2.61.42,5.1,1.88,14.67,2,14.72,2,1.28,14-3.69,14.83-4.78s1.31-14.35,1.72-15l.78-11.53C117,29.24,109.5,29.47,107.36,29.48Z"/><path class="cls-1" d="M112.23,25.24a31.14,31.14,0,0,0-.62,5.58c.16,1.57-.59,6.66-3.93,6.68s-.63-6.47-.32-8a57.69,57.69,0,0,0,.39-6.33Z"/><path class="cls-8" d="M107.68,25.55c.06-1.31.07-2.4.07-2.4l4.48,2.09s-.16.82-.32,1.86A3.91,3.91,0,0,1,107.68,25.55Z"/><path class="cls-1" d="M113.87,14.2a5.6,5.6,0,0,1,2.36,3c.63,2.08-.09,7.43-4.55,8.72s-6.39-2.95-5.47-6.26S109.12,12.18,113.87,14.2Z"/><path class="cls-1" d="M105.65,18.4c.09.9.58,1.58,1.1,1.53s.87-.82.78-1.71-.58-1.57-1.1-1.52S105.56,17.51,105.65,18.4Z"/><path d="M113.35,13.93s.8,6,2.74,7.05,1.12,3.73,1.12,3.73,1.75-6.16.22-8.13A8.43,8.43,0,0,0,113.35,13.93Z"/><path class="cls-1" d="M114.94,21.84c-.52.77-.52,1.69,0,2.05s1.37,0,1.9-.77.52-1.7,0-2.05S115.47,21.06,114.94,21.84Z"/><path class="cls-9" d="M108.45,22.17l3.14.79a1.44,1.44,0,0,1-1.77.89C108.12,23.47,108.45,22.17,108.45,22.17Z"/><path class="cls-1" d="M395.25,375.59l.27,4.71c.09.6.48,2.07.48,2.61,0,2-9-1.73-7-2.63.18-.08,1.14-.7,1.2-1.39.09-1.07.33-3.23.33-3.23Z"/><path d="M388.9,380.3s2.12.62,3.21.78,2.52-1.16,3.29-.8.81,3.9.81,3.9-11.38,1-14.58,0C380.36,383.73,384.56,381.75,388.9,380.3Z"/><path class="cls-1" d="M410.3,375.35l.27,4.71a26.29,26.29,0,0,1,.48,2.61c0,2-9-1.73-7-2.63.18-.08,1.43-1.16,1.49-1.86.09-1.07,0-2.77,0-2.77Z"/><path d="M404.06,380s2.12.62,3.21.78,2.52-1.16,3.29-.81.88,3.91.88,3.91-11.3.46-14.65,0C395.47,383.66,399.72,381.47,404.06,380Z"/><path class="cls-6" d="M407.62,300.72s1.53,7.93.91,13.94-.67,27.35-.67,27.35l2.87,34.15-6.14.14S397.88,342.16,398,343s-2.25-24-2.25-24l8-19Z"/><path class="cls-6" d="M405.48,295.6s6.94,7.31,4.36,15.29c-1,3.21-10.71,33.85-10.84,36.35s-3.27,30.18-3.27,30.18l-6.57-.2-1.42-30.77L389.62,305l4-7Z"/><path class="cls-2" d="M363.35,271.81a61,61,0,0,1,7.22-6.14,23.21,23.21,0,0,1,4.14-2.93c1.77-.61,4.8-2.24,9.18,4.4,3.13,4.75,22.91,29.34,26.16,30.17l-21.2,10.15c-.58-4.85-11.06-14-12.57-15.71C372.91,287.93,361.2,274.21,363.35,271.81Z"/><path class="cls-1" d="M364.34,261.51l6.6,3.86s.19,5.64-2,7.1c-1.81,1.23-3.19-1.72-3.19-1.72s-2.46-3.4-4.32-4.46S364.34,261.51,364.34,261.51Z"/><path class="cls-8" d="M365.44,264a13.64,13.64,0,0,1-1.71,4.27,11,11,0,0,0-2.27-2c-.87-.49-.32-1.55.52-2.54,1.19-1.24,2.36-2.24,2.36-2.24l1.26.74A5.46,5.46,0,0,1,365.44,264Z"/><path class="cls-1" d="M360.9,251.82c.11-.14,5.54,6.62,4.87,9.79s-3.95,6.06-6.24,5.26C357,266,352.32,258,354,254.18S360.9,251.82,360.9,251.82Z"/><path d="M355,249.68a10.3,10.3,0,0,1,9.11-.18c3.55,1.86,4.36,6.53,3.25,9.38s.16,4.46.16,4.46l-1.88-1.1a9,9,0,0,1-1.25-3.08c-.14-1.37-2.13-1.13-3.11-1.75-.75-.47-1.7-2-2.92-2.83,0,0-3.05-.37-4.55.47C351.2,256.49,351.56,251.57,355,249.68Z"/><path class="cls-1" d="M362.76,258.55c0,1,.46,1.85,1.07,1.86s1.12-.81,1.13-1.82-.46-1.84-1.07-1.85S362.78,257.54,362.76,258.55Z"/><path class="cls-9" d="M357.2,263.93l2.87-2.15a1.6,1.6,0,0,1-.47,2.15C358.09,265.13,357.2,263.93,357.2,263.93Z"/><path class="cls-1" d="M350,306.68c.72-1.05,1-2.57,2-3.72a9,9,0,0,1,1.47-1.27c4.79-2.8,17.26-10,17.75-10.58s9.09-14.81,9.09-14.81l-7.65-1.73-7.47,13.19c-.62.5-12.49,9.26-12.49,9.26s-2.35,1.85-3.64,2.71a10.48,10.48,0,0,1-1.84.82,11.27,11.27,0,0,0-2.29,1.14c-.31.27-.93.86-1.31,1.22s-.82.76-1,1a2.5,2.5,0,0,1-.67.43.44.44,0,0,0,.07.82,2,2,0,0,0,1.16-.27c.86-.4,1.91-1.49,2-1.36s-1,2.47-1.11,2.74a30.6,30.6,0,0,0-1.39,3.6c-.07.61.3.75.57.53s2.2-3.83,2.2-3.83.25-.46.35-.19-1.68,3.56-1.85,4.1,0,1,.46.8,2.29-3.87,2.29-3.87.22-.45.37-.3-1.41,2.94-1.43,3.27a.42.42,0,0,0,.7.36c.49-.31,2-3.57,2-3.57s.18-.22.24-.07a31.2,31.2,0,0,0-1,3,.29.29,0,0,0,.34.24C348.46,310.29,349.26,307.74,350,306.68Z"/><path class="cls-2" d="M378.23,283.77s-2.5-.79-4.09-1.52c-1.07-.49-5.74-2.81-5.74-2.81s2-8.49,3.37-11.54c5-11.2,10.67-3.48,11.44-1.68C384.93,270.25,378.23,283.77,378.23,283.77Z"/><path class="cls-9" d="M204.29,254.45l2.37-1.77a1.3,1.3,0,0,1-.39,1.76C205,255.43,204.29,254.45,204.29,254.45Z"/><path class="cls-1" d="M137.9,72c-.06-.14-.18-.14-.31-.15a30.87,30.87,0,0,1-3.72-.27,2.54,2.54,0,0,1-.6-.16,1.55,1.55,0,0,0-1,0,2.21,2.21,0,0,1-.57.06c-.63,0-2.41-.61-3.33-.77a.57.57,0,0,1-.43-.4c-.9-3.57-2.83-11.57-3.08-14.2-.32-3.36-2.65-18.52-2.65-18.52L116,39.29s2.56,11.19,3.27,16.62c.54,4.19,4.73,13.08,6,15.64a2.63,2.63,0,0,0,2.42,2,.79.79,0,0,1,.49.26,3.35,3.35,0,0,0,.78.68,1.85,1.85,0,0,1,.54.54c.26.38.5.78.73,1.19s.32.35.55.29a.49.49,0,0,0,.36-.55,2.53,2.53,0,0,0-.37-1.23.65.65,0,0,1,.05-.88,2.86,2.86,0,0,1,.46-.52.81.81,0,0,1,.64-.23,10.66,10.66,0,0,0,1.35.25l.38.08.21,0s.69.08.91.08l.73,0a3.35,3.35,0,0,0,.72-.1.87.87,0,0,0,.58-.24c.07-.06.14-.12.1-.23a.23.23,0,0,0-.2-.15c-.15,0-.92-.12-.91-.15l1.17,0a1,1,0,0,0,.79-.34C137.86,72.24,138,72.15,137.9,72Z"/><path class="cls-7" d="M118.43,29.63c3.07-.55,5.6,13.17,5.6,13.17s-6.82,1.9-8.56.9c0,0-2-8.78-2.69-8.47Z"/><path class="cls-1" d="M44.27,276.28c.21-.58-2.62-1-2.77-1.64s3.57-.63,3.7-1.15c.25-.95-4.08-.2-4-.65s4.51-1.44,4-2.2-4.48,1.51-4.6,1,3.91-1.78,3.84-2.92c0-.6-6.62,3-7.38,2.7s.82-3.18.21-3.61-2.35,5.81-2.77,6-9.3,5.28-12.46,6.09c-.39-1.06-1.22-2.49-1.56-3.49-1.77,1.26-3.09,1.9-4.92,3,1.33,3.32,3.22,7,4.14,7.38,2.81,1.27,13.7-7.76,15.87-9.3s3.42-1,4.89-1.53S44.07,276.86,44.27,276.28Z"/><path class="cls-4" d="M15.22,281.05s-2.43-10.75-2-13.87,4.13-6,6.7-4.95,3.74,16.09,3.74,16.09Z"/></g></g></svg>