<svg xmlns="http://www.w3.org/2000/svg" xmlns:xlink="http://www.w3.org/1999/xlink" viewBox="0 0 372.36 381.19"><defs><style>.cls-1{fill:#acdef8;}.cls-2{fill:#32ade4;}.cls-3{fill:url(#linear-gradient);}.cls-4{fill:#004b93;}.cls-5{fill:url(#linear-gradient-2);}.cls-6{fill:#ffbe9d;}.cls-7{fill:#fff;}.cls-8{fill:#95d4f6;}.cls-9{fill:#00b7ff;}</style><linearGradient id="linear-gradient" x1="2252.88" y1="343.58" x2="2266.04" y2="343.58" gradientTransform="matrix(-1, 0, 0, 1, 2475.79, 0)" gradientUnits="userSpaceOnUse"><stop offset="0" stop-color="#febbba"/><stop offset="1" stop-color="#ff928e"/></linearGradient><linearGradient id="linear-gradient-2" x1="2243.35" y1="355.73" x2="2255.71" y2="355.73" xlink:href="#linear-gradient"/></defs><title>dibujo 2</title><g id="Capa_2" data-name="Capa 2"><g id="Esquema"><path class="cls-1" d="M313.13,264.67s-25.33-4.24-26.71-4.24H215.91a8.58,8.58,0,0,0-8.56,8.56v7.73a8.58,8.58,0,0,0,8.56,8.56h70.51a8.22,8.22,0,0,0,1.93-.23Q300.74,283,313.13,264.67Z"/><path class="cls-2" d="M312.85,265.72C409,37.35,230.92,37.15,253.1,253.27Z"/><path class="cls-1" d="M306.24,263.53c96.1-232.72-87.09-226.5-64.91-6.26Z"/><rect x="251.96" y="278.93" width="7.49" height="80.97"/><path d="M225.77,356.58h59.64a3.08,3.08,0,0,1,3.08,3.08v1.8a0,0,0,0,1,0,0H222.91a0,0,0,0,1,0,0v-2A2.86,2.86,0,0,1,225.77,356.58Z"/><path d="M216,348.77s-21.37,15.41-17.66,25.76c0,0,23.39-10.09,26.22-18s-.48-11.46-.48-11.46Z"/><path class="cls-3" d="M219.22,335.85,222.71,346a3.51,3.51,0,0,1-1.36,4.12,8.78,8.78,0,0,1-2.89,1.12,4.1,4.1,0,0,1-4.53-2.05l-4.18-7.87Z"/><path class="cls-4" d="M253.24,244.89s-43.91,7.61-62.75,25,17.29,72.91,17.29,72.91,5.92,0,13.09-6.18c0,0-21.42-41.75-3-53.92,20.75-13.69,44.67-16.77,44.67-16.77l-8.92-19.71Z"/><path d="M202.05,368.81c4.7-2.18,18-11.5,20.26-11.91s6.14,2.23,6.14,2.23.94,1.7-.07,4.67c-3.12,3.78-10.06,11-19.39,13.67-6.86,2-11.66.14-14.65-2A19.9,19.9,0,0,1,202.05,368.81Z"/><path d="M209,377.47c9.33-2.68,16.27-9.89,19.39-13.67-.68,2-2.26,4.59-5.63,7.62-8.36,7.52-24.34,10.23-27.74,9.71-2.72-.42-2.46-2.94-.67-5.68C197.33,377.61,202.13,379.45,209,377.47Z"/><path class="cls-5" d="M232.44,352.55c-.06,1.3-2.71,5.74-4.25,8.23a4,4,0,0,1-3.42,1.91,10,10,0,0,1-2.83-.34,2.6,2.6,0,0,1-1.75-3.25l3-10.33Z"/><path class="cls-4" d="M295.51,231.71s9.75,26.08,0,34-33,16.85-38.22,32.65-14,46.49-25.82,57.36c0,0-8.29-.8-11.39-4.11,0,0,6.72-45.82,11.15-57.58,3.84-10.18,9.5-24.88,20.34-33.09,3.1-2.36,2.56-6.08,1.12-9.7l-2.62-6.59Z"/><path class="cls-2" d="M193.8,211.27c16.35,1,11.25-25.13,11-26.17l24.82,17.53s-1.32,14-22,21.29a25.56,25.56,0,0,1-14.21,1A22.61,22.61,0,0,0,193.8,211.27Z"/><path class="cls-6" d="M162.18,203.41c6.09-4.24,13,0,13,0,8.14,5.33,14.17,7.59,18.62,7.86a22.61,22.61,0,0,1-.38,13.68c-9.13-2-15.66-8.56-18.49-11.95a3,3,0,0,0-4.08-.45c-1.27,1-2.51,2.37-2.28,3.82.44,2.84-2.87,3.75-3.11,2.72s1.13-7.16,1.13-7.16-6.61,6.65-9.19,9.2-5.83,0-5.83,0S156.09,207.65,162.18,203.41Z"/><path class="cls-2" d="M270,144.75s-23.79-9.52-68.06,27c0,0-3.7,7.65.34,14.47s42.47,40,47.75,58.41c0,0,22.9,7.44,46.59-10.2C296.66,234.46,294.57,183.23,270,144.75Z"/><path class="cls-6" d="M223,136.25l11.72,14.2a4.67,4.67,0,0,1,.61,5c-1.63,3.32-5.48,8.14-14,7.48a7.18,7.18,0,0,1-5.9-4L207.21,142Z"/><path class="cls-2" d="M288.46,205.55c2.76-11.24-25.21-36.32-25.21-36.32L270,144.75s60.4,40.21,45,72.55a23.63,23.63,0,0,1-8.53,10C301.65,214.26,293.9,208.26,288.46,205.55Z"/><path class="cls-6" d="M246.09,204.59s33.17,12.87,41.26,3.19a5.45,5.45,0,0,0,1.11-2.23c5.44,2.71,13.19,8.71,18.06,21.8-17.45,11.15-47.26-6.2-55.32-11.31a6,6,0,0,0-4.46-.82c-3.11.65-8.48,1.59-11.38,1.15-4.23-.66-10.32,14.29-17.19,9.68C218.17,226.05,224.05,200.07,246.09,204.59Z"/><path class="cls-6" d="M197.53,115.4c-.11.46,2.75,31.49,2.75,31.49l17.68-2,1.66-29.82S199.51,107.76,197.53,115.4Z"/><path d="M215,121.24l.36,15.77a2,2,0,0,1-.07.59c-.3,1.2-1.67,5.25-5.72,3.6-3.68-1.49-7.06-2.8-9.55-2.33a2.21,2.21,0,0,0-1.78,2.37,95.55,95.55,0,0,0,2.42,14.58,2.19,2.19,0,0,0,2.51,1.58c3.38-.59,10.46-2.05,15.89-4.55a2.22,2.22,0,0,0,1.29-1.86c.26-3.94,1.11-15.91,1.86-19.21.71-3.1,4.77-4.56,6.51-5a2.13,2.13,0,0,0,1.33-1.07c1-1.85,2.55-6.23-2.91-8.69a2.21,2.21,0,0,1-1.07-3c1.09-2.24,1.83-5.76-2.33-8.21s-7.82-.47-9.82,1.26a2.21,2.21,0,0,1-2.83,0,1.75,1.75,0,0,0-2-.15,2.17,2.17,0,0,1-3-1.26c-.83-2.3-2.74-4.88-7.18-4.62-7.88.48-9.7,9-8.21,14.2s10,4.24,14.45,2.17c3.37-1.58,7.26.89,8.93,2.16A2.16,2.16,0,0,1,215,121.24Z"/><path class="cls-6" d="M222.3,137.52s-2.21-9.25,1.3-11.07,8.22-.16,6.45,6.17C227.84,140.5,222.3,137.52,222.3,137.52Z"/><path d="M229.1,230h-.16l-69.58-.07a3.12,3.12,0,0,1,0-6.23l69.59.07a3.12,3.12,0,0,1,.15,6.23Z"/><path d="M96.8,166.8h58a11,11,0,0,1,10,6.33l26.79,56.81h-72a6.7,6.7,0,0,1-6.24-4.24L92.5,173.13A4.63,4.63,0,0,1,96.8,166.8Z"/><path class="cls-7" d="M137.63,195.93c1.26,3.9.33,7.69-2.07,8.46s-5.37-1.76-6.62-5.67-.33-7.69,2.07-8.46S136.37,192,137.63,195.93Z"/><path d="M106.2,379.22a2.88,2.88,0,0,1-1.15-.23,2.8,2.8,0,0,1-1.54-3.72l61.33-138a3,3,0,0,1,3.84-1.48,2.79,2.79,0,0,1,1.53,3.72l-61.32,138A2.94,2.94,0,0,1,106.2,379.22Z"/><path d="M175.29,379.22a2.92,2.92,0,0,1-2.69-1.71l-61.33-138a2.8,2.8,0,0,1,1.53-3.72,3,3,0,0,1,3.84,1.48l61.33,138a2.8,2.8,0,0,1-1.53,3.72A3,3,0,0,1,175.29,379.22Z"/><path d="M296,379.22a3,3,0,0,1-1.16-.23,2.81,2.81,0,0,1-1.53-3.72l61.33-138a3,3,0,0,1,3.84-1.48,2.8,2.8,0,0,1,1.53,3.72l-61.32,138A2.94,2.94,0,0,1,296,379.22Z"/><path d="M365.11,379.22a2.92,2.92,0,0,1-2.68-1.71l-61.33-138a2.8,2.8,0,0,1,1.53-3.72,3,3,0,0,1,3.84,1.48l61.33,138a2.8,2.8,0,0,1-1.53,3.72A3,3,0,0,1,365.11,379.22Z"/><path class="cls-8" d="M372.31,233a3.41,3.41,0,0,0-.58-2.55,2.67,2.67,0,0,0-2.13-1.12h-279A3.08,3.08,0,0,0,87.94,231a3.87,3.87,0,0,0-.21,3.4l3,7.33a4.22,4.22,0,0,0,3.84,2.75H367.68a3.32,3.32,0,0,0,3.15-2.91Z"/><path class="cls-4" d="M102.93,71.92a.71.71,0,0,0-.19-.8l-6.38-5.65a37.07,37.07,0,0,0,0-12l6.38-5.65a.69.69,0,0,0,.18-.8L99,37.54a.71.71,0,0,0-.69-.43l-8.51.52a37.35,37.35,0,0,0-8.51-8.51l.52-8.51a.72.72,0,0,0-.44-.69L71.93,16a.7.7,0,0,0-.79.18l-5.65,6.39a37.13,37.13,0,0,0-12,0L47.8,16.19A.71.71,0,0,0,47,16l-9.45,3.92a.69.69,0,0,0-.43.69l.52,8.5a37,37,0,0,0-8.51,8.52l-8.51-.52a.7.7,0,0,0-.69.43L16,47a.71.71,0,0,0,.18.8l6.38,5.65a37.35,37.35,0,0,0,0,12l-6.38,5.65a.72.72,0,0,0-.18.8L20,81.38a.7.7,0,0,0,.69.43l8.5-.52a37.19,37.19,0,0,0,8.52,8.51l-.52,8.51a.7.7,0,0,0,.43.69L47,102.91a.7.7,0,0,0,.79-.18l5.66-6.39a37.07,37.07,0,0,0,12,0l5.65,6.37a.7.7,0,0,0,.79.19L81.39,99a.69.69,0,0,0,.43-.69l-.51-8.5a37.15,37.15,0,0,0,8.5-8.52l8.52.52a.7.7,0,0,0,.68-.43Z"/><path class="cls-4" d="M167.44,81a.49.49,0,0,0-.12-.53L163,76.73a24.77,24.77,0,0,0,0-8.06l4.27-3.78a.48.48,0,0,0,.13-.53L164.82,58a.48.48,0,0,0-.47-.29l-5.69.35a24.87,24.87,0,0,0-5.7-5.7l.35-5.69a.46.46,0,0,0-.29-.46l-6.32-2.62a.46.46,0,0,0-.53.12L142.38,48a25,25,0,0,0-8,0l-3.78-4.27a.46.46,0,0,0-.53-.12l-6.32,2.62a.47.47,0,0,0-.29.46l.34,5.69a25.22,25.22,0,0,0-5.69,5.7l-5.69-.34a.45.45,0,0,0-.46.28l-2.62,6.33a.46.46,0,0,0,.12.53l4.27,3.78a25,25,0,0,0,0,8l-4.27,3.79a.46.46,0,0,0-.12.53l2.62,6.32a.48.48,0,0,0,.46.29l5.69-.35a24.82,24.82,0,0,0,5.7,5.69l-.34,5.7a.46.46,0,0,0,.28.46l6.33,2.62a.48.48,0,0,0,.53-.12l3.78-4.28a25,25,0,0,0,8,0l3.78,4.26a.49.49,0,0,0,.53.13L153,99.16a.49.49,0,0,0,.29-.47L153,93a24.78,24.78,0,0,0,5.69-5.69l5.7.34a.47.47,0,0,0,.46-.29Z"/><path class="cls-7" d="M61,69.63a10.28,10.28,0,0,1-9.74-16.31A10.28,10.28,0,0,1,69.65,58a10.31,10.31,0,0,1-7.21,11.34A10.1,10.1,0,0,1,61,69.63ZM53.15,54.75a7.89,7.89,0,1,0,5.18-3.09,8.56,8.56,0,0,0-1.14.25A7.91,7.91,0,0,0,53.15,54.75Z"/><path class="cls-7" d="M66.51,83.59c.83-.25,1.65-.54,2.45-.87h0l.76-.33a25.94,25.94,0,0,0,3.54-2l0,0,.13-.09.25-.17a.59.59,0,0,0,.23-.66.53.53,0,0,0-.08-.17.6.6,0,0,0-.83-.15,24.57,24.57,0,0,1-4.51,2.45,24.08,24.08,0,0,1-23-2.55A23.83,23.83,0,0,1,37,68.58q-.48-1.15-.84-2.34a24.08,24.08,0,0,1,45.33-16.1,24.42,24.42,0,0,1,.82,2.31,23.84,23.84,0,0,1,.76,10.42.74.74,0,0,0,0,.26.6.6,0,0,0,1.17-.08,25.34,25.34,0,0,0-.8-10.95,24,24,0,0,0-.86-2.42A25.28,25.28,0,0,0,35.06,66.59,23.11,23.11,0,0,0,35.93,69,25.28,25.28,0,0,0,66.51,83.59Z"/><path class="cls-7" d="M139.38,79.63a6.89,6.89,0,1,1,1-.22A7,7,0,0,1,139.38,79.63Zm-6.11-6.18a5.14,5.14,0,0,0,5.84,4.35h0a5.17,5.17,0,0,0,3.39-2,5.15,5.15,0,0,0-4.88-8.17,4.42,4.42,0,0,0-.74.16A5.14,5.14,0,0,0,133.27,73.45Z"/><path class="cls-7" d="M143.24,89.34a15.09,15.09,0,0,0,1.67-.59A16.88,16.88,0,0,0,148,87.06l.13-.09a.92.92,0,0,0,.36-1,.91.91,0,0,0-.13-.26.92.92,0,0,0-1.28-.24A15.86,15.86,0,0,1,144.2,87h0l-.17.07a15.51,15.51,0,0,1-11.63,0h0l-.1,0a15.46,15.46,0,0,1-8.44-8.44,13.57,13.57,0,0,1-.54-1.51,15.59,15.59,0,0,1,29.35-10.42c.2.49.38,1,.53,1.49a15.72,15.72,0,0,1,.49,6.75.89.89,0,0,0,0,.4.92.92,0,0,0,1.8-.13,17.36,17.36,0,0,0-.55-7.55c-.17-.56-.37-1.12-.59-1.67a17.44,17.44,0,0,0-32.83,11.66,17,17,0,0,0,.6,1.69A17.45,17.45,0,0,0,143.24,89.34Z"/><path class="cls-9" d="M117.3,50.55a1.5,1.5,0,0,1-1.75-1.19c-.3-1.59-.67-3.18-1.11-4.73a1.5,1.5,0,0,1,1-1.84h0a1.5,1.5,0,0,1,1.85,1c.46,1.64.85,3.31,1.16,5a1.49,1.49,0,0,1-1,1.71Zm-5.5-13.36c-.64-1.48-1.36-2.95-2.12-4.36a1.5,1.5,0,1,1,2.64-1.43c.8,1.49,1.55,3,2.23,4.6a1.5,1.5,0,0,1-.78,2,.85.85,0,0,1-.17.06A1.49,1.49,0,0,1,111.8,37.19Zm-6.34-11c-.95-1.3-2-2.57-3-3.78a1.5,1.5,0,1,1,2.26-2c1.12,1.28,2.19,2.62,3.2,4a1.49,1.49,0,0,1-.32,2.09,1.42,1.42,0,0,1-.46.23A1.49,1.49,0,0,1,105.46,26.16Zm-8.64-9.33c-1.22-1.06-2.51-2.07-3.81-3a1.51,1.51,0,0,1-.34-2.1,1.49,1.49,0,0,1,2.09-.33c1.38,1,2.73,2.06,4,3.17a1.5,1.5,0,0,1,.15,2.11,1.49,1.49,0,0,1-2.11.16ZM86.31,9.65c-1.42-.75-2.9-1.46-4.38-2.09A1.5,1.5,0,1,1,83.1,4.8c1.57.67,3.12,1.41,4.61,2.2a1.5,1.5,0,0,1-1.4,2.65ZM74.48,5c-1.56-.43-3.15-.79-4.74-1.07A1.5,1.5,0,1,1,70.27,1c1.67.3,3.35.68,5,1.12A1.51,1.51,0,0,1,75.3,5,1.62,1.62,0,0,1,74.48,5ZM20.1,16.9a1.5,1.5,0,0,1,.14-2.11c1.28-1.12,2.62-2.19,4-3.2A1.5,1.5,0,0,1,26,14c-1.31,1-2.58,2-3.79,3a1.6,1.6,0,0,1-.56.3A1.48,1.48,0,0,1,20.1,16.9ZM61.91,3C60.3,3,58.66,3,57.05,3.06a1.5,1.5,0,0,1-.13-3C58.61,0,60.33,0,62,.05A1.5,1.5,0,0,1,62.4,3,1.35,1.35,0,0,1,61.91,3ZM30.65,9.19a1.5,1.5,0,0,1,.61-2c1.5-.8,3-1.55,4.6-2.22a1.5,1.5,0,1,1,1.19,2.75C35.57,8.33,34.1,9,32.68,9.81a1.62,1.62,0,0,1-.28.11A1.5,1.5,0,0,1,30.65,9.19ZM49.22,4c-1.58.3-3.17.66-4.73,1.1a1.5,1.5,0,0,1-.83-2.88h0c1.64-.46,3.31-.85,5-1.16a1.5,1.5,0,0,1,.71,2.91Z"/><path class="cls-9" d="M14.4,25a1.53,1.53,0,0,0,.74-.5c.48-.61,1-1.21,1.49-1.8a1.5,1.5,0,1,0-2.27-2c-.54.62-1.06,1.26-1.57,1.89A1.5,1.5,0,0,0,14.4,25Z"/><path class="cls-9" d="M2.2,69a1.51,1.51,0,0,0,1-1.64c-.1-.76-.19-1.54-.26-2.32a1.49,1.49,0,0,0-1.63-1.35A1.48,1.48,0,0,0,0,65.34c.07.81.16,1.63.27,2.44A1.51,1.51,0,0,0,2,69.07Z"/><path class="cls-9" d="M74,118a1.5,1.5,0,0,1-.72-2.91c1.53-.38,3.07-.83,4.59-1.34a1.49,1.49,0,0,1,1.9.94,1.51,1.51,0,0,1-.94,1.9q-1,.33-2,.63C75.88,117.53,74.92,117.8,74,118Zm10.36-5.22a1.51,1.51,0,0,1,.68-2c1.42-.7,2.83-1.48,4.19-2.3a1.5,1.5,0,1,1,1.55,2.56c-1.42.87-2.91,1.68-4.41,2.43a.92.92,0,0,1-.23.09A1.5,1.5,0,0,1,84.33,112.81Zm-18.4,6.64c-1.66.17-3.35.28-5,.32a1.5,1.5,0,0,1-.07-3c1.59,0,3.2-.14,4.77-.3a1.5,1.5,0,0,1,.59,2.92A1.31,1.31,0,0,1,65.93,119.45Zm29.39-13.31a1.51,1.51,0,0,1,.22-2.11c1.23-1,2.44-2.07,3.58-3.17A1.5,1.5,0,0,1,101.2,103c-1.2,1.16-2.47,2.28-3.77,3.34a1.67,1.67,0,0,1-.51.27A1.52,1.52,0,0,1,95.32,106.14ZM52.75,119.38c-1.65-.2-3.32-.46-5-.79a1.5,1.5,0,0,1,.6-2.94c1.55.31,3.14.57,4.71.75a1.51,1.51,0,0,1,1.32,1.66,1.49,1.49,0,0,1-1.06,1.26A1.55,1.55,0,0,1,52.75,119.38Zm-12.83-3c-1.58-.55-3.15-1.18-4.68-1.86a1.5,1.5,0,1,1,1.22-2.73c1.45.64,2.95,1.24,4.45,1.76a1.5,1.5,0,0,1-.07,2.85A1.45,1.45,0,0,1,39.92,116.42ZM28,110.74c-1.42-.89-2.82-1.84-4.16-2.83a1.5,1.5,0,0,1,1.79-2.41c1.27,1,2.6,1.85,3.95,2.69a1.49,1.49,0,0,1,.48,2.06,1.45,1.45,0,0,1-.84.65A1.51,1.51,0,0,1,28,110.74Zm-10.37-8.15c-1.19-1.17-2.35-2.4-3.44-3.67a1.5,1.5,0,1,1,2.28-2c1,1.2,2.13,2.37,3.26,3.48a1.5,1.5,0,0,1,0,2.12,1.43,1.43,0,0,1-.64.39A1.49,1.49,0,0,1,17.66,102.59ZM9.33,92.37C8.43,91,7.57,89.5,6.79,88a1.5,1.5,0,0,1,2.65-1.41c.74,1.4,1.55,2.79,2.41,4.12a1.49,1.49,0,0,1-.45,2.07A1.46,1.46,0,0,1,11,93,1.5,1.5,0,0,1,9.33,92.37ZM3.46,80.57c-.43-1.15-.82-2.33-1.17-3.51-.13-.42-.25-.85-.37-1.27a1.49,1.49,0,0,1,1-1.85,1.51,1.51,0,0,1,1.85,1c.11.4.23.81.35,1.21.33,1.12.71,2.24,1.11,3.34a1.49,1.49,0,0,1-.89,1.92l-.08,0A1.49,1.49,0,0,1,3.46,80.57Z"/><path class="cls-9" d="M106,97.44a1.55,1.55,0,0,0,.74-.51c.5-.64,1-1.3,1.48-2a1.5,1.5,0,1,0-2.43-1.75c-.46.63-.93,1.26-1.41,1.86a1.51,1.51,0,0,0,.26,2.11A1.52,1.52,0,0,0,106,97.44Z"/><path class="cls-9" d="M177.81,73.63a.92.92,0,0,0,.66-.9c0-.78,0-1.58-.08-2.37a.93.93,0,0,0-1.85.13c.05.75.08,1.5.08,2.25a.92.92,0,0,0,.93.92A1.09,1.09,0,0,0,177.81,73.63Z"/><path class="cls-9" d="M177,66.56a.92.92,0,0,1-1.08-.73,37.89,37.89,0,0,0-.93-3.78l-.24-.78a.92.92,0,0,1,.59-1.16,1,1,0,0,1,1.17.59c.09.28.17.55.26.82.38,1.3.71,2.63,1,4a.93.93,0,0,1-.64,1.06Zm-4-9.67a37.37,37.37,0,0,0-2.24-4.13.93.93,0,1,1,1.57-1,40.26,40.26,0,0,1,2.35,4.33.92.92,0,0,1-.45,1.23l-.12,0A.93.93,0,0,1,173.05,56.89Zm-5-8a40.1,40.1,0,0,0-3.19-3.46.93.93,0,0,1,1.29-1.33,39.68,39.68,0,0,1,3.34,3.63.92.92,0,0,1-.14,1.3.91.91,0,0,1-1.3-.14Zm-6.77-6.49a39.23,39.23,0,0,0-3.94-2.58A.93.93,0,0,1,157,38.6a.94.94,0,0,1,1.27-.35,40,40,0,0,1,4.12,2.7.93.93,0,0,1,.19,1.3.91.91,0,0,1-.47.33A.93.93,0,0,1,161.31,42.44Zm-8.16-4.65a38.84,38.84,0,0,0-4.44-1.54.92.92,0,1,1,.5-1.78,40.56,40.56,0,0,1,4.65,1.61.93.93,0,0,1,.5,1.21.93.93,0,0,1-1.21.5Zm-9-2.52a36.65,36.65,0,0,0-4.67-.41.93.93,0,1,1,0-1.85,38.43,38.43,0,0,1,4.91.43.93.93,0,0,1,.78,1.05.93.93,0,0,1-1.06.78ZM134.74,35a36.74,36.74,0,0,0-4.64.75.93.93,0,1,1-.41-1.81,40.13,40.13,0,0,1,4.87-.78.92.92,0,0,1,.35,1.8ZM120,38.55a.93.93,0,0,1,.41-1.25c1.26-.63,2.58-1.21,3.92-1.72l.61-.22a.92.92,0,1,1,.62,1.74l-.57.21A36.86,36.86,0,0,0,121.27,39l-.16.06A.94.94,0,0,1,120,38.55Z"/><path class="cls-9" d="M149.45,111.45a42.47,42.47,0,0,1-4.73,1,.93.93,0,1,1-.29-1.83,39.07,39.07,0,0,0,4.51-1,.91.91,0,0,1,1.14.63.92.92,0,0,1-.62,1.14Zm3.36-2.11a.92.92,0,0,1,.49-1.21,39,39,0,0,0,4.15-2,.93.93,0,0,1,.92,1.61,40.78,40.78,0,0,1-4.35,2.14l-.09,0A.93.93,0,0,1,152.81,109.34ZM139.89,113a39.23,39.23,0,0,1-4.85-.12.93.93,0,0,1,.16-1.85,35.65,35.65,0,0,0,4.62.12.94.94,0,0,1,1,.9.92.92,0,0,1-.66.92A.85.85,0,0,1,139.89,113Zm21.24-8.12a.93.93,0,0,1,.19-1.3,37.19,37.19,0,0,0,3.53-3,.93.93,0,1,1,1.28,1.34,40.92,40.92,0,0,1-3.7,3.14,1.11,1.11,0,0,1-.29.14A.93.93,0,0,1,161.13,104.84Zm-30.88,7.29a39.33,39.33,0,0,1-4.67-1.29.92.92,0,1,1,.59-1.75,38.78,38.78,0,0,0,4.46,1.23.92.92,0,0,1,.72,1.09,1,1,0,0,1-.64.7A1,1,0,0,1,130.25,112.13ZM121.09,109a41.54,41.54,0,0,1-4.23-2.36.93.93,0,0,1,1-1.56,37.86,37.86,0,0,0,4,2.25.93.93,0,0,1,.43,1.24,1,1,0,0,1-.57.49A.93.93,0,0,1,121.09,109Zm-8.15-5.23a41,41,0,0,1-3.54-3.31.93.93,0,0,1,1.35-1.27,38.75,38.75,0,0,0,3.37,3.16.92.92,0,0,1,.13,1.3.9.9,0,0,1-.45.3A.94.94,0,0,1,112.94,103.77Z"/><path class="cls-9" d="M169,98.6a1,1,0,0,0,.45-.31c.5-.61,1-1.24,1.44-1.87a.93.93,0,1,0-1.5-1.09c-.44.61-.9,1.21-1.38,1.79a.93.93,0,0,0,1,1.48Z"/></g></g></svg>