<svg xmlns="http://www.w3.org/2000/svg" viewBox="0 0 410.7 310.67"><defs><style>.cls-1{fill:none;stroke:#000;stroke-linecap:round;stroke-linejoin:round;stroke-width:3px;}.cls-11,.cls-2{fill:#fff;}.cls-3{fill:#004b93;}.cls-4{fill:#00b7ff;}.cls-5{fill:#ffbe9d;}.cls-6{fill:#eb996e;}.cls-7{fill:#dd852c;}.cls-8{fill:#007e48;}.cls-9{fill:#ffd444;}.cls-10{fill:#f99746;}.cls-11{stroke:#fff;stroke-miterlimit:10;stroke-width:2px;}</style></defs><title>dibujo 4</title><g id="Capa_2" data-name="Capa 2"><g id="Esquema"><line class="cls-1" x1="1.5" y1="274.89" x2="392.17" y2="274.89"/><rect class="cls-2" x="32.36" y="4.61" width="323.65" height="211.72" rx="2.84" ry="2.84" transform="translate(-0.64 1.12) rotate(-0.33)"/><path class="cls-3" d="M344.55,0l-302,1.75A14.56,14.56,0,0,0,28.07,16.38l1.1,190.09a14.57,14.57,0,0,0,14.64,14.47l302-1.75a14.57,14.57,0,0,0,14.47-14.63l-1.1-190.09A14.57,14.57,0,0,0,344.55,0Zm7.16,14.51,1.1,190.09a7.09,7.09,0,0,1-7,7.12l-302,1.74a7.07,7.07,0,0,1-7.11-7L35.55,16.34a7.08,7.08,0,0,1,7-7.12l302-1.75A7.08,7.08,0,0,1,351.71,14.51Z"/><rect class="cls-3" x="163.68" y="215.84" width="62.51" height="49.16" transform="translate(-1.39 1.13) rotate(-0.33)"/><path class="cls-3" d="M254.57,273.2l-118.9.69h0A12.86,12.86,0,0,1,148.46,261l93.18-.54a12.85,12.85,0,0,1,12.93,12.78Z"/><rect class="cls-4" x="50.71" y="28.39" width="160.32" height="160.32" transform="translate(-0.63 0.76) rotate(-0.33)"/><path class="cls-3" d="M131.2,167.39a58.85,58.85,0,1,1,58.51-59.19A58.91,58.91,0,0,1,131.2,167.39Z"/><rect class="cls-4" x="225.16" y="27.51" width="113.69" height="72.79" transform="translate(-0.37 1.63) rotate(-0.33)"/><rect class="cls-3" x="224.99" y="27.51" width="113.69" height="11.32" transform="translate(-0.19 1.63) rotate(-0.33)"/><path class="cls-3" d="M285.4,59.73l-50,.29a1.82,1.82,0,0,1-1.83-1.81h0a1.81,1.81,0,0,1,1.81-1.83l50-.29a1.82,1.82,0,0,1,1.83,1.81h0A1.82,1.82,0,0,1,285.4,59.73Z"/><path class="cls-3" d="M285.36,52.47l-50,.29A1.82,1.82,0,0,1,233.55,51h0a1.82,1.82,0,0,1,1.8-1.83l50-.29a1.83,1.83,0,0,1,1.83,1.81h0A1.83,1.83,0,0,1,285.36,52.47Z"/><path class="cls-3" d="M285.44,67l-50,.29a1.83,1.83,0,0,1-1.83-1.81h0a1.81,1.81,0,0,1,1.81-1.83l50-.29a1.81,1.81,0,0,1,1.83,1.81h0A1.82,1.82,0,0,1,285.44,67Z"/><rect class="cls-4" x="225.67" y="115.6" width="113.69" height="72.79" transform="translate(-0.87 1.64) rotate(-0.33)"/><rect class="cls-3" x="225.5" y="115.6" width="113.69" height="11.32" transform="translate(-0.7 1.64) rotate(-0.33)"/><path class="cls-3" d="M285.91,147.82l-50,.29a1.81,1.81,0,0,1-1.83-1.81h0a1.82,1.82,0,0,1,1.81-1.83l50-.29a1.83,1.83,0,0,1,1.83,1.81h0A1.82,1.82,0,0,1,285.91,147.82Z"/><path class="cls-3" d="M285.87,140.56l-50,.29a1.81,1.81,0,0,1-1.82-1.81h0a1.82,1.82,0,0,1,1.8-1.83l50-.29a1.83,1.83,0,0,1,1.83,1.81h0A1.83,1.83,0,0,1,285.87,140.56Z"/><path class="cls-3" d="M286,155.08l-50,.29a1.83,1.83,0,0,1-1.83-1.81h0a1.82,1.82,0,0,1,1.81-1.83l50-.29a1.82,1.82,0,0,1,1.83,1.81h0A1.82,1.82,0,0,1,286,155.08Z"/><polygon points="274.41 146.23 297.07 153.84 290.64 158.31 276.58 151.91 274.41 146.23"/><path class="cls-5" d="M312.69,132.84a10.1,10.1,0,0,1-.64,4.49A47.79,47.79,0,0,1,307,147.46a19.68,19.68,0,0,1-3.18,4.13,8.67,8.67,0,0,1-4.59,2.33,7.21,7.21,0,0,1-6-1.67,12.41,12.41,0,0,1-3.48-5.75,17.54,17.54,0,0,1,6.49-19.41,10.66,10.66,0,0,1,3.79-2,8.16,8.16,0,0,1,4.41.67,26.35,26.35,0,0,1,4.28,2.38c1.44.92,3,1.94,3.66,3.51A4.53,4.53,0,0,1,312.69,132.84Z"/><path class="cls-5" d="M288.77,139.72l-1.32-.84a1.37,1.37,0,0,1-.62-1.4l.58-3.15a1.37,1.37,0,0,1,2.09-.91l2.33,1.47a1.38,1.38,0,0,1,.42,1.9l-1.58,2.5A1.38,1.38,0,0,1,288.77,139.72Z"/><polygon class="cls-5" points="289.4 139.39 280.92 152.75 291.16 162.13 296.34 149.91 289.4 139.39"/><path class="cls-6" d="M294.82,153.52s-5.78-6.22-5.54-10.64a9,9,0,0,0-.77,4.54c.11,1.61,2.66,5.92,5.11,9.12Z"/><path class="cls-5" d="M307.35,146.68s-3.9,7.46-6.16,7.88a10.2,10.2,0,0,1-8.54-2.53c-3-2.6-4.07-4.54-3.37-9.15l1-2.07,2.89,8.41,5.78,2.57,5.65-2.53Z"/><path class="cls-2" d="M301.56,149.32c-.81.62-3.33.39-4.52-1.14a3.57,3.57,0,0,1,.19-4.44c.81-.62,1.52.65,2.71,2.19S302.36,148.7,301.56,149.32Z"/><path d="M291.63,136.14s4.35-8.94,5.68-9.2,6.95,11.54,8.43,9,2.14-1.32,3,1.55,3.57,7.33,4.17,2.91,2.72,5.09,3.71-2.65,1.05-7.2-1.64-8.92c-6.6-4.21-10.23-11.61-16.5-6.34,0,0-4.71-4-8.27,11.39C290.2,133.86,290.43,138.76,291.63,136.14Z"/><path class="cls-5" d="M385.19,294.47,398,299.05l8.66-11.81a1.14,1.14,0,0,1,2,.9l-4.47,22.53-21.42-2.39Z"/><path d="M396.79,309.85s5.13-12.25,3.64-14.13l6.24-8.49a1.14,1.14,0,0,1,2,.9l-4.47,22.54Z"/><polygon class="cls-7" points="398.01 299.05 398.2 302.78 397.09 298.72 398.01 299.05"/><path class="cls-8" d="M296.63,244.61s46.31,2.2,90.84,37.25l-6.24,10.07L272.31,255.67l-16.46-8.87Z"/><path class="cls-8" d="M224.07,233.83s-20.2,25-3.91,42.36S281.6,289.64,334,299.92L383,309.54l4.32-15.32-85.59-36.44Z"/><path class="cls-5" d="M387.17,282.35l9.41,7.38,12.35-7.87a1.14,1.14,0,0,1,1.58,1.57l-12.33,19.39-16.95-10.89Z"/><path d="M391.53,299.36s9.22-9.57,8.52-11.85l8.89-5.66a1.14,1.14,0,0,1,1.57,1.58l-12.33,19.39Z"/><polygon class="cls-9" points="293.51 158.72 295.41 162.16 290.69 169.77 283.95 161.69 285.75 159.28 291.16 162.13 293.51 158.72"/><path class="cls-9" d="M295.87,158.54s-.67,16.43-22-6.14c0,0-10.71-1-23.26,5.48-8.09,4.16-13,18.05-13,18.05a127.33,127.33,0,0,0-5.81,18.42l-10.91,38.11s-6.22,7.3,30.81,17c35.07,9.15,54.59-3.66,54.59-3.66s7.56-48.78,2.19-68.25C304.77,164.32,295.87,158.54,295.87,158.54Z"/><polygon points="237.06 193.79 231.72 195.95 250 201.87 267.51 199.13 264.32 195.1 237.06 193.79"/><path class="cls-5" d="M237.06,193.79s-19,58.27,42.75,55.13l5.54,2.44,2.67-8.22-7.19-.54s-32.21-10.4-16.51-47.5C264.32,195.1,249.92,186.68,237.06,193.79Z"/><path d="M317.65,256.59,275.73,254a1.94,1.94,0,0,1-1.35-3.19L304.85,215a6.89,6.89,0,0,1,5.68-2.41l40.52,2.51a2.42,2.42,0,0,1,1.7,4l-30.12,35.38A6,6,0,0,1,317.65,256.59Z"/><path d="M320.53,256.77l-41.92-2.59a1.94,1.94,0,0,1-1.35-3.19l30.47-35.79a6.86,6.86,0,0,1,5.68-2.41l40.52,2.5a2.43,2.43,0,0,1,1.7,4l-30.12,35.38A6,6,0,0,1,320.53,256.77Z"/><path d="M323.51,259.13l-74.35-4.61a2.52,2.52,0,0,1-2.37-2.68h0a2.52,2.52,0,0,1,2.68-2.36l74.35,4.6a2.53,2.53,0,0,1,2.37,2.68h0A2.54,2.54,0,0,1,323.51,259.13Z"/><rect class="cls-9" x="270.4" y="150.85" width="18.03" height="7.55" transform="translate(146.68 -135.82) rotate(36.48)"/><polygon class="cls-9" points="295.35 163.47 300.77 160.42 296.51 154.23 291.64 156.9 295.35 163.47"/><polygon class="cls-10" points="288.9 156.95 291.16 162.13 286.37 160.38 288.9 156.95"/><polygon class="cls-10" points="291.16 162.13 291.64 156.9 293.25 159.74 291.16 162.13"/><path d="M267.51,199.5a.18.18,0,0,1-.1,0,.36.36,0,0,1-.26-.45c.05-.16,4.26-15.68,3.36-26.83-.88-11-13.44-15.27-13.57-15.31a.37.37,0,1,1,.23-.7,26.14,26.14,0,0,1,6.68,3.61c4.46,3.32,7,7.59,7.4,12.34.91,11.28-3.34,26.93-3.38,27.09A.38.38,0,0,1,267.51,199.5Z"/><path class="cls-11" d="M116.87,130.08c10-14.93,27.35-37.38,39.72-47.23,1.52-1.19,2.62-.79,3.17.3,1.51,3.09.82,7.37-6.47,14.33-12.65,12-19.64,23-34.08,41.26-1.1,1.39-2.61,1.29-4,.59a9.62,9.62,0,0,1-5.5-7c-1.1-5.08-.41-29.95-.41-29.95a10.47,10.47,0,0,1,5.6,1.37c1.94,1.45,2.38,3.09,2.38,5.89C117.29,115.57,116.46,123.61,116.87,130.08Z"/></g></g></svg>