<svg xmlns="http://www.w3.org/2000/svg" xmlns:xlink="http://www.w3.org/1999/xlink" viewBox="0 0 397.37 320.14"><defs><style>.cls-1,.cls-12,.cls-13,.cls-14,.cls-15,.cls-17,.cls-19,.cls-2,.cls-20,.cls-7{fill:none;}.cls-2,.cls-20{stroke:#004b93;}.cls-14,.cls-2,.cls-20{stroke-miterlimit:10;}.cls-2{stroke-width:1.97px;}.cls-3{fill:#e63429;}.cls-4{fill:#ffd444;}.cls-5{fill:#007e48;}.cls-6{clip-path:url(#clip-path);}.cls-17,.cls-7{stroke:#282828;}.cls-12,.cls-13,.cls-15,.cls-17,.cls-19,.cls-7{stroke-linecap:round;stroke-linejoin:round;}.cls-7{stroke-width:1.23px;}.cls-8{fill:#ffbe9d;}.cls-9{fill:#eb996e;}.cls-10{fill:#fff;}.cls-11{fill:#00b7ff;}.cls-12,.cls-13,.cls-15,.cls-19{stroke:#000;}.cls-12{stroke-width:0.99px;}.cls-13{stroke-width:1.23px;}.cls-14{stroke:#e63429;stroke-width:1.34px;}.cls-15{stroke-width:1.23px;}.cls-16{fill:#282828;}.cls-17,.cls-19{stroke-width:1.4px;}.cls-18{fill:#004b93;}.cls-20{stroke-width:1.95px;}</style><clipPath id="clip-path" transform="translate(0 -3.2)"><rect class="cls-1" x="35.66" width="363.65" height="263.3"/></clipPath></defs><title>dibujo 1</title><g id="Capa_2" data-name="Capa 2"><g id="Esquema"><line class="cls-2" x1="0.98" y1="42.3" x2="396.38" y2="42.3"/><rect class="cls-2" x="0.98" y="16.38" width="395.4" height="244.64" rx="6.52" ry="6.52"/><path class="cls-3" d="M27,32.8a3.62,3.62,0,1,1-3.61-3.62A3.61,3.61,0,0,1,27,32.8Z" transform="translate(0 -3.2)"/><path class="cls-4" d="M41.1,32.8a3.62,3.62,0,1,1-3.62-3.62A3.62,3.62,0,0,1,41.1,32.8Z" transform="translate(0 -3.2)"/><path class="cls-5" d="M55.15,32.8a3.62,3.62,0,1,1-3.61-3.62A3.61,3.61,0,0,1,55.15,32.8Z" transform="translate(0 -3.2)"/><g class="cls-6"><path d="M307.23,175.12l-28.9-3.85.23,2.87-24.71,3.29s-15.93,40-1.89,127.85h20.1l7.23-89.12h2.57l7,89.12H309C323,217.39,307.23,175.12,307.23,175.12Z" transform="translate(0 -3.2)"/><line class="cls-7" x1="270.1" y1="212.97" x2="291.07" y2="212.97"/><path class="cls-8" d="M324.11,133c-2.47-4-16.36-3.81-17.09-3.89-3.76-.44,2.4,29.44,10.21,55.56a8.77,8.77,0,0,0,11.82,5.57l.16-.06a8.8,8.8,0,0,0,5.21-9.72C330.7,160.71,327,137.53,324.11,133Z" transform="translate(0 -3.2)"/><polygon class="cls-9" points="327.42 140.57 309.69 147.45 308.02 139.04 326.39 134.46 327.42 140.57"/><path class="cls-9" d="M330.77,160.6s-8.4,11.28-8,10.76,6.59-18.23,6.59-18.23Z" transform="translate(0 -3.2)"/><path class="cls-8" d="M342.78,145.43l-24.08,31.2a8.86,8.86,0,0,0,2.19,12.84h0a8.87,8.87,0,0,0,12.61-3.21l20-37Z" transform="translate(0 -3.2)"/><path class="cls-8" d="M349,153.45a9.94,9.94,0,1,1,12.51-6.4A9.93,9.93,0,0,1,349,153.45Z" transform="translate(0 -3.2)"/><path class="cls-8" d="M359.31,138s2.72-2.82-2.1-4.8-10.79-1.52-14.59,7.72Z" transform="translate(0 -3.2)"/><path d="M364.31,118.31l10.08,4.37a1,1,0,0,1,.45,1.48l-13.26,24.78a1.25,1.25,0,0,1-1.57.6l-10.09-4.37a1,1,0,0,1-.45-1.48l13.26-24.78A1.26,1.26,0,0,1,364.31,118.31Z" transform="translate(0 -3.2)"/><path d="M363.34,117.87l10.09,4.37a1,1,0,0,1,.45,1.48L360.62,148.5a1.26,1.26,0,0,1-1.58.6L349,144.73a1,1,0,0,1-.46-1.48l13.27-24.78A1.25,1.25,0,0,1,363.34,117.87Z" transform="translate(0 -3.2)"/><polygon class="cls-10" points="362.21 117.19 371.06 121.03 360.25 141.22 351.4 137.38 362.21 117.19"/><path class="cls-8" d="M354.31,132.4a16,16,0,0,1,4.27,1.59,2.26,2.26,0,0,1,1.1,2.53h0a2.26,2.26,0,0,1-1.91,1.7l-5.24.66s-2.74,4.71-6.31,5.24l3.28-8.28Z" transform="translate(0 -3.2)"/><path class="cls-11" d="M287.37,93.67c-.58,0,37.17,5.23,43.4,48.27l-19.59,3-3.95,32.49H252.59l-10.85-60a68.11,68.11,0,0,1,34.58-23.73Z" transform="translate(0 -3.2)"/><path class="cls-8" d="M291,94.29v-15H273.44V94.46a34.5,34.5,0,0,0-4.71,1.91l13.67,8.14,14-8.14A22.5,22.5,0,0,0,291,94.29Z" transform="translate(0 -3.2)"/><path class="cls-9" d="M273.28,81.16s3.14,8.36,11.54,7.64c7.72-.66,6.49-12.24,6.49-12.24Z" transform="translate(0 -3.2)"/><path class="cls-8" d="M265.64,70.05c-2.75,2.49-8.89-6.95-6.24-9.61S264.08,62,264.08,62l1.18,2.82.9,3.82.21,1Z" transform="translate(0 -3.2)"/><path class="cls-12" d="M260.68,63.79s2.08-.93,3.93,2.08" transform="translate(0 -3.2)"/><path class="cls-8" d="M298.11,69.77c2.52,2.71,9.44-6.18,7-9s-4.79,1.11-4.79,1.11l-1.41,2.71-1.22,3.73-.29,1Z" transform="translate(0 -3.2)"/><path class="cls-12" d="M303.57,64s-2-1.11-4.09,1.73" transform="translate(0 -3.2)"/><path d="M260.82,51.43c0,12.51,9.53,18.44,21.3,18.44s21.29-5.93,21.29-18.44-9.53-21-21.29-21S260.82,38.93,260.82,51.43Z" transform="translate(0 -3.2)"/><path class="cls-8" d="M263.71,52.3a85.76,85.76,0,0,0,2.17,19c1.06,4.6,4,7.82,8.26,10.41l.77.47a14.49,14.49,0,0,0,14.75.16h0c4.57-2.66,7.77-6.17,8.75-11.11a125.41,125.41,0,0,0,2-18.94s1.7-19.38-18.08-19S263.71,52.3,263.71,52.3Z" transform="translate(0 -3.2)"/><path class="cls-13" d="M280.85,63.36V66a1.15,1.15,0,0,0,1.51,1.11l1.23-.32" transform="translate(0 -3.2)"/><path d="M277.71,53l-9.83,2.31s.44-2.5,4.47-3.41S277.71,53,277.71,53Z" transform="translate(0 -3.2)"/><path d="M286.43,53l9.5,2.31s-.43-2.5-4.32-3.41S286.43,53,286.43,53Z" transform="translate(0 -3.2)"/><ellipse cx="273.97" cy="56.99" rx="1.66" ry="1.65"/><path d="M291.35,60.19a1.66,1.66,0,1,1-1.66-1.66A1.65,1.65,0,0,1,291.35,60.19Z" transform="translate(0 -3.2)"/><path class="cls-10" d="M275.63,70.28h12.79S282.75,77.17,275.63,70.28Z" transform="translate(0 -3.2)"/><circle class="cls-14" cx="273.28" cy="60.83" r="7.05" transform="translate(37.03 207.85) rotate(-45)"/><circle class="cls-14" cx="290.6" cy="60.83" r="7.05" transform="translate(42.1 220.1) rotate(-45)"/><path class="cls-14" d="M280.33,60.83a2.29,2.29,0,0,1,3.22,0" transform="translate(0 -3.2)"/><line class="cls-14" x1="266.22" y1="57.63" x2="264" y2="57.58"/><line class="cls-14" x1="297.65" y1="57.63" x2="299.88" y2="57.58"/><path d="M300.14,58.73S292.23,48,294.06,37.2a15.61,15.61,0,0,1,7.4,10.58C303,55.41,300.14,58.73,300.14,58.73Z" transform="translate(0 -3.2)"/><path d="M263.7,59.45s9.19-12.14,7.36-23a18.09,18.09,0,0,0-7.9,11.3C261.63,55.41,263.7,59.45,263.7,59.45Z" transform="translate(0 -3.2)"/><path d="M299.48,41.47s-10.16,11.12-37.94,9.21c0,0,4.25-16.31,17.72-18C279.26,32.63,294.8,30.77,299.48,41.47Z" transform="translate(0 -3.2)"/><circle cx="298.76" cy="28.47" r="13.27" transform="translate(223.05 315.69) rotate(-80.83)"/><path d="M136.81,175.09,112.1,171.8l.22-2.87-28.9,3.85s-15.77,42.27-1.73,130.15h20.1l7-89.11h2.57l7.24,89.11h20.1C152.74,215.05,136.81,175.09,136.81,175.09Z" transform="translate(0 -3.2)"/><path d="M134.84,54.86a45.45,45.45,0,0,1-8.3-15c-2.44-6.91-10.44-4.1-10.44-4.1s-6.67-8.58-16.7-5.59S85.88,40.32,85.68,48.81s-6.88,9.82-12,19.63c-9.08,17.34,6.2,31.93,34,27.88l0-.27a29,29,0,0,0,10.19,1C151.31,95,148.09,70.45,134.84,54.86Z" transform="translate(0 -3.2)"/><path class="cls-8" d="M123.9,67.71c2.74,2.49,8.88-7,6.23-9.61s-4.68,1.51-4.68,1.51l-1.18,2.82-.89,3.82-.22,1Z" transform="translate(0 -3.2)"/><path class="cls-12" d="M128.85,61.45s-2.08-.94-3.93,2.08" transform="translate(0 -3.2)"/><path class="cls-8" d="M91.42,67.42c-2.52,2.72-9.44-6.18-7-9s4.79,1.11,4.79,1.11l1.42,2.7,1.21,3.74.3,1Z" transform="translate(0 -3.2)"/><path class="cls-12" d="M86,61.6s2-1.1,4.09,1.74" transform="translate(0 -3.2)"/><path d="M128.71,49.09c0,12.51-9.53,18.44-21.29,18.44s-21.3-5.93-21.3-18.44,9.54-21,21.3-21S128.71,36.58,128.71,49.09Z" transform="translate(0 -3.2)"/><rect class="cls-8" x="98.58" y="73.8" width="17.52" height="22.69"/><path class="cls-9" d="M96,75.58s4.88,9.73,10.88,11.25a8.4,8.4,0,0,0,4.86-.28c2.25-.8,5.12-4.16,5.6-7.89l.23-2.13S106.91,82.34,96,75.58Z" transform="translate(0 -3.2)"/><path class="cls-8" d="M125.82,50a85,85,0,0,1-2.17,19c-1.06,4.61-4,7.82-8.26,10.41l-.76.48A14.51,14.51,0,0,1,99.87,80h0c-4.56-2.66-7.76-6.17-8.75-11.11a124.69,124.69,0,0,1-2-18.94s-1.71-19.38,18.08-19S125.82,50,125.82,50Z" transform="translate(0 -3.2)"/><path class="cls-15" d="M106.1,62.07v1.59a1.33,1.33,0,0,0,.08.45,1.2,1.2,0,0,0,1.43.66l1.23-.33" transform="translate(0 -3.2)"/><path d="M110.22,51.56l10.52,2.5s-.47-2.71-4.78-3.69S110.22,51.56,110.22,51.56Z" transform="translate(0 -3.2)"/><path d="M104.69,51.56,94,54.06s.49-2.71,4.85-3.69S104.69,51.56,104.69,51.56Z" transform="translate(0 -3.2)"/><path d="M100.87,58.1a1.66,1.66,0,1,1-1.65-1.65A1.65,1.65,0,0,1,100.87,58.1Z" transform="translate(0 -3.2)"/><path d="M116.59,58.1a1.66,1.66,0,1,1-1.65-1.65A1.65,1.65,0,0,1,116.59,58.1Z" transform="translate(0 -3.2)"/><path class="cls-10" d="M99.78,67.53h14.55s-1,4-7.62,4A7.72,7.72,0,0,1,99.78,67.53Z" transform="translate(0 -3.2)"/><path d="M89.39,56.39s7.91-10.7,6.09-21.53a15.57,15.57,0,0,0-7.4,10.58C86.55,53.07,89.39,56.39,89.39,56.39Z" transform="translate(0 -3.2)"/><path class="cls-16" d="M125.83,56s-9.18-11.06-7.36-21.9a18.09,18.09,0,0,1,7.9,11.31C127.9,53.07,125.83,56,125.83,56Z" transform="translate(0 -3.2)"/><path d="M90.06,39.13s9.07,12.2,36.86,10.29c0,0-3.18-17.39-16.64-19.13C110.28,30.29,94.73,28.43,90.06,39.13Z" transform="translate(0 -3.2)"/><path class="cls-8" d="M64.73,228.75c-.41.63,23.12-102.39,16.14-100.83-.64.14-12.88,1.28-14.69,5C60.9,143.61,57.12,228,57.12,228Z" transform="translate(0 -3.2)"/><path class="cls-8" d="M57.12,228s-3.79,17.6,10.55,19.53a2,2,0,0,0,2.17-1.34l0-.12a2,2,0,0,0-1.12-2.48c-2.33-1.05-6-3.69-4.16-9.69,0,0,2.07-.25,3.21,3.61a1.66,1.66,0,0,0,2.34,1h0a1.67,1.67,0,0,0,.9-1.7c-.34-2.71-1.71-9.22-6.93-11Z" transform="translate(0 -3.2)"/><path class="cls-9" d="M62,157.65s13.56,19.09,13.63,18.72,4.74-26.8,4.74-26.8l-16.45-7.13Z" transform="translate(0 -3.2)"/><path class="cls-5" d="M99.62,96c.58,0-33.51.6-39.74,43.64l19.59,3,4,32.49h54.65l10.85-60s-7.72-13-30.2-19.37Z" transform="translate(0 -3.2)"/><path class="cls-8" d="M83,101.15s4.82,6.39,24.55,6.39c19.56,0,24.56-6.73,24.56-6.73a84.29,84.29,0,0,0-24.91-8.52A88.7,88.7,0,0,0,83,101.15Z" transform="translate(0 -3.2)"/><polygon points="150.02 234.3 150.07 320.14 192.53 320.14 195.8 234.3 150.02 234.3"/><polygon points="242.22 234.3 242.17 320.14 199.71 320.14 196.45 234.3 242.22 234.3"/><rect x="175.12" y="234.3" width="43.9" height="29.82"/><line class="cls-17" x1="181.26" y1="264.12" x2="211.54" y2="264.12"/><path class="cls-8" d="M269.05,162.59c2.63,29.09-.15,50.28.62,103.8l-25.34,1.06-3.78-100.18Z" transform="translate(0 -3.2)"/><path class="cls-9" d="M243.68,185.29s15.69-1.44,26.42-8.52l-.28-6.22-26.15,3.56Z" transform="translate(0 -3.2)"/><path class="cls-18" d="M218.5,95.63s49.85,12.53,58.88,75.81c0,0-24.4,10.58-48.85,6L234,156.3Z" transform="translate(0 -3.2)"/><path class="cls-8" d="M69.59,121.94l37.12,43.83-11.36,32s-28.21-39.22-40.89-69.54Z" transform="translate(0 -3.2)"/><path class="cls-8" d="M70.81,123.52s-13,7.36-16.35,4.7c-5.79-4.66-10.58-21.7-10.58-21.7S68.25,97.34,68,97.69,70.81,123.52,70.81,123.52Z" transform="translate(0 -3.2)"/><path class="cls-8" d="M70.81,123.52c-.23-1.31,4.83-15.47,6.57-20.78a2.34,2.34,0,0,0-1.85-2.95h0a2.71,2.71,0,0,0-3,1.24L66.4,111.48Z" transform="translate(0 -3.2)"/><path class="cls-8" d="M70.36,108.22,66.17,87.33a2.63,2.63,0,0,0-3-2.08h0a2.26,2.26,0,0,0-1.86,2.51l1.83,15.55Z" transform="translate(0 -3.2)"/><path class="cls-8" d="M62,100.51,56.32,85.6A2.61,2.61,0,0,0,53.08,84h0a2.24,2.24,0,0,0-1.49,2.67l4.23,17.23Z" transform="translate(0 -3.2)"/><path class="cls-8" d="M55.89,104.91,48.68,90.26A2.86,2.86,0,0,0,45,88.86h0a2.49,2.49,0,0,0-1.29,3.29L49.48,106Z" transform="translate(0 -3.2)"/><path class="cls-8" d="M43.88,106.52l-5.66-9a2,2,0,0,1,1-2.71h0a2.32,2.32,0,0,1,2.83.82L49.48,106Z" transform="translate(0 -3.2)"/><path class="cls-8" d="M87.82,182.8s7,24.16,20.9,20.95,35.59-32.93,35.59-32.93l-4.85-50.73-39.05,48Z" transform="translate(0 -3.2)"/><path class="cls-9" d="M112.52,153.22S125.7,173.1,137,180.11l7.36-9.29-28.4-22Z" transform="translate(0 -3.2)"/><path class="cls-18" d="M170.2,94.53s-38.71,8.72-59.33,53.7c0,0,12.46,18.78,32.44,27.13L156.68,159Z" transform="translate(0 -3.2)"/><path class="cls-18" d="M170.2,94.39a97.15,97.15,0,0,0-24.63,18l3,131.49h95.27l-.31-130.81s-12-11.75-25-17.48C207.44,90.76,180.94,88.88,170.2,94.39Z" transform="translate(0 -3.2)"/><path d="M171.31,46.37l-4-19.65c-.22-1.6-.84-4.07-.08-6.39,1.26-3.84,5.88-11.22,13.78-7.84l1.71,7.78s-8.21,1.66-11.5,12.39Z" transform="translate(0 -3.2)"/><path class="cls-16" d="M180.46,16.55c-.15,2.58-2.42,13.87-10.43,18C170,34.54,163,19.49,180.46,16.55Z" transform="translate(0 -3.2)"/><path class="cls-8" d="M208.56,90.77h0V57.41H177.81V90.77L168.65,95s2.15,13.82,24.86,14.13,25-13.45,25-13.45Z" transform="translate(0 -3.2)"/><path d="M181,12.49s5.65-14.89,23.05-7c10.54,4.79,13.49,11.21,14.74,15.76a18,18,0,0,1,.47,5.31l-4.21,19.78L198.65,19l-15.9,1.26Z" transform="translate(0 -3.2)"/><path class="cls-8" d="M215.09,46.37a5.13,5.13,0,0,1,6.35-1.68c4.28,1.62,2.34,12-4.07,13.33a5.08,5.08,0,0,1-4.1-1.07S214.84,49.28,215.09,46.37Z" transform="translate(0 -3.2)"/><path class="cls-19" d="M220.59,48.35s-3.58-1.19-6.12,4.08" transform="translate(0 -3.2)"/><path class="cls-8" d="M171.31,46.37A5.12,5.12,0,0,0,165,44.69c-4.27,1.62-2.34,12,4.08,13.33a5.08,5.08,0,0,0,4.1-1.07S171.56,49.28,171.31,46.37Z" transform="translate(0 -3.2)"/><path class="cls-19" d="M165.81,48.35s3.58-1.19,6.13,4.08" transform="translate(0 -3.2)"/><path class="cls-8" d="M215.52,36.51c0,6.26-.61,19.36-4.46,27.14-3.62,7.3-9.59,11.22-17.43,11.46S180,72.32,175.28,62.85s-4.46-26.22-4.46-26.22,0-22.37,22.11-22.37C216.21,14.26,215.52,36.51,215.52,36.51Z" transform="translate(0 -3.2)"/><path class="cls-9" d="M178,67.52s2.57,13.07,14,14.57c13.09,1.73,16.57-14.24,16.57-14.24s-5.78,7.25-14.93,7.26A20,20,0,0,1,178,67.52Z" transform="translate(0 -3.2)"/><path class="cls-19" d="M191.59,45.8V51a1.63,1.63,0,0,0,2.11,1.55l1.72-.45" transform="translate(0 -3.2)"/><path d="M185.07,43.32a2,2,0,1,1-2-2A2,2,0,0,1,185.07,43.32Z" transform="translate(0 -3.2)"/><path d="M203.93,43.32a2,2,0,1,1-2-2A2,2,0,0,1,203.93,43.32Z" transform="translate(0 -3.2)"/><path d="M196.77,33.31l13.53,3.5s-.61-3.8-6.15-5.18S196.77,33.31,196.77,33.31Z" transform="translate(0 -3.2)"/><path d="M188.36,33.31l-13.53,3.5s.62-3.8,6.15-5.18S188.36,33.31,188.36,33.31Z" transform="translate(0 -3.2)"/><path class="cls-19" d="M185.67,56.19s2,1.53,7.25,1.53a18.33,18.33,0,0,0,7.75-1.53" transform="translate(0 -3.2)"/><circle class="cls-20" cx="182.51" cy="40.72" r="8.55"/><circle class="cls-20" cx="203.52" cy="40.72" r="8.55"/><path class="cls-20" d="M191.06,43.91a2.79,2.79,0,0,1,3.91,0" transform="translate(0 -3.2)"/><line class="cls-20" x1="173.96" y1="40.72" x2="171.09" y2="40.64"/><line class="cls-20" x1="212.07" y1="40.72" x2="215.27" y2="40.66"/><path d="M178,17.06s4.1,11.66,22.63,11.31c12.6-.25,15.61,8.86,15.61,8.86s-2.2-20.37-2.77-20.17-19.16-5-19.16-5Z" transform="translate(0 -3.2)"/></g></g></g></svg>