<svg xmlns="http://www.w3.org/2000/svg" viewBox="0 0 337.15 387.4"><defs><style>.cls-1{fill:#ffbe9d;}.cls-2{fill:#eb996e;}.cls-3{fill:#e63429;}.cls-4{fill:#004b93;}.cls-5{fill:#ffd444;}.cls-6{fill:#007e48;}.cls-7{fill:#992525;}.cls-8{fill:#fff;}</style></defs><title>dibujo 3</title><g id="Capa_2" data-name="Capa 2"><g id="Esquema"><path class="cls-1" d="M281.56,195.63c-.39,2.65-3.42,5.73-6.66,8-3.48,2.48-4.87,5-6.11,6.3-.46.53-.74.81-.74.81l-3.71-4.32a1.11,1.11,0,0,0,.17-.16,30.11,30.11,0,0,0,4.34-5.72c3.08-5.64,7.39-6.47,7.39-6.47S280.35,194.71,281.56,195.63Z"/><path class="cls-2" d="M89.58,249.86l2.51,2s6.87-2.47,8.42,5.7c0,0,.42,3.48-1.79,3.49s-1.29-.39-4.41-.29-5.71-1.56-6.17-4.09l-1.49-2.15Z"/><path class="cls-3" d="M89.3,254.24c2-2.1,1.84-3.64,1.84-3.64s-23.21-19-25.56-20.55C64,229,47.81,213.51,38.9,204.61c-4.28-4.28-8.87-2.8-14.48-1.19l-4.63,1.33c-5.58,1.6-7,9.41-2.45,13.2,12.9,10.69,34.37,22.71,38.38,25.24,10,6.27,29.49,13.72,29.49,13.72A12.52,12.52,0,0,0,89.3,254.24Z"/><path d="M115.77,371s5.64,4.22,14.26,2c0,0,7-1.59,8.49,1.88,0,0-10.67,5.42-13.37,6.91a31.89,31.89,0,0,0-5.66,4.24,2.8,2.8,0,0,1-4-.31c-.47-.58-1-1.27-1.6-2.06-1.64-2.23-5.48-9.44-5.48-9.44Z"/><path class="cls-4" d="M119.08,368.81s-3.43,7.9-11.34,6.45c0,0-16.15-13.34-27.23-27.19a61.68,61.68,0,0,1-8.46-13.23c-7.35-17-27.18-42.38-39.79-55.23L63.81,268.2s10.1,20.32,23.54,45.28C97,331.47,108.46,351.87,119.08,368.81Z"/><path d="M61.57,375.54s-.34,6.31,7.3,7.15c0,0,4.37,0,4.39,4L51,386.8a17.06,17.06,0,0,1-.8-5.09c-.12-2.67,2.58-9.63,2.58-9.63Z"/><path class="cls-4" d="M53.46,268.2s14.05,15.44,23,43.25c4.85,15.14-8.89,53.19-11.57,66.41,0,0-9.23.78-15.53-1.66,0,0-.48-27.3,3.21-48.35,2.06-11.78-18.5-25.19-27.49-46.47-6.11-14.48,1.32-14.24,10.46-14.58Z"/><path class="cls-1" d="M37.24,199.31c-7.82,4.42-23.82.35-23.82.35s6.5-7.44,3.54-19.4l6.14,3.11,6.59,3.35a54.68,54.68,0,0,1,.73,5.91c.07,1,.14,2.07.19,3.27A20.44,20.44,0,0,1,37.24,199.31Z"/><path class="cls-3" d="M65.91,267.4c0,1.37-1.59,2-1.92,2.1-3.16.57-12,4-19.89,4.78A63.51,63.51,0,0,1,24.41,273c-.9-.18-3-.75-3.17-1.61s-26.28-53.18-6-75.62c.48-.53,4.48.42,8.14,1.29a15,15,0,0,0,9.25-.76l3.44,1.81c4.21,2.35,12.19,10.69,13.12,17.24.48,3.33,2.38,5.8,2.93,8.73.21,1.08.42,2.14.63,3.17.42,2,.84,4,1.28,5.78,1.2,5,2.46,9.22,3.69,12.91,1.32,3.91,2.61,7.16,3.76,9.88C63,259.3,64.24,261.94,65,264A10,10,0,0,1,65.91,267.4Z"/><path class="cls-5" d="M111.74,255.4H91.41A35.41,35.41,0,0,1,56.05,220V153.8a35.4,35.4,0,0,1,35.36-35.37h20.33a35.41,35.41,0,0,1,35.37,35.37V220A35.41,35.41,0,0,1,111.74,255.4ZM91.41,139.32A14.49,14.49,0,0,0,76.94,153.8V220a14.49,14.49,0,0,0,14.47,14.48h20.33A14.49,14.49,0,0,0,126.22,220V153.8a14.49,14.49,0,0,0-14.48-14.48Z"/><path class="cls-5" d="M325,199.11H138.52v-24.4H325a12.21,12.21,0,0,1,12.2,12.2h0A12.2,12.2,0,0,1,325,199.11Z"/><path class="cls-5" d="M301.55,194.2h19.58a0,0,0,0,1,0,0v48.33a9.28,9.28,0,0,1-9.28,9.28h-1a9.28,9.28,0,0,1-9.28-9.28V194.2a0,0,0,0,1,0,0Z"/><path class="cls-1" d="M86.57,253.9l3.19,1.17s6.37-4.51,10.34,2.82c0,0,1.43,3.2-.84,3.9s-1.45,0-4.64,1.1-6.34.3-7.54-2l-2.17-1.59Z"/><path class="cls-3" d="M89.19,258.4c1.18-3.07,1.72-4.46,1.72-4.46s-24-19.6-26.5-21.28c-1.67-1.14-18.29-13.57-26.39-23.25a17,17,0,0,0-16.49-5.71l-5.05,1.06a7.5,7.5,0,0,0-3.34,13c13.31,11.42,35.77,24.66,40,27.41,10.39,6.84,33.39,16.42,33.39,16.42A5.93,5.93,0,0,0,89.19,258.4Z"/><path class="cls-2" d="M30.42,192.63c-7.69.43-12.69-5.91-12.69-5.91a60.28,60.28,0,0,0,5.37-3.35l6.59,3.35A54.68,54.68,0,0,1,30.42,192.63Z"/><path class="cls-1" d="M33.69,184.74S22,193.1,17,185.77s-10-11.2-2.81-16.85,10.63-3.86,12.93-1.83S36.59,182.38,33.69,184.74Z"/><path d="M28.3,160.47a18.74,18.74,0,0,0-1.36-4.8s-.73,3-6.27,2.61-14.3.54-17.22,6.85a10.36,10.36,0,0,0-.5,1.24,14.68,14.68,0,0,1-.66-3.5,10.78,10.78,0,0,0,0,6.11h0c0,.1,0,.2,0,.3C1,170.31,0,173.52,0,173.52a3.88,3.88,0,0,1,2.07-1.84c0,4.91,2,9.71,5.46,11.14,5.1,2.08,5.06.49,10.2,3.9,0,0,1.38-1.71.44-2.86s-4.49-2.82-2.51-4.49,2.72.21,3.45-.94-2.93-4.49,1.77-7.62S28.71,163.29,28.3,160.47Z"/><path class="cls-3" d="M232.33,380.2,228,381.79s-18.64-25.85-20.94-48.6a34.73,34.73,0,0,1,.61-11.63l-.5-2.88c-.14-.86-.33-1.89-.53-3.07-.61-3.48-1.44-8.23-2.4-13.64-2.19-12.45-5-28.36-7.24-40.06l1.16-.37,12.51-4,2.59-8.21,9.31-2.46s2.08,4.08,3.94,23.31c.35,2.52.66,5.3.89,8.32a164.61,164.61,0,0,1-.88,33.69c-.43,3.34-1,6.79-1.64,10.34a46.54,46.54,0,0,0-.36,10.21C225.5,351.3,232.33,380.2,232.33,380.2Z"/><path class="cls-3" d="M218.54,252l-.46-4c-7.85,2.08-28.82-5.82-28.82-5.82s-7.6,6.68-6.6,22.69c.49,7.82,1.38,41,2.31,50.87.33,3.57.63,6.1.75,7.11h0a1.36,1.36,0,0,1-.23.87,46.2,46.2,0,0,0-3.43,7.22c-9.12,24.3,1.41,54.24,1.41,54.24l2.73-1.1s6-33.32,10.86-48a28.38,28.38,0,0,1,2.34-5.63c2.12-3.42,4.08-9,5.86-15.64,3.37-12.55,6.08-28.87,7.89-41.47C213.4,273.31,218.54,252,218.54,252Z"/><path class="cls-4" d="M266.42,202.16a21.66,21.66,0,0,1,7,5.12S260,230.62,252.32,234c-4.23,1.87-17.46-12.27-20.2-20.19-.67-1.94,1.8-8.41,1-9.77a13.76,13.76,0,0,1-1.8-5.07,2.35,2.35,0,0,1-.08-.71,11.41,11.41,0,0,1,.24-4.05c.31-.78,1.17-1.12,2.46-1.1h.46c6.93,4.08,16,24.11,17.53,24.57C255.84,212.73,266.42,202.16,266.42,202.16Z"/><path class="cls-1" d="M233.53,203.28a24.49,24.49,0,0,1-9,2.12c-13.49.74-16.55-11.09-17.11-18.94a11.24,11.24,0,0,1,4.63-.58c.95.05,1.95.15,2.78.25,1.65-.86,4.61-5,6.32-12l.59.27,9.73,4.57s-1,3.17-1.8,6.2c-.59,2.37-1,4.66-.66,5.3l1.22.51h0A67.53,67.53,0,0,1,233.53,203.28Z"/><path class="cls-4" d="M236.91,212.13c-.1.27-.22.53-.34.8-3.41,7.36-9.74,37.84-9.74,37.84.9,5.48-41.18-1.07-41.29-6.06-1.48-5.29,5.26-13.79,9.06-18.06a11.23,11.23,0,0,0,1.27-1.72,11.93,11.93,0,0,0,1.73-5c.74-7.07-2-23.38-1.28-26.53.29-1.24,5.86,5.81,6.53,5.11a3.92,3.92,0,0,0,1.24-2.45A12.92,12.92,0,0,0,204,194c0-.32-.08-.65-.12-1-.53-3.43-7.08-2-7.08-2,2.4-5.78,15.18-5.32,15.18-5.16s0,.35,0,.94c0,2.35,0,8.39.75,9.53.94,1.42,18.18,7.66,19.1,5.73s-1.56-10.8-1.65-11.14h0a34.63,34.63,0,0,1,4.19,2.19C236.55,197.46,239.6,205,236.91,212.13Z"/><path d="M225.29,148.55c0-.58-.47-6.89-10.07-7.22,0,0,4.72.57,5.54,2.64,0,0-3.22-2.56-5.84-1.74s-4.15,5.41-4.17,6.92,1.44,6.37,3.1,6.79a5.28,5.28,0,0,0,2,0,20.48,20.48,0,0,0-1.29,2.3c-3.83,7.86.12,15.55,3.36,14.7,2.08-.55,2.67,3,2.67,3l20.2-16.35S233.39,144.23,225.29,148.55Z"/><path class="cls-2" d="M231.44,178.92s-1,3.17-1.8,6.2c-5.69-1.59-7.42-7.57-7.94-10.77Z"/><path class="cls-1" d="M232.64,182.27s-13.62-3.15-11.52-11.59,1.74-14.55,10.52-12.89,9.66,5.29,9.65,8.28S236.23,182.88,232.64,182.27Z"/><path d="M242.06,161.28c-1.47-3.06-3.19-2.9-4.27-2.36a9.75,9.75,0,0,0-12.66-1.08,16.68,16.68,0,0,1-7.65,8.22s2.09,2.14,8.15,2.09a10.07,10.07,0,0,0,5.41-2,32.83,32.83,0,0,1-7.1,5.3c7.59-1.45,12.67-10.24,13.19-11.17a10.83,10.83,0,0,1,2,4.67c.14,2.32-.66,6.83.67,7C239.78,171.91,244.25,165.87,242.06,161.28Z"/><path d="M199.35,387.4H177.73a11.84,11.84,0,0,1,.61-5.79c1.08-2.4,2.78-3.49,2.37-6.39a7.81,7.81,0,0,0,6.74,2.57c.38.62,2.47,3.95,3.75,4.87S198.91,383.31,199.35,387.4Z"/><path d="M245.76,387.4H224.14s-.8-3.45.62-5.79c1.25-2.08.77-3.26-.16-5a8.42,8.42,0,0,0,3.64.69,7.65,7.65,0,0,0,3.21-1.13,81.26,81.26,0,0,0,6.16,6.47C239,383.67,245.33,383.31,245.76,387.4Z"/><polygon class="cls-5" points="275.16 199.12 308.06 199.12 306.24 186.35 276.86 187.53 275.16 199.12"/><path class="cls-1" d="M280.94,174.71c-1.53,1.53-1.5,6.43-4.73,8.73-3.48,2.49-4.88,5-6.11,6.3-.46.53-.74.81-.74.81l-3.72-4.32a1.11,1.11,0,0,0,.17-.16,30.06,30.06,0,0,0,4.35-5.72c3.08-5.64,7.38-6.47,7.38-6.47A6.26,6.26,0,0,1,280.94,174.71Z"/><path class="cls-4" d="M267.92,182.84,273.4,189s-14.65,12.76-17.71,15.41a34.23,34.23,0,0,1-5.9,4.22c-.17.09-.32.15-.51.23-4.3,1.88-13.59,1.67-22.88.3-1.28-.19-2.55-.4-3.78-.6a88.4,88.4,0,0,1-12.52-3.05,34.14,34.14,0,0,1-5.52-2.21,16.28,16.28,0,0,1-1.45-.81c-7.26-4.35-6.9-8.39-6.77-9.84a5,5,0,0,1,3.61-4.15c5.76-1.87,25.08,5.58,27.93,6.12,1.71.36,6.15,1.93,7.65,2.21a43.91,43.91,0,0,0,6.84.84,15.61,15.61,0,0,0,5.13-1.62C251.42,194.31,267.92,182.84,267.92,182.84Z"/><path class="cls-2" d="M270.07,201.34a4.79,4.79,0,0,1-.5-2,11.19,11.19,0,0,1,2.56-3.82c.52-.35,1.21-1.24,1.37-.65a10.29,10.29,0,0,1-1.54,4.87A4.72,4.72,0,0,1,270.07,201.34Z"/><path class="cls-5" d="M126.74,113.24c-4.61,8-10.41,11.12-10.41,11.12H92.2S130.26,107.11,126.74,113.24Z"/><path class="cls-1" d="M109.64,175.76c-.63.72-1.17.68-.86,1.54l.14.43c.58,1.59,1.67,2.71,3.87,4.48.29.23.57.42.79.61.06.05.45.13.51.18s.38.75.43.79a64.8,64.8,0,0,1,5.34,5.2c4.22,4.39,4.09,3.93,4.92,3.53s1-1.16-.59-3.77c-.07-.13-.15-.26-.23-.38l-.62-1.06c-1.85-3.14-1.37-4.62-.94-9.31.36-3.81,5.93-21.28,5.93-21.28l-8.09-1.39s-2.43,13.91-5.11,16c-1.44,1.14-3,1.16-4.42,2a2.9,2.9,0,0,0-.29.19C109.64,174.08,110.27,175,109.64,175.76Z"/><path d="M108.21,175.34a2.24,2.24,0,0,0-.4,2.39h0c.7,1.59,2.55,3.36,4.69,5.13.28.23.52.44.74.64l.17.15.13.12c2.06,1.9,1.29,2.33,5,6.18,4.22,4.39,7.12,4.47,7.95,4.07s-.72-2.67-2.3-5.28a18,18,0,0,1-7.52-5.54c-2.54-3.25-4.23-7.41-6-9.83a2.9,2.9,0,0,0-.29.19A10.42,10.42,0,0,0,108.21,175.34Z"/><path class="cls-1" d="M174.91,169.81c.5,2.5,2.12,1.8,6.09.82s3.06,0,8.71-.64,6.18-1.53,6.35-2.37-1-1.25-4-1.59l-1.13-.14c-3.39-.42-5.87-2.61-8.94-4.4-2.91-1.7-7.26-8.62-7.26-8.62l-7.76.61s4.07,6.18,5.65,8.87a9.48,9.48,0,0,1,.76,5.29C173.29,168.52,174.73,168.93,174.91,169.81Z"/><path d="M181.44,171.4c4-1,3,.18,8.69-.44s7.37-2.74,7.54-3.58-2.64-1-5.64-1.35l0,.05a16,16,0,0,1-8.11,2.52c-3.83.1-7.9-1-10.55-1a9.81,9.81,0,0,0,.06,2.65C173.91,172.79,177.47,172.37,181.44,171.4Z"/><path class="cls-6" d="M143.68,120.68l-7.26,19.52L127,165.68a15.27,15.27,0,0,1-5-.46,21.53,21.53,0,0,1-4.87-2.37s2.63-27.36,7.53-43.06c1.26-4,2.67-7.29,4.22-9.13C136.42,101.67,143.68,120.68,143.68,120.68Z"/><path class="cls-6" d="M136.3,89.69c-4.75-1.53-18.3.44-31.91,3.1l-2.85-4.7-29.41-2.3S62.44,107.3,67.74,121c1.29,3.34,5.5,3.34,5.5,3.34H96.33c14.62,0,31-10,33.06-10.47,3.46-.7,4.84,6.22,8.3,13.48s32.49,32.14,32.49,32.14,4.46.05,6.3-.64a6.23,6.23,0,0,0,2.71-1.71S147,93.15,136.3,89.69Z"/><path d="M98.41,1.74A10.45,10.45,0,0,0,92.76.28,17.61,17.61,0,0,1,90,.1C78.81-1.4,72.1,14.79,71.71,19.7c-.73,9-5.51,10.42-12.25,16.08C46,47.14,49.92,60.33,57.3,65.23c4.43,3,12.24,0,12.24,0s21.35-11.87,31.82-17.64C117.06,45.36,104.72,5.5,98.41,1.74Z"/><path class="cls-1" d="M92.59,42.69S87.43,44.49,84,43c-3.27-1.44-5.75-6.82-5.7-6.83,1.49-.06,3.12-1.36,4.38-9.9l.63.23,10.65,3.83S93.15,33.7,92.65,37C92.23,39.68,92,42.3,92.59,42.69Z"/><path class="cls-2" d="M93.92,30.28S93.15,33.7,92.65,37c-6.12-1.1-8.52-7.19-9.38-10.5Z"/><path class="cls-1" d="M95.51,33.67s-14.57-2-13.22-11,.4-15.4,9.76-14.54,10.64,4.59,10.92,7.73S99.33,34,95.51,33.67Z"/><path d="M102.44,10.88s-9.32,8-15.67,8.69S78,18.18,78,18.18a24.72,24.72,0,0,0,6-8.11,4.47,4.47,0,0,1,3.68-2.63C92.22,7,100.81,6.87,102.44,10.88Z"/><path d="M96.61,10.16s3.12,3,4.11,5.26,1.23,7.32.47,9.37c0,0,4.86-9.45,2.11-14C100.38,5.88,96.61,10.16,96.61,10.16Z"/><path class="cls-3" d="M104.86,64.15c-.45,29.49-.13,23.33-3.35,26.13-.78.67-3,1.08-5.84,1.27-9,.6-24.94-.89-25.55-2.57C68,83.2,69.51,81.4,67.77,72.55c-.18-.94-.41-2-.67-3.07-1.45-6.08-2.86-8.15,2.28-17.92,4.67-8.85,9.52-16,10-15.77C91.66,43.1,92.65,37,92.65,37S105.07,49.76,104.86,64.15Z"/><path class="cls-6" d="M136.42,140.2,127,165.68a15.27,15.27,0,0,1-5-.46,21.53,21.53,0,0,1-4.87-2.37s2.63-27.36,7.53-43.06Z"/><path class="cls-3" d="M92.65,37s12.68,2.15,14.16,7.61L117.06,82.1s-6.44,1.15-9.42-1.82S97.28,52.66,97.28,52.66Z"/><path class="cls-7" d="M95.67,91.55c-9,.6-24.94-.89-25.55-2.57C68,83.2,69.51,81.4,67.77,72.55l4.36-12.28S71.41,74,75.44,77.54,92,84.49,93.92,87.49A10.94,10.94,0,0,1,95.67,91.55Z"/><path class="cls-1" d="M85.31,85.79s8.92-2,10.36-1.19,5,3.67,5.4,4.68-3.21-.77-4.39-1.08c-.77-.21-2.79.49-3.79.83-4.21,1.4-6.79.68-6.79.68Z"/><path class="cls-3" d="M79.33,35.78s-12,.74-16.13,6.52c-5.83,8.15-17.41,42.85-10.78,47.48,7.48,5.21,34,1.36,34,1.36S87.32,87,86.1,85,64.89,79.79,64,78.87s11.52-18,11.52-20.74S79.33,35.78,79.33,35.78Z"/><path class="cls-1" d="M96.1,87.08a17.46,17.46,0,0,0,2.48,2.7,1.85,1.85,0,0,0,1,.22l-1.26-2.27Z"/><path class="cls-1" d="M95.67,84.6l5.43,2.64a1,1,0,0,1-.9.34,12.93,12.93,0,0,1-2.35-.64Z"/><polygon points="98.58 93.47 141.58 93.47 154.51 61.31 111.58 61.31 98.58 93.47"/><polygon class="cls-4" points="142.08 92.22 85.31 92.22 85.31 93.47 141.58 93.47 142.08 92.22"/><path class="cls-8" d="M130.73,77.39a1.49,1.49,0,0,0-1.47-2,2.93,2.93,0,0,0-2.63,2,1.49,1.49,0,0,0,1.46,2A3,3,0,0,0,130.73,77.39Z"/></g></g></svg>