<svg xmlns="http://www.w3.org/2000/svg" xmlns:xlink="http://www.w3.org/1999/xlink" viewBox="0 0 22.35 373.64"><defs><style>.cls-1{fill:#70c2ee;stroke:#0071bd;stroke-miterlimit:10;stroke-width:0.32px;}.cls-2{fill:#fff;}.cls-3{fill:url(#linear-gradient);}.cls-4{fill:url(#linear-gradient-2);}</style><linearGradient id="linear-gradient" x1="2875.36" y1="492.38" x2="2876" y2="492.38" gradientTransform="matrix(34.46, 0, 0, -34.46, -99074.34, 17215.16)" gradientUnits="userSpaceOnUse"><stop offset="0" stop-color="#03b7ff"/><stop offset="0.01" stop-color="#03b7ff"/><stop offset="1" stop-color="#00568f"/></linearGradient><linearGradient id="linear-gradient-2" x1="2520.14" y1="556.32" x2="2520.78" y2="556.32" gradientTransform="matrix(8.25, 0, 0, -8.25, -20791.96, 4839.85)" gradientUnits="userSpaceOnUse"><stop offset="0" stop-color="#d4edff"/><stop offset="0.01" stop-color="#d4edff"/><stop offset="1" stop-color="#34a0ec"/></linearGradient></defs><title>barra scroll</title><g id="Capa_2" data-name="Capa 2"><g id="Home_v.5" data-name="Home v.5"><rect class="cls-1" x="0.16" y="0.16" width="22.03" height="373.32"/><polygon class="cls-2" points="11.18 368.75 18.9 360.37 18.9 356.86 11.18 364.87 3.45 356.72 3.45 360.37 11.18 368.75"/><polygon class="cls-2" points="11.18 3.86 3.45 12.24 3.45 15.75 11.18 7.74 18.9 15.88 18.9 12.24 11.18 3.86"/><path class="cls-3" d="M11.18,323.44h0a11,11,0,0,1-11-11V187a11,11,0,0,1,22,0V312.42A11,11,0,0,1,11.18,323.44Z"/><path class="cls-4" d="M4.33,317.13h0a2.64,2.64,0,0,1-2.64-2.64V184.88a2.64,2.64,0,1,1,5.27,0V314.49A2.64,2.64,0,0,1,4.33,317.13Z"/></g></g></svg>