<svg xmlns="http://www.w3.org/2000/svg" viewBox="0 0 23.35 28.12"><defs><style>.cls-1{fill:#004a91;stroke:#004a91;stroke-linecap:round;stroke-linejoin:round;stroke-width:1.28px;}</style></defs><title>flecha 1</title><g id="Capa_2" data-name="Capa 2"><g id="Home_v.5" data-name="Home v.5"><path class="cls-1" d="M21.93,24.9a1.43,1.43,0,0,1,.78,1.25,1.46,1.46,0,0,1-.16.63H22.4c-.16.55-.63.7-1.18.7a2.1,2.1,0,0,1-.7-.08L1.58,15.66a1.77,1.77,0,0,1-.94-1.48,2.05,2.05,0,0,1,.94-1.72L20.52.87a2.14,2.14,0,0,1,.94-.23,1,1,0,0,1,.94.62l.15.08a1.83,1.83,0,0,1,.16.63,1.24,1.24,0,0,1-.78,1.17L4.16,14Z"/></g></g></svg>