<svg xmlns="http://www.w3.org/2000/svg" viewBox="0 0 43.04 48.77"><defs><style>.cls-1{fill:#70c2ee;}.cls-2{fill:#004b93;}.cls-3{fill:#0095d4;}.cls-4{fill:#93d5f6;}</style></defs><title>ícono Participa</title><g id="Capa_2" data-name="Capa 2"><g id="Diseño_de_Marca" data-name="Diseño de Marca"><polygon class="cls-1" points="19.92 8.54 14.46 11.69 7.39 15.77 7.39 19.06 7.39 23.93 7.39 32.08 7.39 40.62 0 36.35 0 23.93 0 11.5 10.76 5.29 19.92 0 19.92 8.54"/><polygon class="cls-2" points="41.44 37.27 32.28 42.56 21.52 48.77 14.79 44.88 14.79 36.35 21.52 40.23 28.58 36.16 34.05 33 41.44 37.27"/><polygon class="cls-3" points="23.11 0 32.28 5.29 43.03 11.5 43.03 23.93 43.03 34.51 35.64 30.24 35.64 23.93 35.64 15.77 28.58 11.69 23.11 8.54 23.11 0"/><polygon class="cls-4" points="21.52 16.16 24.88 18.11 28.24 20.05 28.24 23.93 28.24 27.8 24.88 29.75 21.52 31.68 18.16 29.75 14.8 27.8 14.8 23.93 14.8 20.05 18.16 18.11 21.52 16.16"/></g></g></svg>