<svg xmlns="http://www.w3.org/2000/svg" viewBox="0 0 164.33 252.3"><defs><style>.cls-1{fill:#969696;}.cls-10,.cls-2{fill:#fff;}.cls-3{fill:#263238;}.cls-4{fill:#004b81;}.cls-5{fill:#004a91;}.cls-6{fill:#00b7ff;}.cls-7{fill:#ffbe9d;}.cls-8{fill:#37474f;}.cls-9{fill:#eb996e;}.cls-10{opacity:0.4;}.cls-10,.cls-11,.cls-12{isolation:isolate;}.cls-11{opacity:0.3;}.cls-12{opacity:0.2;}</style></defs><title>mono 3</title><g id="Capa_2" data-name="Capa 2"><g id="Home_v.5" data-name="Home v.5"><path class="cls-1" d="M98.36,6.12h0C97.75,4,93.42-.08,89.1,0a3.87,3.87,0,0,0-1.21.23L4.05,47.94A8,8,0,0,0,.83,51.39,8.13,8.13,0,0,0,0,54.91V236.27c0,4.62,5.33,9,10.32,6.91h0a2.26,2.26,0,0,0,.33-.13L94.5,195.24a8.05,8.05,0,0,0,4-7V7A1.86,1.86,0,0,0,98.36,6.12Z"/><path class="cls-2" d="M11.69,74.08a4,4,0,0,1,2-3.49L91.55,26.3a2,2,0,0,1,2.75.77,1.91,1.91,0,0,1,.26,1v146.2a4,4,0,0,1-2,3.49L14.69,222.14a2,2,0,0,1-2.74-.79,1.89,1.89,0,0,1-.26-1Z"/><path class="cls-3" d="M0,54.91V236.27c0,4.62,5.33,9,10.32,6.91h0A2,2,0,0,1,7.75,242a1.81,1.81,0,0,1-.12-.64V59.93A8,8,0,0,1,9,55.49L.77,51.39A8.07,8.07,0,0,0,0,54.91Z"/><path d="M89.1,0a3.63,3.63,0,0,0-1.22.24L4.05,47.94A8,8,0,0,0,.83,51.39L9,55.49A8,8,0,0,1,11.73,53L95.58,5.25a2,2,0,0,1,2.74.8.25.25,0,0,1,0,.07h0C97.76,4,93.43-.09,89.1,0Z"/><path class="cls-3" d="M63.47,35.2c.58-.34,1.07-.08,1.07.6a2.4,2.4,0,0,1-1,1.86L47.06,47.15c-.6.34-1.07.06-1.07-.62a2.31,2.31,0,0,1,1.06-1.84Z"/><path class="cls-3" d="M42.79,47.14c.59-.35,1.06-.08,1.07.6a2.36,2.36,0,0,1-1.07,1.85c-.58.34-1.07.06-1.07-.61A2.35,2.35,0,0,1,42.79,47.14Z"/><path class="cls-3" d="M53.32,33.82c1.18-.67,2.13-.14,2.13,1.21a4.72,4.72,0,0,1-2.12,3.7c-1.18.67-2.15.12-2.15-1.23A4.7,4.7,0,0,1,53.32,33.82Z"/><path d="M53.33,204.55c2.39-1.38,4.33-.28,4.33,2.47a9.56,9.56,0,0,1-4.31,7.53C51,215.89,49,214.8,49,212A9.58,9.58,0,0,1,53.33,204.55Z"/><path class="cls-4" d="M52.34,76.6c.28-.16.4,0,.4.37v.56a.91.91,0,0,1-.46.89L52,78.6V76.83Z"/><path class="cls-2" d="M31.61,140.66c.67-.41,1.26-.08,1.26.72v6.27a2.78,2.78,0,0,1-1.26,2.18l-5.68,3.28c-.67.4-1.26.08-1.26-.72v-6.28a2.73,2.73,0,0,1,1.26-2.17Z"/><path class="cls-2" d="M31.55,120.22c.46-.27.87-.22,1.09.09l-4.28,6.93L27,126.36l-2.14.57,3.64,3.29L32.81,122v5.25a2.76,2.76,0,0,1-1.25,2.18l-5.68,3.28a.78.78,0,0,1-1.27-.72v-6.29a2.77,2.77,0,0,1,1.25-2.17Z"/><path class="cls-2" d="M75,162.15a1.29,1.29,0,0,1,1.27-.14c.67.41.67,1.7,0,2.91A3.71,3.71,0,0,1,75,166.27a1.28,1.28,0,0,1-1.27.12c-.67-.39-.67-1.69,0-2.9A3.6,3.6,0,0,1,75,162.15Z"/><path class="cls-2" d="M79.47,165.87c.2.13.2.52,0,.89a1.1,1.1,0,0,1-.39.41.37.37,0,0,1-.38,0L76.59,166a5.62,5.62,0,0,1-1.61,1.5,2,2,0,0,1-2,.2c-1.12-.64-1.13-2.74,0-4.68a5.89,5.89,0,0,1,2-2.13,2.09,2.09,0,0,1,2-.22c1,.57,1.12,2.27.36,4Zm-3.23-1c.67-1.2.67-2.5,0-2.9a1.26,1.26,0,0,0-1.27.13,3.53,3.53,0,0,0-1.25,1.35c-.68,1.2-.68,2.5,0,2.9a1.25,1.25,0,0,0,1.26-.13,3.63,3.63,0,0,0,1.26-1.35"/><path class="cls-5" d="M76.19,157.2c3.71-2.13,6.74-.42,6.74,3.84a14.78,14.78,0,0,1-6.68,11.57c-3.7,2.14-6.74.42-6.74-3.83A14.81,14.81,0,0,1,76.19,157.2Zm3.3,9.62c.2-.36.2-.76,0-.88l-2.11-1.2c.76-1.72.64-3.42-.36-4a2.06,2.06,0,0,0-2,.22,5.82,5.82,0,0,0-2,2.13c-1.12,1.94-1.11,4,0,4.68a2,2,0,0,0,2-.2,5.62,5.62,0,0,0,1.61-1.5l2.11,1.19a.37.37,0,0,0,.38,0,1.21,1.21,0,0,0,.39-.42"/><polygon class="cls-6" points="36.23 115.47 32.81 121.97 28.47 130.22 24.84 126.93 26.97 126.36 28.36 127.24 32.64 120.31 34.61 117.11 36.23 115.47"/><polygon class="cls-6" points="36.18 94.82 32.76 101.32 28.41 109.57 24.78 106.27 26.91 105.71 28.3 106.58 32.5 99.78 34.55 96.46 36.18 94.82"/><path class="cls-2" d="M31.49,99.78a.83.83,0,0,1,1,0l-4.2,6.8-1.39-.87-2.13.56,3.63,3.3,4.34-8.25v5.46A2.73,2.73,0,0,1,31.49,109l-5.65,3.29c-.68.41-1.27.08-1.27-.72v-6.28a2.78,2.78,0,0,1,1.26-2.17Z"/><path class="cls-5" d="M85.16,46.07c1.35-.76,2.39-.15,2.39,1.34v8.22a5.19,5.19,0,0,1-2.37,4.11L24.91,94.54c-1.35.76-2.38.15-2.39-1.35V85a5.21,5.21,0,0,1,2.37-4.1l10.73-6.2L34.49,75.8l-2.14,3.46a.88.88,0,0,0-.92.08l-5.68,3.28A2.76,2.76,0,0,0,24.5,84.8v6.28c0,.8.57,1.11,1.26.72l5.69-3.28a2.76,2.76,0,0,0,1.25-2.18V80.66L36,74.47Z"/><path class="cls-2" d="M56.35,168c.53-.3,1-.06,1,.55v5.75l5-2.89c.53-.3,1-.06,1,.54a2.13,2.13,0,0,1-1,1.65l-5,2.89v5.74a2.09,2.09,0,0,1-1,1.64c-.53.31-1,.06-1-.54v-5.75l-5,2.89c-.54.31-1,.06-1-.54a2.1,2.1,0,0,1,.95-1.65l5-2.88v-5.75A2.13,2.13,0,0,1,56.35,168Z"/><path class="cls-5" d="M56.35,165.16c5.13-3,9.31-.59,9.33,5.32s-4.14,13.09-9.27,16.06-9.32.58-9.34-5.32S51.21,168.13,56.35,165.16Zm6,8.41a2.1,2.1,0,0,0,1-1.65c0-.6-.43-.84-1-.54l-5,2.89v-5.75c0-.61-.43-.85-1-.55a2.07,2.07,0,0,0-.95,1.65v5.75l-5,2.88a2.13,2.13,0,0,0-1,1.65c0,.6.43.85,1,.54l5-2.89v5.75c0,.6.43.85,1,.54a2.09,2.09,0,0,0,1-1.64v-5.74l5-2.89"/><polygon class="cls-2" points="34.48 183.93 35.8 186.24 38.75 185.03 36.63 188.64 37.14 191.72 34.51 191.65 31.88 194.75 32.37 191.1 30.23 189.95 33.18 187.75 34.48 183.93"/><path class="cls-5" d="M34.47,181.21c3.7-2.14,6.73-.42,6.73,3.84a14.76,14.76,0,0,1-6.68,11.57c-3.7,2.15-6.73.42-6.73-3.83A14.79,14.79,0,0,1,34.47,181.21Zm2.69,10.51-.51-3.08L38.77,185l-2.94,1.21-1.35-2.31-1.28,3.82L30.26,190l2.14,1.15-.49,3.65,2.62-3.11,2.63.08"/><path class="cls-2" d="M31.66,161.09c.68-.4,1.27-.08,1.27.72v6.28a2.78,2.78,0,0,1-1.26,2.17L26,173.53c-.68.41-1.26.08-1.26-.72v-6.28A2.77,2.77,0,0,1,26,164.35Z"/><path class="cls-5" d="M85.39,127.81c1.35-.76,2.39-.15,2.39,1.35v8.2a5.19,5.19,0,0,1-2.37,4.12l-60.27,34.8c-1.34.75-2.39.15-2.39-1.35v-8.21a5.26,5.26,0,0,1,2.38-4.12ZM33,168.09v-6.28c0-.8-.57-1.12-1.27-.72L26,164.37a2.75,2.75,0,0,0-1.26,2.17v6.28c0,.8.56,1.13,1.26.72l5.68-3.28A2.78,2.78,0,0,0,33,168.09"/><path class="cls-5" d="M85.34,107.37c1.31-.76,2.38-.15,2.38,1.35l0,8.25a5.24,5.24,0,0,1-2.37,4.11L25.12,155.86c-1.31.76-2.38.15-2.39-1.35v-8.2a5.29,5.29,0,0,1,2.38-4.12ZM32.89,147.65v-6.27c0-.8-.57-1.13-1.26-.72L26,143.94a2.73,2.73,0,0,0-1.26,2.17v6.28c0,.8.57,1.12,1.26.72l5.68-3.28a2.78,2.78,0,0,0,1.26-2.18"/><path class="cls-5" d="M85.28,86.93c1.34-.75,2.38-.14,2.39,1.35V96.5a5.24,5.24,0,0,1-2.37,4.11L25,135.4c-1.31.77-2.38.15-2.39-1.34v-8.22A5.22,5.22,0,0,1,25,121.73ZM32.81,122l3.42-6.5-1.62,1.65-2,3.23c-.22-.3-.63-.35-1.09-.08l-5.68,3.28a2.75,2.75,0,0,0-1.26,2.17V132c0,.8.57,1.12,1.27.72l5.68-3.28a2.74,2.74,0,0,0,1.25-2.17V122"/><path class="cls-5" d="M85.22,66.5c1.32-.76,2.39-.14,2.39,1.35v8.22a5.23,5.23,0,0,1-2.38,4.1L25,115c-1.34.76-2.39.16-2.39-1.34v-8.22A5.28,5.28,0,0,1,25,101.3l11.23-6.48-1.63,1.64-2,3.32a.83.83,0,0,0-1,0l-5.72,3.28a2.8,2.8,0,0,0-1.26,2.18v6.27c0,.81.56,1.13,1.26.73L31.48,109a2.78,2.78,0,0,0,1.26-2.18v-5.46l3.43-6.5Z"/><polygon class="cls-6" points="36.12 74.17 35.96 74.48 32.7 80.67 28.36 88.91 24.72 85.62 26.85 85.06 28.24 85.92 32.35 79.27 34.49 75.8 35.62 74.67 36.12 74.17"/><path class="cls-2" d="M31.43,79.35a.9.9,0,0,1,.92-.08l-4.11,6.65-1.39-.86-2.13.56,3.64,3.29,4.34-8.24v5.68a2.74,2.74,0,0,1-1.25,2.17L25.8,91.8c-.68.4-1.26.08-1.27-.72V84.81a2.75,2.75,0,0,1,1.25-2.18Z"/><g id="freepik--Character--inject-2"><path d="M130,248.39a4.56,4.56,0,0,1-4.11,2.77,20,20,0,0,1-5.2-.68c-3.87-.67-7.59,0-11.45-.09a16.41,16.41,0,0,1-3.76-.41,6.22,6.22,0,0,1-3.22-1.9,4.24,4.24,0,0,1-.92-2,3.94,3.94,0,0,0,.92,3.14,6.22,6.22,0,0,0,3.22,1.9,16.41,16.41,0,0,0,3.76.41c3.86.09,7.58-.6,11.45.1a20.9,20.9,0,0,0,5.2.67,4.56,4.56,0,0,0,4.11-2.77,4.44,4.44,0,0,0,.14-1.78A3.88,3.88,0,0,1,130,248.39Z"/><path d="M129.91,245.18l-.72-3.5a5.32,5.32,0,0,0-.59-1.79A1.75,1.75,0,0,0,127,239c-2.11-.29-5.09-1.05-6.85.16a15.84,15.84,0,0,1-9.46,2.75,31.66,31.66,0,0,0-5.23-.21c-1.74.21-3.55,1.18-4,2.85a3.39,3.39,0,0,0-.08,1.52,4.16,4.16,0,0,0,.92,2,6.22,6.22,0,0,0,3.22,1.9,16.41,16.41,0,0,0,3.76.41c3.86.09,7.59-.6,11.45.1a20.9,20.9,0,0,0,5.2.67A4.56,4.56,0,0,0,130,248.4a3.8,3.8,0,0,0,.14-.67A8.44,8.44,0,0,0,129.91,245.18Z"/><path class="cls-7" d="M119.67,235.48l-.15,4.57a1.83,1.83,0,0,0,1.68,1.88,29.55,29.55,0,0,0,4.61-.05,2.62,2.62,0,0,0,2.36-2.45l.18-3.37Z"/><path d="M149.54,233a3.5,3.5,0,0,1-.62,1.9,3.45,3.45,0,0,1-2.15,1.21,5.47,5.47,0,0,1-5.39-2.2c-.57-.84-.9-1.82-1.44-2.7a12.11,12.11,0,0,0-3-2.92,12.6,12.6,0,0,1-3-2.9,4.27,4.27,0,0,1-.58-3.87,2.39,2.39,0,0,0-.28.49,4.37,4.37,0,0,0,.54,4.12,12.91,12.91,0,0,0,3.09,3,12.5,12.5,0,0,1,3.06,3c.56.88.89,1.89,1.47,2.75a5.55,5.55,0,0,0,5.47,2.27,3.43,3.43,0,0,0,2.2-1.25,4.19,4.19,0,0,0,.64-2.63A.76.76,0,0,0,149.54,233Z"/><path d="M148.15,227.31c-1.39-2.44-4.26-4.22-6.47-5.94a8.28,8.28,0,0,0-4.28-2,4.07,4.07,0,0,0-4,2,.65.65,0,0,0,0,.13,4.22,4.22,0,0,0,.58,3.86,12.11,12.11,0,0,0,3,2.91,12.06,12.06,0,0,1,3,2.92c.55.85.88,1.83,1.45,2.69a5.47,5.47,0,0,0,5.39,2.21,3.08,3.08,0,0,0,2.76-3.11,3.75,3.75,0,0,0,0-.67A10.62,10.62,0,0,0,148.15,227.31Z"/><path class="cls-7" d="M142.12,225.19v4.16a7,7,0,0,0,6.47-.29l.39-3.74Z"/><path class="cls-8" d="M150.07,149.77c1.25,3.73-.28,21.51-1,38.55,2.69,6.44,2,24.74.42,37.71,0,0-2.7,1.67-7.59,0l-6.14-35.85-.87-20.25s-1.54,18-3.3,29.51c1.66,8.84,1.24,10.5-2.86,37.67a10.21,10.21,0,0,1-9.2,0c-2.32-38.17-1.46-73-1-85.48Z"/><path class="cls-7" d="M151.4,127.36l1.79,3.79-4.29,4.71.31,11.27,13.83-12a3.74,3.74,0,0,0,.91-4.45L159.74,122Z"/><path class="cls-9" d="M155.66,134.52a8.71,8.71,0,0,1-2.47-3.37l-1.07,1.17A5.51,5.51,0,0,0,155.66,134.52Z"/><path class="cls-4" d="M151.05,128.27c5.48-.48,9.23-6.17,9.23-6.17-4.91-10-9.2-21.24-17.77-18.57Z"/><path class="cls-4" d="M117.77,121.08v31.58c18.61,7.79,30.66.75,32.33-2.91-.86-12.86,2.18-27.91,2-34.3s-1-13.59-10.93-12.13l-10.54,1-5.34,1.3Z"/><path class="cls-10" d="M117.77,121.08v31.58c18.61,7.79,30.66.75,32.33-2.91-.86-12.86,2.18-27.91,2-34.3s-1-13.59-10.93-12.13l-10.54,1-5.34,1.3Z"/><path class="cls-7" d="M85.8,112.87a7.59,7.59,0,0,0,.56,1.19L98.1,133.73a5.6,5.6,0,0,0,7.66,2,5.13,5.13,0,0,0,.85-.62l7.47-6.64-7.58-8.08-3.8,4-10.91-14L90.11,103a3.56,3.56,0,0,0-1.8-2.36l-4.64-2.5a.91.91,0,0,0-1.09.16h0a.93.93,0,0,0,0,1.3l.14.11,3.37,2.19-4.42,2.61a1.64,1.64,0,0,0-.81,1.47l.05,2.12a1.79,1.79,0,0,0,1.63,1.75l.73.07.17.44a4.48,4.48,0,0,0,2.33,2.49Z"/><path class="cls-9" d="M100.38,129.15a11.51,11.51,0,0,1,2.32-4.85l-1-1.39C100.87,124.37,99.75,127.21,100.38,129.15Z"/><path class="cls-4" d="M105.57,120.38l10.67-10.5a15,15,0,0,1,8.75-4.21h.2c4.52,9.9-1.46,14.73-1.46,14.73l-9.92,9.12A17.93,17.93,0,0,1,105.57,120.38Z"/><path d="M124.3,79.76c-2.26-.85-4.47-4.1-2.21-5.53.63-.47,2.47.08,4,0-1.3-1.17-1.61-2.57-1-3s2.38,1.22,5.54.91,14-3.82,15.4,4.13a2.09,2.09,0,0,1,3.19-.54L147,77.31c3.37,4.72,2.26,10.18-5.86,21a6,6,0,0,1-7.94,1.14l-3.36-8.26-3.28-4Z"/><polygon class="cls-9" points="123.55 86.37 121.36 90.16 123.75 91.04 123.55 86.37"/><path class="cls-7" d="M124.3,79.76a35.28,35.28,0,0,0-.63,16.12,5.57,5.57,0,0,0,1,2.56,4,4,0,0,0,2.77,1.27,11.68,11.68,0,0,0,3.12-.3v4.94c3.74.88,7.6,1.23,10.53-1v-5a13.55,13.55,0,0,1-6.54.41c-2.59-1.4-3.11-6.13-2.74-7.41a1.94,1.94,0,0,0,2,.71,2.72,2.72,0,0,0,1.68-1.34,5.56,5.56,0,0,0,.63-2.1,3.84,3.84,0,0,0-.39-2.6,2.68,2.68,0,0,0-2.93-1A4.2,4.2,0,0,0,130.35,87a6.27,6.27,0,0,0-.43.95.58.58,0,0,1-.74.36.61.61,0,0,1-.4-.51,8,8,0,0,1,.74-4.13,2.87,2.87,0,0,1-2.11-1.3A2.67,2.67,0,0,1,127,80,8,8,0,0,1,124.3,79.76Z"/><path class="cls-11" d="M135.42,182.28l-.67-16.52c4.27,0,8.24-3.19,11.25-6.22a19.14,19.14,0,0,1-8.51,7.45Z"/><path class="cls-4" d="M135.52,153.33c5.54-19.43,10.6-47.62,6.38-50.09h0a3,3,0,0,1,3.51-.23l.22.15c5.35,6.16-6.58,51.55-6.58,51.55Z"/><path class="cls-11" d="M135.52,153.33c5.54-19.43,10.6-47.62,6.38-50.09h0a3,3,0,0,1,3.51-.23l.22.15c5.35,6.16-6.58,51.55-6.58,51.55Z"/><path class="cls-4" d="M139.6,154.39c.52,11.83-.53,21.87-6.26,24.28s-14.19-.45-17.35-1.35-9.12-4-10.56-6.11c-.52-5.8,1.44-11.53,2.79-13.42S139.6,154.39,139.6,154.39Z"/><path class="cls-12" d="M139.6,154.39c.52,11.83-.53,21.87-6.26,24.28s-14.19-.45-17.35-1.35-9.12-4-10.56-6.11c-.52-5.8,1.44-11.53,2.79-13.42S139.6,154.39,139.6,154.39Z"/><path class="cls-4" d="M117.75,147.07a84.27,84.27,0,0,1,21.88,7.32c-1.31,2.94-3.14,5.94-4.44,8.88a7.94,7.94,0,0,1-1.83,2.9c-1.49,1.3-3.69,1.31-5.67,1.11a44.35,44.35,0,0,1-15.86-4.71c-1.69-.88-3.45-2-4-3.83a6.93,6.93,0,0,1,.59-4.58c.38-.95.83-2,1.35-3A7.36,7.36,0,0,1,117.75,147.07Z"/></g></g></g></svg>