<svg xmlns="http://www.w3.org/2000/svg" xmlns:xlink="http://www.w3.org/1999/xlink" viewBox="0 0 163.32 216.23"><defs><style>.cls-1{fill:none;}.cls-2{fill:#00b7ff;}.cls-3{fill:#ffbe9d;}.cls-4{clip-path:url(#clip-path);}.cls-5{fill:#fff;}.cls-6{clip-path:url(#clip-path-2);}.cls-7{fill:#004a91;}.cls-8{fill:#f1eff2;}.cls-9{fill:#b09cc5;}.cls-10{clip-path:url(#clip-path-3);}.cls-11{clip-path:url(#clip-path-4);}.cls-12{clip-path:url(#clip-path-5);}.cls-13{clip-path:url(#clip-path-6);}.cls-14{clip-path:url(#clip-path-7);}.cls-15{clip-path:url(#clip-path-8);}.cls-16{clip-path:url(#clip-path-9);}.cls-17{clip-path:url(#clip-path-10);}.cls-18{fill:#c8385b;}.cls-19{clip-path:url(#clip-path-11);}.cls-20{fill:#eb996e;}.cls-21{fill:#f7a2a0;}.cls-22{clip-path:url(#clip-path-12);}</style><clipPath id="clip-path"><rect class="cls-1" x="4.77" y="98.7" width="142.19" height="107.17"/></clipPath><clipPath id="clip-path-2"><path class="cls-1" d="M107.18,132.89,118,128.83s11.66-10.11,6.85-24.33S99,61.72,99,61.72c-2.94,20.94,8.18,71.17,8.18,71.17"/></clipPath><clipPath id="clip-path-3"><path class="cls-1" d="M59.07,54.26c-2.8,2-1.33,3.69-1.33,3.69S47.3,59.81,44.27,65.16s2.6,20.31,1.27,28.46-3.1,30.39,0,36.06c.81,1.48,2.67.16,5.32,2.73L52,133.52c5.12,4.71,12.61,10,20.89,12.61,1.78-24.89-3.23-57.7-3.59-93,0,0-1.53-.17-3.46-.17-2.34,0-5.27.25-6.8,1.33"/></clipPath><clipPath id="clip-path-4"><path class="cls-1" d="M86.41,54.93c4,32.74,7.08,63.51,8.44,90.46a25.43,25.43,0,0,0,13.94-14.68s-6.34-19.13-4.75-25.84,6.68-11.82,4.75-19.83S101,71.13,100.42,67.31s-.29-5.32-2.65-6.42a21.82,21.82,0,0,0-4.49-1.51,6.58,6.58,0,0,0-.92-2.78c-1.08-1.49-3.1-1.77-4.48-1.77a10,10,0,0,0-1.47.1"/></clipPath><clipPath id="clip-path-5"><path class="cls-1" d="M98.69,137.44h0c-2.74,1.66-5.2,3.12-7,4.13-2.75,1.54-6.26,1.7-9.7,1.22a47.54,47.54,0,0,1-13.15-4.23s-21.61-9.8-25.66-9.47C40,129.34,57,147,71,154.29a25.73,25.73,0,0,0,6.94,3.11c18.85,6,36.14-3.69,36.14-3.69,1-5.16.4-11-1.34-13.17a1.89,1.89,0,0,0,.18-1.68l17.35-18c-9.86,8.18-22.07,10.85-31.57,16.59"/></clipPath><clipPath id="clip-path-6"><path class="cls-1" d="M116.81,158.37c-3.3,1.21-7.94,4.52-10.93,6.47-.35.23-.67.44-1,.62a12.1,12.1,0,0,1-1.26.7,2.12,2.12,0,0,0-1.13,3.31c5.47,2.13,1.8,9,4.78,10.68,0,0,1.27.73,5.31,2.52s8.12,6.07,11.9,9.59c4.86,4.55,7.91,5.08,9.67,4.67a3.22,3.22,0,0,0,1.95-1.26l-17-37.74h-.23a6.46,6.46,0,0,0-2.09.45"/></clipPath><clipPath id="clip-path-7"><path class="cls-1" d="M21.58,127.41c-14.49,10.44,10.09,30.5,38.21,40.3S97,176.18,97,176.18s6.12-1.68,4-11.58c0,0-16.21-6.17-24.64-12.62s-14.18-14.36-33.16-22.89c0,0-7.11-3.84-14-3.84a12.75,12.75,0,0,0-7.54,2.16"/></clipPath><clipPath id="clip-path-8"><path class="cls-1" d="M47.76,158.8,33.31,197.59a3.24,3.24,0,0,0,2,1.13c1.77.29,4.78-.44,9.33-5.31,3.53-3.76,7.31-8.32,11.23-10.37S61,180.18,61,180.18c2.87-1.9-1.25-8.49,4.06-11A2.11,2.11,0,0,0,63.75,166a11.79,11.79,0,0,1-1.3-.62l-1-.55c-3.11-1.75-8-4.74-11.33-5.72a6.72,6.72,0,0,0-1.88-.32,3.33,3.33,0,0,0-.46,0"/></clipPath><clipPath id="clip-path-9"><path class="cls-1" d="M124.69,123.1c-18.11,10.23-23.11,18.63-30.91,25.83S70.4,163.75,70.4,163.75c-1.25,10.06,5,11.17,5,11.17s9.21.5,36.31-11.84,49.73-34.57,34.35-43.63a11.92,11.92,0,0,0-6.13-1.54c-7.42,0-15.23,5.19-15.23,5.19"/></clipPath><clipPath id="clip-path-10"><path class="cls-1" d="M28.67,103.17A39.79,39.79,0,0,0,27,112.86c-.29,8.63,3.68,13.06,8.46,15.6a35.6,35.6,0,0,0,8,2.85C52,133.52,69.69,136,69.69,136l1-14.85s-20.22-3.73-25.19-9.81c0,0,8.57-22,12.45-32.37,0,0,1.14-9.69-12.45-15.5a200.41,200.41,0,0,0-16.87,39.66"/></clipPath><clipPath id="clip-path-11"><path class="cls-2" d="M63.78,17.62a5.07,5.07,0,0,0,3.13,1.79s1.26-3.82,6.64-5.85c0,0,.87-1.81-.31-2.89,0,0-6.88,1.28-9.46,7"/></clipPath><clipPath id="clip-path-12"><rect class="cls-1" x="85.44" y="120.96" width="9.82" height="9.96"/></clipPath></defs><title>mono 2</title><g id="Capa_2" data-name="Capa 2"><g id="Home_v.5" data-name="Home v.5"><path class="cls-3" d="M88.79,216.13C55.26,215,20.59,210.38,2.64,148.6c-5.33-18.36-1.86-32.27,4-42.75a63.51,63.51,0,0,1,4.68-7.15h0c.62-.83,1.25-1.63,1.88-2.39A48.77,48.77,0,0,1,67.73,81.58c10.92,4,24.93,9.87,37.42,17.52,25.1,15.38,31,32.92,39.18,63,.71,2.58,1.41,5.48,1.94,8.55.29,1.65.53,3.34.69,5.07,1.82,19.23-5.6,42.25-58.17,40.41"/><g class="cls-4"><path class="cls-5" d="M147,175.72a39.88,39.88,0,0,1-4.81,9.34c-6.34,9.08-19.54,20.06-46.43,20.76-1.18,0-2.35.05-3.5.05A93.61,93.61,0,0,1,64.6,202.1a67.43,67.43,0,0,1-23.11-12.2C30,180.61,20.48,167,10.72,145.82a61.64,61.64,0,0,1-6-25.21,55.78,55.78,0,0,1,1.86-14.76,63.51,63.51,0,0,1,4.68-7.15c-.41,1-.82,2-1.2,3-3.51,9.63-5.93,25,2.5,43.24,17.13,37.2,37,60,83.06,58.8,26-.69,38.71-11.19,44.77-19.89a36.3,36.3,0,0,0,5.83-13.2c.29,1.64.53,3.33.69,5.06"/></g><g class="cls-6"><rect class="cls-2" x="76.12" y="77.89" width="73.48" height="38.83" transform="translate(7.39 202.56) rotate(-85.71)"/></g><path class="cls-7" d="M102.1,106.78a.48.48,0,0,1-.21-.91c.31-.15,7.69-3.61,13.83-3.18a.48.48,0,1,1-.06,1c-5.9-.42-13.28,3-13.36,3.09a.48.48,0,0,1-.2,0"/><path class="cls-8" d="M97.15,141.71c-9.2,3-31.68,11-41.44,7.81a10.22,10.22,0,0,1-1.17-.48A6.11,6.11,0,0,1,52,146.92c-3.82-5.83-7.62-30.28-5.91-44.65.21-1.8.31-3.75.35-5.79,0-3-.05-6.24-.18-9.49-.48-12.2-2.4-20.63,2.82-23.6a60.71,60.71,0,0,1,14.39-5.64c2.35-.57,5.65-5.75,8.34-5.7L84,58.18s10,1.67,12.36,3.39,3.5,9.24,7.69,16.14,5.1,13.82,1.1,21.39c-3.48,6.59-2.87,4.09-3.32,14.9-.56,13.24,13.28,21.75-4.68,27.71"/><path class="cls-9" d="M61.2,126a.53.53,0,0,1-.12-.14.49.49,0,0,1,.17-.68,58,58,0,0,1,23.19-8A43.09,43.09,0,0,1,94.66,117a.5.5,0,0,1,.42.56.5.5,0,0,1-.56.42,42.23,42.23,0,0,0-10,.11A57.2,57.2,0,0,0,61.75,126a.5.5,0,0,1-.55,0"/><g class="cls-10"><polygon class="cls-2" points="83.25 52.72 76.11 150.23 35.89 147.21 43.03 52.04 83.25 52.72"/></g><g class="cls-11"><rect class="cls-2" x="54.1" y="86.2" width="92.12" height="31.01" transform="matrix(0.07, -1, 1, 0.07, -8.75, 193.98)"/></g><path class="cls-7" d="M101.83,115.9a.48.48,0,0,1-.48-.41c-.65-4.39-.86-10.1,3.43-15.28s5.52-11.44,3.09-16.83a139.94,139.94,0,0,0-6.76-12.88.49.49,0,0,1,.17-.66.48.48,0,0,1,.66.16c0,.07,3.86,6.45,6.81,13,2.58,5.74,1.4,12.25-3.23,17.85-4,4.88-3.84,10.32-3.22,14.52a.48.48,0,0,1-.4.55h-.07"/><g class="cls-12"><rect class="cls-5" x="62.4" y="96.33" width="45.49" height="91.59" transform="translate(-59.71 222.54) rotate(-88.11)"/></g><path class="cls-3" d="M104.39,169.38s-5.57-1.6-7.27-3.4l-3.87,9.1,13.16,4.1s.18-8-2-9.8"/><g class="cls-13"><rect x="97.97" y="155.26" width="41.21" height="44.75" transform="translate(-28.06 22.36) rotate(-9.64)"/></g><path d="M136.13,195.67l-17-37.74a5.87,5.87,0,0,0-2.32.44l17.37,38.56a3.22,3.22,0,0,0,1.95-1.26"/><g class="cls-14"><rect class="cls-7" x="27.42" y="102.53" width="55.4" height="97.71" transform="translate(-98 201.48) rotate(-88.11)"/></g><path class="cls-7" d="M98.89,162.5c-.66,5.21-2,9.94-5,13.56,0,0,2.52,1.82,4.81.52,1.76-1,5.15-9.12,3.86-13.46-1.47-.81-2.74-1.09-3.72-.62"/><path class="cls-3" d="M63.23,169.24s5.44-2,7-3.88l4.46,8.82-12.85,5s-.72-8,1.36-9.91"/><g class="cls-15"><rect x="30.18" y="156.28" width="39.41" height="45.23" transform="translate(-29.24 10.88) rotate(-9.64)"/></g><path d="M33.31,197.59,47.76,158.8a5.57,5.57,0,0,1,2.34.29L35.35,198.72a3.24,3.24,0,0,1-2-1.13"/><g class="cls-16"><rect class="cls-7" x="85.03" y="99.6" width="60.51" height="94.12" transform="matrix(0.03, -1, 1, 0.03, -35.09, 257.06)"/></g><path class="cls-7" d="M77.2,174.64l0,.9c5.66-1.38,12.3-3.25,19.53-5.53,1.41-.44,2.85-.91,4.3-1.39l0-.9-4.58,1.48"/><path class="cls-7" d="M72.47,162.24c1.14,5.12,2.92,9.71,6.18,13,0,0-2.34,2-4.75,1-1.84-.83-6-8.61-5.07-13.05,1.39-.93,2.63-1.33,3.64-.95"/><g class="cls-17"><rect class="cls-2" x="12.48" y="76.69" width="75.63" height="49.37" transform="translate(-54.56 143.94) rotate(-85.71)"/></g><path class="cls-7" d="M45.54,111.84a.45.45,0,0,1-.25-.07,28.52,28.52,0,0,0-5.63-1.9.47.47,0,0,1-.35-.55.48.48,0,0,1,.56-.35,37.81,37.81,0,0,1,4.91,1.52,8.34,8.34,0,0,0-1.36-2,.46.46,0,1,1,.69-.6A7,7,0,0,1,46,111.31a.45.45,0,0,1-.45.53"/><path class="cls-7" d="M59.62,118.92l-.11,0a36.61,36.61,0,0,1-14.28-7.17.48.48,0,0,1-.11-.56c6.24-12.26,10.19-22,12.42-30.64a.46.46,0,0,1,.56-.33.46.46,0,0,1,.34.56c-2.24,8.63-6.15,18.34-12.33,30.51A37,37,0,0,0,59.74,118a.46.46,0,0,1-.12.91"/><path class="cls-18" d="M56.48,87.23a.46.46,0,0,1-.36.17"/><path d="M73.55,13.56S73.62.77,65.58,0s-7,8.72-7,8.72-4.49-3-3.63,3.07,12.24,6,12.24,6Z"/><path class="cls-2" d="M63.78,17.62a5.07,5.07,0,0,0,3.13,1.79s1.26-3.82,6.64-5.85c0,0,.87-1.81-.31-2.89,0,0-6.88,1.28-9.46,7"/><g class="cls-19"><rect class="cls-2" x="62.96" y="9.63" width="12.27" height="10.82" transform="translate(-1.62 15.17) rotate(-12.38)"/></g><path d="M95.1,37.44s4-.84,5.07-6.41C102,22,99.26,13.35,88,11.71,73.2,9.57,67.85,14.28,64.88,20s-4.8,15.41-.94,19.15,10.14,6.45,10.14,6.45Z"/><path class="cls-20" d="M95.52,35.31a2.68,2.68,0,0,1,2,2.68c.2,2.38-1.26,6.25-3.62,5.6s1.59-8.28,1.59-8.28"/><line class="cls-21" x1="87.71" y1="53.22" x2="87.71" y2="53.22"/><path class="cls-3" d="M69.33,53.1s2,8,8.68,10.21c6.45,2.09,8.84-2.62,8.84-2.62h0c0-.48,0-1,0-1.49a37.84,37.84,0,0,1,.58-4.66c.07-.4.15-.83.23-1.27v-.05c-6-1.86-10.78-4.92-13.88-9.64L73,43l-.58-.41-.14.35,0,1.14c.2,5.36-.47,2.85-2.93,9.06"/><path class="cls-20" d="M77.72,48.55c1.09,3,3.71,8.35,9.17,10.65a41.71,41.71,0,0,1,.58-4.65c.07-.41.15-.84.23-1.28h-.37c-3.33,0-6.82-2-9.61-4.73"/><path class="cls-3" d="M65.57,33.26c-.44,3.29,1.81,7.68,6.09,8.38h0l.09,0c0,.2.1.39.16.59s0,.18.08.26,0,0,0,0c1.93,5.94,9.44,10.28,13.73,11a10.12,10.12,0,0,0,3,0c4.7-.38,6.37-6.43,6.29-11.24,0-.69-.07-1.36-.15-2,0,0,0-.08,0-.13S97.23,33.79,98,31c1.44-5.47-1-11.56-13.07-14.31S68.89,21.1,67.49,25c-.23.65-.62,4.66,0,5.39a3.3,3.3,0,0,0-1.88,2.86"/><path class="cls-20" d="M71.66,41.64h0l.1,0c0,.2.09.39.15.59s.06.18.08.26,0,0,0,0a3.86,3.86,0,0,0,1.75-.44,3.08,3.08,0,0,0,1-.83.45.45,0,0,0-.7-.56,2.43,2.43,0,0,1-1.18.79,3.49,3.49,0,0,1-.81.13h-.42"/><path d="M83.12,24.41a6.07,6.07,0,0,1-3.22,5.1h0c-1.84.92-3.3,1.82-2.78,3.82.68,2.62-.14,4.26-1.65,4.22-2.69-.08-2.51-6.14-8-7.15,0,0-1.94-.68-1.28-4.15s7.93-12.62,17-10.87,16.55,7.31,16,13.76-1.74,5-1.74,5,.15-.37-.07-5.63c-.19-4.71-14.79-7.21-14.24-4.11"/><path class="cls-20" d="M72.41,39.13a.45.45,0,0,1-.32-.41c-.18-3.17-3.69-5-3.72-5a.46.46,0,0,1-.2-.61.44.44,0,0,1,.6-.19c.17.08,4,2.08,4.22,5.77a.46.46,0,0,1-.43.47l-.15,0"/><path class="cls-20" d="M68.78,36.89l-.15-.08a.45.45,0,0,1-.06-.63,3,3,0,0,1,2.85-1,.45.45,0,1,1-.16.88,2.19,2.19,0,0,0-2,.65.45.45,0,0,1-.48.15"/><path d="M57.22,146.62l-3.93-7.48a2.78,2.78,0,0,1,2.49-4.08l61.78.67-1.82,9.57Z"/><path d="M114.67,144.51H59.38a2.13,2.13,0,0,1-2.15-2.41L61,107.94a2.77,2.77,0,0,1,2.69-2.42H119a2.13,2.13,0,0,1,2.16,2.42l-3.78,34.16a2.75,2.75,0,0,1-2.68,2.41"/><g class="cls-22"><path class="cls-5" d="M85.46,125.62A4.86,4.86,0,0,0,90,130.9a5,5,0,0,0,5.28-4.65A4.86,4.86,0,0,0,90.74,121a5,5,0,0,0-5.28,4.65"/></g></g></g></svg>