<svg xmlns="http://www.w3.org/2000/svg" xmlns:xlink="http://www.w3.org/1999/xlink" viewBox="0 0 275.94 242.81"><defs><style>.cls-1{fill:none;}.cls-2{clip-path:url(#clip-path);}.cls-3{fill:#ffbe9d;}.cls-4{fill:#e63429;}.cls-5{fill:#d6505b;}.cls-6{opacity:0.4;}.cls-7{opacity:0.5;}.cls-8{fill:#d9876e;}.cls-9{fill:#004a91;}.cls-10{fill:#ff8280;}.cls-11{fill:#ffa888;}.cls-12{fill:#382f3d;}</style><clipPath id="clip-path" transform="translate(-8.12 -7.75)"><polyline class="cls-1" points="289.59 174.35 289.59 0 0 0 0 174.35"/></clipPath></defs><title>mono</title><g id="Capa_2" data-name="Capa 2"><g id="Home_v.5" data-name="Home v.5"><g class="cls-2"><path class="cls-3" d="M267.33,163.33l-12.09-45s4.92-16.84,4.15-20.66S254,94.56,254,94.56l-11.55-5.78-9.29,11.61s-4.66-4.75-7.92-3.84-2,7,3.72,13.06,7.51,23.29,7.51,23.29l17.72,28Z" transform="translate(-8.12 -7.75)"/><path class="cls-4" d="M205.1,70.66a4.41,4.41,0,0,0-1.57,5.49h0A3.32,3.32,0,0,0,208.26,78l7.17-4.14a4.43,4.43,0,0,0,1.57-5.5h0a3.32,3.32,0,0,0-4.73-1.85Z" transform="translate(-8.12 -7.75)"/><path class="cls-4" d="M213.65,76.83l8.55,18.82,4.13-1.39,21.12,19.47a3.83,3.83,0,0,0,5.86-.69l7.79-10.85S245,94.38,241.93,87.77s.36-8.16.36-8.16l-7.67-9.87Z" transform="translate(-8.12 -7.75)"/><path class="cls-4" d="M218.38,53.69s8.23-2.23,19.67-15.4,16.67-30.52,18.1-30.45,7.58-3.38,19.8,26.38S283.6,71,281.25,71s-18.38-5-28.33-3.53-22.68,7.67-22.68,7.67Z" transform="translate(-8.12 -7.75)"/><path class="cls-4" d="M224.86,58.36s12.73-6.22,22.68-7.67,26,3.51,28.33,3.53c1.68,0,4.48-3.56,1.48-16.48C287.79,64.53,283.51,71,281.25,71s-18.38-5-28.33-3.53-22.68,7.67-22.68,7.67L218.38,53.69a17.71,17.71,0,0,0,3.13-1.36Z" transform="translate(-8.12 -7.75)"/><path class="cls-5" d="M207.13,68.8,210,75l1.3,2.78c1.78,3.81,5.81,5.34,9.16,3.48l17.6-7.42L227.41,46.58,209.88,57.79C206.52,59.94,205.29,64.86,207.13,68.8Z" transform="translate(-8.12 -7.75)"/><g class="cls-6"><path d="M207.13,68.8,210,75l1.3,2.78c1.78,3.81,5.81,5.34,9.16,3.48l17.6-7.42L227.41,46.58,209.88,57.79C206.52,59.94,205.29,64.86,207.13,68.8Z" transform="translate(-8.12 -7.75)"/></g><path class="cls-5" d="M275,34.78c6.5,16.12,9.31,30.52,6.28,32.17S270.51,56.87,264,40.75s-9.31-30.53-6.27-32.17S268.5,18.66,275,34.78Z" transform="translate(-8.12 -7.75)"/><g class="cls-7"><path d="M275,34.78c6.5,16.12,9.31,30.52,6.28,32.17S270.51,56.87,264,40.75s-9.31-30.53-6.27-32.17S268.5,18.66,275,34.78Z" transform="translate(-8.12 -7.75)"/></g><path class="cls-4" d="M262.14,31.35s7.1-5.28,11.18,6-3.45,13.19-3.45,13.19A81.72,81.72,0,0,1,262.14,31.35Z" transform="translate(-8.12 -7.75)"/><path class="cls-3" d="M242.82,89.41l-1.24-2.11s-3.79,1.45-6.42.86-2.51-3.44.27-5.06,8.36-2.21,10.19-.51S245.74,88,242.82,89.41Z" transform="translate(-8.12 -7.75)"/><path class="cls-3" d="M257.3,98.88s-3.68,7-6.18,7.65-4.33-3,.82-9.43c0,0-1.43-.41-3.14,2.34s-3.44,3.87-5.17,2.25,1.77-6.31,1.77-6.31-2.74,3.67-5,3.24-1.31-5.19,1.19-7.74,4.21-3.43,6-3,2,3.34,2,3.34a3.09,3.09,0,0,1,3.16,0C254.66,92.26,257.3,98.88,257.3,98.88Z" transform="translate(-8.12 -7.75)"/><path class="cls-8" d="M244.31,96.93a19.73,19.73,0,0,1,2.18-3.15,16.36,16.36,0,0,1,2.85-2.31,2.82,2.82,0,0,0-1,.42,8.57,8.57,0,0,0-2.06,1.66,10,10,0,0,0-1.57,2.28A4,4,0,0,0,244.31,96.93Z" transform="translate(-8.12 -7.75)"/><path class="cls-8" d="M242.36,90.06s.66-.54,1.48-1.14a8.13,8.13,0,0,1,1.08-.71c.29-.16.47-.21.47-.26s-.22-.06-.54,0a4.71,4.71,0,0,0-1.15.66A4,4,0,0,0,242.36,90.06Z" transform="translate(-8.12 -7.75)"/><path class="cls-8" d="M241.07,87.39a3.52,3.52,0,0,0,1.78-.26,3.14,3.14,0,0,0,1.13-.71c.25-.26.36-.47.33-.49a7.83,7.83,0,0,1-1.54.91A11.15,11.15,0,0,0,241.07,87.39Z" transform="translate(-8.12 -7.75)"/><path class="cls-8" d="M250.24,99.82a8,8,0,0,0,.83-1.3,11.44,11.44,0,0,1,2.12-2.89,3.89,3.89,0,0,1,3.05-1,4.88,4.88,0,0,1,1.3.46s-.09-.12-.3-.27a2.78,2.78,0,0,0-1-.41,3.83,3.83,0,0,0-3.23,1,10.09,10.09,0,0,0-2.13,3A10.21,10.21,0,0,0,250.24,99.82Z" transform="translate(-8.12 -7.75)"/><path class="cls-8" d="M243.47,123.77a49,49,0,0,0,7.62.86,25.29,25.29,0,0,0-3.8-.58A24.43,24.43,0,0,0,243.47,123.77Z" transform="translate(-8.12 -7.75)"/><path class="cls-9" d="M193,116.44s27.92,12.63,28.29,27.46-1,39.84,6,41.37,15.67-24.91-3.19-51.69l38.71-28.42s22.71,24.23,18.65,72.47c-4.32,51.35-52.51,105.57-91.32,48.58L41.3,226.3,8.12,184.1,117,94.09s13.22-16,29.22-7.5Z" transform="translate(-8.12 -7.75)"/><path class="cls-10" d="M179.47,63.24q-.16,6.3-.34,12.58c0,1.48-.17,3.16-1.1,4.05a1.75,1.75,0,0,1-2.84-.86c-.3-.8-.44-2-1.15-2s-1.32,1.73-2,1.22a1.31,1.31,0,0,1-.33-.64,47.62,47.62,0,0,1-1.66-8.23c-.36-3.23-.27-6.95,1.56-9.29a4.19,4.19,0,0,1,4.94-1.5,6,6,0,0,1,3.11,5" transform="translate(-8.12 -7.75)"/><path d="M179.47,63.24q-.16,6.3-.34,12.58c0,1.48-.17,3.16-1.1,4.05a1.75,1.75,0,0,1-2.84-.86c-.3-.8-.44-2-1.15-2s-1.32,1.73-2,1.22a1.31,1.31,0,0,1-.33-.64,47.62,47.62,0,0,1-1.66-8.23c-.36-3.23-.27-6.95,1.56-9.29a4.19,4.19,0,0,1,4.94-1.5,6,6,0,0,1,3.11,5" transform="translate(-8.12 -7.75)"/><path class="cls-3" d="M203.44,59c-1.88-.77-14.08-2.09-23.23,3.71-6.42,4.45-6.32,11.14-6.62,11-2.61-.78-5.25,1-5.9,4.07s.94,6.11,3.54,6.89a4.28,4.28,0,0,0,2.1.06L171,101.37c-.13.54-2.4,13.87-2.48,14.44-1,7.06,2.24,13.83,9.2,15,9.67,1.56,13.93-16.32,14.92-23.38a14.37,14.37,0,0,0,.13-1.6l1-7.09c6.09-1.1,8-7.83,8.05-14.11S203.46,59.29,203.44,59Z" transform="translate(-8.12 -7.75)"/><path d="M193.76,98.7a15,15,0,0,1-6.59-.52l5.55,7.92Z" transform="translate(-8.12 -7.75)"/><path class="cls-11" d="M177.33,56.39h0v0Z" transform="translate(-8.12 -7.75)"/><path d="M178.42,66.72c2.93.36,5.1-4.31,8-3.89,1.67.23,2.92,1.86,4.18,3.17s3.08,2.45,4.57,1.54c1.29-.8,1.82-2.85,3.18-3.47,2-.89,3.91,1.6,6,1.86,1.3.17,3.41-.31,4.49-3.35a5.94,5.94,0,0,0-2.21-6.41c-1.88-1.46-2.33-4.44-3.06-7S201.32,44,199.09,44c-1.22,0-2.31.92-3.52,1.1-2.41.36-4.4-2.06-6.19-4s-4.55-3.69-6.5-2-2,5.75-4.31,6.12c-1.27.2-2.37-1-3.6-1.43-2.66-.95-5.55,2.69-4.61,5.79.26.89.77,1.83.45,2.69a3.66,3.66,0,0,1-1.12,1.26c-1,1-1.67,3-.9,4.35,1.41,2.44,2.39,1.51,3.82,3.06S174.7,66.25,178.42,66.72Z" transform="translate(-8.12 -7.75)"/><path class="cls-12" d="M229.67,250.4c-12.93,1.3-26.74-5.4-39.54-24.19l8-21.9S205.62,240.56,229.67,250.4Z" transform="translate(-8.12 -7.75)"/></g></g></g></svg>