<svg xmlns="http://www.w3.org/2000/svg" viewBox="0 0 47.84 43.26"><defs><style>.cls-1{fill:#004a91;}.cls-2{fill:#ffd9d6;}.cls-3{fill:#00b7ff;}.cls-4{fill:#e63429;}</style></defs><title>sobre</title><g id="Capa_2" data-name="Capa 2"><g id="Home_v.5" data-name="Home v.5"><path class="cls-1" d="M0,19.4,22.37,3.6a2.37,2.37,0,0,1,3.1,0L47.84,19.4,23.92,30.63Z"/><polygon class="cls-2" points="43.27 30.8 4.57 30.8 4.57 0 34.68 0 38.97 3.98 43.27 7.96 43.27 30.8"/><path class="cls-3" d="M46,43.26H1.88A1.79,1.79,0,0,1,0,41.56V19.4l23.92,9,23.92-9V41.56A1.79,1.79,0,0,1,46,43.26Z"/><path class="cls-1" d="M1.85,43.26,22.49,26.47a2.16,2.16,0,0,1,2.86,0L46,43.26Z"/><polygon class="cls-4" points="34.68 7.96 43.27 7.96 34.68 0 34.68 7.96"/></g></g></svg>