<svg xmlns="http://www.w3.org/2000/svg" viewBox="0 0 198.25 230.88"><defs><style>.cls-1{opacity:0.1;}.cls-2{fill:#e63429;}.cls-3{fill:#263238;}.cls-10,.cls-11,.cls-4,.cls-7,.cls-8{fill:#fff;}.cls-4,.cls-6{opacity:0.2;}.cls-11,.cls-4,.cls-6,.cls-7,.cls-8{isolation:isolate;}.cls-5{fill:#004b93;}.cls-7{opacity:0.5;}.cls-8{opacity:0.3;}.cls-11,.cls-9{opacity:0.4;}</style></defs><title>dibujo 4</title><g id="Capa_2" data-name="Capa 2"><g id="Esquema"><g id="freepik--background-simple--inject-3" class="cls-1"><path class="cls-2" d="M160.19,228.08c-20.8,6.32-32.9.91-53.47-6.13S67.48,203.17,50,190.28c-15.45-11.37-35.41-26.9-42.69-44.66-9.89-24.12-16-83.54,25.19-124.75C43.17,10.16,57.05,2,72.11.3c17.45-2,35.27,5.83,47.16,18.78s18.09,30.5,19,48.05c.65,13-1.36,26.67,3.94,38.55,7.32,16.43,26,24.13,38.82,36.72,9.94,9.74,16.63,23.13,17.23,37.08s-5.16,28.27-16,37.07-31.71,17.62-44.38,11.78"/></g><g id="freepik--Character--inject-3"><path class="cls-3" d="M88.9,98.46H80.43s-11.2,19.09-20.92,18c-7.69-.9-11.84-14.92-11.84-14.92l-5.28.3S45.12,120,57.9,123.2C75.14,127.46,88.9,98.46,88.9,98.46Z"/><path class="cls-4" d="M88.9,98.46A69.43,69.43,0,0,1,84.6,106l-.46.71c-.91,1.37-2,2.82-3.08,4.27l-.53.67a46.8,46.8,0,0,1-3.63,4.08l-.61.6A34.68,34.68,0,0,1,72,119.84l-.71.48a22.69,22.69,0,0,1-3.89,2l-.8.29a14.9,14.9,0,0,1-5.77.91,8.24,8.24,0,0,1-.85,0,12.87,12.87,0,0,1-2.12-.36A14.78,14.78,0,0,1,54,121.57a8,8,0,0,1-.74-.44,17.79,17.79,0,0,1-3.74-3.24c-.19-.21-.38-.43-.56-.65a26.9,26.9,0,0,1-2.75-4.15c-.14-.25-.28-.51-.4-.77a39.42,39.42,0,0,1-3.49-10.57l5.28-.3a40.44,40.44,0,0,0,3,7.08q.2.39.42.75a24,24,0,0,0,2.09,3c.18.23.37.45.56.66a12.38,12.38,0,0,0,2,1.83,6.54,6.54,0,0,0,.73.48,7.53,7.53,0,0,0,3,1.08h.3a6,6,0,0,0,.85,0,9,9,0,0,0,2.72-.55c.27-.09.53-.2.79-.31a15.69,15.69,0,0,0,2.57-1.42c.24-.15.47-.31.7-.48A29.11,29.11,0,0,0,70.44,111c.21-.19.42-.39.62-.6,1.1-1.08,2.14-2.24,3.1-3.39l.55-.66c1.05-1.29,2-2.55,2.8-3.68L78,102c1.48-2.14,2.36-3.64,2.36-3.64Z"/><path class="cls-5" d="M48.43,103.83l-4.94,2.73s-4-8.1-2.39-15.22l8.8-2.2A32.12,32.12,0,0,1,48.43,103.83Z"/><path class="cls-6" d="M84.6,106l-.46.71-6.59-3.87.49-.69Z"/><path class="cls-6" d="M81.06,110.93l-.53.67-6.33-4.5.55-.66Z"/><path class="cls-6" d="M76.9,115.68l-.61.6-5.81-5.18c.21-.19.42-.39.62-.6Z"/><path class="cls-6" d="M72,119.84l-.71.48-4.59-6.14c.24-.15.47-.31.7-.48Z"/><path class="cls-6" d="M67.43,122.37l-.8.29-3.26-6.75c.27-.09.53-.2.79-.31Z"/><path class="cls-6" d="M60.84,123.57a8.24,8.24,0,0,1-.85,0l-.21-7.07a6,6,0,0,0,.85,0Z"/><path class="cls-6" d="M56.43,115.34,54,121.62a8,8,0,0,1-.74-.44l2.44-6.32A6.54,6.54,0,0,0,56.43,115.34Z"/><path class="cls-6" d="M53.73,113l-4.17,4.91c-.19-.21-.38-.43-.56-.65l4.17-4.92C53.35,112.6,53.54,112.82,53.73,113Z"/><path class="cls-6" d="M51.08,109.33l-4.83,3.77c-.14-.25-.28-.51-.4-.77l4.81-3.79C50.8,108.82,50.94,109.09,51.08,109.33Z"/><path class="cls-3" d="M64.66,97.73a1.28,1.28,0,0,1-1.08,1.45.89.89,0,0,1-.23,0H48.88a1.67,1.67,0,0,1-1.63-1.46L44,69.18a1.45,1.45,0,0,1,1.21-1.64H59.79a1.86,1.86,0,0,1,1.64,1.65Z"/><path class="cls-7" d="M59.83,69,63.1,97.82a1.1,1.1,0,0,1-.79,1.34,1,1,0,0,1-.35,0H49.69c-.82,0-2.33-.46-2.42-1.27L44,69c-.09-.81,1.32-1.46,2.14-1.46h12.3A1.5,1.5,0,0,1,59.83,69Z"/><ellipse class="cls-3" cx="61.67" cy="188.52" rx="23.64" ry="30.31"/><ellipse class="cls-6" cx="67.33" cy="188.52" rx="16.62" ry="21.31"/><path class="cls-5" d="M151.67,172.87l-18.46,19.39-59-2.7L60.83,175l8.25-19a3,3,0,0,1,2.77-1.82H86.68a3,3,0,0,1,2.21,1l.89,1,4.12,4.41a3,3,0,0,0,2.21,1h11.42a2.92,2.92,0,0,0,1.63-.47l9.91-6.34a3,3,0,0,1,1.62-.47H141a3,3,0,0,1,2.74,1.74Z"/><path class="cls-6" d="M113.22,175.1l9.93-16.71a3.06,3.06,0,0,1,2.62-1.49h14.32a3,3,0,0,1,2.81,1.87L149,173.24l-8.18,14.25-21.23-.79-6.33-12.39"/><path class="cls-6" d="M119.07,154.64,110.51,169a3.36,3.36,0,0,1-2.9,1.65H70.43a2.09,2.09,0,0,1-2.09-2.09,2.24,2.24,0,0,1,.16-.8l4.2-10.07a2.62,2.62,0,0,1,2.39-1.59H89.75l4.12,4.41a3,3,0,0,0,2.21,1h11.45a2.92,2.92,0,0,0,1.63-.47Z"/><path class="cls-3" d="M135.48,206.25H73.71A9.07,9.07,0,0,1,66.77,203L56.43,190.78a9,9,0,0,1-2.13-5.84v-8.43a3.64,3.64,0,0,1,3.64-3.64h77.51a3.64,3.64,0,0,1,3.64,3.64h0v26.1A3.63,3.63,0,0,1,135.48,206.25Z"/><path class="cls-8" d="M139.12,176.51v26.1a3.64,3.64,0,0,1-3.64,3.64H73.71A9.07,9.07,0,0,1,66.77,203L56.43,190.78a9,9,0,0,1-2.13-5.84v-8.43a3.64,3.64,0,0,1,3.64-3.64h77.51a3.64,3.64,0,0,1,3.67,3.61Z"/><path class="cls-6" d="M139.12,176.51v26.1a3.64,3.64,0,0,1-3.64,3.64h-8.77a9.07,9.07,0,0,1-6.94-3.22l-10.34-12.25a9,9,0,0,1-2.13-5.84v-8.43a3.64,3.64,0,0,1,3.64-3.64h24.51a3.64,3.64,0,0,1,3.67,3.61Z"/><path class="cls-3" d="M84.3,206.25l-9.44-12.34a10.51,10.51,0,0,0-7.27-3.84,2.83,2.83,0,0,0-1.67.45h0l-.93.69h0c-.84.62-.81,1.84.27,3.25l9.35,12.22a2.13,2.13,0,0,0,1.69.83h9.48a1.27,1.27,0,0,0,1.28-1.25H84.3Z"/><path class="cls-4" d="M66.6,190.77h0c-2.3,0-2.9,1.65-1.34,3.68l9.35,12.22a2.13,2.13,0,0,0,1.69.83h8.13a1.73,1.73,0,0,1-1.39-.68l-9.5-12.37A10.1,10.1,0,0,0,66.6,190.77Z"/><path class="cls-3" d="M98.5,206.25l-9.44-12.34a10.45,10.45,0,0,0-7.27-3.84,2.83,2.83,0,0,0-1.67.45h0l-.93.69h0c-.84.62-.81,1.84.27,3.25l9.35,12.22a2.13,2.13,0,0,0,1.69.83H100a1.27,1.27,0,0,0,1.28-1.25H98.5Z"/><path class="cls-4" d="M80.8,190.77h0c-2.3,0-2.89,1.65-1.34,3.68l9.35,12.22a2.13,2.13,0,0,0,1.69.83h8.16a1.73,1.73,0,0,1-1.39-.68l-9.49-12.37A10.11,10.11,0,0,0,80.8,190.77Z"/><path class="cls-3" d="M112.7,206.25l-9.44-12.34A10.45,10.45,0,0,0,96,190.07a2.83,2.83,0,0,0-1.67.45h0l-.93.69h0c-.84.62-.81,1.84.27,3.25L103,206.68a2.13,2.13,0,0,0,1.69.83h9.48a1.27,1.27,0,0,0,1.28-1.25H112.7Z"/><path class="cls-4" d="M95,190.77h0c-2.3,0-2.89,1.65-1.34,3.68L103,206.67a2.13,2.13,0,0,0,1.69.83h8.16a1.77,1.77,0,0,1-1.39-.68L102,194.45A10.11,10.11,0,0,0,95,190.77Z"/><ellipse class="cls-3" cx="147.67" cy="188.52" rx="23.64" ry="30.31"/><ellipse class="cls-5" cx="153.33" cy="188.52" rx="16.62" ry="21.31"/><path class="cls-6" d="M168.49,197.24c-2.59,7.42-8.4,12.59-15.16,12.59-9.18,0-16.62-9.54-16.62-21.31,0-8.29,3.69-15.47,9.08-19a26.49,26.49,0,0,0-1.46,8.73c0,11.76,7.44,21.31,16.62,21.31A13.6,13.6,0,0,0,168.49,197.24Z"/><path class="cls-3" d="M86.35,141.84v20.63a1.92,1.92,0,0,0,1.92,1.92h21.87a1.88,1.88,0,0,0,1.45-.67l7.21-8.34a3.52,3.52,0,0,1,2.65-1.21h2.92V141.84Z"/><path class="cls-8" d="M124.37,141.84v12.33h-2.94a3.55,3.55,0,0,0-2.68,1.21l-2.42,2.8-.74.85-2.93,3.4-.75.86-.37.43a1.88,1.88,0,0,1-1.45.67H88.27a1.93,1.93,0,0,1-1.74-1.1,2,2,0,0,1-.18-.82V141.84Z"/><rect class="cls-6" x="86.35" y="145.42" width="38.02" height="0.86"/><rect class="cls-6" x="86.35" y="149.67" width="38.02" height="0.86"/><path class="cls-6" d="M124.37,153.93v.24h-2.94a3.49,3.49,0,0,0-2,.61H86.35v-.85Z"/><polygon class="cls-6" points="116.38 158.18 115.64 159.03 86.35 159.03 86.35 158.18 116.38 158.18"/><path class="cls-6" d="M112.71,162.43l-.75.86H86.53a2,2,0,0,1-.18-.82h0Z"/><path class="cls-6" d="M124.37,141.84v4.57c-6,1.5-23.22,5.55-38,6V141.84Z"/><rect class="cls-3" x="90.74" y="79.01" width="29.07" height="16.08"/><rect class="cls-8" x="90.74" y="79.01" width="29.07" height="16.08"/><rect class="cls-6" x="90.74" y="84.57" width="29.07" height="0.8"/><rect class="cls-6" x="90.74" y="88.08" width="29.07" height="0.8"/><rect class="cls-6" x="90.74" y="91.58" width="29.07" height="0.8"/><path class="cls-6" d="M119.81,79V83.1c-7.4,2.65-19.64,6.41-29.07,6.07V79Z"/><path class="cls-5" d="M131.84,33.21H81A11.12,11.12,0,0,0,69.87,44.33V72.82A11.13,11.13,0,0,0,81,83.93h50.85A11.11,11.11,0,0,0,143,72.82V44.33A11.12,11.12,0,0,0,131.84,33.21Z"/><path class="cls-6" d="M143,44.33V72.82a11.1,11.1,0,0,1-11.11,11.11h-20A11.1,11.1,0,0,0,123,72.83h0V44.33a11.11,11.11,0,0,0-11.11-11.11h20A11.11,11.11,0,0,1,143,44.32Z"/><rect class="cls-3" x="74.19" y="38.12" width="43.84" height="40.9" rx="6.8" ry="6.8"/><rect class="cls-3" x="135.96" y="19.14" width="1" height="33.12"/><path class="cls-5" d="M145.53,58.57a12.29,12.29,0,0,1-1.05,5,10.33,10.33,0,0,1-2,3.05,8.15,8.15,0,0,1-6,2.75c-5,0-9.06-4.85-9.06-10.85s4-10.8,9-10.8a8.3,8.3,0,0,1,6.06,2.77,10.59,10.59,0,0,1,2,3A12.45,12.45,0,0,1,145.53,58.57Z"/><g class="cls-9"><path d="M139.6,66.36c-3.55,0-6.43-3.49-6.43-7.79s2.88-7.78,6.43-7.78a6,6,0,0,1,4.89,2.75,10.59,10.59,0,0,0-2-3,6.41,6.41,0,0,0-2.92-.7c-4.1,0-7.43,3.94-7.43,8.78s3.33,8.79,7.43,8.79a6.28,6.28,0,0,0,2.89-.69,10.33,10.33,0,0,0,2-3.05A6,6,0,0,1,139.6,66.36Z"/></g><path class="cls-10" d="M106.43,52.28c0,1.76-.78,3.18-1.75,3.18s-1.76-1.42-1.76-3.18.79-3.18,1.76-3.18S106.43,50.52,106.43,52.28Z"/><path class="cls-10" d="M87.43,52.26c0,1.76-.79,3.18-1.76,3.18S83.92,54,83.92,52.26s.78-3.18,1.75-3.18S87.43,50.5,87.43,52.26Z"/><path class="cls-11" d="M95.08,67a52.23,52.23,0,0,1,4.81,6l1.22-.58c5.49-2.7,7.15-5.76,7.32-8.34a7.88,7.88,0,0,0-.72-3.67,7.74,7.74,0,0,0-1.1-1.83c-2,3.17-7,6.07-9.67,7.52C95.81,66.7,95.08,67,95.08,67Z"/><path class="cls-10" d="M96.94,66.1l1.46,1.72c5.17-2.56,8.46-5,9.31-7.41a7.74,7.74,0,0,0-1.1-1.83C104.56,61.74,99.63,64.64,96.94,66.1Z"/><path class="cls-5" d="M101.11,72.41c5.49-2.7,7.15-5.76,7.32-8.34a20,20,0,0,0-5.51,4.2A7.44,7.44,0,0,0,101.11,72.41Z"/><path class="cls-5" d="M140.78,104v29.81a10.68,10.68,0,0,1-10.68,10.68H82.63A10.68,10.68,0,0,1,72,133.79V104A10.68,10.68,0,0,1,82.63,93.3h47.46A10.68,10.68,0,0,1,140.78,104Z"/><path class="cls-6" d="M140.78,104v29.81a10.68,10.68,0,0,1-10.68,10.68h-5.47A10.68,10.68,0,0,1,114,133.79V104A10.68,10.68,0,0,1,124.63,93.3h5.46A10.68,10.68,0,0,1,140.78,104Z"/><polygon class="cls-3" points="66.05 100.38 66.05 91.98 62.72 85.9 63.11 95.09 66.05 100.38"/><path class="cls-3" d="M41.12,91.1l1.09-1.79L44,88.38V86.32l3.3-3.26,2.17,3.16-1,.88-1.29-.56L46.89,88h1.66l1.62,4.73-1,.77.43,2.32-2.47,1.58-2.57-1,.65-1.59S41.12,95.19,41.12,91.1Z"/><path class="cls-3" d="M128.25,100.45h0a4.59,4.59,0,0,1,4.55,4.62,4.3,4.3,0,0,1-.23,1.38c-2.66,7.9-10.44,20.61-33,20.61-24.89,0-39.25-22.3-39.25-22.3L66,100.33s12.55,18.57,33.3,18.57c17.14,0,22.81-10.18,24.59-15.43A4.54,4.54,0,0,1,128.25,100.45Z"/><path class="cls-8" d="M132.57,106.5a26.36,26.36,0,0,1-1.25,3.12c-.11.26-.23.52-.37.78a27.54,27.54,0,0,1-3,4.82,5.78,5.78,0,0,1-.53.67,26.85,26.85,0,0,1-5.77,5.29l-.71.48a31,31,0,0,1-6.87,3.28l-.82.27a41.28,41.28,0,0,1-7.7,1.58l-.85.09c-1.61.15-3.31.23-5.1.23-.85,0-1.68,0-2.5-.07l-.86-.07a40.65,40.65,0,0,1-6.65-1.1l-.84-.21a44.23,44.23,0,0,1-7.35-2.74l-.76-.38a47.48,47.48,0,0,1-6.76-4.09c-.24-.16-.47-.33-.7-.5a57.43,57.43,0,0,1-5.91-5l-.61-.6a51,51,0,0,1-6.31-7.52l5.71-4.43a43.93,43.93,0,0,0,5.54,6.33l.62.59a48.75,48.75,0,0,0,5,4.09c.23.17.46.34.7.5a44.17,44.17,0,0,0,5.91,3.44l.78.37a37.24,37.24,0,0,0,5.87,2.08c.27.08.55.15.83.21a33.83,33.83,0,0,0,5.47.86l.86.06h1.74a38.61,38.61,0,0,0,4.44-.25,5,5,0,0,0,.86-.12,27.66,27.66,0,0,0,5.75-1.36l.81-.3a22.55,22.55,0,0,0,4.62-2.47c.24-.17.47-.33.69-.51a20.61,20.61,0,0,0,3.83-3.75c.19-.23.36-.46.52-.69A21.53,21.53,0,0,0,123,105.9c.12-.27.24-.53.35-.79.24-.56.44-1.1.61-1.59a4.57,4.57,0,0,1,8.63,3Z"/><path class="cls-3" d="M61.27,88.87s-5.58-3.7-6.07-3.5a49,49,0,0,0-3.86,3.47l.86,1.37-2,2.16.6.93-1.42,2.55,3.46,4.53h4.16Z"/><path class="cls-5" d="M61.27,106.1,67,101.68s-4.47-12.25-5.76-12.83S52.2,95,52.2,96.06,58.34,104.43,61.27,106.1Z"/><path class="cls-6" d="M131.32,109.62c-.11.26-.23.52-.37.78l-8-4.5c.12-.27.24-.53.35-.79Z"/><path class="cls-6" d="M127.94,115.22a5.78,5.78,0,0,1-.53.67l-7.08-5.72c.19-.23.36-.46.52-.69Z"/><path class="cls-6" d="M121.64,121.18l-.71.48-5.12-7.23c.24-.17.47-.33.69-.51Z"/><path class="cls-6" d="M114.06,124.94l-.82.27-2.86-8,.81-.3Z"/><path class="cls-6" d="M105.54,126.79l-.85.09-.9-8.18a5,5,0,0,0,.86-.12Z"/><path class="cls-6" d="M97.61,118.91,97.09,127l-.86-.07.52-8.12Z"/><path class="cls-6" d="M91.28,118l-1.7,7.88-.84-.21,1.71-7.88C90.72,117.86,91,117.93,91.28,118Z"/><path class="cls-6" d="M84.58,115.7l-3.15,7.22-.76-.38,3.17-7.21Z"/><path class="cls-6" d="M77.89,111.89l-4,6.56c-.24-.16-.47-.33-.7-.5l4-6.56C77.43,111.56,77.65,111.73,77.89,111.89Z"/><path class="cls-6" d="M72.21,107.3l-4.95,5.63-.61-.6,4.94-5.62Z"/></g></g></g></svg>