<svg xmlns="http://www.w3.org/2000/svg" viewBox="0 0 235.35 377.28"><defs><style>.cls-1{opacity:0.1;}.cls-2,.cls-3{fill:#004b93;}.cls-3{opacity:0.2;}.cls-4{fill:#fff;}.cls-5{fill:#b16668;}.cls-6{fill:#263238;}.cls-7{fill:#9a4a4d;}.cls-8{fill:#ffa8a7;}.cls-9{fill:#37474f;}.cls-10{fill:#f28f8f;}.cls-11{fill:#455a64;}.cls-12{opacity:0.2;}.cls-13{fill:#ffbda7;}.cls-14{fill:#c8856a;}.cls-15{fill:#af6152;}.cls-16{fill:#f0997a;}.cls-17{fill:#ffbe9d;}.cls-18{fill:#666;}.cls-19{fill:#eb996e;}.cls-20{opacity:0.4;}</style></defs><title>dibujo 2</title><g id="Capa_2" data-name="Capa 2"><g id="Esquema"><g id="freepik--background-simple--inject-3" class="cls-1"><path class="cls-2" d="M181,270c-24.66,4.53-50.42-.85-73.08-11.59S65.36,231.81,47,214.77c-16.23-15-37.08-35.42-43.12-56.7C-4.35,129.15-3.64,60.29,48.9,18.41,62.55,7.54,79.52,0,97,0c20.25,0,39.65,11.25,51.6,27.63s16.75,37.29,15.47,57.5c-.95,15-5,30.38-.5,44.68,6.26,19.78,26.61,31,39.71,47.1,10.13,12.46,16.06,28.66,14.93,44.73s-9.58,31.71-23.14,40.38-32,9.61-45.81,1.27"/></g><ellipse id="freepik--shadow--inject-5" class="cls-3" cx="167.86" cy="338.32" rx="67.49" ry="38.96"/><g id="freepik--Options--inject-5"><g id="freepik--character--inject-5"><g id="freepik--character--inject-5-2" data-name="freepik--character--inject-5"><path class="cls-4" d="M37.59,70C24.57,77.55,14,95.84,14,110.89c0,8.49,3.36,14.12,8.63,16.07a14.31,14.31,0,0,0,8.42.26c.53-.13,1.08-.29,1.63-.46a27.67,27.67,0,0,0,4.92-2.25,41.38,41.38,0,0,0,9-7.23c.37-.37.74-.8,1.1-1.21.77-.86,1.41-1.63,2.22-2.68s1.59-2.12,2.34-3.23,1.47-2.27,2.13-3.44c4.21-7.34,6.82-15.6,6.82-23.08C61.19,68.59,50.61,62.51,37.59,70Z"/><g id="freepik--character--inject-5-3" data-name="freepik--character--inject-5"><path class="cls-5" d="M50.42,111.42c.63-1,1.77-2.84,2.22-3.73-1.33-.6-2.17-1.17-6.85.25l2.23,7c.43-.6.92-1.31,1.28-1.8s.68-1,1-1.49Z"/><path class="cls-6" d="M50.9,110.77a12.13,12.13,0,0,0-5-2.86l-3.57,3.55s-11,2-12.53,2.72l-2.11,1c-.05,0-3.3,2.45-2.86,11.89v.42a14,14,0,0,0,4.09.11,19.15,19.15,0,0,0,2.24-.41c.56-.13,1.1-.28,1.64-.46a28,28,0,0,0,4.92-2.25,36.87,36.87,0,0,0,6-4.41h0l.84-.93c.37-.43.74-.84,1.11-1.28.76-.9,1.52-1.86,2.25-2.85l.1-.11,1.28-1.8C50.12,111.88,50.81,110.8,50.9,110.77Z"/><path d="M45.44,74.43c3.7.24,10.28,2.38,8,7.21-1.8,2.13,1,4.38,1.74,1.55a2.06,2.06,0,0,1-2.53,3c2,2.83-2.33,4.37-3.82,6.1-4.87,5.21-10.54,10-15.59,15.21-.39-3.22-5.36-2.55-7.7-9.62-1.22-3.68-.66-11,3.41-12.81C30.7,78.16,38.65,73.49,45.44,74.43Z"/><path class="cls-5" d="M31.68,113.3l-2,.91s3.35,2.85,12-1.09c5.81-2.66,4.12-5.18,4.12-5.18l-1.22.31c-.82.21-1,.25-1.14-.73h0l-.22-1.94a11.28,11.28,0,0,0,4.84-2.44c1.92-1.54,3.65-6.82,2.64-11.48A13.77,13.77,0,0,1,50,88.75c.38-4.59-1.27-6.54-2.23-7.64C46.33,85,39.22,86.24,36.07,85.2c.91,3.71-2.53,7.08-2.53,7.08,1.5,2.28.94,5.16-.84,5.27a3.21,3.21,0,0,0-1.06-.84,3.06,3.06,0,0,0-4.08,1.43,4.39,4.39,0,0,0,1.49,5.8,2.92,2.92,0,0,0,3.68-.39l.84,7A2.67,2.67,0,0,1,31.68,113.3Z"/><path class="cls-7" d="M40.52,99.46a1.43,1.43,0,0,0,1.3,1.56,2.2,2.2,0,0,0,2-1.82l-3.21-.08A1.28,1.28,0,0,0,40.52,99.46Z"/><path class="cls-8" d="M40.6,99.94A1.26,1.26,0,0,0,41.82,101a1.71,1.71,0,0,0,.92-.28,1.34,1.34,0,0,0-.07-.18,1.4,1.4,0,0,0-1.84-.73A.7.7,0,0,0,40.6,99.94Z"/><path class="cls-6" d="M49.24,87.89a1.15,1.15,0,0,0-.85-1.39,1.57,1.57,0,0,0-1.6,1.22l2.39.35Z"/><path class="cls-6" d="M38.5,89.84a1.26,1.26,0,0,1,.2-.2,1.1,1.1,0,0,1,1.54.2l-2.18,2A1.69,1.69,0,0,1,38.5,89.84Z"/><polygon class="cls-7" points="47.63 94.58 44.28 97.14 43.54 90.23 47.63 94.58"/><path class="cls-6" d="M47.61,89.21a.76.76,0,0,1,.3,0,.85.85,0,0,1,.75.93,1.44,1.44,0,0,1-1.08,1.34,1,1,0,0,1-.3,0,.84.84,0,0,1-.75-.93A1.45,1.45,0,0,1,47.61,89.21Z"/><path class="cls-6" d="M40,91.84h.18a.84.84,0,0,1,.83.86,1.43,1.43,0,0,1-1,1.36.93.93,0,0,1-.29,0,.84.84,0,0,1-.74-.93A1.42,1.42,0,0,1,40,91.84Z"/><path class="cls-7" d="M43.38,107s-5,.85-7.36.15c-1.68-.51-1.79-2.61-1.79-2.61,1,1.64,4.94,1.84,9,1Z"/><path class="cls-5" d="M27.58,115.24h0c-4.47,1.76-5,2.37-7.83,10.1a11.52,11.52,0,0,0,5,2.18,14,14,0,0,0,4.08.1C29.51,125.4,31.24,118.7,27.58,115.24Z"/></g><path class="cls-2" d="M48.17,68.09h0c7.25,0,11.74,6,11.74,15.53,0,7-2.35,15-6.64,22.45-.64,1.14-1.34,2.29-2.07,3.37s-1.56,2.22-2.29,3.15-1.46,1.78-2.17,2.62l-1.07,1.16a39.38,39.38,0,0,1-8.69,7,26,26,0,0,1-4.68,2.14c-.52.17-1,.31-1.52.43a15.88,15.88,0,0,1-3.69.47,11.43,11.43,0,0,1-4-.68c-4.94-1.84-7.79-7.27-7.79-14.85,0-14.61,10.32-32.44,23-39.74a20.27,20.27,0,0,1,9.89-3m0-1.31A21.29,21.29,0,0,0,37.59,70C24.57,77.55,14,95.84,14,110.89c0,8.49,3.36,14.12,8.63,16.07a12.62,12.62,0,0,0,4.42.77,16.8,16.8,0,0,0,4-.51c.53-.13,1.08-.29,1.63-.46a27.67,27.67,0,0,0,4.92-2.25,40.87,40.87,0,0,0,9-7.25c.37-.36.74-.79,1.1-1.21.77-.85,1.41-1.63,2.23-2.67s1.59-2.13,2.34-3.24,1.46-2.26,2.13-3.43c4.21-7.35,6.81-15.61,6.81-23.09,0-10.66-5.31-16.84-13-16.84Z"/></g></g><g id="freepik--character--inject-5-4" data-name="freepik--character--inject-5"><g id="freepik--character--inject-5-5" data-name="freepik--character--inject-5"><path class="cls-4" d="M99.17,34.44C86.16,42,75.59,60.25,75.59,75.3c0,8.48,3.37,14.12,8.64,16.06a14,14,0,0,0,8.43.26,15.29,15.29,0,0,0,1.62-.46,26.33,26.33,0,0,0,4.92-2.25,40.63,40.63,0,0,0,9-7.22c.37-.36.74-.8,1.11-1.21.75-.85,1.5-1.76,2.22-2.67s1.59-2.11,2.34-3.24,1.45-2.27,2.12-3.43c4.22-7.35,6.82-15.62,6.82-23.09C122.79,33,112.18,26.92,99.17,34.44Z"/><g id="freepik--character--inject-5-6" data-name="freepik--character--inject-5"><g id="freepik--chest--inject-5"><path class="cls-6" d="M110,71.09l1.26,7,.22-.27c.81-1,1.59-2.11,2.34-3.23.34-.52.58-.93,1-1.54s.78-1.25,1.14-1.89c.18-.3.35-.61.52-.93A16.37,16.37,0,0,0,110,71.09Z"/><g id="freepik--chest--inject-5-2" data-name="freepik--chest--inject-5"><path class="cls-9" d="M110,71.06c-3.18.71-6,1.53-8.83,2.26-7.17,1.86-14.85,10.1-18,12.48-.86.73-1.38,2.25-1.64,4.21a11.32,11.32,0,0,0,2.64,1.4,11.62,11.62,0,0,0,2.25.58,15.28,15.28,0,0,0,6.17-.33c.53-.13,1.07-.28,1.62-.46A26.94,26.94,0,0,0,99.2,89a41,41,0,0,0,9-7.25l1.09-1.19c.69-.73,1.36-1.58,2-2.42l.22-.27c.81-1,1.59-2.11,2.34-3.23.34-.52.67-1,1-1.54A4.9,4.9,0,0,0,110,71.06Z"/></g><g id="freepik--head--inject-5"><path d="M97.4,40.5c3.1-.74,5.78-.91,8.82-1.75a15.1,15.1,0,0,0,3.46-1.6c1.06-.56,1.9-.76,2.74-.26,1.46.78,2,3.83.24,5.83a2.2,2.2,0,0,1,0,4.36c1.53,1.91.85,4.31-1,5.69a15.48,15.48,0,0,0-1,2.06,21,21,0,0,1-7.17,7.32c-7.52,3.76-11-4.93-9.85,8.67-1.78-.66-2.44-2.66-4-7.94-1.39-4.67-4.15-9.59-.27-14.5C89.14,43.84,93.39,41.46,97.4,40.5Z"/><path class="cls-8" d="M87.24,61.27c1-2.89,3.2-2.37,3.89-1.74s1.49,2.23,2.66,1.8c.67-.24,1-1.35.4-3.66,1.77-1,3.72-5.92,2.36-8.57,5-5.42,11-1.05,13.71-3.93,1.69,8,2.13,14.4,1.22,19-.57,2.88-1.65,4.46-3.3,5.4a16.39,16.39,0,0,1-3.47,1.27l.18,3.56c4.65,3,1,5.62-1.11,5.84C94.94,81.14,93.61,78,93.61,78l-.89-11.69s-1.5,2.44-3.27,1.6C87.91,67.19,86.24,64.16,87.24,61.27Z"/><path class="cls-10" d="M104.82,72.56s-4.86,1-8.08-1.52a7.28,7.28,0,0,1-2.3-4.26A12,12,0,0,0,97,69.87c1.58,1.24,5.59,1.41,7.68.92Z"/><path class="cls-9" d="M100.25,52.92a1.06,1.06,0,0,0-1.49.18,1.77,1.77,0,0,0-.34,2.1l2.06-2A.92.92,0,0,0,100.25,52.92Z"/><path class="cls-9" d="M109.82,50.46a1.23,1.23,0,0,0-1.08-1.36,1.52,1.52,0,0,0-1.47,1.37l2.52.15A.45.45,0,0,0,109.82,50.46Z"/><path class="cls-9" d="M100.52,55.34a.9.9,0,0,1,.28,0,.85.85,0,0,1,.81.88,1.46,1.46,0,0,1-.92,1.43.9.9,0,0,1-.28,0,.84.84,0,0,1-.81-.88A1.46,1.46,0,0,1,100.52,55.34Z"/><path class="cls-9" d="M108.44,52.6a1,1,0,0,1,.3,0,.85.85,0,0,1,.8.88,1.46,1.46,0,0,1-1,1.46.9.9,0,0,1-.28,0,.85.85,0,0,1-.81-.88A1.48,1.48,0,0,1,108.44,52.6Z"/><path class="cls-10" d="M108.42,58.69l-3.37,2.4-1.47-6.84C105,54.67,107.11,56.71,108.42,58.69Z"/><path class="cls-5" d="M102.39,63.43a1.84,1.84,0,0,0,1.81,1.88h0A1.74,1.74,0,0,0,106,63.63l-3.65-.2Z"/><path class="cls-10" d="M102.45,64a2,2,0,0,1,.68-.11,2.17,2.17,0,0,1,2,1.25,1.69,1.69,0,0,1-.91.2A1.91,1.91,0,0,1,102.45,64Z"/></g><path class="cls-6" d="M83.2,85.83A33.08,33.08,0,0,0,80,88.62,12.46,12.46,0,0,0,81.56,90a11.32,11.32,0,0,0,2.64,1.4,11.62,11.62,0,0,0,2.25.58A15.08,15.08,0,0,0,83.2,85.83Z"/></g></g><path class="cls-2" d="M109.74,32.53h0c7.24,0,11.75,6,11.75,15.54,0,7-2.36,15-6.65,22.44-.64,1.15-1.33,2.29-2.07,3.36s-1.55,2.23-2.29,3.16-1.46,1.78-2.17,2.62c-.35.4-.72.79-1.07,1.17a39.63,39.63,0,0,1-8.69,7A25.92,25.92,0,0,1,93.88,90c-.53.17-1,.32-1.53.44a15.87,15.87,0,0,1-3.69.46,11.38,11.38,0,0,1-4-.68c-5-1.83-7.79-7.27-7.79-14.85,0-14.61,10.31-32.43,23-39.73a20.25,20.25,0,0,1,9.88-3.06m0-1.33a21.51,21.51,0,0,0-10.56,3.24C86.17,42,75.6,60.27,75.6,75.31c0,8.49,3.37,14.13,8.64,16.07a12.54,12.54,0,0,0,4.42.77,16.93,16.93,0,0,0,4-.51c.53-.12,1.07-.28,1.62-.46a26.33,26.33,0,0,0,4.92-2.25,40.39,40.39,0,0,0,9-7.23c.37-.36.74-.8,1.11-1.2.75-.86,1.5-1.76,2.22-2.68s1.59-2.11,2.34-3.23,1.45-2.27,2.12-3.44c4.22-7.35,6.82-15.61,6.82-23.08,0-10.68-5.31-16.84-13.05-16.84Z"/></g></g><g id="freepik--character--inject-5-7" data-name="freepik--character--inject-5"><g id="freepik--character--inject-5-8" data-name="freepik--character--inject-5"><path class="cls-4" d="M99.17,173.38c-13,7.52-23.58,25.81-23.58,40.86,0,8.49,3.37,14.12,8.64,16.07a14.18,14.18,0,0,0,8.43.26c.53-.13,1.07-.28,1.62-.46a27,27,0,0,0,4.92-2.25,40.39,40.39,0,0,0,9-7.23c.37-.36.74-.8,1.11-1.2.75-.86,1.5-1.76,2.22-2.68s1.59-2.11,2.34-3.23,1.45-2.27,2.12-3.44c4.22-7.35,6.82-15.61,6.82-23.08C122.79,172,112.18,165.86,99.17,173.38Z"/><g id="freepik--character--inject-5-9" data-name="freepik--character--inject-5"><path class="cls-11" d="M110.47,193.3c1.07,2-1.45,4.28-1.45,7.4s2.09,3.78,3.37,5.8.39,4.05-1.6,6.34-21.36,11.36-24.53,11.1-3.28-3.73-1.86-5.67,2.58-3,.41-5.32-1.69-5.39.35-8,1.47-5.72,1.35-7.45C86.51,197.52,109.4,191.25,110.47,193.3Z"/><path class="cls-2" d="M112,214.79c.63-1,1.78-2.83,2.22-3.73-1.33-.6-2.17-1.17-6.84.24l2.22,7c.44-.6.93-1.32,1.28-1.8s.67-1,1-1.49Z"/><path class="cls-2" d="M112.48,214.14a12.19,12.19,0,0,0-5-2.86l-3.57,3.55s-11,2-12.54,2.72c-.77.36-2.06,1-2.11,1s-3.3,2.45-2.85,11.89v.43a14.3,14.3,0,0,0,4.08.1,19,19,0,0,0,2.25-.42,16.23,16.23,0,0,0,1.62-.44,27.72,27.72,0,0,0,4.92-2.26,38.47,38.47,0,0,0,6.07-4.4h0c.27-.31.55-.63.84-.93l1.1-1.29c.77-.91,1.52-1.86,2.26-2.84,0,0,.09-.08.09-.12l1.28-1.8C111.71,215.25,112.39,214.17,112.48,214.14Z"/><path class="cls-11" d="M105.14,200.94a12.7,12.7,0,0,0,3.74-4.43,18.62,18.62,0,0,1,.9-2.83c.46-1.21,1.44,5,2.09,3.84,1.27-2.16,5.32-6.8,2.7-13.86-1.27-3.19-4.31-6.11-7.9-6-6.92-.31-14.33,3.88-16.18,10.84-4.07,1.78-4.63,9.14-3.42,12.81,2.35,7.1,7.33,6.41,7.72,9.62C98.11,207.49,101.69,204.25,105.14,200.94Z"/><path class="cls-8" d="M93.25,216.71c-1.5.7-2,.91-2,.91s3.35,2.85,12-1.09c5.82-2.66,4.14-5.18,4.14-5.18l-1.23.31c-.82.21-1,.25-1.14-.73h0l-.22-1.94a11.34,11.34,0,0,0,4.84-2.44c1.92-1.54,3.66-6.82,2.64-11.48a12.55,12.55,0,0,1-.65-2.9c.38-4.59-1.26-6.55-2.22-7.65-2.6-.42-2.8,2.49-4.81,3.21-2.79,0-4.48-.74-6.94.89-3.24,2.14-2.53,7.07-2.53,7.07,1.5,2.29,1,5.16-.84,5.27a3,3,0,0,0-1-.82,3.06,3.06,0,0,0-4.09,1.41,4.38,4.38,0,0,0,1.49,5.8c1.89,1.37,3.68-.39,3.68-.39l.84,7A2.69,2.69,0,0,1,93.25,216.71Z"/><path class="cls-7" d="M102.09,202.84a1.43,1.43,0,0,0,1.3,1.55,2.17,2.17,0,0,0,2-1.83l-3.2-.06A1.28,1.28,0,0,0,102.09,202.84Z"/><path class="cls-10" d="M102.16,203.3a1.28,1.28,0,0,0,1.23,1.09,1.62,1.62,0,0,0,.91-.27l-.06-.18a1.4,1.4,0,0,0-1.83-.75Z"/><path class="cls-6" d="M109.81,189.23a1.16,1.16,0,0,0-.85-1.38,1.59,1.59,0,0,0-1.59,1.22l2.37.36A1.59,1.59,0,0,0,109.81,189.23Z"/><path class="cls-6" d="M99.81,191.74a1.8,1.8,0,0,1,.2-.19,1.11,1.11,0,0,1,1.55.23l-2.18,2A1.75,1.75,0,0,1,99.81,191.74Z"/><path class="cls-6" d="M109.19,192.18a.75.75,0,0,1,.3,0,.84.84,0,0,1,.74.93,1.43,1.43,0,0,1-1.08,1.34,1,1,0,0,1-.3,0,.84.84,0,0,1-.74-.93A1.43,1.43,0,0,1,109.19,192.18Z"/><path class="cls-6" d="M101.61,195.42a1,1,0,0,1,.25,0,.84.84,0,0,1,.75.93,1.44,1.44,0,0,1-1.07,1.34,1,1,0,0,1-.3,0,.84.84,0,0,1-.74-.93A1.43,1.43,0,0,1,101.61,195.42Z"/><path class="cls-10" d="M105,210.42s-5,.83-7.35.13c-1.69-.49-1.8-2.61-1.8-2.61,1,1.65,4.94,1.85,9,1Z"/><path class="cls-6" d="M92.16,199.84a2.72,2.72,0,0,1,1.25.34L96,198l.15-.12.24.18a.72.72,0,0,1,.2.31,12.18,12.18,0,0,0,.84,2.35,2.07,2.07,0,0,0,.76.65,2.53,2.53,0,0,0,.36.12h.21a3.21,3.21,0,0,0,.62,0h.26l.17-.05a3.24,3.24,0,0,0,.53-.16l.22-.08.28-.13a6.08,6.08,0,0,0,3.45-3.64c.45-1.26.2-2.61,1.19-3.08l.1,0h.09c.75-.17.77,1.17,1.3,1.9a2.32,2.32,0,0,0,.8.69l.18.08h.52a3,3,0,0,0,.84-.07h.08a6.39,6.39,0,0,0,1.06-.39,5.4,5.4,0,0,0,1.84-1.33,5.13,5.13,0,0,0,1.07-1.94,20.78,20.78,0,0,0,.4-2.94,1.76,1.76,0,0,1,.15-.44,2.57,2.57,0,0,0,.38-1.18c0-.44-.33-.69-.61-.6l-.5.17q-.83.28-1.68.66a15.84,15.84,0,0,0-3.26,1.78c-1.53,1.19-2,1.93-2.92,2.36s-1.59.19-3.27.52a21.55,21.55,0,0,0-5.28,2.29l-.53.3-.62.53Zm15-7.32a7.65,7.65,0,0,1,2.53-2.27c.26-.15.5-.28.74-.39h.08l.09-.05.27-.11.09,0h.12l.21-.07.19-.06a.61.61,0,0,1,.18-.05h.55a.87.87,0,0,1,.42.05c.37.15.29,1.62.19,2.4a5.13,5.13,0,0,1-.84,2.42,3.37,3.37,0,0,1-.47.53,4.33,4.33,0,0,1-1.18.85c-1.3.61-2.07.44-2.52.05h0l0-.05-.06,0h0l-.07-.08-.07-.1v-.05h0v0h0a2.67,2.67,0,0,1-.2-.46A3.25,3.25,0,0,1,107.19,192.52Zm-9.6,6.67a4.51,4.51,0,0,1-.26-2.45,6.58,6.58,0,0,1,2.93-1.86l.17-.06a7.08,7.08,0,0,1,.75-.22l.28-.07.74-.12h.61a1,1,0,0,1,.51.14c.37.29.34,1.27.22,2.11a4.26,4.26,0,0,1-.64,1.75,5,5,0,0,1-2.29,1.9,2.25,2.25,0,0,1-2.35,0l-.08-.07-.08-.07L98,200.1,98,200l0,0v-.05l-.06-.08-.13-.24a.8.8,0,0,0-.08-.16l-.09-.25v-.05h0Z"/><path class="cls-10" d="M105.61,194.28h-.1l-.09,0c-.57.28-.71.87-.84,1.58l1.06,3.95,3.37-2.28Z"/><path class="cls-2" d="M89.15,218.61h0c-4.46,1.75-5,2.38-7.83,10.11a11.56,11.56,0,0,0,5,2.17,14,14,0,0,0,4.09.1C91.09,228.77,92.81,222.07,89.15,218.61Z"/></g><path class="cls-2" d="M109.74,171.46h0c7.24,0,11.75,6,11.75,15.54,0,7-2.36,15-6.65,22.43-.64,1.16-1.33,2.29-2.07,3.37s-1.55,2.23-2.29,3.16-1.46,1.82-2.17,2.62c-.35.4-.72.79-1.07,1.17a39.63,39.63,0,0,1-8.69,7,25.92,25.92,0,0,1-4.67,2.14c-.53.17-1,.32-1.53.43a15.36,15.36,0,0,1-3.69.47,11.38,11.38,0,0,1-4-.68c-5-1.83-7.79-7.27-7.79-14.85,0-14.61,10.31-32.43,23-39.73a20.25,20.25,0,0,1,9.88-3.06m0-1.31a21.38,21.38,0,0,0-10.56,3.22c-13,7.52-23.58,25.81-23.58,40.86,0,8.49,3.37,14.12,8.64,16.07a12.54,12.54,0,0,0,4.42.77,16.93,16.93,0,0,0,4-.51c.53-.13,1.07-.28,1.62-.46a27,27,0,0,0,4.92-2.25,40.39,40.39,0,0,0,9-7.23c.37-.36.74-.8,1.11-1.2.75-.86,1.5-1.76,2.22-2.68s1.59-2.11,2.34-3.23,1.45-2.27,2.12-3.44c4.22-7.35,6.82-15.61,6.82-23.08,0-10.68-5.31-16.84-13.05-16.84Z"/></g></g><g id="freepik--character--inject-5-10" data-name="freepik--character--inject-5"><g id="freepik--character--inject-5-11" data-name="freepik--character--inject-5"><path class="cls-4" d="M37.59,209C24.57,216.47,14,234.76,14,249.8c0,8.49,3.36,14.13,8.63,16.07a14.15,14.15,0,0,0,8.42.26,15.44,15.44,0,0,0,1.63-.46,27,27,0,0,0,4.92-2.25,41,41,0,0,0,9-7.22c.37-.37.74-.8,1.1-1.21.77-.86,1.51-1.76,2.22-2.68s1.59-2.11,2.34-3.23,1.47-2.26,2.13-3.44c4.21-7.35,6.82-15.61,6.82-23.08C61.19,207.51,50.61,201.43,37.59,209Z"/><g id="freepik--character--inject-5-12" data-name="freepik--character--inject-5"><g id="freepik--chest--inject-5-3" data-name="freepik--chest--inject-5"><path class="cls-2" d="M48.45,245.57l1.28,7,.21-.27c.81-1,1.6-2.12,2.34-3.24l1-1.54c.4-.61.78-1.25,1.14-1.89.18-.3.34-.61.53-.93A16.69,16.69,0,0,0,48.45,245.57Z"/><g id="freepik--chest--inject-5-4" data-name="freepik--chest--inject-5"><path class="cls-2" d="M48.49,245.54c-3.18.7-6,1.53-8.83,2.25-7.18,1.83-14.85,10-17.95,12.48-.9.73-1.42,2.26-1.69,4.21a11.59,11.59,0,0,0,2.65,1.4,10.94,10.94,0,0,0,2.25.58,15.06,15.06,0,0,0,6.16-.32c.54-.13,1.08-.28,1.63-.46a27.67,27.67,0,0,0,4.92-2.25,40.49,40.49,0,0,0,9-7.24c.36-.36.73-.8,1.08-1.2.7-.76,1.37-1.56,2-2.41l.21-.27c.81-1,1.6-2.12,2.34-3.24l1-1.54C51.84,245.83,50.19,245.18,48.49,245.54Z"/></g><g id="freepik--chest--inject-5-5" data-name="freepik--chest--inject-5" class="cls-12"><path class="cls-2" d="M48.49,245.54c-3.18.7-6,1.53-8.83,2.25-7.18,1.83-14.85,10-17.95,12.48-.9.73-1.42,2.26-1.69,4.21a11.59,11.59,0,0,0,2.65,1.4,10.94,10.94,0,0,0,2.25.58,15.06,15.06,0,0,0,6.16-.32c.54-.13,1.08-.28,1.63-.46a27.67,27.67,0,0,0,4.92-2.25,40.49,40.49,0,0,0,9-7.24c.36-.36.73-.8,1.08-1.2.7-.76,1.37-1.56,2-2.41l.21-.27c.81-1,1.6-2.12,2.34-3.24l1-1.54C51.84,245.83,50.19,245.18,48.49,245.54Z"/></g><g id="freepik--head--inject-5-2" data-name="freepik--head--inject-5"><path class="cls-13" d="M31.32,217.13c0-3.68,3.79-5.52,7-4.34,1.89-.64,3.73-2.19,5.89-1.48a3.44,3.44,0,0,1,2.6,3.61c1.57-.91,4.12-.21,4.81,1a2.28,2.28,0,0,1,.27,2.29c-.21.8-.4,1.76.19,2.32A1.14,1.14,0,0,0,54,219.41a2.12,2.12,0,0,1-2.53,3.28A2.67,2.67,0,1,1,48.28,227c.46,1.44.37,3.37-1.08,4.21a1.21,1.21,0,0,0-.73.62c-2.54,3.3-6.24,6.45-10.68,6-1.21,0-2.44-.55-3.65-.28-1.38.6-1,3.3-1,3.3l.23,3.06c-1.44,0-2.24-1.72-2.07-2.85a1.93,1.93,0,0,1-.86.11,2.1,2.1,0,0,1-1.91-2.27c.07-.67.44-1.44,0-2C24,235.77,23,233,25.35,231.05c-3.88-2.33-1.39-6,1.76-7.47a4.47,4.47,0,0,1-.25-.6C25.67,219.46,27.81,217.32,31.32,217.13Z"/><path class="cls-8" d="M25.65,235.78c1-2.89,3.22-2.37,3.9-1.74s1.48,2.24,2.65,1.8c.67-.24,1-1.35.4-3.66,1.77-1,3.72-5.92,2.36-8.57,5-5.42,11-1.05,13.72-3.93,1.7,8,2.37,13,1.45,17.61-.56,2.81-1.88,5.79-3.52,6.74a16.56,16.56,0,0,1-3.47,1.26l.19,3.56c3.62,3,.26,5.75-4.38,5.84-6,.1-6.91-2.22-6.91-2.22l-.89-11.68s-1.49,2.44-3.28,1.6C26.33,241.66,24.65,238.66,25.65,235.78Z"/><path class="cls-10" d="M43.24,247.06a11.39,11.39,0,0,1-7.26-1.3,6.64,6.64,0,0,1-3.42-5.26A8.07,8.07,0,0,0,37.41,245c1.26.53,4.8.43,5.73.26Z"/><path class="cls-10" d="M39.39,226.6a1.06,1.06,0,0,0-1.49.18,1.79,1.79,0,0,0-.33,2.11l2-2A1.09,1.09,0,0,0,39.39,226.6Z"/><path class="cls-10" d="M48.25,224.91a1.22,1.22,0,0,0-1.09-1.34A1.54,1.54,0,0,0,45.69,225l2.53.15A1.25,1.25,0,0,0,48.25,224.91Z"/><path class="cls-9" d="M39.4,229.75a.9.9,0,0,1,.28,0,.84.84,0,0,1,.81.88,1.46,1.46,0,0,1-1,1.45,1,1,0,0,1-.29,0,.84.84,0,0,1-.8-.88A1.46,1.46,0,0,1,39.4,229.75Z"/><path class="cls-9" d="M46.88,227.08a1.33,1.33,0,0,1,.28,0,.85.85,0,0,1,.81.88,1.48,1.48,0,0,1-1,1.45.86.86,0,0,1-.28,0,.84.84,0,0,1-.8-.88A1.48,1.48,0,0,1,46.88,227.08Z"/><polygon class="cls-10" points="46.96 232.68 43.61 235.07 42.13 228.24 46.96 232.68"/><path class="cls-5" d="M40.82,237.91a1.84,1.84,0,0,0,1.81,1.87h0a1.75,1.75,0,0,0,1.82-1.68l-3.66-.19Z"/><path class="cls-10" d="M40.9,238.43a2,2,0,0,1,.68-.12,2.19,2.19,0,0,1,2,1.25,1.76,1.76,0,0,1-.9.21A2,2,0,0,1,40.9,238.43Z"/></g><path class="cls-2" d="M21.67,260.31a35.71,35.71,0,0,0-3.24,2.78,11,11,0,0,0,4.24,2.79,10.94,10.94,0,0,0,2.25.58A15.1,15.1,0,0,0,21.67,260.31Z"/></g></g><path class="cls-2" d="M48.17,207h0c7.25,0,11.74,5.95,11.74,15.54,0,7-2.35,15-6.64,22.44-.64,1.15-1.34,2.29-2.07,3.37s-1.56,2.24-2.29,3.16-1.46,1.81-2.17,2.61l-1.07,1.18a39.3,39.3,0,0,1-8.69,7,25.34,25.34,0,0,1-4.68,2.14c-.52.18-1,.32-1.52.44a15.88,15.88,0,0,1-3.69.47,11.21,11.21,0,0,1-4-.69c-4.94-1.83-7.79-7.27-7.79-14.85,0-14.61,10.32-32.42,23-39.73a20.27,20.27,0,0,1,9.89-3m0-1.31A21.39,21.39,0,0,0,37.59,209C24.57,216.47,14,234.76,14,249.8c0,8.49,3.36,14.13,8.63,16.07a12.62,12.62,0,0,0,4.42.77,16.8,16.8,0,0,0,4-.51,15.44,15.44,0,0,0,1.63-.46,27,27,0,0,0,4.92-2.25,40.59,40.59,0,0,0,9-7.25c.37-.36.74-.8,1.1-1.2.77-.86,1.51-1.76,2.23-2.68s1.59-2.11,2.34-3.23,1.46-2.27,2.13-3.44c4.21-7.35,6.81-15.61,6.81-23.08,0-10.68-5.31-16.84-13-16.84Z"/></g></g><g id="freepik--character--inject-5-13" data-name="freepik--character--inject-5"><g id="freepik--character--inject-5-14" data-name="freepik--character--inject-5"><path class="cls-4" d="M99.17,105.58c-13,7.52-23.58,25.81-23.58,40.86,0,8.49,3.37,14.12,8.64,16.07a14.18,14.18,0,0,0,8.43.26c.53-.13,1.07-.28,1.62-.47a26.33,26.33,0,0,0,4.92-2.25,40.54,40.54,0,0,0,9-7.2c.37-.37.74-.8,1.1-1.21.76-.86,1.51-1.76,2.23-2.68s1.59-2.11,2.34-3.23,1.45-2.26,2.12-3.44c4.22-7.35,6.82-15.61,6.82-23.08C122.79,104.16,112.18,98.06,99.17,105.58Z"/><g id="freepik--character--inject-5-15" data-name="freepik--character--inject-5"><g id="freepik--chest--inject-5-6" data-name="freepik--chest--inject-5"><path class="cls-6" d="M110,142.22l1.27,7c.09-.09.14-.18.22-.27q1.21-1.56,2.34-3.24l1-1.54c.39-.61.78-1.24,1.14-1.89.18-.3.35-.61.52-.93A16.67,16.67,0,0,0,110,142.22Z"/><g id="freepik--chest--inject-5-7" data-name="freepik--chest--inject-5"><path class="cls-9" d="M110,142.18c-3.17.71-6,1.54-8.82,2.27a23.32,23.32,0,0,0-11.53,7.35c-1.55,1.12-3.32,2.67-6.43,5.12-.86.73-1.39,2.26-1.64,4.21a10.62,10.62,0,0,0,2.64,1.4,10.94,10.94,0,0,0,2.25.58,15.11,15.11,0,0,0,6.17-.32c.53-.13,1.07-.29,1.62-.46a27.67,27.67,0,0,0,4.92-2.25,40.43,40.43,0,0,0,9-7.24c.37-.36.74-.79,1.1-1.2.69-.77,1.36-1.57,2-2.41.09-.09.14-.18.22-.27q1.21-1.56,2.34-3.24c.33-.51.67-1,1-1.54A4.91,4.91,0,0,0,110,142.18Z"/></g><g id="freepik--head--inject-5-3" data-name="freepik--head--inject-5"><path d="M108.4,113.22c2.89,2.78,4.11,10.26,2,13.37C98.47,143.78,93,141.75,93,141.75c-.84-2.19-2.36-5.79-3.37-7.73-2.24-4.33-3.38-10.94-.29-16C95.42,108.35,104.33,109.28,108.4,113.22Z"/><path class="cls-14" d="M87.25,132.39c1-2.89,3.2-2.41,3.89-1.73s1.39,2.5,2.16,1.51a6.34,6.34,0,0,0,.89-1.61,15.64,15.64,0,0,0,.68-9.15c-1.68-3.39,6.16-1.49,8.91-2.43s2.48-4.61,4.85-3.72c1,.38,2.12,2.85,2.35,3.88a73.18,73.18,0,0,1,1.61,10.72,22.9,22.9,0,0,1-.48,5.54,7.51,7.51,0,0,1-3.93,5.26,16.36,16.36,0,0,1-3.47,1.26l.18,3.57c2.25,2.48,1.44,6.33.43,8.55-2.39-2.06-6.6-1.65-8.63-2.36-3.08-1.06-3.08-2.57-3.08-2.57l-.89-11.71s-1.5,2.44-3.27,1.6C87.91,138.31,86.25,135.28,87.25,132.39Z"/><path class="cls-15" d="M104.82,143.71s-4.86,1-8.08-1.52a7.3,7.3,0,0,1-2.3-4.26A11.8,11.8,0,0,0,97,141c1.58,1.25,5.58,1.42,7.68.93Z"/><path class="cls-6" d="M94.3,129.65l-3.16,1s1.25,2.72,2,4.83,1.79,4.21,3.48,5.43a9.59,9.59,0,0,0,6.61,1.57c2.65-.25,7.07-1,8.75-4.56,1.27-2.66.59-8.06.59-8.06a6.09,6.09,0,0,1-2.24,2.34c-1.2.48-2.69-.29-5.05.32-2.65.7-3.22,2.63-6.22,3s-4.94-3.87-4.69-5.62"/><path class="cls-6" d="M100.24,124.05a1.06,1.06,0,0,0-1.48.17,1.78,1.78,0,0,0-.34,2.11l2-2A.92.92,0,0,0,100.24,124.05Z"/><path class="cls-6" d="M109.82,121.58a1.22,1.22,0,0,0-1.08-1.35,1.53,1.53,0,0,0-1.47,1.37l2.52.15A.55.55,0,0,0,109.82,121.58Z"/><path class="cls-6" d="M100.55,126.45a.86.86,0,0,1,.28,0,.84.84,0,0,1,.8.88,1.44,1.44,0,0,1-.94,1.45.9.9,0,0,1-.28,0,.84.84,0,0,1-.81-.88A1.44,1.44,0,0,1,100.55,126.45Z"/><path class="cls-6" d="M108.44,123.73a.78.78,0,0,1,.3,0,.84.84,0,0,1,.8.88,1.46,1.46,0,0,1-1,1.45.9.9,0,0,1-.28,0,.84.84,0,0,1-.81-.88A1.46,1.46,0,0,1,108.44,123.73Z"/><path class="cls-15" d="M108.42,129.81l-3.37,2.4-1.47-6.83C105,125.8,107.11,127.84,108.42,129.81Z"/><path class="cls-15" d="M103.16,134.88a1.85,1.85,0,0,0,1.82,1.86h0a1.76,1.76,0,0,0,1.82-1.69l-3.67-.19Z"/><path class="cls-10" d="M103.22,135.39a1.91,1.91,0,0,1,.68-.12,2.18,2.18,0,0,1,2,1.26,1.77,1.77,0,0,1-.9.2A1.92,1.92,0,0,1,103.22,135.39Z"/></g><g id="freepik--head--inject-5-4" data-name="freepik--head--inject-5"><path class="cls-6" d="M95.89,149.6a6.11,6.11,0,0,1-2.4-2.25l-.22-2.45c-.77.27-1,1.1-1.68,2.52s-1.88,4.41-1.88,4.41a5.48,5.48,0,0,0,1.61,3,8.93,8.93,0,0,0,7.2,2.7c1-.2,1.55-2.9,1.75-3.65.24-1.07,3.73-.33,5,.2C103,151.5,98.24,150.79,95.89,149.6Z"/><path class="cls-6" d="M105.62,149a8.1,8.1,0,0,0-.68-2.78l-.2-3.37c.84-.1,2.26,1,3.16,2.42,1.16,1.92,2.12,3.32,2.12,4.07s-.88-.07-2.17,0c-.62,0-1.81,3.71-2.53,4.71A12,12,0,0,0,105.62,149Z"/></g><path class="cls-6" d="M83.2,157A33.08,33.08,0,0,0,80,159.74a11.73,11.73,0,0,0,1.6,1.39,10.62,10.62,0,0,0,2.64,1.4,10.94,10.94,0,0,0,2.25.58A15.14,15.14,0,0,0,83.2,157Z"/></g></g><path class="cls-2" d="M109.74,103.65h0c7.24,0,11.75,5.95,11.75,15.54,0,7-2.36,15-6.65,22.44-.64,1.15-1.33,2.29-2.07,3.37s-1.55,2.24-2.29,3.16-1.46,1.81-2.17,2.61c-.35.4-.72.8-1.07,1.17a39.34,39.34,0,0,1-8.69,7,25.25,25.25,0,0,1-4.67,2.14c-.53.18-1,.32-1.54.44a15.73,15.73,0,0,1-3.68.47,11.12,11.12,0,0,1-4-.69c-5-1.83-7.79-7.27-7.79-14.85,0-14.61,10.31-32.43,23-39.73a20.23,20.23,0,0,1,9.88-3m0-1.33a21.42,21.42,0,0,0-10.54,3.23c-13,7.52-23.58,25.81-23.58,40.86,0,8.49,3.37,14.12,8.64,16.07a12.58,12.58,0,0,0,4.42.77,16.93,16.93,0,0,0,4-.51c.53-.13,1.07-.28,1.62-.47a26.33,26.33,0,0,0,4.92-2.25,40.39,40.39,0,0,0,9-7.23c.37-.36.74-.8,1.1-1.2.76-.86,1.51-1.76,2.23-2.68s1.59-2.12,2.34-3.24,1.45-2.26,2.12-3.43c4.22-7.35,6.82-15.61,6.82-23.08,0-10.67-5.31-16.85-13.05-16.85Z"/></g></g><g id="freepik--character--inject-5-16" data-name="freepik--character--inject-5"><g id="freepik--character--inject-5-17" data-name="freepik--character--inject-5"><path class="cls-4" d="M37.58,141.12C24.57,148.64,14,166.94,14,182c0,8.49,3.37,14.11,8.64,16.07a14.31,14.31,0,0,0,8.42.26c.53-.13,1.08-.29,1.62-.46a27.77,27.77,0,0,0,4.93-2.25,41.13,41.13,0,0,0,9-7.24c.37-.36.74-.79,1.1-1.2.77-.86,1.41-1.63,2.22-2.68s1.59-2.12,2.34-3.23,1.47-2.27,2.13-3.44c4.21-7.34,6.82-15.6,6.82-23.08C61.19,139.69,50.59,133.6,37.58,141.12Z"/><g id="freepik--character--inject-5-18" data-name="freepik--character--inject-5"><path class="cls-9" d="M24.6,162.05a8.94,8.94,0,0,1,.78-2,8.76,8.76,0,0,1,1.2-1.75A8,8,0,0,1,28.17,157a8.82,8.82,0,0,1,.92-.47c.35-.13.58-.22.84.07a5.8,5.8,0,0,1,.92,2.06,30.41,30.41,0,0,0,2.71,5.22,32.48,32.48,0,0,1,3.66,10.1A16.63,16.63,0,0,1,37,181.8a8.49,8.49,0,0,1-5.16,5.65,3,3,0,0,1-3.09-.53,3.65,3.65,0,0,1-.56-1.95q-.24-3-.49-6a3.27,3.27,0,0,1-.75,1.27,1.1,1.1,0,0,1-1.37.14c-.43-.35-.37-1-.31-1.55a32.25,32.25,0,0,0-.65-8.3,21.19,21.19,0,0,1-.11-8.28C24.57,162.19,24.58,162.12,24.6,162.05Z"/><g id="freepik--arm--inject-5"><path class="cls-13" d="M47.84,178.45h0l2.1,6c.81-1,1.59-2.12,2.34-3.23s1.46-2.27,2.12-3.44C52.54,177.16,50.68,177.59,47.84,178.45Z"/></g><g id="freepik--chest--inject-5-8" data-name="freepik--chest--inject-5"><path class="cls-2" d="M47.71,177.5h0l-3.58,1.07c-.1,0,.66.44.57.48-5.48,2.33-7.49,2-10.46,4,0,0-.09.09-.13.09-3.73,2-5.69,3.07-5.69,3.07A26.94,26.94,0,0,1,31,197.36c.53-.12,1.07-.28,1.62-.46a26.73,26.73,0,0,0,4.93-2.24,40.66,40.66,0,0,0,9-7.24c.37-.36.75-.8,1.11-1.2.76-.86,1.51-1.75,2.22-2.68s1.6-2.11,2.34-3.23A38.51,38.51,0,0,0,47.71,177.5Z"/></g><g id="freepik--head--inject-5-5" data-name="freepik--head--inject-5"><path class="cls-11" d="M51.37,161.8s4.63-5.38.15-11c-3.79-4.79-10.33-5.15-15.93-2.62-4.25,1.9-7.36,6.68-6.63,10.57-4,3-1.45,9.53.49,12.42s4,4.08,4.46,5.77Z"/><path class="cls-13" d="M51.21,160.39c-.92-6.48-3.56-7.54-5.13-8s-1.44.65-2.28,2.53c-1-1.14-6.48-.75-7.32,2.23a7.41,7.41,0,0,1-2.27,6.58c1.58,4.1-.71,6.52-1.19,5.72s-.63-1.48-1.75-1.92-2.59.7-3.14,2a4.45,4.45,0,0,0,1.33,5.14l.16.13h0l.16.11A.57.57,0,0,0,30,175a.9.9,0,0,0,.24.12l.16.08a2.63,2.63,0,0,0,2.24-.13,2.45,2.45,0,0,0,.91-.75,1.49,1.49,0,0,0,.28-.66l.05,1.74.28,6.17.12,2.52v.25a25.8,25.8,0,0,0,12.31,4c.37-.37.74-.8,1.1-1.21-.2-2.29-2.85-5.43-2.85-5.43l0-1.74,0-1v-1l-.06-1.5c2.2-.75,3.53-1.38,4.5-2.53a7.74,7.74,0,0,0,1.69-3.28A27.37,27.37,0,0,0,51.21,160.39Z"/><path class="cls-5" d="M42.2,172.07a2.15,2.15,0,0,0,2.14-1.91l-3.25-.06C40.93,171.19,41.32,172,42.2,172.07Z"/><path class="cls-10" d="M42.23,172.1a1.26,1.26,0,0,1-1.16-1.29l.16-.08a1.3,1.3,0,0,1,.34-.08,1.44,1.44,0,0,1,1.59,1.25A1.78,1.78,0,0,1,42.23,172.1Z"/><polygon class="cls-16" points="48 165.76 44.92 167.86 44.16 161.42 48 165.76"/><path class="cls-6" d="M48.55,160.39a.88.88,0,0,1,.36,0,.83.83,0,0,1,.71.95,1.43,1.43,0,0,1-1.07,1.33,1,1,0,0,1-.3,0,.84.84,0,0,1-.75-.93A1.42,1.42,0,0,1,48.55,160.39Z"/><path class="cls-6" d="M40.93,163a.61.61,0,0,1,.3,0,.84.84,0,0,1,.75.93,1.42,1.42,0,0,1-1.08,1.33.77.77,0,0,1-.3,0,.84.84,0,0,1-.74-.94A1.43,1.43,0,0,1,40.93,163Z"/><path class="cls-16" d="M44.74,178.07s-4.4.3-6.84-.85c-3.11-1.45-2.89-3.53-2.89-3.53a6.42,6.42,0,0,0,3.09,2.52,14.5,14.5,0,0,0,6.58.32Z"/><path class="cls-6" d="M48.69,157.31a1.88,1.88,0,0,0-1.54,1.38l2.35-.15C49.7,157.82,49.34,157.27,48.69,157.31Z"/><path class="cls-6" d="M40,160.38a1.83,1.83,0,0,0-.89,1.94l2.58-1.69C41.48,160.05,40.72,159.94,40,160.38Z"/><path class="cls-11" d="M36.49,154.23c-4,3.09-3.51,11.27-3.51,11.27s2.57.52,6.57-2.18,7-8.66,6.53-11.19C46.08,152.13,40.46,151.14,36.49,154.23Z"/></g><g id="freepik--arm--inject-5-2" data-name="freepik--arm--inject-5"><path class="cls-13" d="M28.4,186.23h0c-3.92,1.62-5.45,2.93-8.34,9.76a8.88,8.88,0,0,0,2.61,2.07,14.31,14.31,0,0,0,8.42.26c.53-.13,1.08-.29,1.62-.46C32.28,194.84,31.08,188.19,28.4,186.23Z"/></g></g><path class="cls-2" d="M48.17,139.19h0c7.25,0,11.74,5.95,11.74,15.53,0,7-2.35,15-6.64,22.45-.64,1.14-1.34,2.29-2.07,3.36s-1.56,2.23-2.29,3.16-1.46,1.78-2.17,2.62l-1.07,1.16a39.38,39.38,0,0,1-8.69,7,26,26,0,0,1-4.68,2.14c-.52.17-1,.31-1.52.43a15.88,15.88,0,0,1-3.69.47,11.43,11.43,0,0,1-4-.68c-4.94-1.84-7.79-7.27-7.79-14.85,0-14.61,10.32-32.44,23-39.74a20.38,20.38,0,0,1,9.89-3.05m-.05-1.3a21.28,21.28,0,0,0-10.54,3.22C24.57,148.64,14,166.94,14,182c0,8.49,3.37,14.11,8.64,16.07a12.84,12.84,0,0,0,4.42.76,17.32,17.32,0,0,0,4-.5c.53-.13,1.08-.29,1.62-.46a27.77,27.77,0,0,0,4.93-2.25,40.87,40.87,0,0,0,9-7.25c.37-.37.74-.79,1.1-1.21.77-.86,1.41-1.63,2.23-2.68s1.59-2.12,2.34-3.23,1.46-2.26,2.12-3.43c4.22-7.35,6.82-15.61,6.82-23.09,0-10.67-5.31-16.84-13-16.84Z"/></g></g></g><g id="freepik--character--inject-5-19" data-name="freepik--character--inject-5"><g id="freepik--character--inject-5-20" data-name="freepik--character--inject-5"><g id="freepik--character--inject-5-21" data-name="freepik--character--inject-5"><g id="freepik--Bottom--inject-5"><path class="cls-17" d="M136.63,347.58c-5.11.38-10.65.72-14.54-1.06s-1.27-4.43,1.86-5H124c1-.06,2.16,0,3.16-.06,3.76-.23,7.72-.45,9.81-1.59,1.22-.65,1.39-2.36,2.12-2.17.14-2.73-.13-10-.13-10s4,2.52,7.24,2.52c6.32.05,9-1.54,9-1.54s-1.43,10.49-1.43,10.68C154.27,345.42,142.78,347.19,136.63,347.58Z"/><path d="M155.85,352.41a3.75,3.75,0,0,1,0,2.83c-2,3.17-6.86,3.4-10.45,3.22s-6.61-1.35-9.68-1.62-9.35.72-14.85-.68-9.12-4.76-9.45-5.89a6.27,6.27,0,0,1-.18-3.27S155.16,352,155.85,352.41Z"/><path class="cls-18" d="M139,340.83c-.09,2.14.26,3.42,1,4.21.23.23,1.11.83,2.31-.5,3.94-4.34,5-2.77,9-3.92,2.27-.63,2.44-1.47,2.44-1.47,1-.1,1.22.61,1.22,3-.05,3.52,1.48,6.59.91,9.69s-3.37,4.37-8.85,4.78c-4.23.35-7.45-1.94-12.13-2.18-3.6-.19-9.23,1-14.65-1-1.64-.61-3.33-2.14-4.85-3.28-5.21-4-4.76-7.72-1.8-9.43s8.55-1.08,13.33-1.45c3.79-.29,7.43-.25,9.83-1,.81-.27,2-2.84,2.41-1.69C139.16,338.2,139.08,339.26,139,340.83Z"/><path class="cls-4" d="M111.2,346.89a6.82,6.82,0,0,1,1.25-5.8c2.16-2.29,5.43-3,10.67-2.71,2.72.15,2.88,1,2.88,1l-.89.05c-6.85,1.92-4.77,14.06-4.77,14.06C114.67,351.89,111.92,349.24,111.2,346.89Z"/><path class="cls-4" d="M124.43,346.6c.75,0,.84-.43.84-.43.43-6,4.84-7.08,4.84-7.08a4.24,4.24,0,0,0-2,.13c-4,1.27-4.32,6.94-4.32,6.94C123.74,346.65,124.17,346.63,124.43,346.6Z"/><path class="cls-4" d="M129.15,346.07s-.09.38-.84.48-.68-.33-.68-.33a7.15,7.15,0,0,1,3.78-7.16,4.22,4.22,0,0,1,1-.2c.77-.06.84.06.84.06C128.76,341.1,129.15,346.07,129.15,346.07Z"/><path class="cls-4" d="M132.91,345.44s.14.43-.65.59-.84-.3-.84-.3c-.79-4.25,2.93-6.91,2.93-6.91s.14-.19.94-.34.84,0,.84,0A7,7,0,0,0,132.91,345.44Z"/><path class="cls-17" d="M201.93,322.68c-.11-2-11.79-20.72-11.79-20.72l15.76-7.41c2.86,9.31,3.72,12.86,5,15.9.67,1.55,1.26,2.14,1.81,3.24C212.76,313.69,203,339.9,201.93,322.68Z"/><path class="cls-18" d="M215.31,334c-.09,1.17-.16,2.36-.23,3.55A6,6,0,0,0,215,339c.09.5-7.45,4.53-10.5,6.08a5.38,5.38,0,0,1-.55.24,8.34,8.34,0,0,1-5.47-.17s-2.46-.78-2.46-.84c-4.5-1-5.05-4.29-5.05-4.29a4.11,4.11,0,0,1,2.26-4.71c3.49-1.86,8.37-.64,8.37-.64s.37,0,.43-3a41.91,41.91,0,0,0,.12-5,4.53,4.53,0,0,0-1-3,3.83,3.83,0,0,1-1-2.65,5.75,5.75,0,0,1,.37-1.68c.38.71.74,1.41,1,2.1.22.52.45.55.6.11a3,3,0,0,0,0-1.3,7.51,7.51,0,0,1-.5-3.69c.49-1.7,2.94-3.92,5.7-4.63,2.49-.64,3.7-.79,4.4-.57,1.08.36.86,1.93,2,2.77s3.73,2.62,3.87,4.36C217.57,318.69,215.39,332.78,215.31,334Z"/><path d="M212.06,320.86c-3.24,3-3.89,7.41-4.46,14.32a38.44,38.44,0,0,1-2.71,11.62s10-4.27,11.23-5.36,1.08-2.48.79-5.63.2-4.43,1.27-8.14,1.56-7.6.23-8.22C218.41,319.45,215.29,317.89,212.06,320.86Z"/><path d="M191.6,343.27c2.58,2.45,8,4.33,12.09,3.87s4.58-6.57,4.95-11.86,1.13-11.09,4-13.72a7.3,7.3,0,0,1,5.81-2.11,2.9,2.9,0,0,0-1.39-1.22c-1.3-.4-5,.59-7.2,3.76s-2.7,10.43-3.25,15.92-1.47,7.35-5.83,6.95c-8-.72-9.76-4.79-9.76-4.79A2.83,2.83,0,0,0,191.6,343.27Z"/><path class="cls-4" d="M195.93,334.33c-4,.53-5.33,3.5-5.42,4.84s.59,2.63,3.11,4a9.74,9.74,0,0,0,4.77,1.31,4.87,4.87,0,0,1-.41-1.72c-.24-2.46.93-6.93,4.05-8.16A13.29,13.29,0,0,0,195.93,334.33Z"/><path class="cls-4" d="M203.1,335.12c.64.33.47,1.48-.14,1.29a2.15,2.15,0,0,1-1.49-2.45,3.09,3.09,0,0,1,.53-1.2A2.47,2.47,0,0,0,203.1,335.12Z"/><path class="cls-4" d="M203.65,331c.33.14.4,1.19,0,1.11a2.28,2.28,0,0,1-1.68-1.91,1.89,1.89,0,0,1,.21-1.14A3.37,3.37,0,0,0,203.65,331Z"/><path class="cls-4" d="M204.06,326.59c.38.21.54,1.31-.07,1.31a3.29,3.29,0,0,1-2-1.31,4,4,0,0,1-.17-1.75C202,325.42,203.42,326.23,204.06,326.59Z"/><path class="cls-18" d="M209.06,304.74c-1.91-6.31-4.24-15.75-6.12-23.15a53.9,53.9,0,0,0-9.67-19.86s-.94-31.48-.94-47.12c.06-20-1.68-25.69-1.68-25.69l-50.67.53s-1.85,27.81-2.2,46.39c-.36,17.91-.66,18.42-.36,29.37.17,6.06.08,20.16.3,29.36s.95,33.58.95,33.58a22,22,0,0,0,7.46,2.88,15.28,15.28,0,0,0,9.44-1.56s1.83-10.39,4.61-25.27A110.8,110.8,0,0,0,162,283a64.65,64.65,0,0,0-1.29-11.43l5.16-30.81s3.71,19.94,4.46,23.48c.7,3.32,1.12,5.78,2.67,8.58,7.38,13.38,23,39.32,23,39.32C197.67,308.65,204.83,304.49,209.06,304.74Z"/><path d="M169.93,262.28l-1.72-19.06,3.29-19.91c11.76-3.89,13-10,13-10-8.38,6.63-15.23,7-15.23,7l-3.43,20.59C165.88,241.31,169.93,262.28,169.93,262.28Z"/><path d="M138.63,330.42s2.44,1.63,8.78,2c5.74.36,8.09-1.12,8.09-1.12l1.3-7.74c-3.91,2.33-15.06,1.22-18.43-.57Z"/><path d="M198.38,299.84a14.71,14.71,0,0,1,8.9-2.07l2.07,7.18s-1.69-.33-6.78,2a16.93,16.93,0,0,0-6.54,5.56l-3.57-5.94S192.81,303.11,198.38,299.84Z"/></g><g id="freepik--Top--inject-5"><polygon class="cls-17" points="176.45 118.72 178.3 132.32 161.24 133.2 159.52 120.63 176.45 118.72"/><path class="cls-19" d="M150.53,106.84l-3.37-2c.16-.93,4.25-6,5.56-7.67Z"/><path class="cls-17" d="M185.17,94.43c4.05,4.66,1.17,13.63-4.54,19.59-4.85,5.07-14.42,6.21-18.16,6.52-4.93.42-8.32-.49-11.38-2.94-1.22-1.83-2.4-8.7-.29-15.9A30.1,30.1,0,0,1,152,98.89c1.53-11.22,5-15,10.23-14.4C165.12,84.8,179.43,87.87,185.17,94.43Z"/><path class="cls-19" d="M159.54,118.91v2.36c-3-.19-7.8-2.67-8.48-3.67A33.38,33.38,0,0,0,159.54,118.91Z"/><path d="M161.12,103.34a7.13,7.13,0,0,1,.84-4,5.65,5.65,0,0,1,.36-.58,2.53,2.53,0,0,1,.4-.53c-2.28.14-6.12-1.08-7.33-4.45a10.94,10.94,0,0,1-2.62.17,2.52,2.52,0,0,1-2.16-1.6,2.05,2.05,0,0,1,.94-2.43,2.62,2.62,0,0,1,2.26-4.72,7.89,7.89,0,0,1-.64-7.22c3.88,3.24,9,1.34,13.14,1.11s8-.48,13.78,2c6,2.55,7.63,7,7.42,9.92,3.86,2.34,3.85,10.54-2.17,18.84a109.89,109.89,0,0,1-8.85,10.1c-5,1.57-11.46-1.21-11.46-1.21-3.7-3.29-1.18-8.94-1.18-8.94s1.9,2.92,5.45-.45c2.2-2,3.26-7.87-1.17-8.2a4.76,4.76,0,0,0-3.27,1.12,12.83,12.83,0,0,0-1.93,2.23,1,1,0,0,1-1.76-.3A2.52,2.52,0,0,1,161.12,103.34Z"/><path class="cls-2" d="M187.3,157.34l3.82,7.94-8.67,8.31L188,185.48a88,88,0,0,0,16.92-12.06c5.52-5.21,3.84-7.87,2.92-10.83-1.88-6.06-7-18.12-10.64-26.47-3.86-8.82-10.15-10.7-16.49-10.41Z"/><path d="M190.35,166c.78,1.55,3.46,4.17,5.89,3.58a11.32,11.32,0,0,1-5.14-4.34Z"/><path class="cls-2" d="M177.39,125.61l0,.57c-2.58,2.21-13,2.12-17,1.08-2.45.35-8.64,1.83-11.32,2.53-3.39.87-4.47,5.34-5.49,7.33-3.11,6.78-3.15,12.6-3.9,32.5-.5,13.41-1.23,30-1.23,30s10.07,5.43,30.86,4.21c16.33-1,22.74-8.34,22.74-8.34s-.54-5-1-9.73c-.57-6.4-1.83-11.68-1.42-14.82,1.31-10,2.85-21.27,3.05-25.64.33-6.94-3-15.21-7.46-17.68C182.52,126.08,181.89,125.53,177.39,125.61Z"/><g class="cls-20"><path class="cls-2" d="M177.39,125.61l0,.57c-2.58,2.21-13,2.12-17,1.08-2.45.35-8.64,1.83-11.32,2.53-3.39.87-4.47,5.34-5.49,7.33-3.11,6.78-3.15,12.6-3.9,32.5-.5,13.41-1.23,30-1.23,30s10.07,5.43,30.86,4.21c16.33-1,22.74-8.34,22.74-8.34s-.54-5-1-9.73c-.57-6.4-1.83-11.68-1.42-14.82,1.31-10,2.85-21.27,3.05-25.64.33-6.94-3-15.21-7.46-17.68C182.52,126.08,181.89,125.53,177.39,125.61Z"/></g><g id="freepik--arm--inject-5-3" data-name="freepik--arm--inject-5"><path class="cls-19" d="M77.24,115.48s-1.69-3.68-2.77-4.7-3.66-3-4.5-4.27c-1.15-1.61-.21-3.29.84-2.72,1.67.92,5.82,4.07,7,4.79s2.44,1.92,4.73,4.79Z"/><path class="cls-17" d="M84.26,135.09a30,30,0,0,0-4.88-2.35c-4-2.1-2.94-6.63-5.54-9.73l-1.45-.47s.24,1.19-.85,1.07a3.51,3.51,0,0,1-2.72-1.26c-.72-1.09-1.29-4.95-.16-5.73a1.13,1.13,0,0,1,.78-.21,4.92,4.92,0,0,1,.42-1.35c.65-1.66,2.2-1.22,3.28-1.08a1.8,1.8,0,0,1,1.16-1.32c.93-.34,1.91-.44,6,0,1.25.14,2.5.14,4.26,3,1.29,2.12,4.73,9.36,6.6,10.75S110,135.57,110,135.57c17.22.39,33.34-6.08,38.66-4.85,5.09,5.49,3.86,14.44-1.26,19.56-13.68,1.27-21.73,1.5-27.55,1.82-8.15.43-10.53.78-12.93-.57C103.8,149.78,94,142.78,84.26,135.09Z"/><path class="cls-10" d="M73.4,113.34l4.64.9-4.9-.28A1.61,1.61,0,0,1,73.4,113.34Z"/><path class="cls-10" d="M69.59,115.76,75,117.1l-5.54-.72A3.3,3.3,0,0,1,69.59,115.76Z"/><path class="cls-10" d="M70.12,119.62a5,5,0,0,0,.84.48H71v.06c.09.31.16.63.24,1l0,.21-.14,0a1.11,1.11,0,0,0-.76-.06,1.73,1.73,0,0,0-.7.45,1.41,1.41,0,0,1,.65-.58,1.11,1.11,0,0,1,.91,0l-.15.11c-.09-.31-.16-.63-.24-.95l.06.07a3.58,3.58,0,0,1-.84-.55,1.74,1.74,0,0,1-.56-.85A2.1,2.1,0,0,0,70.12,119.62Z"/><path class="cls-10" d="M71,121.16c1.26.6,1.44,1.35,1.44,1.35l1.46.47a13.23,13.23,0,0,1-.84-1.13,2.19,2.19,0,0,1-.4-1.21,16.32,16.32,0,0,1-1.9-.64Z"/><path class="cls-2" d="M149.34,149.67c-2.22,3.34-5.7,4.63-7,3.88s-1.9-1.56-4.21-1.82-22.56,1-25.59,1.21-4.16-.08-6.13-1.35-11-7.54-11-7.54-1.22-5,.62-8.84,3.66-4.43,3.66-4.43L110,135.21s7.81-.39,11.13-.71S136,132,139.16,131.13a43.42,43.42,0,0,1,10.45-1.48C156.16,134.56,151.55,146.33,149.34,149.67Z"/></g></g></g></g></g></g></g></svg>