<svg xmlns="http://www.w3.org/2000/svg" viewBox="0 0 41 41"><defs><style>.cls-1{fill:none;stroke:#fff;stroke-miterlimit:10;}.cls-2{fill:#fff;}</style></defs><title>ícono enviar menú</title><g id="Capa_2" data-name="Capa 2"><g id="Esquema"><circle class="cls-1" cx="20.5" cy="20.5" r="20"/><path class="cls-2" d="M30,12.55c-.06.83-.54,3.74-1,6.89l-1.49,9.31s-.12,1.37-1.13,1.61-2.67-.83-3-1.07-4.45-2.85-6-4.16a1.13,1.13,0,0,1,.06-1.9c2.14-1.95,4.69-4.39,6.23-5.93.72-.71,1.43-2.37-1.54-.36l-8.37,5.64a3.45,3.45,0,0,1-2.73.06c-1.78-.53-3.86-1.25-3.86-1.25s-1.42-.89,1-1.83h0L22,13.86c1.37-.6,6-2.5,6-2.5S30.14,10.53,30,12.55Z"/></g></g></svg>