<svg xmlns="http://www.w3.org/2000/svg" viewBox="0 0 386.36 445.12"><defs><style>.cls-1,.cls-14{fill:#00b7ff;}.cls-1,.cls-3{opacity:0.1;}.cls-2{fill:#004b93;}.cls-4{fill:#fff;}.cls-5{fill:#ffaaa8;}.cls-6{fill:#f5f5f5;}.cls-7{opacity:0.2;}.cls-8{fill:#e1e1e1;}.cls-9{fill:#e6e6e6;}.cls-10{fill:#1a2e35;}.cls-11{fill:#666;}.cls-12{fill:#ffbe9d;}.cls-13{fill:#d268cc;}.cls-15{fill:#eb996e;}.cls-16{opacity:0.3;}.cls-17{fill:none;}</style></defs><title>dibujo 7_1</title><g id="Capa_2" data-name="Capa 2"><g id="Esquema"><circle class="cls-1" cx="126.79" cy="126.79" r="126.76"/><path class="cls-1" d="M354.35,286.69c-42.48-24.53-111.12-24.53-153.32,0-27.6,16-37,38.59-28.4,59.13-20.71.51-41.13,5.34-56.89,14.5-33.38,19.4-33.2,50.85.4,70.25s87.9,19.4,121.28,0c17.68-10.27,25.94-23.92,24.81-37.38,32.84,2.84,67.44-3.06,92.62-17.7C397.05,351,396.83,311.21,354.35,286.69Z"/><path class="cls-2" d="M197.86,205.64c-13.58,9.43-28.86,15.94-40.2,28.58-21.17,23.6-21.66,61.58-5,88.57s47.56,43.22,79,46.93c33,3.89,67.71-5.23,93.62-26.09s42.41-53.43,42.4-86.69-17.05-66.39-44.91-84.56c-25.42-16.58-61.95-21.31-87.45-2.34-12.9,9.59-21.5,23.75-34.36,33.36C199.94,204.17,198.9,204.91,197.86,205.64Z"/><path class="cls-3" d="M203.38,343.93c0-.23.07-.45.1-.68a35.71,35.71,0,0,1,29-29.76,113,113,0,0,0,37.08-14.21c8.1-4.9,15.76-10.9,24.85-13.56,8.39-2.45,18.83-2.07,26.78,1.56-7.64-8-20.74-11.55-31.2-7.93,7.24-11.09,13.62-23,16.11-36s.73-27.28-7.12-38a38.19,38.19,0,0,0-59-3.15c-7.76,8.5-12.14,20.46-17.25,30.78-3.66,7.41-7.45,15-13.49,20.65-9.11,8.52-22.22,11.6-31.67,19.75-10.71,9.25-15.33,24-15.38,38.18,0,9.55,1.76,18.95,4.14,28.23a107.24,107.24,0,0,0,38.75,23.7A42.16,42.16,0,0,1,203.38,343.93Z"/><path class="cls-4" d="M350,252.38a97.11,97.11,0,0,0-82.82-94.27,70.22,70.22,0,0,0-9.37,1.58,94.66,94.66,0,0,1,89.63,92.74c.6,30.95-14.54,62.51-40.51,84.41-20.36,17.16-47.4,28.54-77.12,32.63l1.9.25c2.67.31,5.36.54,8.05.68,26.4-5.12,50.31-16,68.82-31.61C335.08,316.4,350.57,284.1,350,252.38Z"/><path class="cls-5" d="M165.21,339.09c1.33,5.33,1.6,14.92,1.6,14.92l3.53-1.33a9.15,9.15,0,0,1,9.84,2.24l.17.18a3.56,3.56,0,0,0,4.92.22h0a3.54,3.54,0,0,0,1.22-2.57l.48-15.06Z"/><path class="cls-6" d="M178.87,395.08c-7.34,7.86-20.87,14.73-30.69,8l1.1,2.5c9.82,6.71,23.35-.16,30.69-8s2.58-13.3,9.19-20.27a24,24,0,0,0,5.72-8.49c-.3-.75-.58-1.73-.92-2.85a30.37,30.37,0,0,1-5.9,8.84C181.45,381.78,186.21,387.23,178.87,395.08Z"/><path class="cls-2" d="M190.34,357.76a14,14,0,0,1-2.31-5.35,3.16,3.16,0,0,0-1.46-2.19l-.08,2.53a3.57,3.57,0,0,1-6.14,2.35l-.17-.18a9.15,9.15,0,0,0-9.84-2.24L166.75,354a2.77,2.77,0,0,0-1.79,2.65c.23,10.3-4.58,24-9.63,31.5-5.19,2.15-9.67,9.22-7.38,14.41l.23.51c9.82,6.71,23.35-.16,30.69-8s2.58-13.3,9.19-20.27A30.37,30.37,0,0,0,194,366,32.75,32.75,0,0,0,190.34,357.76Z"/><path class="cls-4" d="M176,372.64a1.26,1.26,0,0,0,1.15-2.23,14.34,14.34,0,0,0-14.11,0c-.22.81-.45,1.62-.7,2.42C166.47,370.74,170.69,370,176,372.64Z"/><path class="cls-4" d="M177.78,367.07a1.26,1.26,0,0,0,1.15-2.23,15.07,15.07,0,0,0-14.68.12c-.15.83-.32,1.68-.51,2.52C168,365.22,172.34,364.32,177.78,367.07Z"/><path class="cls-4" d="M174,378.18a1.26,1.26,0,0,0,1.16-2.23,14.33,14.33,0,0,0-13.81-.14c-.31.88-.64,1.73-1,2.57C164.5,376.28,168.72,375.52,174,378.18Z"/><path class="cls-4" d="M155.33,388.18c-5.19,2.15-9.67,9.22-7.38,14.41l.23.51c9.68,6.61,22.93,0,30.35-7.67C172.34,383.3,159.42,386.32,155.33,388.18Z"/><path class="cls-4" d="M171.81,383.59a1.26,1.26,0,0,0,1.15-2.23,14.33,14.33,0,0,0-13.83-.12c-.44,1-.89,1.88-1.35,2.77C162.06,381.75,166.38,380.85,171.81,383.59Z"/><path class="cls-5" d="M149.77,369c-.93,5.41-4.56,14.3-4.56,14.3l3.78.21a9.14,9.14,0,0,1,8.09,6l.09.23a3.55,3.55,0,0,0,4.41,2.19h0a3.57,3.57,0,0,0,2.15-1.86l6.51-13.59Z"/><path class="cls-6" d="M139.67,425.79c-9.89,4.22-25,5-31.32-5.05v2.73c6.29,10.1,21.43,9.27,31.32,5s7.73-11.13,16.59-14.84a23.87,23.87,0,0,0,8.65-5.46c0-.8.17-1.81.31-3a30.09,30.09,0,0,1-9,5.71C147.4,414.66,149.56,421.56,139.67,425.79Z"/><path class="cls-2" d="M165.22,396.27a14.4,14.4,0,0,1,.05-5.83,3.1,3.1,0,0,0-.45-2.59l-1.09,2.28a3.56,3.56,0,0,1-6.56-.33l-.09-.23a9.14,9.14,0,0,0-8.09-6l-3.84-.21a2.75,2.75,0,0,0-2.71,1.7c-3.94,9.52-13.87,20.09-21.52,24.93-5.62-.13-12.57,4.54-12.57,10.2v.57c6.29,10.09,21.43,9.27,31.32,5.05s7.73-11.13,16.59-14.84a30.09,30.09,0,0,0,9-5.71A32.11,32.11,0,0,0,165.22,396.27Z"/><path class="cls-4" d="M146.07,404.08a1.26,1.26,0,0,0,2-1.57,14.34,14.34,0,0,0-12.92-5.68c-.53.66-1.07,1.3-1.62,1.93C138.15,398.51,142.33,399.51,146.07,404.08Z"/><path class="cls-4" d="M150,399.71a1.25,1.25,0,0,0,2-1.57,15.08,15.08,0,0,0-13.48-5.82c-.47.71-1,1.41-1.48,2.11C141.8,394.09,146.11,395,150,399.71Z"/><path class="cls-4" d="M142,408.35a1.26,1.26,0,0,0,2-1.57,14.31,14.31,0,0,0-12.58-5.7c-.64.67-1.29,1.32-1.94,1.95C134.12,402.78,138.28,403.79,142,408.35Z"/><path class="cls-4" d="M120.92,410c-5.62-.13-12.57,4.54-12.57,10.2v.57c6.19,9.95,21,9.28,30.87,5.22C138.46,412.37,125.41,409.92,120.92,410Z"/><path class="cls-4" d="M137.85,412.42a1.25,1.25,0,0,0,2-1.57,14.32,14.32,0,0,0-12.6-5.7c-.79.71-1.58,1.37-2.36,2C129.67,406.8,134,407.72,137.85,412.42Z"/><path d="M207.88,240.39,158.37,268a24.52,24.52,0,0,0-12.18,25.91l9.61,51.75-7.89,25c6.8,9.12,22.41,9.58,22.41,9.58,8.71-17.46,15.1-24.88,20-39.51S198.6,316,198.6,316l41.12-11.24a48.71,48.71,0,0,0,35.63-41.45c.7-6.22.73-10.46.73-10.46Z"/><path class="cls-7" d="M208.25,254.3a23.39,23.39,0,0,0,5.54,15.08l-34.94,21.87a25.14,25.14,0,0,0-10.69,13.95L155.8,345.63l11.15-45A20.41,20.41,0,0,1,176,288.14l32.26-19.94C205,260,208.25,254.3,208.25,254.3Z"/><path class="cls-8" d="M242.81,274.91a1.85,1.85,0,0,1-.06.66.06.06,0,0,0,0,0,2.23,2.23,0,0,1-.26.51s0,0,0,.06a3.3,3.3,0,0,1-.44.49l0,0a4.43,4.43,0,0,1-.67.48l-36.23,21.05a5.75,5.75,0,0,1-1,.46c-.13.05-.26.08-.4.12a4.56,4.56,0,0,1-.53.13,4.5,4.5,0,0,1-.64.11l-.15,0a8.83,8.83,0,0,1-.89,0h-.14c-.3,0-.59,0-.88-.05l-.13,0a7.93,7.93,0,0,1-.85-.14l-.15,0c-.25-.06-.49-.14-.73-.22l-.13-.05a5.34,5.34,0,0,1-.8-.38l-59.78-34.51a4.43,4.43,0,0,1-.67-.48c-.07-.06-.11-.12-.17-.18s-.23-.23-.32-.35a13.56,13.56,0,0,0-.29-.56c0-.09,0-.17,0-.25a2,2,0,0,1-.06-.34v2.12a2,2,0,0,0,.06.34c0,.08,0,.16,0,.25a13.56,13.56,0,0,1,.29.56c.09.12.21.23.32.35s.1.12.17.18a4.43,4.43,0,0,0,.67.48l59.78,34.51a5.34,5.34,0,0,0,.8.38l.13,0c.24.08.48.16.73.22l.15,0a7.93,7.93,0,0,0,.85.14l.13,0c.29,0,.58,0,.88.05h.14a8.83,8.83,0,0,0,.89,0l.15,0a4.5,4.5,0,0,0,.64-.11,4.56,4.56,0,0,0,.53-.13,2.64,2.64,0,0,0,.4-.12,5.75,5.75,0,0,0,1-.46l36.23-21.05a4.43,4.43,0,0,0,.67-.48l0,0a2.92,2.92,0,0,0,.44-.5s0,0,0-.05a2.23,2.23,0,0,0,.26-.51.11.11,0,0,1,0-.05,1.47,1.47,0,0,0,0-.47h0v-2.3Z"/><path class="cls-7" d="M242.81,274.91a1.85,1.85,0,0,1-.06.66.06.06,0,0,0,0,0,2.23,2.23,0,0,1-.26.51s0,0,0,.06a3.3,3.3,0,0,1-.44.49l0,0a4.43,4.43,0,0,1-.67.48l-36.23,21.05a5.75,5.75,0,0,1-1,.46c-.13.05-.26.08-.4.12a4.56,4.56,0,0,1-.53.13,4.5,4.5,0,0,1-.64.11l-.15,0a8.83,8.83,0,0,1-.89,0h-.14c-.3,0-.59,0-.88-.05l-.13,0a7.93,7.93,0,0,1-.85-.14l-.15,0c-.25-.06-.49-.14-.73-.22l-.13-.05a5.34,5.34,0,0,1-.8-.38l-59.78-34.51a4.43,4.43,0,0,1-.67-.48c-.07-.06-.11-.12-.17-.18s-.23-.23-.32-.35a13.56,13.56,0,0,0-.29-.56c0-.09,0-.17,0-.25a2,2,0,0,1-.06-.34v2.12a2,2,0,0,0,.06.34c0,.08,0,.16,0,.25a13.56,13.56,0,0,1,.29.56c.09.12.21.23.32.35s.1.12.17.18a4.43,4.43,0,0,0,.67.48l59.78,34.51a5.34,5.34,0,0,0,.8.38l.13,0c.24.08.48.16.73.22l.15,0a7.93,7.93,0,0,0,.85.14l.13,0c.29,0,.58,0,.88.05h.14a8.83,8.83,0,0,0,.89,0l.15,0a4.5,4.5,0,0,0,.64-.11,4.56,4.56,0,0,0,.53-.13,2.64,2.64,0,0,0,.4-.12,5.75,5.75,0,0,0,1-.46l36.23-21.05a4.43,4.43,0,0,0,.67-.48l0,0a2.92,2.92,0,0,0,.44-.5s0,0,0-.05a2.23,2.23,0,0,0,.26-.51.11.11,0,0,1,0-.05,1.47,1.47,0,0,0,0-.47h0v-2.3Z"/><path class="cls-9" d="M136.39,262.15a13.56,13.56,0,0,1,.29.56c.09.12.21.23.32.35s.1.12.17.18a4.43,4.43,0,0,0,.67.48l59.78,34.51a5.34,5.34,0,0,0,.8.38l.13.05c.24.08.48.16.73.22l.15,0a7.93,7.93,0,0,0,.85.14l.13,0c.29,0,.58,0,.88.05h.14a8.83,8.83,0,0,0,.89,0l.15,0a4.5,4.5,0,0,0,.64-.11,4.56,4.56,0,0,0,.53-.13c.14,0,.27-.07.4-.12a5.75,5.75,0,0,0,1-.46l36.23-21.05a4.43,4.43,0,0,0,.67-.48l0,0a3.3,3.3,0,0,0,.44-.49s0,0,0-.06a2.23,2.23,0,0,0,.26-.51.06.06,0,0,1,0,0,1.85,1.85,0,0,0,.06-.66,2.66,2.66,0,0,0-1.54-2L181.5,238.35a8.2,8.2,0,0,0-7.44,0l-36.23,21.06a2.62,2.62,0,0,0-1.54,2.15,2,2,0,0,0,.06.34C136.37,262,136.36,262.06,136.39,262.15Z"/><path class="cls-8" d="M141.37,261.56l58.07,33.53.23.11.13,0a2.65,2.65,0,0,0,.45.13l.32.07.22,0a4.24,4.24,0,0,0,.57,0h0a4.38,4.38,0,0,0,.59,0c.13,0,.25,0,.38-.06l.47-.13a1.78,1.78,0,0,0,.4-.17l18.68-10.86L162,249.6Z"/><path class="cls-10" d="M201.42,295.49h0Z"/><path class="cls-8" d="M196.62,252.34l-10.93,6.42a1.11,1.11,0,0,0,0,1.91L202,270.11a1.84,1.84,0,0,0,1.83,0l10.93-6.43a1.11,1.11,0,0,0,0-1.91l-16.34-9.43A1.8,1.8,0,0,0,196.62,252.34Z"/><path class="cls-11" d="M141.37,261.56l58.07,33.53.23.11.13,0a2.65,2.65,0,0,0,.45.13l.32.07.22,0a4.24,4.24,0,0,0,.57,0h0a4.38,4.38,0,0,0,.59,0c.13,0,.25,0,.38-.06l.47-.13a1.78,1.78,0,0,0,.4-.17l18.68-10.86L162,249.6Z"/><path class="cls-11" d="M196.62,252.34l-10.93,6.42a1.11,1.11,0,0,0,0,1.91L202,270.11a1.84,1.84,0,0,0,1.83,0l10.93-6.43a1.11,1.11,0,0,0,0-1.91l-16.34-9.43A1.8,1.8,0,0,0,196.62,252.34Z"/><path class="cls-12" d="M193.63,173.22l-2.69,43.38-28,24.14a11.16,11.16,0,0,1-5.17.8l-10.37-.85a5.86,5.86,0,0,0-3.49.82l-5.94,3.6a6.39,6.39,0,0,0-1.58,1.35l-2.91,3.45a2.18,2.18,0,0,0,.4,3.18l1.83,1.31a6.51,6.51,0,0,0,6.72.52L147,252.6l9.5,1v2.48l-2.58,2.2a2.74,2.74,0,0,0,.07,4.22h0s6.35-1.89,12.1-11.1l33.52-15.15a20.54,20.54,0,0,0,12-17.73l3-63.37-4.63.58A18.76,18.76,0,0,0,193.63,173.22Z"/><path class="cls-13" d="M214.65,155.19l-5.38.35A18.53,18.53,0,0,0,192,172.88l-1.7,27.26-.71,14.42-6.51,6a6.28,6.28,0,0,0-2,4.64l1.73-1.5c11.9,3.8,10,15.76,10,15.76a6.06,6.06,0,0,0,4.83-.18l4.95-2.35a23.28,23.28,0,0,0,13.24-21V204.6Z"/><path class="cls-14" d="M214.65,155.19l-5.38.35A18.53,18.53,0,0,0,192,172.88l-1.7,27.26-.71,14.42-6.51,6a6.28,6.28,0,0,0-2,4.64l1.73-1.5c11.9,3.8,10,15.76,10,15.76a6.06,6.06,0,0,0,4.83-.18l4.95-2.35a23.28,23.28,0,0,0,13.24-21V204.6Z"/><path class="cls-4" d="M276.87,256.72c-8.78,8.43-51,10-72.49-10.51,2.07-14.46,1.38-30,0-45.28s-10.33-42.13,6.77-45.25c22.85-4.46,37.77-4.11,53,4.5C280.49,187.32,278.25,228,276.87,256.72Z"/><path class="cls-12" d="M290.65,227.87l-6.46-24-22.66,5L267,227.43,233.75,251l-11.16,4.7a17.47,17.47,0,0,0-7.4,5.88l-9.11,12.6a1,1,0,0,0-.09.55,1.74,1.74,0,0,0,3,.83c2-2.31,3.7-4.45,5.82-6.47l-5.37,7.25a2.15,2.15,0,0,0,.67,3.13,7.79,7.79,0,0,0,9.48-1l7-6.44,1.94-.69a29.48,29.48,0,0,0,14.13-10.59l38.93-15.12A14.89,14.89,0,0,0,290.65,227.87Z"/><path class="cls-13" d="M292.48,229.49l-5.43-25.7c-8.23-37.4-14.8-40.06-25.83-45.19-10.73,9.36-8.94,25.25-8.94,25.25l9.62,28.79.29.83,3.93,13.39-11,7.52v1.45c8.64,1.06,9.86,16.26,9.86,16.26l-1.67.65,1.66,1.35,18.06-7.1A15.39,15.39,0,0,0,292.48,229.49Z"/><path class="cls-14" d="M292.48,229.49l-5.43-25.7c-8.23-37.4-14.8-40.06-25.83-45.19-10.73,9.36-8.94,25.25-8.94,25.25l9.62,28.79.29.83,3.93,13.39-11,7.52v1.45c8.64,1.06,9.86,16.26,9.86,16.26l-1.67.65,1.66,1.35,18.06-7.1A15.39,15.39,0,0,0,292.48,229.49Z"/><path class="cls-12" d="M242.69,139.22v16.06a7.58,7.58,0,0,1-2.55,5.69,21.46,21.46,0,0,1-15.35,5.22,5.45,5.45,0,0,1-3.19-1,4.22,4.22,0,0,1-1-4.37,8.53,8.53,0,0,1,1.17-2.36,7.27,7.27,0,0,0,1.26-4.07V139.22Z"/><path class="cls-7" d="M231,152.19a43.3,43.3,0,0,1-8,1.58V139.22h19.68v3.42a14.88,14.88,0,0,1-1.61,2.82A19.55,19.55,0,0,1,231,152.19Z"/><path d="M206.56,124.93c-2.1-4-5.67-8.64-7.35-13.56C191.08,87.54,237,69.45,243.53,89.22c-.1-2.4-.15-4.57-.26-7a5,5,0,0,1,2.84,3.13A6.63,6.63,0,0,1,245,90.14c2.28-2.47,3.16-3.5,5.44-6,.9,3.06-.46,4.76-4.35,6.28,19.37-2.07,18.43,12.73,13.12,24.07-2.93,6.25-2.74,7.27-5.86,12.29a61.51,61.51,0,0,1-29,6.05,28.43,28.43,0,0,1-8.68-1.86C212.2,129.68,208.2,128,206.56,124.93Z"/><path class="cls-12" d="M240.49,111.63l-.3,13.9a3.14,3.14,0,0,0,.69,2.64,2.12,2.12,0,0,0,2.42,0,6.21,6.21,0,0,0,1.76-1.88,18.77,18.77,0,0,1,3.52-4.11,6.35,6.35,0,0,1,5.06-1.48c2.91.59,4.62,3.88,4.42,6.84a9.22,9.22,0,0,1-4.76,7.36,9.07,9.07,0,0,1-8.68-.48c.44,5.29-3.16,10.25-7.69,13s-9.9,3.71-15.13,4.63c-2.85.51-5.87,1-8.59,0a10.62,10.62,0,0,1-5.19-4.61,25.15,25.15,0,0,1-2.54-6.58,82.33,82.33,0,0,1-2.07-32c1.71,1.49,3.67,2,9.78,2.15a15.38,15.38,0,0,1-7.3,2.81c5.66,1.34,18.09-2,20.86-2.93-.87.94-3.4,2.25-6.8,3.86C227,114.72,240.5,111.44,240.49,111.63Z"/><polygon class="cls-15" points="218.15 125.1 212.12 135.25 219.31 136.6 218.15 125.1"/><path class="cls-15" d="M226.23,140.1l-5.46,2.65a3.58,3.58,0,0,0,4.14,1.18C226.26,143.32,226.63,141.51,226.23,140.1Z"/><path d="M228.56,125.51a2.07,2.07,0,1,1-2.26-1.85A2.08,2.08,0,0,1,228.56,125.51Z"/><path d="M211.25,126.58a2.07,2.07,0,1,1-2.26-1.85A2.06,2.06,0,0,1,211.25,126.58Z"/><path d="M208.43,118.61l-4.24,3.61a3,3,0,0,1,.57-3.32A3.48,3.48,0,0,1,208.43,118.61Z"/><path d="M226,116.59l4.87,2.69a2.94,2.94,0,0,0-1.22-3.13A3.48,3.48,0,0,0,226,116.59Z"/><path class="cls-8" d="M201,296.09l-6.19-39.35a7.26,7.26,0,0,0-3.52-5.15l-60.19-35a1.79,1.79,0,0,0-1.6-.1h0l-1.43.72.48.18a1.8,1.8,0,0,0-.16,1.07l6.19,39.35a7.26,7.26,0,0,0,3.52,5.15l60.19,35a1.52,1.52,0,0,0,.4.16l-.06.58L200,298h0A1.77,1.77,0,0,0,201,296.09Z"/><path class="cls-16" d="M201,296.09l-6.19-39.35a7.26,7.26,0,0,0-3.52-5.15l-60.19-35a1.79,1.79,0,0,0-1.6-.1h0l-1.43.72.48.18a1.8,1.8,0,0,0-.16,1.07l6.19,39.35a7.26,7.26,0,0,0,3.52,5.15l60.19,35a1.52,1.52,0,0,0,.4.16l-.06.58L200,298h0A1.77,1.77,0,0,0,201,296.09Z"/><path class="cls-9" d="M190.07,252.19l-60.19-35a1.82,1.82,0,0,0-2.71,1.85l6.19,39.35a7.26,7.26,0,0,0,3.52,5.15l60.19,35a1.82,1.82,0,0,0,2.71-1.85l-6.19-39.35A7.28,7.28,0,0,0,190.07,252.19Z"/><path class="cls-4" d="M160.9,253.21a13.29,13.29,0,0,1,6,8.6c.39,3.07-1.64,4.22-4.55,2.53a13.35,13.35,0,0,1-6-8.6C156,252.67,158,251.54,160.9,253.21Z"/><path class="cls-17" d="M88.72,53.22h0l.74-.58h0Z"/><path class="cls-17" d="M84.52,56.72l.14-.13-.14.13Z"/><path class="cls-17" d="M114.12,40.34l1.06-.2-1,.19Z"/><path class="cls-17" d="M111.71,40.94l1-.24c-.31.07-.61.14-.92.23Z"/><path class="cls-17" d="M101.59,44.92l.1,0-.1,0Z"/><path class="cls-17" d="M68.72,169.51c-.67-.21-1.33-.44-2-.7C67.4,169.07,68.05,169.31,68.72,169.51Z"/><path class="cls-17" d="M61,85.88h0c.14-.25.29-.49.44-.74h0C61.3,85.39,61.15,85.63,61,85.88Z"/><path class="cls-17" d="M63.59,81.64c.18-.28.35-.56.53-.83h0C63.94,81.08,63.77,81.36,63.59,81.64Z"/><path class="cls-17" d="M80.32,60.66l.45-.44-.45.44Z"/><path class="cls-17" d="M77.49,63.56l0,0,0,0Z"/><path class="cls-17" d="M70.49,71.8l.07-.1h0Z"/><path class="cls-17" d="M74.33,170.54c-.74,0-1.46-.14-2.17-.25C72.87,170.4,73.59,170.49,74.33,170.54Z"/><path class="cls-17" d="M114.61,151.56q-1.65,1.6-3.34,3.11Q113,153.17,114.61,151.56Z"/><path class="cls-17" d="M98.57,163.92c-1,.61-2.08,1.15-3.1,1.67C96.49,165.07,97.53,164.53,98.57,163.92Z"/><path class="cls-17" d="M102.43,161.5c-1.28.85-2.56,1.67-3.86,2.42C99.87,163.17,101.15,162.35,102.43,161.5Z"/><path class="cls-17" d="M82.8,170l-1.14.21Z"/><path class="cls-17" d="M56.53,94.3c0-.11.11-.21.16-.32h0C56.64,94.09,56.58,94.19,56.53,94.3Z"/><path class="cls-17" d="M126.79,39.84h0Z"/><path class="cls-17" d="M119.38,39.57l.67,0-.54,0Z"/><path class="cls-17" d="M123.88,39.52h0l.6,0h0Z"/><path class="cls-17" d="M116.57,39.89h0l1.12-.13c-.33,0-.66.07-1,.12Z"/><path class="cls-17" d="M130.17,40.58l-.07,0,.39.13-.2-.07Z"/><path class="cls-17" d="M132.63,41.44l.37.15-.32-.13Z"/><path class="cls-17" d="M93.36,49.81l.16-.11-.16.11Z"/><path class="cls-17" d="M46.27,148.3c.09.5.17,1,.26,1.51C46.44,149.32,46.36,148.8,46.27,148.3Z"/><path class="cls-17" d="M47.46,153.56c.13.44.25.89.39,1.32C47.71,154.45,47.59,154,47.46,153.56Z"/><path class="cls-17" d="M46.81,151c.11.46.2.94.32,1.39C47,152,46.92,151.48,46.81,151Z"/><path class="cls-17" d="M49.13,158.27c.17.39.33.79.51,1.17C49.46,159.06,49.3,158.66,49.13,158.27Z"/><path class="cls-17" d="M48.24,156c.14.42.29.85.45,1.25C48.53,156.82,48.38,156.39,48.24,156Z"/><path class="cls-17" d="M50.14,160.43c.18.36.36.74.56,1.09C50.5,161.17,50.32,160.79,50.14,160.43Z"/><polygon class="cls-17" points="50.43 109.24 50.44 109.23 50.43 109.24 50.43 109.24"/><path class="cls-17" d="M98.24,46.73c-.74.42-1.47.87-2.2,1.33C96.77,47.6,97.5,47.15,98.24,46.73Z"/><path class="cls-17" d="M45.58,142.26c0,.67.08,1.34.14,2C45.66,143.6,45.62,142.93,45.58,142.26Z"/><path class="cls-17" d="M45.85,145.35c.07.58.13,1.17.21,1.74C46,146.52,45.92,145.93,45.85,145.35Z"/><path class="cls-17" d="M45.43,138.2c0,1.05,0,2.08.08,3.09C45.46,140.28,45.43,139.25,45.43,138.2Z"/><path class="cls-17" d="M45.58,133.6c0-.1,0-.2,0-.3,0,.1,0,.2,0,.3Z"/><path class="cls-17" d="M46.08,128.09c0-.19.06-.38.08-.57,0,.19,0,.38-.08.57Z"/><path class="cls-17" d="M56,168.49c-.27-.26-.52-.53-.77-.8C55.48,168,55.73,168.23,56,168.49Z"/><path class="cls-17" d="M47.24,121.17c0-.12,0-.23.07-.35,0,.12-.05.23-.07.35Z"/><path class="cls-17" d="M46.58,124.68h0c.08-.47.17-1,.26-1.43h0C46.75,123.73,46.66,124.21,46.58,124.68Z"/><path class="cls-17" d="M51.25,162.45c.21.34.41.69.62,1C51.66,163.14,51.46,162.79,51.25,162.45Z"/><path class="cls-17" d="M58.36,170.48c.29.22.57.44.87.65C58.93,170.92,58.65,170.7,58.36,170.48Z"/><path class="cls-17" d="M53.8,166.08c.24.29.47.59.72.87C54.27,166.67,54,166.37,53.8,166.08Z"/><path class="cls-17" d="M52.48,164.34c.22.31.43.63.66.94C52.91,165,52.7,164.65,52.48,164.34Z"/><path class="cls-17" d="M56.75,169.16c.27.24.54.49.82.72C57.29,169.65,57,169.4,56.75,169.16Z"/><path class="cls-17" d="M133.87,48.35l.79.5Z"/><path class="cls-17" d="M141.24,110.47c.51-1.35,1-2.71,1.46-4.07-.46,1.36-.95,2.72-1.46,4.07Z"/><path class="cls-17" d="M142.8,106.06h0c.47-1.4.89-2.81,1.29-4.22h0C143.69,103.25,143.27,104.66,142.8,106.06Z"/><path class="cls-17" d="M59.17,162.74c.72.12,1.46.21,2.21.26l.48.05c.93,0,1.88,0,2.84,0l.65,0c1.08-.06,2.17-.15,3.28-.32.73-.12,1.47-.26,2.21-.42l.71-.17c.51-.12,1-.24,1.54-.38q1.3-.36,2.64-.81l.54-.2c.71-.26,1.43-.53,2.16-.83l.83-.35c.77-.33,1.55-.69,2.33-1.07l.89-.43c1-.52,2.06-1.07,3.1-1.67,1.31-.75,2.59-1.57,3.87-2.42.21-.15.43-.29.65-.43,1.21-.83,2.42-1.71,3.6-2.62l.69-.55c1.21-.94,2.41-1.92,3.58-3l.31-.29c1.13-1,2.25-2,3.34-3.11l.54-.52c.85-.84,1.68-1.69,2.51-2.57l.13-.15c.78-.83,1.54-1.68,2.3-2.54l.49-.57q1.84-2.15,3.6-4.39c.13-.16.25-.33.37-.49q1.39-1.82,2.73-3.69l.39-.55c.85-1.21,1.67-2.45,2.48-3.7l.57-.9c.65-1,1.28-2.07,1.9-3.12.13-.22.27-.44.4-.67.7-1.2,1.38-2.42,2-3.64l.48-.91c.51-1,1-2,1.49-2.95l.48-1c.59-1.24,1.17-2.5,1.72-3.76l.23-.54c.49-1.14,1-2.28,1.4-3.42l.39-1c.52-1.36,1-2.72,1.46-4.08,0-.11.07-.22.11-.34.46-1.4.89-2.8,1.29-4.21.07-.27.15-.54.23-.81.45-1.64.84-3.27,1.2-4.9.08-.36.16-.72.23-1.07.13-.64.25-1.28.37-1.92.08-.44.16-.89.23-1.33.11-.66.21-1.32.3-2,.06-.4.12-.79.17-1.18.17-1.41.31-2.81.41-4.2,0-.3,0-.6.05-.89.09-1.43.14-2.85.14-4.26,0-11.63-3.13-20.66-8.41-26.6-7.91-1.68-17.48.18-27.78,6.12C71.18,66.92,49.31,104.8,49.39,135.91c0,11.61,3.13,20.62,8.39,26.56.24.05.47.12.71.16Z"/><path class="cls-17" d="M130.71,131.48c.65-1,1.29-2.07,1.91-3.12-.62,1-1.26,2.09-1.91,3.12Z"/><path class="cls-17" d="M120.57,145.2c1.23-1.42,2.44-2.88,3.6-4.38-1.16,1.5-2.37,3-3.6,4.38Z"/><path class="cls-17" d="M137,120.2c-.48,1-1,2-1.48,2.94C136,122.17,136.53,121.19,137,120.2Z"/><path class="cls-17" d="M133,127.7h0c.7-1.2,1.38-2.42,2-3.65h0C134.39,125.28,133.71,126.5,133,127.7Z"/><path class="cls-17" d="M64.27,167.65l-.15-.07c.65.35,1.32.68,2,1l0,0C65.46,168.26,64.86,168,64.27,167.65Z"/><path class="cls-17" d="M127.66,136.09c.85-1.22,1.67-2.45,2.48-3.7-.81,1.25-1.63,2.48-2.48,3.7Z"/><path class="cls-17" d="M117.8,148.3q1.15-1.25,2.28-2.52h0Q119,147.06,117.8,148.3Z"/><path class="cls-17" d="M107.38,157.91q1.91-1.5,3.77-3.13l-.2.17C109.78,156,108.59,157,107.38,157.91Z"/><path class="cls-17" d="M103.08,161.07l-.48.32q2.31-1.54,4.54-3.29l-.45.35Q104.91,159.83,103.08,161.07Z"/><path class="cls-17" d="M63.87,167.45h0Z"/><path class="cls-17" d="M115.15,151c.84-.84,1.68-1.69,2.5-2.56C116.83,149.34,116,150.19,115.15,151Z"/><path class="cls-17" d="M92.24,167.09h0c1-.41,1.9-.85,2.86-1.32l-.51.25C93.79,166.41,93,166.76,92.24,167.09Z"/><path class="cls-17" d="M89.25,168.27l-.54.2q-1.32.45-2.61.81a47,47,0,0,0,5.34-1.84h0C90.69,167.75,90,168,89.25,168.27Z"/><path class="cls-17" d="M78.33,170.58c.52,0,1-.06,1.57-.12l-1.56.12Z"/><path class="cls-17" d="M74.9,170.59c.92,0,1.87.06,2.83,0h0C76.74,170.65,75.81,170.64,74.9,170.59Z"/><path class="cls-17" d="M69.09,169.63a24.49,24.49,0,0,0,2.43.56h0C70.66,170,69.87,169.85,69.09,169.63Z"/><path class="cls-17" d="M83.88,169.83l.85-.21-.2,0Z"/><path class="cls-17" d="M124.55,140.32h0c.93-1.2,1.83-2.43,2.72-3.68h0C126.38,137.89,125.48,139.12,124.55,140.32Z"/><path class="cls-17" d="M140.91,55.15c.18.26.38.52.56.79C141.29,55.67,141.09,55.41,140.91,55.15Z"/><path class="cls-17" d="M139.68,53.52c.2.25.41.49.61.75C140.09,54,139.88,53.77,139.68,53.52Z"/><path class="cls-17" d="M142,56.9c.17.28.35.55.51.84C142.39,57.45,142.21,57.18,142,56.9Z"/><path class="cls-17" d="M136.94,50.67c.24.21.48.41.71.63C137.42,51.08,137.18,50.88,136.94,50.67Z"/><path class="cls-17" d="M135.45,49.44l.75.57Z"/><path class="cls-17" d="M138.36,52c.22.23.44.45.65.69C138.8,52.48,138.58,52.26,138.36,52Z"/><path class="cls-17" d="M140.84,111.5c-.45,1.14-.91,2.28-1.4,3.41C139.93,113.78,140.39,112.64,140.84,111.5Z"/><path class="cls-17" d="M139.21,115.46c-.54,1.26-1.12,2.51-1.72,3.76C138.09,118,138.67,116.72,139.21,115.46Z"/><path class="cls-14" d="M117.8,148.3q1.15-1.25,2.28-2.52h0c.17-.19.33-.39.49-.58h0c1.23-1.42,2.44-2.88,3.6-4.38.13-.16.25-.33.38-.5h0c.93-1.2,1.83-2.43,2.72-3.68h0l.39-.55h0c.85-1.22,1.67-2.45,2.48-3.7l.57-.91h0c.65-1,1.29-2.07,1.91-3.12l.39-.66h0c.7-1.2,1.38-2.42,2-3.65h0l.48-.91c.51-1,1-2,1.48-2.94.16-.33.33-.65.48-1,.6-1.25,1.18-2.5,1.72-3.76.08-.18.16-.37.23-.55.49-1.13.95-2.27,1.4-3.41.13-.34.27-.68.4-1h0c.51-1.35,1-2.71,1.46-4.07,0-.12.07-.23.1-.34h0c.47-1.4.89-2.81,1.29-4.21h0c.08-.27.16-.54.23-.81.45-1.63.85-3.27,1.2-4.9h0c.08-.35.16-.71.23-1.07.13-.64.25-1.27.37-1.91.07-.41.15-.81.22-1.22a.5.5,0,0,1,0-.12c.11-.66.2-1.31.3-2,.05-.39.11-.79.16-1.18.18-1.41.31-2.81.41-4.2l.06-.89c.08-1.43.14-2.85.13-4.25,0-1,0-1.92-.07-2.85,0-.36,0-.7-.07-1,0-.57-.07-1.14-.12-1.7,0-.36-.09-.7-.13-1-.06-.53-.12-1.07-.19-1.58s-.13-.73-.19-1.09-.16-1-.25-1.43-.17-.72-.25-1.09-.19-.88-.3-1.31-.21-.71-.31-1.06-.23-.83-.35-1.23-.25-.68-.37-1-.26-.77-.41-1.14-.27-.65-.41-1-.3-.73-.47-1.08-.31-.61-.46-.91-.34-.69-.52-1-.34-.56-.51-.84-.37-.65-.57-1-.38-.53-.56-.79-.41-.6-.62-.88-.41-.5-.61-.75-.44-.54-.67-.8-.43-.46-.65-.69-.47-.5-.71-.73-.47-.42-.71-.63-.49-.45-.74-.66l-.75-.57c-.27-.2-.52-.4-.79-.59l-.79-.5A24,24,0,0,0,126,45.17c5.28,5.94,8.38,15,8.41,26.6,0,1.41-.05,2.83-.14,4.26,0,.29,0,.59-.05.89-.1,1.39-.24,2.79-.41,4.2-.05.39-.11.78-.17,1.18-.09.65-.19,1.31-.3,2-.07.44-.15.89-.23,1.33-.12.64-.24,1.28-.37,1.92-.07.35-.15.71-.23,1.07-.36,1.63-.75,3.26-1.2,4.9-.08.27-.16.54-.23.81-.4,1.41-.83,2.81-1.29,4.21,0,.12-.07.23-.11.34-.45,1.36-.94,2.72-1.46,4.08l-.39,1c-.45,1.14-.91,2.28-1.4,3.42l-.23.54c-.55,1.26-1.13,2.52-1.72,3.76l-.48,1c-.48,1-1,2-1.49,2.95l-.48.91c-.65,1.22-1.33,2.44-2,3.64-.13.23-.27.45-.4.67-.62,1.05-1.25,2.09-1.9,3.12l-.57.9c-.81,1.25-1.63,2.49-2.48,3.7l-.39.55q-1.33,1.88-2.73,3.69c-.12.16-.24.33-.37.49q-1.75,2.25-3.6,4.39l-.49.57c-.76.86-1.52,1.71-2.3,2.54l-.13.15c-.83.88-1.66,1.73-2.51,2.57l-.54.52c-1.09,1.07-2.21,2.11-3.34,3.11l-.31.29c-1.17,1-2.37,2-3.58,3l-.69.55c-1.18.91-2.39,1.79-3.6,2.62-.22.14-.44.28-.65.43-1.28.85-2.56,1.67-3.87,2.42-1,.6-2.07,1.15-3.1,1.67l-.89.43c-.78.38-1.56.74-2.33,1.07l-.83.35c-.73.3-1.45.57-2.16.83l-.54.2q-1.33.45-2.64.81c-.52.14-1,.26-1.54.38l-.71.17c-.74.16-1.48.3-2.21.42-1.11.17-2.2.26-3.28.32l-.65,0c-1,0-1.91,0-2.84,0l-.48-.05c-.75-.05-1.49-.14-2.21-.26l-.68-.11c-.24,0-.47-.11-.71-.16a23.82,23.82,0,0,0,6.08,5h0l.25.13.15.07c.59.32,1.19.61,1.81.88l0,0,.63.26c.64.26,1.3.49,2,.7l.37.12c.78.22,1.57.4,2.38.55h0l.64.1c.71.11,1.43.2,2.17.25l.57.05c.91,0,1.84.06,2.79,0h0l.6,0h0l1.56-.12c.58-.06,1.17-.13,1.76-.22L82.8,170c.36-.07.71-.12,1.08-.2l.65-.16.2,0,1.37-.34q1.29-.36,2.61-.81l.54-.2c.72-.25,1.44-.52,2.17-.82h0l.79-.34h0c.77-.33,1.55-.68,2.34-1.06l.51-.25.38-.19c1-.52,2.06-1.06,3.1-1.67,1.3-.75,2.58-1.57,3.86-2.42l.17-.11.48-.32q1.83-1.24,3.61-2.62l.45-.35.24-.19c1.21-.95,2.4-1.93,3.57-3l.2-.17.12-.11q1.7-1.5,3.34-3.11l.54-.53c.84-.84,1.68-1.69,2.5-2.56Z"/><polygon class="cls-4" points="58.6 121.56 58.61 124.57 50.1 129.48 50.09 126.47 58.6 121.56"/><polygon class="cls-4" points="127.41 57.97 128.72 59.81 121.36 68.97 120.05 67.11 127.41 57.97"/><path class="cls-2" d="M91.75,47.52c27.07-15.63,49.09-3.09,49.18,28s-21.79,69-48.86,84.61-49.08,3.09-49.17-28S64.69,63.14,91.75,47.52Zm22.31,54.57c.28-.92,0-1.62-.69-1.58l-20.51,1.62L79.46,79.4c-.23-.39-.69-.43-1.17-.15a2.16,2.16,0,0,0-.58.49,2.35,2.35,0,0,0-.58,2.37l13.62,23.08a.69.69,0,0,0,.78.3l20.81-1.63a1.18,1.18,0,0,0,.52-.17,2.9,2.9,0,0,0,1.2-1.6M74,81.71,76.3,78.9l-4.28-6-2.26,2.81,4.28,6m-1.78,75.9,4.24-10.93-2.28-.19L70,157.43l2.27.18m55.3-49,1.29-3.36-7.39-.63L120.17,108l7.39.63M56.42,149.71l7.36-9.16-1.32-1.85-7.36,9.15,1.32,1.86m71-91.74-7.36,9.14L121.36,69l7.37-9.15L127.41,58M62.36,103l1.3-3.36-7.39-.62L55,102.4l7.39.63m49.22-53L107.34,61l2.27.19,4.23-10.93-2.26-.2m.24,84.74,2.25-2.81-4.28-6-2.25,2.8,4.28,6m13.41-48.67,8.52-4.92v-3l-8.52,4.91v3M50.09,126.47v3l8.51-4.91v-3l-8.51,4.91m43.27,24.67,0-9.79-2.61,1.51,0,9.78,2.62-1.5M90.47,56.53l0,9.79,2.61-1.51,0-9.79-2.61,1.51"/><polygon class="cls-4" points="93.08 55.02 93.11 64.81 90.5 66.32 90.47 56.53 93.08 55.02"/><polygon class="cls-4" points="72.02 72.88 76.3 78.9 74.04 81.71 69.75 75.69 72.02 72.88"/><polygon class="cls-4" points="56.27 99.05 63.66 99.67 62.36 103.03 54.97 102.4 56.27 99.05"/><polygon class="cls-4" points="62.46 138.7 63.78 140.55 56.42 149.71 55.1 147.85 62.46 138.7"/><polygon class="cls-4" points="74.22 146.49 76.5 146.68 72.26 157.62 69.99 157.43 74.22 146.49"/><polygon class="cls-4" points="93.33 141.35 93.36 151.13 90.75 152.64 90.72 142.86 93.33 141.35"/><polygon class="cls-4" points="109.79 125.96 114.07 131.97 111.82 134.78 107.54 128.76 109.79 125.96"/><polygon class="cls-4" points="121.47 104.64 128.85 105.27 127.56 108.63 120.17 108 121.47 104.64"/><polygon class="cls-4" points="133.74 78.18 133.75 81.19 125.23 86.11 125.22 83.09 133.74 78.18"/><polygon class="cls-4" points="111.58 50.04 113.84 50.24 109.61 61.17 107.34 60.98 111.58 50.04"/><path class="cls-4" d="M91.9,102.34a1.16,1.16,0,0,1,.53-.18l.43,0,20.51-1.62c.66,0,1,.66.69,1.58a2.9,2.9,0,0,1-1.2,1.6,1.18,1.18,0,0,1-.52.17l-20.81,1.63H91.4c-.66.06-1-.64-.69-1.58A2.89,2.89,0,0,1,91.9,102.34Z"/><path class="cls-6" d="M78.29,79.25c.48-.28.94-.24,1.17.15l13.4,22.73-.43,0a1.16,1.16,0,0,0-.53.18,2.89,2.89,0,0,0-1.19,1.58c-.28.94,0,1.64.69,1.58h.13a.69.69,0,0,1-.78-.3L77.13,82.11a2.35,2.35,0,0,1,.58-2.37A2.16,2.16,0,0,1,78.29,79.25Z"/><path class="cls-2" d="M58.36,170.48c-.27-.2-.54-.39-.79-.6s-.55-.48-.82-.72-.51-.44-.75-.67-.52-.53-.77-.8-.48-.48-.71-.74-.48-.58-.72-.87-.44-.52-.66-.8-.44-.63-.66-.94-.42-.57-.61-.88-.41-.67-.62-1-.37-.61-.55-.93-.38-.73-.56-1.09-.34-.65-.5-1-.34-.78-.51-1.17-.3-.69-.44-1.05-.31-.83-.45-1.25-.27-.72-.39-1.09-.26-.88-.39-1.32-.23-.76-.33-1.15-.21-.93-.32-1.39-.19-.8-.28-1.21-.17-1-.26-1.51-.15-.8-.21-1.21c-.08-.57-.14-1.16-.21-1.74,0-.37-.09-.73-.13-1.1-.06-.65-.1-1.32-.14-2,0-.33-.06-.65-.07-1,0-1-.08-2-.08-3.09,0-1.52.06-3.06.15-4.6h0c0-.1,0-.2,0-.3.1-1.72.26-3.46.48-5.21h0c0-.19.06-.38.08-.57.13-1,.27-1.89.42-2.84h0c.08-.47.17-1,.26-1.43h0c.12-.7.26-1.39.4-2.08h0c0-.12,0-.23.07-.35a108.65,108.65,0,0,1,3.12-11.58h0A122.14,122.14,0,0,1,56.53,94.3c0-.11.11-.21.16-.32h0c1.34-2.74,2.78-5.45,4.32-8.1h0c.14-.25.29-.49.44-.73h0c.69-1.18,1.41-2.35,2.14-3.5.18-.28.35-.56.53-.83h0q3-4.66,6.37-9l.07-.1h0q3.31-4.26,6.93-8.14h0l0,0c.92-1,1.86-1.94,2.81-2.88h0l.45-.44q1.85-1.8,3.75-3.5h0l.14-.13c1.33-1.17,2.69-2.29,4.06-3.37h0l.74-.58h0q1.92-1.48,3.9-2.83h0l.16-.11c.83-.56,1.67-1.11,2.52-1.64s1.46-.91,2.2-1.33c1.12-.66,2.24-1.25,3.35-1.81h0l.1,0a54.17,54.17,0,0,1,10-3.94h0c.31-.09.61-.16.92-.23l1.45-.36h0l1-.19c.45-.08.9-.18,1.34-.25h.13c.33-.05.66-.08,1-.12.58-.08,1.16-.14,1.74-.19h.13l.54,0a31.83,31.83,0,0,1,3.78,0h0l.52,0h0c.8.06,1.59.15,2.36.27h0a28.73,28.73,0,0,1,3.27.71l.07,0,.12,0,.2.07c.73.22,1.44.47,2.14.75l.05,0,.32.13A26.8,26.8,0,0,1,135.85,43l.09.05-13-7.54-.29-.17-.35-.17c-.63-.34-1.28-.66-1.95-.95L120,34l-.32-.11c-.78-.31-1.57-.6-2.38-.84l-.1,0h0c-.86-.25-1.75-.44-2.65-.61l-.31-.07c-.14,0-.28,0-.42-.05-.79-.13-1.58-.22-2.4-.28L111,32a.65.65,0,0,1-.14,0c-1-.06-2-.06-3.07,0h-.3c-.33,0-.66,0-1,.07l-.71,0c-.71.07-1.43.15-2.16.26h-.09c-.78.12-1.58.27-2.39.45l-.75.18c-.51.12-1,.23-1.52.37l-.15,0c-.94.26-1.89.55-2.85.88l-.59.22c-.78.28-1.55.57-2.34.89l-.31.12-.58.26c-.83.36-1.67.75-2.52,1.16-.32.15-.64.3-1,.47-1.11.56-2.23,1.15-3.36,1.8-1.41.81-2.79,1.7-4.17,2.62l-.71.46q-2,1.35-3.9,2.84l-.74.58c-1.31,1-2.6,2.09-3.87,3.2l-.32.3c-1.23,1.08-2.44,2.21-3.63,3.37-.11.12-.24.22-.36.34l-.22.23c-.91.9-1.81,1.82-2.7,2.77a1.85,1.85,0,0,1-.14.14Q63.23,57.4,62,58.79l-.24.26-.28.36q-2,2.31-3.9,4.74a1.34,1.34,0,0,0-.11.14c-.1.12-.19.26-.28.38q-1.52,2-2.95,4l-.3.41-.13.2q-1.38,2-2.68,4l-.25.39c-.13.19-.24.39-.37.59-.7,1.11-1.38,2.23-2,3.36-.1.18-.22.35-.32.53l-.12.2c-.75,1.3-1.48,2.62-2.19,3.94l-.18.32-.33.66c-.56,1-1.09,2.12-1.62,3.18-.1.22-.22.44-.33.66s-.12.28-.19.41c-.64,1.35-1.27,2.71-1.86,4.07l-.06.12c-.06.14-.11.29-.17.43-.53,1.24-1,2.48-1.52,3.73l-.25.6c-.07.17-.12.34-.18.51q-.84,2.19-1.59,4.41s0,0,0,.08-.05.17-.08.25c-.51,1.53-1,3-1.4,4.58,0,.19-.12.38-.17.57s-.05.21-.08.32c-.49,1.76-.92,3.53-1.3,5.29,0,.16-.08.32-.11.47s-.09.46-.14.69c-.14.7-.27,1.39-.4,2.08-.08.48-.17,1-.25,1.44-.12.71-.22,1.43-.32,2.14-.05.33-.11.67-.16,1,0,.09,0,.18,0,.27-.2,1.52-.34,3-.45,4.54l-.06,1c-.09,1.55-.15,3.09-.14,4.61,0,16.7,5.94,28.45,15.45,34l13,7.54c-.29-.16-.55-.35-.83-.52s-.56-.34-.83-.53S58.65,170.7,58.36,170.48Z"/><path class="cls-4" d="M135.85,43A26.8,26.8,0,0,0,133,41.59l-.37-.15c-.7-.28-1.41-.53-2.14-.75l-.39-.13a28.73,28.73,0,0,0-3.27-.71h0c-.77-.12-1.56-.21-2.36-.27l-.6,0a31.83,31.83,0,0,0-3.78,0l-.67,0c-.58,0-1.16.11-1.74.19l-1.12.13c-.44.07-.89.17-1.34.25l-1.06.2-1.45.36-1,.24a54.17,54.17,0,0,0-10,3.94l-.1,0c-1.11.56-2.23,1.15-3.35,1.81-.74.42-1.47.87-2.2,1.33s-1.69,1.08-2.52,1.64l-.16.11q-2,1.35-3.9,2.83l-.74.58c-1.37,1.08-2.73,2.2-4.06,3.37l-.14.13q-1.9,1.7-3.75,3.5l-.45.44c-.95.94-1.89,1.9-2.81,2.88l0,0q-3.61,3.87-6.93,8.14l-.07.1q-3.37,4.33-6.37,9c-.18.27-.35.55-.53.83-.73,1.15-1.45,2.32-2.14,3.5-.15.25-.3.49-.44.74-1.54,2.65-3,5.36-4.32,8.1,0,.11-.11.21-.16.32a122.14,122.14,0,0,0-6.09,14.93h0a108.65,108.65,0,0,0-3.12,11.58c0,.12-.05.23-.07.35-.14.69-.28,1.38-.4,2.08-.09.48-.18,1-.26,1.43-.15.95-.29,1.89-.42,2.84,0,.19,0,.38-.08.57-.22,1.75-.38,3.49-.48,5.21,0,.1,0,.2,0,.3-.09,1.54-.15,3.08-.15,4.6,0,1.05,0,2.08.08,3.09,0,.32.05.64.07,1,0,.67.08,1.34.14,2,0,.37.09.73.13,1.1.07.58.13,1.17.21,1.74.06.41.14.8.21,1.21s.17,1,.26,1.51.19.8.28,1.21.2.94.32,1.39.22.76.33,1.15.25.89.39,1.32.26.73.39,1.09.29.85.45,1.25.29.7.44,1.05.33.79.51,1.17.33.66.5,1,.36.74.56,1.09.37.62.55.93.41.69.62,1,.41.59.61.88.43.63.66.94.44.54.66.8.47.59.72.87.47.5.71.74.5.54.77.8.5.44.75.67.54.49.82.72.52.4.79.6.57.44.87.65.55.35.83.53c9.69,6.14,23.37,5.58,38.52-3.17C127.85,151.6,151.49,110.64,151.4,77,151.35,60.26,145.41,48.49,135.85,43ZM115.15,151l-.54.53q-1.65,1.6-3.34,3.11l-.12.11q-1.86,1.64-3.77,3.13l-.24.19q-2.23,1.74-4.54,3.29l-.17.11c-1.28.85-2.56,1.67-3.86,2.42-1,.61-2.08,1.15-3.1,1.67l-.38.19c-1,.47-1.91.91-2.86,1.32l-.79.34a47,47,0,0,1-5.34,1.84l-1.37.34-.85.21c-.37.08-.72.13-1.08.2l-1.14.21c-.59.09-1.18.16-1.76.22s-1.05.09-1.57.12l-.6,0c-1,0-1.91,0-2.83,0l-.57-.05c-.74,0-1.46-.14-2.17-.25l-.64-.1a24.49,24.49,0,0,1-2.43-.56l-.37-.12c-.67-.2-1.32-.44-2-.7l-.63-.26c-.68-.29-1.35-.62-2-1l-.25-.13h0a23.82,23.82,0,0,1-6.08-5c-5.26-5.94-8.35-14.95-8.39-26.56-.08-31.11,21.79-69,48.86-84.62,10.3-5.94,19.87-7.8,27.78-6.12a24,24,0,0,1,7.84,3.18l.79.5c.27.19.52.39.79.59l.75.57c.25.21.49.44.74.66s.48.41.71.63.47.49.71.73.44.45.65.69.45.53.67.8.41.49.61.75.41.58.62.88.38.52.56.79.38.64.57,1,.35.55.51.84.35.68.52,1,.32.6.46.91.31.72.47,1.08.28.63.41,1,.28.76.41,1.14.25.67.37,1,.23.82.35,1.23.22.7.31,1.06.2.87.3,1.31.18.72.25,1.09.17,1,.25,1.43.13.72.19,1.09.13,1,.19,1.58c0,.35.09.69.13,1,.05.56.08,1.13.12,1.7,0,.35.05.69.07,1,.05.93.07,1.88.07,2.85,0,1.4,0,2.82-.13,4.25l-.06.89c-.1,1.39-.23,2.79-.41,4.2,0,.39-.11.79-.16,1.18-.1.69-.21,1.39-.32,2.09-.07.41-.15.81-.22,1.22-.12.64-.24,1.27-.37,1.91-.07.36-.15.72-.23,1.07-.35,1.63-.75,3.27-1.2,4.9-.07.27-.15.54-.23.81-.4,1.41-.82,2.82-1.29,4.22,0,.11-.06.22-.1.34-.46,1.36-.95,2.72-1.46,4.07-.13.35-.27.69-.4,1-.45,1.14-.91,2.28-1.4,3.41-.07.18-.15.37-.23.55-.54,1.26-1.12,2.51-1.72,3.76-.15.33-.32.65-.48,1-.48,1-1,2-1.48,2.94l-.48.91c-.66,1.23-1.34,2.45-2,3.65l-.39.66c-.62,1-1.26,2.09-1.91,3.12l-.57.91c-.81,1.25-1.63,2.48-2.48,3.7l-.39.55c-.89,1.25-1.79,2.48-2.72,3.68-.13.17-.25.34-.38.5-1.16,1.5-2.37,3-3.6,4.38-.16.19-.32.39-.49.58q-1.12,1.28-2.28,2.52l-.15.17C116.83,149.34,116,150.19,115.15,151Z"/></g></g></svg>