<svg xmlns="http://www.w3.org/2000/svg" viewBox="0 0 327.19 58.94"><defs><style>.cls-1{fill:#004b93;}.cls-2{font-size:24px;font-family:ArialMT, Arial;}.cls-2,.cls-5{fill:#fff;}.cls-3{letter-spacing:0.1em;}.cls-4{fill:none;stroke:#fff;stroke-miterlimit:10;}</style></defs><title>paso 3 enviar 1</title><g id="Capa_2" data-name="Capa 2"><g id="Esquema"><rect class="cls-1" width="327.19" height="58.94" rx="10" ry="10"/><text class="cls-2" transform="translate(131.51 38.03)"><tspan class="cls-3">3•</tspan><tspan x="26.55" y="0">ENVIAR</tspan></text><circle class="cls-4" cx="93.24" cy="28.66" r="20"/><path class="cls-5" d="M102.7,20.72c-.06.83-.53,3.73-1,6.88l-1.48,9.32s-.12,1.36-1.13,1.6-2.67-.83-3-1.07-4.45-2.85-6-4.15a1.12,1.12,0,0,1,.06-1.9c2.13-2,4.69-4.39,6.23-5.94.71-.71,1.42-2.37-1.54-.35L86.5,30.75a3.51,3.51,0,0,1-2.73.06c-1.78-.54-3.86-1.25-3.86-1.25s-1.43-.89,1-1.84h0L94.75,22c1.36-.59,6-2.49,6-2.49S102.88,18.7,102.7,20.72Z"/></g></g></svg>