<svg xmlns="http://www.w3.org/2000/svg" viewBox="0 0 130.31 126.22"><defs><style>.cls-1{opacity:0.1;}.cls-2{fill:#004b93;}.cls-3{fill:#211f44;}.cls-4{fill:#fff;}.cls-5{fill:#c7ddf3;}.cls-6{fill:#739cd2;}.cls-7{fill:#304982;}</style></defs><title>sobre</title><g id="Capa_2" data-name="Capa 2"><g id="Esquema"><g class="cls-1"><path class="cls-2" d="M119.87,10.7C111.61.67,97.21-3.57,86,3.52,75.4,10.18,70.67,23.24,61.12,31.13c-10,8.28-21,8.71-33.18,7.23C17.48,37.09,5.58,37.29,1.45,49.47-3,62.68,3.58,78.22,11.58,88.4a53.9,53.9,0,0,0,31,19.4c24.17,5.25,52.64-3.53,69.86-22.17C130.26,66.35,137.85,32.57,119.87,10.7Z"/></g><path class="cls-3" d="M77.38,21.62,31.07,61.41l.86,18C31.93,81.56,34.52,112,37,112L80.23,83.07l39,26c2.46,0,7.22-28.29,7.22-30.44l2.88-17.23L82.94,21.62A5,5,0,0,0,77.38,21.62Z"/><rect class="cls-4" x="39.11" y="35.87" width="81.94" height="83.33" rx="36.94" ry="36.94"/><path class="cls-5" d="M63.86,84.41H46.49a1.22,1.22,0,0,1-1.22-1.22V65.83a1.22,1.22,0,0,1,1.22-1.22H63.86a1.22,1.22,0,0,1,1.22,1.22V83.19A1.22,1.22,0,0,1,63.86,84.41ZM47.71,82H62.64V67.05H47.71Z"/><path class="cls-6" d="M117,79.66H73.65a1.22,1.22,0,1,1,0-2.43H117a1.22,1.22,0,1,1,0,2.43Z"/><path class="cls-7" d="M54,80.48h0a1.2,1.2,0,0,1-1.05-.67l-2.13-4.14A1.22,1.22,0,1,1,53,74.56l1.1,2.15,4.36-7.56a1.22,1.22,0,0,1,2.11,1.22l-5.47,9.5A1.24,1.24,0,0,1,54,80.48Z"/><rect class="cls-5" x="72.43" y="69.36" width="24.21" height="2.42" rx="1.11" ry="1.11"/><path class="cls-5" d="M63.86,61.84H46.49a1.22,1.22,0,0,1-1.22-1.22V43.25A1.22,1.22,0,0,1,46.49,42H63.86a1.22,1.22,0,0,1,1.22,1.22V60.62A1.22,1.22,0,0,1,63.86,61.84ZM47.71,59.4H62.64V44.47H47.71Z"/><path class="cls-5" d="M106.64,49.22H73.5a1.23,1.23,0,0,1,0-2.44h33.14a1.23,1.23,0,0,1,0,2.44Z"/><path class="cls-6" d="M114.39,57.09H73.58a1.22,1.22,0,0,1,0-2.44h40.81a1.22,1.22,0,0,1,0,2.44Z"/><path class="cls-7" d="M54,57.9h0a1.19,1.19,0,0,1-1.05-.66L50.78,53.1A1.22,1.22,0,1,1,53,52l1.1,2.14,4.36-7.55a1.22,1.22,0,1,1,2.11,1.22l-5.47,9.49A1.22,1.22,0,0,1,54,57.9Z"/><path class="cls-2" d="M81.18,91.5l22.35-22a32.94,32.94,0,0,1,23-9.07h0c2.06,0,3.74,1.31,3.74,2.93v58.77c0,1.62-2.79,4.08-4.86,4.08h-12.7L81.18,95.15A2.51,2.51,0,0,1,81.18,91.5Z"/><path class="cls-2" d="M79.28,91.46l-22.34-22a32.94,32.94,0,0,0-23-9.07h0c-2.07,0-3.74,1.31-3.74,2.93v59.12c0,1.62,2.39,3.77,4.46,3.77l13.09,0L79.28,95.11A2.49,2.49,0,0,0,79.28,91.46Z"/><path class="cls-2" d="M130.31,110.11v12.68c0,1.89-2,3.43-4.46,3.43H34.62c-2.46,0-4.46-1.54-4.46-3.43V110.11l47.29-29a5.39,5.39,0,0,1,2.63-.75,5.48,5.48,0,0,1,2.93.75Z"/><polygon class="cls-3" points="89.09 83.68 130.31 104.72 130.31 110.11 88.35 84.41 89.09 83.68"/><polygon class="cls-3" points="71.38 83.68 30.16 104.72 30.16 110.11 72.12 84.41 71.38 83.68"/><polygon class="cls-2" points="56.68 13.54 47.02 44.94 45.47 49.97 41.05 46.24 29.51 36.51 56.68 13.54"/><polygon class="cls-2" points="56.68 13.54 23.1 32.94 7.82 27.88 56.68 13.54"/><polygon class="cls-3" points="56.68 13.54 29.51 36.51 24.29 46.95 23.1 32.94 56.68 13.54"/><path class="cls-6" d="M66.83,119.79l-.16,0c-1.12-.33-2.25-.72-3.34-1.14a.55.55,0,0,1-.32-.71.56.56,0,0,1,.71-.32c1.07.41,2.17.79,3.27,1.11a.56.56,0,0,1,.37.69A.55.55,0,0,1,66.83,119.79Zm-7.56-3a.44.44,0,0,1-.25-.06c-1.05-.52-2.09-1.1-3.09-1.7a.55.55,0,0,1,.56-1c1,.6,2,1.16,3,1.67a.55.55,0,0,1-.25,1Zm-6.92-4.28a.57.57,0,0,1-.33-.11c-.94-.7-1.87-1.45-2.75-2.22a.65.65,0,0,1-.18-.31,15.85,15.85,0,0,1-1.57.47.55.55,0,0,1-.66-.41.54.54,0,0,1,.4-.66,14.73,14.73,0,0,0,3.16-1.16.55.55,0,0,1,.49,1c-.25.13-.52.25-.78.36.82.72,1.68,1.41,2.55,2.06a.55.55,0,0,1-.33,1Zm-9.58-1.72h0a21.2,21.2,0,0,1-3.55-.5.56.56,0,0,1-.41-.66.54.54,0,0,1,.66-.41,19.82,19.82,0,0,0,3.36.47.55.55,0,0,1,0,1.1Zm-7.85-2a.59.59,0,0,1-.23,0,30.76,30.76,0,0,1-3.15-1.65.55.55,0,0,1,.56-.94,29.42,29.42,0,0,0,3,1.58.56.56,0,0,1,.28.73A.55.55,0,0,1,34.92,108.79Zm11.37-1.72a.55.55,0,0,1-.41-.18,23,23,0,0,1-2.2-2.81.56.56,0,0,1,.15-.77.55.55,0,0,1,.76.16,20.94,20.94,0,0,0,2.11,2.67.55.55,0,0,1,0,.78A.53.53,0,0,1,46.29,107.07Zm8.09-.69a.51.51,0,0,1-.37-.15.54.54,0,0,1,0-.77,10.44,10.44,0,0,0,1-1.18,9.6,9.6,0,0,0,.88-1.57.55.55,0,0,1,1,.45,10.68,10.68,0,0,1-1,1.75,11.51,11.51,0,0,1-1,1.29A.53.53,0,0,1,54.38,106.38ZM28,104.54a.53.53,0,0,1-.34-.11c-.93-.73-1.83-1.5-2.69-2.32a.54.54,0,0,1,0-.77.55.55,0,0,1,.78,0c.83.78,1.71,1.54,2.61,2.24a.55.55,0,0,1,.09.77A.54.54,0,0,1,28,104.54Zm14.1-4.39a.55.55,0,0,1-.52-.38,10.73,10.73,0,0,1-.5-3.12c0-.17,0-.35,0-.52a.55.55,0,1,1,1.1.06c0,.15,0,.31,0,.46a9.49,9.49,0,0,0,.45,2.79.55.55,0,0,1-.37.69A.41.41,0,0,1,42.09,100.15ZM57.25,99a.55.55,0,0,1-.55-.55,9.47,9.47,0,0,0-.56-3.24.55.55,0,0,1,1-.37,10.57,10.57,0,0,1,.62,3.61.55.55,0,0,1-.55.55Zm-35.09-.09a.53.53,0,0,1-.42-.2c-.75-.9-1.47-1.85-2.14-2.82a.55.55,0,0,1,.9-.62c.65.94,1.35,1.86,2.08,2.74a.54.54,0,0,1-.07.77A.53.53,0,0,1,22.16,98.87Zm21.19-6.39a.53.53,0,0,1-.37-.15.54.54,0,0,1,0-.77,7.45,7.45,0,0,1,3.13-2,.55.55,0,1,1,.36,1,6.28,6.28,0,0,0-2.67,1.71A.56.56,0,0,1,43.35,92.48Zm-25.72-.37a.54.54,0,0,1-.49-.29c-.55-1-1.06-2.12-1.51-3.2a.55.55,0,1,1,1-.42c.44,1,.94,2.09,1.48,3.11a.55.55,0,0,1-.23.74A.58.58,0,0,1,17.63,92.11ZM54,91.79a.57.57,0,0,1-.33-.11,7.31,7.31,0,0,0-2.94-1.33A.55.55,0,0,1,51,89.27a8.49,8.49,0,0,1,3.38,1.54.55.55,0,0,1-.34,1ZM14.59,84.57a.56.56,0,0,1-.53-.4c-.32-1.14-.6-2.3-.81-3.45a.55.55,0,0,1,.44-.64.54.54,0,0,1,.64.44c.21,1.12.47,2.24.79,3.35a.56.56,0,0,1-.38.68Zm-1.36-8a.55.55,0,0,1-.55-.52c0-.74-.06-1.49-.06-2.24,0-.43,0-.87,0-1.3a.55.55,0,0,1,.57-.53.56.56,0,0,1,.53.57c0,.42,0,.84,0,1.26,0,.73,0,1.46.06,2.18a.55.55,0,0,1-.52.58Zm.39-8.12h-.08a.55.55,0,0,1-.46-.63c.18-1.16.41-2.33.69-3.47a.55.55,0,0,1,1.07.26c-.28,1.12-.5,2.25-.68,3.38A.55.55,0,0,1,13.62,68.43Zm2.06-7.87a.48.48,0,0,1-.2,0,.56.56,0,0,1-.32-.71c.42-1.1.88-2.19,1.39-3.25a.55.55,0,1,1,1,.47c-.49,1-.95,2.1-1.35,3.17A.55.55,0,0,1,15.68,60.56Zm3.63-7.28a.52.52,0,0,1-.29-.09.55.55,0,0,1-.17-.76c.64-1,1.33-2,2-2.89a.55.55,0,0,1,.77-.09.54.54,0,0,1,.09.77c-.7.9-1.36,1.84-2,2.81A.57.57,0,0,1,19.31,53.28Z"/></g></g></svg>