<svg xmlns="http://www.w3.org/2000/svg" viewBox="0 0 15.48 19.35"><defs><style>.cls-1{fill:#004b93;}</style></defs><title>ícono auditar bot</title><g id="Capa_2" data-name="Capa 2"><g id="Esquema"><path class="cls-1" d="M13.69,7.75V5.94a5.95,5.95,0,0,0-11.89,0V7.75A1.93,1.93,0,0,0,0,9.67v7.75a1.93,1.93,0,0,0,1.93,1.93H13.55a1.93,1.93,0,0,0,1.93-1.93V9.67A1.92,1.92,0,0,0,13.69,7.75ZM8.57,14.14v2.17a.83.83,0,1,1-1.66,0V14.14A1.66,1.66,0,1,1,9.4,12.71,1.64,1.64,0,0,1,8.57,14.14Zm3-6.4H3.86V5.94a3.88,3.88,0,0,1,7.76,0Z"/></g></g></svg>