<svg xmlns="http://www.w3.org/2000/svg" viewBox="0 0 308.48 116.15"><defs><style>.cls-1,.cls-8{isolation:isolate;}.cls-2{fill:#006c36;}.cls-3{fill:#ffc82c;}.cls-4{fill:#003b82;}.cls-5{fill:#dd191d;}.cls-6,.cls-8{fill:#fff;}.cls-10,.cls-7{fill:none;}.cls-7{stroke:#000;}.cls-8{opacity:0.3;}.cls-9{fill:#161615;}</style></defs><title>Recurso 10</title><g id="Capa_2" data-name="Capa 2"><g id="Capa_1-2" data-name="Capa 1"><g id="Facultad_de_Arquitectura_y_Urbanismo" data-name="Facultad de Arquitectura y Urbanismo" class="cls-1"><g class="cls-1"><path d="M80.09,48.57a2.44,2.44,0,0,0-.24-.81,1.2,1.2,0,0,0-.41-.45,1.46,1.46,0,0,0-.59-.18,6.53,6.53,0,0,0-.84-.05H72.72c-.31,0-.48,0-.53.1a1.32,1.32,0,0,0-.06.53v6.18h5.15a5.72,5.72,0,0,0,.76,0,1.33,1.33,0,0,0,.53-.18.93.93,0,0,0,.32-.4,2.38,2.38,0,0,0,.17-.73h.36v4.08h-.36c0-.63-.21-1-.47-1.18a2.78,2.78,0,0,0-1.31-.23H72.1l0,7.27a4.45,4.45,0,0,0,0,.71.64.64,0,0,0,.17.39.71.71,0,0,0,.39.18,4.51,4.51,0,0,0,.72,0v.27H68.51V63.8a4.25,4.25,0,0,0,.69,0,.71.71,0,0,0,.39-.18.64.64,0,0,0,.17-.39,4.45,4.45,0,0,0,0-.71V47.38a4.47,4.47,0,0,0,0-.7.7.7,0,0,0-.16-.4.65.65,0,0,0-.38-.18,4.2,4.2,0,0,0-.68,0v-.27h11.9l0,2.78Z"/><path d="M92.13,63.47a7.44,7.44,0,0,1-1.25.64,1.4,1.4,0,0,1-.93.07,1.08,1.08,0,0,1-.6-.62,4.18,4.18,0,0,1-.24-1.44,6.89,6.89,0,0,1-1.84,1.61,4.42,4.42,0,0,1-2.32.64,4.24,4.24,0,0,1-1.4-.23,3.46,3.46,0,0,1-1.14-.68,3.33,3.33,0,0,1-.77-1.07,3.46,3.46,0,0,1-.28-1.4,3.19,3.19,0,0,1,.3-1.42,3.69,3.69,0,0,1,.78-1,4.92,4.92,0,0,1,1.13-.78c.44-.23.89-.44,1.35-.64a9.93,9.93,0,0,1,2.14-.69,13.55,13.55,0,0,0,2-.5V54.59a2.31,2.31,0,0,0-.3-1.19,2.46,2.46,0,0,0-.77-.83,3.34,3.34,0,0,0-1.08-.49,4.5,4.5,0,0,0-1.2-.16A2.29,2.29,0,0,0,85,52a4.86,4.86,0,0,0-.76.31c-.25.13-.49.27-.73.42l-.62.42L82.63,53c.18-.2.36-.39.54-.56a5.08,5.08,0,0,1,.57-.47,5.5,5.5,0,0,1,1.41-.81,4.48,4.48,0,0,1,1.58-.27,4.3,4.3,0,0,1,3.12,1,4.1,4.1,0,0,1,1.07,3.1v6.61c0,.1,0,.23,0,.41a4,4,0,0,0,.07.57,2,2,0,0,0,.16.51.34.34,0,0,0,.3.22,1,1,0,0,0,.36-.08,1.05,1.05,0,0,0,.34-.22Zm-4.78-6.1-1.3.38a5.78,5.78,0,0,0-1.29.58,3.32,3.32,0,0,0-1,.89,2.21,2.21,0,0,0-.38,1.31A2.32,2.32,0,0,0,83.83,62a2.12,2.12,0,0,0,1,.74,2.87,2.87,0,0,0,1.35.1,3.69,3.69,0,0,0,1.35-.48,3.37,3.37,0,0,0,1-1A2.35,2.35,0,0,0,89,60V56.94Z"/><path d="M100.83,64.34a5.66,5.66,0,0,1-2.51-.53,5.14,5.14,0,0,1-1.8-1.42,6,6,0,0,1-1.08-2.07,8.67,8.67,0,0,1-.36-2.52,8.33,8.33,0,0,1,.41-2.64,6.32,6.32,0,0,1,1.37-2.3,6.15,6.15,0,0,1,1.48-1.14,6.36,6.36,0,0,1,1.77-.68,6.25,6.25,0,0,1,1.88-.11,5.31,5.31,0,0,1,1.81.53,2.45,2.45,0,0,1,.54.45,2.71,2.71,0,0,1,.46.64,1.09,1.09,0,0,1,.1.65c0,.21-.2.37-.51.47a.39.39,0,0,1-.5-.13c-.1-.16-.22-.36-.38-.6a2.09,2.09,0,0,0-.7-.64,2.74,2.74,0,0,0-1.44-.3,4.14,4.14,0,0,0-2,.43,4,4,0,0,0-1.36,1.16,5.24,5.24,0,0,0-.81,1.68,6.75,6.75,0,0,0-.28,2,7.2,7.2,0,0,0,.3,2,6.25,6.25,0,0,0,.87,1.82,4.41,4.41,0,0,0,1.41,1.31,3.89,3.89,0,0,0,2,.5,5,5,0,0,0,1-.11,5.91,5.91,0,0,0,1-.32,5.11,5.11,0,0,0,.94-.54,2.33,2.33,0,0,0,.65-.73l.19.48A4.82,4.82,0,0,1,100.83,64.34Z"/><path d="M116.86,64.18l-.24-.06,0-2.35a6.67,6.67,0,0,1-1.74,1.89,4.14,4.14,0,0,1-2.44.68,3.52,3.52,0,0,1-2.93-1.2,4.77,4.77,0,0,1-1-3.07V52.38c0-.42-.07-.68-.2-.79a1.3,1.3,0,0,0-.74-.16v-.21h2.94l-.06,8.58a3.46,3.46,0,0,0,.44,1.84,2.4,2.4,0,0,0,1.1,1,2.74,2.74,0,0,0,1.45.21,3.42,3.42,0,0,0,1.44-.48A3.33,3.33,0,0,0,116,61.25a3.11,3.11,0,0,0,.45-1.69V52.38c0-.45-.1-.72-.28-.81a2.1,2.1,0,0,0-.86-.14v-.21h3.14l-.06,11.31c0,.36.07.58.21.65a1.48,1.48,0,0,0,.66.11v.21Z"/><path d="M122.88,64.07v-.22a1.81,1.81,0,0,0,1-.17c.16-.12.23-.44.23-1V46.57a2.66,2.66,0,0,0,0-.59.32.32,0,0,0-.2-.23.81.81,0,0,0-.38,0,3.15,3.15,0,0,1-.58,0v-.57l.65-.19c.3-.09.62-.17.95-.25s.65-.15,1-.19a1.61,1.61,0,0,1,.61,0V62.8a.88.88,0,0,0,.35.82,1.68,1.68,0,0,0,1,.23v.22Z"/><path d="M136.92,63.62a3.07,3.07,0,0,1-.68.39,4.22,4.22,0,0,1-.76.25,3.86,3.86,0,0,1-.72.08,2.81,2.81,0,0,1-1.39-.3,2.17,2.17,0,0,1-.82-.8,3.32,3.32,0,0,1-.41-1.16,8.83,8.83,0,0,1-.1-1.39V51.92h-2v-.57l2-.13a5.94,5.94,0,0,0,.66-1.65,11.58,11.58,0,0,1,.52-1.7,1.06,1.06,0,0,0,.25-.11l.27-.14a.38.38,0,0,1,.23,0c.06,0,.09.08.09.19v3.43h2.94v.7H134v8.77a5,5,0,0,0,.07.83,2.78,2.78,0,0,0,.24.82,1.79,1.79,0,0,0,.49.63,1.14,1.14,0,0,0,.79.26,3.86,3.86,0,0,0,.84-.09,2.68,2.68,0,0,0,.78-.34l.22.3A1.6,1.6,0,0,1,136.92,63.62Z"/><path d="M151.13,63.47a7.49,7.49,0,0,1-1.26.64,1.4,1.4,0,0,1-.93.07,1.11,1.11,0,0,1-.6-.62,4.18,4.18,0,0,1-.24-1.44,6.85,6.85,0,0,1-1.83,1.61,4.48,4.48,0,0,1-2.33.64,4.24,4.24,0,0,1-1.4-.23,3.31,3.31,0,0,1-1.13-.68,3.19,3.19,0,0,1-.77-1.07,3.3,3.3,0,0,1-.29-1.4,3.19,3.19,0,0,1,.3-1.42,3.69,3.69,0,0,1,.78-1,5,5,0,0,1,1.14-.78c.43-.23.88-.44,1.35-.64a9.69,9.69,0,0,1,2.13-.69,13.55,13.55,0,0,0,2-.5V54.59a2.31,2.31,0,0,0-.3-1.19,2.36,2.36,0,0,0-.77-.83,3.34,3.34,0,0,0-1.08-.49,4.5,4.5,0,0,0-1.2-.16,2.34,2.34,0,0,0-.7.12,5.29,5.29,0,0,0-.76.31q-.37.19-.72.42c-.24.15-.44.29-.62.42l-.25-.16c.18-.2.36-.39.54-.56a5.08,5.08,0,0,1,.57-.47,5.55,5.55,0,0,1,1.42-.81,4.4,4.4,0,0,1,1.58-.27,4.29,4.29,0,0,1,3.11,1,4.1,4.1,0,0,1,1.07,3.1v6.61c0,.1,0,.23,0,.41s0,.37.07.57a2,2,0,0,0,.16.51c.08.14.17.22.3.22a1,1,0,0,0,.36-.08,1.05,1.05,0,0,0,.34-.22Zm-4.78-6.1c-.42.11-.85.24-1.31.38a5.78,5.78,0,0,0-1.29.58,3.45,3.45,0,0,0-1,.89,2.21,2.21,0,0,0-.38,1.31,2.32,2.32,0,0,0,.42,1.46,2.12,2.12,0,0,0,1,.74,2.89,2.89,0,0,0,1.35.1,3.69,3.69,0,0,0,1.35-.48,3.26,3.26,0,0,0,1-1A2.35,2.35,0,0,0,148,60V56.94Z"/><path d="M163.28,64.2v-2a4.24,4.24,0,0,1-3.76,2.11,5.38,5.38,0,0,1-2.48-.53,4.64,4.64,0,0,1-1.68-1.42,6,6,0,0,1-1-2.07,9.71,9.71,0,0,1-.31-2.49,9.89,9.89,0,0,1,.33-2.54,6.92,6.92,0,0,1,1-2.21,5.45,5.45,0,0,1,1.77-1.57,5.11,5.11,0,0,1,2.5-.59,4.06,4.06,0,0,1,3.54,1.86V46.71c0-.15,0-.31,0-.5a.34.34,0,0,0-.31-.34,1.15,1.15,0,0,0-.32,0,1.08,1.08,0,0,1-.35,0v-.27l.66-.18,1-.24,1.3-.29V62.5c0,.36.09.57.28.62a2.1,2.1,0,0,0,.75.06v.21Zm0-8a5,5,0,0,0-.53-2.39,3.66,3.66,0,0,0-1.32-1.47,3,3,0,0,0-1.72-.46,3,3,0,0,0-1.71.59,4.18,4.18,0,0,0-1.32,1.74,7.29,7.29,0,0,0-.53,3,8.17,8.17,0,0,0,.53,3.16A4.71,4.71,0,0,0,158,62.25a3.19,3.19,0,0,0,3.43.4,3.25,3.25,0,0,0,1.32-1.21,3.68,3.68,0,0,0,.53-2Z"/><path d="M186,64.2v-2a4.22,4.22,0,0,1-3.75,2.11,5.42,5.42,0,0,1-2.49-.53,4.61,4.61,0,0,1-1.67-1.42,6.16,6.16,0,0,1-1-2.07,9.71,9.71,0,0,1-.31-2.49,9.48,9.48,0,0,1,.34-2.54,6.71,6.71,0,0,1,1-2.21A5.32,5.32,0,0,1,180,51.51a5.16,5.16,0,0,1,2.5-.59A4.06,4.06,0,0,1,186,52.78V46.71c0-.15,0-.31,0-.5a.35.35,0,0,0-.32-.34,1.13,1.13,0,0,0-.32,0,1.08,1.08,0,0,1-.35,0v-.27l.66-.18,1-.24,1.29-.29V62.5c0,.36.1.57.29.62a2,2,0,0,0,.74.06v.21Zm0-8a5,5,0,0,0-.52-2.39,3.76,3.76,0,0,0-1.33-1.47,3,3,0,0,0-1.71-.46,3.08,3.08,0,0,0-1.72.59,4.18,4.18,0,0,0-1.32,1.74,7.29,7.29,0,0,0-.53,3,8.17,8.17,0,0,0,.53,3.16,4.71,4.71,0,0,0,1.32,1.88,3.17,3.17,0,0,0,1.72.71,3.12,3.12,0,0,0,1.71-.31,3.34,3.34,0,0,0,1.33-1.21,3.68,3.68,0,0,0,.52-2Z"/><path d="M193.89,57a9.06,9.06,0,0,0,.29,2.07,6.07,6.07,0,0,0,.78,1.82,3.88,3.88,0,0,0,1.38,1.29,4,4,0,0,0,2.06.49,8.48,8.48,0,0,0,1.09-.08,6.18,6.18,0,0,0,1.13-.26,4.06,4.06,0,0,0,1-.48,2.56,2.56,0,0,0,.77-.8l.27.41a5,5,0,0,1-2.12,2.14,6.26,6.26,0,0,1-3,.72,5.51,5.51,0,0,1-2.46-.51,4.78,4.78,0,0,1-1.68-1.4,5.66,5.66,0,0,1-1-2,9.89,9.89,0,0,1-.31-2.47,10,10,0,0,1,.34-2.55,7,7,0,0,1,1-2.24,5.4,5.4,0,0,1,1.77-1.59,5,5,0,0,1,2.52-.61,4.6,4.6,0,0,1,2.23.49,4.32,4.32,0,0,1,1.49,1.29,5.9,5.9,0,0,1,.87,1.86,12.1,12.1,0,0,1,.41,2.19l0,.27Zm6.39-2.46a4.32,4.32,0,0,0-.52-1.22,2.56,2.56,0,0,0-.87-.89,2.46,2.46,0,0,0-1.35-.34,3.28,3.28,0,0,0-1.49.31,3.14,3.14,0,0,0-1.05.83,4.29,4.29,0,0,0-.69,1.22,6.9,6.9,0,0,0-.36,1.44h6.56A9.07,9.07,0,0,0,200.28,54.56Z"/><path d="M226.09,63.89a10.37,10.37,0,0,1-3.25.5A10.05,10.05,0,0,1,219,63.7a8.16,8.16,0,0,1-2.88-1.93,8.31,8.31,0,0,1-1.81-3,11.47,11.47,0,0,1-.62-3.85,10.72,10.72,0,0,1,.65-3.76,8.89,8.89,0,0,1,1.85-3,8.46,8.46,0,0,1,2.89-2,9.67,9.67,0,0,1,3.77-.71,13.34,13.34,0,0,1,2.86.32l.42.12.52.15c.18.06.35.1.52.14a2.28,2.28,0,0,0,.4,0,.61.61,0,0,0,.65-.48h.3v1c0,.36,0,.73,0,1.11s0,.75-.05,1.11a5.61,5.61,0,0,1-.15.94,7.54,7.54,0,0,0-2.11-2.33,5.23,5.23,0,0,0-3-.8,6.91,6.91,0,0,0-3.13.66,6.22,6.22,0,0,0-2.18,1.77,7.54,7.54,0,0,0-1.26,2.59,11.48,11.48,0,0,0-.42,3.13,11.28,11.28,0,0,0,.43,3.19,7.31,7.31,0,0,0,1.31,2.58,6.11,6.11,0,0,0,2.21,1.73,7.39,7.39,0,0,0,3.18.63l1.4,0a12.7,12.7,0,0,0,1.5-.15,7.62,7.62,0,0,0,1.42-.38,4.13,4.13,0,0,0,1.21-.72l.11.46A7.81,7.81,0,0,1,226.09,63.89Z"/><path d="M230.58,64.07v-.22a1.81,1.81,0,0,0,1-.17c.16-.12.23-.44.23-1V53a2.08,2.08,0,0,0-.06-.62.32.32,0,0,0-.21-.2,1,1,0,0,0-.36,0,1.77,1.77,0,0,1-.58-.05V52L233.2,51l.52,0V62.8a2.58,2.58,0,0,0,.08.82c0,.16.29.23.7.23v.22Zm2.81-16.81a1.14,1.14,0,0,1-1.56,0,1.17,1.17,0,0,1-.36-.93,1.16,1.16,0,0,1,.36-.93,1.14,1.14,0,0,1,1.56,0,1.15,1.15,0,0,1,.35.93A1.16,1.16,0,0,1,233.39,47.26Z"/><path d="M239.66,57a9.05,9.05,0,0,0,.28,2.07,6.07,6.07,0,0,0,.78,1.82,3.88,3.88,0,0,0,1.38,1.29,4,4,0,0,0,2.06.49,8.63,8.63,0,0,0,1.1-.08,6.07,6.07,0,0,0,1.12-.26,3.75,3.75,0,0,0,1-.48,2.45,2.45,0,0,0,.77-.8l.27.41a4.93,4.93,0,0,1-2.12,2.14,6.23,6.23,0,0,1-3,.72,5.44,5.44,0,0,1-2.45-.51,4.73,4.73,0,0,1-1.69-1.4,5.81,5.81,0,0,1-1-2,9.45,9.45,0,0,1-.31-2.47,9.61,9.61,0,0,1,.34-2.55,7,7,0,0,1,1-2.24,5.4,5.4,0,0,1,1.77-1.59,5,5,0,0,1,2.53-.61,4.62,4.62,0,0,1,2.23.49,4.29,4.29,0,0,1,1.48,1.29,5.92,5.92,0,0,1,.88,1.86,13,13,0,0,1,.4,2.19l0,.27ZM246,54.56a4.61,4.61,0,0,0-.51-1.22,2.68,2.68,0,0,0-.88-.89,2.46,2.46,0,0,0-1.35-.34,3.2,3.2,0,0,0-1.48.31,3.08,3.08,0,0,0-1.06.83,4.29,4.29,0,0,0-.69,1.22,6.9,6.9,0,0,0-.36,1.44h6.56A7.94,7.94,0,0,0,246,54.56Z"/><path d="M259,64.07v-.22q.7,0,.84-.21a2,2,0,0,0,.13-.92V55.48a5.17,5.17,0,0,0-.13-1.19,2.84,2.84,0,0,0-.45-1,2.27,2.27,0,0,0-.79-.68,2.48,2.48,0,0,0-1.16-.26,3.13,3.13,0,0,0-2,.63,3.64,3.64,0,0,0-1.2,1.67,2.15,2.15,0,0,0-.15.4,2,2,0,0,0-.1.4V62.8c0,.31,0,.56,0,.76s.21.29.57.29v.22h-3.46v-.22c.45,0,.72-.07.8-.23a2.21,2.21,0,0,0,.12-.9V52.86a2.37,2.37,0,0,0,0-.58c0-.1-.09-.15-.17-.16a.81.81,0,0,0-.29,0,1.09,1.09,0,0,1-.46,0v-.27l2.32-.81.51,0v2.38a7,7,0,0,1,1.77-1.82,4.17,4.17,0,0,1,2.45-.69,3.78,3.78,0,0,1,1.71.36,3.29,3.29,0,0,1,1.16,1,4.17,4.17,0,0,1,.66,1.43,6.89,6.89,0,0,1,.22,1.73V62.8a1.57,1.57,0,0,0,.16.71.61.61,0,0,0,.62.34v.22Z"/><path d="M271.87,64.34a5.63,5.63,0,0,1-2.51-.53,5.06,5.06,0,0,1-1.8-1.42,6,6,0,0,1-1.08-2.07,8.67,8.67,0,0,1-.36-2.52,8.33,8.33,0,0,1,.41-2.64,6.32,6.32,0,0,1,1.37-2.3,6.15,6.15,0,0,1,1.48-1.14,6.36,6.36,0,0,1,1.77-.68,6.25,6.25,0,0,1,1.88-.11,5.31,5.31,0,0,1,1.81.53,2.45,2.45,0,0,1,.54.45,2.71,2.71,0,0,1,.46.64,1.09,1.09,0,0,1,.1.65c0,.21-.2.37-.51.47a.39.39,0,0,1-.5-.13c-.1-.16-.22-.36-.38-.6a2.09,2.09,0,0,0-.7-.64,2.74,2.74,0,0,0-1.44-.3,4.14,4.14,0,0,0-2,.43,4,4,0,0,0-1.36,1.16,5,5,0,0,0-.81,1.68,6.75,6.75,0,0,0-.28,2,7.2,7.2,0,0,0,.3,2,6.25,6.25,0,0,0,.87,1.82,4.41,4.41,0,0,0,1.41,1.31,3.89,3.89,0,0,0,2,.5,5,5,0,0,0,1-.11,5.91,5.91,0,0,0,1-.32,5.11,5.11,0,0,0,.94-.54,2.33,2.33,0,0,0,.65-.73l.19.48A4.82,4.82,0,0,1,271.87,64.34Z"/><path d="M278.75,64.07v-.22a1.81,1.81,0,0,0,1-.17c.15-.12.23-.44.23-1V53a1.72,1.72,0,0,0-.07-.62.29.29,0,0,0-.2-.2,1,1,0,0,0-.37,0,1.81,1.81,0,0,1-.58-.05V52l2.65-.92.51,0V62.8a2.92,2.92,0,0,0,.08.82c.06.16.29.23.71.23v.22Zm2.81-16.81a1.15,1.15,0,0,1-1.57,0,1.2,1.2,0,0,1-.35-.93,1.18,1.18,0,0,1,.35-.93,1.15,1.15,0,0,1,1.57,0,1.18,1.18,0,0,1,.35.93A1.2,1.2,0,0,1,281.56,47.26Z"/><path d="M296.44,63.47a7.49,7.49,0,0,1-1.26.64,1.4,1.4,0,0,1-.93.07,1.11,1.11,0,0,1-.6-.62,4.18,4.18,0,0,1-.24-1.44,6.85,6.85,0,0,1-1.83,1.61,4.48,4.48,0,0,1-2.33.64,4.24,4.24,0,0,1-1.4-.23,3.46,3.46,0,0,1-1.14-.68,3.16,3.16,0,0,1-.76-1.07,3.3,3.3,0,0,1-.29-1.4,3.19,3.19,0,0,1,.3-1.42,3.69,3.69,0,0,1,.78-1,5,5,0,0,1,1.14-.78c.43-.23.88-.44,1.35-.64a9.69,9.69,0,0,1,2.13-.69,13.55,13.55,0,0,0,2-.5V54.59a2.31,2.31,0,0,0-.3-1.19,2.36,2.36,0,0,0-.77-.83,3.34,3.34,0,0,0-1.08-.49,4.5,4.5,0,0,0-1.2-.16,2.34,2.34,0,0,0-.7.12,5.29,5.29,0,0,0-.76.31q-.37.19-.72.42t-.63.42l-.24-.16c.18-.2.36-.39.54-.56A5.08,5.08,0,0,1,288,52a5.55,5.55,0,0,1,1.42-.81,4.4,4.4,0,0,1,1.58-.27,4.29,4.29,0,0,1,3.11,1,4.07,4.07,0,0,1,1.07,3.1v6.61c0,.1,0,.23,0,.41s0,.37.07.57a2,2,0,0,0,.16.51c.08.14.17.22.3.22a1,1,0,0,0,.7-.3Zm-4.78-6.1c-.42.11-.85.24-1.31.38a5.78,5.78,0,0,0-1.29.58,3.32,3.32,0,0,0-1,.89,2.21,2.21,0,0,0-.38,1.31,2.32,2.32,0,0,0,.42,1.46,2.12,2.12,0,0,0,1,.74,2.89,2.89,0,0,0,1.35.1,3.69,3.69,0,0,0,1.35-.48,3.26,3.26,0,0,0,1-1,2.35,2.35,0,0,0,.42-1.38V56.94Z"/><path d="M300.3,64.53l.08-3.59.21-.06a2.94,2.94,0,0,0,.72,1.39,3.49,3.49,0,0,0,1.19.84,3.66,3.66,0,0,0,1.4.3,3.45,3.45,0,0,0,1.35-.23,2.39,2.39,0,0,0,1-.73,2.08,2.08,0,0,0-.08-2.53A5.23,5.23,0,0,0,305,59a15.22,15.22,0,0,0-1.51-.8A8.38,8.38,0,0,1,302,57.3a4.81,4.81,0,0,1-1.16-1.18,3,3,0,0,1-.47-1.72,3.44,3.44,0,0,1,.32-1.5,3.14,3.14,0,0,1,.88-1.09,4,4,0,0,1,1.28-.66,5.13,5.13,0,0,1,1.52-.23,4.71,4.71,0,0,1,1.47.22,12.62,12.62,0,0,0,1.44.35l.22-.44h.13v3h-.19a3.26,3.26,0,0,0-1.4-1.67,3.6,3.6,0,0,0-1.82-.5,2.55,2.55,0,0,0-1.57.52,1.72,1.72,0,0,0-.66,1.43,1.63,1.63,0,0,0,.49,1.22,5.53,5.53,0,0,0,1.2.9c.47.28,1,.56,1.56.83a9.7,9.7,0,0,1,1.57.93A5,5,0,0,1,308,59a3.07,3.07,0,0,1,.49,1.74,3.27,3.27,0,0,1-1.22,2.65,4,4,0,0,1-1.46.78,5.77,5.77,0,0,1-1.64.25,7.54,7.54,0,0,1-1.25-.11c-.41-.07-.82-.16-1.24-.25l-.43-.1a2.17,2.17,0,0,0-.43-.08c-.07,0-.14.1-.19.31a1.43,1.43,0,0,1-.14.39Z"/></g><g class="cls-1"><path d="M81.2,88.07V87.8a1.54,1.54,0,0,0,.92-.23c.19-.15.19-.46,0-.91l-1.68-4.1H72.31L70.8,86.34a1.64,1.64,0,0,0-.17,1.08c.08.25.41.38,1,.38v.27H67.83V87.8a1.13,1.13,0,0,0,.56-.19,2.05,2.05,0,0,0,.4-.38,1.84,1.84,0,0,0,.3-.49c.08-.17.16-.35.23-.54l6.91-16.6h1.48L84.9,86.91a1.44,1.44,0,0,0,1.16.89v.27ZM76.42,72.44l-3.57,8.8H80Z"/><path d="M97.83,76.51l-.41.16A3.66,3.66,0,0,1,98,78.06a8.28,8.28,0,0,1,.15,1.5,4.46,4.46,0,0,1-2,3.81,5.11,5.11,0,0,1-4.32.59,1.86,1.86,0,0,0-.49.22,2.64,2.64,0,0,0-.5.38,2.5,2.5,0,0,0-.39.47.92.92,0,0,0-.16.5c0,.31.23.52.68.63a9.92,9.92,0,0,0,1.72.25l2.21.15a9.61,9.61,0,0,1,2.22.39,4.43,4.43,0,0,1,1.71.94,2.33,2.33,0,0,1,.69,1.8,3,3,0,0,1-.9,2.2,6.19,6.19,0,0,1-2.25,1.4,10,10,0,0,1-2.91.6,10.59,10.59,0,0,1-2.92-.21,5.61,5.61,0,0,1-2.24-1,2.18,2.18,0,0,1-.9-1.79,2.23,2.23,0,0,1,.25-1.05A4.31,4.31,0,0,1,88.3,89a4.88,4.88,0,0,1,.85-.7c.31-.21.62-.4.93-.58a2.43,2.43,0,0,1-1.24-1,1.3,1.3,0,0,1,0-1.09,3.14,3.14,0,0,1,.78-1.08c.37-.35.75-.68,1.15-1a4.12,4.12,0,0,1-1.56-1.38,4.43,4.43,0,0,1-.69-1.8,4.65,4.65,0,0,1,.13-1.92,4.58,4.58,0,0,1,.86-1.74,4.5,4.5,0,0,1,1.58-1.25,4.86,4.86,0,0,1,2.24-.49,6.81,6.81,0,0,1,1.49.17,4.11,4.11,0,0,1,1.35.61l1-.07,1.09-.08c.35,0,.76-.06,1.25-.12l.13.35ZM90.58,88.37a3.86,3.86,0,0,0-.66.55,3.16,3.16,0,0,0-.5.67,1.53,1.53,0,0,0-.2.77,1.38,1.38,0,0,0,.48,1.11,3.39,3.39,0,0,0,1.18.61,8.25,8.25,0,0,0,1.4.27q.72.06,1.2.06a10.09,10.09,0,0,0,1.73-.14,7.48,7.48,0,0,0,1.65-.48,3.43,3.43,0,0,0,1.06-.7,1.53,1.53,0,0,0,.45-1.16,1.05,1.05,0,0,0-.5-.92,3.9,3.9,0,0,0-1.19-.48,9.35,9.35,0,0,0-1.39-.22c-.47,0-.83,0-1.08,0-.5,0-1-.05-1.48-.1a14.23,14.23,0,0,1-1.46-.2A5.19,5.19,0,0,0,90.58,88.37ZM95.8,77.9a3.78,3.78,0,0,0-1.06-1.4,2.7,2.7,0,0,0-1.39-.58,2.41,2.41,0,0,0-1.39.23,2.62,2.62,0,0,0-1.07,1,3.21,3.21,0,0,0-.43,1.74,5.32,5.32,0,0,0,.43,2.29A3.68,3.68,0,0,0,92,82.59a2.69,2.69,0,0,0,1.39.56,2.36,2.36,0,0,0,1.39-.24,2.62,2.62,0,0,0,1.06-1,3.21,3.21,0,0,0,.44-1.74A5.23,5.23,0,0,0,95.8,77.9Z"/><path d="M106.66,88.07h-4.32v-.22c.47,0,.76-.06.89-.2a1.49,1.49,0,0,0,.19-.93V76.86a2.06,2.06,0,0,0-.06-.6.25.25,0,0,0-.17-.21,1.57,1.57,0,0,0-.32,0,1.36,1.36,0,0,1-.5-.07v-.13l2.4-.81.51,0v2.73a9.83,9.83,0,0,1,.58-1,5.64,5.64,0,0,1,.76-.91,3.63,3.63,0,0,1,.94-.66,2.56,2.56,0,0,1,1.18-.26,1.66,1.66,0,0,1,.79.22.83.83,0,0,1,.48.67c0,.09,0,.21,0,.35a1.89,1.89,0,0,1-.09.45,2.1,2.1,0,0,1-.22.42.71.71,0,0,1-.35.26.35.35,0,0,1-.42-.09,2.78,2.78,0,0,1-.28-.42,3.46,3.46,0,0,0-.31-.47.57.57,0,0,0-.47-.23,1.07,1.07,0,0,0-.58.19,4.24,4.24,0,0,0-.61.46,5.65,5.65,0,0,0-.54.56,5.08,5.08,0,0,0-.38.52,2.16,2.16,0,0,0-.38,1.21V86.8a2,2,0,0,0,.07.62.52.52,0,0,0,.22.31.82.82,0,0,0,.39.11h.62Z"/><path d="M123.44,85.38a5.9,5.9,0,0,1-2.28,2.24,6.24,6.24,0,0,1-3,.76,6.09,6.09,0,0,1-3-.73A6,6,0,0,1,113,85.41a8.37,8.37,0,0,1,0-7.55,6,6,0,0,1,2.28-2.25,6,6,0,0,1,8.2,2.28,7.23,7.23,0,0,1,.9,3.75A7.14,7.14,0,0,1,123.44,85.38Zm-1.85-6.8a5.13,5.13,0,0,0-1.54-1.92,3.59,3.59,0,0,0-2-.71,3.06,3.06,0,0,0-2,.55,4.23,4.23,0,0,0-1.45,1.89,7.73,7.73,0,0,0-.54,3.25,6.92,6.92,0,0,0,.66,3.09,5.11,5.11,0,0,0,1.55,1.91,3.64,3.64,0,0,0,2,.69,3.16,3.16,0,0,0,2-.59,4.55,4.55,0,0,0,1.47-1.88,7.19,7.19,0,0,0,.52-3.22A7.32,7.32,0,0,0,121.59,78.58Z"/><path d="M135.44,88.07v-.22q.7,0,.84-.21a2,2,0,0,0,.13-.92V79.48a5.17,5.17,0,0,0-.13-1.19,2.84,2.84,0,0,0-.45-1,2.27,2.27,0,0,0-.79-.68,2.52,2.52,0,0,0-1.17-.26,3.1,3.1,0,0,0-2,.63,3.73,3.73,0,0,0-1.21,1.67,3.87,3.87,0,0,0-.14.4,1.46,1.46,0,0,0-.1.4V86.8c0,.31,0,.56,0,.76s.21.29.57.29v.22h-3.46v-.22c.45,0,.72-.07.8-.23a2.21,2.21,0,0,0,.12-.9V76.86a1.86,1.86,0,0,0-.06-.58.2.2,0,0,0-.16-.16.81.81,0,0,0-.29,0,1.09,1.09,0,0,1-.46,0v-.27l2.32-.81.51,0v2.38a7,7,0,0,1,1.77-1.82,4.16,4.16,0,0,1,2.44-.69,3.8,3.8,0,0,1,1.72.36,3.29,3.29,0,0,1,1.16,1,4.17,4.17,0,0,1,.66,1.43,6.89,6.89,0,0,1,.22,1.73V86.8a1.57,1.57,0,0,0,.16.71.61.61,0,0,0,.62.34v.22Z"/><path d="M153.89,85.38a5.9,5.9,0,0,1-2.28,2.24,6.2,6.2,0,0,1-3,.76,6.07,6.07,0,0,1-3-.73,5.9,5.9,0,0,1-2.28-2.24,8.29,8.29,0,0,1,0-7.55,5.86,5.86,0,0,1,2.28-2.25,6.06,6.06,0,0,1,2.94-.74,6.12,6.12,0,0,1,3,.75,6.05,6.05,0,0,1,2.28,2.27,7.14,7.14,0,0,1,.91,3.75A7.05,7.05,0,0,1,153.89,85.38Zm-1.84-6.8a5.13,5.13,0,0,0-1.54-1.92,3.62,3.62,0,0,0-2-.71,3,3,0,0,0-1.94.55,4.31,4.31,0,0,0-1.46,1.89,7.73,7.73,0,0,0-.54,3.25,7.06,7.06,0,0,0,.66,3.09,5.12,5.12,0,0,0,1.56,1.91,3.64,3.64,0,0,0,2,.69,3.11,3.11,0,0,0,1.94-.59,4.4,4.4,0,0,0,1.47-1.88,7.32,7.32,0,0,0,.53-3.22A7.47,7.47,0,0,0,152.05,78.58Zm-5.19-4.88a7.74,7.74,0,0,0,.86-.94c.27-.34.54-.68.8-1s.53-.68.8-1a6.31,6.31,0,0,1,.89-.9,1.35,1.35,0,0,1,.61-.33,1.5,1.5,0,0,1,.63,0,1,1,0,0,1,.5.23.56.56,0,0,1,.2.44.4.4,0,0,1-.1.28,1.64,1.64,0,0,1-.25.21,17.84,17.84,0,0,0-1.93,1.51c-.6.54-1.22,1.07-1.85,1.59Z"/><path d="M172.7,88.07v-.22c.47,0,.76-.06.88-.2a1.69,1.69,0,0,0,.17-.93V79.48a5.17,5.17,0,0,0-.13-1.19,3.2,3.2,0,0,0-.42-1,2.12,2.12,0,0,0-.77-.68,2.45,2.45,0,0,0-1.16-.26,3.15,3.15,0,0,0-1.89.59,3.45,3.45,0,0,0-1.19,1.62,4.31,4.31,0,0,0-.14.45,2.44,2.44,0,0,0-.08.44V86.8a4.18,4.18,0,0,0,0,.59.58.58,0,0,0,.17.33.55.55,0,0,0,.33.12h.57v.22H165v-.22c.47,0,.76-.06.87-.2a1.58,1.58,0,0,0,.18-.93V79.48a6.23,6.23,0,0,0-.11-1.15,3,3,0,0,0-.38-1,2,2,0,0,0-.73-.72,2.17,2.17,0,0,0-1.13-.27,3.3,3.3,0,0,0-2,.59,3.57,3.57,0,0,0-1.22,1.62c0,.09-.1.24-.17.45a1.79,1.79,0,0,0-.11.44c0,1.25,0,2.47,0,3.68s0,2.43,0,3.67a2.94,2.94,0,0,0,.05.59.47.47,0,0,0,.14.31.59.59,0,0,0,.31.13l.56,0v.22H157.2v-.22c.47,0,.77-.06.89-.19s.19-.44.19-.94V76.86a2.37,2.37,0,0,0-.05-.58.24.24,0,0,0-.17-.17.58.58,0,0,0-.29,0,1,1,0,0,1-.46,0v-.24l2.32-.81.51,0v2.38A7.18,7.18,0,0,1,162,75.61a4.25,4.25,0,0,1,2.47-.69,3.14,3.14,0,0,1,1.09.2,3.84,3.84,0,0,1,.95.54,3.39,3.39,0,0,1,.71.83,3.19,3.19,0,0,1,.41,1.05,4.17,4.17,0,0,1,1.16-1.46,5.47,5.47,0,0,1,1.64-.93,4.81,4.81,0,0,1,1.84-.26,3.48,3.48,0,0,1,1.72.56,3.58,3.58,0,0,1,1.25,1.47,5.66,5.66,0,0,1,.49,2.51V86.8c0,.25,0,.45,0,.59a.47.47,0,0,0,.14.31.52.52,0,0,0,.31.13l.55,0v.22Z"/><path d="M180.66,88.07v-.22a1.81,1.81,0,0,0,1-.17c.16-.12.23-.44.23-1V77a1.72,1.72,0,0,0-.07-.62.29.29,0,0,0-.2-.2,1,1,0,0,0-.36,0,1.77,1.77,0,0,1-.58,0V76l2.64-.92.52,0V86.8a2.58,2.58,0,0,0,.08.82c.05.16.28.23.7.23v.22Zm2.81-16.81a1.14,1.14,0,0,1-1.56,0,1.17,1.17,0,0,1-.36-.93,1.16,1.16,0,0,1,.36-.93,1.14,1.14,0,0,1,1.56,0,1.15,1.15,0,0,1,.35.93A1.16,1.16,0,0,1,183.47,71.26Z"/><path d="M193.73,88.34a5.69,5.69,0,0,1-2.51-.53,5,5,0,0,1-1.79-1.42,6,6,0,0,1-1.08-2.07,8.63,8.63,0,0,1,.05-5.16,6.29,6.29,0,0,1,1.36-2.3,6.2,6.2,0,0,1,1.49-1.14,6.14,6.14,0,0,1,3.64-.79,5.24,5.24,0,0,1,1.81.53,3,3,0,0,1,1,1.09,1.1,1.1,0,0,1,.11.65c0,.21-.21.37-.51.47s-.41,0-.5-.13l-.38-.6a2.2,2.2,0,0,0-.7-.64,2.78,2.78,0,0,0-1.45-.3,4.17,4.17,0,0,0-2,.43A4,4,0,0,0,191,77.59a5.24,5.24,0,0,0-.81,1.68,7.1,7.1,0,0,0-.27,2,7.2,7.2,0,0,0,.3,2A6.23,6.23,0,0,0,191,85.1a4.45,4.45,0,0,0,1.42,1.31,3.88,3.88,0,0,0,2,.5,5,5,0,0,0,1-.11,5.66,5.66,0,0,0,1-.32,5.19,5.19,0,0,0,.95-.54,2.29,2.29,0,0,0,.64-.73l.19.48A4.81,4.81,0,0,1,193.73,88.34Z"/><path d="M211.93,87.47a7.49,7.49,0,0,1-1.26.64,1.4,1.4,0,0,1-.93.07,1.06,1.06,0,0,1-.59-.62,3.93,3.93,0,0,1-.25-1.44,6.85,6.85,0,0,1-1.83,1.61,4.45,4.45,0,0,1-2.32.64,4.3,4.3,0,0,1-1.41-.23,3.31,3.31,0,0,1-1.13-.68,3.19,3.19,0,0,1-.77-1.07,3.3,3.3,0,0,1-.28-1.4,3.19,3.19,0,0,1,.29-1.42,3.54,3.54,0,0,1,.79-1,4.92,4.92,0,0,1,1.13-.78c.43-.23.88-.44,1.35-.64a9.87,9.87,0,0,1,2.13-.69,13.24,13.24,0,0,0,2-.5V78.59a2.41,2.41,0,0,0-.29-1.19,2.56,2.56,0,0,0-.77-.83,3.54,3.54,0,0,0-1.08-.49,4.61,4.61,0,0,0-1.2-.16,2.4,2.4,0,0,0-.71.12,4.76,4.76,0,0,0-.75.31c-.25.13-.5.27-.73.42s-.44.29-.62.42l-.25-.16c.18-.2.37-.39.54-.56a5.08,5.08,0,0,1,.57-.47,5.55,5.55,0,0,1,1.42-.81,4.44,4.44,0,0,1,1.58-.27,4.3,4.3,0,0,1,3.12,1,4.1,4.1,0,0,1,1.06,3.1v6.61c0,.1,0,.23,0,.41a4,4,0,0,0,.07.57,1.46,1.46,0,0,0,.16.51.34.34,0,0,0,.29.22,1.12,1.12,0,0,0,.37-.08,1.17,1.17,0,0,0,.34-.22Zm-4.78-6.1-1.31.38a5.51,5.51,0,0,0-1.28.58,3.2,3.2,0,0,0-1,.89,2.14,2.14,0,0,0-.38,1.31,2.32,2.32,0,0,0,.42,1.46,2.07,2.07,0,0,0,1,.74,2.87,2.87,0,0,0,1.35.1,3.83,3.83,0,0,0,1.35-.48,3.37,3.37,0,0,0,1-.95,2.41,2.41,0,0,0,.41-1.38V80.94Z"/><path d="M215.79,88.53l.08-3.59.22-.06a2.84,2.84,0,0,0,.71,1.39,3.59,3.59,0,0,0,1.19.84,3.7,3.7,0,0,0,1.4.3,3.42,3.42,0,0,0,1.35-.23,2.39,2.39,0,0,0,1-.73,1.9,1.9,0,0,0,.39-1.22,1.87,1.87,0,0,0-.47-1.31A5,5,0,0,0,220.5,83a14.18,14.18,0,0,0-1.51-.8,8.29,8.29,0,0,1-1.51-.88,4.64,4.64,0,0,1-1.16-1.18,2.93,2.93,0,0,1-.48-1.72,3.31,3.31,0,0,1,.33-1.5,3,3,0,0,1,.88-1.09,3.79,3.79,0,0,1,1.28-.66,5.07,5.07,0,0,1,1.51-.23,4.71,4.71,0,0,1,1.47.22,12.3,12.3,0,0,0,1.45.35l.21-.44h.14v3h-.19a3.28,3.28,0,0,0-1.41-1.67,3.6,3.6,0,0,0-1.82-.5,2.55,2.55,0,0,0-1.56.52,1.7,1.7,0,0,0-.67,1.43,1.67,1.67,0,0,0,.49,1.22,5.53,5.53,0,0,0,1.2.9c.48.28,1,.56,1.57.83a9.6,9.6,0,0,1,1.56.93,5,5,0,0,1,1.2,1.24,3,3,0,0,1,.49,1.74,3.26,3.26,0,0,1-1.21,2.65,4.13,4.13,0,0,1-1.46.78,5.79,5.79,0,0,1-1.65.25,7.42,7.42,0,0,1-1.24-.11c-.42-.07-.83-.16-1.24-.25l-.44-.1a2,2,0,0,0-.43-.08c-.07,0-.13.1-.19.31a2.09,2.09,0,0,1-.13.39Z"/></g></g><g id="UNIVERSIDAD_DE_CHILE" data-name="UNIVERSIDAD DE CHILE" class="cls-1"><g class="cls-1"><path d="M80.17,102.19a.57.57,0,0,0-.46.17.86.86,0,0,0-.22.41,2.12,2.12,0,0,0-.06.52v7.5a4.94,4.94,0,0,1-1.33,3.7,5.18,5.18,0,0,1-3.73,1.28,5.12,5.12,0,0,1-3.74-1.3,5,5,0,0,1-1.32-3.72v-7.58a2.24,2.24,0,0,0-.1-.71c-.07-.18-.28-.27-.62-.27h-.3V102H72v.2a3.71,3.71,0,0,0-.51,0,.46.46,0,0,0-.3.12.48.48,0,0,0-.15.3,2.58,2.58,0,0,0,0,.54v7.62a4.56,4.56,0,0,0,.85,2.91,3.33,3.33,0,0,0,2.77,1.07,3.66,3.66,0,0,0,2.73-1,3.8,3.8,0,0,0,1-2.74v-7.92a1.21,1.21,0,0,0-.09-.5.62.62,0,0,0-.31-.31,1.39,1.39,0,0,0-.64-.11V102h3.18v.2Z"/><path d="M94.89,102.28a.56.56,0,0,0-.31.27,1,1,0,0,0-.1.46c0,.18,0,.4,0,.66v12h-1l-8-11.48v9.74c0,.25,0,.47,0,.65a1,1,0,0,0,.1.45.54.54,0,0,0,.31.26,1.94,1.94,0,0,0,.62.08v.2H83.25v-.2a2.08,2.08,0,0,0,.64-.08.68.68,0,0,0,.32-.25,1.09,1.09,0,0,0,.11-.44c0-.18,0-.41,0-.67V103l-.2-.43a1,1,0,0,0-.18-.26.53.53,0,0,0-.25-.12,2.49,2.49,0,0,0-.45,0V102h2.64q1.83,2.78,3.74,5.46t3.74,5.46v-9.24c0-.27,0-.5,0-.68a1.16,1.16,0,0,0-.1-.46.53.53,0,0,0-.32-.26,1.91,1.91,0,0,0-.65-.08V102h3.24v.2A1.74,1.74,0,0,0,94.89,102.28Z"/><path d="M98.39,115.53v-.2l.55,0a.71.71,0,0,0,.33-.11.48.48,0,0,0,.16-.29,3.82,3.82,0,0,0,0-.56V103.17a3.71,3.71,0,0,0,0-.56.45.45,0,0,0-.16-.29.62.62,0,0,0-.33-.11,4.36,4.36,0,0,0-.55,0V102h3.88v.2a4.28,4.28,0,0,0-.55,0,.62.62,0,0,0-.33.11.41.41,0,0,0-.16.29,2.73,2.73,0,0,0,0,.56v11.18a2.79,2.79,0,0,0,0,.56.44.44,0,0,0,.16.29.71.71,0,0,0,.33.11l.55,0v.2Z"/><path d="M116.94,102.43a2.15,2.15,0,0,0-.33.58l-4.9,12.66h-.82l-5.16-12.62a1.89,1.89,0,0,0-.39-.61.91.91,0,0,0-.65-.25V102h3.54v.2h-.38a.56.56,0,0,0-.3.08.28.28,0,0,0-.15.21.65.65,0,0,0,.07.38l4.08,10.28,3.76-9.84a1.16,1.16,0,0,0,.1-.82c-.08-.18-.34-.28-.76-.3V102h2.88v.2A.69.69,0,0,0,116.94,102.43Z"/><path d="M127.51,115.53h-9.12v-.2a1.2,1.2,0,0,0,.78-.17,1.4,1.4,0,0,0,.16-.81V103.17a1.35,1.35,0,0,0-.16-.81c-.11-.12-.37-.17-.78-.17V102h8.92l0,2.06h-.28c-.07-.51-.23-.82-.47-.93a2.57,2.57,0,0,0-1.07-.17h-4c-.23,0-.36,0-.39.07s0,.17,0,.39V108h4.06a4.61,4.61,0,0,0,.56,0,1,1,0,0,0,.39-.13.71.71,0,0,0,.23-.3,2.75,2.75,0,0,0,.12-.54h.26v3h-.26a2.53,2.53,0,0,0-.12-.56.68.68,0,0,0-.23-.31.76.76,0,0,0-.38-.14,4.67,4.67,0,0,0-.57,0H121v5.22a.31.31,0,0,0,.11.27.56.56,0,0,0,.26.11h3.91a6.6,6.6,0,0,0,.83,0,2.13,2.13,0,0,0,.63-.21,2,2,0,0,0,.5-.43,3.93,3.93,0,0,0,.42-.73H128Z"/><path d="M138.61,115.53c-.32-.71-.64-1.35-1-1.91a14.06,14.06,0,0,0-1-1.59,15,15,0,0,0-1.22-1.42c-.44-.46-.94-.93-1.5-1.42l-1.44,0v5.14a2.7,2.7,0,0,0,0,.54.44.44,0,0,0,.44.42l.52,0v.2h-3.64v-.2a3.28,3.28,0,0,0,.49,0,.45.45,0,0,0,.42-.42,3.7,3.7,0,0,0,0-.53V103.17a3.54,3.54,0,0,0,0-.52.45.45,0,0,0-.42-.43,3.28,3.28,0,0,0-.49,0V102h4.78a7.24,7.24,0,0,1,1.69.19,4.18,4.18,0,0,1,1.43.61,3.09,3.09,0,0,1,1,1.1,3.54,3.54,0,0,1,.37,1.68,3.1,3.1,0,0,1-.28,1.33,2.87,2.87,0,0,1-.76,1,4.1,4.1,0,0,1-1.1.63,6.38,6.38,0,0,1-1.3.34c.38.32.7.59.94.82a7.56,7.56,0,0,1,.63.65c.18.2.35.42.53.64l.62.77a9.25,9.25,0,0,1,.76,1.13l.67,1.18q.3.54.57.93c.17.25.34.38.5.38v.2Zm-6.16-7.28h1a8.22,8.22,0,0,0,1.41-.13,4,4,0,0,0,1.25-.46,2.64,2.64,0,0,0,.9-.89,2.74,2.74,0,0,0,.34-1.4,2.45,2.45,0,0,0-.28-1.22,2.07,2.07,0,0,0-.75-.75,3.09,3.09,0,0,0-1.07-.37,7.09,7.09,0,0,0-1.22-.1h-.4a3,3,0,0,0-.42,0,1.08,1.08,0,0,0-.41.1.7.7,0,0,0-.31.22Z"/><path d="M143.67,115.26a.3.3,0,0,0-.1.25h-.24l-.1-2.92,0-.06h.18a3.62,3.62,0,0,0,1,1.38,4,4,0,0,0,1.29.75,3.81,3.81,0,0,0,1.38.19,3.15,3.15,0,0,0,1.27-.34,2.53,2.53,0,0,0,.92-.83,2.26,2.26,0,0,0,.35-1.25,2.21,2.21,0,0,0-.47-1.44,5.41,5.41,0,0,0-1.17-1,14,14,0,0,0-1.53-.9,10.47,10.47,0,0,1-1.53-1,5.08,5.08,0,0,1-1.17-1.24,3.12,3.12,0,0,1-.47-1.77,2.86,2.86,0,0,1,.33-1.39,3.4,3.4,0,0,1,.87-1.05,3.68,3.68,0,0,1,1.23-.67,4.25,4.25,0,0,1,1.41-.23,4.65,4.65,0,0,1,.83.07,5.93,5.93,0,0,1,.81.19l.22.07.39.11.39.11.2,0a.41.41,0,0,0,.38-.38h.22c.05.49.1,1,.15,1.52a12.94,12.94,0,0,1,0,1.52h-.22a3.21,3.21,0,0,0-.78-1.26,3.54,3.54,0,0,0-1.15-.76,3.29,3.29,0,0,0-1.31-.26,3,3,0,0,0-1.21.24,2.12,2.12,0,0,0-.9.72,1.9,1.9,0,0,0-.35,1.18,1.57,1.57,0,0,0,.29,1,4,4,0,0,0,.69.75,9.86,9.86,0,0,0,1.1.78c.38.24.78.46,1.18.68L148,108a12.36,12.36,0,0,1,1.27.74,5.93,5.93,0,0,1,1.09.9,3.94,3.94,0,0,1,.76,1.13,3.64,3.64,0,0,1,.28,1.45,3.1,3.1,0,0,1-.38,1.53,4,4,0,0,1-1,1.13,4.79,4.79,0,0,1-1.37.7,5.1,5.1,0,0,1-1.54.24,6.38,6.38,0,0,1-1.6-.2l-1.56-.42A.38.38,0,0,0,143.67,115.26Z"/><path d="M153.63,115.53v-.2l.55,0a.71.71,0,0,0,.33-.11.48.48,0,0,0,.16-.29,3.82,3.82,0,0,0,0-.56V103.17a3.71,3.71,0,0,0,0-.56.45.45,0,0,0-.16-.29.62.62,0,0,0-.33-.11,4.36,4.36,0,0,0-.55,0V102h3.88v.2a4.28,4.28,0,0,0-.55,0,.62.62,0,0,0-.33.11.41.41,0,0,0-.16.29,2.73,2.73,0,0,0,0,.56v11.18a2.79,2.79,0,0,0,0,.56.44.44,0,0,0,.16.29.71.71,0,0,0,.33.11l.55,0v.2Z"/><path d="M160.41,115.33l.5,0a.59.59,0,0,0,.3-.12.7.7,0,0,0,.14-.3,3.74,3.74,0,0,0,0-.54V103.17a3.51,3.51,0,0,0,0-.54.6.6,0,0,0-.14-.3.46.46,0,0,0-.3-.12,3.7,3.7,0,0,0-.5,0V102h4.64a10.38,10.38,0,0,1,3,.41,6.39,6.39,0,0,1,2.35,1.25,5.6,5.6,0,0,1,1.52,2.12,7.72,7.72,0,0,1,.54,3,8.15,8.15,0,0,1-.46,2.73,5.48,5.48,0,0,1-1.6,2.25,6.68,6.68,0,0,1-2.6,1.38,11.62,11.62,0,0,1-2.94.38h-4.48Zm2.68-1.24a.31.31,0,0,0,.14.28,1.2,1.2,0,0,0,.34.15,2.57,2.57,0,0,0,.4.06h.3a10,10,0,0,0,2.66-.33,5.33,5.33,0,0,0,2-1,4.77,4.77,0,0,0,1.3-1.82,7.09,7.09,0,0,0,.46-2.67,6.87,6.87,0,0,0-.44-2.57,4.81,4.81,0,0,0-1.25-1.81,5.17,5.17,0,0,0-2-1.07,8.64,8.64,0,0,0-2.57-.35,4.71,4.71,0,0,0-.74.06,1.4,1.4,0,0,0-.68.3Z"/><path d="M182.73,115.53v-.2a1.15,1.15,0,0,0,.68-.17c.14-.12.14-.34,0-.67l-1.24-3h-6l-1.12,2.8a1.2,1.2,0,0,0-.13.8c.06.18.3.28.73.28v.2h-2.8v-.2a.91.91,0,0,0,.41-.14,2,2,0,0,0,.3-.28,2.16,2.16,0,0,0,.22-.36c.06-.14.11-.27.17-.4l5.12-12.3h1.1l5.32,12.82a1.06,1.06,0,0,0,.86.66v.2ZM179.19,104l-2.64,6.52h5.28Z"/><path d="M188,115.33l.5,0a.59.59,0,0,0,.3-.12.7.7,0,0,0,.14-.3,3.74,3.74,0,0,0,0-.54V103.17a3.51,3.51,0,0,0,0-.54.6.6,0,0,0-.14-.3.46.46,0,0,0-.3-.12,3.7,3.7,0,0,0-.5,0V102h4.64a10.38,10.38,0,0,1,3,.41,6.39,6.39,0,0,1,2.35,1.25,5.6,5.6,0,0,1,1.52,2.12,7.72,7.72,0,0,1,.54,3,8.15,8.15,0,0,1-.46,2.73,5.48,5.48,0,0,1-1.6,2.25,6.68,6.68,0,0,1-2.6,1.38,11.62,11.62,0,0,1-2.94.38H188Zm2.68-1.24a.31.31,0,0,0,.14.28,1.2,1.2,0,0,0,.34.15,2.57,2.57,0,0,0,.4.06h.3a10,10,0,0,0,2.66-.33,5.33,5.33,0,0,0,2-1,4.77,4.77,0,0,0,1.3-1.82,7.09,7.09,0,0,0,.46-2.67,6.87,6.87,0,0,0-.44-2.57,4.81,4.81,0,0,0-1.25-1.81,5.17,5.17,0,0,0-2-1.07,8.64,8.64,0,0,0-2.57-.35,4.71,4.71,0,0,0-.74.06,1.4,1.4,0,0,0-.68.3Z"/><path d="M208.33,115.33l.5,0a.59.59,0,0,0,.3-.12.7.7,0,0,0,.14-.3,3.74,3.74,0,0,0,0-.54V103.17a3.51,3.51,0,0,0,0-.54.6.6,0,0,0-.14-.3.46.46,0,0,0-.3-.12,3.7,3.7,0,0,0-.5,0V102H213a10.38,10.38,0,0,1,3,.41,6.39,6.39,0,0,1,2.35,1.25,5.6,5.6,0,0,1,1.52,2.12,7.72,7.72,0,0,1,.54,3,8.15,8.15,0,0,1-.46,2.73,5.48,5.48,0,0,1-1.6,2.25,6.68,6.68,0,0,1-2.6,1.38,11.62,11.62,0,0,1-2.94.38h-4.48Zm2.68-1.24a.31.31,0,0,0,.14.28,1.2,1.2,0,0,0,.34.15,2.57,2.57,0,0,0,.4.06h.3a10,10,0,0,0,2.66-.33,5.33,5.33,0,0,0,2-1,4.77,4.77,0,0,0,1.3-1.82,7.09,7.09,0,0,0,.46-2.67,6.87,6.87,0,0,0-.44-2.57,4.81,4.81,0,0,0-1.25-1.81,5.17,5.17,0,0,0-2-1.07,8.64,8.64,0,0,0-2.57-.35,4.71,4.71,0,0,0-.74.06,1.4,1.4,0,0,0-.68.3Z"/><path d="M231.61,115.53h-9.12v-.2a1.2,1.2,0,0,0,.78-.17,1.4,1.4,0,0,0,.16-.81V103.17a1.35,1.35,0,0,0-.16-.81c-.11-.12-.37-.17-.78-.17V102h8.92l0,2.06h-.28c-.07-.51-.23-.82-.47-.93a2.57,2.57,0,0,0-1.07-.17h-4c-.23,0-.36,0-.39.07s-.05.17-.05.39V108h4.06a4.61,4.61,0,0,0,.56,0,.89.89,0,0,0,.38-.13.66.66,0,0,0,.24-.3,2.75,2.75,0,0,0,.12-.54h.26v3h-.26a2.53,2.53,0,0,0-.12-.56.64.64,0,0,0-.24-.31.69.69,0,0,0-.37-.14,4.67,4.67,0,0,0-.57,0h-4.06v5.22a.31.31,0,0,0,.11.27.56.56,0,0,0,.26.11h3.91a6.6,6.6,0,0,0,.83,0,2.13,2.13,0,0,0,.63-.21,2,2,0,0,0,.5-.43,3.93,3.93,0,0,0,.42-.73h.32Z"/><path d="M249.13,115.4a8,8,0,0,1-2.41.37,7.45,7.45,0,0,1-2.84-.51,6,6,0,0,1-2.13-1.43,6.21,6.21,0,0,1-1.35-2.21,8.61,8.61,0,0,1-.45-2.85,8.17,8.17,0,0,1,.47-2.79,6.65,6.65,0,0,1,1.38-2.24,6,6,0,0,1,2.14-1.48,6.93,6.93,0,0,1,2.78-.53,9.66,9.66,0,0,1,2.13.24l.3.09.4.11.37.1a2.27,2.27,0,0,0,.3,0,.46.46,0,0,0,.49-.36h.21v1.56c0,.28,0,.55,0,.82a4.29,4.29,0,0,1-.11.7,5.65,5.65,0,0,0-1.56-1.73,3.88,3.88,0,0,0-2.25-.59,5.12,5.12,0,0,0-2.32.49,4.46,4.46,0,0,0-1.6,1.31,5.38,5.38,0,0,0-.94,1.92,8.34,8.34,0,0,0-.31,2.32,8.21,8.21,0,0,0,.32,2.36,5.31,5.31,0,0,0,1,1.91,4.6,4.6,0,0,0,1.63,1.28,5.54,5.54,0,0,0,2.35.47l1.05,0a10,10,0,0,0,1.1-.11,6.11,6.11,0,0,0,1.06-.28,3.39,3.39,0,0,0,.9-.53l.08.34A5.92,5.92,0,0,1,249.13,115.4Z"/><path d="M261.21,115.53v-.2a3.49,3.49,0,0,0,.51,0,.59.59,0,0,0,.31-.13.71.71,0,0,0,.14-.29,3.48,3.48,0,0,0,0-.53v-5.24h-6.54v5.24a2.65,2.65,0,0,0,0,.53.51.51,0,0,0,.12.29.6.6,0,0,0,.3.13,3.3,3.3,0,0,0,.51,0v.2H253v-.2a3.54,3.54,0,0,0,.52,0,.45.45,0,0,0,.44-.42,2.53,2.53,0,0,0,0-.53V103.17a2.42,2.42,0,0,0,0-.53.45.45,0,0,0-.44-.42,3.54,3.54,0,0,0-.52,0V102h3.67v.2a3.3,3.3,0,0,0-.51,0,.52.52,0,0,0-.3.13.46.46,0,0,0-.12.3,2.54,2.54,0,0,0,0,.52v4.92h6.54v-4.92a3.26,3.26,0,0,0,0-.53.6.6,0,0,0-.14-.29.52.52,0,0,0-.31-.13,3.49,3.49,0,0,0-.51,0V102h3.67v.2a3.25,3.25,0,0,0-.5,0,.59.59,0,0,0-.31.13.47.47,0,0,0-.13.3,3.33,3.33,0,0,0,0,.52v11.18a3.48,3.48,0,0,0,0,.53.52.52,0,0,0,.13.29.68.68,0,0,0,.31.13,3.25,3.25,0,0,0,.5,0v.2Z"/><path d="M267.78,115.53v-.2l.55,0a.71.71,0,0,0,.33-.11.44.44,0,0,0,.16-.29,2.79,2.79,0,0,0,0-.56V103.17a2.73,2.73,0,0,0,0-.56.41.41,0,0,0-.16-.29.62.62,0,0,0-.33-.11,4.28,4.28,0,0,0-.55,0V102h3.88v.2a4.36,4.36,0,0,0-.55,0,.62.62,0,0,0-.33.11.41.41,0,0,0-.15.29,2.61,2.61,0,0,0-.05.56v11.18a2.68,2.68,0,0,0,.05.56.43.43,0,0,0,.15.29.71.71,0,0,0,.33.11l.55,0v.2Z"/><path d="M283.58,115.53h-9v-.2a3.3,3.3,0,0,0,.51,0,.45.45,0,0,0,.42-.42,3.7,3.7,0,0,0,0-.53V103.17a3.54,3.54,0,0,0,0-.52.45.45,0,0,0-.42-.43,3.3,3.3,0,0,0-.51,0V102h3.68v.2a3.74,3.74,0,0,0-.52,0,.59.59,0,0,0-.31.13.53.53,0,0,0-.15.29,3.26,3.26,0,0,0,0,.53v11a.34.34,0,0,0,.11.27.6.6,0,0,0,.26.11h3.53c.36,0,.68,0,1,0a2.29,2.29,0,0,0,.74-.19,1.57,1.57,0,0,0,.57-.46,4.13,4.13,0,0,0,.49-.83l.26.06Z"/><path d="M294.64,115.53h-9.12v-.2a1.16,1.16,0,0,0,.78-.17,1.32,1.32,0,0,0,.16-.81V103.17a1.28,1.28,0,0,0-.16-.81c-.1-.12-.36-.17-.78-.17V102h8.92l0,2.06h-.28c-.06-.51-.22-.82-.47-.93a2.51,2.51,0,0,0-1.07-.17h-4c-.22,0-.35,0-.39.07a.88.88,0,0,0,0,.39V108h4.06a4.5,4.5,0,0,0,.56,0,1,1,0,0,0,.39-.13.64.64,0,0,0,.23-.3,1.8,1.8,0,0,0,.12-.54h.26v3h-.26a1.74,1.74,0,0,0-.12-.56.62.62,0,0,0-.23-.31.72.72,0,0,0-.38-.14,4.45,4.45,0,0,0-.57,0h-4.06v5.22a.34.34,0,0,0,.11.27.6.6,0,0,0,.26.11h3.91a6.48,6.48,0,0,0,.83,0,2,2,0,0,0,.63-.21,1.71,1.71,0,0,0,.5-.43,3.06,3.06,0,0,0,.42-.73h.32Z"/></g></g><g id="Grupo_297" data-name="Grupo 297"><path id="Trazado_1" data-name="Trazado 1" class="cls-2" d="M27.36,78.16V45.09H.73V78.16Z"/><path id="Trazado_2" data-name="Trazado 2" class="cls-3" d="M53.9,78.16V45.09H27.27V78.16Z"/><path id="Trazado_3" data-name="Trazado 3" class="cls-4" d="M27.06,78v36.79a1.45,1.45,0,0,1,.17.67h0c0-2,3.68-2,3.95-2H50.45a3,3,0,0,0,3.27-2.61,2.43,2.43,0,0,0,0-.66V78Z"/><path id="Trazado_4" data-name="Trazado 4" class="cls-5" d="M27.15,78H.73v32.18a3,3,0,0,0,2.61,3.27,3.64,3.64,0,0,0,.66,0H23.28c.24,0,3.35,0,3.87,1.55Z"/><path id="Trazado_5" data-name="Trazado 5" class="cls-6" d="M35,79.93a7.73,7.73,0,1,1-7.72-7.72h0c.18,0,.55-.36.7-.43a2,2,0,0,1,1.4-.23c.47.12.79,1.2,1.23,1.41A7.74,7.74,0,0,1,35,79.93Z"/><path id="Trazado_6" data-name="Trazado 6" class="cls-6" d="M34.93,92.45l-2-.22.21,8.78a11.15,11.15,0,0,1,7.24,0s2.47-1.06,7.4-.18l.06-9.67s-1.82.35-5,.62S40.61,92.67,34.93,92.45Z"/><g id="Grupo_3" data-name="Grupo 3"><g id="Grupo_2" data-name="Grupo 2"><g id="Grupo_1" data-name="Grupo 1"><path id="Trazado_7" data-name="Trazado 7" class="cls-3" d="M31.32,102.63l-1.11,1L46,107.39l4.3-5-1.07-.44-3.7,4.22Z"/></g></g></g><g id="Grupo_6" data-name="Grupo 6"><g id="Grupo_5" data-name="Grupo 5"><g id="Grupo_4" data-name="Grupo 4"><path id="Trazado_8" data-name="Trazado 8" class="cls-3" d="M33.15,101a12.61,12.61,0,0,1,7.15-.25s4.5-.89,7.49,0l0-1.27,1.5.32-3.78,4L31.74,101,33,99.81Z"/></g></g></g><g id="Grupo_7" data-name="Grupo 7"><path id="Trazado_9" data-name="Trazado 9" class="cls-7" d="M20.14,32.41l2.14-8.15-6.52-5.33,8.41-.48,3.06-7.85,3.05,7.85,8.41.48-6.52,5.33,2.14,8.15-7.08-4.56Z"/><path id="Trazado_10" data-name="Trazado 10" class="cls-8" d="M27.23,27.27l6.27,4-1.9-7.23,5.79-4.72-7.46-.43-2.71-7-2.71,7-7.45.43,5.78,4.72-1.9,7.23Z"/></g><g id="Grupo_68" data-name="Grupo 68"><g id="Grupo_10" data-name="Grupo 10"><g id="Grupo_8" data-name="Grupo 8"><path id="Trazado_11" data-name="Trazado 11" class="cls-9" d="M25.34,16.18,22.15,6.37l-.35.11,3.32,10.25Z"/></g><g id="Grupo_9" data-name="Grupo 9"><path id="Trazado_12" data-name="Trazado 12" class="cls-9" d="M25.12,17h0a.28.28,0,0,1-.25-.19L21.54,6.56a.27.27,0,0,1,.17-.33l.36-.12a.28.28,0,0,1,.2,0,.26.26,0,0,1,.13.16l3.19,9.81a.28.28,0,0,1,0,.18l-.22.55A.27.27,0,0,1,25.12,17Z"/></g></g><g id="Grupo_13" data-name="Grupo 13"><g id="Grupo_11" data-name="Grupo 11"><path id="Trazado_13" data-name="Trazado 13" class="cls-9" d="M10.23,22.78H20.89l-.46-.37H10.23Z"/></g><g id="Grupo_12" data-name="Grupo 12"><path id="Trazado_14" data-name="Trazado 14" class="cls-9" d="M20.89,23H10.23a.27.27,0,0,1-.27-.26V22.4a.27.27,0,0,1,.27-.26h10.2a.27.27,0,0,1,.17.06l.45.37a.26.26,0,0,1,0,.37.23.23,0,0,1-.2.1Z"/></g></g><g id="Grupo_16" data-name="Grupo 16"><g id="Grupo_14" data-name="Grupo 14"><path id="Trazado_15" data-name="Trazado 15" class="cls-9" d="M24.36,18.7l.1-.25-10.2-14-.3.22L24.18,18.71Z"/></g><g id="Grupo_15" data-name="Grupo 15"><path id="Trazado_16" data-name="Trazado 16" class="cls-9" d="M24.18,19a.29.29,0,0,1-.22-.11L13.74,4.8a.26.26,0,0,1,.06-.37h0l.3-.22a.27.27,0,0,1,.37.06h0l10.2,14a.25.25,0,0,1,0,.25l-.1.25a.26.26,0,0,1-.23.17h-.19Z"/></g></g><g id="Grupo_19" data-name="Grupo 19"><g id="Grupo_17" data-name="Grupo 17"><path id="Trazado_17" data-name="Trazado 17" class="cls-9" d="M27.23,11.33l.18.48V.27H27V11.81Z"/></g><g id="Grupo_18" data-name="Grupo 18"><path id="Trazado_18" data-name="Trazado 18" class="cls-9" d="M27.41,12.07a.24.24,0,0,1-.18-.07.3.3,0,0,1-.24.07.27.27,0,0,1-.22-.26V.27A.27.27,0,0,1,27,0h.37a.27.27,0,0,1,.27.27V11.81a.26.26,0,0,1-.22.26Z"/></g></g><g id="Grupo_22" data-name="Grupo 22"><g id="Grupo_20" data-name="Grupo 20"><path id="Trazado_19" data-name="Trazado 19" class="cls-9" d="M32.69,18.85l8.4-6.1-.22-.3L32.1,18.82Z"/></g><g id="Grupo_21" data-name="Grupo 21"><path id="Trazado_20" data-name="Trazado 20" class="cls-9" d="M32.69,19.12h0l-.59,0a.26.26,0,0,1-.25-.28.24.24,0,0,1,.11-.2l8.77-6.37a.23.23,0,0,1,.2,0,.27.27,0,0,1,.17.1l.22.3a.27.27,0,0,1-.06.38l-8.4,6.1a.3.3,0,0,1-.16.05Z"/></g></g><g id="Grupo_25" data-name="Grupo 25"><g id="Grupo_23" data-name="Grupo 23"><path id="Trazado_21" data-name="Trazado 21" class="cls-9" d="M38,19.15l-.28.23,10.79-3.51-.11-.35-11.08,3.6Z"/></g><g id="Grupo_24" data-name="Grupo 24"><path id="Trazado_22" data-name="Trazado 22" class="cls-9" d="M37.72,19.64a.27.27,0,0,1-.23-.14.2.2,0,0,1,0-.11H37.3a.27.27,0,0,1-.25-.28.28.28,0,0,1,.19-.24l11.08-3.6a.28.28,0,0,1,.2,0,.27.27,0,0,1,.13.15l.11.36a.25.25,0,0,1-.17.33h0L37.8,19.63Z"/></g></g><g id="Grupo_28" data-name="Grupo 28"><g id="Grupo_26" data-name="Grupo 26"><path id="Trazado_23" data-name="Trazado 23" class="cls-9" d="M22.35,18.82l-8.77-6.37-.22.3,8.4,6.1Z"/></g><g id="Grupo_27" data-name="Grupo 27"><path id="Trazado_24" data-name="Trazado 24" class="cls-9" d="M21.76,19.12a.27.27,0,0,1-.15-.05L13.21,13a.27.27,0,0,1-.07-.37h0l.22-.3a.27.27,0,0,1,.17-.1.21.21,0,0,1,.2.05l8.77,6.36a.27.27,0,0,1,0,.38.26.26,0,0,1-.2.1l-.58,0Z"/></g></g><g id="Grupo_31" data-name="Grupo 31"><g id="Grupo_29" data-name="Grupo 29"><path id="Trazado_25" data-name="Trazado 25" class="cls-9" d="M29.33,16.73,32.66,6.48l-.36-.11-3.19,9.81Z"/></g><g id="Grupo_30" data-name="Grupo 30"><path id="Trazado_26" data-name="Trazado 26" class="cls-9" d="M29.33,17a.26.26,0,0,1-.25-.17l-.21-.55a.2.2,0,0,1,0-.17l3.19-9.82a.28.28,0,0,1,.34-.17l.35.12a.29.29,0,0,1,.16.13.27.27,0,0,1,0,.2L29.58,16.81a.26.26,0,0,1-.24.18Z"/></g></g><g id="Grupo_34" data-name="Grupo 34"><g id="Grupo_32" data-name="Grupo 32"><path id="Trazado_27" data-name="Trazado 27" class="cls-9" d="M30.09,18.7h.18L40.5,4.64l-.3-.22L30,18.45Z"/></g><g id="Grupo_33" data-name="Grupo 33"><path id="Trazado_28" data-name="Trazado 28" class="cls-9" d="M30.27,19h-.19a.27.27,0,0,1-.23-.17l-.1-.25a.25.25,0,0,1,0-.25L40,4.26a.27.27,0,0,1,.37-.06h0l.3.22a.26.26,0,0,1,.06.37h0L30.49,18.87A.27.27,0,0,1,30.27,19Z"/></g></g><g id="Grupo_37" data-name="Grupo 37"><g id="Grupo_35" data-name="Grupo 35"><path id="Trazado_29" data-name="Trazado 29" class="cls-9" d="M44.22,22.4H34l-.46.38H44.22Z"/></g><g id="Grupo_36" data-name="Grupo 36"><path id="Trazado_30" data-name="Trazado 30" class="cls-9" d="M33.56,23a.26.26,0,0,1-.26-.26.27.27,0,0,1,.09-.21l.46-.37a.27.27,0,0,1,.17-.06h10.2a.27.27,0,0,1,.27.26v.38a.27.27,0,0,1-.27.26H33.56Z"/></g></g><g id="Grupo_40" data-name="Grupo 40"><g id="Grupo_38" data-name="Grupo 38"><path id="Trazado_31" data-name="Trazado 31" class="cls-9" d="M16.46,19.15l.67,0L6.05,15.52l-.11.35,10.79,3.51Z"/></g><g id="Grupo_39" data-name="Grupo 39"><path id="Trazado_32" data-name="Trazado 32" class="cls-9" d="M16.73,19.64h-.08L5.85,16.12a.26.26,0,0,1-.17-.33l.12-.36a.27.27,0,0,1,.13-.15.28.28,0,0,1,.2,0l11.08,3.6a.28.28,0,0,1,.18.34.27.27,0,0,1-.24.18H17a.2.2,0,0,1,0,.11A.24.24,0,0,1,16.73,19.64Z"/></g></g><g id="Grupo_43" data-name="Grupo 43"><g id="Grupo_41" data-name="Grupo 41"><path id="Trazado_33" data-name="Trazado 33" class="cls-9" d="M29,28.68l3.3,10.14.35-.12L29.5,29Z"/></g><g id="Grupo_42" data-name="Grupo 42"><path id="Trazado_34" data-name="Trazado 34" class="cls-9" d="M32.3,39.08a.27.27,0,0,1-.12,0,.27.27,0,0,1-.13-.15L28.76,28.76a.25.25,0,0,1,.17-.33.24.24,0,0,1,.23,0l.5.32a.26.26,0,0,1,.11.14l3.15,9.7a.27.27,0,0,1-.17.33h0l-.36.12Z"/></g></g><g id="Grupo_46" data-name="Grupo 46"><g id="Grupo_44" data-name="Grupo 44"><path id="Trazado_35" data-name="Trazado 35" class="cls-9" d="M27.23,27.53l-.19.12V44.91h.37V27.65Z"/></g><g id="Grupo_45" data-name="Grupo 45"><path id="Trazado_36" data-name="Trazado 36" class="cls-9" d="M27.41,45.18H27a.27.27,0,0,1-.27-.26h0V27.65a.27.27,0,0,1,.12-.22l.19-.12a.26.26,0,0,1,.29,0l.19.12a.27.27,0,0,1,.12.22V44.91a.27.27,0,0,1-.27.27Z"/></g></g><g id="Grupo_49" data-name="Grupo 49"><g id="Grupo_47" data-name="Grupo 47"><path id="Trazado_37" data-name="Trazado 37" class="cls-9" d="M32.53,26.67l8.33,6.06.22-.3-8.7-6.32Z"/></g><g id="Grupo_48" data-name="Grupo 48"><path id="Trazado_38" data-name="Trazado 38" class="cls-9" d="M40.87,33a.3.3,0,0,1-.16,0l-8.34-6.06a.31.31,0,0,1-.1-.15l-.15-.57a.27.27,0,0,1,.19-.32.27.27,0,0,1,.23,0l8.71,6.33a.27.27,0,0,1,.06.37h0l-.22.3a.34.34,0,0,1-.18.11Z"/></g></g><g id="Grupo_52" data-name="Grupo 52"><g id="Grupo_50" data-name="Grupo 50"><path id="Trazado_39" data-name="Trazado 39" class="cls-9" d="M31.87,24.16l0,.15,16.48,5.35.12-.35L32.09,24Z"/></g><g id="Grupo_51" data-name="Grupo 51"><path id="Trazado_40" data-name="Trazado 40" class="cls-9" d="M48.4,29.93h-.08L31.83,24.56a.27.27,0,0,1-.18-.18l0-.15A.27.27,0,0,1,31.7,24l.23-.19a.25.25,0,0,1,.25,0L48.6,29.06a.28.28,0,0,1,.17.34h0l-.12.35a.29.29,0,0,1-.13.16Z"/></g></g><g id="Grupo_55" data-name="Grupo 55"><g id="Grupo_53" data-name="Grupo 53"><path id="Trazado_41" data-name="Trazado 41" class="cls-9" d="M33.88,31.81l-.35-.22,6.67,9.17.3-.22-6.78-9.32Z"/></g><g id="Grupo_54" data-name="Grupo 54"><path id="Trazado_42" data-name="Trazado 42" class="cls-9" d="M40.2,41a.27.27,0,0,1-.22-.11l-6.66-9.18a.26.26,0,0,1,0-.34.37.37,0,0,1,.14-.07v0a.26.26,0,0,1,.19-.32.28.28,0,0,1,.28.1l6.77,9.32a.24.24,0,0,1,0,.2.27.27,0,0,1-.11.18l-.3.22A.27.27,0,0,1,40.2,41Z"/></g></g><g id="Grupo_58" data-name="Grupo 58"><g id="Grupo_56" data-name="Grupo 56"><path id="Trazado_43" data-name="Trazado 43" class="cls-9" d="M25,29,21.8,38.7l.35.11,3.29-10.13Z"/></g><g id="Grupo_57" data-name="Grupo 57"><path id="Trazado_44" data-name="Trazado 44" class="cls-9" d="M22.15,39.08h-.08L21.71,39a.27.27,0,0,1-.17-.33l3.16-9.7a.22.22,0,0,1,.11-.14l.49-.32a.29.29,0,0,1,.31,0,.28.28,0,0,1,.09.3L22.41,38.9A.27.27,0,0,1,22.15,39.08Z"/></g></g><g id="Grupo_61" data-name="Grupo 61"><g id="Grupo_59" data-name="Grupo 59"><path id="Trazado_45" data-name="Trazado 45" class="cls-9" d="M22.07,26.1l-8.71,6.33.22.3,8.34-6.06Z"/></g><g id="Grupo_60" data-name="Grupo 60"><path id="Trazado_46" data-name="Trazado 46" class="cls-9" d="M13.58,33h0a.25.25,0,0,1-.17-.11l-.22-.3a.26.26,0,0,1,.06-.37h0l8.7-6.33a.27.27,0,0,1,.38.06.29.29,0,0,1,0,.22l-.15.57a.31.31,0,0,1-.1.15L13.74,33A.3.3,0,0,1,13.58,33Z"/></g></g><g id="Grupo_64" data-name="Grupo 64"><g id="Grupo_62" data-name="Grupo 62"><path id="Trazado_47" data-name="Trazado 47" class="cls-9" d="M22.58,24.16,22.36,24,5.94,29.31l.11.35,16.5-5.35Z"/></g><g id="Grupo_63" data-name="Grupo 63"><path id="Trazado_48" data-name="Trazado 48" class="cls-9" d="M6.05,29.93l-.12,0a.29.29,0,0,1-.13-.16l-.12-.35a.28.28,0,0,1,.17-.34h0l16.42-5.33a.25.25,0,0,1,.25,0l.22.18a.27.27,0,0,1,.09.28l0,.15a.28.28,0,0,1-.17.18L6.13,29.92Z"/></g></g><g id="Grupo_67" data-name="Grupo 67"><g id="Grupo_65" data-name="Grupo 65"><path id="Trazado_49" data-name="Trazado 49" class="cls-9" d="M20.57,31.81l.16-.6L14,40.54l.3.22,6.67-9.18Z"/></g><g id="Grupo_66" data-name="Grupo 66"><path id="Trazado_50" data-name="Trazado 50" class="cls-9" d="M14.26,41A.3.3,0,0,1,14.1,41l-.3-.22a.26.26,0,0,1-.06-.37h0l6.77-9.33a.28.28,0,0,1,.38-.06.27.27,0,0,1,.1.29v0a.26.26,0,0,1,.16.41l-6.67,9.18A.26.26,0,0,1,14.26,41Z"/></g></g></g><g id="Grupo_89" data-name="Grupo 89"><g id="Grupo_72" data-name="Grupo 72"><g id="Grupo_71" data-name="Grupo 71"><g id="Grupo_69" data-name="Grupo 69"><rect id="Rect치ngulo_1" data-name="Rect치ngulo 1" class="cls-9" x="27.12" y="11.38" width="0.21" height="16.16"/></g><g id="Grupo_70" data-name="Grupo 70"><path id="Trazado_51" data-name="Trazado 51" class="cls-9" d="M27.42,27.62H27V11.29h.39Zm-.21-.17h0v-16h0Z"/></g></g></g><g id="Grupo_76" data-name="Grupo 76"><g id="Grupo_75" data-name="Grupo 75"><g id="Grupo_73" data-name="Grupo 73"><path id="Trazado_52" data-name="Trazado 52" class="cls-9" d="M31.81,24.26l-15.36-5,.06-.2,15.37,5Z"/></g><g id="Grupo_74" data-name="Grupo 74"><path id="Trazado_53" data-name="Trazado 53" class="cls-9" d="M31.87,24.37,16.34,19.32l.12-.37L32,24ZM16.56,19.21l15.2,4.94v0l-15.2-4.94Z"/></g></g></g><g id="Grupo_80" data-name="Grupo 80"><g id="Grupo_79" data-name="Grupo 79"><g id="Grupo_77" data-name="Grupo 77"><path id="Trazado_54" data-name="Trazado 54" class="cls-9" d="M22.61,24.26l-.06-.2,15.36-5,.07.2Z"/></g><g id="Grupo_78" data-name="Grupo 78"><path id="Trazado_55" data-name="Trazado 55" class="cls-9" d="M22.56,24.37,22.43,24,38,19l.12.37Zm.1-.26v0l15.2-4.94v0Z"/></g></g></g><g id="Grupo_84" data-name="Grupo 84"><g id="Grupo_83" data-name="Grupo 83"><g id="Grupo_81" data-name="Grupo 81"><rect id="Rect치ngulo_2" data-name="Rect치ngulo 2" class="cls-9" x="29.01" y="17.17" width="0.21" height="16.16" transform="translate(-9.28 21.94) rotate(-36.01)"/></g><g id="Grupo_82" data-name="Grupo 82"><path id="Trazado_56" data-name="Trazado 56" class="cls-9" d="M33.75,32l-9.6-13.22.32-.23,9.6,13.22ZM24.4,18.79l9.39,12.93,0,0L24.43,18.77Z"/></g></g></g><g id="Grupo_88" data-name="Grupo 88"><g id="Grupo_87" data-name="Grupo 87"><g id="Grupo_85" data-name="Grupo 85"><path id="Trazado_57" data-name="Trazado 57" class="cls-9" d="M20.68,31.84l-.17-.12L30,18.65l.17.13Z"/></g><g id="Grupo_86" data-name="Grupo 86"><path id="Trazado_58" data-name="Trazado 58" class="cls-9" d="M20.7,32l-.32-.23L30,18.52l.32.23Zm-.07-.27,0,0,9.39-12.93,0,0Z"/></g></g></g></g><g id="Grupo_91" data-name="Grupo 91"><g id="Grupo_90" data-name="Grupo 90"><path id="Trazado_59" data-name="Trazado 59" class="cls-9" d="M27.94,116.15H26.52v-.71c0-1.06-2.4-1.3-3.24-1.3H4a3.63,3.63,0,0,1-4-3.23,3.14,3.14,0,0,1,0-.75V44.38H27.23V45.8H1.44v64.36a2.25,2.25,0,0,0,1.89,2.56,2.51,2.51,0,0,0,.67,0H23.28a6.19,6.19,0,0,1,3.95,1.14,6.17,6.17,0,0,1,3.95-1.14H50.45a2.26,2.26,0,0,0,2.56-1.9,1.83,1.83,0,0,0,0-.66V45.8H27.23V44.38h27.2v65.78a3.63,3.63,0,0,1-3.23,4,3.14,3.14,0,0,1-.75,0H31.18c-.84,0-3.24.24-3.24,1.3Z"/></g></g><g id="Grupo_96" data-name="Grupo 96"><g id="Grupo_93" data-name="Grupo 93"><g id="Grupo_92" data-name="Grupo 92"><path id="Trazado_60" data-name="Trazado 60" class="cls-9" d="M19.78,77.71H.75v.89H19.56C19.62,78.3,19.69,78,19.78,77.71Z"/></g></g><g id="Grupo_95" data-name="Grupo 95"><g id="Grupo_94" data-name="Grupo 94"><path id="Trazado_61" data-name="Trazado 61" class="cls-9" d="M34.68,77.71a6.77,6.77,0,0,1,.21.89h19v-.89Z"/></g></g></g><g id="Grupo_101" data-name="Grupo 101"><g id="Grupo_98" data-name="Grupo 98"><g id="Grupo_97" data-name="Grupo 97"><path id="Trazado_62" data-name="Trazado 62" class="cls-9" d="M27.23,72.21h.44V45.16h-.89V72.22Z"/></g></g><g id="Grupo_100" data-name="Grupo 100"><g id="Grupo_99" data-name="Grupo 99"><path id="Trazado_63" data-name="Trazado 63" class="cls-9" d="M27.23,87.78h-.45v26.87h.89V87.77Z"/></g></g></g><g id="Grupo_104" data-name="Grupo 104"><g id="Grupo_103" data-name="Grupo 103"><g id="Grupo_102" data-name="Grupo 102"><path id="Trazado_64" data-name="Trazado 64" class="cls-9" d="M32.92,83.53H21.53l-.23-.4L27,73.26h.46l5.7,9.87ZM22,83H32.46l-5.23-9.07Z"/></g></g></g><path id="Trazado_65" data-name="Trazado 65" class="cls-9" d="M30.09,74.32a.27.27,0,0,1-.12,0,12.45,12.45,0,0,0-1.73-.41,1.26,1.26,0,0,1-.87-.5.38.38,0,0,1,0-.36.75.75,0,0,1,.39-.28,2.35,2.35,0,0,1-.3-.33.56.56,0,0,1,0-.53c.15-.34.57-.56,1.28-.69,1-.17,1.5.59,1.87,1.14a1.87,1.87,0,0,0,.48.57.26.26,0,0,1,.12.35.27.27,0,0,1-.35.13h0a2.09,2.09,0,0,1-.7-.75c-.41-.62-.73-1-1.32-.92s-.85.31-.88.37a0,0,0,0,0,0,0c0,.05.32.34.56.57a.26.26,0,0,1,0,.38.22.22,0,0,1-.15.08,2,2,0,0,0-.35.07,1.09,1.09,0,0,0,.36.12,13.43,13.43,0,0,1,1.87.46.26.26,0,0,1,.13.35.27.27,0,0,1-.24.16Z"/><g id="Grupo_106" data-name="Grupo 106"><g id="Grupo_105" data-name="Grupo 105"><path id="Trazado_66" data-name="Trazado 66" class="cls-9" d="M30.27,73.85l-.19.2a13.86,13.86,0,0,0-1.8-.43,1,1,0,0,1-.68-.37.09.09,0,0,1,0-.1h-.37a6.85,6.85,0,1,0,3,.71Zm-3,12.47A6.33,6.33,0,1,1,33.55,80h0a6.32,6.32,0,0,1-6.32,6.32Z"/></g></g><g id="Grupo_108" data-name="Grupo 108"><g id="Grupo_107" data-name="Grupo 107"><path id="Trazado_67" data-name="Trazado 67" class="cls-9" d="M30.42,72.6a1.52,1.52,0,0,0,.5.54l-.19.2a7.52,7.52,0,1,1-3.51-.87q.33,0,.66,0l-.21-.23a.33.33,0,0,1,0-.32h-.46a8.05,8.05,0,1,0,3.2.66Z"/></g></g><g id="Grupo_113" data-name="Grupo 113"><g id="Grupo_110" data-name="Grupo 110"><g id="Grupo_109" data-name="Grupo 109"><path id="Trazado_68" data-name="Trazado 68" class="cls-9" d="M28.91,72.18a.15.15,0,0,1-.16.16.16.16,0,1,1,0-.32h0A.16.16,0,0,1,28.91,72.18Z"/></g></g><g id="Grupo_112" data-name="Grupo 112"><g id="Grupo_111" data-name="Grupo 111"><path id="Trazado_69" data-name="Trazado 69" class="cls-9" d="M28.75,72.52a.34.34,0,0,1-.34-.34.34.34,0,0,1,.34-.34.34.34,0,1,1,0,.68Z"/></g></g></g><g id="Grupo_116" data-name="Grupo 116"><g id="Grupo_115" data-name="Grupo 115"><g id="Grupo_114" data-name="Grupo 114"><path id="Trazado_70" data-name="Trazado 70" class="cls-9" d="M27.23,82.24A2.22,2.22,0,1,1,29.44,80h0A2.21,2.21,0,0,1,27.23,82.24Zm0-4A1.81,1.81,0,1,0,29,80h0A1.81,1.81,0,0,0,27.23,78.22Z"/></g></g></g><g id="Grupo_119" data-name="Grupo 119"><g id="Grupo_118" data-name="Grupo 118"><g id="Grupo_117" data-name="Grupo 117"><path id="Trazado_71" data-name="Trazado 71" class="cls-9" d="M22,110.93h-2.1a.27.27,0,0,1-.26-.27v-4.43H5.37A.27.27,0,0,1,5.1,106h0v-2.29a.27.27,0,0,1,.27-.27H22a.27.27,0,0,1,.26.27v7a.27.27,0,0,1-.26.27h0Z"/><path id="Trazado_72" data-name="Trazado 72" class="cls-6" d="M20.2,110.39h1.57v-6.45H5.63v1.76h14.3a.27.27,0,0,1,.27.26Z"/></g></g></g><g id="Grupo_122" data-name="Grupo 122"><g id="Grupo_121" data-name="Grupo 121"><g id="Grupo_120" data-name="Grupo 120"><path id="Trazado_73" data-name="Trazado 73" class="cls-9" d="M17.25,103.74a5.65,5.65,0,1,1,5.64-5.64,5.64,5.64,0,0,1-5.64,5.64Z"/><path id="Trazado_74" data-name="Trazado 74" class="cls-4" d="M17.25,93a5.11,5.11,0,1,0,5.11,5.11A5.11,5.11,0,0,0,17.25,93Z"/></g></g></g><g id="Grupo_178" data-name="Grupo 178"><g id="Grupo_127" data-name="Grupo 127"><g id="Grupo_124" data-name="Grupo 124"><g id="Grupo_123" data-name="Grupo 123"><line id="L칤nea_1" data-name="L칤nea 1" class="cls-10" x1="7.48" y1="85.64" x2="16.88" y2="91.65"/></g></g><g id="Grupo_126" data-name="Grupo 126"><g id="Grupo_125" data-name="Grupo 125"><path id="Trazado_75" data-name="Trazado 75" class="cls-9" d="M16.81,91.76l-9.4-6,.14-.23,9.41,6Z"/></g></g></g><g id="Grupo_132" data-name="Grupo 132"><g id="Grupo_129" data-name="Grupo 129"><g id="Grupo_128" data-name="Grupo 128"><line id="L칤nea_2" data-name="L칤nea 2" class="cls-10" x1="7.41" y1="85.69" x2="15.7" y2="91.84"/></g></g><g id="Grupo_131" data-name="Grupo 131"><g id="Grupo_130" data-name="Grupo 130"><rect id="Rect치ngulo_3" data-name="Rect치ngulo 3" class="cls-9" x="11.42" y="83.61" width="0.27" height="10.32" transform="translate(-66.65 45.2) rotate(-53.46)"/></g></g></g><g id="Grupo_137" data-name="Grupo 137"><g id="Grupo_134" data-name="Grupo 134"><g id="Grupo_133" data-name="Grupo 133"><line id="L칤nea_3" data-name="L칤nea 3" class="cls-10" x1="7.34" y1="85.75" x2="14.78" y2="92.14"/></g></g><g id="Grupo_136" data-name="Grupo 136"><g id="Grupo_135" data-name="Grupo 135"><rect id="Rect치ngulo_4" data-name="Rect치ngulo 4" class="cls-9" x="10.93" y="84.04" width="0.27" height="9.81" transform="translate(-63.65 39.43) rotate(-49.38)"/></g></g></g><g id="Grupo_142" data-name="Grupo 142"><g id="Grupo_139" data-name="Grupo 139"><g id="Grupo_138" data-name="Grupo 138"><line id="L칤nea_4" data-name="L칤nea 4" class="cls-10" x1="7.27" y1="85.81" x2="14.05" y2="92.51"/></g></g><g id="Grupo_141" data-name="Grupo 141"><g id="Grupo_140" data-name="Grupo 140"><path id="Trazado_76" data-name="Trazado 76" class="cls-9" d="M14,92.6,7.18,85.9l.18-.19,6.78,6.7Z"/></g></g></g><g id="Grupo_147" data-name="Grupo 147"><g id="Grupo_144" data-name="Grupo 144"><g id="Grupo_143" data-name="Grupo 143"><line id="L칤nea_5" data-name="L칤nea 5" class="cls-10" x1="7.2" y1="85.87" x2="13.39" y2="92.92"/></g></g><g id="Grupo_146" data-name="Grupo 146"><g id="Grupo_145" data-name="Grupo 145"><rect id="Rect치ngulo_5" data-name="Rect치ngulo 5" class="cls-9" x="10.16" y="84.7" width="0.27" height="9.39" transform="translate(-56.42 29.01) rotate(-41.28)"/></g></g></g><g id="Grupo_152" data-name="Grupo 152"><g id="Grupo_149" data-name="Grupo 149"><g id="Grupo_148" data-name="Grupo 148"><line id="L칤nea_6" data-name="L칤nea 6" class="cls-10" x1="7.13" y1="85.92" x2="12.83" y2="93.42"/></g></g><g id="Grupo_151" data-name="Grupo 151"><g id="Grupo_150" data-name="Grupo 150"><rect id="Rect치ngulo_6" data-name="Rect치ngulo 6" class="cls-9" x="9.85" y="84.96" width="0.27" height="9.42" transform="translate(-52.21 24.31) rotate(-37.22)"/></g></g></g><g id="Grupo_157" data-name="Grupo 157"><g id="Grupo_154" data-name="Grupo 154"><g id="Grupo_153" data-name="Grupo 153"><line id="L칤nea_7" data-name="L칤nea 7" class="cls-10" x1="7.06" y1="85.98" x2="12.31" y2="93.97"/></g></g><g id="Grupo_156" data-name="Grupo 156"><g id="Grupo_155" data-name="Grupo 155"><path id="Trazado_77" data-name="Trazado 77" class="cls-9" d="M12.2,94,7,86.06l.22-.15,5.26,8Z"/></g></g></g><g id="Grupo_162" data-name="Grupo 162"><g id="Grupo_159" data-name="Grupo 159"><g id="Grupo_158" data-name="Grupo 158"><line id="L칤nea_8" data-name="L칤nea 8" class="cls-10" x1="6.99" y1="86.04" x2="11.84" y2="94.61"/></g></g><g id="Grupo_161" data-name="Grupo 161"><g id="Grupo_160" data-name="Grupo 160"><path id="Trazado_78" data-name="Trazado 78" class="cls-9" d="M11.72,94.67,6.88,86.11,7.11,86,12,94.54Z"/></g></g></g><g id="Grupo_167" data-name="Grupo 167"><g id="Grupo_164" data-name="Grupo 164"><g id="Grupo_163" data-name="Grupo 163"><line id="L칤nea_9" data-name="L칤nea 9" class="cls-10" x1="6.93" y1="86.1" x2="11.4" y2="95.36"/></g></g><g id="Grupo_166" data-name="Grupo 166"><g id="Grupo_165" data-name="Grupo 165"><path id="Trazado_79" data-name="Trazado 79" class="cls-9" d="M11.28,95.42,6.81,86.15,7.05,86l4.47,9.26Z"/></g></g></g><g id="Grupo_172" data-name="Grupo 172"><g id="Grupo_169" data-name="Grupo 169"><g id="Grupo_168" data-name="Grupo 168"><line id="L칤nea_10" data-name="L칤nea 10" class="cls-10" x1="6.86" y1="86.16" x2="11.03" y2="96.32"/></g></g><g id="Grupo_171" data-name="Grupo 171"><g id="Grupo_170" data-name="Grupo 170"><path id="Trazado_80" data-name="Trazado 80" class="cls-9" d="M10.9,96.37,6.73,86.2,7,86.1l4.17,10.17Z"/></g></g></g><g id="Grupo_177" data-name="Grupo 177"><g id="Grupo_174" data-name="Grupo 174"><g id="Grupo_173" data-name="Grupo 173"><line id="L칤nea_11" data-name="L칤nea 11" class="cls-10" x1="6.79" y1="86.21" x2="10.8" y2="97.88"/></g></g><g id="Grupo_176" data-name="Grupo 176"><g id="Grupo_175" data-name="Grupo 175"><rect id="Rect치ngulo_7" data-name="Rect치ngulo 7" class="cls-9" x="8.66" y="85.88" width="0.27" height="12.34" transform="translate(-29.49 7.88) rotate(-19)"/></g></g></g></g><g id="Grupo_181" data-name="Grupo 181"><g id="Grupo_180" data-name="Grupo 180"><g id="Grupo_179" data-name="Grupo 179"><path id="Trazado_81" data-name="Trazado 81" class="cls-9" d="M8,87.1l-1.47-.95-1.47.95.45-1.69L4.17,84.3l1.74-.1.63-1.63.64,1.63,1.74.1L7.57,85.41ZM5.56,84.75l.56.46-.18.7.6-.39.61.39L7,85.21l.56-.46-.72,0L6.54,84l-.26.67Z"/></g></g></g><path id="Trazado_82" data-name="Trazado 82" class="cls-6" d="M5.56,84.75l.56.46-.18.7.6-.39.61.39L7,85.21l.56-.46-.72,0L6.54,84l-.26.67Z"/><g id="Grupo_184" data-name="Grupo 184"><g id="Grupo_183" data-name="Grupo 183"><g id="Grupo_182" data-name="Grupo 182"><path id="Trazado_83" data-name="Trazado 83" class="cls-9" d="M15.84,102.81a.25.25,0,0,1-.26-.16c-.05-.32-.08-.64-.1-1s0-.38,0-.42a3.84,3.84,0,0,1,0-.48c0-.2,0-.54,0-.61a.56.56,0,0,1,0-.12c0-.11-.11-.4-.21-.43-.85-.31-.82-.59-.8-.68a2.83,2.83,0,0,0,0-.29c0-.49-.06-.82.15-1l.23-.12.16-.08a.55.55,0,0,1-.3-.28,2.27,2.27,0,0,0-.4-.29,2,2,0,0,1-.33-.24.59.59,0,0,1-.1-.17c-.21-.42-.3-.5-.34-.51-.23,0-.85-.18-1-.47a.3.3,0,0,1,0-.29,8.24,8.24,0,0,1,1.29-1.53,9,9,0,0,1,1.45-.82.18.18,0,0,1,.16,0,.19.19,0,0,1,.09.14s.07.51.09.73.07.24.17.2a1.18,1.18,0,0,0,.27-.23c.18-.18.35-.35.54-.35h0a.52.52,0,0,0,.16-.06.72.72,0,0,1,.25-.07c.06,0,.28,0,.28.37a2.87,2.87,0,0,1,0,.35,1.79,1.79,0,0,0,0,.4.62.62,0,0,1-.16.49.5.5,0,0,1-.6.17l-.1-.06a.4.4,0,0,0-.19-.11h0a1,1,0,0,0-.49.43c-.1.27-.34.5-.53.5h-.07c-.17-.06-.18-.28-.18-.52a.21.21,0,0,0-.1-.09l-.16,0-.11,0a.82.82,0,0,0-.2.49,2.23,2.23,0,0,0,.6.91,11.48,11.48,0,0,1,1.37,1,7.61,7.61,0,0,0,.79.31c.44.12,1,.36,1,.75a1.77,1.77,0,0,1-.47,1.23,3.3,3.3,0,0,0-.59.59l-.12.13c-.09.09-.12.13-.2.54a12.38,12.38,0,0,1-.43,1.47.27.27,0,0,1-.08.1A1,1,0,0,1,15.84,102.81Z"/><path id="Trazado_84" data-name="Trazado 84" class="cls-9" d="M15.83,102.46v0Z"/><path id="Trazado_85" data-name="Trazado 85" class="cls-6" d="M14.73,99a1.31,1.31,0,0,0,.58.31c.28.1.37.47.43.68a.32.32,0,0,0,0,.09,3,3,0,0,1,0,.73v.42s0,.2,0,.46,0,.59.07.77l.1,0a10.43,10.43,0,0,0,.39-1.35c.09-.48.14-.57.29-.72l.1-.11a4,4,0,0,1,.65-.65,1.58,1.58,0,0,0,.33-.9c0-.12-.27-.3-.78-.45a5.3,5.3,0,0,1-.95-.4,11.41,11.41,0,0,0-1.24-1A2.27,2.27,0,0,1,14,95.68a1.07,1.07,0,0,1,.31-.82.31.31,0,0,1,.22-.09.59.59,0,0,1,.23,0l.1,0a.5.5,0,0,1,.4.44v.09a1,1,0,0,0,.1-.17,1.19,1.19,0,0,1,.67-.63.37.37,0,0,1,.18,0,.71.71,0,0,1,.41.17s0,0,0,.05a.34.34,0,0,0,.16-.1.28.28,0,0,0,.07-.21,1.93,1.93,0,0,1,0-.48c0-.08,0-.17,0-.31l0,0a.76.76,0,0,1-.33.08,1.16,1.16,0,0,0-.29.25,1.46,1.46,0,0,1-.42.32.52.52,0,0,1-.62-.39.49.49,0,0,1,0-.12c0-.12,0-.32-.06-.48a9.06,9.06,0,0,0-1.17.67,7.83,7.83,0,0,0-1.17,1.4,1.41,1.41,0,0,0,.68.25c.28,0,.47.36.63.71l.05.09.25.17c.35.23.52.35.56.49l.14.08c.12.06.3.15.26.34s-.22.25-.45.36l-.19.1a2.66,2.66,0,0,0,0,.63C14.72,98.75,14.73,98.86,14.73,99Z"/></g></g></g><g id="Grupo_187" data-name="Grupo 187"><g id="Grupo_186" data-name="Grupo 186"><g id="Grupo_185" data-name="Grupo 185"><path id="Trazado_86" data-name="Trazado 86" class="cls-9" d="M18.61,94.52c-.26,0-.44-.12-.46-.31A.38.38,0,0,0,18,94a.75.75,0,0,1-.4-.36,1.75,1.75,0,0,1-.12-.54.17.17,0,0,1,0-.07l.1-.31a.19.19,0,0,1,.18-.12,4.59,4.59,0,0,1,1.33.3.16.16,0,0,1,.1.11.2.2,0,0,1,0,.15,2.24,2.24,0,0,0-.22.4s0,.07,0,.14c0,.52-.07.81-.3.83Z"/><path id="Trazado_87" data-name="Trazado 87" class="cls-6" d="M18.5,94.15h.05a2.83,2.83,0,0,0,.05-.5c0-.08,0-.15,0-.18a2.07,2.07,0,0,1,.15-.34,4.53,4.53,0,0,0-.89-.18l0,.13a1.8,1.8,0,0,0,.08.39c0,.09.1.13.23.19A.69.69,0,0,1,18.5,94.15Z"/></g></g></g><g id="Grupo_190" data-name="Grupo 190"><g id="Grupo_189" data-name="Grupo 189"><g id="Grupo_188" data-name="Grupo 188"><path id="Trazado_88" data-name="Trazado 88" class="cls-9" d="M21.5,101.51a.17.17,0,0,1-.17-.17v0a4.09,4.09,0,0,0,.07-.6,1.35,1.35,0,0,1,0-.35,1.62,1.62,0,0,0,0-.22,1.09,1.09,0,0,0-.11-.27.93.93,0,0,1-.12-.33.86.86,0,0,0-.2-.39,1.15,1.15,0,0,1-.21-.43.8.8,0,0,0-.11-.25,1,1,0,0,1-.17-.37s0-.08,0-.11c-.2-.21.13-.76.14-.77a1.51,1.51,0,0,1,.46-.27h0a3.74,3.74,0,0,1,.48-.12l.14-.12a.76.76,0,0,0-.06-.2.63.63,0,0,1,0-.27h0a.36.36,0,0,1-.18.07,1.12,1.12,0,0,1-.51-.08l-.09,0a.21.21,0,0,1-.17-.05.94.94,0,0,0-.26-.14.43.43,0,0,0-.16,0h0l-.06.11c0,.14,0,.3,0,.34,0,.25-.49.39-.64.39h-.07c-.4-.09-.49-.15-.52-.25A1.18,1.18,0,0,1,19,96L19,96a.35.35,0,0,1,0-.3,1.8,1.8,0,0,1,.19-.2.16.16,0,0,1,.11,0l.3,0,.07,0a2.48,2.48,0,0,1,.19-.26h0a.27.27,0,0,0,.11-.2.59.59,0,0,0,0-.23.38.38,0,0,1,0-.1.37.37,0,0,0-.07-.1.86.86,0,0,1-.07-.1.73.73,0,0,1-.15-.35.39.39,0,0,1,.2-.35l.28-.22a.16.16,0,0,1,.21,0,4.65,4.65,0,0,1,.57.42A15.29,15.29,0,0,1,22.41,96a6.09,6.09,0,0,1,.27,3.22,5.07,5.07,0,0,1-1.05,2.28A.16.16,0,0,1,21.5,101.51Z"/><path id="Trazado_89" data-name="Trazado 89" class="cls-6" d="M20.7,97.78a.67.67,0,0,1,.09.21.8.8,0,0,0,.11.25,1.19,1.19,0,0,1,.17.36.92.92,0,0,0,.14.32,1.13,1.13,0,0,1,.28.58.72.72,0,0,0,.09.2,1.07,1.07,0,0,1,.14.39c0,.07,0,.16,0,.26a2.29,2.29,0,0,0,0,.25s0,0,0,.06a4.8,4.8,0,0,0,.58-1.54,5.63,5.63,0,0,0-.24-3,14.64,14.64,0,0,0-1.43-2l-.41-.32A1.57,1.57,0,0,1,20,94h0v0a.6.6,0,0,0,.09.15l.05.06a.57.57,0,0,1,.14.28s0,.06,0,.08a1.22,1.22,0,0,1,0,.33.62.62,0,0,1-.22.42l-.18.25a.23.23,0,0,1-.07.07.77.77,0,0,1-.34.07h-.16l0,0v0a.41.41,0,0,1,0,.36l-.09.24.23.06a1,1,0,0,0,.29-.1c0-.11,0-.28,0-.34a0,0,0,0,0,0,0c0-.12.13-.33.3-.36h0a1,1,0,0,1,.34,0,1.74,1.74,0,0,1,.33.18.67.67,0,0,1,.19,0,.7.7,0,0,0,.35.06h0a.36.36,0,0,1,.2-.06,1.07,1.07,0,0,1,.25,0,.19.19,0,0,1,.13.21.71.71,0,0,0,0,.25c0,.1.07.2.1.3a.28.28,0,0,1-.07.23s-.23.28-.4.28l-.41.11a1.29,1.29,0,0,0-.33.17A1.2,1.2,0,0,0,20.7,97.78Z"/></g></g></g><g id="Grupo_193" data-name="Grupo 193"><g id="Grupo_192" data-name="Grupo 192"><g id="Grupo_191" data-name="Grupo 191"><path id="Trazado_90" data-name="Trazado 90" class="cls-9" d="M46,110.5l-.08,0a.26.26,0,0,1-.18-.25v-2.89a.24.24,0,0,1,.06-.17l4.31-5a.27.27,0,0,1,.47.18v.37a2.72,2.72,0,0,0,0,.9.47.47,0,0,0,.23.3.25.25,0,0,1,.15.18.27.27,0,0,1,0,.23l-4.74,6.1A.25.25,0,0,1,46,110.5Z"/><path id="Trazado_91" data-name="Trazado 91" class="cls-6" d="M46.29,107.44v2l4.08-5.27a1.06,1.06,0,0,1-.26-.49,2.32,2.32,0,0,1-.06-.64Z"/></g></g></g><g id="Grupo_196" data-name="Grupo 196"><g id="Grupo_195" data-name="Grupo 195"><g id="Grupo_194" data-name="Grupo 194"><path id="Trazado_92" data-name="Trazado 92" class="cls-9" d="M40.39,100.67h-.07a.26.26,0,0,1-.19-.26l.17-9.94a.27.27,0,0,1,.12-.22,3.21,3.21,0,0,1,1.74-.58,4.52,4.52,0,0,1,1.74.44,1.93,1.93,0,0,0,.82.15,4,4,0,0,0,1.62-.38.27.27,0,0,1,.36.12.5.5,0,0,1,0,.12c0,.07,0,7.34,0,9.83a.27.27,0,0,1-.27.26h-.06a12.18,12.18,0,0,0-3.17-.49c-2,0-2.6.84-2.6.85a.29.29,0,0,1-.23.12Z"/><path id="Trazado_93" data-name="Trazado 93" class="cls-6" d="M40.83,90.62l-.16,9.17a4.57,4.57,0,0,1,2.55-.63,12.47,12.47,0,0,1,3,.43c0-2.36,0-7.6,0-9.08a4.36,4.36,0,0,1-1.47.28,2.59,2.59,0,0,1-1-.2,4.08,4.08,0,0,0-1.53-.4A2.56,2.56,0,0,0,40.83,90.62Z"/></g></g></g><g id="Grupo_199" data-name="Grupo 199"><g id="Grupo_198" data-name="Grupo 198"><g id="Grupo_197" data-name="Grupo 197"><path id="Trazado_94" data-name="Trazado 94" class="cls-9" d="M40.35,100.64a.27.27,0,0,1-.22-.11c-.32-.45-1.11-.69-2.29-.69a16.31,16.31,0,0,0-3.54.48.28.28,0,0,1-.33-.26l-.11-8.68a.26.26,0,0,1,.1-.2.24.24,0,0,1,.23-.06,4.08,4.08,0,0,0,.85.08,5.09,5.09,0,0,0,2.53-.67,3.8,3.8,0,0,1,1.94-.59,2.34,2.34,0,0,1,1.21.3.27.27,0,0,1,.12.23s-.14,5.74-.22,9.91a.28.28,0,0,1-.19.25Z"/><path id="Trazado_95" data-name="Trazado 95" class="cls-9" d="M37.84,99.31a4.24,4.24,0,0,1,2.26.48c.07-3.67.18-8.24.2-9.16a1.87,1.87,0,0,0-.8-.15,3.21,3.21,0,0,0-1.67.51,5.47,5.47,0,0,1-2.79.74c-.22,0-.43,0-.65,0l.1,8A16.41,16.41,0,0,1,37.84,99.31Z"/></g></g></g><g id="Grupo_202" data-name="Grupo 202"><g id="Grupo_201" data-name="Grupo 201"><g id="Grupo_200" data-name="Grupo 200"><path id="Trazado_96" data-name="Trazado 96" class="cls-9" d="M40.35,100.64a.27.27,0,0,1-.22-.11c-.32-.45-1.11-.69-2.29-.69a16.31,16.31,0,0,0-3.54.48.28.28,0,0,1-.33-.26l-.11-8.68a.26.26,0,0,1,.1-.2.24.24,0,0,1,.23-.06,4.08,4.08,0,0,0,.85.08,5.09,5.09,0,0,0,2.53-.67,3.8,3.8,0,0,1,1.94-.59,2.34,2.34,0,0,1,1.21.3.27.27,0,0,1,.12.23s-.14,5.74-.22,9.91a.28.28,0,0,1-.19.25Z"/><path id="Trazado_97" data-name="Trazado 97" class="cls-6" d="M37.84,99.31a4.24,4.24,0,0,1,2.26.48c.07-3.67.18-8.24.2-9.16a1.87,1.87,0,0,0-.8-.15,3.21,3.21,0,0,0-1.67.51,5.47,5.47,0,0,1-2.79.74c-.22,0-.43,0-.65,0l.1,8A16.41,16.41,0,0,1,37.84,99.31Z"/></g></g></g><g id="Grupo_205" data-name="Grupo 205"><g id="Grupo_204" data-name="Grupo 204"><g id="Grupo_203" data-name="Grupo 203"><path id="Trazado_98" data-name="Trazado 98" class="cls-9" d="M45.52,106.42l-.09,0a.28.28,0,0,1-.18-.24l-.07-2.24a.26.26,0,0,1,.07-.19l3.8-4.07a.27.27,0,0,1,.38,0,.32.32,0,0,1,.08.2v.32a2.21,2.21,0,0,0,.05.77.35.35,0,0,0,.18.23.25.25,0,0,1,.15.18.27.27,0,0,1,0,.23l-4.12,4.75A.26.26,0,0,1,45.52,106.42Z"/><path id="Trazado_99" data-name="Trazado 99" class="cls-6" d="M45.72,104l0,1.45,3.49-4A.78.78,0,0,1,49,101a1.81,1.81,0,0,1-.07-.52Z"/></g></g></g><g id="Grupo_224" data-name="Grupo 224"><g id="Grupo_208" data-name="Grupo 208"><g id="Grupo_207" data-name="Grupo 207"><g id="Grupo_206" data-name="Grupo 206"><path id="Trazado_100" data-name="Trazado 100" class="cls-9" d="M49.25,100h0l-1.45-.12a.26.26,0,0,1-.23-.3.28.28,0,0,1,.27-.23l1.45.12a.28.28,0,0,1,.25.29.27.27,0,0,1-.27.24Z"/></g></g></g><g id="Grupo_211" data-name="Grupo 211"><g id="Grupo_210" data-name="Grupo 210"><g id="Grupo_209" data-name="Grupo 209"><path id="Trazado_101" data-name="Trazado 101" class="cls-9" d="M45.46,106.44s0,0-.06,0l-13.53-3.29a1.27,1.27,0,0,1-.92-1.31,1.19,1.19,0,0,1,.29-.88.87.87,0,0,1,.65-.25h0l13.6,2.84a.26.26,0,0,1,.22.26v2.36a.27.27,0,0,1-.27.26h0Z"/><path id="Trazado_102" data-name="Trazado 102" class="cls-3" d="M31.84,101.24a.37.37,0,0,0-.22.1.7.7,0,0,0-.14.5c0,.67.46.79.5.8l13.21,3.21V104Z"/></g></g></g><g id="Grupo_214" data-name="Grupo 214"><g id="Grupo_213" data-name="Grupo 213"><g id="Grupo_212" data-name="Grupo 212"><path id="Trazado_103" data-name="Trazado 103" class="cls-9" d="M31.46,101.38a.26.26,0,0,1-.18-.46l1.54-1.39a.27.27,0,1,1,.36.4l-1.54,1.39a.28.28,0,0,1-.18.06Z"/></g></g></g><g id="Grupo_217" data-name="Grupo 217"><g id="Grupo_216" data-name="Grupo 216"><g id="Grupo_215" data-name="Grupo 215"><path id="Trazado_104" data-name="Trazado 104" class="cls-9" d="M34.35,103.72a.27.27,0,0,1-.27-.27v-1.86a.27.27,0,0,1,.54,0h0v1.87A.27.27,0,0,1,34.35,103.72Z"/></g></g></g><g id="Grupo_220" data-name="Grupo 220"><g id="Grupo_219" data-name="Grupo 219"><g id="Grupo_218" data-name="Grupo 218"><path id="Trazado_105" data-name="Trazado 105" class="cls-9" d="M35.64,104a.25.25,0,0,1-.27-.26h0V102a.27.27,0,1,1,.53,0v1.81a.26.26,0,0,1-.26.26Z"/></g></g></g><g id="Grupo_223" data-name="Grupo 223"><g id="Grupo_222" data-name="Grupo 222"><g id="Grupo_221" data-name="Grupo 221"><path id="Trazado_106" data-name="Trazado 106" class="cls-9" d="M41.41,105.38a.25.25,0,0,1-.27-.26h0v-2a.27.27,0,1,1,.53,0h0v2A.26.26,0,0,1,41.41,105.38Z"/></g></g></g></g><g id="Grupo_240" data-name="Grupo 240"><g id="Grupo_227" data-name="Grupo 227"><g id="Grupo_226" data-name="Grupo 226"><g id="Grupo_225" data-name="Grupo 225"><path id="Trazado_107" data-name="Trazado 107" class="cls-9" d="M46,110.47h-.08l-15.48-4.35a1.43,1.43,0,0,1-1-1.49c0-.93.54-1.26,1-1.26h.09L46,107.13a.26.26,0,0,1,.2.26v2.81a.27.27,0,0,1-.27.27h0Z"/><path id="Trazado_108" data-name="Trazado 108" class="cls-3" d="M30.39,103.9c-.19,0-.48.1-.48.72,0,.81.54,1,.6,1l15.17,4.27V107.6Z"/></g></g></g><g id="Grupo_230" data-name="Grupo 230"><g id="Grupo_229" data-name="Grupo 229"><g id="Grupo_228" data-name="Grupo 228"><path id="Trazado_109" data-name="Trazado 109" class="cls-9" d="M29.94,104.05a.27.27,0,0,1-.26-.27.25.25,0,0,1,.09-.2l1.39-1.21a.27.27,0,0,1,.38,0,.28.28,0,0,1,0,.38h0L30.12,104A.29.29,0,0,1,29.94,104.05Z"/></g></g></g><g id="Grupo_233" data-name="Grupo 233"><g id="Grupo_232" data-name="Grupo 232"><g id="Grupo_231" data-name="Grupo 231"><path id="Trazado_110" data-name="Trazado 110" class="cls-9" d="M50.34,102.49h0l-1.22-.12a.26.26,0,0,1-.24-.29.27.27,0,0,1,.29-.24l1.22.12a.28.28,0,0,1,.25.29.28.28,0,0,1-.27.25Z"/></g></g></g><g id="Grupo_236" data-name="Grupo 236"><g id="Grupo_235" data-name="Grupo 235"><g id="Grupo_234" data-name="Grupo 234"><path id="Trazado_111" data-name="Trazado 111" class="cls-9" d="M32,106.43a.17.17,0,0,1-.17-.18h0v-2.11A.17.17,0,0,1,32,104a.18.18,0,0,1,.18.18v2.11a.18.18,0,0,1-.17.18Z"/></g></g></g><g id="Grupo_239" data-name="Grupo 239"><g id="Grupo_238" data-name="Grupo 238"><g id="Grupo_237" data-name="Grupo 237"><path id="Trazado_112" data-name="Trazado 112" class="cls-9" d="M41.05,109a.19.19,0,0,1-.18-.18h0v-2.46a.18.18,0,0,1,.36,0v2.46a.18.18,0,0,1-.18.18Z"/></g></g></g></g><path id="Trazado_113" data-name="Trazado 113" class="cls-9" d="M40.41,90.32a2.36,2.36,0,0,1-2.31-1.73.17.17,0,0,1,.12-.22.2.2,0,0,1,.13,0l.41.17a3.75,3.75,0,0,1-.45-1,.16.16,0,0,1,.06-.18.15.15,0,0,1,.19,0,4.07,4.07,0,0,0,.44.18,3.13,3.13,0,0,1-.32-.78.16.16,0,0,1,.06-.18.17.17,0,0,1,.19,0,3.38,3.38,0,0,0,.69.26A2.23,2.23,0,0,0,40,85.66c0-.32.09-.63.36-.63s.3.27.35.58a2.37,2.37,0,0,0,.43,1.15,4.79,4.79,0,0,0,.74-.21.18.18,0,0,1,.23.11.17.17,0,0,1,0,.1,2.7,2.7,0,0,1-.33.78,3.38,3.38,0,0,0,.44-.18.17.17,0,0,1,.2,0,.17.17,0,0,1,.06.18,3.37,3.37,0,0,1-.46,1l.42-.17a.17.17,0,0,1,.24.07.15.15,0,0,1,0,.13A2.37,2.37,0,0,1,40.41,90.32Z"/><path id="Trazado_114" data-name="Trazado 114" class="cls-3" d="M38.58,88.87a2.07,2.07,0,0,0,2.81.84,2,2,0,0,0,.84-.84,2.33,2.33,0,0,1-.69.17.18.18,0,0,1-.19-.11.19.19,0,0,1,.07-.21,2,2,0,0,0,.61-.88,3.22,3.22,0,0,1-.68.17.19.19,0,0,1-.19-.11.18.18,0,0,1,.07-.21,1.6,1.6,0,0,0,.45-.69,2.66,2.66,0,0,1-.56.12.16.16,0,0,1-.14-.05,2.41,2.41,0,0,1-.59-1.4h0v0a2.41,2.41,0,0,1-.57,1.42.17.17,0,0,1-.15.05,1.82,1.82,0,0,1-.51-.13,1.61,1.61,0,0,0,.43.64.18.18,0,0,1,0,.25.17.17,0,0,1-.16.07,3,3,0,0,1-.68-.17,2.06,2.06,0,0,0,.61.88.18.18,0,0,1,0,.25.17.17,0,0,1-.16.07A2.68,2.68,0,0,1,38.58,88.87Z"/><g id="Grupo_243" data-name="Grupo 243"><g id="Grupo_242" data-name="Grupo 242"><g id="Grupo_241" data-name="Grupo 241"><path id="Trazado_115" data-name="Trazado 115" class="cls-9" d="M41.65,62.33a0,0,0,0,1,0,0,.27.27,0,0,1-.2-.17c-.24-.69-.69-1.46-.94-1.46l-.16,0a10.18,10.18,0,0,1-1.75.18c-2.41,0-3.85-1.13-4.16-3.26-.61-4.22,1.1-5.62,1.32-5.78a2.56,2.56,0,0,1,1.73-.71,2.43,2.43,0,0,1,2.37,1.79,3.47,3.47,0,0,1-.76,2.87.59.59,0,0,1-.23,0h0a2.06,2.06,0,0,1-1.19-.74,2.54,2.54,0,0,0-.14,2.7c.23.38.61.53,1.34.53l.67,0,.71,0a2.26,2.26,0,0,1,1.9.72,2.52,2.52,0,0,1-.26,3.23.24.24,0,0,1-.2.08Z"/><path id="Trazado_116" data-name="Trazado 116" class="cls-6" d="M40.45,60.16c.56,0,1,.79,1.27,1.36a1.83,1.83,0,0,0,0-2.17,1.73,1.73,0,0,0-1.48-.52l-.69,0-.7,0A1.92,1.92,0,0,1,37,58.11a3,3,0,0,1-.24-2.52,2,2,0,0,1,.77-1.1.28.28,0,0,1,.3.08,2,2,0,0,0,1,.75A3.43,3.43,0,0,0,39.28,53a1.87,1.87,0,0,0-1.84-1.36,2,2,0,0,0-1.38.57l0,0a2.74,2.74,0,0,0-.78,1.09,7.63,7.63,0,0,0-.34,4.18c.27,1.87,1.49,2.81,3.64,2.81a9.14,9.14,0,0,0,1.65-.17l.2,0Z"/></g></g></g><g id="Grupo_246" data-name="Grupo 246"><g id="Grupo_245" data-name="Grupo 245"><g id="Grupo_244" data-name="Grupo 244"><path id="Trazado_117" data-name="Trazado 117" class="cls-9" d="M40.54,65.93a2.23,2.23,0,0,1-1.73-.6c-1.18-1.23-.23-3,.44-3.72a.27.27,0,0,1,.21-.09.32.32,0,0,1,.2.1s.36.49.82,1.2a.26.26,0,0,1,0,.27l0,.1a.76.76,0,0,0,.36.06A5.37,5.37,0,0,0,42,63.06c1.26-.31,2.23-.11,2.71.58S45,65,44.24,65.81a.25.25,0,0,1-.28.07.28.28,0,0,1-.18-.21c0-.07-.12-.1-.33-.1a7.14,7.14,0,0,0-1.13.15,10.68,10.68,0,0,1-1.78.21Z"/><path id="Trazado_118" data-name="Trazado 118" class="cls-6" d="M39.44,62.24c-.39.55-1.11,1.82-.25,2.73a1.81,1.81,0,0,0,1.35.43,10.68,10.68,0,0,0,1.69-.2,8.3,8.3,0,0,1,1.22-.15,1,1,0,0,1,.63.16c.5-.63.36-1,.19-1.25a1.32,1.32,0,0,0-1.19-.5,3.82,3.82,0,0,0-.95.13,5.85,5.85,0,0,1-1.32.2c-.42,0-.69-.11-.81-.32A.52.52,0,0,1,40,63C39.75,62.69,39.57,62.42,39.44,62.24Z"/></g></g></g><g id="Grupo_249" data-name="Grupo 249"><g id="Grupo_248" data-name="Grupo 248"><g id="Grupo_247" data-name="Grupo 247"><path id="Trazado_119" data-name="Trazado 119" class="cls-9" d="M46.1,74.37h-.05c-.34,0-.45-.4-.54-.71a1.63,1.63,0,0,0-.25-.57,3.38,3.38,0,0,0-.27-.26,1.7,1.7,0,0,1-.68-1.18,1.55,1.55,0,0,0,0-.22A1.65,1.65,0,0,0,43.74,70,2,2,0,0,0,43,69.6a2.35,2.35,0,0,1-1.56-1.15c-.8-1.36.71-2.76.77-2.81a.26.26,0,0,1,.2-.07.26.26,0,0,1,.19.1,5.42,5.42,0,0,1,1.11,1.71l.14,0a4.18,4.18,0,0,1,.61,0,1.82,1.82,0,0,1,.8.16A1.57,1.57,0,0,1,46,69.36a1.21,1.21,0,0,0,.4,1.34,1.12,1.12,0,0,1,.45.82,6,6,0,0,1-.48,2.74.44.44,0,0,1-.28.12Z"/><path id="Trazado_120" data-name="Trazado 120" class="cls-6" d="M42.34,66.24c-.32.38-.9,1.2-.47,1.94a1.87,1.87,0,0,0,1.26.91,2.42,2.42,0,0,1,1,.48,2.21,2.21,0,0,1,.75,1.83,1.7,1.7,0,0,0,0,.22,1.12,1.12,0,0,0,.5.81c.1.1.21.2.3.3a2,2,0,0,1,.37.77c0,.06,0,.13.06.2a8,8,0,0,0,.25-2.17c0-.17-.1-.27-.29-.45a1.72,1.72,0,0,1-.55-1.82c.13-.7,0-1.07-.5-1.32a1.35,1.35,0,0,0-.56-.1,5.09,5.09,0,0,0-.55,0l-.34,0a.39.39,0,0,1-.35-.15.32.32,0,0,1,0-.31h0A7.1,7.1,0,0,0,42.34,66.24Z"/></g></g></g><g id="Grupo_271" data-name="Grupo 271"><g id="Grupo_252" data-name="Grupo 252"><g id="Grupo_251" data-name="Grupo 251"><g id="Grupo_250" data-name="Grupo 250"><path id="Trazado_121" data-name="Trazado 121" class="cls-9" d="M34.58,55.19a.26.26,0,0,1-.21-.11l-2.09-2.91a3.07,3.07,0,0,1-.6.07,1.53,1.53,0,0,1-1.3-.6c-.55-.81,0-2.09,1.16-2.91a3.32,3.32,0,0,1,1.82-.62,1.52,1.52,0,0,1,1.31.6,1.76,1.76,0,0,1-.23,2l1.15,1.76a.27.27,0,0,1,0,.3A4.9,4.9,0,0,0,34.84,55a.24.24,0,0,1-.2.22Z"/><path id="Trazado_122" data-name="Trazado 122" class="cls-5" d="M32.4,51.6a.26.26,0,0,1,.21.11l1.81,2.53a5.25,5.25,0,0,1,.63-1.62L33.9,50.85a.27.27,0,0,1,0-.31A1.35,1.35,0,0,0,34.23,49a1,1,0,0,0-.86-.36,2.81,2.81,0,0,0-1.53.52c-.92.63-1.39,1.63-1,2.17a1,1,0,0,0,.87.37,2.25,2.25,0,0,0,.63-.11Z"/></g></g></g><g id="Grupo_255" data-name="Grupo 255"><g id="Grupo_254" data-name="Grupo 254"><g id="Grupo_253" data-name="Grupo 253"><path id="Trazado_123" data-name="Trazado 123" class="cls-9" d="M38.82,58.88h0A1.93,1.93,0,0,1,37,58.1a3,3,0,0,1-.1-2.84.29.29,0,0,1,.22-.15.28.28,0,0,1,.25.12l2.1,3.23a.27.27,0,0,1-.21.41Z"/><path id="Trazado_124" data-name="Trazado 124" class="cls-5" d="M37.24,56a2.36,2.36,0,0,0,.24,1.85c.23.37.61.52,1.31.53Z"/></g></g></g><g id="Grupo_260" data-name="Grupo 260"><g id="Grupo_257" data-name="Grupo 257"><g id="Grupo_256" data-name="Grupo 256"><path id="Trazado_125" data-name="Trazado 125" class="cls-9" d="M38.93,53.4a.34.34,0,0,1-.35.36.36.36,0,0,1-.36-.36.36.36,0,0,1,.36-.35h0A.35.35,0,0,1,38.93,53.4Z"/></g></g><g id="Grupo_259" data-name="Grupo 259"><g id="Grupo_258" data-name="Grupo 258"><path id="Trazado_126" data-name="Trazado 126" class="cls-9" d="M38.58,53.93a.53.53,0,1,1,0-1.06.52.52,0,0,1,.54.53h0A.53.53,0,0,1,38.58,53.93Zm0-.71a.18.18,0,1,0,.18.18h0A.19.19,0,0,0,38.58,53.22Z"/></g></g></g><g id="Grupo_263" data-name="Grupo 263"><g id="Grupo_262" data-name="Grupo 262"><g id="Grupo_261" data-name="Grupo 261"><path id="Trazado_127" data-name="Trazado 127" class="cls-9" d="M40.81,63.79h-.08a.25.25,0,0,1-.21-.11l-2.08-2.9a.31.31,0,0,1,0-.28.29.29,0,0,1,.24-.14,10.07,10.07,0,0,0,1.55-.17l.2,0h.06a.27.27,0,0,1,.22.12l1.86,2.85a.31.31,0,0,1,0,.25.29.29,0,0,1-.2.16l-.24.05A5.34,5.34,0,0,1,40.81,63.79Z"/><path id="Trazado_128" data-name="Trazado 128" class="cls-5" d="M39.16,60.87l1.71,2.39a5.15,5.15,0,0,0,1-.16l-1.56-2.39h0C39.92,60.78,39.54,60.83,39.16,60.87Z"/></g></g></g><g id="Grupo_270" data-name="Grupo 270"><g id="Grupo_266" data-name="Grupo 266"><g id="Grupo_265" data-name="Grupo 265"><g id="Grupo_264" data-name="Grupo 264"><path id="Trazado_129" data-name="Trazado 129" class="cls-9" d="M45.26,68.05a.28.28,0,0,1-.15,0L45,67.94a1.3,1.3,0,0,0-.56-.1,5.28,5.28,0,0,0-.55,0l-.18,0a.26.26,0,0,1-.24-.11L42.92,67c-.16-.25-.36-.52-.5-.7l-.5-.7a.28.28,0,0,1,0-.25.28.28,0,0,1,.2-.17l.13,0a5.56,5.56,0,0,1,1.47-.14.3.3,0,0,1,.19.12l1.58,2.43a.26.26,0,0,1,0,.37.31.31,0,0,1-.18.07Z"/><path id="Trazado_130" data-name="Trazado 130" class="cls-5" d="M42.6,65.68l.25.35c.14.18.34.45.51.71l.44.61h0c.2,0,.41,0,.61,0h.2L43.5,65.58a5.51,5.51,0,0,0-.9.1Z"/></g></g></g><g id="Grupo_269" data-name="Grupo 269"><g id="Grupo_268" data-name="Grupo 268"><g id="Grupo_267" data-name="Grupo 267"><path id="Trazado_131" data-name="Trazado 131" class="cls-9" d="M50.16,76.3a.3.3,0,0,1-.15,0l-.94-.64a.17.17,0,0,1-.06-.06l-2.63-3.67a.22.22,0,0,1,0-.16v-.19c0-.18-.1-.27-.29-.45a1.71,1.71,0,0,1-.56-1.82,1.85,1.85,0,0,0,0-.62.27.27,0,0,1,.22-.3.28.28,0,0,1,.27.12l4.11,6.32a.25.25,0,0,1,0,.09l.25,1.1a.24.24,0,0,1-.11.28A.25.25,0,0,1,50.16,76.3Z"/><path id="Trazado_132" data-name="Trazado 132" class="cls-5" d="M49.41,75.2l.34.23-.09-.4L46,69.42a1.18,1.18,0,0,0,.4,1.27,1.13,1.13,0,0,1,.46.82v.13Z"/></g></g></g></g></g><g id="Grupo_273" data-name="Grupo 273"><g id="Grupo_272" data-name="Grupo 272"><path id="Trazado_133" data-name="Trazado 133" class="cls-9" d="M48,90.84a.24.24,0,0,0-.23,0,13.33,13.33,0,0,1-1.35.34v.55c.34-.07.77-.17,1.16-.28,0,1.85,0,7.63-.06,9.06a24.44,24.44,0,0,0-4.1-.4,8.32,8.32,0,0,0-2.84.41.26.26,0,0,1-.16.15h-.08a.26.26,0,0,1-.21-.11s0,0,0,0a9.86,9.86,0,0,0-3-.44,11,11,0,0,0-3.77.67c0-2.23-.13-7-.16-8.23l.7.11v-.54c-.55-.08-.9-.15-.91-.16a.32.32,0,0,0-.23.06.28.28,0,0,0-.1.21c0,.07.18,6.62.18,8.93a.27.27,0,0,0,.12.22.25.25,0,0,0,.15,0l.1,0a10.38,10.38,0,0,1,3.93-.77,8.61,8.61,0,0,1,3.14.53.26.26,0,0,0,.23,0,6.6,6.6,0,0,1,2.94-.51,27,27,0,0,1,4.31.44A.25.25,0,0,0,48,101a.26.26,0,0,0,.1-.2c0-.08.06-8.3.06-9.74A.26.26,0,0,0,48,90.84Z"/></g></g><g id="Grupo_276" data-name="Grupo 276"><g id="Grupo_275" data-name="Grupo 275"><g id="Grupo_274" data-name="Grupo 274"><path id="Trazado_134" data-name="Trazado 134" class="cls-9" d="M27.23,82.38a4.83,4.83,0,0,1-4.05-2.2l-.1-.14.1-.15a4.84,4.84,0,0,1,6.69-1.41,5,5,0,0,1,1.41,1.41l.1.15-.1.14A4.85,4.85,0,0,1,27.23,82.38ZM23.72,80a4.31,4.31,0,0,0,6,1,4.4,4.4,0,0,0,1-1,4.31,4.31,0,0,0-6-1A4.44,4.44,0,0,0,23.72,80Z"/></g></g></g><g id="Grupo_279" data-name="Grupo 279"><g id="Grupo_278" data-name="Grupo 278"><g id="Grupo_277" data-name="Grupo 277"><path id="Trazado_135" data-name="Trazado 135" class="cls-9" d="M28.17,80a.94.94,0,1,1-.28-.67A.94.94,0,0,1,28.17,80Z"/></g></g></g><g id="Grupo_289" data-name="Grupo 289"><g id="Grupo_282" data-name="Grupo 282"><g id="Grupo_281" data-name="Grupo 281"><g id="Grupo_280" data-name="Grupo 280"><path id="Trazado_136" data-name="Trazado 136" class="cls-9" d="M6.08,103.7l-.4-.19,1.69-4.57,1.24.6Z"/><path id="Trazado_137" data-name="Trazado 137" class="cls-3" d="M7.63,99.55l-.72,1.94L8,99.72Z"/></g></g></g><g id="Grupo_285" data-name="Grupo 285"><g id="Grupo_284" data-name="Grupo 284"><g id="Grupo_283" data-name="Grupo 283"><path id="Trazado_138" data-name="Trazado 138" class="cls-9" d="M10.7,103.7,8.17,99.53l1.24-.6,1.69,4.57Z"/><path id="Trazado_139" data-name="Trazado 139" class="cls-3" d="M8.81,99.72l1.07,1.77-.72-1.94Z"/></g></g></g><g id="Grupo_288" data-name="Grupo 288"><g id="Grupo_287" data-name="Grupo 287"><g id="Grupo_286" data-name="Grupo 286"><path id="Trazado_140" data-name="Trazado 140" class="cls-9" d="M8.4,99.84a1.28,1.28,0,1,1,1.28-1.28h0A1.28,1.28,0,0,1,8.4,99.84Z"/><path id="Trazado_141" data-name="Trazado 141" class="cls-3" d="M8.4,97.81a.75.75,0,0,0,0,1.5.75.75,0,1,0,0-1.5Z"/></g></g></g></g><g id="Grupo_296" data-name="Grupo 296"><g id="Grupo_290" data-name="Grupo 290"><path id="Trazado_142" data-name="Trazado 142" class="cls-6" d="M11.53,71.82a2.39,2.39,0,0,0,4.77,0Z"/><path id="Trazado_143" data-name="Trazado 143" class="cls-9" d="M13.92,74.41a2.66,2.66,0,0,1-2.66-2.59.27.27,0,0,1,.27-.27H16.3a.27.27,0,0,1,.27.26h0A2.65,2.65,0,0,1,13.92,74.41Zm-2.1-2.33a2.12,2.12,0,0,0,4.19,0Z"/></g><g id="Grupo_291" data-name="Grupo 291"><path id="Trazado_144" data-name="Trazado 144" class="cls-6" d="M15,71.81H12.69l1.15-23Z"/><path id="Trazado_145" data-name="Trazado 145" class="cls-9" d="M15,72.08H12.69a.27.27,0,0,1-.26-.27h0l1.15-23a.26.26,0,0,1,.26-.25h0a.27.27,0,0,1,.27.25l1.16,23v0a.26.26,0,0,1-.26.27h0Zm-2-.53h1.75l-.88-17.44Z"/></g><g id="Grupo_292" data-name="Grupo 292"><rect id="Rect치ngulo_8" data-name="Rect치ngulo 8" class="cls-6" x="10.35" y="66.91" width="7.14" height="1.19"/><path id="Trazado_146" data-name="Trazado 146" class="cls-9" d="M17.48,68.37H10.35a.27.27,0,0,1-.27-.27h0V66.91a.27.27,0,0,1,.27-.26h7.13a.27.27,0,0,1,.27.26V68.1a.27.27,0,0,1-.26.27Zm-6.87-.54h6.61v-.65H10.61Z"/></g><g id="Grupo_293" data-name="Grupo 293"><line id="L칤nea_12" data-name="L칤nea 12" class="cls-10" x1="12.85" y1="69.81" x2="14.88" y2="68.11"/><path id="Trazado_147" data-name="Trazado 147" class="cls-9" d="M12.85,70.08a.27.27,0,0,1-.26-.27.22.22,0,0,1,.09-.2l2-1.7a.26.26,0,0,1,.34.4L13,70A.29.29,0,0,1,12.85,70.08Z"/></g><g id="Grupo_294" data-name="Grupo 294"><line id="L칤nea_13" data-name="L칤nea 13" class="cls-10" x1="12.78" y1="71.39" x2="14.84" y2="69.66"/><path id="Trazado_148" data-name="Trazado 148" class="cls-9" d="M12.78,71.66a.27.27,0,0,1-.27-.27.26.26,0,0,1,.1-.2l2.06-1.73a.27.27,0,0,1,.38,0,.26.26,0,0,1,0,.37h0L13,71.59A.36.36,0,0,1,12.78,71.66Z"/></g><g id="Grupo_295" data-name="Grupo 295"><path id="Trazado_149" data-name="Trazado 149" class="cls-6" d="M20.87,50.92H6.9L3.3,59.1a3.61,3.61,0,0,0,7.21,0L7.34,51.91h13.1L17.26,59.1a3.61,3.61,0,0,0,7.21,0ZM9.56,59H4.26L6.91,52.9Zm8.66,0,2.65-6.12L23.52,59Z"/><path id="Trazado_150" data-name="Trazado 150" class="cls-9" d="M20.87,62.87A3.85,3.85,0,0,1,17,59.1.52.52,0,0,1,17,59l3-6.82H7.75l3,6.82a.26.26,0,0,1,0,.11A3.88,3.88,0,0,1,3,59.1a.52.52,0,0,1,0-.11l3.6-8.18a.27.27,0,0,1,.25-.16h14a.25.25,0,0,1,.24.16L24.71,59a.26.26,0,0,1,0,.11,3.85,3.85,0,0,1-3.88,3.77Zm-3.34-3.72a3.34,3.34,0,0,0,6.68,0l-3.51-8H7.08l-3.51,8a3.34,3.34,0,0,0,6.67,0L7.09,52a.31.31,0,0,1,0-.25.27.27,0,0,1,.23-.12h13.1a.26.26,0,0,1,.24.37Zm6,.13h-5.3A.26.26,0,0,1,18,59a.14.14,0,0,1,0-.11l2.65-6.11a.26.26,0,0,1,.35-.14.24.24,0,0,1,.14.14l2.65,6.11a.26.26,0,0,1-.14.35l-.1,0Zm-4.9-.53h4.49l-2.24-5.18Zm-9.07.53H4.25A.26.26,0,0,1,4,59a.2.2,0,0,1,0-.11L6.66,52.8A.26.26,0,0,1,7,52.66a.32.32,0,0,1,.14.14L9.8,58.91a.26.26,0,0,1-.14.35l-.1,0Zm-4.9-.53H9.14L6.9,53.57Z"/></g></g></g></g></g></svg>