<svg xmlns="http://www.w3.org/2000/svg" viewBox="0 0 613.94 116.33"><defs><style>.cls-1,.cls-4{isolation:isolate;}.cls-2{fill:#225193;}.cls-3,.cls-4{fill:none;}.cls-3{stroke:#225193;}.cls-5{fill:#90000e;}</style></defs><title>favet-logo-2019</title><g id="Capa_2" data-name="Capa 2"><g id="Capa_1-2" data-name="Capa 1"><g id="Facultad_de_Arquitectura_y_Urbanismo" data-name="Facultad de Arquitectura y Urbanismo"><g class="cls-1"><path class="cls-2" d="M347.43,48.57a2.68,2.68,0,0,0-.25-.81,1.08,1.08,0,0,0-.4-.44,1.33,1.33,0,0,0-.6-.19,6.67,6.67,0,0,0-.83,0h-5.29c-.31,0-.49,0-.53.09a1.1,1.1,0,0,0-.07.53v6.18h5.16a5.47,5.47,0,0,0,.75,0,1.22,1.22,0,0,0,.53-.18,1,1,0,0,0,.33-.4,2.71,2.71,0,0,0,.17-.73h.35v4.08h-.35c0-.63-.21-1-.47-1.18a2.78,2.78,0,0,0-1.31-.23h-5.19l0,7.27a6.07,6.07,0,0,0,0,.71.62.62,0,0,0,.57.57,4.45,4.45,0,0,0,.71,0v.27h-4.94V63.8a4.25,4.25,0,0,0,.69,0,.62.62,0,0,0,.57-.57,4.45,4.45,0,0,0,0-.71V47.38a4.55,4.55,0,0,0,0-.7.78.78,0,0,0-.16-.4.65.65,0,0,0-.38-.18,4.25,4.25,0,0,0-.69,0v-.27h11.91l0,2.78Z"/><path class="cls-2" d="M359.47,63.48a8.18,8.18,0,0,1-1.26.63,1.34,1.34,0,0,1-.93.07,1.06,1.06,0,0,1-.59-.62,3.88,3.88,0,0,1-.25-1.44,6.85,6.85,0,0,1-1.83,1.61,4.45,4.45,0,0,1-2.32.64,4.25,4.25,0,0,1-1.41-.23,3.31,3.31,0,0,1-1.13-.68A3.25,3.25,0,0,1,349,62.4,3.38,3.38,0,0,1,348.7,61a3.19,3.19,0,0,1,.29-1.42,3.54,3.54,0,0,1,.79-1,4.92,4.92,0,0,1,1.13-.78c.43-.23.88-.44,1.35-.64a9.69,9.69,0,0,1,2.13-.69,13.24,13.24,0,0,0,2-.5V54.59a2.44,2.44,0,0,0-.29-1.19,2.56,2.56,0,0,0-.77-.83,3.54,3.54,0,0,0-1.08-.49,4.61,4.61,0,0,0-1.2-.16,2.35,2.35,0,0,0-.71.12,5.94,5.94,0,0,0-.75.31c-.25.13-.5.27-.73.42s-.44.29-.62.42L350,53c.18-.2.36-.39.54-.56a5.08,5.08,0,0,1,.57-.47,5.55,5.55,0,0,1,1.42-.81,4.44,4.44,0,0,1,1.58-.27,4.3,4.3,0,0,1,3.12,1,4.1,4.1,0,0,1,1.06,3.1v6.62c0,.09,0,.22,0,.4s0,.37.06.57a1.7,1.7,0,0,0,.17.51.32.32,0,0,0,.29.22,1.12,1.12,0,0,0,.37-.08,1.33,1.33,0,0,0,.34-.22Zm-4.78-6.11-1.31.38a6,6,0,0,0-1.28.58,3.33,3.33,0,0,0-1,.89,2.14,2.14,0,0,0-.38,1.31,2.32,2.32,0,0,0,.42,1.46,2,2,0,0,0,1,.74,2.87,2.87,0,0,0,1.35.1,3.53,3.53,0,0,0,1.34-.48,3.16,3.16,0,0,0,1-1,2.35,2.35,0,0,0,.42-1.38V56.94Z"/><path class="cls-2" d="M368.16,64.34a5.69,5.69,0,0,1-2.51-.53,5.11,5.11,0,0,1-1.79-1.41,6.15,6.15,0,0,1-1.08-2.08,8.63,8.63,0,0,1,.05-5.16,6.29,6.29,0,0,1,1.36-2.3,6.2,6.2,0,0,1,1.49-1.14,6.14,6.14,0,0,1,3.64-.79,5.24,5.24,0,0,1,1.81.53,3,3,0,0,1,1,1.09,1.11,1.11,0,0,1,.11.65c0,.21-.21.37-.51.47s-.41,0-.5-.13l-.38-.59a2.22,2.22,0,0,0-.7-.65,2.78,2.78,0,0,0-1.45-.3,4.17,4.17,0,0,0-2,.43,4,4,0,0,0-1.36,1.16,5.24,5.24,0,0,0-.81,1.68,7.1,7.1,0,0,0-.27,2,7.2,7.2,0,0,0,.3,2,6.23,6.23,0,0,0,.86,1.82,4.45,4.45,0,0,0,1.42,1.31,3.88,3.88,0,0,0,2,.5,5,5,0,0,0,1-.11,5.66,5.66,0,0,0,1-.32,5.19,5.19,0,0,0,.95-.54,2.29,2.29,0,0,0,.64-.73l.19.48A4.81,4.81,0,0,1,368.16,64.34Z"/><path class="cls-2" d="M384.2,64.18l-.24-.06,0-2.35a6.67,6.67,0,0,1-1.74,1.89,4.17,4.17,0,0,1-2.45.68,3.53,3.53,0,0,1-2.93-1.2,4.81,4.81,0,0,1-.95-3.07V52.38q0-.63-.21-.78a1.2,1.2,0,0,0-.74-.17v-.21h2.94l-.05,8.58a3.46,3.46,0,0,0,.43,1.84,2.47,2.47,0,0,0,1.11,1,2.7,2.7,0,0,0,1.44.21,3.37,3.37,0,0,0,2.57-1.6,3.11,3.11,0,0,0,.44-1.69V52.38c0-.45-.09-.72-.28-.81a2,2,0,0,0-.85-.14v-.21h3.13l-.05,11.31c0,.36.07.58.2.65a1.54,1.54,0,0,0,.66.11v.21Z"/><path class="cls-2" d="M390.22,64.07v-.22a1.84,1.84,0,0,0,1-.17c.15-.12.23-.44.23-1V46.57a2.12,2.12,0,0,0-.06-.59.28.28,0,0,0-.2-.23.8.8,0,0,0-.38,0,3.09,3.09,0,0,1-.58,0v-.57l.65-.19,1-.25c.33-.08.65-.15.94-.19a1.37,1.37,0,0,1,.61,0V62.8a.9.9,0,0,0,.35.82,1.72,1.72,0,0,0,1,.23v.22Z"/><path class="cls-2" d="M404.26,63.62a4,4,0,0,1-.69.4,4.5,4.5,0,0,1-.76.24,3.86,3.86,0,0,1-.71.08,2.78,2.78,0,0,1-1.39-.3,2.15,2.15,0,0,1-.82-.79,3.25,3.25,0,0,1-.41-1.17,8.8,8.8,0,0,1-.11-1.39V51.92h-2v-.57l1.94-.13a5.38,5.38,0,0,0,.66-1.65,11.6,11.6,0,0,1,.53-1.7.83.83,0,0,0,.24-.11,1.66,1.66,0,0,1,.27-.13.33.33,0,0,1,.23,0c.06,0,.1.08.1.19v3.43h2.94v.7h-2.94v8.77a6.23,6.23,0,0,0,.06.83,3.13,3.13,0,0,0,.25.82,1.89,1.89,0,0,0,.48.64,1.23,1.23,0,0,0,.8.25,3.86,3.86,0,0,0,.84-.09,2.44,2.44,0,0,0,.78-.34l.22.3A1.51,1.51,0,0,1,404.26,63.62Z"/><path class="cls-2" d="M418.46,63.48a8.6,8.6,0,0,1-1.25.63,1.37,1.37,0,0,1-.94.07,1.06,1.06,0,0,1-.59-.62,3.91,3.91,0,0,1-.24-1.44,7,7,0,0,1-1.84,1.61,4.42,4.42,0,0,1-2.32.64,4.19,4.19,0,0,1-1.4-.23,3.27,3.27,0,0,1-1.14-.68A3.2,3.2,0,0,1,407.69,61a3.33,3.33,0,0,1,.29-1.42,3.54,3.54,0,0,1,.79-1,4.92,4.92,0,0,1,1.13-.78c.43-.23.88-.44,1.35-.64a9.93,9.93,0,0,1,2.14-.69,13.89,13.89,0,0,0,2-.5V54.59a2.34,2.34,0,0,0-.3-1.19,2.56,2.56,0,0,0-.77-.83,3.44,3.44,0,0,0-1.08-.49,4.55,4.55,0,0,0-1.2-.16,2.29,2.29,0,0,0-.7.12,5.51,5.51,0,0,0-.76.31c-.25.13-.49.27-.73.42l-.62.42L409,53c.18-.2.36-.39.54-.56a6.06,6.06,0,0,1,.56-.47,5.55,5.55,0,0,1,1.42-.81,4.44,4.44,0,0,1,1.58-.27,4.3,4.3,0,0,1,3.12,1,4.1,4.1,0,0,1,1.07,3.1v6.62c0,.09,0,.22,0,.4a4,4,0,0,0,.07.57,1.7,1.7,0,0,0,.16.51.32.32,0,0,0,.3.22,1.07,1.07,0,0,0,.36-.08,1.05,1.05,0,0,0,.34-.22Zm-4.78-6.11-1.31.38a6.19,6.19,0,0,0-1.28.58,3.33,3.33,0,0,0-1,.89,2.21,2.21,0,0,0-.38,1.31,2.32,2.32,0,0,0,.42,1.46,2.07,2.07,0,0,0,1,.74,2.87,2.87,0,0,0,1.35.1,3.64,3.64,0,0,0,1.35-.48,3.37,3.37,0,0,0,1-1,2.35,2.35,0,0,0,.42-1.38V56.94Z"/><path class="cls-2" d="M430.61,64.2v-2a4.22,4.22,0,0,1-3.75,2.11,5.45,5.45,0,0,1-2.49-.53,4.68,4.68,0,0,1-1.67-1.41,6.31,6.31,0,0,1-1-2.08,9.71,9.71,0,0,1-.31-2.49,9.48,9.48,0,0,1,.34-2.54,6.71,6.71,0,0,1,1-2.21,5.35,5.35,0,0,1,1.77-1.57,5.09,5.09,0,0,1,2.49-.59,4,4,0,0,1,3.54,1.86V46.71c0-.15,0-.31,0-.5a.35.35,0,0,0-.31-.34,1.22,1.22,0,0,0-.33,0,1.11,1.11,0,0,1-.35,0v-.27l.66-.18,1-.24c.34-.08.77-.18,1.3-.28V62.5c0,.36.09.57.28.62a2,2,0,0,0,.74.06v.21Zm0-8a5,5,0,0,0-.52-2.39,3.68,3.68,0,0,0-1.33-1.47,3,3,0,0,0-1.71-.46,3.12,3.12,0,0,0-1.71.59A4.11,4.11,0,0,0,424,54.25a7.3,7.3,0,0,0-.52,3,8.18,8.18,0,0,0,.52,3.16,4.63,4.63,0,0,0,1.33,1.88,3.18,3.18,0,0,0,3.42.4,3.27,3.27,0,0,0,1.33-1.21,3.67,3.67,0,0,0,.52-2Z"/><path class="cls-2" d="M453.34,64.2v-2a4.22,4.22,0,0,1-3.75,2.11,5.38,5.38,0,0,1-2.48-.53,4.72,4.72,0,0,1-1.68-1.41,6.1,6.1,0,0,1-.95-2.08,9.71,9.71,0,0,1-.32-2.49,9.9,9.9,0,0,1,.34-2.54,6.92,6.92,0,0,1,1-2.21,5.45,5.45,0,0,1,1.77-1.57,5.11,5.11,0,0,1,2.5-.59,4,4,0,0,1,3.53,1.86V46.71c0-.15,0-.31,0-.5a.34.34,0,0,0-.31-.34,1.16,1.16,0,0,0-.32,0,1.08,1.08,0,0,1-.35,0v-.27l.66-.18,1-.24c.34-.08.78-.18,1.3-.28V62.5c0,.36.09.57.28.62a2.07,2.07,0,0,0,.74.06v.21Zm0-8a5,5,0,0,0-.53-2.39,3.66,3.66,0,0,0-1.32-1.47,3,3,0,0,0-1.72-.46,3.12,3.12,0,0,0-1.71.59,4.18,4.18,0,0,0-1.32,1.74,7.13,7.13,0,0,0-.53,3,8,8,0,0,0,.53,3.16A4.71,4.71,0,0,0,448,62.25a3.19,3.19,0,0,0,3.43.4,3.25,3.25,0,0,0,1.32-1.21,3.67,3.67,0,0,0,.53-2Z"/><path class="cls-2" d="M461.23,57a9.05,9.05,0,0,0,.28,2.07,6.07,6.07,0,0,0,.78,1.82,4.09,4.09,0,0,0,1.38,1.3,4.17,4.17,0,0,0,2.07.48,8.61,8.61,0,0,0,1.09-.08,5.89,5.89,0,0,0,1.12-.26,3.75,3.75,0,0,0,1-.48,2.45,2.45,0,0,0,.77-.8l.27.41a4.93,4.93,0,0,1-2.12,2.14,6.22,6.22,0,0,1-2.95.72,5.45,5.45,0,0,1-2.46-.51,4.9,4.9,0,0,1-1.69-1.39,5.94,5.94,0,0,1-1-2.06,9.45,9.45,0,0,1-.31-2.47,9.61,9.61,0,0,1,.34-2.55,6.77,6.77,0,0,1,1-2.24,5.21,5.21,0,0,1,1.77-1.59,5,5,0,0,1,2.52-.61,4.62,4.62,0,0,1,2.23.49,4.29,4.29,0,0,1,1.48,1.29,5.87,5.87,0,0,1,.88,1.87,12,12,0,0,1,.4,2.18l0,.27Zm6.38-2.45a4.49,4.49,0,0,0-.51-1.23,2.68,2.68,0,0,0-.88-.89,2.46,2.46,0,0,0-1.35-.34,3.12,3.12,0,0,0-2.54,1.15,4.31,4.31,0,0,0-.68,1.21,6.92,6.92,0,0,0-.37,1.44h6.56A7.1,7.1,0,0,0,467.61,54.57Z"/><path class="cls-2" d="M493.42,63.89a10.28,10.28,0,0,1-3.25.5,10.13,10.13,0,0,1-3.85-.69,8.08,8.08,0,0,1-2.87-1.93,8.17,8.17,0,0,1-1.81-3,11.47,11.47,0,0,1-.62-3.85,10.5,10.5,0,0,1,.65-3.76,8.83,8.83,0,0,1,1.85-3,8.35,8.35,0,0,1,2.88-2,9.53,9.53,0,0,1,3.77-.72,13.2,13.2,0,0,1,2.86.32l.42.12L494,46c.18.06.35.1.51.14a2.38,2.38,0,0,0,.41,0,.6.6,0,0,0,.64-.48h.3v1c0,.36,0,.72,0,1.1s0,.75-.06,1.11a4.79,4.79,0,0,1-.14.94,7.79,7.79,0,0,0-2.11-2.33,5.27,5.27,0,0,0-3-.8,6.94,6.94,0,0,0-3.13.66,6.29,6.29,0,0,0-2.17,1.77,7.55,7.55,0,0,0-1.27,2.59,11.5,11.5,0,0,0-.42,3.14,11.64,11.64,0,0,0,.43,3.18,7.48,7.48,0,0,0,1.31,2.58,6.24,6.24,0,0,0,2.22,1.73,7.38,7.38,0,0,0,3.17.63l1.4,0a12.29,12.29,0,0,0,1.5-.15,7.23,7.23,0,0,0,1.42-.38,3.89,3.89,0,0,0,1.21-.72l.11.46A7.65,7.65,0,0,1,493.42,63.89Z"/><path class="cls-2" d="M497.92,64.07v-.22a1.81,1.81,0,0,0,1-.17c.15-.12.23-.44.23-1V53a2,2,0,0,0-.07-.62.33.33,0,0,0-.2-.2.87.87,0,0,0-.37,0,1.86,1.86,0,0,1-.58-.06V52l2.65-.92.51,0V62.8a2.92,2.92,0,0,0,.08.82c.06.16.29.23.7.23v.22Zm2.81-16.81a1.15,1.15,0,0,1-1.57,0,1.41,1.41,0,0,1,0-1.86,1.15,1.15,0,0,1,1.57,0,1.41,1.41,0,0,1,0,1.86Z"/><path class="cls-2" d="M507,57a9.64,9.64,0,0,0,.28,2.07,6.35,6.35,0,0,0,.79,1.82,4.06,4.06,0,0,0,1.37,1.3,4.17,4.17,0,0,0,2.07.48,8.48,8.48,0,0,0,1.09-.08,5.89,5.89,0,0,0,1.12-.26,4,4,0,0,0,1-.48,2.56,2.56,0,0,0,.77-.8l.27.41a5,5,0,0,1-2.12,2.14,6.26,6.26,0,0,1-3,.72,5.51,5.51,0,0,1-2.46-.51,4.86,4.86,0,0,1-1.68-1.39,5.78,5.78,0,0,1-1-2.06,9.89,9.89,0,0,1-.31-2.47,10,10,0,0,1,.34-2.55,6.77,6.77,0,0,1,1-2.24,5.4,5.4,0,0,1,1.77-1.59,5,5,0,0,1,2.52-.61,4.6,4.6,0,0,1,2.23.49,4.32,4.32,0,0,1,1.49,1.29,6.08,6.08,0,0,1,.87,1.87,12,12,0,0,1,.41,2.18l0,.27Zm6.39-2.45a4.51,4.51,0,0,0-.52-1.23,2.56,2.56,0,0,0-.87-.89,2.46,2.46,0,0,0-1.35-.34,3.25,3.25,0,0,0-1.49.31,3.3,3.3,0,0,0-1,.84,4.1,4.1,0,0,0-.69,1.21,6.9,6.9,0,0,0-.36,1.44h6.56A9.17,9.17,0,0,0,513.38,54.57Z"/><path class="cls-2" d="M526.38,64.07v-.22c.46,0,.74-.07.83-.21a2,2,0,0,0,.14-.92V55.48a5.17,5.17,0,0,0-.14-1.19,2.7,2.7,0,0,0-.44-1,2.23,2.23,0,0,0-.8-.69,2.45,2.45,0,0,0-1.16-.26,3.1,3.1,0,0,0-2,.64,3.56,3.56,0,0,0-1.2,1.66c0,.07-.08.2-.15.4a1.7,1.7,0,0,0-.09.41V62.8c0,.31,0,.56,0,.76s.2.29.56.29v.22h-3.45v-.22c.45,0,.71-.07.79-.23a2.16,2.16,0,0,0,.13-.9V52.86a1.86,1.86,0,0,0-.06-.58c0-.09-.09-.15-.16-.16a.88.88,0,0,0-.3,0,1,1,0,0,1-.46,0v-.27l2.32-.81.52,0v2.37a7.15,7.15,0,0,1,1.77-1.82,4.13,4.13,0,0,1,2.44-.69,3.6,3.6,0,0,1,1.71.37,3.2,3.2,0,0,1,1.17,1,4.58,4.58,0,0,1,.66,1.43,6.89,6.89,0,0,1,.21,1.73V62.8a1.65,1.65,0,0,0,.17.72.61.61,0,0,0,.62.33v.22Z"/><path class="cls-2" d="M539.2,64.34a5.69,5.69,0,0,1-2.51-.53,5.11,5.11,0,0,1-1.79-1.41,6.35,6.35,0,0,1-1.09-2.08,8.66,8.66,0,0,1-.36-2.51,8.4,8.4,0,0,1,.42-2.65,6.29,6.29,0,0,1,1.36-2.3,6.2,6.2,0,0,1,1.49-1.14,6.14,6.14,0,0,1,3.64-.79,5.24,5.24,0,0,1,1.81.53,3,3,0,0,1,1,1.09,1.11,1.11,0,0,1,.11.65c0,.21-.21.37-.51.47s-.41,0-.5-.13l-.38-.59a2.33,2.33,0,0,0-.7-.65,2.78,2.78,0,0,0-1.45-.3,4.14,4.14,0,0,0-2,.43,4,4,0,0,0-1.36,1.16,5.24,5.24,0,0,0-.81,1.68,7.1,7.1,0,0,0-.27,2,7.2,7.2,0,0,0,.3,2,6,6,0,0,0,.86,1.82,4.45,4.45,0,0,0,1.42,1.31,3.88,3.88,0,0,0,2,.5,5,5,0,0,0,1-.11,5.66,5.66,0,0,0,1-.32,5.19,5.19,0,0,0,1-.54,2.29,2.29,0,0,0,.64-.73l.19.48A4.81,4.81,0,0,1,539.2,64.34Z"/><path class="cls-2" d="M546.09,64.07v-.22a1.8,1.8,0,0,0,.95-.17c.16-.12.23-.44.23-1V53a2.13,2.13,0,0,0-.06-.62.34.34,0,0,0-.21-.2.83.83,0,0,0-.36,0,1.83,1.83,0,0,1-.58-.06V52l2.65-.92.51,0V62.8a2.58,2.58,0,0,0,.08.82c.05.16.29.23.7.23v.22Zm2.8-16.81a1.14,1.14,0,0,1-1.56,0,1.41,1.41,0,0,1,0-1.86,1.14,1.14,0,0,1,1.56,0,1.41,1.41,0,0,1,0,1.86Z"/><path class="cls-2" d="M563.77,63.48a8.6,8.6,0,0,1-1.25.63,1.37,1.37,0,0,1-.94.07,1.06,1.06,0,0,1-.59-.62,3.91,3.91,0,0,1-.24-1.44,6.89,6.89,0,0,1-1.84,1.61,4.45,4.45,0,0,1-2.32.64,4.3,4.3,0,0,1-1.41-.23,3.31,3.31,0,0,1-1.13-.68A3.2,3.2,0,0,1,553,61a3.19,3.19,0,0,1,.3-1.42,3.35,3.35,0,0,1,.78-1,4.92,4.92,0,0,1,1.13-.78c.43-.23.88-.44,1.35-.64a10,10,0,0,1,2.13-.69,13.68,13.68,0,0,0,2-.5V54.59a2.34,2.34,0,0,0-.3-1.19,2.56,2.56,0,0,0-.77-.83,3.54,3.54,0,0,0-1.08-.49,4.61,4.61,0,0,0-1.2-.16,2.29,2.29,0,0,0-.7.12,5.51,5.51,0,0,0-.76.31c-.25.13-.5.27-.73.42l-.62.42-.24-.16c.18-.2.36-.39.54-.56a6.06,6.06,0,0,1,.56-.47,5.55,5.55,0,0,1,1.42-.81,4.44,4.44,0,0,1,1.58-.27,4.3,4.3,0,0,1,3.12,1,4.1,4.1,0,0,1,1.07,3.1v6.62c0,.09,0,.22,0,.4a4,4,0,0,0,.07.57,1.7,1.7,0,0,0,.16.51.32.32,0,0,0,.3.22,1.13,1.13,0,0,0,.36-.08,1.05,1.05,0,0,0,.34-.22ZM559,57.37l-1.31.38a6.19,6.19,0,0,0-1.28.58,3.33,3.33,0,0,0-1,.89,2.21,2.21,0,0,0-.38,1.31,2.32,2.32,0,0,0,.42,1.46,2.07,2.07,0,0,0,1,.74,2.87,2.87,0,0,0,1.35.1,3.64,3.64,0,0,0,1.35-.48,3.37,3.37,0,0,0,1-1,2.35,2.35,0,0,0,.42-1.38V56.94Z"/><path class="cls-2" d="M567.63,64.53l.08-3.59.22-.06a2.8,2.8,0,0,0,.71,1.39,3.59,3.59,0,0,0,1.19.84,3.71,3.71,0,0,0,1.41.3,3.48,3.48,0,0,0,1.35-.23,2.42,2.42,0,0,0,1-.73,1.85,1.85,0,0,0,.4-1.22,1.89,1.89,0,0,0-.48-1.31,5,5,0,0,0-1.16-.94,16.27,16.27,0,0,0-1.51-.8,8.88,8.88,0,0,1-1.51-.87,4.85,4.85,0,0,1-1.16-1.19,2.93,2.93,0,0,1-.47-1.72,3.29,3.29,0,0,1,.32-1.49,3.09,3.09,0,0,1,.88-1.1,3.88,3.88,0,0,1,1.28-.66,5.07,5.07,0,0,1,1.51-.23,4.71,4.71,0,0,1,1.47.22,12.3,12.3,0,0,0,1.45.35l.21-.43H575v3h-.19a3.26,3.26,0,0,0-1.4-1.67,3.64,3.64,0,0,0-1.83-.5,2.49,2.49,0,0,0-1.56.53,1.7,1.7,0,0,0-.66,1.43,1.65,1.65,0,0,0,.48,1.21A6.5,6.5,0,0,0,571,56c.48.28,1,.55,1.57.82a9.19,9.19,0,0,1,1.56.93A5.27,5.27,0,0,1,575.33,59a3.06,3.06,0,0,1,.48,1.74,3.26,3.26,0,0,1-1.21,2.65,4.13,4.13,0,0,1-1.46.78,5.46,5.46,0,0,1-1.65.25,7.42,7.42,0,0,1-1.24-.11c-.41-.07-.83-.15-1.24-.24l-.43-.11a2.26,2.26,0,0,0-.44-.08c-.07,0-.13.1-.18.31a1.89,1.89,0,0,1-.14.39Z"/></g><g class="cls-1"><path class="cls-2" d="M351.62,72.38a3.47,3.47,0,0,0-.44.79l-6.62,17.09h-1.1l-7-17a2.51,2.51,0,0,0-.52-.82,1.28,1.28,0,0,0-.88-.34v-.27h4.78v.27h-.52a.94.94,0,0,0-.4.11.4.4,0,0,0-.2.29.88.88,0,0,0,.09.51l5.51,13.88,5.07-13.29a1.49,1.49,0,0,0,.14-1.1c-.11-.24-.45-.37-1-.41v-.27h3.89v.27A1,1,0,0,0,351.62,72.38Z"/><path class="cls-2" d="M353.69,83a9.64,9.64,0,0,0,.28,2.07,6.35,6.35,0,0,0,.79,1.82,4.06,4.06,0,0,0,1.37,1.3,4.17,4.17,0,0,0,2.07.48,8.61,8.61,0,0,0,1.09-.08,5.89,5.89,0,0,0,1.12-.26,4,4,0,0,0,1-.48,2.56,2.56,0,0,0,.77-.8l.27.41a5,5,0,0,1-2.12,2.14,6.26,6.26,0,0,1-3,.72,5.51,5.51,0,0,1-2.46-.51,5,5,0,0,1-1.69-1.39,5.94,5.94,0,0,1-1-2.06,9.45,9.45,0,0,1-.31-2.47,9.61,9.61,0,0,1,.34-2.55,6.77,6.77,0,0,1,1-2.24,5.4,5.4,0,0,1,1.77-1.59,5,5,0,0,1,2.52-.61,4.6,4.6,0,0,1,2.23.49,4.2,4.2,0,0,1,1.48,1.29,5.87,5.87,0,0,1,.88,1.87,12,12,0,0,1,.41,2.18l0,.27Zm6.39-2.45a4.51,4.51,0,0,0-.52-1.23,2.56,2.56,0,0,0-.87-.89,2.5,2.5,0,0,0-1.36-.34,3.23,3.23,0,0,0-1.48.31,3.2,3.2,0,0,0-1.05.84,4.1,4.1,0,0,0-.69,1.21,7.6,7.6,0,0,0-.37,1.44h6.57A9.17,9.17,0,0,0,360.08,80.57Z"/><path class="cls-2" d="M371.38,89.62a4,4,0,0,1-.69.4,5.15,5.15,0,0,1-.76.24,3.86,3.86,0,0,1-.71.08,2.85,2.85,0,0,1-1.4-.3,2.22,2.22,0,0,1-.82-.79,3.24,3.24,0,0,1-.4-1.17,7.75,7.75,0,0,1-.11-1.39V77.92h-2v-.57l2-.13a5.94,5.94,0,0,0,.66-1.65,10.5,10.5,0,0,1,.53-1.7.83.83,0,0,0,.24-.11,1.66,1.66,0,0,1,.27-.13.32.32,0,0,1,.23,0c.06,0,.09.08.09.19v3.43h2.95v.7h-2.95v8.77a5,5,0,0,0,.07.83,3.12,3.12,0,0,0,.24.82,1.92,1.92,0,0,0,.49.64,1.22,1.22,0,0,0,.8.25,3.84,3.84,0,0,0,.83-.09,2.59,2.59,0,0,0,.79-.34l.21.3A1.57,1.57,0,0,1,371.38,89.62Z"/><path class="cls-2" d="M376.07,83a9.06,9.06,0,0,0,.29,2.07,6.07,6.07,0,0,0,.78,1.82,4,4,0,0,0,1.38,1.3,4.1,4.1,0,0,0,2.06.48,8.48,8.48,0,0,0,1.09-.08,6,6,0,0,0,1.13-.26,4.06,4.06,0,0,0,1-.48,2.56,2.56,0,0,0,.77-.8l.27.41a5,5,0,0,1-2.12,2.14,6.26,6.26,0,0,1-3,.72,5.51,5.51,0,0,1-2.46-.51,4.86,4.86,0,0,1-1.68-1.39,6,6,0,0,1-1-2.06,9.89,9.89,0,0,1-.31-2.47,10,10,0,0,1,.34-2.55,7,7,0,0,1,1-2.24,5.4,5.4,0,0,1,1.77-1.59,5,5,0,0,1,2.52-.61,4.57,4.57,0,0,1,2.23.49,4.32,4.32,0,0,1,1.49,1.29,5.85,5.85,0,0,1,.87,1.87,12,12,0,0,1,.41,2.18l0,.27Zm6.39-2.45a4.51,4.51,0,0,0-.52-1.23,2.56,2.56,0,0,0-.87-.89,2.46,2.46,0,0,0-1.35-.34,3.08,3.08,0,0,0-2.54,1.15,4.1,4.1,0,0,0-.69,1.21,6.9,6.9,0,0,0-.36,1.44h6.56A9.17,9.17,0,0,0,382.46,80.57Z"/><path class="cls-2" d="M391.76,90.07h-4.32v-.22c.47,0,.76-.06.89-.2a1.47,1.47,0,0,0,.19-.93V78.86a2.64,2.64,0,0,0,0-.6q-.06-.18-.18-.21a1.57,1.57,0,0,0-.32,0,1.36,1.36,0,0,1-.5-.07v-.13l2.4-.81.51,0v2.72a8.81,8.81,0,0,1,.58-1,5.32,5.32,0,0,1,.76-.92,3.63,3.63,0,0,1,.94-.66,2.72,2.72,0,0,1,1.18-.26,1.7,1.7,0,0,1,.8.22.85.85,0,0,1,.47.67c0,.09,0,.21,0,.35a1.89,1.89,0,0,1-.09.45,1.68,1.68,0,0,1-.22.42.79.79,0,0,1-.35.27.37.37,0,0,1-.42-.1,2.36,2.36,0,0,1-.28-.42,3.46,3.46,0,0,0-.31-.47.57.57,0,0,0-.47-.23,1.07,1.07,0,0,0-.58.19,4.24,4.24,0,0,0-.61.46,4.81,4.81,0,0,0-.54.57,4.16,4.16,0,0,0-.38.51,2.16,2.16,0,0,0-.38,1.21V88.8a2.35,2.35,0,0,0,.07.62.53.53,0,0,0,.22.31.86.86,0,0,0,.39.11h.62Z"/><path class="cls-2" d="M397.46,90.07v-.22a1.8,1.8,0,0,0,1-.17c.16-.12.23-.44.23-1V79a2.13,2.13,0,0,0-.06-.62.34.34,0,0,0-.21-.2.83.83,0,0,0-.36,0,1.83,1.83,0,0,1-.58-.06V78l2.64-.92.52,0V88.8a2.92,2.92,0,0,0,.08.82c.05.16.29.23.7.23v.22Zm2.8-16.81a1.14,1.14,0,0,1-1.56,0,1.41,1.41,0,0,1,0-1.86,1.14,1.14,0,0,1,1.56,0,1.38,1.38,0,0,1,0,1.86Z"/><path class="cls-2" d="M413.25,90.07v-.22q.71,0,.84-.21a2,2,0,0,0,.13-.92V81.48a5.17,5.17,0,0,0-.13-1.19,2.72,2.72,0,0,0-.45-1,2.2,2.2,0,0,0-.79-.69,2.52,2.52,0,0,0-1.17-.26,3.07,3.07,0,0,0-1.95.64,3.56,3.56,0,0,0-1.2,1.66,2.15,2.15,0,0,0-.15.4,1.42,1.42,0,0,0-.1.41V88.8c0,.31,0,.56,0,.76s.21.29.57.29v.22h-3.46v-.22c.45,0,.72-.07.8-.23a2.21,2.21,0,0,0,.12-.9V78.86a1.86,1.86,0,0,0-.06-.58.22.22,0,0,0-.16-.16.81.81,0,0,0-.29,0,1,1,0,0,1-.46,0v-.27l2.32-.81.51,0v2.37A7.15,7.15,0,0,1,410,77.61a4.16,4.16,0,0,1,2.44-.69,3.67,3.67,0,0,1,1.72.37,3.17,3.17,0,0,1,1.16,1A4.17,4.17,0,0,1,416,79.7a6.89,6.89,0,0,1,.22,1.73V88.8a1.64,1.64,0,0,0,.16.72.62.62,0,0,0,.62.33v.22Z"/><path class="cls-2" d="M430.37,89.48a8.18,8.18,0,0,1-1.26.63,1.34,1.34,0,0,1-.93.07,1.06,1.06,0,0,1-.59-.62,3.88,3.88,0,0,1-.25-1.44,6.85,6.85,0,0,1-1.83,1.61,4.45,4.45,0,0,1-2.32.64,4.25,4.25,0,0,1-1.41-.23,3.31,3.31,0,0,1-1.13-.68,3.25,3.25,0,0,1-.77-1.06A3.38,3.38,0,0,1,419.6,87a3.19,3.19,0,0,1,.29-1.42,3.54,3.54,0,0,1,.79-1,4.92,4.92,0,0,1,1.13-.78c.43-.23.88-.44,1.35-.64a9.87,9.87,0,0,1,2.13-.69,13.24,13.24,0,0,0,2-.5V80.59A2.44,2.44,0,0,0,427,79.4a2.56,2.56,0,0,0-.77-.83,3.54,3.54,0,0,0-1.08-.49,4.61,4.61,0,0,0-1.2-.16,2.4,2.4,0,0,0-.71.12,5.94,5.94,0,0,0-.75.31c-.25.13-.5.27-.73.42s-.44.29-.62.42l-.25-.16c.18-.2.36-.39.54-.56A5.08,5.08,0,0,1,422,78a5.55,5.55,0,0,1,1.42-.81,4.44,4.44,0,0,1,1.58-.27,4.3,4.3,0,0,1,3.12,1,4.1,4.1,0,0,1,1.06,3.1v6.62c0,.09,0,.22,0,.4s0,.37.06.57a1.7,1.7,0,0,0,.17.51.32.32,0,0,0,.29.22,1.12,1.12,0,0,0,.37-.08,1.17,1.17,0,0,0,.34-.22Zm-4.78-6.11-1.31.38a6,6,0,0,0-1.28.58,3.33,3.33,0,0,0-1,.89,2.14,2.14,0,0,0-.38,1.31,2.32,2.32,0,0,0,.42,1.46,2,2,0,0,0,1,.74,2.87,2.87,0,0,0,1.35.1,3.64,3.64,0,0,0,1.35-.48,3.34,3.34,0,0,0,1-.95,2.35,2.35,0,0,0,.42-1.38V82.94Z"/><path class="cls-2" d="M437.5,90.07h-4.32v-.22a1.3,1.3,0,0,0,.89-.2,1.54,1.54,0,0,0,.19-.93V78.86a2.06,2.06,0,0,0-.06-.6.25.25,0,0,0-.17-.21,1.64,1.64,0,0,0-.33,0,1.42,1.42,0,0,1-.5-.07v-.13l2.41-.81.51,0v2.72a7.55,7.55,0,0,1,.58-1,4.9,4.9,0,0,1,.76-.92,3.46,3.46,0,0,1,.94-.66,2.64,2.64,0,0,1,1.17-.26,1.67,1.67,0,0,1,.8.22.81.81,0,0,1,.47.67c0,.09,0,.21,0,.35a1.89,1.89,0,0,1-.09.45,2.1,2.1,0,0,1-.22.42.85.85,0,0,1-.35.27.37.37,0,0,1-.42-.1,2.36,2.36,0,0,1-.28-.42,4.76,4.76,0,0,0-.31-.47.59.59,0,0,0-.48-.23,1.1,1.1,0,0,0-.58.19,4.17,4.17,0,0,0-.6.46,4.81,4.81,0,0,0-.54.57,3.33,3.33,0,0,0-.38.51A2.16,2.16,0,0,0,436.2,81V88.8a2,2,0,0,0,.07.62.48.48,0,0,0,.21.31.86.86,0,0,0,.4.11h.62Z"/><path class="cls-2" d="M443.19,90.07v-.22a1.81,1.81,0,0,0,1-.17c.15-.12.23-.44.23-1V79a1.75,1.75,0,0,0-.07-.62.31.31,0,0,0-.2-.2.83.83,0,0,0-.36,0,1.81,1.81,0,0,1-.58-.06V78l2.64-.92.51,0V88.8a2.5,2.5,0,0,0,.09.82c0,.16.28.23.7.23v.22ZM446,73.26a1.12,1.12,0,0,1-.78.31,1.16,1.16,0,0,1-.79-.31,1.41,1.41,0,0,1,0-1.86,1.16,1.16,0,0,1,.79-.31,1.12,1.12,0,0,1,.78.31,1.41,1.41,0,0,1,0,1.86Z"/><path class="cls-2" d="M460.88,89.48a8.18,8.18,0,0,1-1.26.63,1.34,1.34,0,0,1-.93.07,1.06,1.06,0,0,1-.59-.62,3.88,3.88,0,0,1-.25-1.44A6.85,6.85,0,0,1,456,89.73a4.48,4.48,0,0,1-2.32.64,4.25,4.25,0,0,1-1.41-.23,3.31,3.31,0,0,1-1.13-.68,3.25,3.25,0,0,1-.77-1.06A3.38,3.38,0,0,1,450.1,87a3.19,3.19,0,0,1,.3-1.42,3.69,3.69,0,0,1,.78-1,5.21,5.21,0,0,1,1.14-.78c.43-.23.88-.44,1.35-.64a9.69,9.69,0,0,1,2.13-.69,13.24,13.24,0,0,0,2-.5V80.59a2.44,2.44,0,0,0-.29-1.19,2.56,2.56,0,0,0-.77-.83,3.54,3.54,0,0,0-1.08-.49,4.63,4.63,0,0,0-1.21-.16,2.39,2.39,0,0,0-.7.12,5.94,5.94,0,0,0-.75.31,7.33,7.33,0,0,0-.73.42c-.24.15-.44.29-.62.42l-.25-.16c.18-.2.36-.39.54-.56a5.08,5.08,0,0,1,.57-.47,5.55,5.55,0,0,1,1.42-.81,4.44,4.44,0,0,1,1.58-.27,4.3,4.3,0,0,1,3.12,1,4.1,4.1,0,0,1,1.06,3.1v6.62c0,.09,0,.22,0,.4s0,.37.06.57a1.7,1.7,0,0,0,.17.51.32.32,0,0,0,.29.22,1,1,0,0,0,.7-.3Zm-4.78-6.11c-.42.11-.85.24-1.31.38a6,6,0,0,0-1.28.58,3.5,3.5,0,0,0-1,.89,2.2,2.2,0,0,0-.37,1.31,2.39,2.39,0,0,0,.41,1.46,2.12,2.12,0,0,0,1,.74,2.93,2.93,0,0,0,1.36.1,3.53,3.53,0,0,0,1.34-.48,3.26,3.26,0,0,0,1-.95,2.35,2.35,0,0,0,.42-1.38V82.94Z"/><path class="cls-2" d="M464.74,90.53l.08-3.59.22-.06a2.8,2.8,0,0,0,.71,1.39,3.59,3.59,0,0,0,1.19.84,3.7,3.7,0,0,0,1.4.3,3.42,3.42,0,0,0,1.35-.23,2.39,2.39,0,0,0,1-.73,2.08,2.08,0,0,0-.08-2.53,5,5,0,0,0-1.16-.94,16.27,16.27,0,0,0-1.51-.8,8.88,8.88,0,0,1-1.51-.87,5.08,5.08,0,0,1-1.17-1.19,3,3,0,0,1-.47-1.72,3.3,3.3,0,0,1,.33-1.49,3,3,0,0,1,.87-1.1,3.94,3.94,0,0,1,1.29-.66,5.07,5.07,0,0,1,1.51-.23,4.71,4.71,0,0,1,1.47.22,12.62,12.62,0,0,0,1.44.35l.22-.43h.14v3h-.19a3.33,3.33,0,0,0-1.41-1.67,3.6,3.6,0,0,0-1.82-.5,2.52,2.52,0,0,0-1.57.53,1.7,1.7,0,0,0-.66,1.43,1.62,1.62,0,0,0,.49,1.21,5.89,5.89,0,0,0,1.2.91c.48.28,1,.55,1.57.82a10,10,0,0,1,1.56.93,5,5,0,0,1,1.2,1.24,3,3,0,0,1,.49,1.74,3.27,3.27,0,0,1-1.22,2.65,4,4,0,0,1-1.45.78,5.46,5.46,0,0,1-1.65.25,7.33,7.33,0,0,1-1.24-.11c-.42-.07-.83-.15-1.24-.24l-.44-.11a2,2,0,0,0-.43-.08c-.07,0-.13.1-.19.31a2.09,2.09,0,0,1-.13.39Z"/><path class="cls-2" d="M494.6,77.6a1.14,1.14,0,0,0-.24.4l-5,13.64c-.16.43-.35.89-.58,1.39a7,7,0,0,1-.82,1.37,4.69,4.69,0,0,1-1.11,1.07,2.42,2.42,0,0,1-1.43.43,4,4,0,0,1-.5-.05,3.9,3.9,0,0,1-.62-.18,2.16,2.16,0,0,1-.54-.3.55.55,0,0,1-.25-.41,1.27,1.27,0,0,1,0-.35,1.52,1.52,0,0,1,.16-.42,1.18,1.18,0,0,1,.26-.35.43.43,0,0,1,.31-.15.94.94,0,0,1,.71.24,1.57,1.57,0,0,1,.35.54c.09.2.16.38.24.55a.42.42,0,0,0,.35.29.71.71,0,0,0,.58-.31,5.3,5.3,0,0,0,.56-.89,10.1,10.1,0,0,0,.53-1.23c.16-.45.31-.88.45-1.3l.35-1.12c.1-.33.16-.56.2-.69l-4.83-11.88a.64.64,0,0,0-.31-.35,2.12,2.12,0,0,0-.48-.11v-.21h3.86v.21a2.31,2.31,0,0,0-.37,0,1.31,1.31,0,0,0-.33.09.32.32,0,0,0-.17.22.62.62,0,0,0,0,.39l3.59,9.24,3.32-9.56a.21.21,0,0,0,0-.19.72.72,0,0,0-.19-.14,1.1,1.1,0,0,0-.26-.06l-.21,0v-.21H495v.21A.69.69,0,0,0,494.6,77.6Z"/><path class="cls-2" d="M508.94,88.48a3.59,3.59,0,0,0,.05.74.68.68,0,0,0,.22.39.76.76,0,0,0,.43.16,6.54,6.54,0,0,0,.7,0v.27h-5V89.8a4,4,0,0,0,.66,0,.62.62,0,0,0,.57-.57,4.45,4.45,0,0,0,0-.71V73.38a4.55,4.55,0,0,0,0-.7.62.62,0,0,0-.57-.58,4,4,0,0,0-.66,0v-.27h6.1a9.85,9.85,0,0,1,2.37.28,6.48,6.48,0,0,1,2,.89,4.56,4.56,0,0,1,1.41,1.58,4.91,4.91,0,0,1,.53,2.35,5.15,5.15,0,0,1-.55,2.47A4.65,4.65,0,0,1,515.78,81a6,6,0,0,1-2.13.9,9.83,9.83,0,0,1-2.5.25l-2.21-.06Zm0-7.73,1.91.06a7,7,0,0,0,1.88-.18,3.77,3.77,0,0,0,1.46-.67,3.17,3.17,0,0,0,.94-1.24,4.61,4.61,0,0,0,.34-1.88,3.87,3.87,0,0,0-.36-1.73,3.16,3.16,0,0,0-1-1.17,4.14,4.14,0,0,0-1.44-.66,6.61,6.61,0,0,0-1.75-.22,3,3,0,0,1-.5,0,4.35,4.35,0,0,0-.52-.06,4.61,4.61,0,0,0-.53,0,.9.9,0,0,0-.44.16Z"/><path class="cls-2" d="M521.25,83a9.64,9.64,0,0,0,.28,2.07,6.07,6.07,0,0,0,.78,1.82,4,4,0,0,0,1.38,1.3,4.17,4.17,0,0,0,2.07.48,8.61,8.61,0,0,0,1.09-.08,5.89,5.89,0,0,0,1.12-.26,3.75,3.75,0,0,0,1-.48,2.36,2.36,0,0,0,.77-.8l.27.41a4.93,4.93,0,0,1-2.12,2.14,6.22,6.22,0,0,1-2.95.72,5.45,5.45,0,0,1-2.46-.51,4.9,4.9,0,0,1-1.69-1.39,5.94,5.94,0,0,1-1-2.06,9.45,9.45,0,0,1-.31-2.47,9.61,9.61,0,0,1,.34-2.55,6.77,6.77,0,0,1,1-2.24,5.27,5.27,0,0,1,1.76-1.59,5,5,0,0,1,2.53-.61,4.62,4.62,0,0,1,2.23.49,4.2,4.2,0,0,1,1.48,1.29,5.87,5.87,0,0,1,.88,1.87,12,12,0,0,1,.4,2.18l0,.27Zm6.38-2.45a4.2,4.2,0,0,0-.51-1.23,2.59,2.59,0,0,0-.88-.89,2.46,2.46,0,0,0-1.35-.34,3.23,3.23,0,0,0-1.48.31,3.1,3.1,0,0,0-1,.84,4.1,4.1,0,0,0-.69,1.21,6.35,6.35,0,0,0-.37,1.44h6.56A7.1,7.1,0,0,0,527.63,80.57Z"/><path class="cls-2" d="M539.55,90.34a5.69,5.69,0,0,1-2.51-.53,5.11,5.11,0,0,1-1.79-1.41,6.15,6.15,0,0,1-1.08-2.08,8.63,8.63,0,0,1,.05-5.16,6.29,6.29,0,0,1,1.36-2.3A6.61,6.61,0,0,1,538.84,77a6.18,6.18,0,0,1,1.87-.11,5.24,5.24,0,0,1,1.81.53,2.07,2.07,0,0,1,.54.45,2.46,2.46,0,0,1,.46.64,1,1,0,0,1,.11.65c0,.21-.21.37-.51.47a.38.38,0,0,1-.5-.13l-.38-.59a2.22,2.22,0,0,0-.7-.65,2.78,2.78,0,0,0-1.45-.3,3.94,3.94,0,0,0-3.32,1.59,5.24,5.24,0,0,0-.81,1.68,7.1,7.1,0,0,0-.27,2,7.2,7.2,0,0,0,.3,2,6.49,6.49,0,0,0,.86,1.82,4.45,4.45,0,0,0,1.42,1.31,3.89,3.89,0,0,0,2,.5,5,5,0,0,0,1-.11,5.66,5.66,0,0,0,1-.32,4.88,4.88,0,0,0,1-.54,2.33,2.33,0,0,0,.65-.73l.19.48A4.83,4.83,0,0,1,539.55,90.34Z"/><path class="cls-2" d="M555.59,90.18l-.24-.06,0-2.35a6.67,6.67,0,0,1-1.74,1.89,4.14,4.14,0,0,1-2.44.68,3.52,3.52,0,0,1-2.93-1.2,4.75,4.75,0,0,1-1-3.07V78.38c0-.42-.07-.68-.2-.78a1.25,1.25,0,0,0-.75-.17v-.21h3l-.06,8.58a3.55,3.55,0,0,0,.43,1.84,2.47,2.47,0,0,0,1.11,1,2.73,2.73,0,0,0,1.45.21,3.38,3.38,0,0,0,2.56-1.6,3.11,3.11,0,0,0,.45-1.69V78.38c0-.45-.1-.72-.29-.81a2,2,0,0,0-.85-.14v-.21h3.13l0,11.31c0,.36.07.58.2.65a1.54,1.54,0,0,0,.66.11v.21Z"/><path class="cls-2" d="M571.39,89.48a8.18,8.18,0,0,1-1.26.63,1.34,1.34,0,0,1-.93.07,1.11,1.11,0,0,1-.6-.62,4.14,4.14,0,0,1-.24-1.44,6.85,6.85,0,0,1-1.83,1.61,4.48,4.48,0,0,1-2.33.64,4.24,4.24,0,0,1-1.4-.23,3.31,3.31,0,0,1-1.13-.68,3.11,3.11,0,0,1-.77-1.06,3.38,3.38,0,0,1-.29-1.41,3.19,3.19,0,0,1,.3-1.42,3.69,3.69,0,0,1,.78-1,5.21,5.21,0,0,1,1.14-.78c.43-.23.88-.44,1.35-.64a9.69,9.69,0,0,1,2.13-.69,13.55,13.55,0,0,0,2-.5V80.59a2.38,2.38,0,0,0-1.07-2,3.34,3.34,0,0,0-1.08-.49,4.5,4.5,0,0,0-1.2-.16,2.34,2.34,0,0,0-.7.12,5.94,5.94,0,0,0-.75.31,7.33,7.33,0,0,0-.73.42q-.36.23-.63.42l-.24-.16c.18-.2.36-.39.54-.56A5.08,5.08,0,0,1,563,78a5.55,5.55,0,0,1,1.42-.81,4.38,4.38,0,0,1,1.57-.27,4.3,4.3,0,0,1,3.12,1,4.1,4.1,0,0,1,1.07,3.1v6.62c0,.09,0,.22,0,.4s0,.37.07.57a2,2,0,0,0,.16.51.32.32,0,0,0,.3.22,1,1,0,0,0,.36-.08,1.05,1.05,0,0,0,.34-.22Zm-4.78-6.11c-.42.11-.85.24-1.31.38a6.27,6.27,0,0,0-1.29.58,3.46,3.46,0,0,0-1,.89,2.21,2.21,0,0,0-.38,1.31,2.32,2.32,0,0,0,.42,1.46,2.12,2.12,0,0,0,1,.74,2.89,2.89,0,0,0,1.35.1,3.52,3.52,0,0,0,1.35-.48,3.26,3.26,0,0,0,1-.95,2.35,2.35,0,0,0,.42-1.38V82.94Z"/><path class="cls-2" d="M578.51,90.07h-4.32v-.22c.47,0,.77-.06.89-.2a1.47,1.47,0,0,0,.19-.93V78.86a2.64,2.64,0,0,0,0-.6q-.06-.18-.18-.21a1.57,1.57,0,0,0-.32,0,1.39,1.39,0,0,1-.5-.07v-.13l2.4-.81.52,0v2.72a7.55,7.55,0,0,1,.58-1,4.86,4.86,0,0,1,.75-.92,3.68,3.68,0,0,1,.95-.66,2.64,2.64,0,0,1,1.17-.26,1.7,1.7,0,0,1,.8.22.83.83,0,0,1,.47.67c0,.09,0,.21,0,.35a1.53,1.53,0,0,1-.1.45,1.65,1.65,0,0,1-.21.42.85.85,0,0,1-.35.27.37.37,0,0,1-.42-.1,2.37,2.37,0,0,1-.29-.42,3.46,3.46,0,0,0-.31-.47.56.56,0,0,0-.47-.23,1.1,1.1,0,0,0-.58.19,4.24,4.24,0,0,0-.61.46,5.79,5.79,0,0,0-.54.57,4,4,0,0,0-.37.51,2.09,2.09,0,0,0-.38,1.21V88.8a2.43,2.43,0,0,0,.06.62.53.53,0,0,0,.22.31.86.86,0,0,0,.39.11h.62Z"/><path class="cls-2" d="M584.21,90.07v-.22a1.81,1.81,0,0,0,1-.17c.15-.12.23-.44.23-1V79a1.75,1.75,0,0,0-.07-.62.31.31,0,0,0-.2-.2.87.87,0,0,0-.37,0,1.86,1.86,0,0,1-.58-.06V78l2.65-.92.51,0V88.8a2.92,2.92,0,0,0,.08.82c.06.16.29.23.7.23v.22ZM587,73.26a1.15,1.15,0,0,1-1.57,0,1.41,1.41,0,0,1,0-1.86,1.15,1.15,0,0,1,1.57,0,1.41,1.41,0,0,1,0,1.86Z"/><path class="cls-2" d="M601.9,89.48a8.18,8.18,0,0,1-1.26.63,1.34,1.34,0,0,1-.93.07,1.11,1.11,0,0,1-.6-.62,4.14,4.14,0,0,1-.24-1.44A6.74,6.74,0,0,1,597,89.73a4.42,4.42,0,0,1-2.32.64,4.24,4.24,0,0,1-1.4-.23,3.46,3.46,0,0,1-1.14-.68,3.4,3.4,0,0,1-.77-1.06,3.55,3.55,0,0,1-.28-1.41,3.19,3.19,0,0,1,.3-1.42,3.69,3.69,0,0,1,.78-1,5,5,0,0,1,1.14-.78c.43-.23.88-.44,1.35-.64a9.69,9.69,0,0,1,2.13-.69,13.55,13.55,0,0,0,2-.5V80.59a2.34,2.34,0,0,0-.3-1.19,2.46,2.46,0,0,0-.77-.83,3.34,3.34,0,0,0-1.08-.49,4.5,4.5,0,0,0-1.2-.16,2.34,2.34,0,0,0-.7.12,6.07,6.07,0,0,0-.76.31c-.25.13-.49.27-.73.42l-.62.42-.24-.16c.18-.2.36-.39.54-.56a5.08,5.08,0,0,1,.57-.47,5.67,5.67,0,0,1,1.41-.81,4.48,4.48,0,0,1,1.58-.27,4.3,4.3,0,0,1,3.12,1,4.1,4.1,0,0,1,1.07,3.1v6.62c0,.09,0,.22,0,.4s0,.37.07.57a2,2,0,0,0,.16.51.32.32,0,0,0,.3.22,1,1,0,0,0,.36-.08,1.05,1.05,0,0,0,.34-.22Zm-4.78-6.11c-.42.11-.85.24-1.31.38a6.27,6.27,0,0,0-1.29.58,3.46,3.46,0,0,0-1,.89,2.21,2.21,0,0,0-.38,1.31,2.32,2.32,0,0,0,.42,1.46,2.12,2.12,0,0,0,1,.74,2.89,2.89,0,0,0,1.35.1,3.52,3.52,0,0,0,1.35-.48,3.26,3.26,0,0,0,1-.95,2.35,2.35,0,0,0,.42-1.38V82.94Z"/><path class="cls-2" d="M605.76,90.53l.08-3.59.21-.06a2.89,2.89,0,0,0,.72,1.39,3.49,3.49,0,0,0,1.19.84,3.66,3.66,0,0,0,1.4.3,3.45,3.45,0,0,0,1.35-.23,2.45,2.45,0,0,0,1-.73,1.9,1.9,0,0,0,.39-1.22,1.93,1.93,0,0,0-.47-1.31,5.23,5.23,0,0,0-1.16-.94,16.49,16.49,0,0,0-1.52-.8,8.88,8.88,0,0,1-1.51-.87,5,5,0,0,1-1.16-1.19,3,3,0,0,1-.47-1.72,3.43,3.43,0,0,1,.32-1.49,3.09,3.09,0,0,1,.88-1.1,4,4,0,0,1,1.28-.66,5.13,5.13,0,0,1,1.52-.23,4.71,4.71,0,0,1,1.47.22,12.62,12.62,0,0,0,1.44.35l.22-.43h.13v3h-.19a3.26,3.26,0,0,0-1.4-1.67,3.6,3.6,0,0,0-1.82-.5,2.5,2.5,0,0,0-1.57.53,1.7,1.7,0,0,0-.66,1.43,1.65,1.65,0,0,0,.48,1.21,6.27,6.27,0,0,0,1.21.91c.47.28,1,.55,1.56.82a9.7,9.7,0,0,1,1.57.93,5,5,0,0,1,1.2,1.24,3.07,3.07,0,0,1,.49,1.74,3.27,3.27,0,0,1-1.22,2.65,4,4,0,0,1-1.46.78,5.44,5.44,0,0,1-1.64.25,7.54,7.54,0,0,1-1.25-.11L607.13,90l-.43-.11a2.17,2.17,0,0,0-.43-.08c-.07,0-.14.1-.19.31a1.43,1.43,0,0,1-.14.39Z"/></g></g><g id="UNIVERSIDAD_DE_CHILE" data-name="UNIVERSIDAD DE CHILE"><g class="cls-1"><path class="cls-2" d="M347.5,102.62a.58.58,0,0,0-.46.17,1,1,0,0,0-.22.41,2.1,2.1,0,0,0-.06.51v7.5a4.87,4.87,0,0,1-1.33,3.7,6,6,0,0,1-7.47,0,5,5,0,0,1-1.32-3.73v-7.58a2.06,2.06,0,0,0-.1-.71c-.06-.18-.27-.26-.62-.26h-.3v-.21h3.72v.21h-.51a.68.68,0,0,0-.3.12.61.61,0,0,0-.15.3,3.74,3.74,0,0,0,0,.54v7.62a4.58,4.58,0,0,0,.85,2.91A3.32,3.32,0,0,0,342,115.2a3.63,3.63,0,0,0,2.73-1,3.77,3.77,0,0,0,1-2.75v-7.91a1.18,1.18,0,0,0-.09-.5.64.64,0,0,0-.31-.32,1.53,1.53,0,0,0-.64-.1v-.21h3.18v.21Z"/><path class="cls-2" d="M362.22,102.7a.64.64,0,0,0-.31.27,1.21,1.21,0,0,0-.1.47c0,.18,0,.4,0,.65v12h-1l-8-11.47v9.74c0,.25,0,.47,0,.64a1.11,1.11,0,0,0,.1.45.51.51,0,0,0,.31.26,1.76,1.76,0,0,0,.62.08v.2h-3.22v-.2a1.78,1.78,0,0,0,.64-.08.52.52,0,0,0,.32-.25.81.81,0,0,0,.11-.43c0-.19,0-.41,0-.67V103.45c-.08-.17-.14-.31-.2-.42a.8.8,0,0,0-.18-.27.41.41,0,0,0-.25-.11,1.81,1.81,0,0,0-.45,0v-.21h2.64q1.84,2.79,3.74,5.46t3.74,5.46v-9.24c0-.26,0-.49,0-.68a1.08,1.08,0,0,0-.1-.46.49.49,0,0,0-.32-.25,1.87,1.87,0,0,0-.65-.08v-.21h3.24v.21A2.08,2.08,0,0,0,362.22,102.7Z"/><path class="cls-2" d="M365.72,116v-.2h.55a.62.62,0,0,0,.33-.12.39.39,0,0,0,.16-.29,2.69,2.69,0,0,0,0-.55V103.59a2.69,2.69,0,0,0,0-.55.39.39,0,0,0-.16-.29.71.71,0,0,0-.33-.12h-.55v-.21h3.88v.21h-.55a.71.71,0,0,0-.33.12.43.43,0,0,0-.16.29,3.67,3.67,0,0,0,0,.55v11.19a3.67,3.67,0,0,0,0,.55.43.43,0,0,0,.16.29.62.62,0,0,0,.33.12h.55v.2Z"/><path class="cls-2" d="M384.27,102.86a2.61,2.61,0,0,0-.33.58L379,116.09h-.82l-5.16-12.62a1.64,1.64,0,0,0-.39-.6.9.9,0,0,0-.65-.25v-.21h3.54v.21h-.38a.82.82,0,0,0-.3.08.32.32,0,0,0-.15.21.73.73,0,0,0,.07.38l4.08,10.29,3.76-9.84a1.13,1.13,0,0,0,.1-.83c-.08-.17-.33-.27-.76-.29v-.21h2.88v.21A.72.72,0,0,0,384.27,102.86Z"/><path class="cls-2" d="M394.84,116h-9.12v-.2c.42,0,.68,0,.78-.17a1.26,1.26,0,0,0,.16-.8V103.59a1.26,1.26,0,0,0-.16-.8c-.1-.12-.36-.17-.78-.17v-.21h8.92l0,2.06h-.28c-.07-.5-.22-.81-.47-.93a2.67,2.67,0,0,0-1.07-.17h-4c-.23,0-.35,0-.39.08a.86.86,0,0,0-.05.38v4.58h4.06a3.15,3.15,0,0,0,.56,0,.75.75,0,0,0,.39-.13.55.55,0,0,0,.23-.3,2,2,0,0,0,.12-.54H394v3h-.26a2.24,2.24,0,0,0-.12-.57.64.64,0,0,0-.23-.3.82.82,0,0,0-.38-.15l-.57,0h-4.06v5.22a.3.3,0,0,0,.11.26.52.52,0,0,0,.26.12,1.71,1.71,0,0,0,.32,0h3.59a6.48,6.48,0,0,0,.83,0,2,2,0,0,0,.63-.21,1.61,1.61,0,0,0,.5-.44,3,3,0,0,0,.42-.72h.32Z"/><path class="cls-2" d="M405.94,116c-.32-.7-.64-1.34-1-1.91a16.12,16.12,0,0,0-1-1.59,14.66,14.66,0,0,0-1.22-1.41c-.44-.46-.94-.93-1.5-1.42h-1.44v5.15a3.74,3.74,0,0,0,0,.54.7.7,0,0,0,.14.3.59.59,0,0,0,.3.12h.52v.2h-3.64v-.2a2.28,2.28,0,0,0,.49,0,.45.45,0,0,0,.42-.42,3.45,3.45,0,0,0,0-.52V103.59a3.49,3.49,0,0,0,0-.51.47.47,0,0,0-.13-.3.42.42,0,0,0-.29-.13,2.28,2.28,0,0,0-.49,0v-.21h4.78a7.18,7.18,0,0,1,1.69.2,4.28,4.28,0,0,1,1.43.6,3,3,0,0,1,1,1.11,3.42,3.42,0,0,1,.37,1.68,3,3,0,0,1-.28,1.33,2.84,2.84,0,0,1-.76,1,4.19,4.19,0,0,1-1.1.62,5.19,5.19,0,0,1-1.3.34c.39.33.7.6.94.83s.45.44.63.64.36.43.53.65l.62.76a8.9,8.9,0,0,1,.76,1.13l.67,1.19c.21.36.4.67.57.92s.34.38.5.38v.2Zm-6.16-7.28h1a7.32,7.32,0,0,0,1.41-.13,3.67,3.67,0,0,0,1.25-.46,2.45,2.45,0,0,0,.9-.88,2.65,2.65,0,0,0,.34-1.41,2.33,2.33,0,0,0-.28-1.21,1.81,1.81,0,0,0-.75-.75,3.23,3.23,0,0,0-1.07-.38,8.25,8.25,0,0,0-1.22-.09h-.82a1.89,1.89,0,0,0-.41.1.9.9,0,0,0-.31.23Z"/><path class="cls-2" d="M411,115.69a.34.34,0,0,0-.1.25h-.24l-.1-2.93,0-.06h.18a3.47,3.47,0,0,0,1,1.38,3.88,3.88,0,0,0,1.29.75,3.64,3.64,0,0,0,1.38.2,3.27,3.27,0,0,0,1.27-.34,2.46,2.46,0,0,0,.92-.83,2.28,2.28,0,0,0,.35-1.25,2.2,2.2,0,0,0-.47-1.45,5.17,5.17,0,0,0-1.17-1,14.72,14.72,0,0,0-1.53-.91,9.88,9.88,0,0,1-1.53-1,4.92,4.92,0,0,1-1.17-1.24,3.14,3.14,0,0,1-.47-1.76,2.83,2.83,0,0,1,.33-1.39,3.55,3.55,0,0,1,.87-1.06,4.07,4.07,0,0,1,1.23-.67,4.52,4.52,0,0,1,1.41-.22,5.69,5.69,0,0,1,.83.06,7.91,7.91,0,0,1,.81.19l.22.08.39.1.39.11.2,0a.39.39,0,0,0,.38-.38h.22c.06.5.1,1,.15,1.53a9.57,9.57,0,0,1,0,1.51h-.22a3,3,0,0,0-.78-1.25,3.54,3.54,0,0,0-1.15-.76,3.3,3.3,0,0,0-1.31-.27,3,3,0,0,0-1.21.24,2.36,2.36,0,0,0-.9.72,2,2,0,0,0-.35,1.19,1.61,1.61,0,0,0,.29.94,4.1,4.1,0,0,0,.69.75,12.14,12.14,0,0,0,1.1.78c.39.25.78.47,1.18.69l-.14-.07a13.25,13.25,0,0,1,1.27.75,6,6,0,0,1,1.09.89,3.79,3.79,0,0,1,.76,1.14,3.46,3.46,0,0,1,.28,1.44,3,3,0,0,1-.38,1.53,3.47,3.47,0,0,1-1,1.13,4.44,4.44,0,0,1-1.37.7,4.78,4.78,0,0,1-1.54.25,6.43,6.43,0,0,1-1.6-.2l-1.56-.42A.38.38,0,0,0,411,115.69Z"/><path class="cls-2" d="M421,116v-.2h.55a.62.62,0,0,0,.33-.12.39.39,0,0,0,.16-.29,2.69,2.69,0,0,0,0-.55V103.59a2.69,2.69,0,0,0,0-.55.39.39,0,0,0-.16-.29.71.71,0,0,0-.33-.12H421v-.21h3.88v.21h-.55a.71.71,0,0,0-.33.12.43.43,0,0,0-.16.29,2.69,2.69,0,0,0,0,.55v11.19a2.69,2.69,0,0,0,0,.55.43.43,0,0,0,.16.29.62.62,0,0,0,.33.12h.55v.2Z"/><path class="cls-2" d="M427.74,115.75h.5a.52.52,0,0,0,.3-.12.6.6,0,0,0,.14-.3,2.7,2.7,0,0,0,0-.54V103.59a2.7,2.7,0,0,0,0-.54.6.6,0,0,0-.14-.3.52.52,0,0,0-.3-.12h-.5v-.21h4.64a10.27,10.27,0,0,1,3,.42,6.17,6.17,0,0,1,2.35,1.25,5.52,5.52,0,0,1,1.52,2.12,7.67,7.67,0,0,1,.54,3,7.92,7.92,0,0,1-.46,2.74,5.39,5.39,0,0,1-1.6,2.25,6.61,6.61,0,0,1-2.6,1.38,11.61,11.61,0,0,1-2.94.37h-4.48Zm2.68-1.24a.32.32,0,0,0,.14.28,1.07,1.07,0,0,0,.34.16,1.83,1.83,0,0,0,.4,0h.3a10.05,10.05,0,0,0,2.66-.32,5.47,5.47,0,0,0,2-1,4.66,4.66,0,0,0,1.3-1.82,7.88,7.88,0,0,0,0-5.25,4.66,4.66,0,0,0-1.25-1.8,5.12,5.12,0,0,0-2-1.08,8.89,8.89,0,0,0-2.57-.34,4.76,4.76,0,0,0-.74,0,1.44,1.44,0,0,0-.68.3Z"/><path class="cls-2" d="M450.06,116v-.2a1.07,1.07,0,0,0,.68-.17c.15-.11.15-.33,0-.67l-1.24-3h-6l-1.12,2.8a1.21,1.21,0,0,0-.13.8c.06.19.3.28.73.28v.2h-2.8v-.2a.77.77,0,0,0,.41-.13,1.64,1.64,0,0,0,.3-.29,1.28,1.28,0,0,0,.22-.36c.06-.13.12-.26.17-.39l5.12-12.3h1.1l5.32,12.81a1.07,1.07,0,0,0,.86.66v.2Zm-3.54-11.58-2.64,6.53h5.28Z"/><path class="cls-2" d="M455.3,115.75h.5a.59.59,0,0,0,.3-.12.6.6,0,0,0,.14-.3,2.7,2.7,0,0,0,0-.54V103.59a2.7,2.7,0,0,0,0-.54.6.6,0,0,0-.14-.3.59.59,0,0,0-.3-.12h-.5v-.21h4.64a10.27,10.27,0,0,1,3,.42,6.17,6.17,0,0,1,2.35,1.25,5.42,5.42,0,0,1,1.52,2.12,7.67,7.67,0,0,1,.54,3,7.92,7.92,0,0,1-.46,2.74,5.48,5.48,0,0,1-1.6,2.25,6.61,6.61,0,0,1-2.6,1.38,11.61,11.61,0,0,1-2.94.37H455.3Zm2.68-1.24a.32.32,0,0,0,.14.28,1.07,1.07,0,0,0,.34.16,1.83,1.83,0,0,0,.4,0h.3a10.05,10.05,0,0,0,2.66-.32,5.47,5.47,0,0,0,2-1,4.77,4.77,0,0,0,1.3-1.82,6.94,6.94,0,0,0,.46-2.67,6.77,6.77,0,0,0-.44-2.58,4.66,4.66,0,0,0-1.25-1.8,5.12,5.12,0,0,0-2-1.08,8.93,8.93,0,0,0-2.57-.34,4.68,4.68,0,0,0-.74,0,1.44,1.44,0,0,0-.68.3Z"/><path class="cls-2" d="M475.66,115.75h.5a.56.56,0,0,0,.3-.12.6.6,0,0,0,.14-.3,2.7,2.7,0,0,0,0-.54V103.59a2.7,2.7,0,0,0,0-.54.6.6,0,0,0-.14-.3.56.56,0,0,0-.3-.12h-.5v-.21h4.64a10.27,10.27,0,0,1,3,.42,6.17,6.17,0,0,1,2.35,1.25,5.52,5.52,0,0,1,1.52,2.12,7.67,7.67,0,0,1,.54,3,7.92,7.92,0,0,1-.46,2.74,5.48,5.48,0,0,1-1.6,2.25,6.61,6.61,0,0,1-2.6,1.38,11.61,11.61,0,0,1-2.94.37h-4.48Zm2.68-1.24a.32.32,0,0,0,.14.28,1.07,1.07,0,0,0,.34.16,1.83,1.83,0,0,0,.4,0h.3a10.05,10.05,0,0,0,2.66-.32,5.47,5.47,0,0,0,2-1,4.77,4.77,0,0,0,1.3-1.82,7.88,7.88,0,0,0,0-5.25,4.66,4.66,0,0,0-1.25-1.8,5.12,5.12,0,0,0-2-1.08,8.93,8.93,0,0,0-2.57-.34,4.68,4.68,0,0,0-.74,0,1.44,1.44,0,0,0-.68.3Z"/><path class="cls-2" d="M498.94,116h-9.12v-.2c.41,0,.67,0,.78-.17a1.26,1.26,0,0,0,.16-.8V103.59a1.26,1.26,0,0,0-.16-.8c-.11-.12-.37-.17-.78-.17v-.21h8.92l0,2.06h-.28c-.07-.5-.22-.81-.47-.93a2.71,2.71,0,0,0-1.07-.17h-4c-.23,0-.36,0-.39.08a.86.86,0,0,0-.05.38v4.58h4.06a3.21,3.21,0,0,0,.56,0,.75.75,0,0,0,.39-.13.55.55,0,0,0,.23-.3,2.44,2.44,0,0,0,.12-.54h.26v3h-.26a2.78,2.78,0,0,0-.12-.57.64.64,0,0,0-.23-.3.87.87,0,0,0-.38-.15l-.57,0h-4.06v5.22a.3.3,0,0,0,.11.26.48.48,0,0,0,.26.12,1.71,1.71,0,0,0,.32,0h3.59a6.48,6.48,0,0,0,.83,0,2.13,2.13,0,0,0,.63-.21,1.72,1.72,0,0,0,.5-.44,3,3,0,0,0,.42-.72h.32Z"/><path class="cls-2" d="M516.47,115.83a8,8,0,0,1-2.41.37,7.47,7.47,0,0,1-2.85-.51,6.22,6.22,0,0,1-2.13-1.44,6,6,0,0,1-1.34-2.21,8.25,8.25,0,0,1-.46-2.84,7.9,7.9,0,0,1,.48-2.79,6.67,6.67,0,0,1,1.37-2.25,6.2,6.2,0,0,1,2.14-1.47,6.94,6.94,0,0,1,2.79-.53,9.57,9.57,0,0,1,2.12.24l.31.09.39.1.38.11a2.08,2.08,0,0,0,.3,0,.46.46,0,0,0,.48-.37h.22v.75c0,.26,0,.54,0,.82s0,.55,0,.81a4.12,4.12,0,0,1-.11.7,5.9,5.9,0,0,0-1.56-1.73,3.9,3.9,0,0,0-2.24-.59,5.22,5.22,0,0,0-2.32.49,4.63,4.63,0,0,0-1.61,1.32,5.56,5.56,0,0,0-.94,1.92,8.32,8.32,0,0,0-.31,2.31,8.64,8.64,0,0,0,.32,2.37,5.47,5.47,0,0,0,1,1.91,4.5,4.5,0,0,0,1.64,1.27,5.33,5.33,0,0,0,2.35.48l1,0a10.4,10.4,0,0,0,1.11-.1,6.72,6.72,0,0,0,1.05-.28,3.17,3.17,0,0,0,.9-.54l.08.34A5.76,5.76,0,0,1,516.47,115.83Z"/><path class="cls-2" d="M528.54,116v-.2a2.59,2.59,0,0,0,.52,0,.52.52,0,0,0,.3-.13.53.53,0,0,0,.14-.29,2.37,2.37,0,0,0,0-.52v-5.24H523v5.24a3.45,3.45,0,0,0,0,.52.46.46,0,0,0,.13.29.49.49,0,0,0,.29.13,2.48,2.48,0,0,0,.51,0v.2H520.3v-.2a2.59,2.59,0,0,0,.52,0,.52.52,0,0,0,.3-.13.53.53,0,0,0,.14-.29,2.37,2.37,0,0,0,0-.52V103.59a2.37,2.37,0,0,0,0-.52.53.53,0,0,0-.14-.29.46.46,0,0,0-.3-.13,2.59,2.59,0,0,0-.52,0v-.21H524v.21a2.48,2.48,0,0,0-.51,0,.44.44,0,0,0-.29.13.47.47,0,0,0-.13.3,3.49,3.49,0,0,0,0,.51v4.92h6.54v-4.92a2.37,2.37,0,0,0,0-.52.53.53,0,0,0-.14-.29.46.46,0,0,0-.3-.13,2.59,2.59,0,0,0-.52,0v-.21h3.68v.21a2.48,2.48,0,0,0-.51,0,.46.46,0,0,0-.3.13.47.47,0,0,0-.14.3,3.49,3.49,0,0,0,0,.51v11.19a3.45,3.45,0,0,0,0,.52.47.47,0,0,0,.14.29.52.52,0,0,0,.3.13,2.48,2.48,0,0,0,.51,0v.2Z"/><path class="cls-2" d="M535.12,116v-.2h.55a.62.62,0,0,0,.33-.12.43.43,0,0,0,.16-.29,2.69,2.69,0,0,0,0-.55V103.59a2.69,2.69,0,0,0,0-.55.43.43,0,0,0-.16-.29.71.71,0,0,0-.33-.12h-.55v-.21H539v.21h-.55a.71.71,0,0,0-.33.12.43.43,0,0,0-.16.29,2.69,2.69,0,0,0,0,.55v11.19a2.69,2.69,0,0,0,0,.55.43.43,0,0,0,.16.29.62.62,0,0,0,.33.12H539v.2Z"/><path class="cls-2" d="M550.92,116h-9v-.2a2.48,2.48,0,0,0,.51,0,.49.49,0,0,0,.29-.13.46.46,0,0,0,.13-.29,3.45,3.45,0,0,0,0-.52V103.59a3.49,3.49,0,0,0,0-.51.47.47,0,0,0-.13-.3.44.44,0,0,0-.29-.13,2.48,2.48,0,0,0-.51,0v-.21h3.68v.21a2.59,2.59,0,0,0-.52,0,.49.49,0,0,0-.31.13.53.53,0,0,0-.15.29,2.37,2.37,0,0,0,0,.52v11a.3.3,0,0,0,.11.26.48.48,0,0,0,.26.12,1.71,1.71,0,0,0,.32,0h3.21a9,9,0,0,0,1,0,1.88,1.88,0,0,0,.74-.19,1.63,1.63,0,0,0,.57-.46,3.63,3.63,0,0,0,.49-.83l.26.07Z"/><path class="cls-2" d="M562,116h-9.12v-.2c.41,0,.67,0,.78-.17a1.26,1.26,0,0,0,.16-.8V103.59a1.26,1.26,0,0,0-.16-.8c-.11-.12-.37-.17-.78-.17v-.21h8.92l0,2.06h-.28c-.07-.5-.22-.81-.47-.93a2.71,2.71,0,0,0-1.07-.17h-4c-.23,0-.36,0-.39.08a.86.86,0,0,0,0,.38v4.58h4.06a3.21,3.21,0,0,0,.56,0,.75.75,0,0,0,.39-.13.55.55,0,0,0,.23-.3,2.44,2.44,0,0,0,.12-.54h.26v3h-.26a2.78,2.78,0,0,0-.12-.57.64.64,0,0,0-.23-.3.87.87,0,0,0-.38-.15l-.57,0H555.5v5.22a.3.3,0,0,0,.11.26.48.48,0,0,0,.26.12,1.71,1.71,0,0,0,.32,0h3.59a6.48,6.48,0,0,0,.83,0,2.13,2.13,0,0,0,.63-.21,1.72,1.72,0,0,0,.5-.44,3,3,0,0,0,.42-.72h.32Z"/></g></g><line class="cls-2" x1="7.46" y1="85.67" x2="16.87" y2="91.69"/><polygon class="cls-2" points="16.8 91.81 7.39 85.79 7.53 85.56 16.95 91.58 16.8 91.81"/><line class="cls-2" x1="7.39" y1="85.73" x2="15.69" y2="91.88"/><polygon class="cls-2" points="15.61 91.99 7.31 85.84 7.47 85.63 15.77 91.78 15.61 91.99"/><line class="cls-2" x1="7.32" y1="85.79" x2="14.77" y2="92.18"/><rect class="cls-2" x="10.92" y="84.08" width="0.27" height="9.82" transform="translate(-63.68 39.43) rotate(-49.37)"/><line class="cls-2" x1="7.25" y1="85.85" x2="14.03" y2="92.55"/><polygon class="cls-2" points="13.94 92.65 7.16 85.94 7.35 85.75 14.13 92.46 13.94 92.65"/><line class="cls-2" x1="7.19" y1="85.91" x2="13.38" y2="92.97"/><rect class="cls-2" x="10.15" y="84.74" width="0.27" height="9.39" transform="translate(-56.44 29) rotate(-41.27)"/><line class="cls-2" x1="7.12" y1="85.96" x2="12.82" y2="93.47"/><polygon class="cls-2" points="12.71 93.55 7.01 86.05 7.22 85.88 12.93 93.39 12.71 93.55"/><line class="cls-2" x1="7.05" y1="86.02" x2="12.3" y2="94.02"/><polygon class="cls-2" points="12.19 94.09 6.94 86.1 7.16 85.95 12.41 93.94 12.19 94.09"/><line class="cls-2" x1="6.98" y1="86.08" x2="11.83" y2="94.65"/><polygon class="cls-2" points="11.71 94.72 6.86 86.14 7.09 86.02 11.94 94.59 11.71 94.72"/><line class="cls-2" x1="6.91" y1="86.14" x2="11.38" y2="95.41"/><polygon class="cls-2" points="11.26 95.47 6.79 86.19 7.03 86.08 11.5 95.35 11.26 95.47"/><line class="cls-2" x1="6.84" y1="86.19" x2="11.01" y2="96.37"/><rect class="cls-2" x="8.79" y="85.78" width="0.27" height="11" transform="translate(-33.97 10.21) rotate(-22.3)"/><line class="cls-2" x1="6.77" y1="86.25" x2="10.79" y2="97.93"/><rect class="cls-2" x="8.65" y="85.92" width="0.27" height="12.35" transform="translate(-29.49 7.87) rotate(-18.99)"/><path class="cls-2" d="M8,87.14l-1.47-1-1.47,1,.44-1.69L4.15,84.34l1.74-.1.64-1.63.63,1.63,1.75.1L7.55,85.45ZM5.54,84.79l.56.46-.18.7.61-.39.6.39L7,85.25l.56-.46-.72,0-.26-.67-.26.67Z"/><path class="cls-2" d="M15.83,102.86a.24.24,0,0,1-.25-.16,5.48,5.48,0,0,1-.11-1c0-.19,0-.38,0-.43a1.94,1.94,0,0,1,0-.47,5.47,5.47,0,0,0,0-.61l0-.12c0-.1-.1-.39-.21-.43-.84-.31-.81-.59-.8-.68s0-.18,0-.29c0-.49-.06-.83.14-.95l.24-.13.16-.08a.5.5,0,0,1-.29-.28,4.27,4.27,0,0,0-.41-.29,2.13,2.13,0,0,1-.33-.23,1.15,1.15,0,0,1-.1-.18c-.2-.42-.3-.49-.34-.5-.22,0-.85-.18-1-.47a.29.29,0,0,1,0-.3,8.25,8.25,0,0,1,1.29-1.53A10.77,10.77,0,0,1,15.18,93a.18.18,0,0,1,.16,0,.18.18,0,0,1,.09.13s.07.52.09.74.07.23.17.2A1.22,1.22,0,0,0,16,93.8c.18-.18.35-.35.55-.35h0a.4.4,0,0,0,.16-.06.72.72,0,0,1,.25-.07c.07,0,.28,0,.28.37,0,.16,0,.26,0,.35a1.45,1.45,0,0,0,0,.41.58.58,0,0,1-.16.48.51.51,0,0,1-.6.18L16.38,95c-.07-.05-.14-.11-.19-.11h0a.93.93,0,0,0-.48.43c-.1.27-.35.5-.53.5h-.07c-.18-.06-.19-.28-.19-.52a.19.19,0,0,0-.1-.1.53.53,0,0,1-.16,0l-.1,0a.73.73,0,0,0-.2.49,2.3,2.3,0,0,0,.6.91,10.12,10.12,0,0,1,1.37,1,7.28,7.28,0,0,0,.79.31c.44.12,1,.36,1,.74a1.76,1.76,0,0,1-.47,1.24,3.27,3.27,0,0,0-.59.59l-.12.13c-.09.09-.12.12-.2.54a10.75,10.75,0,0,1-.43,1.47.2.2,0,0,1-.08.1A1,1,0,0,1,15.83,102.86Zm0-.35v0ZM14.72,99a1.4,1.4,0,0,0,.57.31c.29.1.38.46.44.68a.51.51,0,0,1,0,.09,2.25,2.25,0,0,1,0,.73c0,.16,0,.37,0,.42s0,.2,0,.45,0,.6.07.78l.1,0a11.59,11.59,0,0,0,.39-1.35c.09-.48.14-.57.29-.72l.1-.12a4.43,4.43,0,0,1,.66-.65,1.58,1.58,0,0,0,.33-.9c0-.12-.27-.3-.79-.45a4.21,4.21,0,0,1-.94-.4,11.72,11.72,0,0,0-1.25-1A2.29,2.29,0,0,1,14,95.72a1.1,1.1,0,0,1,.32-.82.28.28,0,0,1,.21-.09.93.93,0,0,1,.24,0l.1,0a.51.51,0,0,1,.39.45v.08a.4.4,0,0,0,.1-.17,1.28,1.28,0,0,1,.67-.63.41.41,0,0,1,.19,0,.62.62,0,0,1,.4.18l.06,0a.43.43,0,0,0,.16-.1.25.25,0,0,0,.07-.21,2.91,2.91,0,0,1,0-.48,2.55,2.55,0,0,0,0-.31l0,0a.77.77,0,0,1-.34.08,1.44,1.44,0,0,0-.29.25,1.17,1.17,0,0,1-.42.32.51.51,0,0,1-.62-.51c0-.12,0-.32-.06-.48a8.42,8.42,0,0,0-1.17.68,8,8,0,0,0-1.18,1.4,1.47,1.47,0,0,0,.69.25c.27,0,.46.36.63.71l0,.09.26.17c.35.23.51.35.56.49l.14.08c.12.06.3.16.26.34s-.22.25-.45.36l-.19.1a2.64,2.64,0,0,0,0,.63A1.55,1.55,0,0,1,14.72,99Z"/><path class="cls-2" d="M18.6,94.56c-.26,0-.44-.12-.46-.31A.38.38,0,0,0,18,94a.7.7,0,0,1-.4-.36,2,2,0,0,1-.12-.53.22.22,0,0,1,0-.08l.1-.3a.16.16,0,0,1,.18-.12,4.61,4.61,0,0,1,1.33.29.16.16,0,0,1,.1.11.16.16,0,0,1,0,.15,2.5,2.5,0,0,0-.22.41.78.78,0,0,1,0,.13c0,.52-.07.81-.29.83Zm-.11-.37h.05a4.36,4.36,0,0,0,.06-.49c0-.09,0-.15,0-.18a1.65,1.65,0,0,1,.16-.34,4.4,4.4,0,0,0-.9-.19l0,.14a1.34,1.34,0,0,0,.08.38c0,.09.1.13.23.2A.68.68,0,0,1,18.49,94.19Z"/><path class="cls-2" d="M12.85,70.08a.3.3,0,0,1-.21-.1.26.26,0,0,1,0-.37l2-1.71a.27.27,0,0,1,.38,0,.27.27,0,0,1,0,.37L13,70A.28.28,0,0,1,12.85,70.08Z"/><path class="cls-2" d="M12.77,71.66a.28.28,0,0,1-.2-.1.26.26,0,0,1,0-.37l2.07-1.73a.27.27,0,0,1,.34.41l-2.07,1.72A.23.23,0,0,1,12.77,71.66Z"/><path class="cls-2" d="M13.91,74.41a2.64,2.64,0,0,1-2.65-2.58.24.24,0,0,1,.07-.2.27.27,0,0,1,.19-.08H16.3a.27.27,0,0,1,.19.08.28.28,0,0,1,.08.2A2.65,2.65,0,0,1,13.91,74.41Zm-2.1-2.33a2.12,2.12,0,0,0,4.2,0Z"/><path class="cls-2" d="M17.48,68.37H10.34a.27.27,0,0,1-.27-.27V66.91a.27.27,0,0,1,.27-.26h7.14a.27.27,0,0,1,.27.26V68.1A.27.27,0,0,1,17.48,68.37Zm-6.87-.54h6.6v-.65h-6.6Z"/><path class="cls-2" d="M15,72.08H12.69a.28.28,0,0,1-.2-.08.29.29,0,0,1-.07-.2l.19-3.72a.26.26,0,0,1,.26-.25h1.94a.26.26,0,0,1,.26.25l.19,3.68a.43.43,0,0,0,0,0A.27.27,0,0,1,15,72.08Zm-2-.53h1.75l-.16-3.18H13.13Z"/><path class="cls-2" d="M9.55,59.27H4.24A.25.25,0,0,1,4,59.15a.27.27,0,0,1,0-.25l2.66-6.11a.26.26,0,0,1,.24-.16.26.26,0,0,1,.25.16l2.64,6.08a.29.29,0,0,1,0,.14A.27.27,0,0,1,9.55,59.27Zm-4.9-.53H9.14L6.89,53.56Z"/><path class="cls-2" d="M6.07,103.75l-.4-.19L7.36,99l1.24.6ZM7.61,99.6l-.72,1.94L8,99.77Z"/><path class="cls-2" d="M10.69,103.75,8.16,99.58,9.4,99l1.69,4.58Zm-1.9-4,1.08,1.77L9.15,99.6Z"/><path class="cls-2" d="M8.39,99.89a1.28,1.28,0,1,1,1.28-1.28A1.28,1.28,0,0,1,8.39,99.89Zm0-2a.75.75,0,1,0,.75.75A.75.75,0,0,0,8.39,97.86Z"/><path class="cls-2" d="M27.93,116.21H26.51v-.71c0-1.06-2.4-1.3-3.24-1.3H4a3.63,3.63,0,0,1-4-4V44.4H27.22v1.42H1.42v64.39A2.26,2.26,0,0,0,4,112.78H23.27a6.15,6.15,0,0,1,3.95,1.14,6.18,6.18,0,0,1,4-1.14H50.46A2.26,2.26,0,0,0,53,110.21V45.82H27.22V44.4H54.45v65.81a3.63,3.63,0,0,1-4,4H31.18c-.84,0-3.25.24-3.25,1.3Z"/><path class="cls-2" d="M34.59,55.21a.3.3,0,0,1-.23-.11l-2.07-2.91a3.26,3.26,0,0,1-.6.07,1.52,1.52,0,0,1-1.31-.6c-.55-.81,0-2.09,1.16-2.91a3.32,3.32,0,0,1,1.83-.62,1.49,1.49,0,0,1,1.3.6,1.74,1.74,0,0,1-.22,2l1.15,1.76a.29.29,0,0,1,0,.3A4.84,4.84,0,0,0,34.85,55a.28.28,0,0,1-.2.23ZM32.4,51.62a.26.26,0,0,1,.21.11l1.81,2.53a5,5,0,0,1,.64-1.62L33.9,50.86a.27.27,0,0,1,0-.31A1.36,1.36,0,0,0,34.24,49a1,1,0,0,0-.87-.37,2.8,2.8,0,0,0-1.53.53c-.92.63-1.39,1.63-1,2.17a1,1,0,0,0,.87.36,2.39,2.39,0,0,0,.63-.09Z"/><path class="cls-2" d="M38.83,58.9h0a1.93,1.93,0,0,1-1.8-.77,3.06,3.06,0,0,1-.1-2.85.29.29,0,0,1,.22-.15.28.28,0,0,1,.25.12l2.1,3.23a.24.24,0,0,1,0,.26.25.25,0,0,1-.22.15ZM37.24,56a2.39,2.39,0,0,0,.25,1.86c.22.36.6.52,1.3.52Z"/><path class="cls-2" d="M38.94,53.42a.36.36,0,1,1-.71,0,.36.36,0,0,1,.71,0Z"/><path class="cls-2" d="M38.58,54a.53.53,0,1,1,.54-.53A.53.53,0,0,1,38.58,54Zm0-.71a.18.18,0,0,0,0,.36.18.18,0,0,0,0-.36Z"/><path class="cls-2" d="M19.77,77.75H.73v.89H19.56A6.41,6.41,0,0,1,19.77,77.75Z"/><path class="cls-2" d="M34.68,77.75a6.41,6.41,0,0,1,.21.89h19v-.89Z"/><path class="cls-2" d="M27.22,72.24h.45V45.17h-.89V72.25Z"/><path class="cls-2" d="M27.22,87.82h-.44V114.7h.89V87.81Z"/><path class="cls-2" d="M32.92,83.57H21.52l-.23-.4L27,73.3h.46l5.7,9.87ZM22,83H32.46L27.22,74Z"/><path class="cls-2" d="M30.08,74.35a.2.2,0,0,1-.11,0,14.87,14.87,0,0,0-1.74-.41,1.23,1.23,0,0,1-.87-.5.43.43,0,0,1,0-.35.69.69,0,0,1,.39-.28c-.14-.14-.26-.28-.3-.33a.54.54,0,0,1,0-.53c.14-.34.56-.57,1.28-.7,1-.17,1.49.59,1.86,1.14a1.69,1.69,0,0,0,.48.57.28.28,0,0,1,.13.36.27.27,0,0,1-.36.12,2,2,0,0,1-.69-.75c-.41-.62-.73-1-1.33-.91s-.85.31-.88.36a.05.05,0,0,0,0,0l.56.58a.26.26,0,0,1-.15.45l-.35.08a1.38,1.38,0,0,0,.36.12,13.69,13.69,0,0,1,1.88.45.27.27,0,0,1,.12.36A.25.25,0,0,1,30.08,74.35Z"/><path class="cls-2" d="M30.27,73.88l-.19.2a13.52,13.52,0,0,0-1.8-.43,1,1,0,0,1-.68-.37.09.09,0,0,1,0-.1h-.38a6.86,6.86,0,1,0,3.05.71ZM27.22,86.36A6.33,6.33,0,1,1,33.55,80,6.34,6.34,0,0,1,27.22,86.36Z"/><path class="cls-2" d="M30.42,72.63a1.66,1.66,0,0,0,.5.54l-.18.21a7.51,7.51,0,1,1-3.52-.88c.22,0,.45,0,.66,0l-.21-.23a.32.32,0,0,1,0-.32h-.46a8.05,8.05,0,1,0,3.2.66Z"/><path class="cls-2" d="M28.91,72.21a.16.16,0,1,1-.16-.16A.16.16,0,0,1,28.91,72.21Z"/><path class="cls-2" d="M28.75,72.55a.34.34,0,1,1,.34-.34A.34.34,0,0,1,28.75,72.55Z"/><path class="cls-2" d="M27.22,82.28a2.22,2.22,0,1,1,2.22-2.22A2.22,2.22,0,0,1,27.22,82.28Zm0-4A1.81,1.81,0,1,0,29,80.06,1.81,1.81,0,0,0,27.22,78.25Z"/><path class="cls-2" d="M22,111H19.92a.26.26,0,0,1-.26-.26v-4.43H5.35a.27.27,0,0,1-.27-.27v-2.3a.27.27,0,0,1,.27-.27H22a.27.27,0,0,1,.27.27V106a0,0,0,0,1,0,0v4.67A.26.26,0,0,1,22,111Zm-1.84-.53h1.57V104H5.61v1.76H19.92a.27.27,0,0,1,.27.27Z"/><path class="cls-2" d="M17.24,103.8a5.65,5.65,0,1,1,5.65-5.65A5.66,5.66,0,0,1,17.24,103.8Zm0-10.77a5.12,5.12,0,1,0,5.11,5.12A5.13,5.13,0,0,0,17.24,93Z"/><path class="cls-2" d="M21.49,101.57l-.07,0a.18.18,0,0,1-.1-.19c0-.24.08-.53.08-.61a1.33,1.33,0,0,1,0-.35,1.48,1.48,0,0,0,0-.22.8.8,0,0,0-.11-.27,1.07,1.07,0,0,1-.12-.32.79.79,0,0,0-.2-.4,1.23,1.23,0,0,1-.21-.43.86.86,0,0,0-.1-.25,1.14,1.14,0,0,1-.18-.37.43.43,0,0,0,0-.11c-.21-.21.14-.76.14-.76A1.66,1.66,0,0,1,21,97h0l.49-.12.14-.12a1.39,1.39,0,0,0-.06-.19.54.54,0,0,1,0-.28h0a.34.34,0,0,1-.19.07,1.06,1.06,0,0,1-.5-.08l-.1,0a.22.22,0,0,1-.17,0,2.08,2.08,0,0,0-.25-.15.71.71,0,0,0-.17,0h0a1.17,1.17,0,0,0-.05.11c0,.14,0,.31,0,.35,0,.24-.49.38-.65.38h-.07c-.4-.09-.48-.14-.52-.25a1.24,1.24,0,0,1,.14-.55s0,0,0-.07a.34.34,0,0,1,0-.31,1,1,0,0,1,.18-.2.18.18,0,0,1,.12,0,1.85,1.85,0,0,1,.3,0l.07,0,.18-.25h0a.3.3,0,0,0,.11-.2.88.88,0,0,0,0-.24s0-.06,0-.1,0,0-.06-.09l-.07-.09a.67.67,0,0,1-.15-.35.39.39,0,0,1,.2-.36,1.46,1.46,0,0,0,.28-.22.17.17,0,0,1,.21,0,3.45,3.45,0,0,1,.57.43A14.09,14.09,0,0,1,22.4,96a6,6,0,0,1,.28,3.23,5.06,5.06,0,0,1-1.05,2.27A.21.21,0,0,1,21.49,101.57Zm-.8-3.75a1.12,1.12,0,0,1,.09.22,1.12,1.12,0,0,0,.11.25,1.09,1.09,0,0,1,.17.36,1,1,0,0,0,.14.31,1.07,1.07,0,0,1,.28.59,1.43,1.43,0,0,0,.09.2,1.62,1.62,0,0,1,.15.39,2.44,2.44,0,0,0,0,.26,1.63,1.63,0,0,0,0,.25.35.35,0,0,1,0,.06,4.64,4.64,0,0,0,.58-1.54,5.64,5.64,0,0,0-.24-3,14,14,0,0,0-1.44-2,4.86,4.86,0,0,0-.41-.32,1.27,1.27,0,0,1-.25.19h0a.06.06,0,0,0,0,0s0,0,.09.15l.05.06a.49.49,0,0,1,.14.28s0,.06,0,.08a1.11,1.11,0,0,1,0,.33.61.61,0,0,1-.21.42,2.4,2.4,0,0,0-.18.25.23.23,0,0,1-.07.07.78.78,0,0,1-.34.07h-.16s0,0,0,0,0,0,0,0a.44.44,0,0,1,0,.36,1.1,1.1,0,0,0-.09.24l.23.06a.69.69,0,0,0,.29-.11c0-.1,0-.28,0-.34v0c0-.12.14-.33.31-.35h0a.78.78,0,0,1,.34,0,1.4,1.4,0,0,1,.33.18.58.58,0,0,1,.19,0,.71.71,0,0,0,.35.07h0a.31.31,0,0,1,.2-.07,1.11,1.11,0,0,1,.25,0,.17.17,0,0,1,.13.21,1.49,1.49,0,0,0,0,.25,2.08,2.08,0,0,1,.1.3.28.28,0,0,1-.06.23s-.23.27-.41.27l-.41.11a2.54,2.54,0,0,0-.33.18A1.19,1.19,0,0,0,20.69,97.82Z"/><path class="cls-2" d="M46,110.55h-.08a.27.27,0,0,1-.18-.25v-2.9a.28.28,0,0,1,.07-.17l4.31-5a.27.27,0,0,1,.3-.08.26.26,0,0,1,.17.26v.37a2.72,2.72,0,0,0,0,.9.45.45,0,0,0,.23.3.28.28,0,0,1,.15.17.27.27,0,0,1-.05.23l-4.74,6.12A.28.28,0,0,1,46,110.55Zm.28-3.06v2l4.09-5.27a1.1,1.1,0,0,1-.27-.49,2.68,2.68,0,0,1-.06-.64Z"/><path class="cls-2" d="M40.4,100.72h-.08a.27.27,0,0,1-.19-.26l.18-9.94a.29.29,0,0,1,.12-.23,3.15,3.15,0,0,1,1.74-.57,4.64,4.64,0,0,1,1.74.43,2,2,0,0,0,.82.16,4,4,0,0,0,1.62-.39.27.27,0,0,1,.26,0,.24.24,0,0,1,.12.22c0,.08,0,7.35,0,9.84a.29.29,0,0,1-.11.21.26.26,0,0,1-.23,0,12.15,12.15,0,0,0-3.17-.49c-2,0-2.6.84-2.61.85A.25.25,0,0,1,40.4,100.72Zm.44-10.06-.17,9.18a4.52,4.52,0,0,1,2.56-.63,12.43,12.43,0,0,1,3,.43c0-2.36,0-7.6,0-9.09a4.31,4.31,0,0,1-1.47.28,2.63,2.63,0,0,1-1-.19,3.75,3.75,0,0,0-1.53-.4A2.49,2.49,0,0,0,40.84,90.66Z"/><path class="cls-2" d="M40.35,100.69a.26.26,0,0,1-.21-.11c-.32-.45-1.12-.69-2.3-.69a16.12,16.12,0,0,0-3.53.48.27.27,0,0,1-.23-.05.26.26,0,0,1-.11-.21l-.11-8.68a.28.28,0,0,1,.1-.21.27.27,0,0,1,.23,0,4.65,4.65,0,0,0,.85.07,5,5,0,0,0,2.53-.66A3.72,3.72,0,0,1,39.51,90a2.23,2.23,0,0,1,1.21.3.26.26,0,0,1,.12.23s-.13,5.74-.22,9.91a.26.26,0,0,1-.19.25Zm-2.51-1.33a4.29,4.29,0,0,1,2.26.48c.08-3.68.18-8.25.2-9.17a2.05,2.05,0,0,0-.79-.15,3.24,3.24,0,0,0-1.67.52,5.52,5.52,0,0,1-2.8.74,5.31,5.31,0,0,1-.64,0l.1,8A16.49,16.49,0,0,1,37.84,99.36Z"/><path class="cls-2" d="M40.35,100.69a.26.26,0,0,1-.21-.11c-.32-.45-1.12-.69-2.3-.69a16.12,16.12,0,0,0-3.53.48.27.27,0,0,1-.23-.05.26.26,0,0,1-.11-.21l-.11-8.68a.28.28,0,0,1,.1-.21.27.27,0,0,1,.23,0,4.65,4.65,0,0,0,.85.07,5,5,0,0,0,2.53-.66A3.72,3.72,0,0,1,39.51,90a2.23,2.23,0,0,1,1.21.3.26.26,0,0,1,.12.23s-.13,5.74-.22,9.91a.26.26,0,0,1-.19.25Zm-2.51-1.33a4.29,4.29,0,0,1,2.26.48c.08-3.68.18-8.25.2-9.17a2.05,2.05,0,0,0-.79-.15,3.24,3.24,0,0,0-1.67.52,5.52,5.52,0,0,1-2.8.74,5.31,5.31,0,0,1-.64,0l.1,8A16.49,16.49,0,0,1,37.84,99.36Z"/><path class="cls-2" d="M45.53,106.47l-.09,0a.26.26,0,0,1-.18-.24L45.19,104a.29.29,0,0,1,.07-.2l3.8-4.08a.26.26,0,0,1,.29-.06.26.26,0,0,1,.17.25v.32a2.38,2.38,0,0,0,0,.76.35.35,0,0,0,.19.23.29.29,0,0,1,.15.19.27.27,0,0,1-.06.24l-4.11,4.74A.28.28,0,0,1,45.53,106.47Zm.19-2.4.05,1.44,3.49-4a.8.8,0,0,1-.21-.4,1.81,1.81,0,0,1-.07-.52Z"/><path class="cls-2" d="M49.26,100.08h0L47.79,100a.27.27,0,0,1-.25-.28.27.27,0,0,1,.29-.25l1.46.12a.27.27,0,0,1,.24.29A.26.26,0,0,1,49.26,100.08Z"/><path class="cls-2" d="M45.47,106.5H45.4L31.87,103.2a1.28,1.28,0,0,1-.92-1.31,1.17,1.17,0,0,1,.29-.88.89.89,0,0,1,.65-.25h0l13.6,2.84a.26.26,0,0,1,.21.26v2.36a.25.25,0,0,1-.1.21A.23.23,0,0,1,45.47,106.5Zm-13.63-5.21a.34.34,0,0,0-.22.1.71.71,0,0,0-.14.5c0,.66.46.78.51.79l13.21,3.21v-1.81Z"/><path class="cls-2" d="M31.46,101.43a.25.25,0,0,1-.19-.09.26.26,0,0,1,0-.37l1.53-1.39a.27.27,0,1,1,.36.39l-1.54,1.39A.24.24,0,0,1,31.46,101.43Z"/><path class="cls-2" d="M34.35,103.77a.27.27,0,0,1-.27-.26v-1.87a.27.27,0,0,1,.54,0v1.87A.27.27,0,0,1,34.35,103.77Z"/><path class="cls-2" d="M35.64,104.1a.27.27,0,0,1-.27-.27V102a.27.27,0,0,1,.54,0v1.81A.27.27,0,0,1,35.64,104.1Z"/><path class="cls-2" d="M41.41,105.44a.26.26,0,0,1-.26-.27v-2a.26.26,0,0,1,.26-.27.27.27,0,0,1,.27.27v2A.27.27,0,0,1,41.41,105.44Z"/><path class="cls-2" d="M46,110.53h-.08l-15.49-4.36a1.41,1.41,0,0,1-1-1.49c0-.93.54-1.25,1-1.25h.09L46,107.18a.27.27,0,0,1,.2.26v2.82a.27.27,0,0,1-.26.27ZM30.38,104c-.18,0-.47.1-.47.72,0,.81.54,1,.6,1l15.18,4.27v-2.26Z"/><path class="cls-2" d="M30,104.1a.25.25,0,0,1-.2-.09.27.27,0,0,1,0-.38l1.39-1.21a.27.27,0,0,1,.38,0,.28.28,0,0,1,0,.38L30.12,104A.23.23,0,0,1,30,104.1Z"/><path class="cls-2" d="M50.35,102.55h0l-1.22-.13a.26.26,0,0,1-.24-.29.27.27,0,0,1,.29-.24l1.23.12a.27.27,0,0,1,.23.29A.27.27,0,0,1,50.35,102.55Z"/><path class="cls-2" d="M32,106.48a.18.18,0,0,1-.18-.18v-2.11a.18.18,0,0,1,.36,0v2.11A.18.18,0,0,1,32,106.48Z"/><path class="cls-2" d="M41.06,109a.18.18,0,0,1-.18-.18v-2.46a.18.18,0,0,1,.18-.18.17.17,0,0,1,.17.18v2.46A.17.17,0,0,1,41.06,109Z"/><path class="cls-2" d="M40.41,90.36a2.35,2.35,0,0,1-2.31-1.73.17.17,0,0,1,0-.18.18.18,0,0,1,.2,0,3,3,0,0,0,.41.17,3.55,3.55,0,0,1-.45-1,.18.18,0,0,1,.06-.18.17.17,0,0,1,.19,0,3.77,3.77,0,0,0,.44.18,3.6,3.6,0,0,1-.32-.77.18.18,0,0,1,.06-.19.19.19,0,0,1,.19,0,2.63,2.63,0,0,0,.69.26A2.18,2.18,0,0,0,40,85.7c0-.32.09-.62.37-.62s.29.26.34.57a2.33,2.33,0,0,0,.44,1.15,3.09,3.09,0,0,0,.73-.21.17.17,0,0,1,.18,0,.17.17,0,0,1,0,.18,3.21,3.21,0,0,1-.32.78c.25-.09.43-.19.44-.19a.17.17,0,0,1,.19,0,.16.16,0,0,1,.06.18,3.57,3.57,0,0,1-.45,1,3.88,3.88,0,0,0,.41-.18.18.18,0,0,1,.2,0,.17.17,0,0,1,.06.18A2.37,2.37,0,0,1,40.41,90.36Zm-1.83-1.44A2.06,2.06,0,0,0,40.41,90a2,2,0,0,0,1.82-1.09,3,3,0,0,1-.69.17.17.17,0,0,1-.18-.12.18.18,0,0,1,.07-.21,2.12,2.12,0,0,0,.61-.88,2.67,2.67,0,0,1-.69.18.17.17,0,0,1-.18-.12.16.16,0,0,1,.06-.2,1.71,1.71,0,0,0,.46-.7,3.27,3.27,0,0,1-.56.13.18.18,0,0,1-.14-.06,2.36,2.36,0,0,1-.6-1.4h0a.08.08,0,0,1,0,0,2.36,2.36,0,0,1-.57,1.42.2.2,0,0,1-.14.06,2.35,2.35,0,0,1-.52-.14,1.59,1.59,0,0,0,.43.64.19.19,0,0,1,.07.21.19.19,0,0,1-.19.11,3.22,3.22,0,0,1-.68-.17,2,2,0,0,0,.61.88.19.19,0,0,1,.07.21.18.18,0,0,1-.19.11A2.79,2.79,0,0,1,38.58,88.92Z"/><path class="cls-2" d="M14.75,67.18H12.93a.27.27,0,0,1-.19-.08.32.32,0,0,1-.08-.2l.74-14.74H7.74l3,6.83a.36.36,0,0,1,0,.11A3.88,3.88,0,0,1,3,59.1.36.36,0,0,1,3,59L6.65,50.8a.25.25,0,0,1,.24-.16h6.58l.1-1.87a.26.26,0,0,1,.26-.25h0a.27.27,0,0,1,.27.25l.09,1.87h6.68a.27.27,0,0,1,.25.16L24.72,59a.2.2,0,0,1,0,.11,3.87,3.87,0,0,1-7.74,0A.14.14,0,0,1,17,59l3-6.83H14.27L15,66.86a.07.07,0,0,1,0,0A.27.27,0,0,1,14.75,67.18Zm-1.54-.53h1.26L13.84,54.1Zm4.32-7.51a3.34,3.34,0,0,0,6.68,0l-3.51-8H13.94l-.1,0-.11,0H7.07l-3.52,8a3.35,3.35,0,0,0,6.69,0L7.08,52a.25.25,0,0,1,0-.25.24.24,0,0,1,.22-.12h6.35a.24.24,0,0,1,.16,0,.2.2,0,0,1,.15,0h6.45a.26.26,0,0,1,.24.37Z"/><path class="cls-2" d="M23.53,59.27H18.22a.26.26,0,0,1-.23-.12.27.27,0,0,1,0-.25l2.65-6.11a.27.27,0,0,1,.25-.16.26.26,0,0,1,.24.16l2.64,6.08a.21.21,0,0,1,0,.14A.26.26,0,0,1,23.53,59.27Zm-4.91-.53h4.5l-2.25-5.18Z"/><path class="cls-2" d="M41.66,62.36H41.6a.24.24,0,0,1-.19-.17c-.25-.69-.7-1.46-.95-1.46l-.16,0a9.33,9.33,0,0,1-1.75.18c-2.41,0-3.85-1.13-4.16-3.26-.61-4.23,1.1-5.63,1.32-5.79a2.54,2.54,0,0,1,1.74-.7A2.42,2.42,0,0,1,39.81,53a3.45,3.45,0,0,1-.76,2.87.59.59,0,0,1-.23.05h0a2,2,0,0,1-1.19-.74,2.52,2.52,0,0,0-.38.82,2.36,2.36,0,0,0,.24,1.89c.23.37.62.52,1.34.52l.67,0c.23,0,.48,0,.72,0a2.27,2.27,0,0,1,1.89.72,2.51,2.51,0,0,1-.26,3.23A.25.25,0,0,1,41.66,62.36Zm-1.2-2.18c.56,0,1,.79,1.26,1.37a1.83,1.83,0,0,0,0-2.18,1.72,1.72,0,0,0-1.47-.52l-.7,0-.69,0a1.93,1.93,0,0,1-1.8-.77,2.94,2.94,0,0,1-.23-2.52c.15-.44.46-1,.77-1.09a.27.27,0,0,1,.3.08,2,2,0,0,0,1,.74,3.39,3.39,0,0,0,.47-2.27,1.88,1.88,0,0,0-1.84-1.37,2,2,0,0,0-1.39.57l0,0a2.75,2.75,0,0,0-.77,1.09,7.56,7.56,0,0,0-.34,4.19c.27,1.86,1.49,2.8,3.63,2.8a10,10,0,0,0,1.66-.16l.2,0Z"/><path class="cls-2" d="M40.55,66a2.23,2.23,0,0,1-1.73-.6c-1.18-1.23-.24-3,.43-3.72a.27.27,0,0,1,.21-.09.26.26,0,0,1,.2.11s.37.49.83,1.2a.26.26,0,0,1,0,.27.49.49,0,0,0,0,.1.67.67,0,0,0,.35.06A5.38,5.38,0,0,0,42,63.1c1.26-.32,2.23-.11,2.71.58s.29,1.39-.47,2.17a.27.27,0,0,1-.28.07.28.28,0,0,1-.18-.21c0-.07-.12-.1-.33-.1a8.2,8.2,0,0,0-1.13.14A10.43,10.43,0,0,1,40.55,66Zm-1.11-3.7c-.39.55-1.11,1.83-.24,2.73a1.76,1.76,0,0,0,1.35.44,10.55,10.55,0,0,0,1.68-.2,8,8,0,0,1,1.23-.16,1,1,0,0,1,.63.17c.5-.64.35-1,.19-1.25a1.33,1.33,0,0,0-1.19-.5,3.73,3.73,0,0,0-1,.13,6,6,0,0,1-1.33.2.88.88,0,0,1-.81-.31A.54.54,0,0,1,40,63C39.76,62.71,39.57,62.45,39.44,62.26Z"/><path class="cls-2" d="M40.82,63.82h-.09a.3.3,0,0,1-.21-.12l-2.07-2.9a.24.24,0,0,1,0-.27.25.25,0,0,1,.23-.15,9.67,9.67,0,0,0,1.55-.16l.2,0h.06a.3.3,0,0,1,.22.13l1.86,2.85a.27.27,0,0,1,0,.25.26.26,0,0,1-.19.15l-.24.06A6,6,0,0,1,40.82,63.82Zm-1.65-2.93,1.71,2.39a4.84,4.84,0,0,0,1-.15l-1.56-2.39h0C40.08,60.78,39.67,60.85,39.17,60.89Z"/><path class="cls-2" d="M46.11,74.41h0c-.34,0-.45-.4-.54-.71a1.58,1.58,0,0,0-.26-.57,2.13,2.13,0,0,0-.26-.26,1.66,1.66,0,0,1-.68-1.18c0-.08,0-.15,0-.22A1.66,1.66,0,0,0,43.74,70a1.8,1.8,0,0,0-.76-.37,2.37,2.37,0,0,1-1.56-1.15c-.8-1.36.7-2.76.77-2.82a.25.25,0,0,1,.2-.07.25.25,0,0,1,.18.1,5.63,5.63,0,0,1,1.12,1.71l.13,0a5.37,5.37,0,0,1,.62,0,1.9,1.9,0,0,1,.8.16A1.58,1.58,0,0,1,46,69.38a1.18,1.18,0,0,0,.39,1.34,1.12,1.12,0,0,1,.45.82,6,6,0,0,1-.48,2.74A.37.37,0,0,1,46.11,74.41Zm-3.76-8.15c-.33.38-.91,1.21-.47,1.95a1.83,1.83,0,0,0,1.26.91,2.41,2.41,0,0,1,1,.48,2.16,2.16,0,0,1,.74,1.83,1.62,1.62,0,0,1,0,.22,1.14,1.14,0,0,0,.51.81,2.94,2.94,0,0,1,.3.31,2,2,0,0,1,.37.77s0,.13.06.19a8,8,0,0,0,.25-2.17c0-.17-.1-.27-.28-.45a1.71,1.71,0,0,1-.56-1.82c.13-.71,0-1.07-.5-1.32a1.25,1.25,0,0,0-.56-.1,4.74,4.74,0,0,0-.55,0l-.34,0a.43.43,0,0,1-.36-.15.36.36,0,0,1,0-.31h0A7,7,0,0,0,42.35,66.26Z"/><path class="cls-2" d="M45.26,68.08a.27.27,0,0,1-.14,0L45,68a1.28,1.28,0,0,0-.56-.1,4.74,4.74,0,0,0-.55,0l-.18,0a.25.25,0,0,1-.24-.11l-.54-.75c-.17-.26-.36-.52-.5-.7l-.5-.7a.27.27,0,0,1,0-.26.27.27,0,0,1,.2-.16l.12,0a5.71,5.71,0,0,1,1.48-.14.3.3,0,0,1,.19.12l1.58,2.43a.28.28,0,0,1,.06.18.26.26,0,0,1-.26.26Zm-2.65-2.37.25.34c.14.19.34.46.51.72l.44.61h0a5.56,5.56,0,0,1,.62,0h.2l-1.13-1.73A4.81,4.81,0,0,0,42.61,65.71Z"/><path class="cls-2" d="M50.17,76.33a.23.23,0,0,1-.14,0l-.94-.64a.23.23,0,0,1-.07-.07l-2.63-3.67a.27.27,0,0,1,0-.15v-.2c0-.17-.1-.27-.28-.45a1.71,1.71,0,0,1-.56-1.82,2,2,0,0,0,0-.62.25.25,0,0,1,.17-.28.27.27,0,0,1,.31.1l4.12,6.32a.36.36,0,0,1,0,.09L50.43,76a.25.25,0,0,1-.11.28A.24.24,0,0,1,50.17,76.33Zm-.75-1.1.34.23-.09-.39L46,69.45a1.18,1.18,0,0,0,.41,1.27,1.12,1.12,0,0,1,.45.82.57.57,0,0,0,0,.13Z"/><path class="cls-2" d="M48,90.89a.26.26,0,0,0-.24,0c-.42.13-.93.25-1.35.34v.54c.34-.07.77-.16,1.16-.27,0,1.85,0,7.63-.05,9.06a25.75,25.75,0,0,0-4.11-.39,7.87,7.87,0,0,0-2.84.41.25.25,0,0,1-.16.14h-.08a.26.26,0,0,1-.21-.11l0,0a9.88,9.88,0,0,0-3-.45,11.14,11.14,0,0,0-3.77.67c0-2.23-.13-7-.17-8.23l.7.11v-.54C33.33,92,33,92,33,92a.29.29,0,0,0-.22.06.25.25,0,0,0-.1.21c0,.07.18,6.63.18,8.94a.25.25,0,0,0,.12.22.23.23,0,0,0,.14,0h.1a10.4,10.4,0,0,1,3.94-.78,8.9,8.9,0,0,1,3.14.53.26.26,0,0,0,.23,0,6.48,6.48,0,0,1,2.94-.51,26.23,26.23,0,0,1,4.32.44.25.25,0,0,0,.22,0,.28.28,0,0,0,.1-.21c0-.08,0-8.3,0-9.74A.28.28,0,0,0,48,90.89Z"/><path class="cls-2" d="M27.22,82.41a4.83,4.83,0,0,1-4-2.19l-.09-.15.09-.14a4.83,4.83,0,0,1,8.1,0l.1.14-.1.15A4.82,4.82,0,0,1,27.22,82.41Zm-3.5-2.34a4.3,4.3,0,0,0,7,0,4.3,4.3,0,0,0-7,0Z"/><path class="cls-2" d="M28.17,80.05a.95.95,0,1,1-1-1A.94.94,0,0,1,28.17,80.05Z"/><g id="Grupo_7" data-name="Grupo 7"><path id="Trazado_9" data-name="Trazado 9" class="cls-3" d="M20.24,32.41l2.15-8.15-6.53-5.33,8.42-.48,3-7.85,3.05,7.85,8.42.48-6.53,5.33,2.15,8.15-7.09-4.56Z"/><path id="Trazado_10" data-name="Trazado 10" class="cls-4" d="M27.33,27.27l6.28,4-1.9-7.23,5.78-4.72L30,18.93l-2.7-7-2.71,7-7.46.43L23,24.08l-1.9,7.23Z"/></g><g id="Grupo_68" data-name="Grupo 68"><g id="Grupo_10" data-name="Grupo 10"><g id="Grupo_8" data-name="Grupo 8"><path id="Trazado_11" data-name="Trazado 11" class="cls-2" d="M25.44,16.18,22.25,6.37l-.35.11,3.33,10.25Z"/></g><g id="Grupo_9" data-name="Grupo 9"><path id="Trazado_12" data-name="Trazado 12" class="cls-2" d="M25.23,17h0a.27.27,0,0,1-.24-.19L21.65,6.56a.26.26,0,0,1,.17-.33l.35-.12a.28.28,0,0,1,.34.18l3.18,9.81a.28.28,0,0,1,0,.18l-.21.55A.27.27,0,0,1,25.23,17Z"/></g></g><g id="Grupo_13" data-name="Grupo 13"><g id="Grupo_11" data-name="Grupo 11"><path id="Trazado_13" data-name="Trazado 13" class="cls-2" d="M10.33,22.78H21l-.46-.37H10.33Z"/></g><g id="Grupo_12" data-name="Grupo 12"><path id="Trazado_14" data-name="Trazado 14" class="cls-2" d="M21,23H10.34a.27.27,0,0,1-.27-.26V22.4a.27.27,0,0,1,.27-.26h10.2a.25.25,0,0,1,.16.06l.46.37a.27.27,0,0,1,0,.37A.25.25,0,0,1,21,23Z"/></g></g><g id="Grupo_16" data-name="Grupo 16"><g id="Grupo_14" data-name="Grupo 14"><path id="Trazado_15" data-name="Trazado 15" class="cls-2" d="M24.46,18.7l.1-.25-10.2-14-.3.22L24.29,18.71Z"/></g><g id="Grupo_15" data-name="Grupo 15"><path id="Trazado_16" data-name="Trazado 16" class="cls-2" d="M24.29,19a.27.27,0,0,1-.22-.11L13.84,4.8a.27.27,0,0,1,.06-.37h0l.3-.22a.28.28,0,0,1,.38.06h0l10.2,14a.28.28,0,0,1,0,.25l-.1.25a.27.27,0,0,1-.24.17h-.18Z"/></g></g><g id="Grupo_19" data-name="Grupo 19"><g id="Grupo_17" data-name="Grupo 17"><path id="Trazado_17" data-name="Trazado 17" class="cls-2" d="M27.33,11.33l.19.48V.27h-.38V11.81Z"/></g><g id="Grupo_18" data-name="Grupo 18"><path id="Trazado_18" data-name="Trazado 18" class="cls-2" d="M27.52,12.07a.26.26,0,0,1-.19-.07.28.28,0,0,1-.23.07.26.26,0,0,1-.22-.26V.27A.27.27,0,0,1,27.14,0h.38a.27.27,0,0,1,.26.27V11.81a.26.26,0,0,1-.21.26Z"/></g></g><g id="Grupo_22" data-name="Grupo 22"><g id="Grupo_20" data-name="Grupo 20"><path id="Trazado_19" data-name="Trazado 19" class="cls-2" d="M32.79,18.85l8.4-6.1-.22-.3-8.76,6.37Z"/></g><g id="Grupo_21" data-name="Grupo 21"><path id="Trazado_20" data-name="Trazado 20" class="cls-2" d="M32.8,19.12h0l-.59,0a.27.27,0,0,1-.25-.28.31.31,0,0,1,.11-.2l8.77-6.37a.24.24,0,0,1,.2,0,.27.27,0,0,1,.17.1l.22.3a.27.27,0,0,1-.06.38L33,19.07a.27.27,0,0,1-.15.05Z"/></g></g><g id="Grupo_25" data-name="Grupo 25"><g id="Grupo_23" data-name="Grupo 23"><path id="Trazado_21" data-name="Trazado 21" class="cls-2" d="M38.1,19.15l-.27.23,10.79-3.51-.12-.35-11.08,3.6Z"/></g><g id="Grupo_24" data-name="Grupo 24"><path id="Trazado_22" data-name="Trazado 22" class="cls-2" d="M37.83,19.64a.27.27,0,0,1-.24-.14.35.35,0,0,1,0-.11h-.15a.26.26,0,0,1-.25-.28.27.27,0,0,1,.18-.24l11.08-3.6a.27.27,0,0,1,.33.17l.12.36a.26.26,0,0,1-.17.33h0L37.9,19.63Z"/></g></g><g id="Grupo_28" data-name="Grupo 28"><g id="Grupo_26" data-name="Grupo 26"><path id="Trazado_23" data-name="Trazado 23" class="cls-2" d="M22.45,18.82l-8.76-6.37-.22.3,8.4,6.1Z"/></g><g id="Grupo_27" data-name="Grupo 27"><path id="Trazado_24" data-name="Trazado 24" class="cls-2" d="M21.87,19.12a.3.3,0,0,1-.16-.05L13.31,13a.26.26,0,0,1-.06-.37h0l.22-.3a.3.3,0,0,1,.17-.1.2.2,0,0,1,.2.05l8.77,6.36a.28.28,0,0,1,.06.38.26.26,0,0,1-.2.1l-.59,0Z"/></g></g><g id="Grupo_31" data-name="Grupo 31"><g id="Grupo_29" data-name="Grupo 29"><path id="Trazado_25" data-name="Trazado 25" class="cls-2" d="M29.43,16.73,32.76,6.48l-.35-.11-3.19,9.81Z"/></g><g id="Grupo_30" data-name="Grupo 30"><path id="Trazado_26" data-name="Trazado 26" class="cls-2" d="M29.43,17a.25.25,0,0,1-.24-.17L29,16.27a.25.25,0,0,1,0-.17l3.19-9.82a.26.26,0,0,1,.33-.17l.36.12a.27.27,0,0,1,.17.33L29.69,16.81a.28.28,0,0,1-.25.18Z"/></g></g><g id="Grupo_34" data-name="Grupo 34"><g id="Grupo_32" data-name="Grupo 32"><path id="Trazado_27" data-name="Trazado 27" class="cls-2" d="M30.2,18.7h.18L40.6,4.64l-.3-.22-10.2,14Z"/></g><g id="Grupo_33" data-name="Grupo 33"><path id="Trazado_28" data-name="Trazado 28" class="cls-2" d="M30.38,19h-.19A.27.27,0,0,1,30,18.8l-.1-.25a.25.25,0,0,1,0-.25l10.2-14a.27.27,0,0,1,.37-.06h0l.3.22a.27.27,0,0,1,.06.37h0L30.59,18.87A.26.26,0,0,1,30.38,19Z"/></g></g><g id="Grupo_37" data-name="Grupo 37"><g id="Grupo_35" data-name="Grupo 35"><path id="Trazado_29" data-name="Trazado 29" class="cls-2" d="M44.33,22.4H34.12l-.45.38H44.33Z"/></g><g id="Grupo_36" data-name="Grupo 36"><path id="Trazado_30" data-name="Trazado 30" class="cls-2" d="M33.67,23a.27.27,0,0,1-.27-.26.28.28,0,0,1,.1-.21L34,22.2a.23.23,0,0,1,.16-.06H44.33a.27.27,0,0,1,.27.26v.38a.27.27,0,0,1-.27.26H33.67Z"/></g></g><g id="Grupo_40" data-name="Grupo 40"><g id="Grupo_38" data-name="Grupo 38"><path id="Trazado_31" data-name="Trazado 31" class="cls-2" d="M16.56,19.15l.68,0L6.16,15.52,6,15.87l10.8,3.51Z"/></g><g id="Grupo_39" data-name="Grupo 39"><path id="Trazado_32" data-name="Trazado 32" class="cls-2" d="M16.84,19.64h-.09L6,16.12a.25.25,0,0,1-.17-.33l.12-.36A.24.24,0,0,1,6,15.28a.27.27,0,0,1,.2,0l11.08,3.6a.27.27,0,0,1,.17.34.26.26,0,0,1-.24.18H17.1a.2.2,0,0,1,0,.11A.27.27,0,0,1,16.84,19.64Z"/></g></g><g id="Grupo_43" data-name="Grupo 43"><g id="Grupo_41" data-name="Grupo 41"><path id="Trazado_33" data-name="Trazado 33" class="cls-2" d="M29.11,28.68,32.4,38.82l.36-.12L29.6,29Z"/></g><g id="Grupo_42" data-name="Grupo 42"><path id="Trazado_34" data-name="Trazado 34" class="cls-2" d="M32.41,39.08a.21.21,0,0,1-.12,0,.29.29,0,0,1-.14-.15L28.86,28.76a.26.26,0,0,1,.17-.33.24.24,0,0,1,.23,0l.5.32a.26.26,0,0,1,.11.14L33,38.62a.26.26,0,0,1-.17.33h0l-.35.12Z"/></g></g><g id="Grupo_46" data-name="Grupo 46"><g id="Grupo_44" data-name="Grupo 44"><path id="Trazado_35" data-name="Trazado 35" class="cls-2" d="M27.33,27.53l-.19.12V44.91h.38V27.65Z"/></g><g id="Grupo_45" data-name="Grupo 45"><path id="Trazado_36" data-name="Trazado 36" class="cls-2" d="M27.52,45.18h-.38a.26.26,0,0,1-.26-.26h0V27.65a.25.25,0,0,1,.12-.22l.18-.12a.26.26,0,0,1,.29,0l.19.12a.25.25,0,0,1,.12.22V44.91a.27.27,0,0,1-.26.27Z"/></g></g><g id="Grupo_49" data-name="Grupo 49"><g id="Grupo_47" data-name="Grupo 47"><path id="Trazado_37" data-name="Trazado 37" class="cls-2" d="M32.63,26.67,41,32.73l.22-.3-8.71-6.32Z"/></g><g id="Grupo_48" data-name="Grupo 48"><path id="Trazado_38" data-name="Trazado 38" class="cls-2" d="M41,33a.27.27,0,0,1-.15,0l-8.34-6.06a.25.25,0,0,1-.1-.15l-.15-.57a.26.26,0,0,1,.19-.32.24.24,0,0,1,.22,0l8.71,6.33a.26.26,0,0,1,.06.37h0l-.22.3A.28.28,0,0,1,41,33Z"/></g></g><g id="Grupo_52" data-name="Grupo 52"><g id="Grupo_50" data-name="Grupo 50"><path id="Trazado_39" data-name="Trazado 39" class="cls-2" d="M32,24.16l0,.15L48.5,29.66l.11-.35L32.2,24Z"/></g><g id="Grupo_51" data-name="Grupo 51"><path id="Trazado_40" data-name="Trazado 40" class="cls-2" d="M48.5,29.93h-.08L31.93,24.56a.28.28,0,0,1-.17-.18l0-.15a.25.25,0,0,1,.09-.27l.22-.19a.25.25,0,0,1,.25,0L48.7,29.06a.27.27,0,0,1,.17.34h0l-.11.35a.29.29,0,0,1-.13.16Z"/></g></g><g id="Grupo_55" data-name="Grupo 55"><g id="Grupo_53" data-name="Grupo 53"><path id="Trazado_41" data-name="Trazado 41" class="cls-2" d="M34,31.81l-.35-.22,6.66,9.17.3-.22-6.77-9.32Z"/></g><g id="Grupo_54" data-name="Grupo 54"><path id="Trazado_42" data-name="Trazado 42" class="cls-2" d="M40.3,41a.26.26,0,0,1-.21-.11l-6.67-9.18a.29.29,0,0,1,0-.34.37.37,0,0,1,.14-.07v0a.27.27,0,0,1,.2-.32.26.26,0,0,1,.27.1l6.78,9.32a.29.29,0,0,1,0,.2.31.31,0,0,1-.11.18l-.3.22A.3.3,0,0,1,40.3,41Z"/></g></g><g id="Grupo_58" data-name="Grupo 58"><g id="Grupo_56" data-name="Grupo 56"><path id="Trazado_43" data-name="Trazado 43" class="cls-2" d="M25.05,29,21.9,38.7l.36.11,3.29-10.13Z"/></g><g id="Grupo_57" data-name="Grupo 57"><path id="Trazado_44" data-name="Trazado 44" class="cls-2" d="M22.26,39.08h-.09L21.82,39a.29.29,0,0,1-.16-.13.27.27,0,0,1,0-.2l3.15-9.7a.26.26,0,0,1,.11-.14l.49-.32a.29.29,0,0,1,.31,0,.27.27,0,0,1,.09.3L22.51,38.9A.27.27,0,0,1,22.26,39.08Z"/></g></g><g id="Grupo_61" data-name="Grupo 61"><g id="Grupo_59" data-name="Grupo 59"><path id="Trazado_45" data-name="Trazado 45" class="cls-2" d="M22.18,26.1l-8.71,6.33.22.3L22,26.67Z"/></g><g id="Grupo_60" data-name="Grupo 60"><path id="Trazado_46" data-name="Trazado 46" class="cls-2" d="M13.69,33h0a.27.27,0,0,1-.18-.11l-.22-.3a.27.27,0,0,1,.06-.37h0L22,25.89a.26.26,0,0,1,.37.06.25.25,0,0,1,0,.22l-.15.57a.25.25,0,0,1-.1.15L13.85,33A.3.3,0,0,1,13.69,33Z"/></g></g><g id="Grupo_64" data-name="Grupo 64"><g id="Grupo_62" data-name="Grupo 62"><path id="Trazado_47" data-name="Trazado 47" class="cls-2" d="M22.69,24.16,22.46,24,6,29.31l.12.35,16.49-5.35Z"/></g><g id="Grupo_63" data-name="Grupo 63"><path id="Trazado_48" data-name="Trazado 48" class="cls-2" d="M6.16,29.93l-.12,0a.31.31,0,0,1-.14-.16l-.11-.35A.27.27,0,0,1,6,29.06H6l16.42-5.33a.25.25,0,0,1,.25,0l.23.18a.3.3,0,0,1,.09.28l0,.15a.29.29,0,0,1-.18.18L6.24,29.92Z"/></g></g><g id="Grupo_67" data-name="Grupo 67"><g id="Grupo_65" data-name="Grupo 65"><path id="Trazado_49" data-name="Trazado 49" class="cls-2" d="M20.68,31.81l.15-.6-6.77,9.33.3.22L21,31.58Z"/></g><g id="Grupo_66" data-name="Grupo 66"><path id="Trazado_50" data-name="Trazado 50" class="cls-2" d="M14.36,41A.33.33,0,0,1,14.2,41l-.3-.22a.28.28,0,0,1-.06-.37h0l6.78-9.33A.27.27,0,0,1,21,31a.27.27,0,0,1,.1.29v0a.37.37,0,0,1,.14.07.26.26,0,0,1,0,.34l-6.66,9.18A.27.27,0,0,1,14.36,41Z"/></g></g></g><g id="Grupo_89" data-name="Grupo 89"><g id="Grupo_72" data-name="Grupo 72"><g id="Grupo_71" data-name="Grupo 71"><g id="Grupo_69" data-name="Grupo 69"><rect id="Rectngulo_1" data-name="Rectngulo 1" class="cls-2" x="27.22" y="11.38" width="0.21" height="16.16"/></g><g id="Grupo_70" data-name="Grupo 70"><path id="Trazado_51" data-name="Trazado 51" class="cls-2" d="M27.53,27.62h-.39V11.29h.39Zm-.22-.17h0v-16h0Z"/></g></g></g><g id="Grupo_76" data-name="Grupo 76"><g id="Grupo_75" data-name="Grupo 75"><g id="Grupo_73" data-name="Grupo 73"><path id="Trazado_52" data-name="Trazado 52" class="cls-2" d="M31.92,24.26l-15.37-5,.07-.2,15.37,5Z"/></g><g id="Grupo_74" data-name="Grupo 74"><path id="Trazado_53" data-name="Trazado 53" class="cls-2" d="M32,24.37,16.44,19.32l.12-.37L32.1,24ZM16.66,19.21l15.2,4.94v0l-15.2-4.94Z"/></g></g></g><g id="Grupo_80" data-name="Grupo 80"><g id="Grupo_79" data-name="Grupo 79"><g id="Grupo_77" data-name="Grupo 77"><path id="Trazado_54" data-name="Trazado 54" class="cls-2" d="M22.72,24.26l-.07-.2,15.37-5,.06.2Z"/></g><g id="Grupo_78" data-name="Grupo 78"><path id="Trazado_55" data-name="Trazado 55" class="cls-2" d="M22.66,24.37,22.54,24,38.07,19l.12.37Zm.1-.26v0L38,19.21v0Z"/></g></g></g><g id="Grupo_84" data-name="Grupo 84"><g id="Grupo_83" data-name="Grupo 83"><g id="Grupo_81" data-name="Grupo 81"><rect id="Rectngulo_2" data-name="Rectngulo 2" class="cls-2" x="29.11" y="17.17" width="0.21" height="16.16" transform="translate(-9.26 22) rotate(-36.01)"/></g><g id="Grupo_82" data-name="Grupo 82"><path id="Trazado_56" data-name="Trazado 56" class="cls-2" d="M33.86,32l-9.6-13.22.31-.23,9.6,13.22ZM24.51,18.79,33.9,31.72l0,0L24.54,18.77Z"/></g></g></g><g id="Grupo_88" data-name="Grupo 88"><g id="Grupo_87" data-name="Grupo 87"><g id="Grupo_85" data-name="Grupo 85"><path id="Trazado_57" data-name="Trazado 57" class="cls-2" d="M20.78,31.84l-.17-.12,9.5-13.07.17.13Z"/></g><g id="Grupo_86" data-name="Grupo 86"><path id="Trazado_58" data-name="Trazado 58" class="cls-2" d="M20.8,32l-.31-.23,9.6-13.22.31.23Zm-.07-.27,0,0,9.4-12.93,0,0Z"/></g></g></g></g><path class="cls-5" d="M179.76,114.36l1-.09a17.29,17.29,0,0,1-3.45-5,41.41,41.41,0,0,1-2.63-8.84c-.87-4.1-2-8.11-3.3-12.1-2-6.13-4.41-12.06-6.87-18a8.31,8.31,0,0,1-.62-5.36,2.93,2.93,0,0,1,2.85-2.43,5.76,5.76,0,0,1,4.43,1.74c3,2.75,4.92,6.28,6.61,9.91A77.94,77.94,0,0,1,183,89.71a75.32,75.32,0,0,1,1.66,10.13c0,.14-.09.32.22.46.17-1,.34-2,.49-2.94.85-5.6,1.93-11.16,3.32-16.66A109.44,109.44,0,0,1,194,64.49a48.25,48.25,0,0,1,7.54-12.7c2.89-3.36,6.28-6.11,10.72-7.17a8.14,8.14,0,0,1,4.53.2c1.63.55,2.15,2,1.05,4a21.83,21.83,0,0,1-4,4.86A52.63,52.63,0,0,0,207,61.61a66.39,66.39,0,0,0-7.52,16.72c-1.51,4.75-2.73,9.57-3.81,14.44q-1.33,6-2.4,12c-.53,3-1.09,6.07-1.51,9.12,0,.15,0,.35-.2.37-1.62.14-2.72,1.46-4.29,1.81A8.34,8.34,0,0,1,179.76,114.36Z"/><path class="cls-2" d="M89.11,93.39c0,6.37,0,12.73,0,19.1,0,.72-.19.94-.91.94q-5.81,0-11.61,0c-.81,0-1.08-.18-1.08-1.06,0-12.64,0-25.28,0-37.92,0-.94-.22-1.21-1.18-1.17-2.08.08-4.18,0-6.27,0-.54,0-.69-.12-.68-.66,0-2.57,0-5.14,0-7.71,0-.56.19-.68.7-.67,2.2,0,4.39,0,6.59,0,.65,0,.84-.16.83-.83a25.92,25.92,0,0,1,.55-7.4,13.06,13.06,0,0,1,10.4-9.9,33.6,33.6,0,0,1,11.14-.23c.49.06,1.16-.2,1.41.21s0,1,0,1.45c0,2.56,0,5.11,0,7.66,0,.55-.12.8-.74.71a30.42,30.42,0,0,0-4.58-.2c-3,0-4.67,1.68-4.7,4.66,0,1,0,2.08,0,3.11,0,.66.22.76.8.75,2.54,0,5.08,0,7.62,0,.66,0,.85.18.84.84q-.06,3.7,0,7.42c0,.67-.21.82-.84.81-2.46,0-4.92,0-7.38,0-.8,0-1,.15-1,1C89.13,80.66,89.11,87,89.11,93.39Z"/><path class="cls-2" d="M284.41,88.66c0-4.83,0-9.66,0-14.49,0-.7-.17-.89-.89-.88-2.15.06-4.3,0-6.45,0-.56,0-.83-.1-.82-.74,0-2.52,0-5,0-7.57,0-.57.16-.75.74-.74,2.19,0,4.39,0,6.58,0,.68,0,.83-.19.82-.84,0-4.33,0-8.65,0-13,0-.7.13-.95.9-.94,4,0,7.91,0,11.86,0,.51,0,.72,0,.72.71,0,3.09,0,6.17,0,9.26,0,1.45.06,2.9.07,4.36,0,.42.11.42.51.41,2.92,0,5.84,0,8.75,0,.47,0,.58.17.58.61,0,2.6,0,5.2,0,7.79,0,.57-.2.64-.71.64-2.76,0-5.53,0-8.3,0-.74,0-.93.3-.92.87.07,5,0,10,0,15,0,3.09,0,6.18.11,9.27.21,4.23,1.64,4.6,4.78,4.91a14.87,14.87,0,0,0,4.46-.3c.39-.08.57,0,.57.43,0,3.17,0,6.33,0,9.5,0,.33-.11.53-.47.55a59.36,59.36,0,0,1-9.8.27,32,32,0,0,1-5.6-.8,9.25,9.25,0,0,1-7.31-8.48c-.39-4-.08-8-.17-12C284.39,91.23,284.41,89.94,284.41,88.66Z"/><path class="cls-2" d="M154.67,104.23c-.08-9.25,0-18.5,0-27.76a12.81,12.81,0,0,0-.52-3.58c-1.13-3.84-3.89-6.13-7.39-7.7-4-1.8-8.36-2-12.67-2.21a38.14,38.14,0,0,0-7.07.47c-4.47.63-8.62,2-12.06,5.06A14.76,14.76,0,0,0,110,78.76c0,.5.09.72.65.7,4-.08,8,.07,12-.06.83,0,.81-.28.9-.86.42-2.72,1.68-4.85,4.42-5.82a14.8,14.8,0,0,1,8.69-.24c4.12,1,4.8,4.43,4.32,7.49-.29,1.82-1.87,2.53-3.42,3.1a32.6,32.6,0,0,1-7.94,1.46,61,61,0,0,0-11.3,2.09,14.23,14.23,0,0,0-6.82,4.17,13.33,13.33,0,0,0-3.08,9.13,15,15,0,0,0,2.13,8.27c2.4,3.8,6.23,5.29,10.31,6.27a12.53,12.53,0,0,0,3.92.22c1.33-.1,2.66-.31,4-.35a21.36,21.36,0,0,0,7.43-1.79,17.19,17.19,0,0,0,5.27-3.62c.36.09.28.31.29.48a15.5,15.5,0,0,0,.63,3.38c.07.3.14.63.64.63,4.37,0,8.74,0,13.19,0C154.87,110.45,154.7,107.33,154.67,104.23ZM141.18,90.11c0,.71,0,1.43,0,2.14-.06,2.54.09,5.1-.87,7.52a8.45,8.45,0,0,1-6.39,5.55,14.88,14.88,0,0,1-8.46-.38c-2.76-1-3.7-3.67-3.49-6.12.29-3.42,2.5-5.06,5.53-6a59,59,0,0,1,7.22-1.3c2.06-.35,4.17-.6,6-1.78C141.09,89.5,141.22,89.65,141.18,90.11Z"/><path class="cls-2" d="M264.8,77.06a22.31,22.31,0,0,0-11-11.87,24.93,24.93,0,0,0-15.29-1.81,23.46,23.46,0,0,0-14,7.72,25.64,25.64,0,0,0-6.19,14.48,30.88,30.88,0,0,0,.34,9.1A24.65,24.65,0,0,0,225.39,108c3.6,3.67,8.21,5.35,13.08,6.44a16.81,16.81,0,0,0,3.26.21c1.75.06,3.48-.26,5.21-.34a21.21,21.21,0,0,0,9.28-2.69c5.2-2.8,8-7.46,9.87-12.83.16-.46,0-.54-.43-.53h-10.8a.56.56,0,0,0-.62.4,9.81,9.81,0,0,1-4.72,4.6c-3,1.58-6.18,1.54-9.38,1a9.43,9.43,0,0,1-5.38-2.89c-2.23-2.41-2.72-5.42-3-8.5-.08-.71.3-.72.84-.72,5.59,0,11.18,0,16.77,0h17c.42,0,.82.13.86-.59A32.51,32.51,0,0,0,264.8,77.06Zm-12.3,6.57h-9.88c-3.36,0-6.71,0-10.07,0-.72,0-.92-.2-.8-.9.61-3.72,2.25-6.72,5.76-8.48a12,12,0,0,1,6.4-1.1,9.77,9.77,0,0,1,4.78,1.35c2.36,1.52,3.49,3.87,4.3,6.43a15.38,15.38,0,0,1,.39,1.52C253.62,83.62,253.61,83.63,252.5,83.63Z"/><rect class="cls-2" x="320.76" y="44.07" width="1" height="71.89"/></g></g></svg>