<?xml version="1.0" encoding="utf-8"?>
<!-- Generator: Adobe Illustrator 22.1.0, SVG Export Plug-In . SVG Version: 6.00 Build 0)  -->
<svg version="1.1" id="Capa_1" xmlns="http://www.w3.org/2000/svg" xmlns:xlink="http://www.w3.org/1999/xlink" x="0px" y="0px"
	 viewBox="0 0 357.4 121.5" style="enable-background:new 0 0 357.4 121.5;" xml:space="preserve">
<style type="text/css">
	.st0{fill-rule:evenodd;clip-rule:evenodd;fill:#003383;}
	.st1{fill:#003383;}
	.st2{fill:none;stroke:#003383;stroke-width:0.5755;stroke-miterlimit:10;}
	.st3{fill:#007D52;}
	.st4{fill:#F3D85C;}
	.st5{fill:#004F93;}
	.st6{fill:#C64731;}
	.st7{fill:#FFFFFF;}
	.st8{fill:#222220;}
	.st9{fill:#D8D8D8;}
</style>
<g>
	<g>
		<g>
			<g>
				<g>
					<path class="st0" d="M72.8,100.2h-5.6v4.5h5.6V100.2z M67.2,116.9h5.6v-11h-5.6V116.9z"/>
					<path class="st0" d="M74.6,116.9h5.6v-5.8c0-0.9,0.3-1.4,0.8-1.7c0.5-0.3,1-0.4,1.5-0.4c0.8,0,1.3,0.2,1.5,0.6
						c0.2,0.4,0.3,0.9,0.3,1.6v5.8h5.6v-7.5c0-1.3-0.6-2.2-1.5-2.8c-1-0.6-2.1-0.9-3.5-0.9c-1.1,0-2.1,0.1-2.8,0.4
						c-0.8,0.3-1.4,0.7-1.9,1.2H80v-1.4h-5.4V116.9z"/>
					<path class="st0" d="M98.2,102.5h-5.6v3.5h-2.5v2.6h2.5v5.2c0,1,0.3,1.7,0.8,2.2c0.5,0.5,1.1,0.8,1.9,0.9
						c0.8,0.1,1.5,0.2,2.4,0.2c0.6,0,1.2,0,1.8-0.1c0.6,0,1.2-0.1,1.8-0.1v-3.2c-0.4,0-0.8,0.1-1.3,0.1c-0.7,0-1.2-0.1-1.4-0.3
						c-0.2-0.2-0.3-0.6-0.3-1.1v-3.8h3v-2.6h-3V102.5z"/>
					<path class="st0" d="M116.9,110c0-0.7,0-1.4-0.2-2.1c-0.2-0.6-0.8-1.2-1.8-1.6c-1-0.4-2.6-0.6-4.9-0.6c-1.2,0-2.3,0.1-3.5,0.2
						c-1.1,0.2-2.1,0.5-2.8,1c-0.8,0.5-1.2,1.3-1.3,2.3h5.2c0-0.3,0.1-0.5,0.4-0.7c0.3-0.2,0.8-0.4,1.7-0.4c0.5,0,0.9,0.1,1.3,0.2
						c0.4,0.2,0.6,0.4,0.6,0.8c0,0.3-0.2,0.6-0.5,0.7c-0.3,0.1-0.7,0.2-1,0.3c-0.7,0.1-1.6,0.2-2.5,0.3c-0.9,0.1-1.8,0.2-2.7,0.5
						c-0.9,0.2-1.6,0.6-2.2,1c-0.6,0.5-0.9,1.1-0.9,2c0,1.1,0.5,2,1.5,2.5c1,0.5,2.2,0.8,3.6,0.8c0.9,0,1.8-0.1,2.6-0.3
						c0.8-0.2,1.5-0.5,2.1-1h0.1c0,0.2,0,0.3,0,0.5c0,0.2,0.1,0.4,0.2,0.5h5.7c-0.3-0.4-0.5-0.7-0.6-1.2c-0.1-0.4-0.1-0.9-0.1-1.3
						V110z M111.6,113c-0.1,0.6-0.3,1-0.7,1.3c-0.4,0.3-1,0.4-1.6,0.4c-0.5,0-0.9-0.1-1.3-0.3c-0.3-0.2-0.5-0.4-0.5-0.7
						c0-0.4,0.2-0.6,0.5-0.8c0.3-0.2,0.8-0.3,1.4-0.4c0.4-0.1,0.8-0.1,1.1-0.2c0.4-0.1,0.7-0.2,1.1-0.3V113z"/>
				</g>
			</g>
			<g>
				<g>
					<path class="st1" d="M136.4,81.2c0,2.1,0,5,3.2,5c3.2,0,3.2-2.9,3.2-5v-10h1.4v11c0,4.1-2.2,5.2-4.6,5.2
						c-2.5,0-4.6-1.1-4.6-5.2v-11h1.4V81.2z"/>
					<path class="st1" d="M148.9,87.1V71.3h2.2l6.4,14l0,0V71.3h1.4v15.9h-2.1L150.3,73l0,0v14.1H148.9z"/>
					<path class="st1" d="M165.2,71.3v15.9h-1.4V71.3H165.2z"/>
					<path class="st1" d="M177.8,71.3h1.4l-4.4,15.9H173l-4.4-15.9h1.5l3.8,14.2h0L177.8,71.3z"/>
					<path class="st1" d="M189.6,71.3v1.2h-5.8v5.9h5.5v1.2h-5.5v6.4h5.9v1.2h-7.3V71.3H189.6z"/>
					<path class="st1" d="M194.9,79.4v7.7h-1.4V71.3h4.4c3.1,0,3.8,1,3.8,3.8c0,2-0.3,3.3-2.5,3.8v0c2.2,0.5,2.4,0.7,2.4,6.4
						c0,0.6,0.1,1.2,0.2,1.8h-1.3c-0.1-0.5-0.2-3.1-0.2-4c0-0.7,0.4-3.7-2.6-3.7H194.9z M194.9,78.2h2.3c2.1,0,3.1-0.5,3.1-3.2
						c0-2.2-0.9-2.6-2.5-2.6h-2.9V78.2z"/>
					<path class="st1" d="M212.7,75.3c0-2-0.5-3.1-2.7-3.1c-1.7,0-2.8,0.6-2.8,2.5c0,2.4,1.2,2.4,3,3.7c2,1.4,4,1.8,4,4.9
						c0,2.8-1.5,4.2-4.2,4.2c-3.1,0-4.5-1.7-4.4-4.8h1.5c0,1.8,0.1,3.6,3,3.6c1.8,0,2.8-1,2.8-2.8c0-2.2-1.4-2.8-3.7-4.2
						c-3.1-1.9-3.2-2.8-3.2-4.4c0-2.8,1.7-3.9,4.3-3.9c3.3,0,4,2,4,4.3H212.7z"/>
					<path class="st1" d="M220,71.3v15.9h-1.4V71.3H220z"/>
					<path class="st1" d="M224.8,71.3h4.2c4.4,0,5,2.6,5,8c0,5.3-0.8,7.9-5.6,7.9h-3.6V71.3z M226.2,85.9h1.7c4.2,0,4.7-1.1,4.7-7.6
						c0-4.6-0.6-5.9-4.5-5.9h-1.8V85.9z"/>
					<path class="st1" d="M243.8,71.3l5,15.9h-1.5L246,83h-6.2l-1.3,4.2h-1.4l5-15.9H243.8z M245.6,81.8l-2.7-9h0l-2.7,9H245.6z"/>
					<path class="st1" d="M252.1,71.3h4.2c4.4,0,5,2.6,5,8c0,5.3-0.8,7.9-5.6,7.9h-3.6V71.3z M253.6,85.9h1.7c4.2,0,4.7-1.1,4.7-7.6
						c0-4.6-0.6-5.9-4.5-5.9h-1.8V85.9z"/>
					<path class="st1" d="M272.1,71.3h4.2c4.4,0,5,2.6,5,8c0,5.3-0.8,7.9-5.6,7.9h-3.6V71.3z M273.5,85.9h1.7c4.2,0,4.7-1.1,4.7-7.6
						c0-4.6-0.6-5.9-4.5-5.9h-1.8V85.9z"/>
					<path class="st1" d="M293,71.3v1.2h-5.8v5.9h5.5v1.2h-5.5v6.4h5.9v1.2h-7.3V71.3H293z"/>
					<path class="st1" d="M302.9,79.2c0-3.1-0.4-8.3,4.8-8.3c4.1,0,3.9,3.7,3.9,4.6h-1.5c0.1-1.8-0.5-3.4-2.5-3.4
						c-3.4,0-3.4,3.1-3.4,7.1c0,4,0,7.1,3.4,7.1c1.8,0,2.5-1.6,2.5-3.7h1.5c0,1.1-0.3,4.9-4,4.9C302.5,87.4,302.9,82.3,302.9,79.2z"
						/>
					<path class="st1" d="M315.7,87.1V71.3h1.4v7.1h6.2v-7.1h1.4v15.9h-1.4v-7.6h-6.2v7.6H315.7z"/>
					<path class="st1" d="M330.9,71.3v15.9h-1.4V71.3H330.9z"/>
					<path class="st1" d="M335.5,87.1V71.3h1.4v14.7h5.3v1.2H335.5z"/>
					<path class="st1" d="M352.9,71.3v1.2h-5.8v5.9h5.5v1.2h-5.5v6.4h5.9v1.2h-7.3V71.3H352.9z"/>
					<path class="st1" d="M134.2,102.7v-7.6h1.6v7.6H134.2z"/>
					<path class="st1" d="M138.5,98L138.5,98c0.2-0.2,0.3-0.4,0.5-0.5c0.2-0.1,0.5-0.1,0.7-0.1c0.7,0,1.3,0.4,1.3,1.2v4.3h-1.5v-3.7
						c0-0.5-0.1-0.8-0.6-0.8c-0.5,0-0.6,0.4-0.6,0.8v3.7H137v-5.3h1.5V98z"/>
					<path class="st1" d="M143.4,101c0,0.2,0,0.5,0.1,0.6c0.1,0.2,0.2,0.3,0.5,0.3c0.3,0,0.5-0.2,0.5-0.5c0-1.1-2.6-0.9-2.6-2.6
						c0-1.1,1.1-1.5,2.1-1.5c1,0,1.9,0.5,1.8,1.6h-1.4c0-0.4,0-0.6-0.1-0.7c-0.1-0.1-0.2-0.1-0.4-0.1c-0.3,0-0.5,0.2-0.5,0.6
						c0,0.8,2.6,0.8,2.6,2.5c0,0.9-0.8,1.6-2,1.6c-1.3,0-2.2-0.3-2.1-1.8H143.4z"/>
					<path class="st1" d="M146.3,97.4h0.6v-0.8l1.5-0.7v1.5h0.8v0.9h-0.8v2.8c0,0.4,0,0.7,0.5,0.7c0.1,0,0.2,0,0.3,0v0.9
						c-0.2,0-0.4,0.1-0.8,0.1c-1.3,0-1.4-0.9-1.4-1.2v-3.3h-0.6V97.4z"/>
					<path class="st1" d="M151.5,95.2v1.2H150v-1.2H151.5z M151.5,102.7H150v-5.3h1.5V102.7z"/>
					<path class="st1" d="M152.2,97.4h0.6v-0.8l1.5-0.7v1.5h0.8v0.9h-0.8v2.8c0,0.4,0,0.7,0.5,0.7c0.1,0,0.2,0,0.3,0v0.9
						c-0.2,0-0.4,0.1-0.8,0.1c-1.3,0-1.4-0.9-1.4-1.2v-3.3h-0.6V97.4z"/>
					<path class="st1" d="M158.3,102.2L158.3,102.2c-0.2,0.2-0.3,0.4-0.5,0.5c-0.2,0.1-0.4,0.1-0.7,0.1c-0.7,0-1.3-0.4-1.3-1.2v-4.3
						h1.5v3.7c0,0.5,0.1,0.8,0.6,0.8c0.5,0,0.6-0.3,0.6-0.8v-3.7h1.5v4.3c0,0.3,0,0.7,0.1,1h-1.5V102.2z"/>
					<path class="st1" d="M160.4,97.4h0.6v-0.8l1.5-0.7v1.5h0.8v0.9h-0.8v2.8c0,0.4,0,0.7,0.5,0.7c0.1,0,0.2,0,0.3,0v0.9
						c-0.2,0-0.4,0.1-0.8,0.1c-1.3,0-1.4-0.9-1.4-1.2v-3.3h-0.6V97.4z"/>
					<path class="st1" d="M163.7,100c0-1.4,0.2-2.7,2.2-2.7c2,0,2.2,1.2,2.2,2.7c0,1.7-0.3,2.8-2.2,2.8
						C164,102.8,163.7,101.7,163.7,100z M166.6,99.9c0-1.1-0.1-1.7-0.7-1.7c-0.6,0-0.7,0.6-0.7,1.7c0,1.6,0.1,2,0.7,2
						C166.5,101.9,166.6,101.6,166.6,99.9z"/>
					<path class="st1" d="M174.1,102.7v-0.6h0c-0.3,0.5-0.7,0.7-1.3,0.7c-1.5,0-1.5-1.7-1.5-2.8c0-1.1,0-2.7,1.4-2.7
						c0.5,0,0.9,0.2,1.2,0.6h0v-2.8h1.5v7.6H174.1z M174,100c0-1.1,0-1.8-0.6-1.8c-0.6,0-0.6,0.7-0.6,1.8c0,1.3,0.1,1.9,0.6,1.9
						C173.9,101.9,174,101.4,174,100z"/>
					<path class="st1" d="M178.1,100.3c0,0.6,0,1.6,0.7,1.6c0.5,0,0.6-0.5,0.6-0.9h1.5c0,0.6-0.2,1.1-0.6,1.4
						c-0.3,0.3-0.9,0.5-1.6,0.5c-1.9,0-2.2-1.2-2.2-2.8c0-1.4,0.2-2.7,2.2-2.7c2,0,2.2,1.3,2.2,3H178.1z M179.4,99.5
						c0-0.5,0-1.2-0.7-1.2c-0.7,0-0.7,0.8-0.7,1.2H179.4z"/>
					<path class="st1" d="M184.4,102.7v-7.6h2.1l2,5.3h0v-5.3h1.5v7.6h-2.1l-2.1-5.5h0v5.5H184.4z"/>
					<path class="st1" d="M193.9,102.2L193.9,102.2c-0.2,0.2-0.3,0.4-0.5,0.5c-0.2,0.1-0.4,0.1-0.7,0.1c-0.7,0-1.3-0.4-1.3-1.2v-4.3
						h1.5v3.7c0,0.5,0.1,0.8,0.6,0.8c0.5,0,0.6-0.3,0.6-0.8v-3.7h1.5v4.3c0,0.3,0,0.7,0.1,1h-1.5V102.2z"/>
					<path class="st1" d="M195.9,97.4h0.6v-0.8l1.5-0.7v1.5h0.8v0.9H198v2.8c0,0.4,0,0.7,0.5,0.7c0.1,0,0.2,0,0.3,0v0.9
						c-0.2,0-0.4,0.1-0.8,0.1c-1.3,0-1.4-0.9-1.4-1.2v-3.3h-0.6V97.4z"/>
					<path class="st1" d="M200.9,97.4v0.7h0c0.3-0.6,0.8-0.8,1.4-0.8v1.3c-1.3-0.1-1.3,0.7-1.3,1.2v2.9h-1.5v-5.3H200.9z"/>
					<path class="st1" d="M204.6,95.2v1.2h-1.5v-1.2H204.6z M204.6,102.7h-1.5v-5.3h1.5V102.7z"/>
					<path class="st1" d="M208.6,99.3c0-0.8-0.2-1-0.7-1c-0.6,0-0.7,0.6-0.7,1.7c0,1.6,0.1,2,0.7,2c0.5,0,0.7-0.4,0.7-1.1h1.5
						c0,1.4-0.8,2.1-2.2,2.1c-1.9,0-2.2-1.2-2.2-2.8c0-1.4,0.2-2.7,2.2-2.7c1.4,0,2.1,0.6,2.1,2H208.6z"/>
					<path class="st1" d="M212.7,95.2v1.2h-1.5v-1.2H212.7z M212.7,102.7h-1.5v-5.3h1.5V102.7z"/>
					<path class="st1" d="M213.9,100c0-1.4,0.2-2.7,2.2-2.7c2,0,2.2,1.2,2.2,2.7c0,1.7-0.3,2.8-2.2,2.8
						C214.2,102.8,213.9,101.7,213.9,100z M217.5,95.2l-1.7,1.5h-0.7l0.9-1.5H217.5z M216.8,99.9c0-1.1-0.1-1.7-0.7-1.7
						c-0.6,0-0.7,0.6-0.7,1.7c0,1.6,0.1,2,0.7,2C216.6,101.9,216.8,101.6,216.8,99.9z"/>
					<path class="st1" d="M220.8,98L220.8,98c0.2-0.2,0.3-0.4,0.5-0.5c0.2-0.1,0.5-0.1,0.7-0.1c0.7,0,1.3,0.4,1.3,1.2v4.3h-1.5v-3.7
						c0-0.5-0.1-0.8-0.6-0.8c-0.5,0-0.6,0.4-0.6,0.8v3.7h-1.5v-5.3h1.5V98z"/>
					<path class="st1" d="M227.8,102.8l-1.4-5.3h1.5l0.8,3.7h0l0.8-3.7h1.4l-2,7.3h-1.6L227.8,102.8z"/>
					<path class="st1" d="M238.4,95.2v1.3h-1.8v6.3h-1.6v-6.3h-1.8v-1.3H238.4z"/>
					<path class="st1" d="M239.7,100.3c0,0.6,0,1.6,0.7,1.6c0.5,0,0.6-0.5,0.6-0.9h1.5c0,0.6-0.2,1.1-0.6,1.4
						c-0.3,0.3-0.9,0.5-1.6,0.5c-1.9,0-2.2-1.2-2.2-2.8c0-1.4,0.2-2.7,2.2-2.7c2,0,2.2,1.3,2.2,3H239.7z M241.1,99.5
						c0-0.5,0-1.2-0.7-1.2c-0.7,0-0.7,0.8-0.7,1.2H241.1z"/>
					<path class="st1" d="M246.3,99.3c0-0.8-0.2-1-0.7-1c-0.6,0-0.7,0.6-0.7,1.7c0,1.6,0.1,2,0.7,2c0.5,0,0.7-0.4,0.7-1.1h1.5
						c0,1.4-0.8,2.1-2.2,2.1c-1.9,0-2.2-1.2-2.2-2.8c0-1.4,0.2-2.7,2.2-2.7c1.4,0,2.1,0.6,2.1,2H246.3z"/>
					<path class="st1" d="M250.3,98L250.3,98c0.2-0.2,0.3-0.4,0.5-0.5c0.2-0.1,0.5-0.1,0.7-0.1c0.7,0,1.3,0.4,1.3,1.2v4.3h-1.5v-3.7
						c0-0.5-0.1-0.8-0.6-0.8c-0.5,0-0.6,0.4-0.6,0.8v3.7h-1.5v-5.3h1.5V98z"/>
					<path class="st1" d="M254,100c0-1.4,0.2-2.7,2.2-2.7c2,0,2.2,1.2,2.2,2.7c0,1.7-0.3,2.8-2.2,2.8C254.2,102.8,254,101.7,254,100
						z M256.8,99.9c0-1.1-0.1-1.7-0.7-1.7c-0.6,0-0.7,0.6-0.7,1.7c0,1.6,0.1,2,0.7,2C256.7,101.9,256.8,101.6,256.8,99.9z"/>
					<path class="st1" d="M260.9,95.2v7.6h-1.5v-7.6H260.9z"/>
					<path class="st1" d="M262.1,100c0-1.4,0.2-2.7,2.2-2.7c2,0,2.2,1.2,2.2,2.7c0,1.7-0.3,2.8-2.2,2.8
						C262.4,102.8,262.1,101.7,262.1,100z M265,99.9c0-1.1-0.1-1.7-0.7-1.7c-0.6,0-0.7,0.6-0.7,1.7c0,1.6,0.1,2,0.7,2
						C264.8,101.9,265,101.6,265,99.9z"/>
					<path class="st1" d="M271.6,97.4v5.5c0,0.4,0,1.8-2,1.8c-1.1,0-2-0.3-2.1-1.6h1.4c0,0.2,0,0.4,0.1,0.5c0.1,0.1,0.3,0.2,0.5,0.2
						c0.4,0,0.5-0.3,0.5-0.9v-1h0c-0.2,0.4-0.6,0.6-1.1,0.6c-1.6,0-1.6-1.5-1.6-2.7c0-1.2,0-2.6,1.6-2.6c0.5,0,1,0.2,1.2,0.7h0v-0.6
						H271.6z M269.5,101.8c0.5,0,0.6-0.6,0.6-1.7c0-1.2-0.1-1.8-0.6-1.8c-0.6,0-0.7,0.4-0.7,2C268.8,100.7,268.8,101.8,269.5,101.8z
						"/>
					<path class="st1" d="M275.1,95.2l-1.7,1.5h-0.7l0.9-1.5H275.1z M274.4,102.7h-1.5v-5.3h1.5V102.7z"/>
					<path class="st1" d="M279.7,101.8c0,0.3,0,0.7,0.1,1h-1.4l-0.1-0.7h0c-0.3,0.5-0.7,0.8-1.4,0.8c-1,0-1.4-0.8-1.4-1.7
						c0-1.8,1.4-1.8,2.7-1.8v-0.4c0-0.5-0.1-0.8-0.6-0.8c-0.5,0-0.6,0.4-0.6,0.8h-1.4c0-0.6,0.2-1,0.5-1.3c0.3-0.3,0.8-0.3,1.4-0.3
						c1.9,0,2.1,0.8,2.1,1.8V101.8z M277,101.1c0,0.4,0.1,0.8,0.5,0.8c0.9,0,0.7-1.2,0.7-1.8C277.5,100.2,277,100.1,277,101.1z"/>
					<path class="st1" d="M285.9,102.7v-0.6h0c-0.3,0.5-0.7,0.7-1.3,0.7c-1.5,0-1.5-1.7-1.5-2.8c0-1.1,0-2.7,1.4-2.7
						c0.5,0,0.9,0.2,1.2,0.6h0v-2.8h1.5v7.6H285.9z M285.8,100c0-1.1,0-1.8-0.6-1.8c-0.6,0-0.6,0.7-0.6,1.8c0,1.3,0.1,1.9,0.6,1.9
						C285.7,101.9,285.8,101.4,285.8,100z"/>
					<path class="st1" d="M289.9,100.3c0,0.6,0,1.6,0.7,1.6c0.5,0,0.6-0.5,0.6-0.9h1.5c0,0.6-0.2,1.1-0.6,1.4
						c-0.3,0.3-0.9,0.5-1.6,0.5c-1.9,0-2.2-1.2-2.2-2.8c0-1.4,0.2-2.7,2.2-2.7c2,0,2.2,1.3,2.2,3H289.9z M291.2,99.5
						c0-0.5,0-1.2-0.7-1.2c-0.7,0-0.7,0.8-0.7,1.2H291.2z"/>
					<path class="st1" d="M297.7,95.2v7.6h-1.5v-7.6H297.7z"/>
					<path class="st1" d="M298.9,100c0-1.4,0.2-2.7,2.2-2.7c2,0,2.2,1.2,2.2,2.7c0,1.7-0.3,2.8-2.2,2.8
						C299.1,102.8,298.9,101.7,298.9,100z M301.7,99.9c0-1.1-0.1-1.7-0.7-1.7c-0.6,0-0.7,0.6-0.7,1.7c0,1.6,0.1,2,0.7,2
						C301.6,101.9,301.7,101.6,301.7,99.9z"/>
					<path class="st1" d="M305.4,101c0,0.2,0,0.5,0.1,0.6c0.1,0.2,0.2,0.3,0.5,0.3c0.3,0,0.5-0.2,0.5-0.5c0-1.1-2.6-0.9-2.6-2.6
						c0-1.1,1.1-1.5,2.1-1.5c1,0,1.9,0.5,1.8,1.6h-1.4c0-0.4,0-0.6-0.1-0.7c-0.1-0.1-0.2-0.1-0.4-0.1c-0.3,0-0.5,0.2-0.5,0.6
						c0,0.8,2.6,0.8,2.6,2.5c0,0.9-0.8,1.6-2,1.6c-1.3,0-2.2-0.3-2.1-1.8H305.4z"/>
					<path class="st1" d="M310.7,102.7l2.1-7.6h2.1l2.1,7.6h-1.7l-0.4-1.7h-2.2l-0.4,1.7H310.7z M313.8,96.6L313.8,96.6l-0.7,3.3
						h1.5L313.8,96.6z"/>
					<path class="st1" d="M319.3,95.2v7.6h-1.5v-7.6H319.3z"/>
					<path class="st1" d="M322.2,95.2v1.2h-1.5v-1.2H322.2z M322.2,102.7h-1.5v-5.3h1.5V102.7z"/>
					<path class="st1" d="M324.9,98L324.9,98c0.3-0.5,0.7-0.6,1.3-0.6c0.5,0,0.9,0.3,1.2,0.7c0.3-0.5,0.8-0.7,1.4-0.7
						c0.7,0,1.3,0.4,1.3,1.2v4.3h-1.5v-3.7c0-0.5-0.1-0.8-0.6-0.8c-0.5,0-0.6,0.4-0.6,0.8v3.7H326v-3.7c0-0.5-0.1-0.8-0.6-0.8
						c-0.5,0-0.6,0.4-0.6,0.8v3.7h-1.5v-5.3h1.5V98z"/>
					<path class="st1" d="M332.4,100.3c0,0.6,0,1.6,0.7,1.6c0.5,0,0.6-0.5,0.6-0.9h1.5c0,0.6-0.2,1.1-0.6,1.4
						c-0.3,0.3-0.9,0.5-1.6,0.5c-1.9,0-2.2-1.2-2.2-2.8c0-1.4,0.2-2.7,2.2-2.7c2,0,2.2,1.3,2.2,3H332.4z M333.8,99.5
						c0-0.5,0-1.2-0.7-1.2c-0.7,0-0.7,0.8-0.7,1.2H333.8z"/>
					<path class="st1" d="M337.8,98L337.8,98c0.2-0.2,0.3-0.4,0.5-0.5c0.2-0.1,0.5-0.1,0.7-0.1c0.7,0,1.3,0.4,1.3,1.2v4.3h-1.5v-3.7
						c0-0.5-0.1-0.8-0.6-0.8c-0.5,0-0.6,0.4-0.6,0.8v3.7h-1.5v-5.3h1.5V98z"/>
					<path class="st1" d="M341,97.4h0.6v-0.8l1.5-0.7v1.5h0.8v0.9h-0.8v2.8c0,0.4,0,0.7,0.5,0.7c0.1,0,0.2,0,0.3,0v0.9
						c-0.2,0-0.4,0.1-0.8,0.1c-1.3,0-1.4-0.9-1.4-1.2v-3.3H341V97.4z"/>
					<path class="st1" d="M344.4,100c0-1.4,0.2-2.7,2.2-2.7c2,0,2.2,1.2,2.2,2.7c0,1.7-0.3,2.8-2.2,2.8
						C344.6,102.8,344.4,101.7,344.4,100z M347.2,99.9c0-1.1-0.1-1.7-0.7-1.7c-0.6,0-0.7,0.6-0.7,1.7c0,1.6,0.1,2,0.7,2
						C347.1,101.9,347.2,101.6,347.2,99.9z"/>
					<path class="st1" d="M350.9,101c0,0.2,0,0.5,0.1,0.6c0.1,0.2,0.2,0.3,0.5,0.3c0.3,0,0.5-0.2,0.5-0.5c0-1.1-2.6-0.9-2.6-2.6
						c0-1.1,1.1-1.5,2.1-1.5c1,0,1.9,0.5,1.8,1.6h-1.4c0-0.4,0-0.6-0.1-0.7c-0.1-0.1-0.2-0.1-0.4-0.1c-0.3,0-0.5,0.2-0.5,0.6
						c0,0.8,2.6,0.8,2.6,2.5c0,0.9-0.8,1.6-2,1.6c-1.3,0-2.2-0.3-2.1-1.8H350.9z"/>
					<path class="st1" d="M134.2,108.8h2.6c2.1,0,2.5,1.4,2.5,3.7c0,1.2,0.2,3.8-2.5,3.8h-2.6V108.8z M135.8,115.2h0.8
						c1,0,1.2-0.7,1.2-2.6c0-1.4,0-2.6-1.1-2.6h-0.8V115.2z"/>
					<path class="st1" d="M142.3,113.6c0-1.4,0.2-2.7,2.2-2.7c2,0,2.2,1.2,2.2,2.7c0,1.7-0.3,2.8-2.2,2.8
						C142.6,116.4,142.3,115.3,142.3,113.6z M145.2,113.5c0-1.1-0.1-1.7-0.7-1.7c-0.6,0-0.7,0.6-0.7,1.7c0,1.6,0.1,2,0.7,2
						C145,115.5,145.2,115.2,145.2,113.5z"/>
					<path class="st1" d="M152.3,112.9c0-0.8-0.2-1-0.7-1c-0.6,0-0.7,0.6-0.7,1.7c0,1.6,0.1,2,0.7,2c0.5,0,0.7-0.4,0.7-1.1h1.5
						c0,1.4-0.8,2.1-2.2,2.1c-1.9,0-2.2-1.2-2.2-2.8c0-1.4,0.2-2.7,2.2-2.7c1.4,0,2.1,0.6,2.1,2H152.3z"/>
					<path class="st1" d="M156.2,111h0.6v-0.8l1.5-0.7v1.5h0.8v0.9h-0.8v2.8c0,0.4,0,0.7,0.5,0.7c0.1,0,0.2,0,0.3,0v0.9
						c-0.2,0-0.4,0.1-0.8,0.1c-1.3,0-1.4-0.9-1.4-1.2v-3.3h-0.6V111z"/>
					<path class="st1" d="M161.5,113.6c0-1.4,0.2-2.7,2.2-2.7c2,0,2.2,1.2,2.2,2.7c0,1.7-0.3,2.8-2.2,2.8
						C161.7,116.4,161.5,115.3,161.5,113.6z M164.3,113.5c0-1.1-0.1-1.7-0.7-1.7c-0.6,0-0.7,0.6-0.7,1.7c0,1.6,0.1,2,0.7,2
						C164.2,115.5,164.3,115.2,164.3,113.5z"/>
					<path class="st1" d="M170.2,111v0.7h0c0.3-0.6,0.8-0.8,1.4-0.8v1.3c-1.3-0.1-1.3,0.7-1.3,1.2v2.9h-1.5V111H170.2z"/>
					<path class="st1" d="M178.4,116.3v-7.6h3.9v1.2H180v1.9h2.2v1.2H180v3.3H178.4z"/>
					<path class="st1" d="M186.3,113.9c0,0.6,0,1.6,0.7,1.6c0.5,0,0.6-0.5,0.6-0.9h1.5c0,0.6-0.2,1-0.6,1.4
						c-0.3,0.3-0.9,0.5-1.6,0.5c-1.9,0-2.2-1.2-2.2-2.8c0-1.4,0.2-2.7,2.2-2.7c2,0,2.2,1.3,2.2,3H186.3z M187.7,113.1
						c0-0.5,0-1.2-0.7-1.2c-0.7,0-0.7,0.8-0.7,1.2H187.7z"/>
					<path class="st1" d="M193.5,111v0.7h0c0.3-0.6,0.8-0.8,1.4-0.8v1.3c-1.3-0.1-1.3,0.7-1.3,1.2v2.9h-1.5V111H193.5z"/>
					<path class="st1" d="M199,111.6L199,111.6c0.2-0.2,0.3-0.4,0.5-0.5c0.2-0.1,0.5-0.1,0.7-0.1c0.7,0,1.3,0.4,1.3,1.2v4.3h-1.5
						v-3.7c0-0.5-0.1-0.8-0.6-0.8c-0.5,0-0.6,0.4-0.6,0.8v3.7h-1.5V111h1.5V111.6z"/>
					<path class="st1" d="M208.7,115.3c0,0.3,0,0.7,0.1,1h-1.4l-0.1-0.7h0c-0.3,0.5-0.7,0.8-1.4,0.8c-1,0-1.4-0.8-1.4-1.7
						c0-1.8,1.4-1.8,2.7-1.8v-0.4c0-0.5-0.1-0.8-0.6-0.8c-0.5,0-0.6,0.4-0.6,0.8h-1.4c0-0.6,0.2-1,0.5-1.3c0.3-0.3,0.8-0.3,1.4-0.3
						c1.9,0,2.1,0.8,2.1,1.8V115.3z M206,114.7c0,0.4,0.1,0.8,0.5,0.8c0.9,0,0.7-1.2,0.7-1.8C206.5,113.8,206,113.7,206,114.7z"/>
					<path class="st1" d="M213.3,111.6L213.3,111.6c0.2-0.2,0.3-0.4,0.5-0.5c0.2-0.1,0.5-0.1,0.7-0.1c0.7,0,1.3,0.4,1.3,1.2v4.3
						h-1.5v-3.7c0-0.5-0.1-0.8-0.6-0.8c-0.5,0-0.6,0.4-0.6,0.8v3.7h-1.5V111h1.5V111.6z"/>
					<path class="st1" d="M221.7,116.3v-0.6h0c-0.3,0.5-0.7,0.7-1.2,0.7c-1.5,0-1.5-1.7-1.5-2.8c0-1.1,0-2.7,1.4-2.7
						c0.5,0,0.9,0.2,1.2,0.6h0v-2.8h1.5v7.6H221.7z M221.6,113.6c0-1.1,0-1.8-0.6-1.8c-0.6,0-0.6,0.7-0.6,1.8c0,1.3,0.1,1.9,0.6,1.9
						C221.5,115.5,221.6,115,221.6,113.6z"/>
					<path class="st1" d="M226.1,113.6c0-1.4,0.2-2.7,2.2-2.7c2,0,2.2,1.2,2.2,2.7c0,1.7-0.3,2.8-2.2,2.8
						C226.3,116.4,226.1,115.3,226.1,113.6z M228.9,113.5c0-1.1-0.1-1.7-0.7-1.7c-0.6,0-0.7,0.6-0.7,1.7c0,1.6,0.1,2,0.7,2
						C228.8,115.5,228.9,115.2,228.9,113.5z"/>
					<path class="st1" d="M237.6,116.3v-7.6h2.6l1.2,5.2h0l1.3-5.2h2.5v7.6h-1.5v-5.8h0l-1.5,5.8h-1.5l-1.4-5.8h0v5.8H237.6z"/>
					<path class="st1" d="M248.1,113.6c0-1.4,0.2-2.7,2.2-2.7c2,0,2.2,1.2,2.2,2.7c0,1.7-0.3,2.8-2.2,2.8
						C248.4,116.4,248.1,115.3,248.1,113.6z M251,113.5c0-1.1-0.1-1.7-0.7-1.7c-0.6,0-0.7,0.6-0.7,1.7c0,1.6,0.1,2,0.7,2
						C250.8,115.5,251,115.2,251,113.5z"/>
					<path class="st1" d="M256.9,111.6L256.9,111.6c0.2-0.2,0.3-0.4,0.5-0.5c0.2-0.1,0.5-0.1,0.7-0.1c0.7,0,1.3,0.4,1.3,1.2v4.3H258
						v-3.7c0-0.5-0.1-0.8-0.6-0.8c-0.5,0-0.6,0.4-0.6,0.8v3.7h-1.5V111h1.5V111.6z"/>
					<path class="st1" d="M265.3,112.9c0-0.8-0.2-1-0.7-1c-0.6,0-0.7,0.6-0.7,1.7c0,1.6,0.1,2,0.7,2c0.5,0,0.7-0.4,0.7-1.1h1.5
						c0,1.4-0.8,2.1-2.2,2.1c-1.9,0-2.2-1.2-2.2-2.8c0-1.4,0.2-2.7,2.2-2.7c1.4,0,2.1,0.6,2.1,2H265.3z"/>
					<path class="st1" d="M269.7,116.3v-7.6h1.5v4.5h0l1.3-2.2h1.5l-1.5,2.4l1.7,2.9h-1.7l-1.4-2.9h0v2.9H269.7z"/>
					<path class="st1" d="M278.3,113.9c0,0.6,0,1.6,0.7,1.6c0.5,0,0.6-0.5,0.6-0.9h1.5c0,0.6-0.2,1-0.6,1.4
						c-0.3,0.3-0.9,0.5-1.6,0.5c-1.9,0-2.2-1.2-2.2-2.8c0-1.4,0.2-2.7,2.2-2.7c2,0,2.2,1.3,2.2,3H278.3z M279.6,113.1
						c0-0.5,0-1.2-0.7-1.2c-0.7,0-0.7,0.8-0.7,1.2H279.6z"/>
					<path class="st1" d="M284.1,108.8h1.5v2.8h0c0.3-0.5,0.7-0.6,1.2-0.6c1.5,0,1.4,1.6,1.4,2.7c0,1.1,0.1,2.8-1.5,2.8
						c-0.6,0-1-0.2-1.2-0.7h0v0.6h-1.4V108.8z M286.8,113.6c0-1.1,0-1.8-0.6-1.8c-0.6,0-0.6,0.7-0.6,1.8c0,1.3,0.1,1.9,0.6,1.9
						C286.7,115.5,286.8,115,286.8,113.6z"/>
					<path class="st1" d="M292.6,113.9c0,0.6,0,1.6,0.7,1.6c0.5,0,0.6-0.5,0.6-0.9h1.5c0,0.6-0.2,1-0.6,1.4
						c-0.3,0.3-0.9,0.5-1.6,0.5c-1.9,0-2.2-1.2-2.2-2.8c0-1.4,0.2-2.7,2.2-2.7c2,0,2.2,1.3,2.2,3H292.6z M293.9,113.1
						c0-0.5,0-1.2-0.7-1.2c-0.7,0-0.7,0.8-0.7,1.2H293.9z"/>
					<path class="st1" d="M299.8,111v0.7h0c0.3-0.6,0.8-0.8,1.4-0.8v1.3c-1.3-0.1-1.3,0.7-1.3,1.2v2.9h-1.5V111H299.8z"/>
					<path class="st1" d="M307.8,111v5.5c0,0.4,0,1.8-2,1.8c-1.1,0-2-0.3-2.1-1.6h1.4c0,0.2,0,0.4,0.1,0.5c0.1,0.1,0.3,0.2,0.5,0.2
						c0.4,0,0.5-0.3,0.5-0.9v-1h0c-0.2,0.4-0.6,0.6-1.1,0.6c-1.6,0-1.6-1.5-1.6-2.7c0-1.2,0-2.6,1.6-2.6c0.5,0,1,0.2,1.2,0.7h0V111
						H307.8z M305.7,115.3c0.5,0,0.6-0.6,0.6-1.7c0-1.2-0.1-1.8-0.6-1.8c-0.6,0-0.7,0.4-0.7,2C305.1,114.3,305,115.3,305.7,115.3z"
						/>
					<path class="st1" d="M315.3,116.3v-7.6h2.8c1.2,0,2.2,0.3,2.2,2c0,0.9-0.4,1.5-1.3,1.7v0c1.1,0.2,1.4,0.9,1.4,1.9
						c0,1.9-1.7,2-2.3,2H315.3z M316.9,111.9h1.1c0.3,0,0.8-0.2,0.8-1c0-0.6-0.4-1-0.9-1h-1V111.9z M316.9,115.2h0.9
						c0.3,0,1.1,0,1.1-1.1c0-0.7-0.3-1.1-1-1.1h-0.9V115.2z"/>
					<path class="st1" d="M327.5,115.3c0,0.3,0,0.7,0.1,1h-1.4l-0.1-0.7h0c-0.3,0.5-0.7,0.8-1.4,0.8c-1,0-1.4-0.8-1.4-1.7
						c0-1.8,1.4-1.8,2.7-1.8v-0.4c0-0.5-0.1-0.8-0.6-0.8c-0.5,0-0.6,0.4-0.6,0.8h-1.4c0-0.6,0.2-1,0.5-1.3c0.3-0.3,0.8-0.3,1.4-0.3
						c1.9,0,2.1,0.8,2.1,1.8V115.3z M324.8,114.7c0,0.4,0.1,0.8,0.5,0.8c0.9,0,0.7-1.2,0.7-1.8C325.3,113.8,324.8,113.7,324.8,114.7
						z"/>
					<path class="st1" d="M332.1,111v0.7h0c0.3-0.6,0.8-0.8,1.4-0.8v1.3c-1.3-0.1-1.3,0.7-1.3,1.2v2.9h-1.5V111H332.1z"/>
					<path class="st1" d="M337.5,111v0.7h0c0.3-0.6,0.8-0.8,1.4-0.8v1.3c-1.3-0.1-1.3,0.7-1.3,1.2v2.9h-1.5V111H337.5z"/>
					<path class="st1" d="M341.4,113.6c0-1.4,0.2-2.7,2.2-2.7c2,0,2.2,1.2,2.2,2.7c0,1.7-0.3,2.8-2.2,2.8
						C341.6,116.4,341.4,115.3,341.4,113.6z M344.2,113.5c0-1.1-0.1-1.7-0.7-1.7c-0.6,0-0.7,0.6-0.7,1.7c0,1.6,0.1,2,0.7,2
						C344.1,115.5,344.2,115.2,344.2,113.5z"/>
					<path class="st1" d="M349.8,114.6c0,0.2,0,0.5,0.1,0.6c0.1,0.2,0.2,0.3,0.5,0.3c0.3,0,0.5-0.2,0.5-0.5c0-1.1-2.6-0.9-2.6-2.6
						c0-1.1,1.1-1.5,2.1-1.5c1,0,1.9,0.5,1.8,1.6h-1.4c0-0.4,0-0.6-0.1-0.7c-0.1-0.1-0.2-0.1-0.4-0.1c-0.3,0-0.5,0.2-0.5,0.6
						c0,0.8,2.6,0.8,2.6,2.5c0,0.9-0.8,1.6-2,1.6c-1.3,0-2.2-0.3-2.1-1.8H349.8z"/>
				</g>
			</g>
			<line class="st2" x1="126.5" y1="116.9" x2="126.5" y2="71.9"/>
			<g>
				<path class="st1" d="M80.8,58.8c0-6.2,5.1-11.3,11.3-11.3c6.2,0,11.3,5.1,11.3,11.3c0,6.2-5.1,11.3-11.3,11.3
					C85.8,70.1,80.8,65.1,80.8,58.8z"/>
				<path class="st1" d="M67.1,96.8c0-13.7,11.1-24.9,24.9-24.9v12.4c-6.9,0-12.4,5.6-12.4,12.4H67.1z"/>
				<path class="st1" d="M116.9,71.9c0,13.7-11.1,24.9-24.9,24.9V84.4c6.9,0,12.4-5.6,12.4-12.4H116.9z"/>
			</g>
		</g>
		<g>
			<g>
				<path class="st1" d="M106.5,68.5c-1.1-1.1-1.8-2.5-2.1-3.9c1.4,0.3,2.8,1,3.9,2.1c1.1,1.1,1.8,2.5,2.1,3.9
					C109,70.4,107.7,69.7,106.5,68.5z"/>
				<path class="st1" d="M115.3,68.5c1.1-1.1,1.8-2.5,2.1-3.9c-1.4,0.3-2.8,1-3.9,2.1c-1.1,1.1-1.8,2.5-2.1,3.9
					C112.8,70.4,114.1,69.6,115.3,68.5z"/>
				<path class="st1" d="M112.3,58.1c0-1.6-0.5-3-1.3-4.3c-0.8,1.2-1.3,2.7-1.3,4.3c0,1.6,0.5,3,1.3,4.3
					C111.8,61.2,112.3,59.7,112.3,58.1z"/>
				<polygon class="st1" points="110.9,66.7 116.3,59.5 110.9,64.2 110.9,64.2 105.5,59.5 110.9,66.7 				"/>
			</g>
		</g>
	</g>
	<g>
		<path class="st3" d="M31.8,82.4c0-16.4,0-33,0-33H18.6l0,0H5.3c0,0,0,16.6,0,33H31.8z"/>
		<path class="st4" d="M58.3,82.4c0-16.4,0-33,0-33H45l0,0H31.7c0,0,0,16.6,0,33H58.3z"/>
		<path class="st5" d="M31.5,82.3V119c0.1,0.2,0.2,0.4,0.2,0.7l0,0c0-2,3.7-2,3.9-2c0.3,0,16.1,0,19.2,0c3.1,0,3.3-2.4,3.3-3.3
			c0-0.4,0-16.2,0-32.1H31.5z"/>
		<path class="st6" d="M31.6,82.3H5.3c0,15.9,0,31.7,0,32.1c0,0.8,0.1,3.3,3.3,3.3c3.1,0,19,0,19.2,0c0.2,0,3.3,0,3.9,1.5V82.3z"/>
		<path class="st7" d="M39.4,84.2c0,4.3-3.5,7.7-7.7,7.7c-4.3,0-7.7-3.4-7.7-7.7c0-4.3,3.4-7.7,7.7-7.7c0.2,0,0.5-0.4,0.7-0.4
			c0.5-0.2,0.9-0.3,1.4-0.2c0.5,0.1,0.8,1.2,1.2,1.4C37.6,78.5,39.4,81.1,39.4,84.2z"/>
		<path class="st7" d="M39.4,96.7l-2-0.2l0.2,8.8c0,0,3.3-1.4,7.2,0c0,0,2.5-1.1,7.4-0.2l0.1-9.7c0,0-1.8,0.4-5,0.6
			C44.2,96.3,45.1,96.9,39.4,96.7z"/>
		<g>
			<g>
				<g>
					<polygon class="st4" points="35.8,106.9 34.7,107.8 50.4,111.6 54.7,106.6 53.6,106.2 49.9,110.4 					"/>
				</g>
			</g>
		</g>
		<g>
			<g>
				<g>
					<path class="st4" d="M37.6,105.2c0,0,3.8-1.3,7.1-0.2c0,0,4.5-0.9,7.5,0l0-1.3l1.5,0.3l-3.8,4l-13.7-2.8l1.3-1.2L37.6,105.2z"
						/>
				</g>
			</g>
		</g>
		<g>
			<polygon class="st8" points="24.6,36.8 26.8,28.7 20.3,23.3 28.7,22.9 31.7,15 34.8,22.9 43.1,23.3 36.6,28.7 38.8,36.8 
				31.7,32.2 			"/>
			<polygon class="st9" points="31.7,31.6 37.9,35.6 36,28.5 41.8,23.8 34.4,23.4 31.7,16.5 29,23.4 21.7,23.8 27.4,28.5 25.5,35.6 
							"/>
		</g>
		<g>
			<g>
				<g>
					<polygon class="st8" points="29.8,20.6 26.6,10.8 26.3,10.9 29.6,21.1 					"/>
				</g>
				<g>
					<path class="st8" d="M29.6,21.4C29.6,21.4,29.6,21.4,29.6,21.4c-0.1,0-0.2-0.1-0.3-0.2L26,11c0-0.1,0-0.3,0.2-0.3l0.4-0.1
						c0.1,0,0.1,0,0.2,0c0.1,0,0.1,0.1,0.1,0.2l3.2,9.8c0,0.1,0,0.1,0,0.2l-0.2,0.5C29.8,21.3,29.7,21.4,29.6,21.4z"/>
				</g>
			</g>
			<g>
				<g>
					<polygon class="st8" points="14.7,27.2 25.4,27.2 24.9,26.8 14.7,26.8 					"/>
				</g>
				<g>
					<path class="st8" d="M25.4,27.4H14.7c-0.1,0-0.3-0.1-0.3-0.3v-0.4c0-0.1,0.1-0.3,0.3-0.3h10.2c0.1,0,0.1,0,0.2,0.1l0.5,0.4
						c0.1,0.1,0.1,0.2,0.1,0.3C25.6,27.4,25.5,27.4,25.4,27.4z"/>
				</g>
			</g>
			<g>
				<g>
					<polygon class="st8" points="28.8,23.1 28.9,22.9 18.8,8.9 18.5,9.1 28.7,23.1 					"/>
				</g>
				<g>
					<path class="st8" d="M28.7,23.4c-0.1,0-0.2,0-0.2-0.1l-10.2-14c0-0.1-0.1-0.1,0-0.2c0-0.1,0-0.1,0.1-0.2l0.3-0.2
						c0.1-0.1,0.3-0.1,0.4,0.1l10.2,14c0.1,0.1,0.1,0.2,0,0.3l-0.1,0.2c0,0.1-0.1,0.2-0.2,0.2L28.7,23.4
						C28.7,23.4,28.7,23.4,28.7,23.4z"/>
				</g>
			</g>
			<g>
				<g>
					<polygon class="st8" points="31.7,15.8 31.9,16.2 31.9,4.7 31.5,4.7 31.5,16.2 					"/>
				</g>
				<g>
					<path class="st8" d="M31.9,16.5c-0.1,0-0.1,0-0.2-0.1c-0.1,0.1-0.1,0.1-0.2,0.1c-0.1,0-0.2-0.1-0.2-0.3V4.7
						c0-0.1,0.1-0.3,0.3-0.3h0.4c0.1,0,0.3,0.1,0.3,0.3v11.5C32.2,16.4,32.1,16.5,31.9,16.5C31.9,16.5,31.9,16.5,31.9,16.5z"/>
				</g>
			</g>
			<g>
				<g>
					<polygon class="st8" points="37.2,23.3 45.5,17.2 45.3,16.9 36.6,23.2 					"/>
				</g>
				<g>
					<path class="st8" d="M37.2,23.5C37.1,23.5,37.1,23.5,37.2,23.5l-0.6,0c-0.1,0-0.2-0.1-0.2-0.2c0-0.1,0-0.2,0.1-0.3l8.7-6.4
						c0.1,0,0.1-0.1,0.2,0c0.1,0,0.1,0.1,0.2,0.1l0.2,0.3c0.1,0.1,0.1,0.3-0.1,0.4l-8.4,6.1C37.3,23.5,37.2,23.5,37.2,23.5z"/>
				</g>
			</g>
			<g>
				<g>
					<polygon class="st8" points="42.4,23.6 42.2,23.8 52.9,20.3 52.8,19.9 41.8,23.5 					"/>
				</g>
				<g>
					<path class="st8" d="M42.2,24.1c-0.1,0-0.2-0.1-0.2-0.1c0,0,0-0.1,0-0.1l-0.2,0c-0.1,0-0.2-0.1-0.2-0.2c0-0.1,0.1-0.2,0.2-0.3
						l11.1-3.6c0.1,0,0.1,0,0.2,0c0.1,0,0.1,0.1,0.1,0.2l0.1,0.4c0,0.1,0,0.3-0.2,0.3L42.2,24.1C42.2,24,42.2,24.1,42.2,24.1z"/>
				</g>
			</g>
			<g>
				<g>
					<polygon class="st8" points="26.8,23.2 18.1,16.9 17.9,17.2 26.3,23.3 					"/>
				</g>
				<g>
					<path class="st8" d="M26.3,23.5c-0.1,0-0.1,0-0.2-0.1l-8.4-6.1c-0.1-0.1-0.1-0.3-0.1-0.4l0.2-0.3c0-0.1,0.1-0.1,0.2-0.1
						c0.1,0,0.1,0,0.2,0L27,23c0.1,0.1,0.1,0.2,0.1,0.3c0,0.1-0.1,0.2-0.2,0.2L26.3,23.5C26.3,23.5,26.3,23.5,26.3,23.5z"/>
				</g>
			</g>
			<g>
				<g>
					<polygon class="st8" points="33.8,21.1 37.1,10.9 36.8,10.8 33.6,20.6 					"/>
				</g>
				<g>
					<path class="st8" d="M33.8,21.4c-0.1,0-0.2-0.1-0.2-0.2l-0.2-0.5c0-0.1,0-0.1,0-0.2l3.2-9.8c0-0.1,0.2-0.2,0.3-0.2l0.4,0.1
						c0.1,0,0.1,0.1,0.2,0.1c0,0.1,0,0.1,0,0.2l-3.3,10.2C34,21.3,33.9,21.4,33.8,21.4C33.8,21.4,33.8,21.4,33.8,21.4z"/>
				</g>
			</g>
			<g>
				<g>
					<polygon class="st8" points="34.6,23.1 34.7,23.1 44.9,9.1 44.6,8.9 34.5,22.9 					"/>
				</g>
				<g>
					<path class="st8" d="M34.7,23.4C34.7,23.4,34.7,23.4,34.7,23.4l-0.2,0c-0.1,0-0.2-0.1-0.2-0.2L34.2,23c0-0.1,0-0.2,0-0.3
						l10.2-14c0.1-0.1,0.3-0.1,0.4-0.1l0.3,0.2c0.1,0,0.1,0.1,0.1,0.2c0,0.1,0,0.1,0,0.2L35,23.3C34.9,23.4,34.8,23.4,34.7,23.4z"/>
				</g>
			</g>
			<g>
				<g>
					<polygon class="st8" points="48.7,26.8 38.5,26.8 38,27.2 48.7,27.2 					"/>
				</g>
				<g>
					<path class="st8" d="M38,27.4c-0.1,0-0.2-0.1-0.2-0.2c0-0.1,0-0.2,0.1-0.3l0.5-0.4c0,0,0.1-0.1,0.2-0.1h10.2
						c0.1,0,0.1,0,0.2,0.1c0,0,0.1,0.1,0.1,0.2v0.4c0,0.1-0.1,0.3-0.3,0.3H38z"/>
				</g>
			</g>
			<g>
				<g>
					<polygon class="st8" points="21,23.6 21.6,23.5 10.6,19.9 10.5,20.3 21.2,23.8 					"/>
				</g>
				<g>
					<path class="st8" d="M21.2,24.1C21.2,24.1,21.2,24,21.2,24.1l-10.9-3.5c-0.1,0-0.2-0.2-0.2-0.3l0.1-0.4c0-0.1,0.1-0.1,0.1-0.2
						c0.1,0,0.1,0,0.2,0l11.1,3.6c0.1,0,0.2,0.2,0.2,0.3c0,0.1-0.1,0.2-0.2,0.2l-0.2,0c0,0,0,0.1,0,0.1C21.4,24,21.3,24.1,21.2,24.1
						z"/>
				</g>
			</g>
			<g>
				<g>
					<polygon class="st8" points="33.5,33.1 36.8,43.2 37.1,43.1 34,33.4 					"/>
				</g>
				<g>
					<path class="st8" d="M36.8,43.4c0,0-0.1,0-0.1,0c-0.1,0-0.1-0.1-0.1-0.2l-3.3-10.1c0-0.1,0-0.2,0.1-0.3c0.1-0.1,0.2-0.1,0.3,0
						l0.5,0.3c0,0,0.1,0.1,0.1,0.1l3.1,9.7c0,0.1,0,0.3-0.2,0.3L36.8,43.4C36.8,43.4,36.8,43.4,36.8,43.4z"/>
				</g>
			</g>
			<g>
				<g>
					<polygon class="st8" points="31.7,31.9 31.5,32 31.5,49.3 31.9,49.3 31.9,32 					"/>
				</g>
				<g>
					<path class="st8" d="M31.9,49.5h-0.4c-0.1,0-0.3-0.1-0.3-0.3V32c0-0.1,0-0.2,0.1-0.2l0.2-0.1c0.1-0.1,0.2-0.1,0.3,0l0.2,0.1
						c0.1,0,0.1,0.1,0.1,0.2v17.2C32.2,49.4,32,49.5,31.9,49.5z"/>
				</g>
			</g>
			<g>
				<g>
					<polygon class="st8" points="37,31.1 45.3,37.1 45.5,36.8 36.8,30.5 					"/>
				</g>
				<g>
					<path class="st8" d="M45.3,37.4c-0.1,0-0.1,0-0.2-0.1l-8.3-6c-0.1,0-0.1-0.1-0.1-0.1l-0.1-0.6c0-0.1,0-0.2,0.1-0.3
						c0.1-0.1,0.2-0.1,0.3,0l8.7,6.3c0.1,0.1,0.1,0.3,0.1,0.4l-0.2,0.3C45.5,37.3,45.4,37.4,45.3,37.4
						C45.3,37.4,45.3,37.4,45.3,37.4z"/>
				</g>
			</g>
			<g>
				<g>
					<polygon class="st8" points="36.3,28.6 36.4,28.7 52.8,34.1 52.9,33.7 36.6,28.4 					"/>
				</g>
				<g>
					<path class="st8" d="M52.8,34.3C52.8,34.3,52.8,34.3,52.8,34.3L36.3,29c-0.1,0-0.2-0.1-0.2-0.2l0-0.1c0-0.1,0-0.2,0.1-0.3
						l0.2-0.2c0.1-0.1,0.2-0.1,0.3,0L53,33.4c0.1,0,0.2,0.2,0.2,0.3l-0.1,0.4c0,0.1-0.1,0.1-0.1,0.2C52.9,34.3,52.9,34.3,52.8,34.3z
						"/>
				</g>
			</g>
			<g>
				<g>
					<polygon class="st8" points="38.3,36.2 38,36 44.6,45.1 44.9,44.9 38.2,35.6 					"/>
				</g>
				<g>
					<path class="st8" d="M44.6,45.4c-0.1,0-0.2,0-0.2-0.1l-6.6-9.2c-0.1-0.1-0.1-0.2,0-0.3c0,0,0.1-0.1,0.1-0.1l0,0
						c0-0.1,0-0.3,0.1-0.3c0.1-0.1,0.3,0,0.3,0.1l6.8,9.3c0,0.1,0.1,0.1,0,0.2c0,0.1,0,0.1-0.1,0.2l-0.3,0.2
						C44.8,45.4,44.7,45.4,44.6,45.4z"/>
				</g>
			</g>
			<g>
				<g>
					<polygon class="st8" points="29.4,33.4 26.3,43.1 26.6,43.2 29.9,33.1 					"/>
				</g>
				<g>
					<path class="st8" d="M26.6,43.4C26.6,43.4,26.6,43.4,26.6,43.4l-0.4-0.1c-0.1,0-0.1-0.1-0.2-0.1c0-0.1,0-0.1,0-0.2l3.1-9.7
						c0-0.1,0.1-0.1,0.1-0.1l0.5-0.3c0.1-0.1,0.2-0.1,0.3,0c0.1,0.1,0.1,0.2,0.1,0.3l-3.3,10.1C26.9,43.4,26.8,43.4,26.6,43.4z"/>
				</g>
			</g>
			<g>
				<g>
					<polygon class="st8" points="26.6,30.5 17.9,36.8 18.1,37.1 26.4,31.1 					"/>
				</g>
				<g>
					<path class="st8" d="M18.1,37.4C18.1,37.4,18.1,37.4,18.1,37.4c-0.1,0-0.2-0.1-0.2-0.1L17.7,37c-0.1-0.1-0.1-0.3,0.1-0.4
						l8.7-6.3c0.1-0.1,0.2-0.1,0.3,0c0.1,0.1,0.1,0.2,0.1,0.3l-0.1,0.6c0,0.1-0.1,0.1-0.1,0.1l-8.3,6C18.2,37.4,18.1,37.4,18.1,37.4
						z"/>
				</g>
			</g>
			<g>
				<g>
					<polygon class="st8" points="27.1,28.6 26.8,28.4 10.5,33.7 10.6,34.1 27,28.7 					"/>
				</g>
				<g>
					<path class="st8" d="M10.6,34.3c0,0-0.1,0-0.1,0c-0.1,0-0.1-0.1-0.1-0.2l-0.1-0.4c0-0.1,0-0.3,0.2-0.3l16.4-5.3
						c0.1,0,0.2,0,0.2,0l0.2,0.2c0.1,0.1,0.1,0.2,0.1,0.3l0,0.1c0,0.1-0.1,0.2-0.2,0.2L10.6,34.3C10.6,34.3,10.6,34.3,10.6,34.3z"/>
				</g>
			</g>
			<g>
				<g>
					<polygon class="st8" points="25.1,36.2 25.2,35.6 18.5,44.9 18.8,45.1 25.4,36 					"/>
				</g>
				<g>
					<path class="st8" d="M18.8,45.4c-0.1,0-0.1,0-0.2,0l-0.3-0.2c-0.1,0-0.1-0.1-0.1-0.2c0-0.1,0-0.1,0-0.2l6.8-9.3
						c0.1-0.1,0.2-0.1,0.3-0.1c0.1,0.1,0.2,0.2,0.1,0.3l0,0c0.1,0,0.1,0,0.1,0.1c0.1,0.1,0.1,0.2,0,0.3L19,45.3
						C18.9,45.4,18.8,45.4,18.8,45.4z"/>
				</g>
			</g>
		</g>
		<g>
			<g>
				<g>
					<g>
						<rect x="31.6" y="15.8" class="st8" width="0.2" height="16.1"/>
					</g>
					<g>
						<path class="st8" d="M31.9,32h-0.4V15.7h0.4V32z M31.7,31.8L31.7,31.8l0-15.9h0V31.8z"/>
					</g>
				</g>
			</g>
			<g>
				<g>
					<g>
						<polygon class="st8" points="36.3,28.7 20.9,23.7 21,23.5 36.3,28.5 						"/>
					</g>
					<g>
						<path class="st8" d="M36.3,28.8l-15.5-5l0.1-0.4l15.5,5L36.3,28.8z M21.1,23.6l15.2,4.9l0,0L21.1,23.6L21.1,23.6z"/>
					</g>
				</g>
			</g>
			<g>
				<g>
					<g>
						<polygon class="st8" points="27.1,28.7 27,28.5 42.4,23.5 42.4,23.7 						"/>
					</g>
					<g>
						<path class="st8" d="M27,28.8l-0.1-0.4l15.5-5l0.1,0.4L27,28.8z M27.1,28.5L27.1,28.5l15.2-4.9l0,0L27.1,28.5z"/>
					</g>
				</g>
			</g>
			<g>
				<g>
					<g>
						
							<rect x="33.5" y="21.6" transform="matrix(0.8089 -0.5879 0.5879 0.8089 -11.0115 25.4088)" class="st8" width="0.2" height="16.1"/>
					</g>
					<g>
						<path class="st8" d="M38.2,36.4l-9.6-13.2l0.3-0.2l9.6,13.2L38.2,36.4z M28.9,23.2l9.4,12.9l0,0L28.9,23.2L28.9,23.2z"/>
					</g>
				</g>
			</g>
			<g>
				<g>
					<g>
						<polygon class="st8" points="25.2,36.2 25,36.1 34.5,23.1 34.6,23.2 						"/>
					</g>
					<g>
						<path class="st8" d="M25.2,36.4l-0.3-0.2l9.6-13.2l0.3,0.2L25.2,36.4z M25.1,36.1L25.1,36.1l9.4-12.9l0,0L25.1,36.1z"/>
					</g>
				</g>
			</g>
		</g>
		<g>
			<g>
				<path class="st8" d="M32.4,120.3H31v-0.7c0-1.1-2.4-1.3-3.2-1.3H8.5c-2.5,0-4-1.4-4-4V48.7h27.1v1.4H6v64.2
					c0,1.7,0.8,2.6,2.6,2.6h19.2c1.4,0,3,0.3,3.9,1.1c0.9-0.8,2.5-1.1,3.9-1.1h19.2c1.7,0,2.6-0.8,2.6-2.6V50.2H31.7v-1.4h27.1v65.6
					c0,2.5-1.4,4-4,4H35.6c-0.8,0-3.2,0.2-3.2,1.3V120.3z"/>
			</g>
		</g>
		<g>
			<g>
				<g>
					<path class="st8" d="M24.3,82h-19v0.9h18.8C24.1,82.6,24.2,82.3,24.3,82z"/>
				</g>
			</g>
			<g>
				<g>
					<path class="st8" d="M39.1,82c0.1,0.3,0.2,0.6,0.2,0.9h19V82H39.1z"/>
				</g>
			</g>
		</g>
		<g>
			<g>
				<g>
					<path class="st8" d="M31.7,76.5c0.1,0,0.3,0,0.4,0v-27h-0.9v27C31.4,76.5,31.6,76.5,31.7,76.5z"/>
				</g>
			</g>
			<g>
				<g>
					<path class="st8" d="M31.7,92c-0.1,0-0.3,0-0.4,0v26.8h0.9V92C32,92,31.9,92,31.7,92z"/>
				</g>
			</g>
		</g>
		<g>
			<g>
				<g>
					<path class="st8" d="M37.4,87.8H26l-0.2-0.4l5.7-9.8h0.5l5.7,9.8L37.4,87.8z M26.5,87.3h10.4l-5.2-9L26.5,87.3z"/>
				</g>
			</g>
		</g>
		<path class="st8" d="M34.6,78.6c0,0-0.1,0-0.1,0c-0.3-0.1-1.4-0.3-1.7-0.4c-0.2,0-0.7-0.2-0.9-0.5c-0.1-0.1-0.1-0.2,0-0.4
			c0.1-0.1,0.2-0.2,0.4-0.3c-0.1-0.1-0.3-0.3-0.3-0.3c-0.1-0.1-0.1-0.3,0-0.5c0.1-0.3,0.6-0.6,1.3-0.7c1-0.2,1.5,0.6,1.9,1.1
			c0.2,0.2,0.3,0.5,0.5,0.6c0.1,0.1,0.2,0.2,0.1,0.4c-0.1,0.1-0.2,0.2-0.4,0.1c-0.3-0.1-0.5-0.4-0.7-0.7c-0.4-0.6-0.7-1-1.3-0.9
			c-0.7,0.1-0.8,0.3-0.9,0.4c0,0,0,0,0,0.1c0,0,0.3,0.3,0.6,0.6c0.1,0.1,0.1,0.2,0.1,0.3c0,0.1-0.1,0.2-0.2,0.2
			c-0.1,0-0.3,0-0.3,0.1c0.1,0.1,0.2,0.1,0.4,0.1c0,0,1.5,0.3,1.9,0.5c0.1,0.1,0.2,0.2,0.1,0.4C34.7,78.6,34.7,78.6,34.6,78.6z"/>
		<g>
			<g>
				<path class="st8" d="M34.7,78.1l-0.2,0.2c-0.3-0.2-1.6-0.4-1.8-0.4c-0.2,0-0.6-0.1-0.7-0.4c0,0,0-0.1,0-0.1c-0.1,0-0.2,0-0.4,0
					c-3.8,0-6.8,3.1-6.8,6.8c0,3.8,3.1,6.8,6.8,6.8c3.8,0,6.8-3.1,6.8-6.8C38.5,81.6,37,79.3,34.7,78.1z M31.7,90.6
					c-3.5,0-6.3-2.8-6.3-6.3c0-3.5,2.8-6.3,6.3-6.3c3.5,0,6.3,2.8,6.3,6.3C38,87.8,35.2,90.6,31.7,90.6z"/>
			</g>
		</g>
		<g>
			<g>
				<path class="st8" d="M34.9,76.9c0.2,0.2,0.3,0.5,0.5,0.5l-0.2,0.2c2.4,1.3,4,3.8,4,6.6c0,4.1-3.4,7.5-7.5,7.5
					c-4.1,0-7.5-3.4-7.5-7.5c0-4.1,3.4-7.5,7.5-7.5c0.2,0,0.4,0,0.7,0c-0.1-0.1-0.2-0.2-0.2-0.2c0,0-0.1-0.2,0-0.3
					c-0.1,0-0.3,0-0.5,0c-4.4,0-8,3.6-8,8c0,4.4,3.6,8,8,8c4.4,0,8-3.6,8-8C39.7,81,37.7,78.1,34.9,76.9z"/>
			</g>
		</g>
		<g>
			<g>
				<g>
					<path class="st8" d="M33.4,76.5c0,0.1-0.1,0.2-0.2,0.2c-0.1,0-0.2-0.1-0.2-0.2c0-0.1,0.1-0.2,0.2-0.2
						C33.3,76.3,33.4,76.4,33.4,76.5z"/>
				</g>
			</g>
			<g>
				<g>
					<path class="st8" d="M33.2,76.8c-0.2,0-0.3-0.2-0.3-0.3c0-0.2,0.2-0.3,0.3-0.3c0.2,0,0.3,0.2,0.3,0.3
						C33.6,76.7,33.4,76.8,33.2,76.8z"/>
				</g>
			</g>
		</g>
		<g>
			<g>
				<g>
					<path class="st8" d="M31.7,86.5c-1.2,0-2.2-1-2.2-2.2c0-1.2,1-2.2,2.2-2.2c1.2,0,2.2,1,2.2,2.2C33.9,85.5,32.9,86.5,31.7,86.5z
						 M31.7,82.5c-1,0-1.8,0.8-1.8,1.8c0,1,0.8,1.8,1.8,1.8c1,0,1.8-0.8,1.8-1.8C33.5,83.3,32.7,82.5,31.7,82.5z"/>
				</g>
			</g>
		</g>
		<g>
			<g>
				<g>
					<path class="st8" d="M26.5,115.1h-2.1c-0.1,0-0.3-0.1-0.3-0.3v-4.4H9.9c-0.1,0-0.3-0.1-0.3-0.3v-2.3c0-0.1,0.1-0.3,0.3-0.3
						h16.6c0.1,0,0.3,0.1,0.3,0.3v2.3c0,0,0,0,0,0v4.6C26.8,115,26.7,115.1,26.5,115.1z"/>
					<path class="st7" d="M24.7,114.6h1.6v-4.4c0,0,0,0,0,0v-2H10.2v1.8h14.3c0.1,0,0.3,0.1,0.3,0.3V114.6z"/>
				</g>
			</g>
		</g>
		<g>
			<g>
				<g>
					<path class="st8" d="M21.7,108c-3.1,0-5.6-2.5-5.6-5.6c0-3.1,2.5-5.6,5.6-5.6c3.1,0,5.6,2.5,5.6,5.6
						C27.4,105.4,24.9,108,21.7,108z"/>
					<path class="st5" d="M21.7,97.2c-2.8,0-5.1,2.3-5.1,5.1c0,2.8,2.3,5.1,5.1,5.1c2.8,0,5.1-2.3,5.1-5.1
						C26.8,99.5,24.6,97.2,21.7,97.2z"/>
				</g>
			</g>
		</g>
		<g>
			<g>
				<g>
					<g>
						<line class="st7" x1="12" y1="89.9" x2="21.4" y2="95.9"/>
					</g>
				</g>
				<g>
					<g>
						<polygon class="st8" points="21.3,96 11.9,90 12.1,89.8 21.5,95.8 						"/>
					</g>
				</g>
			</g>
			<g>
				<g>
					<g>
						<line class="st7" x1="11.9" y1="90" x2="20.2" y2="96.1"/>
					</g>
				</g>
				<g>
					<g>
						
							<rect x="15.9" y="87.9" transform="matrix(0.5955 -0.8034 0.8034 0.5955 -68.2338 50.5375)" class="st8" width="0.3" height="10.3"/>
					</g>
				</g>
			</g>
			<g>
				<g>
					<g>
						<line class="st7" x1="11.9" y1="90" x2="19.3" y2="96.4"/>
					</g>
				</g>
				<g>
					<g>
						
							<rect x="15.4" y="88.3" transform="matrix(0.6511 -0.759 0.759 0.6511 -65.305 44.3397)" class="st8" width="0.3" height="9.8"/>
					</g>
				</g>
			</g>
			<g>
				<g>
					<g>
						<line class="st7" x1="11.8" y1="90.1" x2="18.6" y2="96.8"/>
					</g>
				</g>
				<g>
					<g>
						<polygon class="st8" points="18.5,96.8 11.7,90.2 11.9,90 18.6,96.7 						"/>
					</g>
				</g>
			</g>
			<g>
				<g>
					<g>
						<line class="st7" x1="11.7" y1="90.1" x2="17.9" y2="97.2"/>
					</g>
				</g>
				<g>
					<g>
						
							<rect x="14.7" y="89" transform="matrix(0.7514 -0.6598 0.6598 0.7514 -58.1085 33.0511)" class="st8" width="0.3" height="9.4"/>
					</g>
				</g>
			</g>
			<g>
				<g>
					<g>
						<line class="st7" x1="11.7" y1="90.2" x2="17.3" y2="97.7"/>
					</g>
				</g>
				<g>
					<g>
						
							<rect x="14.4" y="89.2" transform="matrix(0.7963 -0.6049 0.6049 0.7963 -53.8685 27.9067)" class="st8" width="0.3" height="9.4"/>
					</g>
				</g>
			</g>
			<g>
				<g>
					<g>
						<line class="st7" x1="11.6" y1="90.2" x2="16.8" y2="98.2"/>
					</g>
				</g>
				<g>
					<g>
						<polygon class="st8" points="16.7,98.3 11.5,90.3 11.7,90.2 16.9,98.1 						"/>
					</g>
				</g>
			</g>
			<g>
				<g>
					<g>
						<line class="st7" x1="11.5" y1="90.3" x2="16.4" y2="98.9"/>
					</g>
				</g>
				<g>
					<g>
						<polygon class="st8" points="16.2,98.9 11.4,90.4 11.6,90.2 16.5,98.8 						"/>
					</g>
				</g>
			</g>
			<g>
				<g>
					<g>
						<line class="st7" x1="11.4" y1="90.4" x2="15.9" y2="99.6"/>
					</g>
				</g>
				<g>
					<g>
						<polygon class="st8" points="15.8,99.7 11.3,90.4 11.6,90.3 16,99.5 						"/>
					</g>
				</g>
			</g>
			<g>
				<g>
					<g>
						<line class="st7" x1="11.4" y1="90.4" x2="15.5" y2="100.6"/>
					</g>
				</g>
				<g>
					<g>
						<polygon class="st8" points="15.4,100.6 11.3,90.5 11.5,90.4 15.7,100.5 						"/>
					</g>
				</g>
			</g>
			<g>
				<g>
					<g>
						<line class="st7" x1="11.3" y1="90.5" x2="15.3" y2="102.1"/>
					</g>
				</g>
				<g>
					<g>
						
							<rect x="13.2" y="90.1" transform="matrix(0.9455 -0.3255 0.3255 0.9455 -30.623 9.58)" class="st8" width="0.3" height="12.3"/>
					</g>
				</g>
			</g>
		</g>
		<g>
			<g>
				<g>
					<path class="st8" d="M12.5,91.4l-1.5-0.9l-1.5,0.9l0.4-1.7l-1.3-1.1l1.7-0.1l0.6-1.6l0.6,1.6l1.7,0.1l-1.4,1.1L12.5,91.4z
						 M10.1,89l0.6,0.5l-0.2,0.7l0.6-0.4l0.6,0.4l-0.2-0.7L12,89l-0.7,0l-0.3-0.7L10.8,89L10.1,89z"/>
				</g>
			</g>
		</g>
		<polygon class="st7" points="10.1,89 10.6,89.5 10.5,90.2 11.1,89.8 11.7,90.2 11.5,89.5 12,89 11.3,89 11.1,88.3 10.8,89 		"/>
		<g>
			<g>
				<g>
					<path class="st8" d="M20.3,107c-0.1,0-0.2-0.1-0.3-0.2c0-0.1-0.1-0.4-0.1-1c0-0.2,0-0.4,0-0.4c0-0.1,0-0.2,0-0.5
						c0-0.2,0-0.5,0-0.6c0,0,0-0.1,0-0.1c0-0.1-0.1-0.4-0.2-0.4c-0.8-0.3-0.8-0.6-0.8-0.7c0,0,0-0.2,0-0.3c0-0.5-0.1-0.8,0.1-0.9
						c0.1,0,0.1-0.1,0.2-0.1c0,0,0.1-0.1,0.2-0.1c-0.1-0.1-0.3-0.1-0.3-0.3c0,0-0.3-0.2-0.4-0.3c-0.2-0.1-0.3-0.2-0.3-0.2
						c0,0-0.1-0.1-0.1-0.2c-0.2-0.4-0.3-0.5-0.3-0.5c-0.2,0-0.9-0.2-1-0.5c0-0.1,0-0.2,0-0.3c0.2-0.2,0.9-1.2,1.3-1.5
						c0.6-0.4,1.4-0.8,1.4-0.8c0.1,0,0.1,0,0.2,0c0,0,0.1,0.1,0.1,0.1c0,0,0.1,0.5,0.1,0.7c0,0.1,0.1,0.2,0.2,0.2
						c0.1,0,0.2-0.1,0.3-0.2c0.2-0.2,0.3-0.4,0.5-0.4c0,0,0,0,0,0l0,0c0,0,0.1,0,0.2-0.1c0.1,0,0.2-0.1,0.2-0.1c0.1,0,0.3,0,0.3,0.4
						c0,0.2,0,0.3,0,0.3c0,0.1,0,0.2,0,0.4c0,0.2,0,0.3-0.2,0.5c-0.2,0.2-0.5,0.3-0.6,0.2c0,0-0.1,0-0.1-0.1
						c-0.1-0.1-0.1-0.1-0.2-0.1c0,0,0,0,0,0c-0.2,0.1-0.4,0.3-0.5,0.4c-0.1,0.3-0.3,0.5-0.5,0.5c0,0-0.1,0-0.1,0
						c-0.2-0.1-0.2-0.3-0.2-0.5c0,0-0.1-0.1-0.1-0.1c-0.1,0-0.1,0-0.2,0c0,0-0.1,0-0.1,0c-0.1,0.1-0.2,0.3-0.2,0.5
						c0,0.2,0.5,0.9,0.6,0.9c0.3,0.1,1.3,1,1.4,1c0.1,0,0.6,0.3,0.8,0.3c0.4,0.1,1,0.4,1,0.7c0.1,0.4-0.2,1.1-0.5,1.2
						c-0.2,0.1-0.4,0.4-0.6,0.6c0,0.1-0.1,0.1-0.1,0.1c-0.1,0.1-0.1,0.1-0.2,0.5c-0.1,0.6-0.4,1.4-0.4,1.5c0,0,0,0.1-0.1,0.1
						C20.7,106.9,20.5,107,20.3,107z"/>
					<polygon class="st8" points="20.3,106.7 20.3,106.9 20.3,106.7 					"/>
					<path class="st7" d="M19.2,103.2c0,0.1,0.2,0.2,0.6,0.3c0.3,0.1,0.4,0.5,0.4,0.7c0,0,0,0.1,0,0.1c0,0.1,0,0.2,0,0.7
						c0,0.2,0,0.4,0,0.4c0,0.1,0,0.2,0,0.5c0,0.2,0,0.6,0.1,0.8c0,0,0.1,0,0.1,0c0.1-0.2,0.3-0.9,0.4-1.3c0.1-0.5,0.1-0.6,0.3-0.7
						c0,0,0.1-0.1,0.1-0.1c0.2-0.3,0.5-0.5,0.7-0.6c0.1-0.1,0.4-0.6,0.3-0.9c0-0.1-0.3-0.3-0.8-0.4c-0.1,0-0.8-0.3-0.9-0.4
						c-0.1-0.1-1.1-0.9-1.2-1c-0.3-0.1-0.8-0.9-0.8-1.2c-0.1-0.4,0.2-0.7,0.3-0.8c0,0,0.1-0.1,0.2-0.1c0.1,0,0.2,0,0.2,0.1
						c0,0,0.1,0,0.1,0c0.2,0,0.4,0.3,0.4,0.4c0,0,0,0.1,0,0.1c0,0,0.1-0.1,0.1-0.2c0.1-0.3,0.4-0.5,0.7-0.6c0.1,0,0.1,0,0.2,0
						c0.2,0,0.3,0.1,0.4,0.2c0,0,0,0,0.1,0c0,0,0.1,0,0.2-0.1c0,0,0.1-0.1,0.1-0.2c0-0.2,0-0.3,0-0.5c0-0.1,0-0.2,0-0.3c0,0,0,0,0,0
						C21.3,98,21.1,98,21,98c-0.1,0-0.2,0.2-0.3,0.2c-0.1,0.1-0.3,0.3-0.4,0.3c-0.3,0.1-0.6-0.1-0.6-0.5c0-0.1,0-0.3-0.1-0.5
						c-0.3,0.1-0.8,0.4-1.2,0.7c-0.3,0.2-0.9,1-1.2,1.4c0.1,0.1,0.5,0.2,0.7,0.3c0.3,0,0.5,0.4,0.6,0.7c0,0,0,0.1,0,0.1
						c0,0,0.2,0.1,0.3,0.2c0.3,0.2,0.5,0.3,0.6,0.5c0,0,0.1,0.1,0.1,0.1c0.1,0.1,0.3,0.2,0.3,0.3c0,0.2-0.2,0.2-0.5,0.4
						c-0.1,0-0.1,0.1-0.2,0.1c0,0.1,0,0.5,0,0.6C19.2,103,19.2,103.1,19.2,103.2z"/>
				</g>
			</g>
		</g>
		<g>
			<g>
				<g>
					<path class="st8" d="M23.1,98.8c-0.3,0-0.4-0.1-0.5-0.3c0-0.1-0.1-0.2-0.2-0.2c-0.2-0.1-0.3-0.2-0.4-0.4
						C22,97.7,22,97.4,22,97.3c0,0,0,0,0-0.1l0.1-0.3c0-0.1,0.1-0.1,0.2-0.1c0,0,0.7,0,1.3,0.3c0,0,0.1,0.1,0.1,0.1
						c0,0.1,0,0.1,0,0.1c-0.1,0.2-0.2,0.4-0.2,0.4c0,0,0,0.1,0,0.1C23.4,98.4,23.4,98.7,23.1,98.8C23.1,98.8,23.1,98.8,23.1,98.8z"
						/>
					<path class="st7" d="M23,98.4C23,98.4,23,98.4,23,98.4c0.1-0.1,0.1-0.4,0.1-0.5c0-0.1,0-0.2,0-0.2c0-0.1,0.1-0.2,0.2-0.3
						c-0.4-0.1-0.7-0.2-0.9-0.2l0,0.1c0,0.1,0,0.3,0.1,0.4c0,0.1,0.1,0.1,0.2,0.2C22.8,98,23,98.2,23,98.4z"/>
				</g>
			</g>
		</g>
		<g>
			<g>
				<g>
					<path class="st8" d="M26,105.7C26,105.7,25.9,105.7,26,105.7c-0.1-0.1-0.2-0.1-0.2-0.2c0-0.2,0.1-0.5,0.1-0.6
						c0-0.1,0-0.2,0-0.3c0-0.1,0-0.2,0-0.2c0-0.1-0.1-0.2-0.1-0.3c-0.1-0.1-0.1-0.2-0.1-0.3c0-0.1-0.1-0.3-0.2-0.4
						c-0.1-0.1-0.2-0.3-0.2-0.4c0-0.1-0.1-0.2-0.1-0.2c-0.1-0.1-0.1-0.3-0.2-0.4c0,0,0-0.1,0-0.1c-0.2-0.2,0.1-0.8,0.1-0.8
						c0.1-0.1,0.3-0.2,0.5-0.3c0,0,0,0,0,0c0.3-0.1,0.4-0.1,0.5-0.1c0,0,0.1-0.1,0.1-0.1c0-0.1,0-0.1-0.1-0.2c0-0.1,0-0.2,0-0.3
						c0,0,0,0,0,0c0,0-0.1,0.1-0.2,0.1c-0.2,0-0.3,0-0.5-0.1c-0.1,0-0.1,0-0.1,0c-0.1,0-0.1,0-0.2-0.1c-0.1-0.1-0.2-0.1-0.3-0.1
						c0,0-0.1,0-0.2,0l0,0c0,0,0,0.1-0.1,0.1c0,0.1,0,0.3,0,0.3c0,0.2-0.5,0.4-0.6,0.4c0,0-0.1,0-0.1,0c-0.4-0.1-0.5-0.1-0.5-0.3
						c0-0.1,0.1-0.5,0.1-0.5c0,0,0-0.1,0-0.1c0-0.1-0.1-0.2,0-0.3c0.1-0.1,0.2-0.2,0.2-0.2c0,0,0.1,0,0.1,0c0,0,0.2,0,0.3,0
						c0,0,0,0,0.1,0c0-0.1,0.1-0.2,0.2-0.3l0,0c0.1-0.1,0.1-0.1,0.1-0.2c0-0.1,0-0.2,0-0.2c0,0,0-0.1,0-0.1c0,0,0,0-0.1-0.1
						c0,0-0.1-0.1-0.1-0.1c-0.1-0.2-0.1-0.3-0.1-0.4c0-0.2,0.1-0.3,0.2-0.3c0,0,0.2-0.1,0.3-0.2c0.1-0.1,0.1-0.1,0.2,0
						c0,0,0.3,0.2,0.6,0.4c0.3,0.3,1.3,1.6,1.5,2.1c0.3,0.5,0.5,1.9,0.3,3.2c-0.2,1.3-1,2.2-1,2.3C26.1,105.7,26,105.7,26,105.7z"/>
					<path class="st7" d="M25.2,102c0,0.1,0.1,0.1,0.1,0.2c0,0.1,0.1,0.2,0.1,0.3c0.1,0.1,0.1,0.2,0.2,0.4c0,0.1,0.1,0.2,0.1,0.3
						c0.2,0.2,0.3,0.4,0.3,0.6c0,0,0.1,0.1,0.1,0.2c0.1,0.1,0.1,0.3,0.1,0.4c0,0.1,0,0.2,0,0.3c0,0.1,0,0.2,0,0.2c0,0,0,0,0,0.1
						c0.2-0.4,0.5-0.9,0.6-1.5c0.2-1.3,0-2.6-0.2-3c-0.2-0.4-1.2-1.7-1.4-2c-0.2-0.1-0.3-0.3-0.4-0.3c-0.1,0.1-0.2,0.2-0.3,0.2l0,0
						c0,0,0,0,0,0c0,0,0,0,0.1,0.2c0,0,0,0,0,0.1c0.1,0.1,0.1,0.1,0.1,0.3c0,0,0,0.1,0,0.1c0,0.1,0,0.2,0,0.3c0,0.2-0.1,0.4-0.2,0.4
						c0,0-0.1,0.2-0.2,0.2c0,0,0,0-0.1,0.1c0,0-0.2,0.1-0.3,0.1c0,0-0.1,0-0.2,0c0,0,0,0,0,0c0,0,0,0,0,0c0,0.1,0.1,0.2,0,0.4
						c0,0.1-0.1,0.2-0.1,0.2c0,0,0.1,0,0.2,0.1c0.1,0,0.2-0.1,0.3-0.1c0-0.1,0-0.3,0-0.3c0,0,0,0,0,0c0-0.1,0.1-0.3,0.3-0.4l0,0
						c0.1,0,0.2,0,0.3,0c0.1,0,0.2,0.1,0.3,0.2c0,0,0.1,0,0.2,0c0.2,0.1,0.3,0.1,0.4,0.1c0,0,0,0,0,0c0,0,0.1-0.1,0.2-0.1
						c0.1,0,0.2,0,0.3,0c0.1,0,0.1,0.1,0.1,0.2c0,0.1,0,0.2,0,0.2c0,0.1,0.1,0.2,0.1,0.3c0,0.1,0,0.2-0.1,0.2c0,0-0.2,0.3-0.4,0.3
						c0,0-0.2,0.1-0.4,0.1c-0.1,0.1-0.3,0.1-0.3,0.2C25.3,101.7,25.2,101.9,25.2,102z"/>
				</g>
			</g>
		</g>
		<g>
			<g>
				<g>
					<path class="st8" d="M50.5,114.7C50.4,114.7,50.4,114.7,50.5,114.7c-0.2-0.1-0.3-0.2-0.3-0.3l0-2.9c0-0.1,0-0.1,0.1-0.2l4.3-5
						c0.1-0.1,0.2-0.1,0.3-0.1c0.1,0,0.2,0.1,0.2,0.3l0,0.4c0,0.6,0,0.6,0,0.9c0,0.2,0.2,0.3,0.2,0.3c0.1,0,0.1,0.1,0.2,0.2
						c0,0.1,0,0.2,0,0.2l-4.7,6.1C50.6,114.7,50.5,114.7,50.5,114.7z"/>
					<path class="st7" d="M50.7,111.7l0,2l4.1-5.3c-0.1-0.1-0.2-0.3-0.3-0.5c-0.1-0.3-0.1-0.4-0.1-0.6L50.7,111.7z"/>
				</g>
			</g>
		</g>
		<g>
			<g>
				<g>
					<path class="st8" d="M44.8,104.9C44.8,104.9,44.8,104.9,44.8,104.9c-0.2,0-0.3-0.2-0.3-0.3l0.2-9.9c0-0.1,0-0.2,0.1-0.2
						c0.6-0.4,1.2-0.6,1.7-0.6c0.6,0,1.2,0.2,1.7,0.4c0.2,0.1,0.5,0.2,0.8,0.2c0.8,0,1.6-0.4,1.6-0.4c0.1,0,0.2,0,0.3,0
						c0.1,0,0.1,0.1,0.1,0.2c0,0.1,0,7.3,0,9.8c0,0.1,0,0.2-0.1,0.2c-0.1,0-0.1,0.1-0.2,0c-1.2-0.3-2.3-0.5-3.2-0.5
						c-2,0-2.6,0.8-2.6,0.8C45,104.9,44.9,104.9,44.8,104.9z"/>
					<path class="st7" d="M45.3,94.9l-0.2,9.2c0.4-0.3,1.2-0.6,2.5-0.6c0.9,0,1.9,0.1,3,0.4c0-2.4,0-7.6,0-9.1
						c-0.3,0.1-0.9,0.3-1.5,0.3c-0.4,0-0.7-0.1-1-0.2c-0.7-0.3-1.1-0.4-1.5-0.4C46.2,94.5,45.8,94.6,45.3,94.9z"/>
				</g>
			</g>
		</g>
		<g>
			<g>
				<g>
					<path class="st8" d="M44.8,104.9c-0.1,0-0.2,0-0.2-0.1c-0.3-0.5-1.1-0.7-2.3-0.7c-1.7,0-3.5,0.5-3.5,0.5c-0.1,0-0.2,0-0.2,0
						c-0.1-0.1-0.1-0.1-0.1-0.2l-0.1-8.7c0-0.1,0-0.2,0.1-0.2c0.1-0.1,0.1-0.1,0.2-0.1c0,0,0.3,0.1,0.9,0.1c0.6,0,1.6-0.1,2.5-0.7
						c0.7-0.4,1.3-0.6,1.9-0.6c0.7,0,1.2,0.3,1.2,0.3c0.1,0,0.1,0.1,0.1,0.2c0,0-0.1,5.7-0.2,9.9C45.1,104.7,45,104.8,44.8,104.9
						C44.8,104.9,44.8,104.9,44.8,104.9z"/>
					<path class="st8" d="M42.3,103.5c1,0,1.7,0.2,2.3,0.5c0.1-3.7,0.2-8.2,0.2-9.1c-0.1-0.1-0.4-0.2-0.8-0.2
						c-0.5,0-1.1,0.2-1.7,0.5c-1,0.6-2.1,0.7-2.8,0.7c-0.3,0-0.5,0-0.6,0l0.1,8C39.6,103.8,41,103.5,42.3,103.5z"/>
				</g>
			</g>
		</g>
		<g>
			<g>
				<g>
					<path class="st8" d="M44.8,104.9c-0.1,0-0.2,0-0.2-0.1c-0.3-0.5-1.1-0.7-2.3-0.7c-1.7,0-3.5,0.5-3.5,0.5c-0.1,0-0.2,0-0.2,0
						c-0.1-0.1-0.1-0.1-0.1-0.2l-0.1-8.7c0-0.1,0-0.2,0.1-0.2c0.1-0.1,0.1-0.1,0.2-0.1c0,0,0.3,0.1,0.9,0.1c0.6,0,1.6-0.1,2.5-0.7
						c0.7-0.4,1.3-0.6,1.9-0.6c0.7,0,1.2,0.3,1.2,0.3c0.1,0,0.1,0.1,0.1,0.2c0,0-0.1,5.7-0.2,9.9C45.1,104.7,45,104.8,44.8,104.9
						C44.8,104.9,44.8,104.9,44.8,104.9z"/>
					<path class="st7" d="M42.3,103.5c1,0,1.7,0.2,2.3,0.5c0.1-3.7,0.2-8.2,0.2-9.1c-0.1-0.1-0.4-0.2-0.8-0.2
						c-0.5,0-1.1,0.2-1.7,0.5c-1,0.6-2.1,0.7-2.8,0.7c-0.3,0-0.5,0-0.6,0l0.1,8C39.6,103.8,41,103.5,42.3,103.5z"/>
				</g>
			</g>
		</g>
		<g>
			<g>
				<g>
					<path class="st8" d="M50,110.6C49.9,110.6,49.9,110.6,50,110.6c-0.2-0.1-0.3-0.1-0.3-0.3l-0.1-2.2c0-0.1,0-0.1,0.1-0.2l3.8-4.1
						c0.1-0.1,0.2-0.1,0.3-0.1c0.1,0,0.2,0.1,0.2,0.2l0,0.3c0,0.5,0,0.5,0,0.8c0,0.2,0.2,0.2,0.2,0.2c0.1,0,0.1,0.1,0.2,0.2
						c0,0.1,0,0.2-0.1,0.2l-4.1,4.7C50.1,110.6,50,110.6,50,110.6z"/>
					<path class="st7" d="M50.2,108.2l0,1.4l3.5-4c-0.1-0.1-0.2-0.2-0.2-0.4c0-0.2-0.1-0.3-0.1-0.5L50.2,108.2z"/>
				</g>
			</g>
		</g>
		<g>
			<g>
				<g>
					<g>
						<path class="st8" d="M53.7,104.3C53.7,104.3,53.7,104.3,53.7,104.3l-1.5-0.1c-0.1,0-0.3-0.1-0.2-0.3c0-0.1,0.1-0.3,0.3-0.2
							l1.5,0.1c0.1,0,0.3,0.1,0.2,0.3C53.9,104.2,53.8,104.3,53.7,104.3z"/>
					</g>
				</g>
			</g>
			<g>
				<g>
					<g>
						<path class="st8" d="M49.9,110.7C49.9,110.7,49.9,110.7,49.9,110.7l-13.6-3.3c-0.3-0.1-0.9-0.4-0.9-1.3c0-0.4,0.1-0.7,0.3-0.9
							c0.3-0.3,0.7-0.3,0.7-0.3c0,0,0,0,0,0l13.6,2.8c0.1,0,0.2,0.1,0.2,0.3l0,2.4c0,0.1,0,0.2-0.1,0.2
							C50,110.6,50,110.7,49.9,110.7z"/>
						<path class="st4" d="M36.3,105.5c0,0-0.1,0-0.2,0.1c-0.1,0.1-0.1,0.3-0.1,0.5c0,0.7,0.5,0.8,0.5,0.8l13.2,3.2l0-1.8
							L36.3,105.5z"/>
					</g>
				</g>
			</g>
			<g>
				<g>
					<g>
						<path class="st8" d="M35.9,105.6c-0.1,0-0.1,0-0.2-0.1c-0.1-0.1-0.1-0.3,0-0.4l1.5-1.4c0.1-0.1,0.3-0.1,0.4,0
							c0.1,0.1,0.1,0.3,0,0.4l-1.5,1.4C36.1,105.6,36,105.6,35.9,105.6z"/>
					</g>
				</g>
			</g>
			<g>
				<g>
					<g>
						<path class="st8" d="M38.8,107.9c-0.1,0-0.3-0.1-0.3-0.3v-1.9c0-0.1,0.1-0.3,0.3-0.3c0.1,0,0.3,0.1,0.3,0.3v1.9
							C39.1,107.8,39,107.9,38.8,107.9z"/>
					</g>
				</g>
			</g>
			<g>
				<g>
					<g>
						<path class="st8" d="M40.1,108.3c-0.1,0-0.3-0.1-0.3-0.3v-1.8c0-0.1,0.1-0.3,0.3-0.3c0.1,0,0.3,0.1,0.3,0.3v1.8
							C40.4,108.2,40.2,108.3,40.1,108.3z"/>
					</g>
				</g>
			</g>
			<g>
				<g>
					<g>
						<path class="st8" d="M45.9,109.6c-0.1,0-0.3-0.1-0.3-0.3v-1.9c0-0.1,0.1-0.3,0.3-0.3c0.1,0,0.3,0.1,0.3,0.3v1.9
							C46.1,109.5,46,109.6,45.9,109.6z"/>
					</g>
				</g>
			</g>
		</g>
		<g>
			<g>
				<g>
					<g>
						<path class="st8" d="M50.4,114.7C50.4,114.7,50.3,114.7,50.4,114.7l-15.5-4.4c-0.4-0.1-1-0.5-1-1.5c0-0.9,0.5-1.3,1-1.3
							c0,0,0.1,0,0.1,0c0,0,0,0,0,0l15.5,3.8c0.1,0,0.2,0.1,0.2,0.3v2.8c0,0.1,0,0.2-0.1,0.2C50.5,114.7,50.4,114.7,50.4,114.7z"/>
						<path class="st4" d="M34.9,108.1c-0.2,0-0.5,0.1-0.5,0.7c0,0.8,0.5,1,0.6,1l15.1,4.3v-2.3L34.9,108.1z"/>
					</g>
				</g>
			</g>
			<g>
				<g>
					<g>
						<path class="st8" d="M34.4,108.3c-0.1,0-0.1,0-0.2-0.1c-0.1-0.1-0.1-0.3,0-0.4l1.4-1.2c0.1-0.1,0.3-0.1,0.4,0
							c0.1,0.1,0.1,0.3,0,0.4l-1.4,1.2C34.5,108.2,34.5,108.3,34.4,108.3z"/>
					</g>
				</g>
			</g>
			<g>
				<g>
					<g>
						<path class="st8" d="M54.8,106.7C54.8,106.7,54.7,106.7,54.8,106.7l-1.2-0.1c-0.1,0-0.3-0.1-0.2-0.3c0-0.1,0.1-0.3,0.3-0.2
							l1.2,0.1c0.1,0,0.3,0.1,0.2,0.3C55,106.6,54.9,106.7,54.8,106.7z"/>
					</g>
				</g>
			</g>
			<g>
				<g>
					<g>
						<path class="st8" d="M36.5,110.6c-0.1,0-0.2-0.1-0.2-0.2v-2.1c0-0.1,0.1-0.2,0.2-0.2c0.1,0,0.2,0.1,0.2,0.2v2.1
							C36.7,110.6,36.6,110.6,36.5,110.6z"/>
					</g>
				</g>
			</g>
			<g>
				<g>
					<g>
						<path class="st8" d="M45.5,113.2c-0.1,0-0.2-0.1-0.2-0.2v-2.5c0-0.1,0.1-0.2,0.2-0.2c0.1,0,0.2,0.1,0.2,0.2v2.5
							C45.7,113.1,45.6,113.2,45.5,113.2z"/>
					</g>
				</g>
			</g>
		</g>
		<path class="st8" d="M44.9,94.6c-1.1,0-2-0.7-2.3-1.7c0-0.1,0-0.1,0.1-0.2c0.1,0,0.1-0.1,0.2,0c0,0,0.2,0.1,0.4,0.2
			c-0.2-0.3-0.4-0.7-0.5-1c0-0.1,0-0.1,0.1-0.2c0.1,0,0.1-0.1,0.2,0c0,0,0.2,0.1,0.4,0.2c-0.1-0.2-0.3-0.5-0.3-0.8
			c0-0.1,0-0.1,0.1-0.2c0.1,0,0.1-0.1,0.2,0c0,0,0.4,0.2,0.7,0.3c0.3-0.3,0.4-0.8,0.4-1.2c0-0.3,0.1-0.6,0.4-0.6
			c0.2,0,0.3,0.3,0.3,0.6c0.1,0.3,0.1,0.8,0.4,1.1c0.3-0.1,0.7-0.2,0.7-0.2c0.1,0,0.1,0,0.2,0c0.1,0,0.1,0.1,0.1,0.2
			c-0.1,0.2-0.2,0.5-0.3,0.8c0.3-0.1,0.4-0.2,0.4-0.2c0.1,0,0.1,0,0.2,0c0.1,0,0.1,0.1,0.1,0.2c-0.1,0.3-0.2,0.7-0.5,1
			c0.2-0.1,0.4-0.2,0.4-0.2c0.1,0,0.1,0,0.2,0c0.1,0,0.1,0.1,0.1,0.2C46.9,93.9,45.9,94.6,44.9,94.6z"/>
		<path class="st4" d="M43,93.1c0.3,0.7,1,1.1,1.8,1.1c0.8,0,1.5-0.4,1.8-1.1c-0.2,0.1-0.4,0.1-0.7,0.2c-0.1,0-0.2,0-0.2-0.1
			c0-0.1,0-0.2,0.1-0.2c0.2-0.2,0.5-0.5,0.6-0.9c-0.2,0.1-0.4,0.1-0.7,0.2c-0.1,0-0.2,0-0.2-0.1c0-0.1,0-0.2,0.1-0.2
			c0.2-0.1,0.3-0.4,0.5-0.7c-0.2,0-0.4,0.1-0.6,0.1c-0.1,0-0.1,0-0.1-0.1c-0.4-0.4-0.5-1-0.6-1.4c0,0,0,0,0,0c0,0,0,0,0,0
			c-0.1,0.4-0.1,1-0.6,1.4c0,0-0.1,0.1-0.1,0.1c-0.2,0-0.4-0.1-0.5-0.1c0.1,0.3,0.3,0.5,0.4,0.6c0.1,0,0.1,0.1,0.1,0.2
			c0,0.1-0.1,0.1-0.2,0.1c-0.2,0-0.5-0.1-0.7-0.2c0.1,0.4,0.4,0.7,0.6,0.9c0.1,0,0.1,0.1,0.1,0.2c0,0.1-0.1,0.1-0.2,0.1
			C43.5,93.3,43.2,93.2,43,93.1z"/>
		<g>
			<g>
				<g>
					<path class="st8" d="M46.1,66.7C46.1,66.7,46.1,66.7,46.1,66.7c-0.1,0-0.2-0.1-0.3-0.2c-0.2-0.7-0.7-1.5-0.9-1.5
						c0,0-0.1,0-0.2,0c-0.3,0.1-1,0.2-1.7,0.2c-2.4,0-3.8-1.1-4.1-3.3c-0.6-4.2,1.1-5.6,1.3-5.8c0.5-0.5,1.1-0.7,1.7-0.7
						c1.1,0,2.1,0.8,2.4,1.8c0.3,1.2-0.4,2.7-0.8,2.9c-0.1,0-0.2,0-0.2,0h0c-0.4,0-0.9-0.4-1.2-0.7c-0.1,0.2-0.3,0.4-0.4,0.8
						c-0.1,0.5-0.2,1.2,0.2,1.9c0.2,0.4,0.6,0.5,1.3,0.5c0.2,0,0.4,0,0.7,0c0.2,0,0.5,0,0.7,0c0.6,0,1.4,0.1,1.9,0.7
						c1,1.2,0.3,2.7-0.3,3.2C46.2,66.6,46.2,66.7,46.1,66.7z"/>
					<path class="st7" d="M44.9,64.5c0.6,0,1,0.8,1.3,1.4c0.3-0.5,0.6-1.3,0-2.2c-0.3-0.4-0.7-0.5-1.5-0.5c-0.2,0-0.5,0-0.7,0
						c-0.2,0-0.5,0-0.7,0c-0.6,0-1.4-0.1-1.8-0.8c-0.6-1-0.4-2-0.2-2.5c0.2-0.4,0.5-1,0.8-1.1c0.1,0,0.2,0,0.3,0.1
						c0.3,0.4,0.8,0.7,0.9,0.7c0.2-0.2,0.7-1.3,0.5-2.3c-0.2-0.8-1-1.4-1.8-1.4c-0.5,0-1,0.2-1.4,0.6c0,0,0,0,0,0
						c0,0-0.4,0.3-0.8,1.1c-0.3,0.7-0.6,2.1-0.3,4.2c0.3,1.9,1.5,2.8,3.6,2.8c0.7,0,1.4-0.1,1.7-0.2C44.7,64.5,44.8,64.5,44.9,64.5
						C44.9,64.5,44.9,64.5,44.9,64.5z"/>
				</g>
			</g>
		</g>
		<g>
			<g>
				<g>
					<path class="st8" d="M45,70.2c-0.8,0-1.3-0.2-1.7-0.6c-1.2-1.2-0.2-3,0.4-3.7c0.1-0.1,0.1-0.1,0.2-0.1c0.1,0,0.2,0,0.2,0.1
						c0,0,0.4,0.5,0.8,1.2c0.1,0.1,0.1,0.2,0,0.3c0,0.1,0,0.1,0,0.1c0,0,0.1,0.1,0.4,0.1c0.3,0,0.7-0.1,1.2-0.2
						c1.3-0.3,2.2-0.1,2.7,0.6c0.5,0.7,0.3,1.4-0.5,2.2c-0.1,0.1-0.2,0.1-0.3,0.1c-0.1,0-0.2-0.1-0.2-0.2c0-0.1-0.1-0.1-0.3-0.1
						c-0.3,0-0.7,0.1-1.1,0.1C46.2,70.1,45.6,70.2,45,70.2z"/>
					<path class="st7" d="M43.9,66.6c-0.4,0.5-1.1,1.8-0.2,2.7c0.3,0.3,0.7,0.4,1.3,0.4c0.5,0,1.1-0.1,1.7-0.2
						c0.5-0.1,0.9-0.2,1.2-0.2c0.3,0,0.5,0.1,0.6,0.2c0.5-0.6,0.4-1,0.2-1.2c-0.2-0.3-0.6-0.5-1.2-0.5c-0.3,0-0.6,0-1,0.1
						c-0.4,0.1-0.9,0.2-1.3,0.2c-0.4,0-0.7-0.1-0.8-0.3c-0.1-0.1-0.1-0.3,0-0.5C44.2,67,44,66.7,43.9,66.6z"/>
				</g>
			</g>
		</g>
		<g>
			<g>
				<g>
					<path class="st8" d="M50.5,78.7C50.5,78.7,50.5,78.7,50.5,78.7c-0.4-0.1-0.5-0.4-0.6-0.7c-0.1-0.2-0.1-0.4-0.3-0.6
						c-0.1-0.1-0.2-0.2-0.3-0.3c-0.3-0.3-0.6-0.6-0.7-1.2c0-0.1,0-0.1,0-0.2c0-0.7,0-1-0.6-1.5c-0.2-0.2-0.5-0.3-0.8-0.4
						c-0.5-0.2-1.1-0.3-1.6-1.1c-0.8-1.4,0.7-2.8,0.8-2.8c0.1,0,0.1-0.1,0.2-0.1c0.1,0,0.1,0,0.2,0.1c0.8,1,1.1,1.5,1.1,1.7
						c0,0,0.1,0,0.1,0c0.2,0,0.4,0,0.6,0c0.3,0,0.6,0.1,0.8,0.2c0.9,0.5,0.9,1.3,0.8,1.9c-0.2,0.8,0.1,1.1,0.4,1.3
						c0.2,0.2,0.4,0.4,0.5,0.8c0,0.6-0.1,2.3-0.5,2.7C50.7,78.6,50.6,78.7,50.5,78.7z"/>
					<path class="st7" d="M46.8,70.5c-0.3,0.4-0.9,1.2-0.5,1.9c0.4,0.6,0.8,0.8,1.3,0.9c0.3,0.1,0.7,0.2,1,0.5
						c0.7,0.6,0.7,1.2,0.7,1.8c0,0.1,0,0.1,0,0.2c0,0.4,0.2,0.6,0.5,0.8c0.1,0.1,0.2,0.2,0.3,0.3c0.2,0.2,0.3,0.5,0.4,0.8
						c0,0.1,0,0.1,0.1,0.2c0.1-0.4,0.3-1.4,0.3-2.2c0-0.2-0.1-0.3-0.3-0.4c-0.3-0.3-0.8-0.7-0.6-1.8c0.1-0.7,0-1.1-0.5-1.3
						c-0.1-0.1-0.3-0.1-0.6-0.1c-0.2,0-0.4,0-0.6,0c-0.1,0-0.2,0-0.3,0c-0.1,0-0.2,0-0.4-0.1c0-0.1-0.1-0.2,0-0.3l0,0
						C47.5,71.6,47.2,71,46.8,70.5z"/>
				</g>
			</g>
		</g>
		<g>
			<g>
				<g>
					<g>
						<path class="st8" d="M39,59.5c-0.1,0-0.2,0-0.2-0.1l-2.1-2.9c-0.2,0-0.4,0.1-0.6,0.1c-0.6,0-1-0.2-1.3-0.6
							c-0.6-0.8,0-2.1,1.2-2.9c0.6-0.4,1.2-0.6,1.8-0.6c0.6,0,1,0.2,1.3,0.6c0.4,0.5,0.3,1.3-0.2,2l1.1,1.8c0.1,0.1,0.1,0.2,0,0.3
							c-0.3,0.4-0.6,1.1-0.7,2.2C39.3,59.4,39.2,59.5,39,59.5C39.1,59.5,39.1,59.5,39,59.5z"/>
						<path class="st6" d="M36.9,55.9c0.1,0,0.2,0,0.2,0.1l1.8,2.5c0.2-0.7,0.4-1.3,0.6-1.6l-1.1-1.8c-0.1-0.1-0.1-0.2,0-0.3
							c0.4-0.6,0.6-1.2,0.3-1.5c-0.2-0.2-0.5-0.4-0.9-0.4c-0.5,0-1,0.2-1.5,0.5c-0.9,0.6-1.4,1.6-1,2.2c0.2,0.2,0.5,0.4,0.9,0.4
							C36.4,56,36.6,56,36.9,55.9C36.8,55.9,36.8,55.9,36.9,55.9z"/>
					</g>
				</g>
			</g>
			<g>
				<g>
					<g>
						<path class="st8" d="M43.3,63.2L43.3,63.2c-0.6,0-1.4-0.1-1.8-0.8c-0.8-1.2-0.3-2.5-0.1-2.8c0-0.1,0.1-0.1,0.2-0.2
							c0.1,0,0.2,0,0.2,0.1l2.1,3.2C44,62.9,44,63,44,63c0,0.1-0.1,0.1-0.2,0.1C43.6,63.2,43.4,63.2,43.3,63.2z"/>
						<path class="st6" d="M41.7,60.3c-0.1,0.5-0.2,1.2,0.2,1.8c0.2,0.4,0.6,0.5,1.3,0.5L41.7,60.3z"/>
					</g>
				</g>
			</g>
			<g>
				<g>
					<g>
						<path class="st8" d="M43.4,57.7c0,0.2-0.2,0.4-0.4,0.4c-0.2,0-0.4-0.2-0.4-0.4c0-0.2,0.2-0.4,0.4-0.4
							C43.2,57.4,43.4,57.5,43.4,57.7z"/>
					</g>
				</g>
				<g>
					<g>
						<path class="st8" d="M43,58.3c-0.3,0-0.5-0.2-0.5-0.5c0-0.3,0.2-0.5,0.5-0.5c0.3,0,0.5,0.2,0.5,0.5C43.6,58,43.3,58.3,43,58.3
							z M43,57.6c-0.1,0-0.2,0.1-0.2,0.2c0,0.1,0.1,0.2,0.2,0.2c0.1,0,0.2-0.1,0.2-0.2C43.2,57.6,43.1,57.6,43,57.6z"/>
					</g>
				</g>
			</g>
			<g>
				<g>
					<g>
						<path class="st8" d="M45.3,68.1L45.3,68.1C45.2,68.1,45.2,68.1,45.3,68.1c-0.2,0-0.2,0-0.3-0.1l-2.1-2.9
							c-0.1-0.1-0.1-0.2,0-0.3c0-0.1,0.1-0.1,0.2-0.1c0.7,0,1.3-0.1,1.5-0.2c0.1,0,0.2,0,0.2,0c0,0,0,0,0,0h0c0.1,0,0.2,0,0.2,0.1
							l1.9,2.8c0,0.1,0.1,0.2,0,0.2c0,0.1-0.1,0.1-0.2,0.2c-0.1,0-0.2,0-0.2,0.1C46.2,68,45.7,68.1,45.3,68.1z"/>
						<path class="st6" d="M43.6,65.2l1.7,2.4c0.3,0,0.6-0.1,1-0.2L44.8,65c0,0,0,0,0,0C44.5,65.1,44.1,65.1,43.6,65.2z"/>
					</g>
				</g>
			</g>
			<g>
				<g>
					<g>
						<g>
							<path class="st8" d="M49.7,72.4c0,0-0.1,0-0.1,0c0,0-0.1,0-0.1-0.1c-0.1-0.1-0.3-0.1-0.6-0.1c-0.2,0-0.4,0-0.5,0
								c-0.1,0-0.1,0-0.2,0c-0.1,0-0.2,0-0.2-0.1l-0.5-0.8c-0.2-0.3-0.4-0.5-0.5-0.7L46.4,70c-0.1-0.1-0.1-0.2,0-0.3
								c0-0.1,0.1-0.1,0.2-0.2l0.1,0c0.6-0.1,1.1-0.2,1.5-0.1c0.1,0,0.1,0.1,0.2,0.1l1.6,2.4c0,0,0.1,0.1,0.1,0.2
								C50,72.2,49.8,72.4,49.7,72.4L49.7,72.4z"/>
							<path class="st6" d="M47,70l0.2,0.3c0.1,0.2,0.3,0.5,0.5,0.7l0.4,0.6c0,0,0,0,0,0c0.2,0,0.4,0,0.6,0c0.1,0,0.1,0,0.2,0
								l-1.1-1.7C47.7,69.9,47.4,69.9,47,70z"/>
						</g>
					</g>
				</g>
				<g>
					<g>
						<g>
							<path class="st8" d="M54.6,80.6c-0.1,0-0.1,0-0.1,0l-0.9-0.6c0,0,0,0-0.1-0.1l-2.6-3.7c0,0,0-0.1,0-0.2c0-0.1,0-0.1,0-0.2
								c0-0.2-0.1-0.3-0.3-0.4c-0.3-0.3-0.8-0.7-0.6-1.8c0-0.2,0.1-0.4,0-0.6c0-0.1,0.1-0.2,0.2-0.3c0.1,0,0.2,0,0.3,0.1l4.1,6.3
								c0,0,0,0.1,0,0.1l0.3,1.1c0,0.1,0,0.2-0.1,0.3C54.7,80.6,54.6,80.6,54.6,80.6z"/>
							<path class="st6" d="M53.8,79.5l0.3,0.2l-0.1-0.4l-3.6-5.6c-0.1,0.8,0.1,1,0.4,1.3c0.2,0.2,0.4,0.4,0.5,0.8c0,0,0,0.1,0,0.1
								L53.8,79.5z"/>
						</g>
					</g>
				</g>
			</g>
		</g>
		<g>
			<g>
				<path class="st8" d="M52.4,95.1c-0.1-0.1-0.2-0.1-0.2,0c-0.4,0.1-0.9,0.3-1.3,0.3v0.5c0.3-0.1,0.8-0.2,1.2-0.3
					c0,1.8,0,7.6-0.1,9c-0.7-0.1-2.4-0.4-4.1-0.4c-1.2,0-2.1,0.1-2.8,0.4c0,0.1-0.1,0.1-0.2,0.1c0,0-0.1,0-0.1,0
					c-0.1,0-0.2,0-0.2-0.1c0,0,0,0,0,0c-0.5-0.2-1.6-0.4-3-0.4c-1.3,0-2.5,0.2-3.8,0.7c0-2.2-0.1-6.9-0.2-8.2c0.2,0,0.4,0.1,0.7,0.1
					l0-0.5c-0.5-0.1-0.9-0.2-0.9-0.2c-0.1,0-0.2,0-0.2,0.1c-0.1,0.1-0.1,0.1-0.1,0.2c0,0.1,0.2,6.6,0.2,8.9c0,0.1,0,0.2,0.1,0.2
					c0,0,0.1,0,0.1,0c0,0,0.1,0,0.1,0c1.3-0.5,2.6-0.8,3.9-0.8c1.9,0,3.1,0.5,3.1,0.5c0.1,0,0.2,0,0.2,0c0.6-0.3,1.6-0.5,2.9-0.5
					c2.1,0,4.3,0.4,4.3,0.4c0.1,0,0.2,0,0.2-0.1c0.1,0,0.1-0.1,0.1-0.2c0-0.1,0.1-8.3,0.1-9.7C52.5,95.2,52.5,95.1,52.4,95.1z"/>
			</g>
		</g>
		<g>
			<g>
				<g>
					<path class="st8" d="M31.7,86.6c-1.6,0-3.1-0.8-4-2.2l-0.1-0.1l0.1-0.1c0.9-1.4,2.4-2.2,4-2.2c1.6,0,3.1,0.8,4,2.2l0.1,0.1
						l-0.1,0.1C34.8,85.8,33.3,86.6,31.7,86.6z M28.2,84.3c0.8,1.1,2.1,1.8,3.5,1.8c1.4,0,2.7-0.7,3.5-1.8c-0.8-1.1-2.1-1.8-3.5-1.8
						C30.3,82.5,29,83.2,28.2,84.3z"/>
				</g>
			</g>
		</g>
		<g>
			<g>
				<g>
					<path class="st8" d="M32.6,84.3c0,0.5-0.4,0.9-0.9,0.9c-0.5,0-0.9-0.4-0.9-0.9c0-0.5,0.4-0.9,0.9-0.9
						C32.2,83.3,32.6,83.8,32.6,84.3z"/>
				</g>
			</g>
		</g>
		<g>
			<g>
				<g>
					<g>
						<polygon class="st8" points="10.6,107.9 10.2,107.7 11.9,103.2 13.1,103.8 						"/>
						<polygon class="st4" points="12.1,103.8 11.4,105.7 12.5,104 						"/>
					</g>
				</g>
			</g>
			<g>
				<g>
					<g>
						<polygon class="st8" points="15.2,107.9 12.7,103.8 13.9,103.2 15.6,107.7 						"/>
						<polygon class="st4" points="13.3,104 14.4,105.7 13.7,103.8 						"/>
					</g>
				</g>
			</g>
			<g>
				<g>
					<g>
						<path class="st8" d="M12.9,104.1c-0.7,0-1.3-0.6-1.3-1.3c0-0.7,0.6-1.3,1.3-1.3c0.7,0,1.3,0.6,1.3,1.3
							C14.2,103.5,13.6,104.1,12.9,104.1z"/>
						<path class="st4" d="M12.9,102c-0.4,0-0.7,0.3-0.7,0.7c0,0.4,0.3,0.7,0.7,0.7s0.7-0.3,0.7-0.7C13.7,102.4,13.3,102,12.9,102z"
							/>
					</g>
				</g>
			</g>
		</g>
		<g>
			<g>
				<path class="st7" d="M16,76.1c0,1.3,1.1,2.3,2.4,2.3c1.3,0,2.3-1,2.4-2.3H16z"/>
				<path class="st8" d="M18.4,78.7c-1.4,0-2.6-1.1-2.6-2.6c0-0.1,0-0.1,0.1-0.2c0.1,0,0.1-0.1,0.2-0.1h4.8c0.1,0,0.1,0,0.2,0.1
					c0,0.1,0.1,0.1,0.1,0.2C21,77.6,19.9,78.7,18.4,78.7z M16.3,76.4c0.2,1,1,1.8,2.1,1.8c1.1,0,1.9-0.8,2.1-1.8H16.3z"/>
			</g>
			<g>
				<polygon class="st7" points="19.5,76.1 17.2,76.1 18.3,53.1 				"/>
				<path class="st8" d="M19.5,76.4L19.5,76.4h-2.3c-0.1,0-0.1,0-0.2-0.1c-0.1-0.1-0.1-0.1-0.1-0.2l1.1-23c0-0.1,0.1-0.3,0.3-0.3
					l0,0c0.1,0,0.3,0.1,0.3,0.3l1.2,22.9c0,0,0,0,0,0.1C19.8,76.3,19.7,76.4,19.5,76.4z M17.5,75.8h1.7l-0.9-17.4L17.5,75.8z"/>
			</g>
			<g>
				<rect x="14.9" y="71.2" class="st7" width="7.1" height="1.2"/>
				<path class="st8" d="M22,72.7h-7.1c-0.1,0-0.3-0.1-0.3-0.3v-1.2c0-0.1,0.1-0.3,0.3-0.3H22c0.1,0,0.3,0.1,0.3,0.3v1.2
					C22.2,72.5,22.1,72.7,22,72.7z M15.1,72.1h6.6v-0.7h-6.6V72.1z"/>
			</g>
			<g>
				<line class="st7" x1="17.4" y1="74.1" x2="19.4" y2="72.4"/>
				<path class="st8" d="M17.4,74.4c-0.1,0-0.2,0-0.2-0.1c-0.1-0.1-0.1-0.3,0-0.4l2-1.7c0.1-0.1,0.3-0.1,0.4,0
					c0.1,0.1,0.1,0.3,0,0.4l-2,1.7C17.5,74.4,17.4,74.4,17.4,74.4z"/>
			</g>
			<g>
				<line class="st7" x1="17.3" y1="75.7" x2="19.4" y2="74"/>
				<path class="st8" d="M17.3,76c-0.1,0-0.2,0-0.2-0.1c-0.1-0.1-0.1-0.3,0-0.4l2.1-1.7c0.1-0.1,0.3-0.1,0.4,0
					c0.1,0.1,0.1,0.3,0,0.4l-2.1,1.7C17.4,75.9,17.3,76,17.3,76z"/>
			</g>
			<g>
				<path class="st7" d="M25.4,55.3H11.4l-3.6,8.2c0.1,1.9,1.6,3.5,3.6,3.5c2,0,3.5-1.6,3.6-3.5l-3.2-7.2h13.1l-3.2,7.2
					c0.1,1.9,1.6,3.5,3.6,3.5c2,0,3.5-1.6,3.6-3.5L25.4,55.3z M14.1,63.3H8.8l2.6-6.1L14.1,63.3z M22.7,63.3l2.6-6.1l2.6,6.1H22.7z"
					/>
				<path class="st8" d="M25.4,67.2c-2.1,0-3.8-1.7-3.9-3.8c0,0,0-0.1,0-0.1l3-6.8H12.3l3,6.8c0,0,0,0.1,0,0.1
					c-0.1,2.1-1.8,3.8-3.9,3.8c-2.1,0-3.8-1.7-3.9-3.8c0,0,0-0.1,0-0.1l3.6-8.2c0-0.1,0.1-0.2,0.2-0.2h13.9c0.1,0,0.2,0.1,0.2,0.2
					l3.6,8.2c0,0,0,0.1,0,0.1C29.2,65.5,27.5,67.2,25.4,67.2z M22,63.5c0.1,1.8,1.5,3.2,3.3,3.2c1.8,0,3.3-1.4,3.3-3.2l-3.5-7.9
					H11.6l-3.5,7.9c0.1,1.8,1.5,3.2,3.3,3.2c1.8,0,3.2-1.4,3.3-3.2l-3.1-7.1c0-0.1,0-0.2,0-0.3c0-0.1,0.1-0.1,0.2-0.1h13.1
					c0.1,0,0.2,0,0.2,0.1c0,0.1,0.1,0.2,0,0.3L22,63.5z M28,63.6h-5.3c-0.1,0-0.2,0-0.2-0.1c-0.1-0.1-0.1-0.2,0-0.3l2.6-6.1
					c0-0.1,0.1-0.2,0.2-0.2c0.1,0,0.2,0.1,0.2,0.2l2.6,6.1c0,0.1,0,0.2,0,0.3C28.2,63.6,28.1,63.6,28,63.6z M23.1,63.1h4.5l-2.2-5.2
					L23.1,63.1z M14.1,63.6H8.8c-0.1,0-0.2,0-0.2-0.1c0-0.1-0.1-0.2,0-0.3l2.6-6.1c0-0.1,0.1-0.2,0.2-0.2c0.1,0,0.2,0.1,0.2,0.2
					l2.6,6.1c0,0.1,0,0.2,0,0.3C14.2,63.6,14.2,63.6,14.1,63.6z M9.2,63.1h4.5l-2.2-5.2L9.2,63.1z"/>
			</g>
		</g>
	</g>
</g>
</svg>
