<svg xmlns="http://www.w3.org/2000/svg" viewBox="0 0 331 99.88"><defs><style>.cls-1{fill:#0c1f4f;}</style></defs><title>iei-logo-desktop</title><g id="Capa_2" data-name="Capa 2"><g id="Capa_1-2" data-name="Capa 1"><path class="cls-1" d="M17.3,27.87l1.84-7-5.61-4.59,7.23-.41,2.63-6.75L26,15.86l7.23.41-5.61,4.59,1.84,7L23.39,24Zm6.09-4.46,5.35,3.44-1.62-6.15,4.93-4-6.35-.36-2.31-5.93-2.31,5.93-6.35.36,4.93,4L18,26.85Z"/><polygon class="cls-1" points="21.77 13.91 19.03 5.48 18.73 5.57 21.59 14.39 21.77 13.91"/><path class="cls-1" d="M21.59,14.62h0a.23.23,0,0,1-.21-.16L18.51,5.64a.23.23,0,0,1,.15-.29l.3-.1a.23.23,0,0,1,.29.15L22,13.84A.23.23,0,0,1,22,14l-.18.47A.23.23,0,0,1,21.59,14.62Z"/><polygon class="cls-1" points="8.78 19.59 17.95 19.59 17.55 19.27 8.78 19.27 8.78 19.59"/><path class="cls-1" d="M17.95,19.82H8.78a.23.23,0,0,1-.23-.23v-.32A.23.23,0,0,1,8.78,19h8.78a.23.23,0,0,1,.15.05l.39.32a.23.23,0,0,1-.15.41Z"/><polygon class="cls-1" points="20.93 16.09 21.01 15.87 12.24 3.8 11.98 3.99 20.77 16.09 20.93 16.09"/><path class="cls-1" d="M20.78,16.32a.23.23,0,0,1-.19-.1L11.8,4.12a.22.22,0,0,1,0-.17.22.22,0,0,1,.09-.15l.26-.19a.23.23,0,0,1,.32.05L21.2,15.74a.23.23,0,0,1,0,.22l-.08.21a.23.23,0,0,1-.2.15h-.17Z"/><polygon class="cls-1" points="23.39 9.74 23.56 10.16 23.56 0.23 23.24 0.23 23.24 10.16 23.39 9.74"/><path class="cls-1" d="M23.56,10.38a.23.23,0,0,1-.16-.07.22.22,0,0,1-.2.06.23.23,0,0,1-.19-.22V.23A.23.23,0,0,1,23.24,0h.32a.23.23,0,0,1,.23.23v9.93a.23.23,0,0,1-.19.22Z"/><polygon class="cls-1" points="28.1 16.21 35.32 10.97 35.13 10.71 27.59 16.18 28.1 16.21"/><path class="cls-1" d="M28.1,16.44h0l-.51,0a.23.23,0,0,1-.12-.41L35,10.52a.23.23,0,0,1,.17,0,.22.22,0,0,1,.15.09l.19.26a.23.23,0,0,1-.05.32L28.23,16.4A.24.24,0,0,1,28.1,16.44Z"/><polygon class="cls-1" points="32.66 16.47 32.42 16.66 41.7 13.65 41.6 13.34 32.08 16.44 32.66 16.47"/><path class="cls-1" d="M32.42,16.89a.24.24,0,0,1-.2-.12.26.26,0,0,1,0-.1h-.13a.23.23,0,0,1-.21-.2.23.23,0,0,1,.16-.25l9.53-3.1a.23.23,0,0,1,.17,0,.22.22,0,0,1,.11.13l.1.3a.23.23,0,0,1-.15.29l-9.28,3Z"/><polygon class="cls-1" points="19.2 16.18 11.66 10.71 11.47 10.97 18.7 16.21 19.2 16.18"/><path class="cls-1" d="M18.7,16.44a.24.24,0,0,1-.14,0l-7.22-5.25a.23.23,0,0,1,0-.32l.19-.26a.23.23,0,0,1,.15-.09.23.23,0,0,1,.17,0L19.34,16a.23.23,0,0,1-.12.41l-.51,0Z"/><polygon class="cls-1" points="25.2 14.39 28.07 5.57 27.76 5.47 25.02 13.91 25.2 14.39"/><path class="cls-1" d="M25.2,14.62a.23.23,0,0,1-.21-.15L24.81,14a.22.22,0,0,1,0-.15l2.74-8.44a.23.23,0,0,1,.29-.15l.3.1a.23.23,0,0,1,.15.29l-2.86,8.81a.23.23,0,0,1-.21.16Z"/><polygon class="cls-1" points="25.86 16.09 26.02 16.09 34.81 3.99 34.55 3.8 25.78 15.87 25.86 16.09"/><path class="cls-1" d="M26,16.32h-.16a.23.23,0,0,1-.2-.15L25.57,16a.23.23,0,0,1,0-.22L34.36,3.67a.23.23,0,0,1,.32-.05l.26.19A.23.23,0,0,1,35,4a.24.24,0,0,1,0,.17L26.2,16.23A.23.23,0,0,1,26,16.32Z"/><polygon class="cls-1" points="38.01 19.27 29.24 19.27 28.84 19.59 38.01 19.59 38.01 19.27"/><path class="cls-1" d="M28.84,19.82a.23.23,0,0,1-.15-.41l.39-.32a.23.23,0,0,1,.15-.05H38a.23.23,0,0,1,.16.07.22.22,0,0,1,.07.16v.32a.23.23,0,0,1-.23.23Z"/><polygon class="cls-1" points="14.13 16.47 14.72 16.44 5.19 13.34 5.09 13.65 14.37 16.66 14.13 16.47"/><path class="cls-1" d="M14.37,16.89H14.3L5,13.87a.23.23,0,0,1-.15-.29l.1-.31a.23.23,0,0,1,.29-.15l9.53,3.1a.22.22,0,0,1,.16.25.23.23,0,0,1-.21.2H14.6a.23.23,0,0,1,0,.1A.23.23,0,0,1,14.37,16.89Z"/><polygon class="cls-1" points="24.93 24.66 27.76 33.38 28.07 33.28 25.36 24.94 24.93 24.66"/><path class="cls-1" d="M27.76,33.61l-.1,0a.23.23,0,0,1-.11-.13l-2.83-8.72a.23.23,0,0,1,.34-.26l.43.27a.22.22,0,0,1,.1.12l2.71,8.34a.23.23,0,0,1-.15.29l-.3.1Z"/><polygon class="cls-1" points="23.39 23.68 23.24 23.78 23.24 38.63 23.56 38.63 23.56 23.78 23.39 23.68"/><path class="cls-1" d="M23.56,38.85h-.32a.23.23,0,0,1-.23-.23V23.78a.23.23,0,0,1,.11-.19l.16-.1a.23.23,0,0,1,.25,0l.16.1a.23.23,0,0,1,.11.19V38.63A.23.23,0,0,1,23.56,38.85Z"/><polygon class="cls-1" points="27.96 22.94 35.13 28.15 35.32 27.89 27.83 22.45 27.96 22.94"/><path class="cls-1" d="M35.13,28.38a.23.23,0,0,1-.13,0l-7.17-5.21a.24.24,0,0,1-.09-.13l-.13-.49a.23.23,0,0,1,.09-.25.23.23,0,0,1,.26,0l7.49,5.44a.23.23,0,0,1,.05.32l-.19.26a.23.23,0,0,1-.15.09Z"/><polygon class="cls-1" points="27.39 20.78 27.42 20.91 41.6 25.51 41.7 25.21 27.58 20.62 27.39 20.78"/><path class="cls-1" d="M41.6,25.74h-.07L27.35,21.12A.23.23,0,0,1,27.2,21l0-.13a.23.23,0,0,1,.08-.24l.2-.16a.23.23,0,0,1,.21,0L41.78,25a.23.23,0,0,1,.15.29l-.1.3a.23.23,0,0,1-.11.13Z"/><polygon class="cls-1" points="29.12 27.36 28.82 27.16 34.55 35.05 34.81 34.87 28.99 26.85 29.12 27.36"/><path class="cls-1" d="M34.55,35.28a.23.23,0,0,1-.19-.09L28.63,27.3a.23.23,0,0,1,0-.29.24.24,0,0,1,.12-.07v0a.23.23,0,0,1,.12-.27.23.23,0,0,1,.28.07l5.83,8a.24.24,0,0,1,0,.17.24.24,0,0,1-.09.15l-.26.19A.22.22,0,0,1,34.55,35.28Z"/><polygon class="cls-1" points="21.44 24.94 18.73 33.28 19.03 33.38 21.86 24.66 21.44 24.94"/><path class="cls-1" d="M19,33.61H19l-.3-.1a.23.23,0,0,1-.13-.11.24.24,0,0,1,0-.17l2.71-8.34a.22.22,0,0,1,.09-.12l.43-.27a.23.23,0,0,1,.27,0,.23.23,0,0,1,.08.25l-2.83,8.72A.23.23,0,0,1,19,33.61Z"/><polygon class="cls-1" points="18.96 22.45 11.47 27.89 11.66 28.15 18.84 22.94 18.96 22.45"/><path class="cls-1" d="M11.66,28.38h0a.23.23,0,0,1-.15-.09L11.29,28a.23.23,0,0,1,0-.32l7.49-5.44a.23.23,0,0,1,.26,0,.24.24,0,0,1,.09.25l-.13.49a.23.23,0,0,1-.09.13L11.8,28.34A.23.23,0,0,1,11.66,28.38Z"/><polygon class="cls-1" points="19.41 20.78 19.21 20.62 5.09 25.21 5.19 25.51 19.37 20.91 19.41 20.78"/><path class="cls-1" d="M5.19,25.74l-.11,0A.23.23,0,0,1,5,25.58l-.1-.3A.23.23,0,0,1,5,25L19.14,20.4a.23.23,0,0,1,.22,0l.19.16a.23.23,0,0,1,.08.24l0,.13a.22.22,0,0,1-.15.16L5.26,25.73Z"/><polygon class="cls-1" points="17.67 27.36 17.81 26.85 11.98 34.87 12.24 35.05 17.97 27.16 17.67 27.36"/><path class="cls-1" d="M12.24,35.28a.22.22,0,0,1-.13,0l-.26-.19a.24.24,0,0,1-.09-.15.22.22,0,0,1,0-.17l5.82-8a.23.23,0,0,1,.28-.07.23.23,0,0,1,.12.27v0a.24.24,0,0,1,.12.07.23.23,0,0,1,0,.29l-5.73,7.89A.23.23,0,0,1,12.24,35.28Z"/><rect class="cls-1" x="23.3" y="9.78" width="0.18" height="13.89"/><path class="cls-1" d="M23.57,23.75h-.34v-14h.34Zm-.18-.15h0V9.86h0Z"/><polygon class="cls-1" points="27.34 20.86 14.13 16.57 14.19 16.39 27.4 20.69 27.34 20.86"/><path class="cls-1" d="M27.39,21,14,16.62l.1-.32,13.36,4.34ZM14.22,16.52l13.07,4.25v0L14.23,16.49Z"/><polygon class="cls-1" points="19.43 20.86 19.37 20.69 32.59 16.39 32.64 16.57 19.43 20.86"/><path class="cls-1" d="M19.38,21l-.1-.32L32.64,16.3l.1.32Zm.09-.22v0l13.07-4.25v0Z"/><rect class="cls-1" x="24.93" y="14.77" width="0.18" height="13.89" transform="translate(-7.98 18.85) rotate(-36)"/><path class="cls-1" d="M29,27.49,20.75,16.13l.27-.2L29.28,27.3ZM21,16.16,29,27.28l0,0L21,16.14Z"/><polygon class="cls-1" points="17.77 27.39 17.62 27.28 25.78 16.04 25.93 16.15 17.77 27.39"/><path class="cls-1" d="M17.78,27.49l-.27-.2,8.25-11.36.27.2Zm-.06-.23,0,0,8.08-11.12,0,0Z"/><path class="cls-1" d="M24,99.88H22.79v-.61c0-.91-2.06-1.12-2.79-1.12H3.43A3.12,3.12,0,0,1,0,94.73V38.17H23.39v1.22H1.22V94.73a1.94,1.94,0,0,0,2.2,2.2H20a5.3,5.3,0,0,1,3.4,1,5.3,5.3,0,0,1,3.4-1H43.37a1.94,1.94,0,0,0,2.21-2.2V39.39H23.4V38.17h23.4V94.73a3.12,3.12,0,0,1-3.43,3.43H26.79c-.72,0-2.79.2-2.79,1.12Z"/><path class="cls-1" d="M29.72,47.46a.23.23,0,0,1-.19-.09l-1.79-2.5a2.31,2.31,0,0,1-.51.06,1.3,1.3,0,0,1-1.12-.51c-.48-.7,0-1.79,1-2.5a2.85,2.85,0,0,1,1.57-.53,1.3,1.3,0,0,1,1.12.52,1.51,1.51,0,0,1-.19,1.72l1,1.51a.23.23,0,0,1,0,.25,4.11,4.11,0,0,0-.64,1.88.23.23,0,0,1-.17.2Zm-1.88-3.08a.23.23,0,0,1,.19.1l1.56,2.18a4.41,4.41,0,0,1,.54-1.4l-1-1.52a.23.23,0,0,1,0-.27,1.17,1.17,0,0,0,.28-1.31.87.87,0,0,0-.75-.32,2.42,2.42,0,0,0-1.31.45c-.8.54-1.2,1.4-.88,1.87a.86.86,0,0,0,.74.31,1.94,1.94,0,0,0,.54-.08Z"/><path class="cls-1" d="M33.37,50.63h0A1.66,1.66,0,0,1,31.83,50a2.61,2.61,0,0,1-.09-2.44.23.23,0,0,1,.19-.13.23.23,0,0,1,.21.11l1.81,2.77a.22.22,0,0,1,0,.23.23.23,0,0,1-.19.13ZM32,48.13a2,2,0,0,0,.21,1.59c.2.31.52.45,1.12.45Z"/><circle class="cls-1" cx="33.16" cy="45.92" r="0.31"/><path class="cls-1" d="M33.16,46.38a.46.46,0,1,1,.46-.46A.46.46,0,0,1,33.16,46.38Zm0-.61a.15.15,0,0,0-.15.15.15.15,0,0,0,.15.16.15.15,0,0,0,.15-.16A.15.15,0,0,0,33.16,45.77Z"/><path class="cls-1" d="M17,66.83H.63v.76H16.81A6.35,6.35,0,0,1,17,66.83Z"/><path class="cls-1" d="M29.8,66.83a6.35,6.35,0,0,1,.18.76H46.35v-.76Z"/><path class="cls-1" d="M23.39,62.09h.38V38.84H23V62.1Z"/><path class="cls-1" d="M23.39,75.49H23V98.59h.76V75.48Z"/><path class="cls-1" d="M28.29,71.83H18.5l-.2-.34L23.2,63h.4l4.9,8.48Zm-9.4-.46h9l-4.5-7.8Z"/><path class="cls-1" d="M25.85,63.91l-.1,0a11.41,11.41,0,0,0-1.49-.35,1.05,1.05,0,0,1-.74-.43.33.33,0,0,1,0-.3.57.57,0,0,1,.33-.24,3.49,3.49,0,0,1-.26-.28.49.49,0,0,1,0-.46c.12-.29.48-.49,1.1-.6.85-.15,1.28.5,1.6,1a1.58,1.58,0,0,0,.41.49.23.23,0,1,1-.2.41,1.74,1.74,0,0,1-.59-.65c-.36-.53-.63-.88-1.14-.78S24,61.94,24,62s0,0,0,0l.49.49a.23.23,0,0,1-.13.39L24,63a1,1,0,0,0,.31.1,11.41,11.41,0,0,1,1.61.39.23.23,0,0,1,.11.31A.22.22,0,0,1,25.85,63.91Z"/><path class="cls-1" d="M26,63.51l-.16.17a11,11,0,0,0-1.55-.37.87.87,0,0,1-.58-.32.09.09,0,0,1,0-.09h-.33a5.91,5.91,0,1,0,2.62.61ZM23.39,74.23a5.44,5.44,0,1,1,5.44-5.44A5.45,5.45,0,0,1,23.39,74.23Z"/><path class="cls-1" d="M26.14,62.43a1.32,1.32,0,0,0,.43.46l-.16.18a6.46,6.46,0,1,1-3-.75l.57,0-.18-.2a.26.26,0,0,1,0-.27h-.39a6.93,6.93,0,1,0,2.75.57Z"/><circle class="cls-1" cx="24.71" cy="62.07" r="0.14"/><circle class="cls-1" cx="24.71" cy="62.07" r="0.29"/><path class="cls-1" d="M23.39,70.73a1.91,1.91,0,1,1,1.91-1.91A1.91,1.91,0,0,1,23.39,70.73Zm0-3.46A1.56,1.56,0,1,0,25,68.82,1.55,1.55,0,0,0,23.39,67.26Z"/><path class="cls-1" d="M18.93,95.39H17.12a.23.23,0,0,1-.23-.23V91.36H4.6a.23.23,0,0,1-.23-.23v-2a.23.23,0,0,1,.23-.23H18.93a.23.23,0,0,1,.23.23v2a.15.15,0,0,1,0,0v4A.23.23,0,0,1,18.93,95.39Zm-1.58-.46H18.7V91.13s0,0,0,0V89.38H4.82V90.9h12.3a.23.23,0,0,1,.23.23Z"/><path class="cls-1" d="M14.82,89.22a4.85,4.85,0,1,1,4.85-4.85A4.86,4.86,0,0,1,14.82,89.22Zm0-9.25a4.4,4.4,0,1,0,4.39,4.4A4.4,4.4,0,0,0,14.82,80Z"/><line class="cls-1" x1="6.41" y1="73.64" x2="14.5" y2="78.81"/><polygon class="cls-1" points="14.44 78.91 6.35 73.74 6.47 73.55 14.56 78.72 14.44 78.91"/><line class="cls-1" x1="6.35" y1="73.69" x2="13.49" y2="78.98"/><rect class="cls-1" x="9.8" y="71.9" width="0.23" height="8.88" transform="translate(-57.31 38.85) rotate(-53.45)"/><line class="cls-1" x1="6.29" y1="73.74" x2="12.7" y2="79.23"/><rect class="cls-1" x="9.38" y="72.27" width="0.23" height="8.44" transform="translate(-54.74 33.89) rotate(-49.37)"/><line class="cls-1" x1="6.23" y1="73.79" x2="12.06" y2="79.55"/><polygon class="cls-1" points="11.98 79.63 6.16 73.87 6.32 73.71 12.14 79.47 11.98 79.63"/><line class="cls-1" x1="6.18" y1="73.84" x2="11.5" y2="79.91"/><rect class="cls-1" x="8.72" y="72.84" width="0.23" height="8.07" transform="translate(-48.51 24.92) rotate(-41.27)"/><line class="cls-1" x1="6.12" y1="73.89" x2="11.02" y2="80.34"/><polygon class="cls-1" points="10.93 80.41 6.03 73.96 6.21 73.82 11.11 80.27 10.93 80.41"/><line class="cls-1" x1="6.06" y1="73.94" x2="10.57" y2="80.81"/><polygon class="cls-1" points="10.48 80.88 5.96 74 6.15 73.88 10.67 80.75 10.48 80.88"/><line class="cls-1" x1="6" y1="73.99" x2="10.16" y2="81.36"/><polygon class="cls-1" points="10.07 81.42 5.9 74.05 6.1 73.94 10.27 81.3 10.07 81.42"/><line class="cls-1" x1="5.94" y1="74.04" x2="9.78" y2="82.01"/><polygon class="cls-1" points="9.68 82.06 5.84 74.09 6.04 73.99 9.89 81.96 9.68 82.06"/><line class="cls-1" x1="5.88" y1="74.09" x2="9.46" y2="82.84"/><rect class="cls-1" x="7.56" y="73.74" width="0.23" height="9.45" transform="translate(-29.2 8.78) rotate(-22.3)"/><line class="cls-1" x1="5.82" y1="74.14" x2="9.27" y2="84.18"/><rect class="cls-1" x="7.43" y="73.85" width="0.23" height="10.62" transform="translate(-25.35 6.76) rotate(-18.99)"/><path class="cls-1" d="M6.87,74.9l-1.26-.81-1.27.81.38-1.45-1.16-1,1.5-.09L5.61,71l.55,1.4,1.5.09-1.16,1Zm-2.11-2,.48.39-.16.6.52-.34.52.34L6,73.28l.48-.39-.62,0-.22-.58-.23.58Z"/><path class="cls-1" d="M13.6,88.42a.21.21,0,0,1-.21-.14,6,6,0,0,1-.09-.82c0-.16,0-.33,0-.37a2.86,2.86,0,0,1,0-.41,5.21,5.21,0,0,0,0-.52l0-.1c0-.09-.09-.34-.18-.38-.73-.26-.7-.5-.69-.58a1.7,1.7,0,0,0,0-.25c0-.42,0-.71.12-.82l.21-.11.14-.07a.45.45,0,0,1-.25-.24,2.53,2.53,0,0,0-.35-.25,2,2,0,0,1-.28-.2.6.6,0,0,1-.09-.15c-.18-.36-.26-.43-.29-.44-.19,0-.73-.16-.85-.4a.25.25,0,0,1,0-.25A7.22,7.22,0,0,1,11.8,80.6,9.05,9.05,0,0,1,13,79.9a.15.15,0,0,1,.14,0,.15.15,0,0,1,.08.11s.06.44.08.64.06.2.15.17a1.1,1.1,0,0,0,.23-.2c.16-.16.3-.31.47-.31h0a.5.5,0,0,0,.14,0,.54.54,0,0,1,.21-.06c.06,0,.24,0,.24.32,0,.14,0,.22,0,.3a1.43,1.43,0,0,0,0,.35.54.54,0,0,1-.14.42.44.44,0,0,1-.52.15l-.08-.06a.36.36,0,0,0-.16-.09h0a.83.83,0,0,0-.42.37c-.08.23-.29.43-.45.43h-.06c-.15-.05-.16-.24-.16-.45,0,0,0-.07-.08-.08l-.13,0-.09,0a.66.66,0,0,0-.17.42,1.88,1.88,0,0,0,.52.78A9.61,9.61,0,0,1,14,83.9a5.43,5.43,0,0,0,.68.27c.38.11.85.31.89.64a1.5,1.5,0,0,1-.4,1.06,3.32,3.32,0,0,0-.51.51l-.1.11c-.08.08-.1.11-.17.47A9.31,9.31,0,0,1,14,88.22a.15.15,0,0,1-.07.08A.85.85,0,0,1,13.6,88.42Zm0-.3v0Zm-.95-3a1.18,1.18,0,0,0,.49.27c.24.09.33.4.37.58l0,.07a2.4,2.4,0,0,1,0,.63c0,.13,0,.32,0,.35s0,.17,0,.39,0,.51.06.67l.09,0a9.16,9.16,0,0,0,.34-1.16c.07-.41.12-.49.25-.62l.09-.1a3.75,3.75,0,0,1,.56-.56,1.28,1.28,0,0,0,.28-.77c0-.1-.23-.26-.67-.39a3.87,3.87,0,0,1-.81-.34,10.89,10.89,0,0,0-1.07-.83,2,2,0,0,1-.7-1,1,1,0,0,1,.27-.7.25.25,0,0,1,.19-.07.64.64,0,0,1,.2,0l.09,0a.43.43,0,0,1,.34.38V82a.49.49,0,0,0,.09-.14,1.1,1.1,0,0,1,.58-.54.38.38,0,0,1,.16,0,.59.59,0,0,1,.35.15l0,0a.27.27,0,0,0,.14-.08.23.23,0,0,0,.06-.18,1.82,1.82,0,0,1,0-.41c0-.07,0-.15,0-.27h0a.66.66,0,0,1-.29.07,1.11,1.11,0,0,0-.25.21,1,1,0,0,1-.36.28.44.44,0,0,1-.54-.44c0-.1,0-.28,0-.42a8.14,8.14,0,0,0-1,.58,6.91,6.91,0,0,0-1,1.21,1.29,1.29,0,0,0,.59.21c.24,0,.4.31.55.61l0,.07.22.15c.29.19.44.3.47.42l.12.07c.1.05.26.13.22.29s-.19.21-.39.31l-.16.08a2.23,2.23,0,0,0,0,.54A1.78,1.78,0,0,1,12.65,85.12Z"/><path class="cls-1" d="M16,81.28c-.22,0-.38-.11-.39-.27a.33.33,0,0,0-.13-.19.63.63,0,0,1-.34-.31,1.94,1.94,0,0,1-.1-.46A.18.18,0,0,1,15,80l.09-.26a.15.15,0,0,1,.16-.11,4.07,4.07,0,0,1,1.15.25.15.15,0,0,1,.09.09.15.15,0,0,1,0,.13,2.38,2.38,0,0,0-.18.35s0,.06,0,.12c0,.44-.06.7-.25.71ZM15.89,81h0c0-.11,0-.33,0-.43a1.28,1.28,0,0,1,0-.16,1.21,1.21,0,0,1,.13-.29,4,4,0,0,0-.77-.16l0,.12a1.4,1.4,0,0,0,.07.33c0,.07.09.11.2.16A.6.6,0,0,1,15.89,81Z"/><path class="cls-1" d="M18.47,87.3l-.06,0a.15.15,0,0,1-.09-.16,4.69,4.69,0,0,0,.07-.52,1.45,1.45,0,0,1,0-.3c0-.07,0-.14,0-.2a1,1,0,0,0-.1-.23.92.92,0,0,1-.11-.28.65.65,0,0,0-.17-.34,1.06,1.06,0,0,1-.18-.37.71.71,0,0,0-.09-.21.87.87,0,0,1-.15-.32l0-.1c-.18-.18.12-.65.12-.65a1.25,1.25,0,0,1,.4-.24h0l.42-.11.12-.11a1.26,1.26,0,0,0-.05-.16.52.52,0,0,1,0-.24h0a.3.3,0,0,1-.16.06.91.91,0,0,1-.43-.07l-.08,0a.2.2,0,0,1-.15,0,1.22,1.22,0,0,0-.22-.12h-.15l0,.09c0,.12,0,.26,0,.3,0,.21-.42.33-.56.33h-.07c-.34-.08-.41-.13-.44-.21a1,1,0,0,1,.12-.47l0-.07a.29.29,0,0,1,0-.26,1,1,0,0,1,.16-.18.15.15,0,0,1,.1,0,1.74,1.74,0,0,1,.26,0l.06,0a2.56,2.56,0,0,1,.16-.22h0a.25.25,0,0,0,.1-.17.72.72,0,0,0,0-.2v-.08s0,0-.05-.08L17,81.19a.58.58,0,0,1-.13-.3.32.32,0,0,1,.17-.3,1.82,1.82,0,0,0,.24-.2.16.16,0,0,1,.18,0,4,4,0,0,1,.49.37,12.35,12.35,0,0,1,1.3,1.78,5.16,5.16,0,0,1,.24,2.77,4.36,4.36,0,0,1-.9,2A.15.15,0,0,1,18.47,87.3Zm-.69-3.22a.72.72,0,0,1,.08.18.67.67,0,0,0,.1.22.94.94,0,0,1,.14.31.89.89,0,0,0,.12.27.93.93,0,0,1,.24.5,1.18,1.18,0,0,0,.08.18,1.12,1.12,0,0,1,.13.34c0,.06,0,.14,0,.22a1.6,1.6,0,0,0,0,.22.17.17,0,0,1,0,0,4,4,0,0,0,.5-1.33,4.93,4.93,0,0,0-.2-2.57A12.28,12.28,0,0,0,17.75,81a3.57,3.57,0,0,0-.35-.28,1.3,1.3,0,0,1-.22.16h0a.05.05,0,0,0,0,0,1.14,1.14,0,0,0,.08.13l0,0a.44.44,0,0,1,.12.25v.07a1,1,0,0,1,0,.28.55.55,0,0,1-.19.37,1.84,1.84,0,0,0-.16.21.13.13,0,0,1-.06.05.56.56,0,0,1-.29.06h-.14l0,0v0a.35.35,0,0,1,0,.3,1.17,1.17,0,0,0-.08.21l.2.05a.72.72,0,0,0,.25-.09c0-.09,0-.24,0-.29v0c0-.11.11-.28.26-.31h0a.64.64,0,0,1,.29,0,1.29,1.29,0,0,1,.28.15l.16,0a.65.65,0,0,0,.3.06h0a.28.28,0,0,1,.17-.06,1,1,0,0,1,.22,0,.15.15,0,0,1,.11.18.75.75,0,0,0,0,.21,1.79,1.79,0,0,1,.08.26.23.23,0,0,1-.06.19s-.2.24-.35.24l-.36.09a1.64,1.64,0,0,0-.28.15A1,1,0,0,0,17.78,84.08Z"/><path class="cls-1" d="M39.55,95h-.07a.23.23,0,0,1-.16-.22V92.31a.24.24,0,0,1,.06-.15l3.71-4.33a.23.23,0,0,1,.26-.07.23.23,0,0,1,.15.22v.32a2.39,2.39,0,0,0,0,.77.4.4,0,0,0,.2.26.23.23,0,0,1,.13.15.23.23,0,0,1,0,.2l-4.07,5.25A.23.23,0,0,1,39.55,95Zm.24-2.63v1.73l3.52-4.54a.82.82,0,0,1-.23-.42,1.91,1.91,0,0,1-.05-.55Z"/><path class="cls-1" d="M34.72,86.57h-.07a.23.23,0,0,1-.16-.22l.15-8.55a.23.23,0,0,1,.1-.19,2.7,2.7,0,0,1,1.5-.5,3.86,3.86,0,0,1,1.49.38,1.81,1.81,0,0,0,.71.13,3.54,3.54,0,0,0,1.39-.33.23.23,0,0,1,.33.2c0,.06,0,6.31,0,8.45a.24.24,0,0,1-.09.18.23.23,0,0,1-.2,0,10.52,10.52,0,0,0-2.72-.42c-1.75,0-2.23.72-2.24.73A.23.23,0,0,1,34.72,86.57Zm.38-8.65L35,85.82a3.88,3.88,0,0,1,2.19-.54,10.59,10.59,0,0,1,2.56.36c0-2,0-6.53,0-7.81a3.83,3.83,0,0,1-1.26.24,2.28,2.28,0,0,1-.89-.17,3.31,3.31,0,0,0-1.31-.34A2.19,2.19,0,0,0,35.1,77.92Z"/><path class="cls-1" d="M34.68,86.55a.23.23,0,0,1-.19-.1c-.27-.39-1-.59-2-.59a14.23,14.23,0,0,0-3,.41.23.23,0,0,1-.29-.22l-.09-7.46a.23.23,0,0,1,.28-.23,3.75,3.75,0,0,0,.74.07,4.28,4.28,0,0,0,2.17-.57A3.27,3.27,0,0,1,34,77.35a2,2,0,0,1,1,.26.23.23,0,0,1,.1.2s-.11,4.93-.19,8.52a.23.23,0,0,1-.16.21ZM32.52,85.4a3.7,3.7,0,0,1,1.94.41c.07-3.16.16-7.08.17-7.88a1.76,1.76,0,0,0-.68-.13,2.82,2.82,0,0,0-1.43.44,4.74,4.74,0,0,1-2.4.64,5.18,5.18,0,0,1-.56,0l.09,6.9A14.07,14.07,0,0,1,32.52,85.4Z"/><path class="cls-1" d="M34.68,86.55a.23.23,0,0,1-.19-.1c-.27-.39-1-.59-2-.59a14.23,14.23,0,0,0-3,.41.23.23,0,0,1-.29-.22l-.09-7.46a.23.23,0,0,1,.28-.23,3.75,3.75,0,0,0,.74.07,4.28,4.28,0,0,0,2.17-.57A3.27,3.27,0,0,1,34,77.35a2,2,0,0,1,1,.26.23.23,0,0,1,.1.2s-.11,4.93-.19,8.52a.23.23,0,0,1-.16.21ZM32.52,85.4a3.7,3.7,0,0,1,1.94.41c.07-3.16.16-7.08.17-7.88a1.76,1.76,0,0,0-.68-.13,2.82,2.82,0,0,0-1.43.44,4.74,4.74,0,0,1-2.4.64,5.18,5.18,0,0,1-.56,0l.09,6.9A14.07,14.07,0,0,1,32.52,85.4Z"/><path class="cls-1" d="M39.13,91.51h-.08a.23.23,0,0,1-.15-.21l-.06-1.92a.24.24,0,0,1,.06-.16l3.27-3.51a.23.23,0,0,1,.25-.06.23.23,0,0,1,.15.21v.28a2,2,0,0,0,0,.66.3.3,0,0,0,.16.2.23.23,0,0,1,.08.36L39.3,91.43A.23.23,0,0,1,39.13,91.51Zm.17-2.06,0,1.24,3-3.46a.71.71,0,0,1-.18-.34,1.62,1.62,0,0,1-.05-.45Z"/><path class="cls-1" d="M42.34,86h0l-1.25-.1a.23.23,0,1,1,0-.46l1.25.1a.23.23,0,0,1,0,.46Z"/><path class="cls-1" d="M39.08,91.54H39L27.39,88.7a1.09,1.09,0,0,1-.79-1.12,1,1,0,0,1,.25-.76.76.76,0,0,1,.56-.22h0l11.69,2.44a.23.23,0,0,1,.18.23v2a.23.23,0,0,1-.09.18A.22.22,0,0,1,39.08,91.54ZM27.36,87.07a.28.28,0,0,0-.19.08.6.6,0,0,0-.12.43c0,.57.39.67.43.68L38.85,91V89.46Z"/><path class="cls-1" d="M27,87.18a.22.22,0,0,1-.17-.08.23.23,0,0,1,0-.32l1.32-1.19a.23.23,0,0,1,.31.34L27.2,87.12A.23.23,0,0,1,27,87.18Z"/><path class="cls-1" d="M29.52,89.2a.23.23,0,0,1-.23-.23v-1.6a.23.23,0,1,1,.46,0V89A.23.23,0,0,1,29.52,89.2Z"/><path class="cls-1" d="M30.63,89.48a.23.23,0,0,1-.23-.23V87.69a.23.23,0,0,1,.46,0v1.56A.23.23,0,0,1,30.63,89.48Z"/><path class="cls-1" d="M35.59,90.63a.23.23,0,0,1-.23-.23V88.72a.23.23,0,1,1,.46,0V90.4A.23.23,0,0,1,35.59,90.63Z"/><path class="cls-1" d="M39.5,95h-.06L26.11,91.25A1.23,1.23,0,0,1,25.25,90c0-.8.47-1.08.87-1.08h.08l13.35,3.23a.23.23,0,0,1,.18.22v2.42a.23.23,0,0,1-.23.23ZM26.11,89.35c-.16,0-.41.09-.41.62,0,.7.46.82.51.84l13,3.67V92.53Z"/><path class="cls-1" d="M25.74,89.48a.22.22,0,0,1-.17-.08.23.23,0,0,1,0-.32l1.19-1a.23.23,0,0,1,.3.35l-1.2,1A.23.23,0,0,1,25.74,89.48Z"/><path class="cls-1" d="M43.27,88.14h0L42.19,88a.23.23,0,0,1,0-.46l1.05.1a.23.23,0,0,1,0,.46Z"/><path class="cls-1" d="M27.54,91.53a.15.15,0,0,1-.15-.15V89.56a.15.15,0,0,1,.15-.15.15.15,0,0,1,.15.15v1.81A.15.15,0,0,1,27.54,91.53Z"/><path class="cls-1" d="M35.29,93.7a.15.15,0,0,1-.15-.15V91.43a.15.15,0,0,1,.15-.15.15.15,0,0,1,.15.15v2.12A.15.15,0,0,1,35.29,93.7Z"/><path class="cls-1" d="M34.73,77.67a2,2,0,0,1-2-1.48A.15.15,0,0,1,33,76a2.74,2.74,0,0,0,.35.15,3,3,0,0,1-.39-.86.16.16,0,0,1,.05-.16.16.16,0,0,1,.17,0,2.73,2.73,0,0,0,.38.16,2.77,2.77,0,0,1-.28-.66.15.15,0,0,1,.22-.18,2.5,2.5,0,0,0,.59.22,1.9,1.9,0,0,0,.35-1c0-.27.08-.53.31-.53s.25.23.3.49a2,2,0,0,0,.38,1,3.64,3.64,0,0,0,.63-.18.15.15,0,0,1,.2.18,2.82,2.82,0,0,1-.28.67,2.7,2.7,0,0,0,.38-.16.15.15,0,0,1,.17,0,.16.16,0,0,1,.05.16,3.09,3.09,0,0,1-.39.86A2.83,2.83,0,0,0,36.5,76a.15.15,0,0,1,.17,0,.15.15,0,0,1,.05.16A2,2,0,0,1,34.73,77.67Zm-1.57-1.24a1.78,1.78,0,0,0,3.14,0,2.5,2.5,0,0,1-.59.15.15.15,0,0,1-.1-.28,1.77,1.77,0,0,0,.53-.76,2.45,2.45,0,0,1-.59.15.15.15,0,0,1-.11-.28,1.42,1.42,0,0,0,.4-.59,2.91,2.91,0,0,1-.48.1.15.15,0,0,1-.12,0,2.1,2.1,0,0,1-.51-1.21h0a.21.21,0,0,0,0,0,2.05,2.05,0,0,1-.49,1.23.16.16,0,0,1-.12,0,1.94,1.94,0,0,1-.44-.12,1.4,1.4,0,0,0,.37.55.15.15,0,0,1-.1.27,2.55,2.55,0,0,1-.59-.15,1.79,1.79,0,0,0,.52.76.15.15,0,0,1,.06.18.15.15,0,0,1-.16.1A2.64,2.64,0,0,1,33.16,76.43Z"/><path class="cls-1" d="M11,60.24a.23.23,0,0,1-.18-.08.23.23,0,0,1,0-.32l1.74-1.46a.23.23,0,0,1,.29.35l-1.74,1.46A.22.22,0,0,1,11,60.24Z"/><path class="cls-1" d="M11,61.59a.23.23,0,0,1-.18-.08.23.23,0,0,1,0-.32l1.78-1.48a.23.23,0,1,1,.29.35l-1.78,1.48A.23.23,0,0,1,11,61.59Z"/><path class="cls-1" d="M12,64a2.27,2.27,0,0,1-2.28-2.22.23.23,0,0,1,.23-.24H14a.23.23,0,0,1,.23.24A2.27,2.27,0,0,1,12,64Zm-1.8-2a1.83,1.83,0,0,0,3.61,0Z"/><path class="cls-1" d="M15,58.77H8.88a.23.23,0,0,1-.23-.23v-1a.23.23,0,0,1,.23-.23H15a.23.23,0,0,1,.23.23v1A.23.23,0,0,1,15,58.77Zm-5.91-.46h5.68v-.56H9.11Z"/><path class="cls-1" d="M12.89,62h-2a.24.24,0,0,1-.17-.07.23.23,0,0,1-.06-.17l.16-3.19a.23.23,0,0,1,.23-.22h1.67a.23.23,0,0,1,.23.22l.16,3.16s0,0,0,0A.23.23,0,0,1,12.89,62Zm-1.75-.46h1.5l-.14-2.74H11.28Z"/><path class="cls-1" d="M12.68,57.75H11.11a.23.23,0,0,1-.17-.07.24.24,0,0,1-.06-.17l.63-12.67H6.65l2.59,5.87a.21.21,0,0,1,0,.1,3.33,3.33,0,0,1-6.66,0,.21.21,0,0,1,0-.1l3.1-7a.23.23,0,0,1,.21-.14h5.66l.08-1.61a.23.23,0,0,1,.23-.22h0a.23.23,0,0,1,.23.22l.08,1.61h5.74a.23.23,0,0,1,.21.14l3.1,7a.24.24,0,0,1,0,.1,3.33,3.33,0,0,1-6.66,0,.21.21,0,0,1,0-.1l2.59-5.87H12.26l.64,12.63a.19.19,0,0,1,0,0A.23.23,0,0,1,12.68,57.75Zm-1.33-.46h1.08l-.54-10.78Zm3.71-6.45a2.87,2.87,0,0,0,5.74,0l-3-6.85H12l-.09,0-.09,0H6.07l-3,6.85a2.87,2.87,0,0,0,5.74,0L6.09,44.7a.23.23,0,0,1,.21-.32h5.46a.24.24,0,0,1,.13,0,.23.23,0,0,1,.13,0h5.54a.23.23,0,0,1,.19.1.23.23,0,0,1,0,.22Z"/><path class="cls-1" d="M8.21,51H3.65a.23.23,0,0,1-.19-.1.23.23,0,0,1,0-.22l2.28-5.25a.23.23,0,0,1,.21-.14.23.23,0,0,1,.21.14L8.4,50.6a.24.24,0,0,1,0,.12A.23.23,0,0,1,8.21,51ZM4,50.49H7.86L5.92,46Z"/><path class="cls-1" d="M20.22,51H15.66a.23.23,0,0,1-.21-.32l2.28-5.25a.23.23,0,0,1,.42,0l2.27,5.22a.22.22,0,0,1,0,.12A.23.23,0,0,1,20.22,51ZM16,50.49h3.86L17.94,46Z"/><path class="cls-1" d="M35.8,53.61h0a.23.23,0,0,1-.17-.15c-.21-.6-.6-1.26-.81-1.26l-.13,0a8.36,8.36,0,0,1-1.51.15c-2.08,0-3.31-1-3.58-2.8-.53-3.63.95-4.83,1.14-5A2.16,2.16,0,0,1,32.18,44a2.09,2.09,0,0,1,2,1.54A3,3,0,0,1,33.56,48a.5.5,0,0,1-.2,0h0a1.74,1.74,0,0,1-1-.64,2.06,2.06,0,0,0-.33.71,2,2,0,0,0,.2,1.62c.2.32.53.45,1.15.45l.58,0,.62,0a2,2,0,0,1,1.63.62A2.16,2.16,0,0,1,36,53.53.23.23,0,0,1,35.8,53.61Zm-1-1.87c.48,0,.87.68,1.09,1.17a1.57,1.57,0,0,0,0-1.87,1.47,1.47,0,0,0-1.27-.45l-.59,0-.6,0A1.66,1.66,0,0,1,31.83,50a2.53,2.53,0,0,1-.2-2.16,1.64,1.64,0,0,1,.66-.94.23.23,0,0,1,.26.07,1.74,1.74,0,0,0,.82.64,2.93,2.93,0,0,0,.4-2,1.61,1.61,0,0,0-1.58-1.18,1.73,1.73,0,0,0-1.19.49l0,0a2.33,2.33,0,0,0-.66.93A6.54,6.54,0,0,0,30,49.5c.23,1.6,1.28,2.41,3.12,2.41a8.14,8.14,0,0,0,1.42-.14l.17,0Z"/><path class="cls-1" d="M34.85,56.7a1.94,1.94,0,0,1-1.49-.51c-1-1.06-.2-2.55.37-3.2a.23.23,0,0,1,.35,0s.32.42.71,1a.23.23,0,0,1,0,.23.32.32,0,0,0,0,.09.64.64,0,0,0,.3,0,4.47,4.47,0,0,0,1-.16c1.08-.27,1.92-.09,2.33.5s.25,1.19-.41,1.87a.23.23,0,0,1-.23.06.23.23,0,0,1-.16-.18c0-.06-.11-.09-.29-.09a6.51,6.51,0,0,0-1,.13A9.09,9.09,0,0,1,34.85,56.7Zm-.95-3.18c-.33.47-1,1.57-.21,2.35a1.54,1.54,0,0,0,1.16.37,8.8,8.8,0,0,0,1.45-.17,6.73,6.73,0,0,1,1.05-.13.89.89,0,0,1,.54.14c.43-.54.31-.87.17-1.07a1.16,1.16,0,0,0-1-.43,3.31,3.31,0,0,0-.82.11,5,5,0,0,1-1.14.17c-.36,0-.59-.09-.7-.27a.46.46,0,0,1,0-.41Z"/><path class="cls-1" d="M35.08,54.86H35a.22.22,0,0,1-.18-.1L33,52.27a.23.23,0,0,1,.18-.36,8.51,8.51,0,0,0,1.33-.14l.17,0h.05a.24.24,0,0,1,.19.11l1.6,2.45a.23.23,0,0,1-.15.35l-.21,0A5,5,0,0,1,35.08,54.86Zm-1.42-2.51,1.47,2.05a4.46,4.46,0,0,0,.87-.13l-1.34-2.06h0C34.45,52.25,34.09,52.31,33.66,52.34Z"/><path class="cls-1" d="M39.63,64h0c-.29,0-.39-.34-.47-.61a1.4,1.4,0,0,0-.22-.49,2.79,2.79,0,0,0-.23-.22,1.41,1.41,0,0,1-.58-1c0-.07,0-.13,0-.19a1.42,1.42,0,0,0-.49-1.25,1.62,1.62,0,0,0-.65-.31,2,2,0,0,1-1.34-1c-.69-1.17.61-2.37.66-2.42a.23.23,0,0,1,.17-.06.22.22,0,0,1,.16.08,4.87,4.87,0,0,1,1,1.47h.11a4.62,4.62,0,0,1,.53,0,1.53,1.53,0,0,1,.69.14,1.35,1.35,0,0,1,.68,1.62,1,1,0,0,0,.34,1.15,1,1,0,0,1,.39.7,5.14,5.14,0,0,1-.42,2.35A.33.33,0,0,1,39.63,64Zm-3.23-7c-.28.33-.78,1-.41,1.67a1.59,1.59,0,0,0,1.09.79,2,2,0,0,1,.83.41,1.88,1.88,0,0,1,.64,1.58c0,.06,0,.12,0,.19a1,1,0,0,0,.43.7,3,3,0,0,1,.26.26,1.67,1.67,0,0,1,.31.66l.06.17a7,7,0,0,0,.22-1.87c0-.15-.08-.23-.25-.38a1.47,1.47,0,0,1-.47-1.57c.11-.6,0-.92-.43-1.13a1.07,1.07,0,0,0-.48-.09,4.06,4.06,0,0,0-.48,0l-.29,0a.35.35,0,0,1-.3-.13.29.29,0,0,1,0-.27h0A6,6,0,0,0,36.39,57Z"/><path class="cls-1" d="M38.9,58.52a.24.24,0,0,1-.12,0l-.1-.06a1.08,1.08,0,0,0-.48-.09,3.62,3.62,0,0,0-.47,0l-.15,0a.24.24,0,0,1-.21-.09l-.46-.65c-.14-.22-.31-.45-.43-.6l-.43-.6a.23.23,0,0,1,0-.22.22.22,0,0,1,.17-.14l.11,0A4.81,4.81,0,0,1,37.55,56a.22.22,0,0,1,.16.1l1.36,2.09a.22.22,0,0,1,.06.15.23.23,0,0,1-.23.23Zm-2.28-2,.22.3c.12.16.29.39.44.61l.38.53h0a4.26,4.26,0,0,1,.53,0h.17l-1-1.49A4.56,4.56,0,0,0,36.62,56.48Z"/><path class="cls-1" d="M43.12,65.61a.22.22,0,0,1-.13,0L42.18,65,42.13,65l-2.26-3.15a.23.23,0,0,1,0-.14v-.17c0-.15-.08-.23-.25-.38a1.47,1.47,0,0,1-.47-1.57,1.73,1.73,0,0,0,0-.53.22.22,0,0,1,.15-.24.23.23,0,0,1,.27.09l3.54,5.43a.25.25,0,0,1,0,.07l.22,1a.23.23,0,0,1-.09.24A.23.23,0,0,1,43.12,65.61Zm-.64-.94.29.2-.08-.34L39.55,59.7a1,1,0,0,0,.35,1.09,1,1,0,0,1,.39.7s0,.07,0,.11Z"/><path class="cls-1" d="M41.27,78.12a.23.23,0,0,0-.2,0c-.36.11-.8.22-1.16.29v.47c.29-.06.66-.14,1-.24,0,1.59,0,6.56,0,7.79a21.63,21.63,0,0,0-3.53-.34,6.83,6.83,0,0,0-2.44.35.24.24,0,0,1-.14.12h-.07a.23.23,0,0,1-.19-.1l0,0A8.47,8.47,0,0,0,31.9,86a9.44,9.44,0,0,0-3.24.58c0-1.92-.12-6-.14-7.08l.6.1v-.47L28.33,79a.23.23,0,0,0-.28.23c0,.06.15,5.69.15,7.68a.23.23,0,0,0,.1.19.22.22,0,0,0,.13,0l.09,0a9,9,0,0,1,3.38-.66,7.5,7.5,0,0,1,2.7.46.23.23,0,0,0,.2,0,5.61,5.61,0,0,1,2.53-.43A21.75,21.75,0,0,1,41,86.9a.24.24,0,0,0,.19,0,.23.23,0,0,0,.08-.18c0-.07,0-7.14,0-8.37A.22.22,0,0,0,41.27,78.12Z"/><path class="cls-1" d="M23.39,70.84A4.15,4.15,0,0,1,19.91,69l-.08-.12.08-.13a4.16,4.16,0,0,1,7,0l.08.13-.08.12A4.15,4.15,0,0,1,23.39,70.84Zm-3-2a3.7,3.7,0,0,0,6,0,3.7,3.7,0,0,0-6,0Z"/><circle class="cls-1" cx="23.4" cy="68.81" r="0.81"/><path class="cls-1" d="M5.21,89.18,4.87,89l1.45-3.93,1.06.51Zm1.33-3.57-.62,1.68.93-1.53Z"/><path class="cls-1" d="M9.19,89.18,7,85.59l1.06-.51L9.53,89ZM7.56,85.75l.93,1.53-.62-1.68Z"/><path class="cls-1" d="M7.21,85.86a1.1,1.1,0,1,1,1.1-1.1A1.11,1.11,0,0,1,7.21,85.86Zm0-1.75a.64.64,0,1,0,.65.65A.64.64,0,0,0,7.21,84.11Z"/><path class="cls-1" d="M79.39,53a.59.59,0,0,0-.45.17.88.88,0,0,0-.22.4,2.09,2.09,0,0,0-.06.51v7.35A4.8,4.8,0,0,1,77.36,65a5.06,5.06,0,0,1-3.66,1.26A5,5,0,0,1,70,65a4.89,4.89,0,0,1-1.29-3.65V53.91a2.06,2.06,0,0,0-.1-.7C68.58,53,68.37,53,68,53h-.29v-.2h3.65V53l-.5,0a.51.51,0,0,0-.29.12.53.53,0,0,0-.15.29,2.77,2.77,0,0,0,0,.53v7.47a4.46,4.46,0,0,0,.83,2.85,3.26,3.26,0,0,0,2.72,1,3.55,3.55,0,0,0,2.68-1,3.7,3.7,0,0,0,1-2.69V53.86a1.19,1.19,0,0,0-.09-.49.63.63,0,0,0-.3-.3,1.46,1.46,0,0,0-.63-.11v-.2h3.12V53Z"/><path class="cls-1" d="M93.62,53a.56.56,0,0,0-.3.26,1.09,1.09,0,0,0-.1.45q0,.27,0,.65V66.13h-1L84.35,54.88v9.55q0,.37,0,.64a1.07,1.07,0,0,0,.1.44.52.52,0,0,0,.3.25,1.84,1.84,0,0,0,.61.08V66H82.21v-.2a1.92,1.92,0,0,0,.63-.08.58.58,0,0,0,.31-.25.92.92,0,0,0,.11-.43c0-.18,0-.4,0-.66V53.78l-.2-.42a.8.8,0,0,0-.18-.26.5.5,0,0,0-.25-.12,2.38,2.38,0,0,0-.44,0v-.2H84.8q1.8,2.73,3.67,5.35t3.67,5.35V54.4q0-.39,0-.67a1.11,1.11,0,0,0-.1-.45.52.52,0,0,0-.31-.25,2,2,0,0,0-.64-.08v-.2h3.18V53A1.74,1.74,0,0,0,93.62,53Z"/><path class="cls-1" d="M96.86,66v-.2l.54,0a.63.63,0,0,0,.32-.11.45.45,0,0,0,.16-.28,3,3,0,0,0,0-.55v-11a3,3,0,0,0,0-.55.45.45,0,0,0-.16-.28A.64.64,0,0,0,97.4,53l-.54,0v-.2h3.8V53l-.54,0a.64.64,0,0,0-.32.11.45.45,0,0,0-.16.28,2.91,2.91,0,0,0,0,.55v11a2.9,2.9,0,0,0,0,.55.44.44,0,0,0,.16.28.63.63,0,0,0,.32.11l.54,0V66Z"/><path class="cls-1" d="M114.85,53.19a2.32,2.32,0,0,0-.32.57l-4.8,12.41h-.8L103.86,53.8a1.86,1.86,0,0,0-.38-.6.93.93,0,0,0-.64-.25v-.2h3.47V53h-.37a.65.65,0,0,0-.29.08.3.3,0,0,0-.15.21.66.66,0,0,0,.07.37l4,10.08,3.69-9.65a1.1,1.1,0,0,0,.1-.8c-.08-.17-.33-.27-.74-.29v-.2h2.82V53A.69.69,0,0,0,114.85,53.19Z"/><path class="cls-1" d="M125,66h-8.94v-.2a1.14,1.14,0,0,0,.76-.17,1.29,1.29,0,0,0,.16-.79v-11a1.29,1.29,0,0,0-.16-.79,1.14,1.14,0,0,0-.76-.17v-.2h8.74l0,2h-.27q-.1-.74-.46-.91a2.6,2.6,0,0,0-1-.17h-4q-.33,0-.38.07a.84.84,0,0,0,0,.38v4.49h4a4.38,4.38,0,0,0,.55,0,.87.87,0,0,0,.38-.13.61.61,0,0,0,.22-.29,2.11,2.11,0,0,0,.12-.53h.25v3h-.25a2.16,2.16,0,0,0-.12-.55.68.68,0,0,0-.22-.3.81.81,0,0,0-.37-.14,4.56,4.56,0,0,0-.56,0h-4v5.12a.32.32,0,0,0,.11.26.49.49,0,0,0,.25.11,1.61,1.61,0,0,0,.31,0h3.52a5.87,5.87,0,0,0,.81,0,1.72,1.72,0,0,0,.62-.21,1.74,1.74,0,0,0,.49-.42,3.07,3.07,0,0,0,.41-.72h.31Z"/><path class="cls-1" d="M135.7,66q-.47-1-.94-1.87a13.88,13.88,0,0,0-1-1.56,14.85,14.85,0,0,0-1.2-1.39q-.65-.67-1.47-1.39l-1.41,0v5a2.85,2.85,0,0,0,0,.53.56.56,0,0,0,.14.29.47.47,0,0,0,.29.12l.51,0V66h-3.57v-.2a3.12,3.12,0,0,0,.48,0,.5.5,0,0,0,.28-.13.5.5,0,0,0,.13-.28,3.57,3.57,0,0,0,0-.52v-11a3.63,3.63,0,0,0,0-.51.52.52,0,0,0-.13-.29.5.5,0,0,0-.28-.13,3.12,3.12,0,0,0-.48,0v-.2h4.69a7.22,7.22,0,0,1,1.66.19,4.2,4.2,0,0,1,1.4.6,3,3,0,0,1,1,1.08,3.4,3.4,0,0,1,.36,1.65,2.93,2.93,0,0,1-.27,1.3,2.78,2.78,0,0,1-.75.94,4,4,0,0,1-1.08.62,5.87,5.87,0,0,1-1.27.33q.57.47.92.8t.62.64q.27.3.52.63l.61.75a8.68,8.68,0,0,1,.74,1.11l.66,1.16q.3.54.56.91c.17.25.33.37.49.37V66Zm-6-7.14h.94a7.43,7.43,0,0,0,1.38-.13,3.75,3.75,0,0,0,1.23-.45,2.51,2.51,0,0,0,.88-.87,2.6,2.6,0,0,0,.33-1.37,2.35,2.35,0,0,0-.27-1.2,2,2,0,0,0-.74-.74,3.12,3.12,0,0,0-1-.36,7.3,7.3,0,0,0-1.2-.1h-.39l-.41,0a1.36,1.36,0,0,0-.4.1.8.8,0,0,0-.3.22Z"/><path class="cls-1" d="M140.46,65.77a.31.31,0,0,0-.1.25h-.24l-.1-2.86,0-.06h.18a3.54,3.54,0,0,0,1,1.35,3.86,3.86,0,0,0,1.26.74,3.56,3.56,0,0,0,1.35.19,3,3,0,0,0,1.25-.33,2.41,2.41,0,0,0,.9-.81,2.38,2.38,0,0,0-.12-2.64,5.17,5.17,0,0,0-1.15-1,15.42,15.42,0,0,0-1.5-.88,10.33,10.33,0,0,1-1.5-.94,4.9,4.9,0,0,1-1.15-1.22,3.07,3.07,0,0,1-.46-1.73,2.82,2.82,0,0,1,.32-1.36,3.4,3.4,0,0,1,.85-1,3.79,3.79,0,0,1,1.21-.66,4.38,4.38,0,0,1,1.38-.22,4.9,4.9,0,0,1,.81.07,6.74,6.74,0,0,1,.79.19l.22.07.38.11.38.11.2,0a.39.39,0,0,0,.37-.37h.22q.08.73.15,1.49a10.39,10.39,0,0,1,0,1.49h-.22a3.05,3.05,0,0,0-.76-1.24,3.6,3.6,0,0,0-1.13-.74,3.33,3.33,0,0,0-1.28-.26,2.93,2.93,0,0,0-1.19.24,2.12,2.12,0,0,0-.88.71,1.91,1.91,0,0,0-.34,1.16,1.57,1.57,0,0,0,.28.93,4,4,0,0,0,.68.74,10.65,10.65,0,0,0,1.08.76q.57.35,1.16.67l-.14-.06a13.63,13.63,0,0,1,1.24.73,6.15,6.15,0,0,1,1.07.88,3.85,3.85,0,0,1,.74,1.11,3.47,3.47,0,0,1,.27,1.42,3,3,0,0,1-.37,1.5,3.58,3.58,0,0,1-1,1.11,4.43,4.43,0,0,1-1.34.69,5,5,0,0,1-1.51.24,6.17,6.17,0,0,1-1.57-.2l-1.53-.41A.43.43,0,0,0,140.46,65.77Z"/><path class="cls-1" d="M150,66v-.2l.54,0a.63.63,0,0,0,.32-.11.45.45,0,0,0,.16-.28,3,3,0,0,0,0-.55v-11a3,3,0,0,0,0-.55.45.45,0,0,0-.16-.28.64.64,0,0,0-.32-.11L150,53v-.2h3.8V53l-.54,0a.64.64,0,0,0-.32.11.45.45,0,0,0-.16.28,2.91,2.91,0,0,0,0,.55v11a2.9,2.9,0,0,0,0,.55.44.44,0,0,0,.16.28.63.63,0,0,0,.32.11l.54,0V66Z"/><path class="cls-1" d="M156.48,65.84l.49,0a.47.47,0,0,0,.29-.12.57.57,0,0,0,.14-.29,2.85,2.85,0,0,0,0-.53v-11a2.85,2.85,0,0,0,0-.53.57.57,0,0,0-.14-.29A.47.47,0,0,0,157,53l-.49,0v-.2H161a10.33,10.33,0,0,1,3,.4,6.24,6.24,0,0,1,2.3,1.23,5.52,5.52,0,0,1,1.49,2.08,7.57,7.57,0,0,1,.53,3,7.8,7.8,0,0,1-.45,2.68,5.26,5.26,0,0,1-1.57,2.21,6.33,6.33,0,0,1-2.55,1.35,11.26,11.26,0,0,1-2.88.37h-4.39Zm2.63-1.22a.32.32,0,0,0,.14.27,1,1,0,0,0,.33.15,2,2,0,0,0,.39.06h.29a9.85,9.85,0,0,0,2.61-.32,5.2,5.2,0,0,0,2-1A4.61,4.61,0,0,0,166.15,62a6.83,6.83,0,0,0,.45-2.62,6.72,6.72,0,0,0-.43-2.52,4.66,4.66,0,0,0-1.23-1.77A5.06,5.06,0,0,0,163,54a8.63,8.63,0,0,0-2.52-.34,4.64,4.64,0,0,0-.72.06,1.4,1.4,0,0,0-.67.29Z"/><path class="cls-1" d="M178.17,66v-.2a1.09,1.09,0,0,0,.67-.17q.22-.17,0-.66l-1.22-3h-5.9l-1.1,2.74a1.2,1.2,0,0,0-.13.78c.06.18.3.27.72.27V66h-2.74v-.2a.79.79,0,0,0,.4-.14,1.46,1.46,0,0,0,.29-.27,1.59,1.59,0,0,0,.22-.35l.17-.39,5-12.06h1.08l5.22,12.57a1,1,0,0,0,.84.65V66ZM174.7,54.68l-2.59,6.39h5.18Z"/><path class="cls-1" d="M183.11,65.84l.49,0a.47.47,0,0,0,.29-.12.57.57,0,0,0,.14-.29,2.85,2.85,0,0,0,0-.53v-11a2.85,2.85,0,0,0,0-.53.57.57,0,0,0-.14-.29.47.47,0,0,0-.29-.12l-.49,0v-.2h4.55a10.33,10.33,0,0,1,3,.4,6.24,6.24,0,0,1,2.3,1.23,5.52,5.52,0,0,1,1.49,2.08,7.57,7.57,0,0,1,.53,3,7.8,7.8,0,0,1-.45,2.68,5.26,5.26,0,0,1-1.57,2.21,6.33,6.33,0,0,1-2.55,1.35,11.26,11.26,0,0,1-2.88.37h-4.39Zm2.63-1.22a.32.32,0,0,0,.14.27,1,1,0,0,0,.33.15,2,2,0,0,0,.39.06h.29a9.85,9.85,0,0,0,2.61-.32,5.2,5.2,0,0,0,2-1A4.61,4.61,0,0,0,192.78,62a6.83,6.83,0,0,0,.45-2.62,6.72,6.72,0,0,0-.43-2.52,4.66,4.66,0,0,0-1.23-1.77,5.06,5.06,0,0,0-1.92-1,8.63,8.63,0,0,0-2.52-.34,4.64,4.64,0,0,0-.72.06,1.4,1.4,0,0,0-.67.29Z"/><path class="cls-1" d="M202.68,65.84l.49,0a.47.47,0,0,0,.29-.12.57.57,0,0,0,.14-.29,2.85,2.85,0,0,0,0-.53v-11a2.85,2.85,0,0,0,0-.53.57.57,0,0,0-.14-.29.47.47,0,0,0-.29-.12l-.49,0v-.2h4.55a10.33,10.33,0,0,1,3,.4,6.24,6.24,0,0,1,2.3,1.23A5.52,5.52,0,0,1,214,56.46a7.57,7.57,0,0,1,.53,3,7.8,7.8,0,0,1-.45,2.68,5.26,5.26,0,0,1-1.57,2.21A6.33,6.33,0,0,1,210,65.66a11.26,11.26,0,0,1-2.88.37h-4.39Zm2.63-1.22a.32.32,0,0,0,.14.27,1,1,0,0,0,.33.15,2,2,0,0,0,.39.06h.29a9.85,9.85,0,0,0,2.61-.32,5.2,5.2,0,0,0,2-1A4.61,4.61,0,0,0,212.34,62a6.83,6.83,0,0,0,.45-2.62,6.72,6.72,0,0,0-.43-2.52,4.66,4.66,0,0,0-1.23-1.77,5.06,5.06,0,0,0-1.92-1,8.63,8.63,0,0,0-2.52-.34,4.64,4.64,0,0,0-.72.06,1.4,1.4,0,0,0-.67.29Z"/><path class="cls-1" d="M225.3,66h-8.94v-.2a1.14,1.14,0,0,0,.76-.17,1.29,1.29,0,0,0,.16-.79v-11a1.29,1.29,0,0,0-.16-.79,1.14,1.14,0,0,0-.76-.17v-.2h8.74l0,2h-.27q-.1-.74-.46-.91a2.6,2.6,0,0,0-1-.17h-4q-.33,0-.38.07a.84.84,0,0,0,0,.38v4.49h4a4.38,4.38,0,0,0,.55,0,.87.87,0,0,0,.38-.13.61.61,0,0,0,.22-.29,2.11,2.11,0,0,0,.12-.53h.25v3h-.25a2.16,2.16,0,0,0-.12-.55.68.68,0,0,0-.22-.3.81.81,0,0,0-.37-.14,4.56,4.56,0,0,0-.56,0h-4v5.12a.32.32,0,0,0,.11.26.49.49,0,0,0,.25.11,1.61,1.61,0,0,0,.31,0h3.52a5.87,5.87,0,0,0,.81,0,1.72,1.72,0,0,0,.62-.21,1.74,1.74,0,0,0,.49-.42,3.07,3.07,0,0,0,.41-.72h.31Z"/><path class="cls-1" d="M242.1,65.9a7.69,7.69,0,0,1-2.36.36,7.34,7.34,0,0,1-2.79-.5,5.86,5.86,0,0,1-3.4-3.57,8.26,8.26,0,0,1-.45-2.79,7.77,7.77,0,0,1,.47-2.74,6.46,6.46,0,0,1,1.34-2.2A6.09,6.09,0,0,1,237,53a6.93,6.93,0,0,1,2.74-.52,9.38,9.38,0,0,1,2.08.24l.3.09.38.11.37.1a1.42,1.42,0,0,0,.29,0,.44.44,0,0,0,.47-.35h.22v.73q0,.39,0,.8t0,.8a3.89,3.89,0,0,1-.11.69,5.51,5.51,0,0,0-1.53-1.7,3.81,3.81,0,0,0-2.2-.58,5,5,0,0,0-2.27.48,4.49,4.49,0,0,0-1.58,1.28,5.49,5.49,0,0,0-.92,1.88,8.33,8.33,0,0,0-.3,2.27,8.23,8.23,0,0,0,.31,2.31,5.32,5.32,0,0,0,1,1.87,4.5,4.5,0,0,0,1.61,1.25,5.32,5.32,0,0,0,2.3.46l1,0a8.62,8.62,0,0,0,1.09-.11,5.34,5.34,0,0,0,1-.27,3,3,0,0,0,.88-.52l.08.33A5.69,5.69,0,0,1,242.1,65.9Z"/><path class="cls-1" d="M253.73,66v-.2a3.5,3.5,0,0,0,.51,0,.51.51,0,0,0,.29-.13.55.55,0,0,0,.14-.28,2.6,2.6,0,0,0,0-.52V59.74H248.3v5.14a3.57,3.57,0,0,0,0,.52.5.5,0,0,0,.13.28.49.49,0,0,0,.28.13,3.29,3.29,0,0,0,.5,0V66h-3.59v-.2a3.49,3.49,0,0,0,.51,0,.5.5,0,0,0,.29-.13.56.56,0,0,0,.14-.28,2.67,2.67,0,0,0,0-.52v-11a2.68,2.68,0,0,0,0-.52.56.56,0,0,0-.14-.28.51.51,0,0,0-.29-.13,3.49,3.49,0,0,0-.51,0v-.2h3.59V53a3.29,3.29,0,0,0-.5,0,.5.5,0,0,0-.28.13.52.52,0,0,0-.13.29,3.63,3.63,0,0,0,0,.51v4.82h6.41V53.91a2.6,2.6,0,0,0,0-.52.55.55,0,0,0-.14-.28.51.51,0,0,0-.29-.13,3.5,3.5,0,0,0-.51,0v-.2h3.61V53a3.29,3.29,0,0,0-.5,0,.55.55,0,0,0-.29.13.48.48,0,0,0-.14.29,3.49,3.49,0,0,0,0,.51v11a3.44,3.44,0,0,0,0,.52.47.47,0,0,0,.14.28.54.54,0,0,0,.29.13,3.29,3.29,0,0,0,.5,0V66Z"/><path class="cls-1" d="M260,66v-.2l.54,0a.63.63,0,0,0,.32-.11.45.45,0,0,0,.16-.28,3,3,0,0,0,0-.55v-11a3,3,0,0,0,0-.55.45.45,0,0,0-.16-.28.64.64,0,0,0-.32-.11L260,53v-.2h3.8V53l-.54,0a.64.64,0,0,0-.32.11.45.45,0,0,0-.16.28,2.91,2.91,0,0,0,0,.55v11a2.9,2.9,0,0,0,0,.55.44.44,0,0,0,.16.28.63.63,0,0,0,.32.11l.54,0V66Z"/><path class="cls-1" d="M275.28,66h-8.84v-.2a3.29,3.29,0,0,0,.5,0,.5.5,0,0,0,.28-.13.5.5,0,0,0,.13-.28,3.57,3.57,0,0,0,0-.52v-11a3.63,3.63,0,0,0,0-.51.52.52,0,0,0-.13-.29.5.5,0,0,0-.28-.13,3.29,3.29,0,0,0-.5,0v-.2H270V53a3.5,3.5,0,0,0-.51,0,.56.56,0,0,0-.3.13.52.52,0,0,0-.15.28,2.68,2.68,0,0,0,0,.52v10.8a.32.32,0,0,0,.11.26.49.49,0,0,0,.25.11,1.61,1.61,0,0,0,.31,0h3.15c.35,0,.67,0,.94,0a2.17,2.17,0,0,0,.73-.19,1.58,1.58,0,0,0,.56-.45,3.92,3.92,0,0,0,.48-.81l.26.06Z"/><path class="cls-1" d="M285.93,66H277v-.2a1.14,1.14,0,0,0,.76-.17,1.29,1.29,0,0,0,.16-.79v-11a1.29,1.29,0,0,0-.16-.79A1.14,1.14,0,0,0,277,53v-.2h8.74l0,2h-.27q-.1-.74-.46-.91a2.6,2.6,0,0,0-1-.17h-4q-.33,0-.38.07a.84.84,0,0,0,0,.38v4.49h4a4.38,4.38,0,0,0,.55,0,.87.87,0,0,0,.38-.13.61.61,0,0,0,.22-.29,2.11,2.11,0,0,0,.12-.53h.25v3h-.25a2.16,2.16,0,0,0-.12-.55.68.68,0,0,0-.22-.3.81.81,0,0,0-.37-.14,4.56,4.56,0,0,0-.56,0h-4v5.12a.32.32,0,0,0,.11.26.49.49,0,0,0,.25.11,1.61,1.61,0,0,0,.31,0h3.52a5.87,5.87,0,0,0,.81,0,1.72,1.72,0,0,0,.62-.21,1.74,1.74,0,0,0,.49-.42,3.07,3.07,0,0,0,.41-.72h.31Z"/><path class="cls-1" d="M67.61,83.68v-.17l.46,0a.54.54,0,0,0,.27-.09.38.38,0,0,0,.13-.24,2.52,2.52,0,0,0,0-.47V73.38a2.54,2.54,0,0,0,0-.47.38.38,0,0,0-.13-.24.54.54,0,0,0-.27-.09l-.46,0V72.4h3.23v.17l-.46,0a.54.54,0,0,0-.27.09.38.38,0,0,0-.13.24,2.56,2.56,0,0,0,0,.47V82.7a2.54,2.54,0,0,0,0,.47.38.38,0,0,0,.13.24.54.54,0,0,0,.27.09l.46,0v.17Z"/><path class="cls-1" d="M77.95,83.68v-.13q.43,0,.52-.13a1.23,1.23,0,0,0,.08-.57V78.38a3.16,3.16,0,0,0-.08-.73,1.75,1.75,0,0,0-.27-.62,1.42,1.42,0,0,0-.49-.43,1.52,1.52,0,0,0-.72-.16,1.92,1.92,0,0,0-1.21.39,2.25,2.25,0,0,0-.74,1,1.94,1.94,0,0,0-.09.25,1,1,0,0,0-.06.25V82.9c0,.19,0,.34,0,.47s.13.18.35.18v.13H73.11v-.13c.28,0,.44,0,.49-.14a1.37,1.37,0,0,0,.07-.56V76.76a1.22,1.22,0,0,0,0-.36c0-.06-.06-.09-.1-.1l-.18,0a.57.57,0,0,1-.28,0v-.17l1.43-.5.32,0v1.47A4.41,4.41,0,0,1,75.92,76a2.57,2.57,0,0,1,1.51-.43,2.31,2.31,0,0,1,1.06.22,2,2,0,0,1,.72.61,2.7,2.7,0,0,1,.41.88,4.12,4.12,0,0,1,.13,1.07V82.9a1,1,0,0,0,.1.44.39.39,0,0,0,.38.21v.13Z"/><path class="cls-1" d="M82.48,84l0-2.22.13,0a1.77,1.77,0,0,0,.44.86,2.2,2.2,0,0,0,.73.52,2.28,2.28,0,0,0,.87.18,2.14,2.14,0,0,0,.83-.14,1.49,1.49,0,0,0,.62-.45,1.27,1.27,0,0,0,0-1.56,3.17,3.17,0,0,0-.72-.58,9.19,9.19,0,0,0-.93-.49,5.39,5.39,0,0,1-.93-.54,3,3,0,0,1-.72-.73,1.83,1.83,0,0,1-.29-1.06,2.08,2.08,0,0,1,.2-.92,1.92,1.92,0,0,1,.54-.67A2.49,2.49,0,0,1,84,75.7a3.11,3.11,0,0,1,.93-.14,3,3,0,0,1,.91.13,7.18,7.18,0,0,0,.89.22l.13-.27H87V77.5h-.12a2,2,0,0,0-.87-1,2.23,2.23,0,0,0-1.12-.31,1.57,1.57,0,0,0-1,.33,1.05,1.05,0,0,0-.41.88,1,1,0,0,0,.3.75,3.64,3.64,0,0,0,.74.56q.44.26,1,.51a5.93,5.93,0,0,1,1,.57,3.15,3.15,0,0,1,.74.77,1.87,1.87,0,0,1,.3,1.08,2,2,0,0,1-.75,1.63,2.53,2.53,0,0,1-.9.48,3.53,3.53,0,0,1-1,.15,4.51,4.51,0,0,1-.77-.07l-.77-.15-.27-.07-.27-.05s-.08.06-.12.19a1,1,0,0,1-.08.24Z"/><path class="cls-1" d="M93.48,83.4a2.38,2.38,0,0,1-.43.24,2.28,2.28,0,0,1-.47.15,2.19,2.19,0,0,1-.44,0,1.75,1.75,0,0,1-.86-.18,1.35,1.35,0,0,1-.51-.49,2,2,0,0,1-.25-.72,5.28,5.28,0,0,1-.07-.86V76.18H89.21v-.35l1.2-.08a3.4,3.4,0,0,0,.41-1,7,7,0,0,1,.33-1.05l.15-.07.17-.08a.22.22,0,0,1,.14,0s.06,0,.06.12v2.12h1.82v.43H91.66V81.6a3.41,3.41,0,0,0,0,.51,1.84,1.84,0,0,0,.15.51,1.08,1.08,0,0,0,.3.39.75.75,0,0,0,.49.16,2.24,2.24,0,0,0,.52-.06,1.54,1.54,0,0,0,.48-.21l.13.18A1,1,0,0,1,93.48,83.4Z"/><path class="cls-1" d="M95.51,83.68v-.13a1.08,1.08,0,0,0,.59-.11q.14-.11.14-.59v-6a1.16,1.16,0,0,0,0-.38.2.2,0,0,0-.13-.13.58.58,0,0,0-.22,0,1.09,1.09,0,0,1-.36,0V76.2l1.63-.57.32,0V82.9a1.74,1.74,0,0,0,0,.51c0,.09.18.14.43.14v.13ZM97.25,73.3a.71.71,0,0,1-1,0,.87.87,0,0,1,0-1.15.71.71,0,0,1,1,0,.87.87,0,0,1,0,1.15Z"/><path class="cls-1" d="M103.93,83.4a2.38,2.38,0,0,1-.43.24,2.28,2.28,0,0,1-.47.15,2.19,2.19,0,0,1-.44,0,1.75,1.75,0,0,1-.86-.18,1.35,1.35,0,0,1-.51-.49,2,2,0,0,1-.25-.72,5.28,5.28,0,0,1-.07-.86V76.18H99.66v-.35l1.2-.08a3.4,3.4,0,0,0,.41-1,7,7,0,0,1,.33-1.05l.15-.07.17-.08a.22.22,0,0,1,.14,0s.06,0,.06.12v2.12h1.82v.43h-1.82V81.6a3.41,3.41,0,0,0,0,.51,1.84,1.84,0,0,0,.15.51,1.08,1.08,0,0,0,.3.39.75.75,0,0,0,.49.16,2.24,2.24,0,0,0,.52-.06,1.54,1.54,0,0,0,.48-.21l.13.18A1,1,0,0,1,103.93,83.4Z"/><path class="cls-1" d="M111.81,83.75l-.15,0,0-1.45a4.14,4.14,0,0,1-1.08,1.17,2.56,2.56,0,0,1-1.51.42,2.17,2.17,0,0,1-1.81-.74,2.94,2.94,0,0,1-.59-1.89V76.46c0-.25,0-.42-.13-.48a.76.76,0,0,0-.46-.1v-.13h1.82l0,5.3a2.13,2.13,0,0,0,.27,1.13,1.51,1.51,0,0,0,.68.62,1.73,1.73,0,0,0,.89.13,2.16,2.16,0,0,0,.89-.3,2.06,2.06,0,0,0,.69-.69,1.92,1.92,0,0,0,.28-1V76.46q0-.42-.18-.5a1.28,1.28,0,0,0-.53-.08v-.13h1.93l0,7c0,.22,0,.36.12.4a.93.93,0,0,0,.41.07v.13Z"/><path class="cls-1" d="M119.38,83.4a2.38,2.38,0,0,1-.43.24,2.28,2.28,0,0,1-.47.15,2.19,2.19,0,0,1-.44,0,1.75,1.75,0,0,1-.86-.18,1.35,1.35,0,0,1-.51-.49,2,2,0,0,1-.25-.72,5.28,5.28,0,0,1-.07-.86V76.18h-1.25v-.35l1.2-.08a3.4,3.4,0,0,0,.41-1,7,7,0,0,1,.33-1.05l.15-.07.17-.08a.22.22,0,0,1,.14,0s.06,0,.06.12v2.12h1.82v.43h-1.82V81.6a3.41,3.41,0,0,0,0,.51,1.84,1.84,0,0,0,.15.51,1.08,1.08,0,0,0,.3.39.75.75,0,0,0,.49.16,2.24,2.24,0,0,0,.52-.06,1.54,1.54,0,0,0,.48-.21l.13.18A1,1,0,0,1,119.38,83.4Z"/><path class="cls-1" d="M127.87,82a3.69,3.69,0,0,1-1.41,1.38,3.86,3.86,0,0,1-1.82.47A3.65,3.65,0,0,1,121.4,82a4.43,4.43,0,0,1-.56-2.32,4.48,4.48,0,0,1,.56-2.33A3.68,3.68,0,0,1,122.81,76a3.73,3.73,0,0,1,5.06,1.41,4.44,4.44,0,0,1,.56,2.32A4.4,4.4,0,0,1,127.87,82Zm-1.14-4.2a3.14,3.14,0,0,0-.95-1.18,2.25,2.25,0,0,0-1.22-.44,1.91,1.91,0,0,0-1.2.34,2.68,2.68,0,0,0-.9,1.17,4.85,4.85,0,0,0-.33,2,4.35,4.35,0,0,0,.41,1.91,3.1,3.1,0,0,0,1,1.17,2.22,2.22,0,0,0,1.22.43,1.92,1.92,0,0,0,1.2-.36,2.79,2.79,0,0,0,.91-1.17,4.48,4.48,0,0,0,.32-2A4.55,4.55,0,0,0,126.73,77.82Z"/><path class="cls-1" d="M140.31,83.76V82.54a2.61,2.61,0,0,1-2.32,1.3,3.32,3.32,0,0,1-1.53-.32,2.89,2.89,0,0,1-1-.88,3.8,3.8,0,0,1-.59-1.28,6.05,6.05,0,0,1-.19-1.53,5.92,5.92,0,0,1,.21-1.57,4.19,4.19,0,0,1,.64-1.37,3.33,3.33,0,0,1,1.09-1,3.12,3.12,0,0,1,1.54-.37,2.5,2.5,0,0,1,2.18,1.15V73c0-.09,0-.19,0-.31a.21.21,0,0,0-.19-.21h-.2a.58.58,0,0,1-.22,0v-.17l.41-.11.61-.15.8-.17v10.9c0,.22.06.35.18.38a1.42,1.42,0,0,0,.46,0v.13Zm0-4.92a3.1,3.1,0,0,0-.32-1.48,2.3,2.3,0,0,0-.82-.91,1.89,1.89,0,0,0-2.12.08,2.57,2.57,0,0,0-.82,1.08,4.48,4.48,0,0,0-.32,1.82,5,5,0,0,0,.32,2,2.88,2.88,0,0,0,.82,1.16,2,2,0,0,0,2.12.25,2,2,0,0,0,.82-.75,2.26,2.26,0,0,0,.32-1.24Z"/><path class="cls-1" d="M145,79.33a5.81,5.81,0,0,0,.18,1.27,3.7,3.7,0,0,0,.48,1.12,2.44,2.44,0,0,0,.85.8,2.53,2.53,0,0,0,1.27.3,4.86,4.86,0,0,0,.67,0,4.11,4.11,0,0,0,.69-.16,2.61,2.61,0,0,0,.63-.3,1.55,1.55,0,0,0,.47-.49l.17.25a3.08,3.08,0,0,1-1.31,1.33,3.87,3.87,0,0,1-1.82.44,3.35,3.35,0,0,1-1.52-.32,2.91,2.91,0,0,1-1-.86,3.61,3.61,0,0,1-.6-1.27,6.11,6.11,0,0,1,0-3.1,4.27,4.27,0,0,1,.64-1.38,3.37,3.37,0,0,1,1.09-1,3.1,3.1,0,0,1,1.56-.38,2.88,2.88,0,0,1,1.37.3,2.65,2.65,0,0,1,.92.8,3.66,3.66,0,0,1,.54,1.15,7.57,7.57,0,0,1,.25,1.35l0,.17ZM149,77.81a2.79,2.79,0,0,0-.32-.76,1.66,1.66,0,0,0-.54-.55,1.55,1.55,0,0,0-.83-.21,2,2,0,0,0-.92.19,2,2,0,0,0-.65.52,2.6,2.6,0,0,0-.43.75,4.28,4.28,0,0,0-.22.89h4A4.79,4.79,0,0,0,149,77.81Z"/><path class="cls-1" d="M164.59,83.68H157v-.17a1,1,0,0,0,.65-.14,1.1,1.1,0,0,0,.13-.67V73.38a1.1,1.1,0,0,0-.13-.67,1,1,0,0,0-.65-.14V72.4h7.43l0,1.72h-.23q-.08-.63-.39-.78a2.22,2.22,0,0,0-.89-.14h-3.37c-.19,0-.3,0-.33.06a.73.73,0,0,0,0,.33V77.4h3.38l.47,0a.74.74,0,0,0,.32-.11.53.53,0,0,0,.19-.25,1.83,1.83,0,0,0,.1-.45h.22v2.52h-.22a1.86,1.86,0,0,0-.1-.47.58.58,0,0,0-.19-.26.68.68,0,0,0-.32-.12l-.48,0h-3.38v4.35a.27.27,0,0,0,.09.22.42.42,0,0,0,.22.09h3.26a5,5,0,0,0,.69,0,1.47,1.47,0,0,0,.53-.18,1.5,1.5,0,0,0,.42-.36,2.64,2.64,0,0,0,.35-.61H165Z"/><path class="cls-1" d="M166.79,84l0-2.22.13,0a1.77,1.77,0,0,0,.44.86,2.2,2.2,0,0,0,.73.52,2.28,2.28,0,0,0,.87.18,2.14,2.14,0,0,0,.83-.14,1.49,1.49,0,0,0,.62-.45,1.27,1.27,0,0,0,0-1.56,3.17,3.17,0,0,0-.72-.58,9.19,9.19,0,0,0-.93-.49,5.39,5.39,0,0,1-.93-.54,3,3,0,0,1-.72-.73,1.83,1.83,0,0,1-.29-1.06,2.08,2.08,0,0,1,.2-.92,1.92,1.92,0,0,1,.54-.67,2.49,2.49,0,0,1,.79-.41,3.11,3.11,0,0,1,.93-.14,3,3,0,0,1,.91.13,7.18,7.18,0,0,0,.89.22l.13-.27h.08V77.5h-.12a2,2,0,0,0-.87-1,2.23,2.23,0,0,0-1.12-.31,1.57,1.57,0,0,0-1,.33,1.05,1.05,0,0,0-.41.88,1,1,0,0,0,.3.75,3.64,3.64,0,0,0,.74.56q.44.26,1,.51a5.93,5.93,0,0,1,1,.57,3.15,3.15,0,0,1,.74.77,1.87,1.87,0,0,1,.3,1.08,2,2,0,0,1-.75,1.63,2.53,2.53,0,0,1-.9.48,3.53,3.53,0,0,1-1,.15,4.51,4.51,0,0,1-.77-.07l-.77-.15-.27-.07-.27-.05s-.08.06-.12.19a1,1,0,0,1-.08.24Z"/><path class="cls-1" d="M177.79,83.4a2.38,2.38,0,0,1-.43.24,2.28,2.28,0,0,1-.47.15,2.19,2.19,0,0,1-.44,0,1.75,1.75,0,0,1-.86-.18,1.35,1.35,0,0,1-.51-.49,2,2,0,0,1-.25-.72,5.28,5.28,0,0,1-.07-.86V76.18h-1.25v-.35l1.2-.08a3.4,3.4,0,0,0,.41-1,7,7,0,0,1,.33-1.05l.15-.07.17-.08a.22.22,0,0,1,.14,0s.06,0,.06.12v2.12h1.82v.43H176V81.6a3.41,3.41,0,0,0,0,.51,1.84,1.84,0,0,0,.15.51,1.08,1.08,0,0,0,.3.39.75.75,0,0,0,.49.16,2.24,2.24,0,0,0,.52-.06,1.54,1.54,0,0,0,.48-.21l.13.18A1,1,0,0,1,177.79,83.4Z"/><path class="cls-1" d="M185.68,83.75l-.15,0,0-1.45a4.14,4.14,0,0,1-1.08,1.17,2.56,2.56,0,0,1-1.51.42,2.17,2.17,0,0,1-1.81-.74,2.94,2.94,0,0,1-.59-1.89V76.46c0-.25,0-.42-.13-.48a.76.76,0,0,0-.46-.1v-.13h1.82l0,5.3a2.13,2.13,0,0,0,.27,1.13,1.51,1.51,0,0,0,.68.62,1.73,1.73,0,0,0,.89.13,2.16,2.16,0,0,0,.89-.3,2.06,2.06,0,0,0,.69-.69,1.92,1.92,0,0,0,.28-1V76.46q0-.42-.18-.5a1.28,1.28,0,0,0-.53-.08v-.13h1.93l0,7c0,.22,0,.36.12.4a.93.93,0,0,0,.41.07v.13Z"/><path class="cls-1" d="M194.76,83.76V82.54a2.61,2.61,0,0,1-2.32,1.3,3.32,3.32,0,0,1-1.53-.32,2.89,2.89,0,0,1-1-.88,3.8,3.8,0,0,1-.59-1.28,6.05,6.05,0,0,1-.19-1.53,5.92,5.92,0,0,1,.21-1.57,4.19,4.19,0,0,1,.64-1.37,3.33,3.33,0,0,1,1.09-1,3.12,3.12,0,0,1,1.54-.37,2.5,2.5,0,0,1,2.18,1.15V73c0-.09,0-.19,0-.31a.21.21,0,0,0-.19-.21h-.2a.58.58,0,0,1-.22,0v-.17l.41-.11.61-.15.8-.17v10.9c0,.22.06.35.18.38a1.42,1.42,0,0,0,.46,0v.13Zm0-4.92a3.1,3.1,0,0,0-.32-1.48,2.3,2.3,0,0,0-.82-.91,1.89,1.89,0,0,0-2.12.08,2.57,2.57,0,0,0-.82,1.08,4.48,4.48,0,0,0-.32,1.82,5,5,0,0,0,.32,2,2.88,2.88,0,0,0,.82,1.16,2,2,0,0,0,2.12.25,2,2,0,0,0,.82-.75,2.26,2.26,0,0,0,.32-1.24Z"/><path class="cls-1" d="M198.37,83.68v-.13a1.08,1.08,0,0,0,.59-.11q.14-.11.14-.59v-6a1.16,1.16,0,0,0,0-.38.2.2,0,0,0-.13-.13.58.58,0,0,0-.22,0,1.09,1.09,0,0,1-.36,0V76.2l1.63-.57.32,0V82.9a1.74,1.74,0,0,0,0,.51c0,.09.18.14.43.14v.13Zm1.73-10.37a.71.71,0,0,1-1,0,.87.87,0,0,1,0-1.15.71.71,0,0,1,1,0,.87.87,0,0,1,0,1.15Z"/><path class="cls-1" d="M209.43,82A3.69,3.69,0,0,1,208,83.4a3.86,3.86,0,0,1-1.82.47A3.65,3.65,0,0,1,203,82a4.43,4.43,0,0,1-.56-2.32,4.48,4.48,0,0,1,.56-2.33A3.68,3.68,0,0,1,204.37,76a3.73,3.73,0,0,1,5.06,1.41,4.44,4.44,0,0,1,.56,2.32A4.4,4.4,0,0,1,209.43,82Zm-1.14-4.2a3.14,3.14,0,0,0-.95-1.18,2.25,2.25,0,0,0-1.22-.44,1.91,1.91,0,0,0-1.2.34,2.68,2.68,0,0,0-.9,1.17,4.85,4.85,0,0,0-.33,2,4.35,4.35,0,0,0,.41,1.91,3.1,3.1,0,0,0,1,1.17,2.22,2.22,0,0,0,1.22.43,1.92,1.92,0,0,0,1.2-.36,2.79,2.79,0,0,0,.91-1.17,4.48,4.48,0,0,0,.32-2A4.55,4.55,0,0,0,208.29,77.82Z"/><path class="cls-1" d="M212,84l0-2.22.13,0a1.77,1.77,0,0,0,.44.86,2.2,2.2,0,0,0,.73.52,2.28,2.28,0,0,0,.87.18,2.14,2.14,0,0,0,.83-.14,1.49,1.49,0,0,0,.62-.45,1.27,1.27,0,0,0,0-1.56,3.17,3.17,0,0,0-.72-.58A9.19,9.19,0,0,0,214,80a5.39,5.39,0,0,1-.93-.54,3,3,0,0,1-.72-.73,1.83,1.83,0,0,1-.29-1.06,2.08,2.08,0,0,1,.2-.92,1.92,1.92,0,0,1,.54-.67,2.49,2.49,0,0,1,.79-.41,3.11,3.11,0,0,1,.93-.14,3,3,0,0,1,.91.13,7.18,7.18,0,0,0,.89.22l.13-.27h.08V77.5h-.12a2,2,0,0,0-.87-1,2.23,2.23,0,0,0-1.12-.31,1.57,1.57,0,0,0-1,.33,1.05,1.05,0,0,0-.41.88,1,1,0,0,0,.3.75,3.64,3.64,0,0,0,.74.56q.44.26,1,.51a5.93,5.93,0,0,1,1,.57,3.15,3.15,0,0,1,.74.77,1.87,1.87,0,0,1,.3,1.08,2,2,0,0,1-.75,1.63,2.53,2.53,0,0,1-.9.48,3.53,3.53,0,0,1-1,.15,4.51,4.51,0,0,1-.77-.07l-.77-.15-.27-.07-.27-.05s-.08.06-.12.19a1,1,0,0,1-.08.24Z"/><path class="cls-1" d="M223.47,83.68v-.17l.46,0a.54.54,0,0,0,.27-.09.38.38,0,0,0,.13-.24,2.52,2.52,0,0,0,0-.47V73.38a2.54,2.54,0,0,0,0-.47.38.38,0,0,0-.13-.24.54.54,0,0,0-.27-.09l-.46,0V72.4h3.23v.17l-.46,0a.54.54,0,0,0-.27.09.38.38,0,0,0-.13.24,2.56,2.56,0,0,0,0,.47V82.7a2.54,2.54,0,0,0,0,.47.38.38,0,0,0,.13.24.54.54,0,0,0,.27.09l.46,0v.17Z"/><path class="cls-1" d="M233.81,83.68v-.13q.43,0,.52-.13a1.23,1.23,0,0,0,.08-.57V78.38a3.16,3.16,0,0,0-.08-.73A1.75,1.75,0,0,0,234,77a1.42,1.42,0,0,0-.49-.43,1.52,1.52,0,0,0-.72-.16,1.92,1.92,0,0,0-1.21.39,2.25,2.25,0,0,0-.74,1,1.94,1.94,0,0,0-.09.25,1,1,0,0,0-.06.25V82.9c0,.19,0,.34,0,.47s.13.18.35.18v.13H229v-.13c.28,0,.44,0,.49-.14a1.37,1.37,0,0,0,.07-.56V76.76a1.22,1.22,0,0,0,0-.36c0-.06-.06-.09-.1-.1l-.18,0a.57.57,0,0,1-.28,0v-.17l1.43-.5.32,0v1.47A4.41,4.41,0,0,1,231.78,76a2.57,2.57,0,0,1,1.51-.43,2.31,2.31,0,0,1,1.06.22,2,2,0,0,1,.72.61,2.7,2.7,0,0,1,.41.88,4.12,4.12,0,0,1,.13,1.07V82.9a1,1,0,0,0,.1.44.39.39,0,0,0,.38.21v.13Z"/><path class="cls-1" d="M241.46,83.4a2.38,2.38,0,0,1-.43.24,2.28,2.28,0,0,1-.47.15,2.19,2.19,0,0,1-.44,0,1.75,1.75,0,0,1-.86-.18,1.35,1.35,0,0,1-.51-.49,2,2,0,0,1-.25-.72,5.28,5.28,0,0,1-.07-.86V76.18h-1.25v-.35l1.2-.08a3.4,3.4,0,0,0,.41-1,7,7,0,0,1,.33-1.05l.15-.07.17-.08a.22.22,0,0,1,.14,0s.06,0,.06.12v2.12h1.82v.43h-1.82V81.6a3.41,3.41,0,0,0,0,.51,1.84,1.84,0,0,0,.15.51,1.08,1.08,0,0,0,.3.39.75.75,0,0,0,.49.16,2.24,2.24,0,0,0,.52-.06,1.54,1.54,0,0,0,.48-.21l.13.18A1,1,0,0,1,241.46,83.4Z"/><path class="cls-1" d="M244.19,79.33a5.81,5.81,0,0,0,.18,1.27,3.7,3.7,0,0,0,.48,1.12,2.44,2.44,0,0,0,.85.8,2.53,2.53,0,0,0,1.27.3,4.86,4.86,0,0,0,.67,0,4.11,4.11,0,0,0,.69-.16,2.61,2.61,0,0,0,.63-.3,1.55,1.55,0,0,0,.47-.49l.17.25a3.08,3.08,0,0,1-1.31,1.33,3.87,3.87,0,0,1-1.82.44,3.35,3.35,0,0,1-1.52-.32,2.91,2.91,0,0,1-1-.86,3.61,3.61,0,0,1-.6-1.27,6.11,6.11,0,0,1,0-3.1,4.27,4.27,0,0,1,.64-1.38,3.37,3.37,0,0,1,1.09-1,3.1,3.1,0,0,1,1.56-.38,2.88,2.88,0,0,1,1.37.3,2.65,2.65,0,0,1,.92.8,3.66,3.66,0,0,1,.54,1.15,7.57,7.57,0,0,1,.25,1.35l0,.17Zm3.94-1.52a2.79,2.79,0,0,0-.32-.76,1.66,1.66,0,0,0-.54-.55,1.55,1.55,0,0,0-.83-.21,2,2,0,0,0-.92.19,2,2,0,0,0-.65.52,2.6,2.6,0,0,0-.43.75,4.28,4.28,0,0,0-.22.89h4A4.79,4.79,0,0,0,248.13,77.81Z"/><path class="cls-1" d="M253.7,83.68H251v-.13a.8.8,0,0,0,.55-.13.93.93,0,0,0,.12-.57V76.76a1.45,1.45,0,0,0,0-.38.16.16,0,0,0-.11-.13h-.2a1,1,0,0,1-.31,0v-.08l1.48-.5.32,0v1.68a5.17,5.17,0,0,1,.36-.63,3.35,3.35,0,0,1,.47-.57,2.23,2.23,0,0,1,.58-.41,1.64,1.64,0,0,1,.72-.16,1.07,1.07,0,0,1,.49.13.51.51,0,0,1,.29.42c0,.06,0,.13,0,.22a1,1,0,0,1-.06.27,1,1,0,0,1-.13.26.46.46,0,0,1-.22.17.22.22,0,0,1-.26-.06,1.56,1.56,0,0,1-.17-.26,2.51,2.51,0,0,0-.19-.29.35.35,0,0,0-.29-.14.7.7,0,0,0-.36.12,2.44,2.44,0,0,0-.37.28,3.26,3.26,0,0,0-.33.35,3.13,3.13,0,0,0-.23.32,1.32,1.32,0,0,0-.23.75v4.8a1.35,1.35,0,0,0,0,.38.33.33,0,0,0,.13.19.5.5,0,0,0,.24.07h.38Z"/><path class="cls-1" d="M262.6,83.68v-.13q.43,0,.52-.13a1.23,1.23,0,0,0,.08-.57V78.38a3.16,3.16,0,0,0-.08-.73,1.75,1.75,0,0,0-.27-.62,1.42,1.42,0,0,0-.49-.43,1.52,1.52,0,0,0-.72-.16,1.92,1.92,0,0,0-1.21.39,2.25,2.25,0,0,0-.74,1,1.94,1.94,0,0,0-.09.25,1,1,0,0,0-.06.25V82.9c0,.19,0,.34,0,.47s.13.18.35.18v.13h-2.13v-.13c.28,0,.44,0,.49-.14a1.37,1.37,0,0,0,.07-.56V76.76a1.22,1.22,0,0,0,0-.36c0-.06-.06-.09-.1-.1l-.18,0a.57.57,0,0,1-.28,0v-.17l1.43-.5.32,0v1.47A4.41,4.41,0,0,1,260.58,76a2.57,2.57,0,0,1,1.51-.43,2.31,2.31,0,0,1,1.06.22,2,2,0,0,1,.72.61,2.7,2.7,0,0,1,.41.88,4.12,4.12,0,0,1,.13,1.07V82.9a1,1,0,0,0,.1.44.39.39,0,0,0,.38.21v.13Z"/><path class="cls-1" d="M273,83.31a4.39,4.39,0,0,1-.77.39.85.85,0,0,1-.58,0,.66.66,0,0,1-.37-.38,2.42,2.42,0,0,1-.15-.88,4.3,4.3,0,0,1-1.13,1,2.72,2.72,0,0,1-1.43.39,2.59,2.59,0,0,1-.87-.14,2,2,0,0,1-1.18-1.08,2.06,2.06,0,0,1-.17-.87,2,2,0,0,1,.18-.87,2.15,2.15,0,0,1,.48-.65,3.22,3.22,0,0,1,.7-.48q.4-.21.83-.39a5.85,5.85,0,0,1,1.32-.43,9.43,9.43,0,0,0,1.22-.31v-.82a1.44,1.44,0,0,0-.18-.73,1.58,1.58,0,0,0-.47-.52,2.13,2.13,0,0,0-.67-.3,2.85,2.85,0,0,0-.74-.1,1.44,1.44,0,0,0-.43.08,3.3,3.3,0,0,0-.47.19,4.25,4.25,0,0,0-.45.26l-.38.26-.15-.1.33-.34a3.59,3.59,0,0,1,.35-.29,3.47,3.47,0,0,1,.88-.5,2.77,2.77,0,0,1,1-.17,2.67,2.67,0,0,1,1.92.63,2.54,2.54,0,0,1,.66,1.92V82.2q0,.08,0,.25a2.6,2.6,0,0,0,0,.35,1.15,1.15,0,0,0,.1.32.2.2,0,0,0,.18.13.61.61,0,0,0,.22,0,.62.62,0,0,0,.21-.13Zm-2.95-3.77-.81.23a3.51,3.51,0,0,0-.79.36,2,2,0,0,0-.6.55,1.36,1.36,0,0,0-.23.81,1.43,1.43,0,0,0,.26.9,1.31,1.31,0,0,0,.64.46,1.8,1.8,0,0,0,.83.06,2.3,2.3,0,0,0,.83-.29,2.06,2.06,0,0,0,.64-.59,1.44,1.44,0,0,0,.26-.85v-1.9Z"/><path class="cls-1" d="M278.2,83.85a3.5,3.5,0,0,1-1.55-.32,3.19,3.19,0,0,1-1.11-.88,3.79,3.79,0,0,1-.67-1.28,5.24,5.24,0,0,1-.22-1.55,5.18,5.18,0,0,1,.26-1.63,3.85,3.85,0,0,1,.84-1.42,4,4,0,0,1,.92-.71,3.9,3.9,0,0,1,1.09-.42,3.68,3.68,0,0,1,1.16-.07,3.2,3.2,0,0,1,1.12.32,1.5,1.5,0,0,1,.33.28,1.59,1.59,0,0,1,.28.4.66.66,0,0,1,.07.4c0,.13-.13.22-.32.29a.24.24,0,0,1-.31-.08l-.23-.37a1.4,1.4,0,0,0-.43-.4,1.71,1.71,0,0,0-.89-.18,2.57,2.57,0,0,0-1.21.27,2.43,2.43,0,0,0-.84.72,3.17,3.17,0,0,0-.5,1,4.46,4.46,0,0,0,0,2.47,3.8,3.8,0,0,0,.53,1.12,2.75,2.75,0,0,0,.88.81,2.37,2.37,0,0,0,1.22.31,3,3,0,0,0,.59-.07,3.38,3.38,0,0,0,.64-.2,2.76,2.76,0,0,0,.58-.33,1.38,1.38,0,0,0,.4-.45l.12.3A3,3,0,0,1,278.2,83.85Z"/><path class="cls-1" d="M282.29,83.68v-.13a1.08,1.08,0,0,0,.59-.11q.14-.11.14-.59v-6a1.16,1.16,0,0,0,0-.38.2.2,0,0,0-.13-.13.58.58,0,0,0-.22,0,1.09,1.09,0,0,1-.36,0V76.2l1.63-.57.32,0V82.9a1.74,1.74,0,0,0,0,.51c0,.09.18.14.43.14v.13ZM284,73.3a.71.71,0,0,1-1,0,.87.87,0,0,1,0-1.15.71.71,0,0,1,1,0,.87.87,0,0,1,0,1.15Z"/><path class="cls-1" d="M293.34,82a3.69,3.69,0,0,1-1.41,1.38,3.86,3.86,0,0,1-1.82.47A3.65,3.65,0,0,1,286.88,82a4.43,4.43,0,0,1-.56-2.32,4.48,4.48,0,0,1,.56-2.33A3.68,3.68,0,0,1,288.29,76a3.73,3.73,0,0,1,5.06,1.41,4.44,4.44,0,0,1,.56,2.32A4.4,4.4,0,0,1,293.34,82Zm-1.14-4.2a3.14,3.14,0,0,0-.95-1.18A2.25,2.25,0,0,0,290,76.2a1.91,1.91,0,0,0-1.2.34,2.68,2.68,0,0,0-.9,1.17,4.85,4.85,0,0,0-.33,2,4.35,4.35,0,0,0,.41,1.91,3.1,3.1,0,0,0,1,1.17,2.22,2.22,0,0,0,1.22.43,1.92,1.92,0,0,0,1.2-.36,2.79,2.79,0,0,0,.91-1.17,4.48,4.48,0,0,0,.32-2A4.55,4.55,0,0,0,292.2,77.82Z"/><path class="cls-1" d="M300.59,83.68v-.13q.43,0,.52-.13a1.23,1.23,0,0,0,.08-.57V78.38a3.16,3.16,0,0,0-.08-.73,1.75,1.75,0,0,0-.27-.62,1.42,1.42,0,0,0-.49-.43,1.52,1.52,0,0,0-.72-.16,1.92,1.92,0,0,0-1.21.39,2.25,2.25,0,0,0-.74,1,1.94,1.94,0,0,0-.09.25,1,1,0,0,0-.06.25V82.9c0,.19,0,.34,0,.47s.13.18.35.18v.13h-2.13v-.13c.28,0,.44,0,.49-.14a1.37,1.37,0,0,0,.07-.56V76.76a1.22,1.22,0,0,0,0-.36c0-.06-.06-.09-.1-.1l-.18,0a.57.57,0,0,1-.28,0v-.17l1.43-.5.32,0v1.47A4.41,4.41,0,0,1,298.56,76a2.57,2.57,0,0,1,1.51-.43,2.31,2.31,0,0,1,1.06.22,2,2,0,0,1,.72.61,2.7,2.7,0,0,1,.41.88,4.12,4.12,0,0,1,.13,1.07V82.9a1,1,0,0,0,.1.44.39.39,0,0,0,.38.21v.13Z"/><path class="cls-1" d="M311,83.31a4.39,4.39,0,0,1-.77.39.85.85,0,0,1-.58,0,.66.66,0,0,1-.37-.38,2.42,2.42,0,0,1-.15-.88,4.3,4.3,0,0,1-1.13,1,2.72,2.72,0,0,1-1.43.39,2.59,2.59,0,0,1-.87-.14,2,2,0,0,1-1.18-1.08,2.06,2.06,0,0,1-.17-.87,2,2,0,0,1,.18-.87,2.15,2.15,0,0,1,.48-.65,3.22,3.22,0,0,1,.7-.48q.4-.21.83-.39a5.85,5.85,0,0,1,1.32-.43,9.43,9.43,0,0,0,1.22-.31v-.82a1.44,1.44,0,0,0-.18-.73,1.58,1.58,0,0,0-.47-.52,2.13,2.13,0,0,0-.67-.3,2.85,2.85,0,0,0-.74-.1,1.44,1.44,0,0,0-.43.08,3.3,3.3,0,0,0-.47.19,4.25,4.25,0,0,0-.45.26l-.38.26-.15-.1.33-.34a3.59,3.59,0,0,1,.35-.29,3.47,3.47,0,0,1,.88-.5,2.77,2.77,0,0,1,1-.17,2.67,2.67,0,0,1,1.92.63,2.54,2.54,0,0,1,.66,1.92V82.2q0,.08,0,.25a2.6,2.6,0,0,0,0,.35,1.15,1.15,0,0,0,.1.32.2.2,0,0,0,.18.13.61.61,0,0,0,.22,0,.62.62,0,0,0,.21-.13ZM308,79.55l-.81.23a3.51,3.51,0,0,0-.79.36,2,2,0,0,0-.6.55,1.36,1.36,0,0,0-.23.81,1.43,1.43,0,0,0,.26.9,1.31,1.31,0,0,0,.64.46,1.8,1.8,0,0,0,.83.06,2.3,2.3,0,0,0,.83-.29,2.06,2.06,0,0,0,.64-.59,1.44,1.44,0,0,0,.26-.85v-1.9Z"/><path class="cls-1" d="M313.09,83.68v-.13a1.08,1.08,0,0,0,.59-.11q.14-.11.14-.59v-10a1.46,1.46,0,0,0,0-.37.18.18,0,0,0-.12-.14.53.53,0,0,0-.23,0l-.36,0V72l.4-.12.59-.16.58-.12a1,1,0,0,1,.38,0V82.9a.56.56,0,0,0,.22.51,1.08,1.08,0,0,0,.6.14v.13Z"/><path class="cls-1" d="M318.52,79.33a5.81,5.81,0,0,0,.18,1.27,3.7,3.7,0,0,0,.48,1.12,2.44,2.44,0,0,0,.85.8,2.53,2.53,0,0,0,1.27.3,4.86,4.86,0,0,0,.67,0,4.11,4.11,0,0,0,.69-.16,2.61,2.61,0,0,0,.63-.3,1.55,1.55,0,0,0,.47-.49l.17.25a3.08,3.08,0,0,1-1.31,1.33,3.87,3.87,0,0,1-1.82.44,3.35,3.35,0,0,1-1.52-.32,2.91,2.91,0,0,1-1-.86,3.61,3.61,0,0,1-.6-1.27,6.11,6.11,0,0,1,0-3.1,4.27,4.27,0,0,1,.64-1.38,3.37,3.37,0,0,1,1.09-1,3.1,3.1,0,0,1,1.56-.38,2.88,2.88,0,0,1,1.37.3,2.65,2.65,0,0,1,.92.8,3.66,3.66,0,0,1,.54,1.15,7.57,7.57,0,0,1,.25,1.35l0,.17Zm3.94-1.52a2.79,2.79,0,0,0-.32-.76,1.66,1.66,0,0,0-.54-.55,1.55,1.55,0,0,0-.83-.21,2,2,0,0,0-.92.19,2,2,0,0,0-.65.52,2.6,2.6,0,0,0-.43.75,4.28,4.28,0,0,0-.22.89h4A4.79,4.79,0,0,0,322.46,77.81Z"/><path class="cls-1" d="M326,84l0-2.22.13,0a1.77,1.77,0,0,0,.44.86,2.2,2.2,0,0,0,.73.52,2.28,2.28,0,0,0,.87.18,2.14,2.14,0,0,0,.83-.14,1.49,1.49,0,0,0,.62-.45,1.27,1.27,0,0,0,0-1.56,3.17,3.17,0,0,0-.72-.58,9.19,9.19,0,0,0-.93-.49,5.39,5.39,0,0,1-.93-.54,3,3,0,0,1-.72-.73,1.83,1.83,0,0,1-.29-1.06,2.08,2.08,0,0,1,.2-.92,1.92,1.92,0,0,1,.54-.67,2.49,2.49,0,0,1,.79-.41,3.11,3.11,0,0,1,.93-.14,3,3,0,0,1,.91.13,7.18,7.18,0,0,0,.89.22l.13-.27h.08V77.5h-.12a2,2,0,0,0-.87-1,2.23,2.23,0,0,0-1.12-.31,1.57,1.57,0,0,0-1,.33,1.05,1.05,0,0,0-.41.88,1,1,0,0,0,.3.75,3.64,3.64,0,0,0,.74.56q.44.26,1,.51a5.93,5.93,0,0,1,1,.57,3.15,3.15,0,0,1,.74.77,1.87,1.87,0,0,1,.3,1.08,2,2,0,0,1-.75,1.63,2.53,2.53,0,0,1-.9.48,3.53,3.53,0,0,1-1,.15,4.51,4.51,0,0,1-.77-.07l-.77-.15-.27-.07-.27-.05s-.08.06-.12.19a1,1,0,0,1-.08.24Z"/><rect class="cls-1" x="56.27" y="38.09" width="1.96" height="60.06"/></g></g></svg>