<svg xmlns="http://www.w3.org/2000/svg" viewBox="0 0 473.81 307.13"><g id="Layer_2" data-name="Layer 2"><g id="Capa_1" data-name="Capa 1"><path d="M166.46,118.06a3.37,3.37,0,0,1,.83.1c.49.12.76.57.81,1.34,0,.52.05,2.22.05,5.07v4.22c0,2.77,0,4.52-.12,5.23s-.31,1.1-.7,1.18l-.71.07c-.35,0-.53.11-.53.22s.16.24.48.24.9,0,1.66,0l1.35,0,1.53,0c.87,0,1.6,0,2.21,0,.3,0,.46-.08.46-.24s-.13-.19-.38-.19a8,8,0,0,1-1.21-.1c-.57-.08-.89-.47-.95-1.17s-.1-2.39-.1-5.24v-4.22c0-2.85,0-4.55.05-5.07.05-.82.34-1.27.88-1.37a3.93,3.93,0,0,1,.74-.07c.23,0,.34-.08.34-.24s-.17-.19-.5-.19l-1.58,0-1.34,0-1.47,0-1.64,0c-.39,0-.58.06-.58.19S166.18,118.06,166.46,118.06Z" fill="#1f437d"/><path d="M186.3,135.73c.49,0,1,0,1.67,0l.91,0,1.08,0c.65,0,1.28,0,1.89,0,.37,0,.55-.08.55-.24s-.24-.18-.72-.24a9,9,0,0,1-.93-.12c-.51-.18-.79-1.06-.84-2.66l-.26-10h.07l2,2.22q2,2.2,3.66,3.81,4.76,4.77,7.06,7c.37.35.64.53.82.53s.29-.25.31-.75l.26-15.1a6.28,6.28,0,0,1,.14-1.32c.18-.53.66-.79,1.46-.79.29,0,.43-.07.43-.22s-.18-.21-.55-.21l-1.5,0-.84,0-1.18,0-1.72,0c-.42,0-.62.07-.62.21s.13.22.38.22a4,4,0,0,1,1.27.14,1.31,1.31,0,0,1,.72.94,7.9,7.9,0,0,1,.1,1.22l.23,10.75h-.12l-5.26-5.46q-5.46-5.58-7.42-7.69c-.47-.49-.76-.74-.89-.74s-.3.27-.31.82L188,132.21a13.12,13.12,0,0,1-.14,2.2,1,1,0,0,1-.6.77l-.84.09c-.41,0-.62.11-.62.22S186,135.73,186.3,135.73Z" fill="#1f437d"/><path d="M219.48,135.44a8.55,8.55,0,0,0,3.49.62,6.78,6.78,0,0,0,3.81-1,4.67,4.67,0,0,0,2.25-4.16,5.51,5.51,0,0,0-.89-3.1,12.79,12.79,0,0,0-3-3l-.67-.5a9.07,9.07,0,0,1-2-1.86,2.68,2.68,0,0,1-.54-1.59,2.26,2.26,0,0,1,.76-1.78,3,3,0,0,1,2.09-.68,3.17,3.17,0,0,1,2.61,1.17,2.58,2.58,0,0,1,.62,1.58c0,.29.08.43.24.43s.26-.24.26-.72c0-.75,0-1.42.05-2s.05-.88.05-.85c0-.13-.12-.22-.34-.29a13.09,13.09,0,0,0-3.18-.41,6.09,6.09,0,0,0-4,1.27,4,4,0,0,0-1.53,3.26q0,2.9,3.54,5.67l1.1.86q2.36,1.85,2.35,3.83a2.52,2.52,0,0,1-.79,1.85,3.34,3.34,0,0,1-2.42.88,3.2,3.2,0,0,1-3.42-2.41,4.21,4.21,0,0,1-.22-1.22c0-.28-.08-.41-.24-.41s-.26.21-.29.62c-.08,1.23-.12,2.28-.12,3.14A.78.78,0,0,0,219.48,135.44Z" fill="#1f437d"/><path d="M247.52,119v9.82c0,2.69,0,4.39-.13,5.09s-.32,1.24-.69,1.32l-.72.07c-.35,0-.52.11-.52.22s.16.24.48.24.9,0,1.66,0l1.35,0,1.53,0c.88,0,1.62,0,2.23,0,.3,0,.46-.08.46-.24s-.13-.19-.39-.19a8.19,8.19,0,0,1-1.22-.1q-.8-.12-.93-1.29c-.08-.7-.12-2.41-.12-5.12V119l3,.07c1.81,0,2.75.5,2.83,1.34l0,.27c0,.32.12.47.27.47s.17-.11.19-.35l.06-1.45c0-.73,0-1.18,0-1.34,0-.33-.06-.49-.19-.49l-.64.1a11.53,11.53,0,0,1-1.66.11H245c-.73,0-1.53,0-2.39-.12a2.12,2.12,0,0,1-.65-.15,1.51,1.51,0,0,0-.38-.14c-.11,0-.21.16-.29.46a16,16,0,0,0-.5,2.75c0,.26.07.39.22.39s.21-.1.26-.29a2.49,2.49,0,0,1,.41-.84c.28-.43,1.06-.66,2.32-.69Z" fill="#1f437d"/><path d="M273.92,119.5c.05-.82.34-1.27.88-1.37a4,4,0,0,1,.74-.07c.23,0,.35-.08.35-.24s-.17-.19-.51-.19l-1.58,0-1.34,0-1.47,0-1.64,0c-.38,0-.58.06-.58.19s.14.24.42.24a3.31,3.31,0,0,1,.83.1c.49.12.77.57.81,1.34,0,.52.05,2.22.05,5.07v4.22c0,2.77,0,4.52-.12,5.23s-.31,1.1-.69,1.18l-.72.07c-.35,0-.53.11-.53.22s.16.24.48.24.91,0,1.66,0l1.36,0,1.52,0c.87,0,1.61,0,2.21,0,.31,0,.46-.08.46-.24s-.13-.19-.38-.19a8.07,8.07,0,0,1-1.21-.1c-.57-.08-.89-.47-.95-1.17s-.1-2.39-.1-5.24v-4.22C273.87,121.72,273.89,120,273.92,119.5Z" fill="#1f437d"/><path d="M300.5,119c1.8,0,2.74.5,2.82,1.34l0,.27c0,.32.12.47.26.47s.17-.11.19-.35,0-.72.06-1.45,0-1.18,0-1.34c0-.33-.07-.49-.2-.49l-.64.1a11.49,11.49,0,0,1-1.65.11h-9.48q-1.11,0-2.4-.12a2,2,0,0,1-.64-.15,1.67,1.67,0,0,0-.39-.14c-.11,0-.21.16-.28.46a15.37,15.37,0,0,0-.51,2.75c0,.26.07.39.22.39s.21-.1.26-.29a2.49,2.49,0,0,1,.41-.84c.29-.43,1.06-.66,2.32-.69l3.57-.1v9.82c0,2.69,0,4.39-.12,5.09s-.33,1.24-.7,1.32l-.71.07c-.36,0-.53.11-.53.22s.16.24.48.24.9,0,1.66,0l1.35,0,1.54,0c.87,0,1.62,0,2.22,0,.31,0,.46-.08.46-.24s-.13-.19-.39-.19a8.29,8.29,0,0,1-1.22-.1q-.78-.12-.93-1.29c-.08-.7-.12-2.41-.12-5.12V119Z" fill="#1f437d"/><path d="M320,119.5c.05-.82.34-1.27.89-1.37a3.82,3.82,0,0,1,.69-.07c.26,0,.38-.07.38-.22s-.17-.21-.52-.21l-1.57,0-1.38,0-1.54,0-2,0c-.35,0-.53.07-.53.21s.14.22.41.22a4.5,4.5,0,0,1,.93.07,1.31,1.31,0,0,1,1,1.37c0,.52.05,2.22.05,5.07v3.5q0,4.43,2.13,6.34a7.65,7.65,0,0,0,5.32,1.65,7.41,7.41,0,0,0,5-1.72,6.19,6.19,0,0,0,1.89-3.26,16.82,16.82,0,0,0,.38-4v-2.56c0-2.85,0-4.55.05-5.07,0-.82.34-1.27.88-1.37a3.84,3.84,0,0,1,.7-.07c.28,0,.43-.07.43-.22s-.17-.21-.5-.21l-1.61,0-1.12,0c-1.14,0-2.06-.07-2.76-.07-.33,0-.5.07-.5.21s.13.22.41.22a4.14,4.14,0,0,1,.86.07,1.31,1.31,0,0,1,1,1.37c0,.53.05,2.22.05,5.08v3a22.82,22.82,0,0,1-.19,3.4,4.73,4.73,0,0,1-1.2,2.54,4.46,4.46,0,0,1-3.31,1.3,4.6,4.6,0,0,1-3-1c-1.24-1-1.87-3-1.87-5.9v-3.36C319.91,121.72,319.93,120,320,119.5Z" fill="#1f437d"/><path d="M357.05,119c1.8,0,2.74.5,2.82,1.34l0,.27c0,.32.11.47.26.47s.17-.11.19-.35,0-.72.06-1.45,0-1.18,0-1.34c0-.33-.07-.49-.2-.49l-.64.1a11.49,11.49,0,0,1-1.65.11h-9.49c-.73,0-1.53,0-2.39-.12a2.12,2.12,0,0,1-.65-.15,1.51,1.51,0,0,0-.38-.14c-.11,0-.21.16-.29.46a16,16,0,0,0-.5,2.75c0,.26.07.39.22.39s.21-.1.26-.29a2.49,2.49,0,0,1,.41-.84c.28-.43,1.06-.66,2.32-.69L351,119v9.82c0,2.69,0,4.39-.12,5.09s-.33,1.24-.7,1.32l-.71.07c-.36,0-.53.11-.53.22s.16.24.48.24.9,0,1.66,0l1.35,0,1.54,0c.87,0,1.62,0,2.22,0,.3,0,.46-.08.46-.24s-.13-.19-.39-.19a8.19,8.19,0,0,1-1.22-.1q-.78-.12-.93-1.29c-.08-.7-.12-2.41-.12-5.12V119Z" fill="#1f437d"/><path d="M391.35,126.25a8.47,8.47,0,0,0-2.6-6.54,10,10,0,0,0-7.07-2.42,9.54,9.54,0,0,0-7.64,3.16,9.37,9.37,0,0,0,7.4,15.61,9.47,9.47,0,0,0,9.91-9.81Zm-5.5,7.35a4.89,4.89,0,0,1-3.4,1.27,6.5,6.5,0,0,1-5.39-2.61,9.84,9.84,0,0,1-2-6.32c0-2.72.64-4.71,1.91-6a5.41,5.41,0,0,1,4-1.51,6.24,6.24,0,0,1,5,2.33,9.63,9.63,0,0,1,2,6.36C388,130.15,387.28,132.3,385.85,133.6Z" fill="#1f437d"/><path d="M420.92,118.06a4.67,4.67,0,0,1,.94.07,1.31,1.31,0,0,1,1,1.37c0,.52.05,2.22.05,5.07v4.22c0,2.77,0,4.47-.12,5.09q-.13,1.2-.69,1.32l-.72.07c-.35,0-.53.11-.53.22s.16.24.48.24.91,0,1.67,0l1.35,0c.35,0,1.13,0,2.35.14s2.13.14,2.75.14q5.25,0,8-2.82a9.15,9.15,0,0,0,2.61-6.68,8.46,8.46,0,0,0-2.32-6.08,8.68,8.68,0,0,0-4.67-2.4,27.69,27.69,0,0,0-4.93-.33l-2.11,0-1.58,0-1.5,0-1.95,0c-.35,0-.52.07-.52.21S420.65,118.06,420.92,118.06Zm5,6.13c0-2.47,0-4.07,0-4.79a.5.5,0,0,1,.32-.5,4.66,4.66,0,0,1,1.52-.15,9.43,9.43,0,0,1,6.8,2.4,7.87,7.87,0,0,1,2.3,6q0,4.25-2,6a8.17,8.17,0,0,1-5.52,1.73c-1.64,0-2.69-.32-3.13-1A5.05,5.05,0,0,1,426,132c0-.7,0-2.31,0-4.83Z" fill="#1f437d"/><path d="M452.91,118.06a4.5,4.5,0,0,1,.93.07,1.31,1.31,0,0,1,1,1.37c0,.52.05,2.22.05,5.07v4.22c0,2.77,0,4.47-.12,5.09q-.15,1.2-.69,1.32l-.72.07c-.35,0-.53.11-.53.22s.16.24.48.24.9,0,1.66,0l1.36,0c.28,0,1.11,0,2.49.07s2.75.07,4.14.07a2.68,2.68,0,0,0,.95-.1c.15-.06.26-.23.34-.52a10.5,10.5,0,0,0,.31-2.66c0-.29-.06-.43-.19-.43s-.22.12-.26.36a2.16,2.16,0,0,1-1.09,1.77,6,6,0,0,1-2.25.29,4.66,4.66,0,0,1-2.32-.37,2,2,0,0,1-.57-1.64v-5.61c0-.15,0-.24.15-.24,1.82,0,3,0,3.41.08q1.15.12,1.35.93a6.05,6.05,0,0,1,.09.83c0,.16.07.25.22.25s.21-.15.21-.46c0-.16,0-.69.1-1.6,0-.48.07-.9.12-1.27s.07-.46.07-.48-.05-.19-.16-.19-.2.1-.39.31a1.07,1.07,0,0,1-.53.29,5.17,5.17,0,0,1-.62.07c-.37,0-1.65,0-3.85,0-.11,0-.17-.09-.17-.27v-6c0-.16.06-.24.17-.24,1.73,0,2.87,0,3.41.09.88.12,1.42.4,1.61.87a1.7,1.7,0,0,1,.1.43c0,.16,0,.32.06.5s.09.26.2.26.21-.08.24-.26c.07-.62.11-1.15.14-1.58s.06-.81.1-1.13.08-.41.08-.43,0-.21-.15-.21l-.38.09a6,6,0,0,1-1,.15c-.21,0-2.2,0-6,0l-1.49,0-2,0c-.35,0-.53.07-.53.21S452.64,118.06,452.91,118.06Z" fill="#1f437d"/><path d="M167.05,189.23q1.63,0,6.23-.16c.53,0,1.46,0,2.78.08s2.26.08,2.83.08.89-.18.89-.53-.26-.42-.79-.42h-.79c-1.41,0-2.12-.55-2.12-1.64a10.15,10.15,0,0,1,.8-3.22l2.85-7.56q.17-.42.48-.42H192a.54.54,0,0,1,.53.37l4.23,11.2c.24.63.09,1-.48,1.22s-.74.19-.74.47.53.39,1.59.42q3.44.1,10,.11a11.26,11.26,0,0,0,1.9-.11c.35-.07.53-.21.53-.42s-.23-.42-.69-.42a10.47,10.47,0,0,1-2.22-.21c-1.62-.35-3.17-2.28-4.65-5.76q-8.23-20.25-13.11-32.51c-.49-1.12-.93-1.69-1.32-1.69s-.91.71-1.48,2.12l-13.26,33.19a12.18,12.18,0,0,1-1.75,3.27,4.08,4.08,0,0,1-2.74,1.48,12.55,12.55,0,0,1-1.64.11c-.42,0-.64.14-.64.42S166.38,189.23,167.05,189.23Zm14-16.81,4.86-13c.07-.32.18-.47.32-.47s.19.15.27.47l4.75,13.06c.07.21,0,.31-.26.31h-9.73C181.05,172.79,181,172.67,181.05,172.42Z" fill="#1f437d"/><path d="M215.3,188.6A19.26,19.26,0,0,0,223,190a15.07,15.07,0,0,0,8.4-2.17,10.32,10.32,0,0,0,5-9.19,12.43,12.43,0,0,0-2-6.85,28.15,28.15,0,0,0-6.71-6.63L226.24,164a21.37,21.37,0,0,1-4.41-4.1,5.87,5.87,0,0,1-1.19-3.51,5,5,0,0,1,1.69-3.94,6.69,6.69,0,0,1,4.6-1.5,7,7,0,0,1,5.76,2.59,5.64,5.64,0,0,1,1.37,3.48c0,.64.18,1,.53,1s.58-.53.58-1.59c0-1.66,0-3.14.11-4.47s.1-1.94.1-1.87c0-.28-.24-.5-.74-.64a29.32,29.32,0,0,0-7-.89,13.34,13.34,0,0,0-8.82,2.8,8.89,8.89,0,0,0-3.39,7.18q0,6.4,7.83,12.53l2.43,1.9c3.45,2.72,5.18,5.53,5.18,8.46a5.57,5.57,0,0,1-1.75,4.07,7.34,7.34,0,0,1-5.34,2q-6,0-7.55-5.33a9.63,9.63,0,0,1-.48-2.7c0-.6-.17-.9-.53-.9s-.56.46-.63,1.38q-.27,4.06-.27,6.92A1.75,1.75,0,0,0,215.3,188.6Z" fill="#1f437d"/><path d="M284.43,150.39a8.64,8.64,0,0,1,1.53-.16c.63,0,1-.16,1-.48s-.37-.47-1.11-.47-2,0-3.54.07l-2.48.08c-2.51-.1-4.53-.15-6.08-.15-.74,0-1.11.15-1.11.47s.3.48.9.48a9,9,0,0,1,1.9.16c1.41.31,2.17,1.32,2.27,3q.1,1.75.11,11.22v6.62a48.39,48.39,0,0,1-.42,7.51,10.39,10.39,0,0,1-2.65,5.61,9.84,9.84,0,0,1-7.29,2.86,10.06,10.06,0,0,1-6.61-2.17q-4.12-3.39-4.12-13v-7.41q0-9.47.11-11.22c.1-1.8.75-2.8,1.95-3a8.65,8.65,0,0,1,1.54-.16q.84,0,.84-.48c0-.32-.39-.47-1.16-.47s-1.83,0-3.46.07-2.65.08-3,.08-1.56,0-3.41-.08-3.29-.07-4.31-.07c-.78,0-1.16.15-1.16.47s.3.48.9.48a10.07,10.07,0,0,1,2.06.16c1.41.31,2.17,1.32,2.27,3,.07,1.16.11,4.9.11,11.2v7.72q0,9.78,4.7,14,4,3.65,11.73,3.65a16.31,16.31,0,0,0,11-3.81,13.53,13.53,0,0,0,4.17-7.18,36.74,36.74,0,0,0,.85-8.72V164.6c0-6.3,0-10,.1-11.2C282.58,151.6,283.23,150.6,284.43,150.39Z" fill="#1f437d"/><path d="M332.89,189.87c.42,0,.65-.55.69-1.64l.58-33.35a12.47,12.47,0,0,1,.32-2.91c.38-1.16,1.46-1.74,3.22-1.74.63,0,.95-.16.95-.48s-.4-.47-1.21-.47c-1,0-2.14,0-3.33.07l-1.85.08c-.25,0-1.11,0-2.59-.08s-2.75-.07-3.81-.07-1.37.15-1.37.47.28.48.84.48a8.52,8.52,0,0,1,2.8.31,2.82,2.82,0,0,1,1.59,2.06,17.68,17.68,0,0,1,.21,2.7l.53,23.73h-.26Q324,172.58,318.57,167q-12-12.31-16.38-17c-1-1.09-1.68-1.63-2-1.63s-.65.6-.69,1.79l-.47,31.29a30.21,30.21,0,0,1-.32,4.86,2.08,2.08,0,0,1-1.32,1.7l-1.85.21c-.92.07-1.38.23-1.38.47s.39.53,1.17.53c1.09,0,2.32,0,3.7-.08l2-.08,2.38.08c1.45,0,2.84.08,4.18.08.81,0,1.21-.18,1.21-.53s-.52-.39-1.58-.53c-1.27-.14-2-.23-2.06-.26-1.13-.39-1.75-2.34-1.85-5.87l-.58-22.19h.15l4.5,4.91q4.49,4.86,8.08,8.4Q326,183.69,331.09,188.7,332.3,189.87,332.89,189.87Z" fill="#1f437d"/><path d="M346.16,156.46c.28,0,.47-.21.58-.63a5.89,5.89,0,0,1,.9-1.85q.94-1.42,5.12-1.53l7.88-.21V173.9q0,8.94-.27,11.26-.31,2.64-1.53,2.91c-.53,0-1.06.09-1.59.16-.77.07-1.16.23-1.16.47s.35.53,1.06.53,2,0,3.67-.08l3-.08,3.38.08c1.94,0,3.58.08,4.92.08.66,0,1-.18,1-.53s-.28-.42-.85-.42a20.12,20.12,0,0,1-2.69-.21c-1.16-.18-1.85-1.13-2.06-2.86q-.27-2.33-.27-11.31V152.24l6.66.15q6,.17,6.24,3l.05.58c.07.71.27,1.06.58,1.06s.39-.26.43-.79.07-1.59.13-3.2.08-2.59.08-2.94c0-.73-.14-1.1-.43-1.1a12.24,12.24,0,0,1-1.42.24,26.18,26.18,0,0,1-3.65.23H355c-1.62,0-3.38-.08-5.28-.26a4.67,4.67,0,0,1-1.43-.34,3.16,3.16,0,0,0-.85-.29c-.24,0-.46.33-.63,1a34.55,34.55,0,0,0-1.11,6.08Q345.68,156.46,346.16,156.46Z" fill="#1f437d"/><path d="M393.46,155.51a21.63,21.63,0,0,0,0,27.59q5.87,6.87,16.33,6.87,9.87,0,16-6.29a21.17,21.17,0,0,0,5.92-15.38q0-9.09-5.76-14.43t-15.6-5.33Q399.44,148.54,393.46,155.51ZM400,154.4a11.85,11.85,0,0,1,8.77-3.33,13.75,13.75,0,0,1,11,5.13q4.5,5.38,4.5,14.06,0,10-4.76,14.27a10.75,10.75,0,0,1-7.5,2.8,14.35,14.35,0,0,1-11.9-5.76q-4.33-5.44-4.33-14Q395.78,158.63,400,154.4Z" fill="#1f437d"/><path d="M443.5,188.6a19.26,19.26,0,0,0,7.72,1.37,15.07,15.07,0,0,0,8.4-2.17,10.32,10.32,0,0,0,5-9.19,12.42,12.42,0,0,0-1.95-6.85,28.23,28.23,0,0,0-6.72-6.63L454.44,164a21.37,21.37,0,0,1-4.41-4.1,5.94,5.94,0,0,1-1.19-3.51,5,5,0,0,1,1.69-3.94,6.69,6.69,0,0,1,4.6-1.5,6.93,6.93,0,0,1,5.76,2.59,5.6,5.6,0,0,1,1.38,3.48c0,.64.17,1,.52,1s.59-.53.59-1.59c0-1.66,0-3.14.1-4.47s.11-1.94.11-1.87c0-.28-.25-.5-.74-.64a29.38,29.38,0,0,0-7-.89,13.39,13.39,0,0,0-8.83,2.8,8.91,8.91,0,0,0-3.38,7.18q0,6.4,7.82,12.53l2.43,1.9c3.45,2.72,5.18,5.53,5.18,8.46a5.6,5.6,0,0,1-1.74,4.07,7.34,7.34,0,0,1-5.34,2q-6,0-7.56-5.33a9.94,9.94,0,0,1-.47-2.7c0-.6-.18-.9-.53-.9s-.56.46-.64,1.38q-.25,4.06-.26,6.92A1.76,1.76,0,0,0,443.5,188.6Z" fill="#1f437d"/><path d="M167,205.51a11.13,11.13,0,0,1,2.09.16,2.94,2.94,0,0,1,2.3,3.05q.1,1.77.1,11.34v9.41q0,9.3-.26,11.39c-.22,1.79-.73,2.77-1.56,2.94-.53,0-1.06.09-1.6.16-.78.08-1.17.24-1.17.49s.35.53,1.06.53,2,0,3.72-.08l3-.08,3.34.08c1.95,0,3.6.08,4.95.08.68,0,1-.18,1-.53s-.29-.43-.86-.43a19.11,19.11,0,0,1-2.72-.22c-1.18-.17-1.88-1.14-2.09-2.88q-.27-2.35-.27-11.45V208.08c0-.57.17-.92.51-1a7.09,7.09,0,0,1,2-.19,7.7,7.7,0,0,1,5.34,2.09q3.17,2.84,3.16,8a9.21,9.21,0,0,1-2.46,6.47,6.41,6.41,0,0,1-4.71,2.35c-1,0-1.49.2-1.49.59s.21.41.64.48a6.37,6.37,0,0,0,1.12.06,13,13,0,0,0,9.44-3.64,12.45,12.45,0,0,0,3.71-9.31,8.37,8.37,0,0,0-2.67-6.36q-3.21-3-10-3c-.85,0-2.18,0-4,.08s-3.06.08-3.77.08c-.39,0-1.51,0-3.34-.08s-3.29-.08-4.36-.08c-.78,0-1.18.16-1.18.48S166.34,205.51,167,205.51Z" fill="#1f437d"/><path d="M205.43,204.63c-1.87,0-3.33-.08-4.36-.08-.79,0-1.18.16-1.18.48s.3.48.91.48a11.13,11.13,0,0,1,2.09.16,2.94,2.94,0,0,1,2.3,3.05q.1,1.77.1,11.34v7.81q0,9.88,4.76,14.17,4.06,3.69,11.87,3.69a16.51,16.51,0,0,0,11.13-3.85,13.69,13.69,0,0,0,4.22-7.27,37,37,0,0,0,.86-8.83v-5.72q0-9.57.1-11.34c.11-1.81.77-2.83,2-3.05a10,10,0,0,1,1.55-.16q1,0,1-.48c0-.32-.37-.48-1.12-.48s-2,0-3.58.08l-2.51.08c-2.53-.1-4.59-.16-6.15-.16-.75,0-1.13.16-1.13.48s.31.49.91.49a9.27,9.27,0,0,1,1.93.16c1.42.32,2.19,1.34,2.3,3q.1,1.77.1,11.35v6.69a49.71,49.71,0,0,1-.42,7.61,10.65,10.65,0,0,1-2.68,5.68A10,10,0,0,1,223,243a10.14,10.14,0,0,1-6.68-2.2q-4.17-3.42-4.17-13.17v-7.5q0-9.59.1-11.35c.11-1.82.77-2.84,2-3a8.94,8.94,0,0,1,1.55-.16c.57,0,.86-.16.86-.49s-.39-.48-1.18-.48-1.84,0-3.5.08-2.68.08-3.07.08S207.3,204.69,205.43,204.63Z" fill="#1f437d"/><path d="M230.75,192.87c-.25-.45-.5-.67-.75-.67a2.46,2.46,0,0,0-1.07.48,59.46,59.46,0,0,0-8.61,6.74q-.48.48-.48.69a.28.28,0,0,0,.32.32,4.89,4.89,0,0,0,.91-.42,25.92,25.92,0,0,1,9.14-3.16H232c.18,0,.28,0,.32-.16s.09-.35,0-.64c-.79-1.67-1.18-2.51-1.18-2.51S231,193.31,230.75,192.87Z" fill="#1f437d"/><path d="M279.46,233.48a10.45,10.45,0,0,0-3.21-7.54,16.37,16.37,0,0,0-6.52-4q5.46-4.38,5.45-9.36a6.92,6.92,0,0,0-2.08-5.08q-2.89-2.94-9.31-2.94c-.53,0-1.52,0-3,.08s-2.63.08-3.56.08c-.21,0-1.2,0-3-.08s-3.2-.08-4.3-.08c-.79,0-1.18.16-1.18.48s.3.48.91.48a11.13,11.13,0,0,1,2.09.16,2.94,2.94,0,0,1,2.3,3.05q.1,1.77.1,11.34v9.41q0,9.3-.27,11.39c-.21,1.79-.73,2.77-1.55,2.94-.53,0-1.07.09-1.6.16-.78.08-1.18.24-1.18.49s.36.53,1.07.53,2,0,3.72-.08l3-.08c.57,0,1.91.05,4,.16s3.35.16,3.74.16q6.9,0,10.86-3.69A10.58,10.58,0,0,0,279.46,233.48Zm-18.82-25.72a1.15,1.15,0,0,1,.21-.8,4.8,4.8,0,0,1,2-.21,5.91,5.91,0,0,1,5.09,2.78,9.75,9.75,0,0,1,1.6,5.5q0,3.85-2.19,5.67a6,6,0,0,1-3.85,1,13.76,13.76,0,0,1-2.52-.16c-.25-.07-.37-.27-.37-.59Zm9.89,33.64a6.48,6.48,0,0,1-4.12,1.33,10.23,10.23,0,0,1-3.9-.64A2.4,2.4,0,0,1,261,240.6a13,13,0,0,1-.32-3.64V224.28c0-.24.11-.37.32-.37.86,0,1.62,0,2.3.05a8.53,8.53,0,0,1,4.44,1.29q5.19,3.63,5.18,10.64A6.52,6.52,0,0,1,270.53,241.4Z" fill="#1f437d"/><path d="M311.81,245.14a11.28,11.28,0,0,0,2.09-.11,1.68,1.68,0,0,0,1.28-1.33,23.1,23.1,0,0,0,.81-6.15c0-.61-.15-.91-.43-.91s-.52.27-.59.8a5.55,5.55,0,0,1-1.39,3.21c-.93,1-3,1.5-6.26,1.5-3.42,0-5.58-.4-6.47-1.18-.5-.43-.82-1.61-1-3.53q-.17-1.92-.16-8v-9.41q0-9.57.11-11.34c.1-1.81.76-2.83,2-3.05a12.75,12.75,0,0,1,2.08-.16q1,0,1-.48c0-.32-.37-.48-1.12-.48s-2.06,0-3.93.08-3,.08-3.34.08-1.48,0-3.27-.08-3.13-.08-4.06-.08c-.78,0-1.18.16-1.18.48s.31.48.91.48a5.68,5.68,0,0,1,2.89.54,3.17,3.17,0,0,1,1.18,2.67q.1,1.77.1,11.34v9.41c0,6.2-.08,10-.26,11.39-.22,1.79-.73,2.77-1.55,2.94-.54,0-1.07.09-1.61.16-.78.08-1.17.24-1.17.49s.35.53,1.07.53,2,0,3.71-.08l3-.08c1.18,0,3.35.05,6.53.16S309,245.14,311.81,245.14Z" fill="#1f437d"/><path d="M339,244.45c0-.29-.28-.43-.85-.43a19,19,0,0,1-2.7-.22c-1.27-.17-2-1.05-2.12-2.62s-.21-5.33-.21-11.71v-9.41q0-9.57.11-11.34c.1-1.81.75-2.83,1.95-3.05a10.31,10.31,0,0,1,1.67-.16c.51,0,.76-.17.76-.53s-.37-.43-1.12-.43-1.93,0-3.53.08-2.6.08-3,.08-1.56,0-3.28-.08-2.95-.08-3.67-.08-1.28.14-1.28.43.31.53.94.53a8.12,8.12,0,0,1,1.84.22c1.11.28,1.71,1.28,1.82,3q.11,1.77.11,11.34v9.41q0,9.3-.27,11.69c-.18,1.58-.7,2.47-1.55,2.64-.54,0-1.07.09-1.61.16-.78.08-1.17.24-1.17.49s.35.53,1.07.53,2,0,3.71-.08l3-.08,3.39.08c1.94,0,3.59.08,4.95.08C338.69,245,339,244.8,339,244.45Z" fill="#1f437d"/><path d="M368.39,206.42a22,22,0,0,1,6.63,1,10,10,0,0,1,4.23,2.35,7.15,7.15,0,0,1,2.08,4.92c0,.78.18,1.18.54,1.18s.57-.41.64-1.23c.09-2.28.16-4.21.2-5.78,0-.71.11-1.39.2-2a7.43,7.43,0,0,0,.13-.91c0-.39-.27-.61-.8-.64-2.33-.36-4.11-.66-5.36-.91a59.33,59.33,0,0,0-7.78-.54q-10.73,0-17,5.7a18.88,18.88,0,0,0-6.25,14.62q0,10,6.66,15.81t18.31,5.8c4.39,0,7.59-.41,9.63-1.23a2.34,2.34,0,0,0,1.41-1.6,33.56,33.56,0,0,0,.78-4,30.45,30.45,0,0,0,.37-3.11c0-.53-.16-.8-.48-.8s-.55.36-.69,1.07a7.32,7.32,0,0,1-1.82,3.53,8.07,8.07,0,0,1-4.49,2.57,24.88,24.88,0,0,1-5.3.43,15.73,15.73,0,0,1-11.12-4.76q-5.73-5.46-5.72-14.28,0-9.36,4.92-13.85Q362,206.43,368.39,206.42Z" fill="#1f437d"/><path d="M427.59,209.2q-5.83-5.4-15.78-5.4-11,0-17.06,7.06a21.92,21.92,0,0,0,0,27.92q5.94,6.94,16.53,6.95,10,0,16.15-6.37a21.38,21.38,0,0,0,6-15.56Q433.42,214.6,427.59,209.2Zm-6.47,31a10.85,10.85,0,0,1-7.6,2.83,14.51,14.51,0,0,1-12-5.82q-4.38-5.52-4.38-14.12,0-9.09,4.27-13.37a12,12,0,0,1,8.88-3.37,13.92,13.92,0,0,1,11.12,5.19q4.55,5.44,4.55,14.22Q425.93,235.89,421.12,240.22Z" fill="#1f437d"/><path d="M443.26,244.34a19.44,19.44,0,0,0,7.8,1.39,15.27,15.27,0,0,0,8.5-2.19,10.45,10.45,0,0,0,5-9.31,12.49,12.49,0,0,0-2-6.92,28.46,28.46,0,0,0-6.79-6.72l-1.5-1.12a21.89,21.89,0,0,1-4.46-4.14,6.05,6.05,0,0,1-1.2-3.56,5.07,5.07,0,0,1,1.71-4,6.72,6.72,0,0,1,4.65-1.53,7.06,7.06,0,0,1,5.83,2.62,5.7,5.7,0,0,1,1.39,3.53c0,.64.18,1,.53,1s.59-.54.59-1.61c0-1.67,0-3.18.11-4.52s.11-2,.11-1.9c0-.28-.25-.49-.75-.64a29.65,29.65,0,0,0-7.12-.91,13.56,13.56,0,0,0-8.93,2.84,9,9,0,0,0-3.42,7.27q0,6.47,7.92,12.67l2.46,1.93q5.24,4.13,5.24,8.56a5.61,5.61,0,0,1-1.77,4.11,7.39,7.39,0,0,1-5.4,2q-6,0-7.65-5.4a9.81,9.81,0,0,1-.48-2.73c0-.6-.18-.91-.53-.91s-.57.47-.64,1.39q-.27,4.13-.27,7A1.76,1.76,0,0,0,443.26,244.34Z" fill="#1f437d"/><path d="M10.53,301.82h51c2.22,0,8.56.63,8.56,3.43v1.88h3.75v-1.88c0-2.8,6.35-3.43,8.57-3.43h51c6.7,0,10.54-3.84,10.54-10.53V117.36H73.14V74.42l2.92,1.88,8.63,26.56a.78.78,0,0,0,.35.41.71.71,0,0,0,.32.07.83.83,0,0,0,.22,0l.94-.31a.7.7,0,0,0,.45-.88L79.25,78.34l8.88,5.71,17.54,24.15a.7.7,0,0,0,.57.29.64.64,0,0,0,.41-.14l.8-.58a.68.68,0,0,0,.28-.46.74.74,0,0,0-.12-.52L89.77,82.25l-2.62-10L107.6,87.12a.71.71,0,0,0,.42.14h.1a.68.68,0,0,0,.46-.28l.59-.8a.71.71,0,0,0-.16-1L86.19,68.6l-.86-3.25,42.38,13.77.22,0a.71.71,0,0,0,.32-.07.74.74,0,0,0,.35-.41l.3-.94a.7.7,0,0,0-.45-.89L86.26,63.13,89,60.94h27.94a.7.7,0,0,0,.7-.71v-1a.7.7,0,0,0-.2-.49.7.7,0,0,0-.5-.21h-25L100,51.87l28.41-9.23a.71.71,0,0,0,.46-.89l-.31-.94a.71.71,0,0,0-.35-.41.7.7,0,0,0-.53,0L98.54,49.84,88.4,49.26l20.61-15a.73.73,0,0,0,.16-1l-.59-.79a.67.67,0,0,0-.46-.29.7.7,0,0,0-.52.13L84.62,49l-3.29-.19,26.28-36.17a.74.74,0,0,0,.12-.52.72.72,0,0,0-.28-.46l-.8-.58a.7.7,0,0,0-1,.16L79.46,47.35l-1.22-3.13L87,17.36a.72.72,0,0,0-.46-.89l-.93-.3a.71.71,0,0,0-.89.45L76.87,40.69,73.14,31.1V.71a.71.71,0,0,0-.7-.71h-1a.71.71,0,0,0-.71.71V31.09L67,40.68,59.19,16.62a.7.7,0,0,0-.89-.45l-.94.3a.71.71,0,0,0-.45.89l8.73,26.85-1.22,3.14L38.21,11.28a.7.7,0,0,0-1-.16l-.8.58a.72.72,0,0,0-.28.46.66.66,0,0,0,.13.52L62.55,48.85,59.26,49l-23-16.69a.71.71,0,0,0-.53-.13.68.68,0,0,0-.45.29l-.58.79a.71.71,0,0,0,.15,1l20.61,15-10.14.58L16.17,40.36a.72.72,0,0,0-.54,0,.71.71,0,0,0-.35.41l-.31.94a.71.71,0,0,0,.46.89l28.41,9.23L52,58.54H27a.7.7,0,0,0-.7.71v1a.7.7,0,0,0,.7.71h28l2.68,2.19L15.43,76.84a.72.72,0,0,0-.46.89l.31.94a.78.78,0,0,0,.35.41.71.71,0,0,0,.32.07.83.83,0,0,0,.22,0L58.55,65.35l-.86,3.26L34.87,85.19a.7.7,0,0,0-.15,1l.58.8a.68.68,0,0,0,.45.28h.12a.7.7,0,0,0,.41-.14L56.73,72.27l-2.62,10L36.28,106.79a.66.66,0,0,0-.13.52.68.68,0,0,0,.28.46l.8.58a.64.64,0,0,0,.41.14.7.7,0,0,0,.57-.29L55.75,84.06l8.89-5.72-7.73,23.78a.75.75,0,0,0,0,.53.7.7,0,0,0,.41.35l.94.31a.83.83,0,0,0,.22,0,.72.72,0,0,0,.67-.48l8.63-26.57,2.92-1.88v43H0V291.29C0,298,3.84,301.82,10.53,301.82Zm129.6-10.53c0,4.56-2.22,6.77-6.78,6.77h-51c-3.26,0-6.82.63-9.27,2.16V232.77a21.23,21.23,0,0,0,19.79-24.93h47.22Zm0-170.17V205.5H92.36a21.38,21.38,0,0,0-10.27-12.68s0,0-.07,0a4.91,4.91,0,0,1-1.26-1.5c-1-1.46-2.31-3.47-4.92-3a6,6,0,0,0-2.72,1V121.12ZM88,81.17,73.31,60.9l10.27,3.33.06.23h0l1.25,4.75h0l.08.3Zm.8-22-.58.48h0l-3.88,3.16h0l-.48.39L73.58,59.9l23.91-7.77Zm-9.18-9H80l5.67.32.68,0h0l10.72.61L73.3,58.9ZM72.46,33.24l4.07,10.45.31.8h0l2,5,0,.05L72.46,58.3Zm0,28.25,14.75,20.3L78.35,76.1h0L77,75.25h0l-4.2-2.7h0l-.35-.22Zm-.52,130.14c.25,0,.5,0,.75,0,.15.18.36.41.64.69a1.76,1.76,0,0,0-1,.74.82.82,0,0,0-.07.3h-.3a18.17,18.17,0,1,0,8,1.89v0a.55.55,0,0,0-.17-.13,34.74,34.74,0,0,0-5-1.2,3.08,3.08,0,0,1-1-.32,6,6,0,0,1,.92-.2.68.68,0,0,0,.58-.47.7.7,0,0,0-.17-.73c-.64-.62-1.39-1.39-1.49-1.52s0-.05,0-.14.48-.63,2.33-1c1.57-.28,2.41.78,3.5,2.41a6,6,0,0,0,1.65,1.87v0a19.86,19.86,0,1,1-9.29-2.32Zm-5.87,20a5.82,5.82,0,0,0,1.55,3.94,11.28,11.28,0,0,1-4.94-3.91,11.4,11.4,0,0,1,4.88-3.88A5.81,5.81,0,0,0,66.07,211.61Zm5-4.69c.29,0,.57,0,.86,0s.57,0,.86,0a4.78,4.78,0,1,1-1.72,0Zm.86,10.91a12.73,12.73,0,0,0,10-4.93l3.79,6.57H58.1l3.79-6.57A12.75,12.75,0,0,0,71.94,217.83Zm4.32-2.28a5.78,5.78,0,0,0,.06-7.79,11.37,11.37,0,0,1,4.89,3.88A11.31,11.31,0,0,1,76.26,215.55Zm-4.32-10.09a12.76,12.76,0,0,0-7,2.07l7-12,7,12A12.76,12.76,0,0,0,71.94,205.46Zm-10.85,6-.11.17h0l-4.11,7.11a16.55,16.55,0,0,1-1.67-7.23,16.73,16.73,0,0,1,15.47-16.66Zm24.72,9.41a16.72,16.72,0,0,1-27.74,0Zm-2.92-9.23h0l-.07-.11L73.2,194.87h0a4.56,4.56,0,0,0,1.39.49c.85.15,3.29.64,4.29,1a16.75,16.75,0,0,1,9.78,15.2A16.55,16.55,0,0,1,87,218.76ZM65.26,49.06h0L67,44.5h0L67.61,43h0l3.81-9.82V58.3l-6.35-8.74Zm-7.77,1.5h0l.63,0,5.73-.33h.35l6.36,8.76L46.71,51.17ZM55.2,59.33l-.77-.63h0l-8-6.53L70.24,59.9,60,63.23l-.46-.37h0Zm5.11,4.88L70.6,60.87,55.85,81.17Zm6.54,11h0l-1.3.84h0l-8.87,5.7,14.75-20.3V72.3l-.36.23h0ZM3.76,121.12h67v69.17A21.31,21.31,0,0,0,51.52,205.5H3.76Zm0,86.72H51a21.18,21.18,0,0,0,19.79,24.93v67.45c-2.46-1.53-6-2.16-9.27-2.16h-51c-4.56,0-6.77-2.21-6.77-6.77Z" fill="#1f437d"/><path d="M83.74,138.13a7.3,7.3,0,0,0,1.58-.18l5.34,7.47a28.24,28.24,0,0,0,.22,7c.82,5.62,4.6,8.59,10.93,8.62l1.63,2.26c-1.73,2.14-3.81,6.42-.87,9.49a6,6,0,0,0,4.58,1.58,24.34,24.34,0,0,0,3.91-.41l0,0c-1,1.08-3.37,4.1-1.63,7a6.25,6.25,0,0,0,4.13,3.05,4.94,4.94,0,0,1,2,1c1.37,1.23,1.41,2.11,1.5,3.86,0,.18,0,.38,0,.58a4.35,4.35,0,0,0,1.8,3.11c.25.23.49.46.7.69a4.36,4.36,0,0,1,.67,1.51c.24.83.52,1.77,1.43,1.89h.13a1,1,0,0,0,.74-.33c.65-.68,1-2.78,1.18-4.63l5.77,8.07a.91.91,0,0,0,.17.17l2.49,1.69a.67.67,0,0,0,.39.12.72.72,0,0,0,.4-.12.7.7,0,0,0,.28-.74L132.6,198a.67.67,0,0,0-.1-.23l-10.81-16.61a3.57,3.57,0,0,0-1.54-2.35L117,174c1.94-2.05,2.33-3.94,1.15-5.65s-3.23-2.22-6-1.77l-1.4-2.15c1.35-1.62,3-5.18.5-8.34-1.34-1.69-3.38-1.9-5-1.9-.63,0-1.27,0-1.89.07h-.22l-5.11-7.84a6.14,6.14,0,0,1,.4-.64c.74.79,2,2,3.14,2a1.6,1.6,0,0,0,.62-.13c.91-.4,2.66-4.36,2-7.59A6.42,6.42,0,0,0,99,135.25a6.63,6.63,0,0,0-4.57,1.87,5.43,5.43,0,0,0-.85.8L91,134.09c1.33-1.88,1.56-3.87.6-5.28a4,4,0,0,0-3.45-1.58,8.82,8.82,0,0,0-4.83,1.63c-3.18,2.18-4.52,5.55-3.06,7.69A4,4,0,0,0,83.74,138.13Zm37.79,46.09c0-.13,0-.28,0-.42l0-.21,9.66,14.82.24,1.05-.89-.6-6.73-9.42c0-.11,0-.23,0-.34a2.57,2.57,0,0,0-.12-.71,3,3,0,0,0-.82-1.2l-.25-.25-.2-.19-.07-.07-.06-.06-.2-.22-.05-.07-.18-.24,0-.1a1.05,1.05,0,0,1-.13-.26l-.06-.15a1.73,1.73,0,0,1-.08-.27,1.33,1.33,0,0,1,0-.21,2.86,2.86,0,0,1,0-.59A2.81,2.81,0,0,1,121.53,184.22Zm-2.61-4.56h0a2.31,2.31,0,0,1,1.42,2.12,2.26,2.26,0,0,1,0,.26,5.58,5.58,0,0,1-.11,1.09,6.09,6.09,0,0,0,0,2.61,4.43,4.43,0,0,0,1.46,2.22c.5.48.74.73.75,1.19,0,0,0,.06,0,.1a21.36,21.36,0,0,1-.67,5.64l-.17-.52a5.23,5.23,0,0,0-1-2c-.26-.29-.54-.55-.81-.8a3,3,0,0,1-1.33-2.15c0-.2,0-.39,0-.57-.09-1.79-.16-3.21-2-4.84a6.18,6.18,0,0,0-2.54-1.26,4.94,4.94,0,0,1-3.34-2.42c-1.14-1.94.39-4.14,1.25-5.14.15.18.28.37.43.56l.41.56,0,0c.21.29.43.6.63.91a6.54,6.54,0,0,1,.65,1.15.88.88,0,0,0,.1.83,1.1,1.1,0,0,0,.93.39l.39,0h0l.47-.05.24,0a11.65,11.65,0,0,1,1.22-.09,3.27,3.27,0,0,1,1.4.26ZM118,178h-.51a12.83,12.83,0,0,0-1.64.12h0l-1.08-1.51c-.35-.55-.83-1.25-1.52-2.13l-.57-.8.66-.1h0l.6-.07h.05l.52,0H115Zm-6.61-9.83h0a10.3,10.3,0,0,1,2.51-.34,3.54,3.54,0,0,1,3.14,1.32c.44.63.82,1.63-.51,3.3a2.38,2.38,0,0,0-1-.37h-.06a3.82,3.82,0,0,0-.61,0h-.15c-.29,0-.59,0-.92.07h0c-.31,0-.62.08-1,.13l-.16,0-.53.08-.51.09-.32.06h0a24.87,24.87,0,0,1-4.1.46,4.71,4.71,0,0,1-3.56-1.14c-2.3-2.4-.38-5.77.64-7.22.35.49.83,1.18,1.38,2a1.44,1.44,0,0,0,.1,1.25,2.13,2.13,0,0,0,1.88.81h.27a14.27,14.27,0,0,0,2.84-.38ZM103.5,161h.12l.89-.08.46-.06.58-.08.34-.06.48-.08.14,0,.08,0,4.11,6.32h0c-.5.12-1,.22-1.4.28h0a9.53,9.53,0,0,1-1.1.1H108Zm-1-6.67c-.26,0-.48,0-.7,0s-.35,0-.5,0a4.49,4.49,0,0,1-.61-.16,3.15,3.15,0,0,1-.36-.09,3.09,3.09,0,0,1-.51-.29c-.07,0-.16-.08-.23-.14a2.37,2.37,0,0,1-.54-.63,7.3,7.3,0,0,1-.36-.67,6.39,6.39,0,0,1-.28-4.23Zm-9.6-12.48a2.83,2.83,0,0,1,.14-.35c0-.14.11-.28.16-.4s.19-.41.29-.6.1-.16.14-.25l.19-.32.14-.21a5.44,5.44,0,0,1,1.25-1.42l.09-.07A5.26,5.26,0,0,1,99,136.66a5,5,0,0,1,4.87,3.61,9.09,9.09,0,0,1-1.24,6,5.48,5.48,0,0,1-2.51-2,.7.7,0,0,0-.8-.21,4,4,0,0,0-1.67,2h0l-.06.14c-.11.25-.22.5-.3.73a8.63,8.63,0,0,0-.45,3,.76.76,0,0,0,0,.15,6.78,6.78,0,0,0,.1.88l.06.3c.06.27.14.54.23.82l.11.32a7.41,7.41,0,0,0,.56,1.13c1.13,1.83,3.13,2.06,4.75,2.06.4,0,.8,0,1.22,0h0l.59,0c.61,0,1.23-.07,1.82-.07,2,0,3.14.41,3.91,1.38a4.83,4.83,0,0,1,.08,5.74c-.67-1.51-1.86-3.6-3.34-3.6h-.14a4.77,4.77,0,0,0-.51.08l-.72.12-.5.07-.47.07-.63.06-.56.06-.69,0c-.27,0-.54,0-.82,0-5.66,0-8.89-2.5-9.61-7.42a24.58,24.58,0,0,1,0-8.12c0-.08,0-.15,0-.23.06-.28.13-.55.19-.8l.09-.32c.06-.2.11-.38.17-.56ZM84.15,130a7.39,7.39,0,0,1,4-1.39,2.66,2.66,0,0,1,2.29,1c.66,1,.33,2.55-.84,4a.69.69,0,0,0,0,.82l3,4.68A12.38,12.38,0,0,0,91.35,142l0,.15c-.1.33-.19.69-.27,1.06l-.06.21-4.79-6.7a.7.7,0,0,0-.57-.3l-.2,0a6,6,0,0,1-1.67.26,2.64,2.64,0,0,1-2.29-1C80.47,134.32,81.7,131.69,84.15,130Z" fill="#1f437d"/><path d="M102,142.62a1.41,1.41,0,1,0,0-2.82,1.41,1.41,0,0,0,0,2.82Z" fill="#1f437d"/><path d="M76,190a.9.9,0,1,0,.9.9A.9.9,0,0,0,76,190Z" fill="#1f437d"/><path d="M30.64,259.4a14.94,14.94,0,0,0,9.86,14H29.2l-4.11-11.12a3.34,3.34,0,0,0,.47-1.68,3.4,3.4,0,0,0-6.79,0,3.34,3.34,0,0,0,.44,1.63l-4.13,11.17h-.95a.7.7,0,0,0-.7.71v6.07a.7.7,0,0,0,.7.7H51.94v11.71a.71.71,0,0,0,.71.71h5.56a.7.7,0,0,0,.7-.71V280.3a.28.28,0,0,0,0-.09v-6.07a.7.7,0,0,0-.7-.71H50.61a14.92,14.92,0,1,0-20-14Zm-4.56,9-2.77-4.57a3.45,3.45,0,0,0,.9-.5Zm-3.92-9.74a2,2,0,1,1-2,2A2,2,0,0,1,22.16,258.64Zm-2.08,4.65a3.8,3.8,0,0,0,.9.51l-2.78,4.58Zm2.06.85,5.64,9.29H16.51Zm35.37,10.7v17.08H53.35V280.21a.7.7,0,0,0-.7-.71H14.83v-4.66Zm.43-20a2.18,2.18,0,0,1,.06-.66v0a13.53,13.53,0,0,1-.58,11.75c0-.15,0-.35,0-.51s0-.49,0-.68a3.47,3.47,0,0,0-.39-1,3.12,3.12,0,0,1-.24-.54,2.86,2.86,0,0,0-.74-1.54,3,3,0,0,1-.37-.83,3,3,0,0,0-.44-1,2,2,0,0,1-.3-.66,2.19,2.19,0,0,0-.23-.56,3.16,3.16,0,0,1,.32-.87,5,5,0,0,1,.86-.45c.46-.14,1-.28,1.1-.29.45,0,1.06-.73,1.06-.74a.66.66,0,0,0,.17-.6A5.63,5.63,0,0,0,57.94,254.81Zm-5.12-6.17a3,3,0,0,0,.45-.32,13.5,13.5,0,0,1,4.51,5.36s-.06-.07-.11-.09a2.74,2.74,0,0,0-.67-.09.77.77,0,0,0-.53.17l-.08,0a2,2,0,0,1-.93-.18,2.32,2.32,0,0,0-.5-.12,4.31,4.31,0,0,0-.87-.47,2.1,2.1,0,0,0-.9,0l-.1,0c-.45.07-.7.62-.81.94,0,0,0,0,0,.08s-.09.61-.11.9a2.16,2.16,0,0,1-.77.27l-.6-.15a3.08,3.08,0,0,1,.24-.64,1.09,1.09,0,0,0,0-.94l0-.08.1-.11.44,0a1.74,1.74,0,0,0,.88-.19.45.45,0,0,0,.19-.17,6.08,6.08,0,0,1,.48-.66,1.67,1.67,0,0,0,.57-1.12,3,3,0,0,0-.05-.86l0-.21a1.4,1.4,0,0,0-.38-.76.61.61,0,0,1-.12-.15,1.68,1.68,0,0,1-.24-.41A.2.2,0,0,1,52.82,248.64ZM47.17,246a13.77,13.77,0,0,1,2.33.49,3,3,0,0,0-.31.72,4.4,4.4,0,0,0,0,.48A10.85,10.85,0,0,1,49,249l-.14,0a1.88,1.88,0,0,0-.92-1.26c-.34-.16-.51-.27-.61-.5a4.16,4.16,0,0,1-.21-1Zm-1.61-.1c.22,0,.43,0,.65,0l0,.05a.41.41,0,0,0,0,.19,5.71,5.71,0,0,0,.31,1.42,2,2,0,0,0,1.05,1,.92.92,0,0,1,.41.58c0,.49.53.81,1.21.81h.15c.61-.05.69-.83.78-2.19,0-.17,0-.31,0-.37a4.44,4.44,0,0,1,.28-.57,13.1,13.1,0,0,1,2,1v0a1,1,0,0,0-.54.93,1.83,1.83,0,0,0,.39.92,2.43,2.43,0,0,0,.2.25c.11.13.15.18.16.25a2,2,0,0,0,0,.26,2,2,0,0,1,0,.62.75.75,0,0,1-.29.53l0,0a6,6,0,0,0-.49.66l-.18.07a6.24,6.24,0,0,0-.79,0,.47.47,0,0,0-.31.11,2.79,2.79,0,0,0-.49.54.89.89,0,0,0,0,.8c0,.06.05.15.06.2a3.07,3.07,0,0,0-.36,1.47c.09.27.31.42,1.36.66l.2,0c.41,0,1.71-.37,1.71-1,0-.1,0-.53.1-.91a1.82,1.82,0,0,1,.14-.28h0a2.07,2.07,0,0,1,.44,0,3.28,3.28,0,0,1,.67.37.6.6,0,0,0,.44.14l.26.07a2.76,2.76,0,0,0,1.34.22,1.08,1.08,0,0,0,.49-.19h0a1.6,1.6,0,0,0,.06.73,3.81,3.81,0,0,1,.17.51,2.24,2.24,0,0,1-.38.33,12.52,12.52,0,0,0-1.28.32l-.06,0a3.83,3.83,0,0,0-1.23.73s-.92,1.47-.38,2c0,0,.07.19.11.3a2.8,2.8,0,0,0,.46,1,2.17,2.17,0,0,1,.28.66,3.16,3.16,0,0,0,.55,1.14,2,2,0,0,1,.52,1,2.53,2.53,0,0,0,.33.86,3,3,0,0,1,.29.7,5.44,5.44,0,0,1,0,.6,3.92,3.92,0,0,0,.07.92,8.25,8.25,0,0,1-.13,1.13,13.49,13.49,0,0,1-22.89-14.13,5.54,5.54,0,0,0,1.94.62c.11,0,.36.23.91,1.34a2.19,2.19,0,0,0,.26.46,5.88,5.88,0,0,0,.86.61,8.25,8.25,0,0,1,1.08.77,1.37,1.37,0,0,0,.78.75l-.41.21a6.27,6.27,0,0,0-.64.33c-.52.33-.49,1.21-.37,2.51,0,.3,0,.65,0,.77s-.11,1,2.12,1.79c.28.1.49.86.57,1.15a2.83,2.83,0,0,0,.09.31,15.43,15.43,0,0,1,0,1.61,9.82,9.82,0,0,0,0,1.25c0,.12.06.63.1,1.14a17.56,17.56,0,0,0,.27,2.52.66.66,0,0,0,.66.44,2.56,2.56,0,0,0,1.07-.36.44.44,0,0,0,.21-.25,30,30,0,0,0,1.14-3.89c.2-1.1.28-1.18.52-1.43l.32-.35A9.53,9.53,0,0,1,46.64,264a4.65,4.65,0,0,0,1.24-3.26c-.14-1-1.57-1.64-2.75-2a16.08,16.08,0,0,1-2.08-.82,29.42,29.42,0,0,0-3.62-2.75,5.83,5.83,0,0,1-1.59-2.4,2,2,0,0,1,.53-1.3,2.22,2.22,0,0,1,.28.09,2.75,2.75,0,0,0,.41.11.45.45,0,0,1,.25.24c0,.65,0,1.23.5,1.39l.19,0c.49,0,1.14-.62,1.4-1.32a2.56,2.56,0,0,1,1.27-1.14l.11,0a1.22,1.22,0,0,1,.5.28l.23.17a1.38,1.38,0,0,0,1.61-.44,1.64,1.64,0,0,0,.41-1.29,5.22,5.22,0,0,1,0-1.09c0-.22,0-.49,0-.91,0-.9-.57-1-.74-1a1.71,1.71,0,0,0-.66.18,1.26,1.26,0,0,1-.42.15h-.09c-.52,0-1,.46-1.45.94a3.4,3.4,0,0,1-.7.61c-.26.08-.43-.23-.46-.54s-.09-.82-.14-1.24A13.28,13.28,0,0,1,45.56,245.89Zm-3.74,25h0v0ZM40,247.12c0,.35.08.72.11,1a1.36,1.36,0,0,0,1.66,1.34,3,3,0,0,0,1.1-.85,3.67,3.67,0,0,1,.77-.66,1.82,1.82,0,0,0,.9-.22l.08,0c0,.37,0,.61,0,.81a5.65,5.65,0,0,0,0,1.26.69.69,0,0,1-.18.55.75.75,0,0,1-.43.26l-.14-.1a1.8,1.8,0,0,0-1.07-.48,1.21,1.21,0,0,0-.49.11,3.34,3.34,0,0,0-1.77,1.67,1.65,1.65,0,0,1-.26.44,1.48,1.48,0,0,1,0-.22,1.31,1.31,0,0,0-1-1.16l-.27-.08a1.87,1.87,0,0,0-.62-.14.78.78,0,0,0-.58.23,2.93,2.93,0,0,0-.84,2.17,6.09,6.09,0,0,0,2.17,3.11,33.79,33.79,0,0,1,3.31,2.54,11.86,11.86,0,0,0,2.49,1.06c1.36.39,2,.89,2.07,1.19a4,4,0,0,1-.87,2.39A11,11,0,0,0,44.35,265a2.9,2.9,0,0,1-.27.3c-.38.4-.53.64-.76,1.91a27.26,27.26,0,0,1-1,3.57,1.4,1.4,0,0,1-.27.11c-.06-.48-.14-1.47-.19-2.05s-.08-1.07-.11-1.21,0-.68,0-1.09a6.86,6.86,0,0,0-.08-1.94s0-.13-.07-.23c-.15-.57-.4-1.53-1.15-1.79a3.59,3.59,0,0,1-1.51-.84,6.57,6.57,0,0,0,0-.92,6.65,6.65,0,0,1,0-1.66l.5-.26c.62-.3,1.11-.53,1.2-1s-.38-.73-.69-.89a2.76,2.76,0,0,1-.38-.21c-.11-.38-.55-.7-1.46-1.3a8.12,8.12,0,0,1-.69-.46s-.06-.13-.11-.23c-.45-.92-1-1.82-1.68-1.87a4.47,4.47,0,0,1-1.55-.49A13.54,13.54,0,0,1,40,247.12Z" fill="#1f437d"/><path d="M13.36,230.31l3.89-2.5.39.25-.07,0L28.18,259l.67-.23-7.92-23,7.85,19.13.65-.26-8.07-19.69,8.41,17.43.63-.3-8.69-18L31,250.35l.61-.35L22.2,233.45l10,15.23.59-.38L22.67,232.87,33.6,247.26l.56-.43L23.09,232.27,35.1,246l.53-.47-12-13.68,13.22,13.07.49-.5-13.2-13.06,14.68,12.6.46-.54L24.63,230.81l16.63,12.33.42-.57L25.27,230.41l19.14,12.24.37-.6-24.71-15.8-.11-.41,3.58-2.93-4.61-.26-1.68-4.31-1.68,4.31-4.61.26,3.58,2.93Zm3.2-6.31.69-1.78.69,1.78,1.91.11-1.48,1.21.48,1.85-1.6-1-1.61,1,.49-1.85-1.48-1.21Z" fill="#1f437d"/><path d="M92.61,241.16a11.48,11.48,0,0,1-2.26-.2.67.67,0,0,0-.6.14.66.66,0,0,0-.26.55l0,1.83c-1.44-.22-2.39-.41-2.41-.41a.7.7,0,0,0-.84.7c0,.15.32,11.89.43,19.45l-4,3.63-.05.06-.08.07a3.13,3.13,0,0,0-.76,2.33,4.31,4.31,0,0,0,.32,1.59l-3.43,3a.5.5,0,0,0-.07.08,3.42,3.42,0,0,0-1,2.66,3.77,3.77,0,0,0,2.66,3.95l41,11.51h.08l0,0a.62.62,0,0,0,.23,0,.72.72,0,0,0,.56-.28l12.52-16.15a.71.71,0,0,0-.28-1.08,1.2,1.2,0,0,1-.61-.79,7.55,7.55,0,0,1-.1-2.37l0-1s0-.05,0-.07a.24.24,0,0,0,0-.08.7.7,0,0,0-.63-.77l-2.11-.21.71-.82a.68.68,0,0,0,.15-.61.72.72,0,0,0-.4-.5.9.9,0,0,1-.49-.6,6,6,0,0,1-.12-2V264l0-.1a.71.71,0,0,0-.65-.76l-3.19-.26c0-6.41.13-19.24.13-22.07a.7.7,0,0,0-.29-.56.68.68,0,0,0-.63-.11c-.84.27-1.83.52-2.75.73,0-1.55,0-2.52,0-2.56a.7.7,0,0,0-.34-.6.69.69,0,0,0-.68,0,10.82,10.82,0,0,1-4.27,1,5.57,5.57,0,0,1-2.18-.41,11.92,11.92,0,0,0-4.59-1.16l-.28,0a6,6,0,0,0,1.75-2.86.46.46,0,0,0-.16-.49.47.47,0,0,0-.52,0,9.08,9.08,0,0,1-1.09.46,9.4,9.4,0,0,0,1.2-2.65.46.46,0,0,0-.16-.49.45.45,0,0,0-.51-.05,8.05,8.05,0,0,1-1.16.5,9.08,9.08,0,0,0,.87-2.06.48.48,0,0,0-.14-.47.49.49,0,0,0-.49-.1,10.07,10.07,0,0,1-1.93.55,5.91,5.91,0,0,1-1.16-3c-.13-.81-.25-1.52-.91-1.52s-.84.8-1,1.65a5.79,5.79,0,0,1-1.09,3.06,7.94,7.94,0,0,1-1.82-.67.45.45,0,0,0-.51,0,.46.46,0,0,0-.16.49,8.54,8.54,0,0,0,.86,2.05,8.78,8.78,0,0,1-1.16-.49.47.47,0,0,0-.51.05.46.46,0,0,0-.16.49,9.24,9.24,0,0,0,1.19,2.64,11.52,11.52,0,0,1-1.09-.45.45.45,0,0,0-.51,0,.48.48,0,0,0-.16.49,6.13,6.13,0,0,0,2.8,3.65,10.66,10.66,0,0,0-4.19,1.49A13.17,13.17,0,0,1,92.61,241.16Zm-3.08,3.75.25,19.69a.68.68,0,0,0,.28.55.71.71,0,0,0,.6.12A44.56,44.56,0,0,1,100,264c3.06,0,5.12.61,6,1.76a25.94,25.94,0,0,0-7.91-1.18,29.26,29.26,0,0,0-10,1.77c0-5.89-.35-18.35-.44-21.75C88.15,244.69,88.78,244.8,89.53,244.91ZM86.71,265.1c0,.62,0,1.2,0,1.72l-1.56-.33ZM83.56,268a.84.84,0,0,1,.58-.24L90.07,269v3.77l-5.54-1.35c-.13,0-1.29-.33-1.33-2.1A1.85,1.85,0,0,1,83.56,268Zm.65,12.26-3.59-1c-.16,0-1.58-.43-1.58-2.58,0-1.63.76-1.89,1.25-1.9l3.92.95Zm23.82,6.7-22.89-6.43v-4.58L108,281.45Zm12.71,3.57L109,287.18v-5.5l11.78,2.85Zm11.7-16.31a2.55,2.55,0,0,0,.7,1.29l-10.81,13.95V284.1l9.94-11.6A5.75,5.75,0,0,0,132.44,274.18Zm-.66-3.27L121.25,283.2l-40-9.68,1.68-1.46a2.91,2.91,0,0,0,1.29.7L120,281.45l.17,0a.66.66,0,0,0,.37-.13.64.64,0,0,0,.31-.2l9-10.42Zm-40.3,2.16v-3.82l2,.42v3.89Zm3.41.83V270l13.84,2.89v4.42Zm15.25,3.71v-4.46l9.29,1.94,0,1.17v3.61ZM127,264.27l1.78.14-1.8,1.93C127,266,127,265.29,127,264.27Zm2.4,1.55a4.9,4.9,0,0,0,.17,1.37,2.11,2.11,0,0,0,.56,1.05L121,278.87l-.09-2.64V275Zm-3.23,1.39-6.13,6.58L89.52,267.4a27.66,27.66,0,0,1,8.57-1.4,23,23,0,0,1,8.31,1.41.72.72,0,0,0,.61,0c1.66-.89,4.27-1.34,7.77-1.34a65.57,65.57,0,0,1,11.4,1.18Zm-20.15-1.38h0a.49.49,0,0,0,.14.11.49.49,0,0,1-.14-.11Zm16.56-.9a.7.7,0,0,0,.61-.11.75.75,0,0,0,.28-.56c0-4.72,0-15.95,0-22,.72-.16,1.49-.34,2.25-.55,0,4.19-.09,16.06-.13,21.71h0c0,.92,0,1.7,0,2.23a65.64,65.64,0,0,0-10.84-1.05,21.5,21.5,0,0,0-7.21,1c.57-.59,2.38-2,6.67-2A32.63,32.63,0,0,1,122.62,264.93ZM111.44,238.5a10.31,10.31,0,0,1,4,1.05,6.85,6.85,0,0,0,2.73.53,11.56,11.56,0,0,0,3.89-.75c0,3.92.06,17.78,0,24a32.31,32.31,0,0,0-7.87-1.13,11.91,11.91,0,0,0-6.75,1.66l.43-24.27A6.73,6.73,0,0,1,111.44,238.5ZM102,235a8.13,8.13,0,0,0,1.81.44.47.47,0,0,0,.49-.3.48.48,0,0,0-.17-.55,5.37,5.37,0,0,1-1.62-2.33,7.65,7.65,0,0,0,1.8.45.47.47,0,0,0,.49-.3.46.46,0,0,0-.17-.54,4.32,4.32,0,0,1-1.14-1.7,5.76,5.76,0,0,0,1.37.36.48.48,0,0,0,.38-.13,6.36,6.36,0,0,0,1.51-3.77s0-.07,0-.11h0a6.5,6.5,0,0,0,1.57,3.71.45.45,0,0,0,.38.13,8.42,8.42,0,0,0,1.48-.32,4.43,4.43,0,0,1-1.21,1.83.47.47,0,0,0-.17.55.48.48,0,0,0,.49.3,7.69,7.69,0,0,0,1.82-.46,5.46,5.46,0,0,1-1.63,2.33.48.48,0,0,0-.18.55.49.49,0,0,0,.49.31,7.66,7.66,0,0,0,1.83-.45,5.48,5.48,0,0,1-9.64,0Zm2.44,4.24a5.3,5.3,0,0,1,2.1.4c-.06,2.44-.33,14.51-.54,24.22a11.38,11.38,0,0,0-6-1.27,43.39,43.39,0,0,0-8.82,1.1l-.28-21.23a15.33,15.33,0,0,0,1.71.09,14.52,14.52,0,0,0,7.39-1.95A8.61,8.61,0,0,1,104.41,239.25Z" fill="#1f437d"/><path d="M44.91,156.21a10.24,10.24,0,0,0,20.48,0,.77.77,0,0,0-.06-.3L55.8,134.27a.69.69,0,0,0-.64-.42H37.51l-.25-4.94a.7.7,0,0,0-.7-.66.69.69,0,0,0-.7.66l-.25,4.94H18.21a.69.69,0,0,0-.64.42L8,155.91a.77.77,0,0,0-.06.3,10.24,10.24,0,0,0,20.48,0,.77.77,0,0,0-.06-.3l-8-18h15L33.5,176.16H27.32a.7.7,0,0,0-.7.7V180a.7.7,0,0,0,.7.7h6l-.42,8.42H30.45a.7.7,0,0,0-.51.22.72.72,0,0,0-.2.5,7,7,0,0,0,14,0,.67.67,0,0,0-.19-.5.72.72,0,0,0-.51-.22H40.3l-.43-8.42h6.32a.7.7,0,0,0,.71-.7v-3.14a.7.7,0,0,0-.71-.7H39.64l-1.93-38.29H52.93l-8,18A.77.77,0,0,0,44.91,156.21ZM42.3,190.53a5.62,5.62,0,0,1-11.09,0Zm-3.79-8.92.11,2.11-4.26,3.55.11-2.27Zm-3.94,1.47.11-2.38H37.4Zm4.13,2.4.19,3.63H34.34Zm.28-7.91h6.51v1.73H28v-1.73H39Zm-.74-1.41H34.91L36.56,143Zm16.41-38.71a.69.69,0,0,0-.64-1H37a.67.67,0,0,0-.41.13.67.67,0,0,0-.41-.13H19.36a.7.7,0,0,0-.58.31.67.67,0,0,0-.06.67l8.33,18.88a8.84,8.84,0,0,1-17.66,0l9.28-21.07H36.28a.88.88,0,0,0,.28-.06.88.88,0,0,0,.28.06H54.7L64,156.33a8.83,8.83,0,0,1-17.65,0Z" fill="#1f437d"/><path d="M18.22,139.11a.72.72,0,0,0-.65.43l-7,16.15a.71.71,0,0,0,.65,1h14a.71.71,0,0,0,.59-1.09l-7-16.05A.72.72,0,0,0,18.22,139.11Zm5.94,16.16H12.28l5.94-13.68Z" fill="#1f437d"/><path d="M62.17,156.68a.71.71,0,0,0,.71-.71.8.8,0,0,0-.11-.38l-7-16.05a.7.7,0,0,0-.64-.43.71.71,0,0,0-.65.43l-7,16.15a.71.71,0,0,0,.65,1h14Zm-13-1.41,5.94-13.68,5.94,13.68Z" fill="#1f437d"/><path d="M71.94,214.06a2.49,2.49,0,1,0-2.49-2.49A2.48,2.48,0,0,0,71.94,214.06Z" fill="#1f437d"/><path d="M354.21,278.29a3.76,3.76,0,0,0-1.21.1.25.25,0,0,0-.16.25c0,.61,0,2,0,4.05v2.55c0,2.22,0,3.52,0,4.08a3.93,3.93,0,0,0,.19,1.45c.34.48,1.18.72,2.49.72a6.73,6.73,0,0,0,4.55-1.41c1.08-.93,1.62-2.58,1.62-4.9a6.52,6.52,0,0,0-1.88-4.92A7.84,7.84,0,0,0,354.21,278.29Z" fill="#1f437d" fill-rule="evenodd"/><polygon points="308.48 285.96 311.94 285.96 310.23 281.27 308.48 285.96" fill="#1f437d" fill-rule="evenodd"/><path d="M326.33,278.29a3.76,3.76,0,0,0-1.21.1.25.25,0,0,0-.16.25c0,.61,0,2,0,4.05v2.55c0,2.16,0,3.5,0,4.08a3.93,3.93,0,0,0,.19,1.45c.34.48,1.18.72,2.5.72a6.72,6.72,0,0,0,4.54-1.41c1.08-.93,1.63-2.58,1.63-4.9a6.52,6.52,0,0,0-1.89-4.92A7.83,7.83,0,0,0,326.33,278.29Z" fill="#1f437d" fill-rule="evenodd"/><path d="M291.28,278.29a3.62,3.62,0,0,0-1.2.1.25.25,0,0,0-.17.25c0,.61,0,2,0,4.05v2.55c0,2.22,0,3.51,0,4.08a4,4,0,0,0,.2,1.45c.33.48,1.17.72,2.49.72a6.72,6.72,0,0,0,4.54-1.41c1.08-.93,1.63-2.58,1.63-4.9a6.49,6.49,0,0,0-1.89-4.92A7.83,7.83,0,0,0,291.28,278.29Z" fill="#1f437d" fill-rule="evenodd"/><path d="M473.81,267.36h-317v34.72h317ZM180.62,277.7a4.27,4.27,0,0,0-.56.05c-.13,0-.54.1-.59,1,0,.44,0,1.88,0,4.29v2.16a14.3,14.3,0,0,1-.33,3.39,5.37,5.37,0,0,1-1.66,2.85,6.48,6.48,0,0,1-4.34,1.51,6.68,6.68,0,0,1-4.62-1.45c-1.24-1.11-1.87-3-1.87-5.51v-3c0-2.41,0-3.85,0-4.29a.92.92,0,0,0-.72-1,4.62,4.62,0,0,0-.75-.05c-.48,0-.53-.26-.53-.38s.11-.37.63-.37l1.66,0,1.3,0,1.16,0,1.33,0c.53,0,.64.2.64.38s0,.37-.52.37a3.15,3.15,0,0,0-.55.06c-.13,0-.54.09-.59,1,0,.43,0,1.88,0,4.28v2.84c0,2.39.51,4,1.51,4.84a4,4,0,0,0,5.07-.24,3.93,3.93,0,0,0,1-2.06,18.94,18.94,0,0,0,.16-2.84V283c0-2.4,0-3.85,0-4.28s-.27-.88-.73-1a3.1,3.1,0,0,0-.68-.06c-.49,0-.54-.26-.54-.37s.11-.38.62-.38,1.37,0,2.34.06l.93,0,1.37,0c.5,0,.61.2.61.37S181.12,277.7,180.62,277.7Zm19.42,0c-.59,0-.93.17-1,.54a5.31,5.31,0,0,0-.12,1.05l-.22,12.78c0,.21,0,.82-.45.82-.21,0-.47-.16-.82-.5l-6-6c-.9-.88-1.94-2-3.1-3.22l-1.44-1.58.21,8.06c.05,1.65.38,2,.58,2.08l.75.09c.49.06.77.15.77.39s-.11.39-.65.39l-1.61,0-.9,0-.77,0-1.42,0c-.53,0-.64-.21-.64-.39s.48-.35.7-.37l.71-.08c.15-.05.27-.22.34-.51a12.74,12.74,0,0,0,.12-1.82l.18-12c0-.22,0-.87.45-.87.15,0,.35.11.89.69,1.08,1.15,3.13,3.28,6.28,6.5,0,0,2.8,2.91,4.22,4.37l-.2-8.71a6.06,6.06,0,0,0-.07-1,.85.85,0,0,0-.5-.65,2.81,2.81,0,0,0-1-.11c-.48,0-.51-.29-.51-.38,0-.37.54-.37.71-.37l1.47,0,1,0,.71,0,1.28,0c.54,0,.66.2.66.37S200.54,277.7,200,277.7Zm9.83,14.94-1.88,0-1.28,0-1.14,0-1.41,0c-.52,0-.6-.24-.6-.39,0-.32.45-.36.62-.37a6,6,0,0,1,.61-.06c.21-.05.35-.33.41-.83s.1-2.08.1-4.41V283c0-2.45,0-3.85,0-4.29,0-.83-.42-.93-.55-1a2.7,2.7,0,0,0-.65-.07c-.49,0-.54-.28-.54-.39,0-.36.51-.36.68-.36l1.39,0,1.24,0,1.13,0,1.34,0c.41,0,.61.12.61.36,0,.09,0,.39-.48.39a4.27,4.27,0,0,0-.59.05c-.13,0-.54.1-.59,1,0,.44,0,1.84,0,4.29v3.56c0,2.45,0,3.89.08,4.41.06.67.4.8.64.83a7.83,7.83,0,0,0,1,.08c.46,0,.51.24.51.35S210.37,292.64,209.87,292.64Zm19.06-14.94a1.59,1.59,0,0,0-.88.21,4.15,4.15,0,0,0-1.07,1.74q-.64,1.5-2.41,5.49l-2.69,6.17c-.3.67-.48,1.07-.55,1.21s-.35.41-.56.41a.6.6,0,0,1-.5-.36,9.82,9.82,0,0,1-.44-1l-5.11-12.37a3,3,0,0,0-.62-1.05,1.93,1.93,0,0,0-.79-.38,2.93,2.93,0,0,0-.74-.07.38.38,0,0,1-.43-.38c0-.37.54-.37.71-.37l1.62,0,1.32,0,1.05,0,1.44,0c.44,0,.66.13.66.37s0,.38-.49.38-.63.06-.69.11a.28.28,0,0,0-.12.26,5.9,5.9,0,0,0,.46,1.5l3.35,8.84q1.68-4.26,3.85-9.74a2.42,2.42,0,0,0,.16-.68.19.19,0,0,0-.15-.21,2.63,2.63,0,0,0-.73-.08c-.46,0-.53-.22-.53-.36,0-.39.57-.39.75-.39l1.36,0,.77,0,.84,0,1.06,0c.51,0,.62.2.62.37S229.41,277.7,228.93,277.7ZM240.43,292a.82.82,0,0,1-.39.57,2.48,2.48,0,0,1-.89.09c-1.17,0-2.35,0-3.51-.06l-2.1-.06-1.14,0-1.41,0c-.52,0-.6-.24-.6-.39,0-.32.45-.36.62-.37s.41-.05.61-.06.35-.38.42-.95.1-2,.1-4.29V283c0-2.45,0-3.85,0-4.29a.93.93,0,0,0-.73-1,4.48,4.48,0,0,0-.74-.05c-.49,0-.54-.26-.54-.38s.11-.37.64-.37l1.65,0,1.26,0c3.5,0,4.91,0,5.05,0a5.23,5.23,0,0,0,.84-.11l.16,0v0h.22c.15,0,.31.1.31.37,0,0,0,.15-.06.4s-.07.57-.09.93-.06.81-.11,1.34c-.07.37-.32.4-.4.4s-.31,0-.36-.39c0-.15,0-.29-.05-.43a1.07,1.07,0,0,0-.07-.32c-.13-.31-.54-.52-1.2-.6-.45-.06-1.42-.08-2.87-.08l.05,5.13c.77,0,1.4,0,1.89,0,.7,0,1.13,0,1.3,0a3.93,3.93,0,0,0,.5,0,.76.76,0,0,0,.35-.18c.23-.25.35-.33.47-.33a.32.32,0,0,1,.33.35s0,.15-.06.42-.08.67-.1,1.07c-.06.76-.08,1.21-.08,1.35,0,.49-.24.57-.38.57a.36.36,0,0,1-.37-.4,5,5,0,0,0-.08-.67c-.09-.36-.41-.57-1-.63-.26,0-1-.06-2.87-.06l.07,4.75a1.59,1.59,0,0,0,.4,1.23,3.51,3.51,0,0,0,1.85.28,4.64,4.64,0,0,0,1.83-.23,1.68,1.68,0,0,0,.81-1.36c.07-.38.26-.46.41-.46s.35.08.35.56A9.24,9.24,0,0,1,240.43,292Zm19.64.6h-1.93a4.86,4.86,0,0,1-2.25-.4,10.56,10.56,0,0,1-2.84-3c-.59-.82-1.25-1.75-2-2.79,0,0,0-.06-.21-.06h-1.76l0,.25c0,2.26,0,3.7.1,4.28.1.88.49.92.62.94a8.31,8.31,0,0,0,1,.08c.32,0,.43.18.43.35s-.07.39-.59.39l-1.82,0-1.16,0-1.06,0-1.41,0c-.52,0-.59-.24-.59-.39,0-.32.45-.36.61-.37a6.2,6.2,0,0,1,.62-.06c.18-.05.34-.38.41-.95s.1-2,.1-4.29V283c0-2.45,0-3.85,0-4.29a.93.93,0,0,0-.73-1,4.48,4.48,0,0,0-.74-.05c-.49,0-.54-.26-.54-.38s.11-.37.64-.37l1.64,0,1.13,0,1.45,0,1.41,0a6.81,6.81,0,0,1,3.83.91,3.12,3.12,0,0,1,1,1.09,3.52,3.52,0,0,1,.51,1.84c0,1.59-.87,3.12-2.6,4.56,1.73,2.18,2.21,2.77,2.31,2.88.78,1,1.44,1.75,2,2.29a4.18,4.18,0,0,0,2.17,1.32l.45,0c.42.05.51.23.51.37S260.57,292.64,260.07,292.64Zm7.95-.57a6,6,0,0,1-3.33.86,7.57,7.57,0,0,1-3-.54.85.85,0,0,1-.5-.87c0-.73,0-1.62.1-2.66,0-.18.06-.71.43-.71.1,0,.4,0,.4.54a3.87,3.87,0,0,0,.17,1,2.52,2.52,0,0,0,2.72,1.91,2.6,2.6,0,0,0,1.91-.7,1.94,1.94,0,0,0,.61-1.42,4.12,4.12,0,0,0-1.91-3.1l-.93-.72c-2-1.6-3.07-3.27-3.07-5a3.58,3.58,0,0,1,1.36-2.89,5.29,5.29,0,0,1,3.5-1.12,11.31,11.31,0,0,1,2.74.35c.36.1.43.29.43.42v.14h0c0,.12,0,.32,0,.59,0,.51,0,1.08,0,1.71,0,.19,0,.79-.41.79-.12,0-.4-.05-.4-.55a2,2,0,0,0-.48-1.22,2.46,2.46,0,0,0-2.06-.92,2.37,2.37,0,0,0-1.63.53,1.72,1.72,0,0,0-.59,1.37,2.08,2.08,0,0,0,.42,1.23,7.94,7.94,0,0,0,1.65,1.53l.57.43a10.67,10.67,0,0,1,2.62,2.59,5,5,0,0,1,.78,2.72A4.17,4.17,0,0,1,268,292.07Zm12.53.57-1.88,0-1.28,0-1.14,0-1.41,0c-.52,0-.6-.24-.6-.39,0-.32.45-.36.62-.37s.41-.05.61-.06.36-.33.42-.83.1-2.08.1-4.41V283c0-2.41,0-3.85-.05-4.29-.05-.83-.42-.93-.54-1a2.81,2.81,0,0,0-.65-.07c-.49,0-.55-.28-.55-.39,0-.36.51-.36.68-.36l1.39,0,1.24,0,1.13,0,1.34,0c.41,0,.62.12.62.36,0,.09,0,.39-.48.39a4.28,4.28,0,0,0-.6.05c-.13,0-.53.1-.58,1,0,.43,0,1.83,0,4.29v3.56c0,2.45,0,3.89.08,4.41.06.67.39.8.63.83a8.12,8.12,0,0,0,1,.08c.47,0,.52.24.52.35S281.05,292.64,280.55,292.64Zm19.07-2.26c-1.59,1.62-3.92,2.45-6.92,2.45-.52,0-1.29,0-2.34-.13s-1.68-.12-2-.12l-1.14,0-1.41,0c-.52,0-.6-.24-.6-.39,0-.32.45-.36.62-.37a6,6,0,0,1,.61-.06c.25-.06.36-.55.41-.95s.1-2,.1-4.29V283c0-2.45,0-3.85,0-4.29a.92.92,0,0,0-.72-1,4.72,4.72,0,0,0-.75-.05c-.48,0-.53-.26-.53-.38s.11-.37.63-.37l1.66,0,1.26,0,1.33,0,1.79,0a23.46,23.46,0,0,1,4.21.29,7.56,7.56,0,0,1,4.05,2.08,7.35,7.35,0,0,1,2,5.28A8,8,0,0,1,299.62,290.38ZM319,292.6a4.51,4.51,0,0,1-.77,0c-1.68,0-2.95,0-3.83,0-.3,0-.79,0-.79-.35,0-.08,0-.34.46-.37a.17.17,0,0,0,0-.21l-1.62-4.29-4.54,0-1.09,2.93a3.66,3.66,0,0,0-.3,1.17c0,.22.08.44.62.44h.31c.44,0,.49.24.49.35s0,.39-.53.39l-1.09,0-1.06,0c-1.17,0-2,.06-2.39.06s-.57-.24-.57-.39.11-.35.43-.35a3.86,3.86,0,0,0,.6,0,1.37,1.37,0,0,0,.93-.5,4.27,4.27,0,0,0,.64-1.2L310,277.44c.26-.66.49-.93.75-.93s.44.22.68.76q1.86,4.71,5,12.46c.54,1.27,1.1,2,1.65,2.09a3.76,3.76,0,0,0,.81.08c.42,0,.45.27.45.35S319.32,292.54,319,292.6Zm15.66-2.22c-1.6,1.62-3.93,2.45-6.92,2.45-.52,0-1.29,0-2.35-.13s-1.67-.12-2-.12l-1.14,0-1.41,0c-.52,0-.59-.24-.59-.39,0-.32.45-.36.62-.37a5.73,5.73,0,0,1,.61-.06c.19-.05.34-.38.41-.95s.1-2,.1-4.29V283c0-2.45,0-3.85,0-4.29a.93.93,0,0,0-.72-1,4.72,4.72,0,0,0-.75-.05c-.49,0-.54-.26-.54-.38s.11-.37.64-.37l1.65,0,1.26,0,1.34,0,1.78,0a23.38,23.38,0,0,1,4.21.29,7.49,7.49,0,0,1,4.05,2.08,7.34,7.34,0,0,1,2,5.28A8,8,0,0,1,334.67,290.38Zm27.88,0c-1.6,1.62-3.93,2.45-6.92,2.45-.52,0-1.29,0-2.35-.13s-1.67-.12-2-.12l-1.14,0-1.41,0c-.52,0-.59-.24-.59-.39,0-.32.45-.36.61-.37a6.2,6.2,0,0,1,.62-.06c.18-.05.34-.38.41-.95s.1-2,.1-4.29V283c0-2.45,0-3.85,0-4.29a.93.93,0,0,0-.73-1,4.48,4.48,0,0,0-.74-.05c-.49,0-.54-.26-.54-.38s.11-.37.64-.37l1.65,0,1.26,0,1.33,0,1.79,0a23.38,23.38,0,0,1,4.21.29,7.53,7.53,0,0,1,4.05,2.08,7.36,7.36,0,0,1,2,5.28A8,8,0,0,1,362.55,290.38ZM377.84,292a.85.85,0,0,1-.39.57,2.53,2.53,0,0,1-.89.09q-1.77,0-3.51-.06l-2.1-.06-1.14,0-1.41,0c-.52,0-.6-.24-.6-.39,0-.32.45-.36.62-.37s.41-.05.61-.06.35-.38.41-.95.1-1.95.1-4.29V283c0-2.45,0-3.86,0-4.29a.92.92,0,0,0-.72-1,4.72,4.72,0,0,0-.75-.05c-.48,0-.53-.26-.53-.38s.11-.37.64-.37l1.65,0,1.26,0c3.5,0,4.9,0,5.05,0a5.23,5.23,0,0,0,.84-.11l.16,0v0h.22c.14,0,.31.1.31.37,0,0,0,.15-.06.4s-.07.57-.09.93-.06.81-.11,1.34c-.07.36-.3.4-.4.4s-.31,0-.36-.39c0-.15,0-.29-.05-.43a1.38,1.38,0,0,0-.07-.32c-.13-.31-.54-.52-1.21-.6-.44-.06-1.41-.08-2.86-.08l0,5.13c.77,0,1.4,0,1.89,0,.7,0,1.12,0,1.29,0a4.13,4.13,0,0,0,.51,0,.61.61,0,0,0,.34-.18c.24-.25.35-.33.47-.33a.33.33,0,0,1,.34.35s0,.16-.07.43-.07.66-.1,1.06c-.05.76-.08,1.21-.08,1.35,0,.49-.23.57-.37.57a.36.36,0,0,1-.37-.4,5,5,0,0,0-.08-.67c-.09-.36-.41-.57-1-.63-.38,0-1.34-.06-2.86-.06l.07,4.75c0,.64.15,1.06.39,1.23a3.57,3.57,0,0,0,1.85.28,4.67,4.67,0,0,0,1.84-.23,1.65,1.65,0,0,0,.8-1.36c.08-.4.29-.46.42-.46s.35.08.35.56A9.13,9.13,0,0,1,377.84,292Zm17.29-2.42a5.8,5.8,0,0,0,4.08,1.75,9.06,9.06,0,0,0,2-.16,2.78,2.78,0,0,0,1.59-.91,2.56,2.56,0,0,0,.65-1.25c0-.14.12-.55.45-.55.09,0,.37,0,.37.49,0,.15-.05.55-.14,1.2a12.72,12.72,0,0,1-.3,1.53,1.09,1.09,0,0,1-.65.73,12.91,12.91,0,0,1-10.78-1.77,7.73,7.73,0,0,1-2.58-6.12,7.32,7.32,0,0,1,2.43-5.68,9.36,9.36,0,0,1,6.55-2.21,23.64,23.64,0,0,1,3,.2c.48.1,1.16.21,2,.35.43,0,.46.33.46.43a2.48,2.48,0,0,1-.05.38c0,.22-.06.48-.07.74,0,.59-.05,1.32-.08,2.19,0,.43-.18.65-.43.65s-.4-.11-.4-.64a2.53,2.53,0,0,0-.73-1.73,3.68,3.68,0,0,0-1.52-.84,8.08,8.08,0,0,0-2.46-.36,5.3,5.3,0,0,0-3.68,1.21,6.63,6.63,0,0,0-1.8,5.1A7,7,0,0,0,395.13,289.62Zm29.12,3-1.87,0-1.29,0-1.12,0-1.41,0c-.54,0-.62-.24-.62-.39,0-.32.45-.36.62-.37a6.2,6.2,0,0,1,.62-.06c.18-.05.34-.38.41-.95,0-.36.1-1.4.1-4.29V284.8l-7.67.07.07,1.71c0,2.32,0,3.73.1,4.31.1.85.5.91.63.93a7.83,7.83,0,0,0,1,.08c.47,0,.52.24.52.35s-.08.39-.6.39l-1.87,0-1.29,0-1.14,0-1.41,0c-.52,0-.6-.24-.6-.39,0-.32.45-.36.62-.37a6.2,6.2,0,0,1,.62-.06c.18-.05.34-.38.4-.95s.1-1.95.1-4.29V283c0-2.45,0-3.86,0-4.29a.93.93,0,0,0-.73-1,4.57,4.57,0,0,0-.74-.05c-.49,0-.54-.26-.54-.38s.11-.37.62-.37l1.66,0,1.25,0,1.16,0,1.39,0c.51,0,.62.2.62.37s-.06.38-.56.38a4.28,4.28,0,0,0-.55.05c-.23.05-.54.19-.59,1,0,.43,0,1.84,0,4.29v.42l7.67-.05-.07-.37c0-2.31,0-3.83,0-4.29a.93.93,0,0,0-.73-1,4.48,4.48,0,0,0-.74-.05c-.48,0-.54-.26-.54-.38s.11-.37.62-.37l1.66,0,1.25,0,1.16,0,1.4,0c.5,0,.61.2.61.37s0,.38-.55.38a4.27,4.27,0,0,0-.56.05c-.13,0-.54.1-.59,1,0,.43,0,1.79,0,4.29v3.56c0,2.32,0,3.73.1,4.31.1.85.5.91.63.93a7.83,7.83,0,0,0,1,.08c.47,0,.52.24.52.35S424.77,292.64,424.25,292.64Zm9.74,0-1.87,0-1.28,0-1.14,0-1.42,0c-.51,0-.59-.24-.59-.39,0-.32.45-.36.62-.37a5.73,5.73,0,0,1,.61-.06c.2-.05.35-.33.41-.84s.1-2,.1-4.4V283c0-2.45,0-3.86,0-4.29-.05-.83-.43-.93-.55-1a2.81,2.81,0,0,0-.65-.07c-.49,0-.54-.28-.54-.39,0-.36.5-.36.67-.36l1.4,0,1.23,0,1.13,0,1.35,0c.41,0,.61.12.61.36,0,.09,0,.39-.48.39a4.54,4.54,0,0,0-.6.05c-.12,0-.53.1-.58,1,0,.43,0,1.84,0,4.29v3.56c0,2.4,0,3.89.08,4.42s.39.79.64.82a7.83,7.83,0,0,0,1,.08c.46,0,.51.24.51.35S434.49,292.64,434,292.64Zm15.18-.62a.84.84,0,0,1-.63.64,3.89,3.89,0,0,1-.83,0c-1.09,0-2.23,0-3.43-.06s-2-.06-2.46-.06l-1.14,0-1.42,0c-.52,0-.59-.24-.59-.39,0-.32.45-.36.62-.37a5.73,5.73,0,0,1,.61-.06c.19-.05.34-.38.41-.95s.1-1.95.1-4.29V283c0-2.5,0-3.86,0-4.29a1,1,0,0,0-.36-.86,1.92,1.92,0,0,0-1-.17c-.48,0-.53-.26-.53-.38s.11-.37.63-.37l1.55,0,1.23,0,1.26,0,1.49,0c.51,0,.61.2.61.37s-.05.38-.55.38a5.7,5.7,0,0,0-.76.05c-.13,0-.54.1-.59,1,0,.43,0,1.79,0,4.29v3.56c0,1.5,0,2.51.06,3,.07.92.23,1.15.3,1.21s.78.4,2.33.4,2-.28,2.23-.51a1.85,1.85,0,0,0,.47-1.1c.06-.43.31-.48.41-.48s.36.07.36.54A9.36,9.36,0,0,1,449.17,292Zm13.25,0a.77.77,0,0,1-.39.57,2.43,2.43,0,0,1-.89.09c-1.17,0-2.34,0-3.5-.06l-2.1-.06-1.14,0-1.42,0c-.51,0-.59-.24-.59-.39,0-.32.45-.36.62-.37a6,6,0,0,1,.61-.06c.19-.05.34-.38.41-.95s.1-1.95.1-4.29V283c0-2.5,0-3.86,0-4.29s-.26-.87-.72-1a4.72,4.72,0,0,0-.75-.05c-.48,0-.53-.26-.53-.38s.11-.37.63-.37l1.65,0,1.27,0c3.5,0,4.9,0,5.05,0a5.39,5.39,0,0,0,.84-.11l.15,0v0h.22c.14,0,.31.1.31.37,0,0,0,.15-.07.4s-.07.57-.09.93-.05.81-.11,1.34c-.06.36-.29.4-.39.4s-.31,0-.36-.39c0-.15,0-.29-.05-.43a1.5,1.5,0,0,0-.08-.32c-.13-.31-.53-.52-1.2-.6-.45-.06-1.41-.08-2.86-.08l0,5.13c.77,0,1.4,0,1.89,0,.7,0,1.13,0,1.3,0a3.73,3.73,0,0,0,.5,0,.71.71,0,0,0,.35-.18c.23-.25.35-.33.47-.33a.32.32,0,0,1,.33.35s0,.16-.06.43-.07.66-.1,1.06c-.06.76-.08,1.21-.08,1.35,0,.49-.23.57-.37.57a.37.37,0,0,1-.38-.4,3.71,3.71,0,0,0-.08-.67c-.08-.36-.4-.57-1-.63-.26,0-1-.06-2.87-.06l.07,4.75c0,.64.16,1.06.4,1.23a3.54,3.54,0,0,0,1.85.28,4.6,4.6,0,0,0,1.83-.23,1.66,1.66,0,0,0,.81-1.36c.08-.4.29-.46.41-.46s.35.08.35.56A9.13,9.13,0,0,1,462.42,292Z" fill="#1f437d" fill-rule="evenodd"/><path d="M250.16,278.29a3,3,0,0,0-1,.08l0,6.24c0,.08,0,.18.05.19a4.46,4.46,0,0,0,1.48.19,2.19,2.19,0,0,0,1.32-.31,3.33,3.33,0,0,0,1.12-2.88,3.68,3.68,0,0,0-1-2.8A2.74,2.74,0,0,0,250.16,278.29Z" fill="#1f437d" fill-rule="evenodd"/></g></g></svg>