<svg xmlns="http://www.w3.org/2000/svg" viewBox="0 0 544.62 100"><defs><style>.cls-1,.cls-2{fill:#d42e12;}.cls-1,.cls-17,.cls-3,.cls-4,.cls-8{fill-rule:evenodd;}.cls-3{fill:#666;}.cls-10,.cls-11,.cls-12,.cls-13,.cls-15,.cls-16,.cls-4,.cls-5,.cls-6,.cls-7,.cls-8,.cls-9{fill:none;}.cls-10,.cls-11,.cls-12,.cls-14,.cls-15,.cls-16,.cls-5,.cls-6,.cls-7,.cls-8,.cls-9{stroke:#636b70;}.cls-15,.cls-16,.cls-5{stroke-miterlimit:3.86;}.cls-5{stroke-width:0.69px;}.cls-11,.cls-12,.cls-13,.cls-14,.cls-6,.cls-7,.cls-8{stroke-miterlimit:3.86;}.cls-13,.cls-6,.cls-8{stroke-width:0.34px;}.cls-14,.cls-7{stroke-width:0.22px;}.cls-10,.cls-9{stroke-linecap:round;stroke-linejoin:round;}.cls-9{stroke-width:0.34px;}.cls-10{stroke-width:0.22px;}.cls-11{stroke-width:0.24px;}.cls-12{stroke-width:0.66px;}.cls-13{stroke:#fff;}.cls-14,.cls-17{fill:#636b70;}.cls-15{stroke-width:0.62px;}.cls-16{stroke-width:0.32px;}</style></defs><g id="Capa_2" data-name="Capa 2"><g id="Layer_1" data-name="Layer 1"><polygon class="cls-1" points="431.89 85.46 446.86 85.46 446.86 83.66 433.91 83.66 433.91 74.88 445.9 74.88 445.9 73.09 433.91 73.09 433.91 65.06 446.71 65.06 446.71 63.26 431.89 63.26 431.89 85.46"/><path class="cls-1" d="M417.3,63.26h-7.42v22.2h7.42q9.81-.21,9.87-11.1T417.3,63.26Zm-1,20.4h-4.38V65.06h4.38q9-.36,8.88,9.3Q425.24,84,416.27,83.66Z"/><polygon class="cls-1" points="529.66 85.46 544.62 85.46 544.62 83.66 531.67 83.66 531.67 74.88 543.67 74.88 543.67 73.09 531.67 73.09 531.67 65.06 544.48 65.06 544.48 63.26 529.66 63.26 529.66 85.46"/><polygon class="cls-1" points="512.24 85.46 526.31 85.46 526.31 83.66 514.25 83.66 514.25 63.26 512.24 63.26 512.24 85.46"/><rect class="cls-2" x="504.81" y="63.26" width="2.02" height="22.2"/><polygon class="cls-1" points="482.07 85.46 484.08 85.46 484.08 74.7 496.9 74.7 496.9 85.46 498.92 85.46 498.92 63.26 496.9 63.26 496.9 72.9 484.08 72.9 484.08 63.26 482.07 63.26 482.07 85.46"/><path class="cls-1" d="M477.23,69.92a7.76,7.76,0,0,0-3-5.35,9.29,9.29,0,0,0-5.66-1.84q-5.05.09-7.58,3.48a13.05,13.05,0,0,0-2.56,8.12,12.77,12.77,0,0,0,2.56,8c1.68,2.32,4.21,3.5,7.58,3.56q7.82-.19,8.94-8.94h-2a8.75,8.75,0,0,1-2.08,5,6.13,6.13,0,0,1-4.82,2.11A7,7,0,0,1,462.39,81a11.53,11.53,0,0,1-1.92-6.7,11.7,11.7,0,0,1,1.92-6.74,7.08,7.08,0,0,1,6.19-3.06,6.82,6.82,0,0,1,4.22,1.37,6.71,6.71,0,0,1,2.37,4Z"/><path class="cls-1" d="M386.85,63.26h-7.43v22.2h7.43q9.79-.21,9.86-11.1T386.85,63.26Zm-1,20.4h-4.38V65.06h4.38q9-.36,8.87,9.3Q394.79,84,385.82,83.66Z"/><path class="cls-1" d="M367.7,63.26h-2.29l-8.67,22.2h2.19l2.59-6.91h9.8l2.62,6.91h2.2Zm-5.55,13.49,4.32-11.41,4.16,11.41Z"/><path class="cls-1" d="M344.54,63.26h-7.43v22.2h7.43q9.79-.21,9.86-11.1T344.54,63.26Zm-1,20.4h-4.38V65.06h4.38q9-.36,8.87,9.3Q352.47,84,343.51,83.66Z"/><rect class="cls-2" x="329.69" y="63.26" width="2.02" height="22.2"/><path class="cls-1" d="M308.12,78.16c-.06,2.67.71,4.63,2.32,5.9a10,10,0,0,0,6.29,1.86,11.19,11.19,0,0,0,4.57-.82,6.2,6.2,0,0,0,2.44-1.79,5.66,5.66,0,0,0,1.06-2.17,9.36,9.36,0,0,0,.18-1.58,6.23,6.23,0,0,0-.41-2.38,4.42,4.42,0,0,0-1.22-1.61,9.71,9.71,0,0,0-4-1.87l-5.27-1.34a5.26,5.26,0,0,1-2.26-1.1,2.85,2.85,0,0,1-1-2.3,3.79,3.79,0,0,1,1.68-3.47,7,7,0,0,1,3.75-1,6.7,6.7,0,0,1,4.08,1.24,5,5,0,0,1,1.82,3.86h2a6.21,6.21,0,0,0-2.36-5.16,8.94,8.94,0,0,0-5.59-1.74,9.82,9.82,0,0,0-3.68.65A5.77,5.77,0,0,0,310.31,65a7.18,7.18,0,0,0-1.15,2.06,6.76,6.76,0,0,0-.32,1.93,4.51,4.51,0,0,0,1.5,3.7,6.56,6.56,0,0,0,1.55,1,12.82,12.82,0,0,0,1.82.68l4.8,1.22a8.51,8.51,0,0,1,3,1.25,4,4,0,0,1,1.06,1.11A3.37,3.37,0,0,1,323,79.6a4,4,0,0,1-.55,2.06,5.13,5.13,0,0,1-1.46,1.4,7.4,7.4,0,0,1-3.73,1.06,8.77,8.77,0,0,1-5.05-1.3c-1.34-.87-2-2.43-2-4.66Z"/><path class="cls-1" d="M304.27,84.27a7.87,7.87,0,0,1-.31-1.52l-.21-3a6.67,6.67,0,0,0-.88-3.35A3.75,3.75,0,0,0,300,74.77a5.44,5.44,0,0,0,3.15-2.07,6.47,6.47,0,0,0,1-3.66,5.26,5.26,0,0,0-1.89-4.42,7.73,7.73,0,0,0-4.63-1.36H287.8v22.2h2V75.6h7.78a4,4,0,0,1,2.33.47,3.05,3.05,0,0,1,1.24,1.49,7,7,0,0,1,.6,2.08l.15,2.37.15,1.7a5,5,0,0,0,.43,1.75h2.25A3.68,3.68,0,0,1,304.27,84.27ZM297.49,73.8h-7.67V65.06h7.67q4.65.09,4.65,4.41a4.05,4.05,0,0,1-1.36,3.18A4.84,4.84,0,0,1,297.49,73.8Z"/><polygon class="cls-1" points="268.66 85.46 283.62 85.46 283.62 83.66 270.67 83.66 270.67 74.88 282.67 74.88 282.67 73.09 270.67 73.09 270.67 65.06 283.48 65.06 283.48 63.26 268.66 63.26 268.66 85.46"/><polygon class="cls-1" points="255.09 85.46 257.48 85.46 265.46 63.26 263.29 63.26 256.36 83.13 249.31 63.26 247.12 63.26 255.09 85.46"/><rect class="cls-2" x="242.09" y="63.26" width="2.02" height="22.2"/><polygon class="cls-1" points="219.31 85.46 221.33 85.46 221.33 66.67 233.94 85.46 236.23 85.46 236.23 63.26 234.21 63.26 234.21 82.04 221.61 63.26 219.31 63.26 219.31 85.46"/><path class="cls-1" d="M197.11,77.47a8.81,8.81,0,0,0,1.95,5.9c1.31,1.66,3.43,2.51,6.38,2.55s5.14-.89,6.47-2.55a9,9,0,0,0,1.89-5.9V63.26h-2V77q-.15,7.27-6.35,7.12-6.12.16-6.32-7.12V63.26h-2Z"/><path class="cls-1" d="M115.68,45.77h5.13v9.77h-5.13V83.11c-1.21,10.33-8.17,17.92-19.42,16.6L97.1,90c4.88.4,7.78-1.16,8.27-6.7l0-27.79h-4.84V45.77h4.84V39.21c.24-10.35,6.54-18,17.92-16.64v9.68c-4.87-.39-7.59,1.6-7.64,7Z"/><path class="cls-3" d="M91.23,86h8V76H92.09c-6.47,0-10.6-4.44-10.6-10.14s4.13-10.15,10.6-10.15h7.17V45.77h-8c-12.23,0-20,8.82-20,20.06S79,86,91.23,86ZM55.61,86h10.3V55.06h7.25V45.93H65.91c0-5.54,2.73-7.57,7.64-7.18V29.07c-11.46-1.33-17.79,6.4-17.94,16.86V21.82H54.48V100h1.13ZM182.35,62.67c0-10.53-6.72-17.94-17.94-17.94a16.68,16.68,0,0,0-12.77,5.7,16.11,16.11,0,0,0-12.78-5.7c-11,0-18.07,7.72-18.07,17.94V85.92h10.28V62.44c0-4.52,3.2-7.64,7.79-7.64,6.78,0,7.48,5.38,7.48,7.64V85.92h10.28V62.44a7.41,7.41,0,0,1,7.79-7.64c6.78,0,7.56,5.38,7.56,7.64V85.92h10.38V100h1V21.82h-1Zm192.17-6.85h1V50.75h4.94v-.86h-4.94V46h5.57v-.86h-6.53Zm8.1,0h1V45.18h-1ZM384.9,42.2h-1.12l-1.52,2.1H383Zm.41,10.12a3.27,3.27,0,0,0,1.11,2.83,4.76,4.76,0,0,0,3,.9,5.25,5.25,0,0,0,2.19-.4,2.79,2.79,0,0,0,1.17-.86,2.54,2.54,0,0,0,.51-1,4.34,4.34,0,0,0,.09-.76,3,3,0,0,0-.2-1.14,2.16,2.16,0,0,0-.58-.78,4.72,4.72,0,0,0-1.9-.9l-2.53-.64a2.48,2.48,0,0,1-1.08-.52,1.36,1.36,0,0,1-.49-1.11,1.82,1.82,0,0,1,.8-1.66,3.4,3.4,0,0,1,1.8-.46,3.25,3.25,0,0,1,2,.59,2.41,2.41,0,0,1,.88,1.86h1a3,3,0,0,0-1.13-2.48,4.27,4.27,0,0,0-2.68-.84,4.81,4.81,0,0,0-1.76.32,2.76,2.76,0,0,0-1.09.78,3.49,3.49,0,0,0-.55,1,3.2,3.2,0,0,0-.15.92,2.19,2.19,0,0,0,.72,1.78,3.32,3.32,0,0,0,.74.47,5.12,5.12,0,0,0,.88.32l2.3.59a3.83,3.83,0,0,1,1.43.6,1.72,1.72,0,0,1,.51.53,1.55,1.55,0,0,1,.19.8,1.88,1.88,0,0,1-.27,1,2.32,2.32,0,0,1-.69.67,3.6,3.6,0,0,1-1.8.51,4.19,4.19,0,0,1-2.42-.62,2.5,2.5,0,0,1-1-2.24Zm10,3.5h1V45.18h-1Zm11.75-7.44a3.7,3.7,0,0,0-1.44-2.57,4.43,4.43,0,0,0-2.71-.89,4.33,4.33,0,0,0-3.63,1.68,6.23,6.23,0,0,0-1.23,3.89,6.14,6.14,0,0,0,1.23,3.85,4.3,4.3,0,0,0,3.63,1.71q3.75-.11,4.29-4.29h-1a4.15,4.15,0,0,1-1,2.41,2.91,2.91,0,0,1-2.31,1,3.31,3.31,0,0,1-3-1.48,5.55,5.55,0,0,1-.92-3.21,5.61,5.61,0,0,1,.92-3.23,3.41,3.41,0,0,1,3-1.47,3.09,3.09,0,0,1,3.16,2.59Zm.84,7.44H409l1.24-3.31h4.71l1.25,3.31h1.05l-4-10.64h-1.1Zm4.67-9.64,2,5.47h-4.06Zm5.34,6.14A3.27,3.27,0,0,0,419,55.15a4.78,4.78,0,0,0,3,.9,5.25,5.25,0,0,0,2.19-.4,2.79,2.79,0,0,0,1.17-.86,2.54,2.54,0,0,0,.51-1A4.34,4.34,0,0,0,426,53a3,3,0,0,0-.2-1.14,2.16,2.16,0,0,0-.58-.78,4.66,4.66,0,0,0-1.9-.9l-2.53-.64a2.59,2.59,0,0,1-1.08-.52,1.42,1.42,0,0,1-.49-1.11,1.83,1.83,0,0,1,.81-1.66,3.35,3.35,0,0,1,1.8-.46,3.3,3.3,0,0,1,2,.59,2.43,2.43,0,0,1,.87,1.86h1a3,3,0,0,0-1.13-2.48,4.25,4.25,0,0,0-2.68-.84,4.81,4.81,0,0,0-1.76.32A2.65,2.65,0,0,0,419,46a3.53,3.53,0,0,0-.56,1,3.2,3.2,0,0,0-.15.92,2.19,2.19,0,0,0,.72,1.78,3.32,3.32,0,0,0,.74.47,5.12,5.12,0,0,0,.88.32l2.3.59a3.94,3.94,0,0,1,1.44.6,2,2,0,0,1,.51.53,1.66,1.66,0,0,1,.18.8,2,2,0,0,1-.26,1,2.48,2.48,0,0,1-.7.67,3.56,3.56,0,0,1-1.79.51,4.15,4.15,0,0,1-2.42-.62,2.5,2.5,0,0,1-1-2.24Zm17,3.5h1V51.44l4.08-6.26h-1.17l-3.38,5.39L432,45.18h-1.17l4.06,6.26Zm10.36,0h1v-9.2l3.57,9.2h.93l3.54-9.2,0,9.2h1V45.18h-1.45l-3.55,9.33-3.57-9.33h-1.44Zm11.32,0h1.05l1.24-3.31h4.7l1.26,3.31h1.05l-4-10.64h-1.1Zm4.66-9.64,2,5.47h-4.06Zm3.93-.14h3.6v9.78h1V46h3.6v-.86h-8.17Zm9.41,9.78h7.18V55h-6.21V50.75h5.75v-.86h-5.75V46h6.14v-.86h-7.11Zm8.82,0h1v-9.2l3.58,9.2h.92l3.54-9.2,0,9.2h1V45.18H492l-3.55,9.33-3.56-9.33h-1.45Zm11.32,0h1.05L497,52.51h4.7L503,55.82H504l-4-10.64h-1.1Zm4.67-9.64,2,5.47h-4.06Zm2-4h-1.13l-1.51,2.1h.73ZM504.16,46h3.59v9.78h1V46h3.6v-.86h-8.16Zm9.48,9.78h1V45.18h-1Zm11.75-7.44A3.77,3.77,0,0,0,524,45.81a4.48,4.48,0,0,0-2.72-.89,4.33,4.33,0,0,0-3.63,1.68,6.23,6.23,0,0,0-1.23,3.89,6.14,6.14,0,0,0,1.23,3.85,4.3,4.3,0,0,0,3.63,1.71q3.75-.11,4.29-4.29h-1a4.15,4.15,0,0,1-1,2.41,2.91,2.91,0,0,1-2.31,1,3.32,3.32,0,0,1-3-1.48,5.55,5.55,0,0,1-.92-3.21,5.61,5.61,0,0,1,.92-3.23,3.41,3.41,0,0,1,3-1.47,3.09,3.09,0,0,1,3.16,2.59Zm.84,7.44h1l1.25-3.31h4.7l1.25,3.31h1l-4-10.64h-1.1Zm4.67-9.64,2,5.47h-4.06Zm5.34,6.14a3.25,3.25,0,0,0,1.12,2.83,4.71,4.71,0,0,0,3,.9,5.34,5.34,0,0,0,2.2-.4,2.79,2.79,0,0,0,1.17-.86,2.83,2.83,0,0,0,.51-1,5.3,5.3,0,0,0,.08-.76,3,3,0,0,0-.2-1.14,2,2,0,0,0-.58-.78,4.66,4.66,0,0,0-1.9-.9l-2.53-.64A2.59,2.59,0,0,1,538,49a1.35,1.35,0,0,1-.48-1.11,1.78,1.78,0,0,1,.8-1.66,3.35,3.35,0,0,1,1.8-.46,3.3,3.3,0,0,1,2,.59,2.43,2.43,0,0,1,.87,1.86h1a3,3,0,0,0-1.12-2.48,4.29,4.29,0,0,0-2.68-.84,4.83,4.83,0,0,0-1.77.32,2.83,2.83,0,0,0-1.09.78,3.45,3.45,0,0,0-.54,1,2.92,2.92,0,0,0-.16.92,2.19,2.19,0,0,0,.72,1.78,3.17,3.17,0,0,0,.75.47,4.73,4.73,0,0,0,.87.32l2.3.59a3.94,3.94,0,0,1,1.44.6,2,2,0,0,1,.51.53,1.66,1.66,0,0,1,.18.8,2,2,0,0,1-.26,1,2.48,2.48,0,0,1-.7.67,3.56,3.56,0,0,1-1.79.51,4.15,4.15,0,0,1-2.42-.62,2.5,2.5,0,0,1-1-2.24Zm-339,3.31h1V50.55h4.94v-.86h-4.94V45.84h5.56V45h-6.53Zm6.44,0h1.06L206,52.31h4.7l1.26,3.32H213L208.91,45h-1.1ZM208.32,46l2,5.47h-4.07ZM223,48.18a3.69,3.69,0,0,0-1.43-2.57,4.44,4.44,0,0,0-2.71-.88,4.32,4.32,0,0,0-3.64,1.67A6.29,6.29,0,0,0,214,50.29a6.17,6.17,0,0,0,1.22,3.85,4.32,4.32,0,0,0,3.64,1.71q3.75-.09,4.28-4.29h-1a4.21,4.21,0,0,1-1,2.41,3,3,0,0,1-2.32,1,3.32,3.32,0,0,1-3-1.49,5.46,5.46,0,0,1-.93-3.21,5.54,5.54,0,0,1,.93-3.23,3.38,3.38,0,0,1,3-1.47,3.27,3.27,0,0,1,2,.66A3.21,3.21,0,0,1,222,48.18Zm2.15,3.62a4.26,4.26,0,0,0,.94,2.83,3.74,3.74,0,0,0,3.06,1.22,3.83,3.83,0,0,0,3.1-1.22,4.3,4.3,0,0,0,.91-2.84V45h-1v6.59c0,2.33-1.06,3.46-3,3.42s-3-1.09-3-3.42V45h-1Zm10.6,3.83h6.75v-.87H236.7V45h-1Zm6-9.79h3.6v9.79h1V45.84h3.6V45h-8.17Zm7.67,9.79h1.06l1.24-3.32h4.7l1.26,3.32h1.05L254.68,45h-1.1ZM254.09,46l2,5.47H252Zm7.12-.14h2.1q4.29-.17,4.25,4.46c0,3.09-1.39,4.57-4.25,4.46h-2.1Zm-1,9.79h3.56q4.69-.1,4.73-5.33T263.8,45h-3.56Zm16.91-9.79h2.1q4.31-.17,4.26,4.46c0,3.09-1.39,4.57-4.26,4.46h-2.1Zm-1,9.79h3.56c3.13-.07,4.71-1.85,4.72-5.33s-1.59-5.25-4.72-5.32h-3.56Zm10.49,0h7.18v-.87h-6.21V50.55h5.75v-.86h-5.75V45.84h6.14V45h-7.11Zm23.08-7.45a3.69,3.69,0,0,0-1.43-2.57,4.44,4.44,0,0,0-2.71-.88A4.32,4.32,0,0,0,302,46.4a6.23,6.23,0,0,0-1.22,3.89A6.11,6.11,0,0,0,302,54.14a4.32,4.32,0,0,0,3.64,1.71q3.75-.09,4.28-4.29h-1a4.21,4.21,0,0,1-1,2.41,3,3,0,0,1-2.32,1,3.32,3.32,0,0,1-3-1.49,5.46,5.46,0,0,1-.93-3.21,5.54,5.54,0,0,1,.93-3.23,3.38,3.38,0,0,1,3-1.47,3.27,3.27,0,0,1,2,.66,3.15,3.15,0,0,1,1.13,1.93Zm2.33,7.45h1V45h-1Zm3.5,0h7.17v-.87h-6.21V50.55h5.76v-.86h-5.76V45.84h6.14V45h-7.1Zm9.1,0h1v-9l6,9h1.09V45h-1v9l-6-9h-1.1ZM344,48.18a3.73,3.73,0,0,0-1.43-2.57,4.47,4.47,0,0,0-2.72-.88,4.31,4.31,0,0,0-3.63,1.67A6.23,6.23,0,0,0,335,50.29a6.12,6.12,0,0,0,1.23,3.85,4.31,4.31,0,0,0,3.63,1.71q3.75-.09,4.29-4.29h-1a4.15,4.15,0,0,1-1,2.41,3,3,0,0,1-2.31,1,3.35,3.35,0,0,1-3-1.49,5.53,5.53,0,0,1-.92-3.21,5.61,5.61,0,0,1,.92-3.23,3.41,3.41,0,0,1,3-1.47A3.09,3.09,0,0,1,343,48.18Zm2.33,7.45h1V45h-1Zm2.34,0h1L351,52.31h4.7l1.26,3.32H358L353.92,45h-1.1ZM353.33,46l2,5.47h-4.07Zm5.61,6.15A3.25,3.25,0,0,0,360.05,55a4.76,4.76,0,0,0,3,.9,5.25,5.25,0,0,0,2.19-.4,2.79,2.79,0,0,0,1.17-.86,2.54,2.54,0,0,0,.51-1,4.34,4.34,0,0,0,.09-.76,3,3,0,0,0-.2-1.14,2.16,2.16,0,0,0-.58-.78,4.85,4.85,0,0,0-1.9-.89l-2.53-.65a2.46,2.46,0,0,1-1.09-.52,1.38,1.38,0,0,1-.48-1.11,1.83,1.83,0,0,1,.8-1.66,3.38,3.38,0,0,1,1.81-.46,3.21,3.21,0,0,1,1.95.6,2.36,2.36,0,0,1,.87,1.85h1a3,3,0,0,0-1.13-2.48,4.32,4.32,0,0,0-2.68-.83,4.63,4.63,0,0,0-1.76.31,2.76,2.76,0,0,0-1.09.78,3.49,3.49,0,0,0-.55,1,3.21,3.21,0,0,0-.15.93,2.18,2.18,0,0,0,.72,1.77,3.32,3.32,0,0,0,.74.47,5.33,5.33,0,0,0,.87.32l2.3.59a4.16,4.16,0,0,1,1.44.6,1.84,1.84,0,0,1,.51.53,1.58,1.58,0,0,1,.19.8,1.88,1.88,0,0,1-.27,1,2.48,2.48,0,0,1-.69.68,3.7,3.7,0,0,1-1.8.51,4.25,4.25,0,0,1-2.42-.63,2.49,2.49,0,0,1-1-2.23Z"/><path class="cls-4" d="M15.07,59.1a5.12,5.12,0,1,1,5.12,5.16A5.15,5.15,0,0,1,15.07,59.1Z"/><path class="cls-5" d="M40,32.06V83.72a1.78,1.78,0,0,1-1.78,1.79H22.07c-1.08,0-1.87,1.78-1.87,1.78s-.78-1.81-1.91-1.78H2.13A1.79,1.79,0,0,1,.35,83.72V32.06Z"/><path class="cls-6" d="M26.15,40.28l-1.58-2.51c-1.89.43-1.43-1.21-.4-1.85s2.4-.46,1.58,1.11c0,0,.36.59,1,1.55A6.69,6.69,0,0,0,26.15,40.28Z"/><path class="cls-6" d="M33.13,48.72l4.3,6.82-.32.32-1.51-1.2s-.09-1-.33-1.2c-.81-.7-.33-1.08-.64-1.73s-2.15-1.15-2.58-2.12c0,0-.7-1.13-.7-1.13C33,48.19,33.13,48.72,33.13,48.72Z"/><path class="cls-6" d="M28.09,40.67s1.52,2.51,1.52,2.48c-.95-.12-1.41-.39-1.6-.9A2.29,2.29,0,0,1,28.09,40.67Z"/><line class="cls-6" x1="5.11" y1="64.7" x2="8.47" y2="73.17"/><line class="cls-6" x1="5.39" y1="64.95" x2="8.5" y2="70.97"/><line class="cls-6" x1="5.61" y1="65.04" x2="8.45" y2="69.29"/><line class="cls-6" x1="5.78" y1="64.96" x2="8.38" y2="68.05"/><line class="cls-6" x1="5.75" y1="64.68" x2="9.51" y2="68.23"/><line class="cls-6" x1="5.72" y1="64.47" x2="10.87" y2="68.32"/><line class="cls-6" x1="5.64" y1="64.29" x2="13.21" y2="68.73"/><polygon class="cls-6" points="9.73 50.78 9.62 53.4 11.14 53.4 11.02 50.78 9.73 50.78"/><polygon class="cls-6" points="11 50.06 10.38 36.02 9.74 50.06 11 50.06"/><rect class="cls-6" x="7.8" y="50.08" width="5.15" height="0.7"/><path class="cls-6" d="M12,53.4a1.63,1.63,0,1,1-3.25,0Z"/><path class="cls-6" d="M8,43.68a2.48,2.48,0,0,1-5,0Z"/><path class="cls-6" d="M28.39,40.16s.55.74,1.13.39c1.08-.63-.25-4.25-2.46-2.41a5.46,5.46,0,0,0-1,3.49c.13,1.21.66,2.74,2,3,.82.19,2.46-.26,3.14.85.5-.19,1-2.18-.36-2.25s-2.57-.3-2.78-.89A2.17,2.17,0,0,1,28.39,40.16Z"/><path class="cls-6" d="M29.64,45.81a1.4,1.4,0,0,0-.75,1.61c.19.7,1,1.12,2.25,1.06l.19,0c1.07-.07,1.55-.2,1.91.4A1.52,1.52,0,0,0,33,47C32.14,46.25,30,47.15,29.64,45.81Z"/><path class="cls-6" d="M32,49.63c-.13.57-.52,1.34-.19,2,.44,1,1.27.45,1.52,1s0,1.43.58,1.59c1.08.32.7,1.41,1.27,1.34s.52-1.75,0-2.23c-.76-.7-.26-1.22-.64-1.79S32.79,50.78,32,49.63Z"/><path class="cls-7" d="M20.91,53.2a.07.07,0,1,1,.07.07A.07.07,0,0,1,20.91,53.2Z"/><path class="cls-7" d="M29,38.89a.23.23,0,0,1,.28.17.25.25,0,0,1-.1.31.26.26,0,0,1-.18-.48Z"/><path class="cls-8" d="M9.28,73.18a3.66,3.66,0,1,1,3.66,3.68A3.67,3.67,0,0,1,9.28,73.18Z"/><polygon class="cls-6" points="16.73 82.22 14.95 82.22 14.95 78.78 3.99 78.78 3.99 77.02 16.73 77.02 16.73 82.22"/><path class="cls-6" d="M5.58,73.58a.75.75,0,1,1,1.49,0,.75.75,0,1,1-1.49,0Z"/><polyline class="cls-6" points="5.61 73.36 4.33 77 6.31 74.33"/><polyline class="cls-6" points="7.04 73.36 8.32 77 6.34 74.33"/><path class="cls-6" d="M9.81,71.45c-.19,1,1.68,1,1.52,1.53-.38,1.31.38,1.26.51,2,0,0-.13,1.63.32,1.76.25-.35.06-1,.38-1.41s.79-.59.79-1.28c0-.49-.68-.65-.89-.79a1.82,1.82,0,0,0-.92-.29s-.73-1.41-.51-1.66.64.32.8.32c.33,0,.4-.67.92-.67,0-.17,0-.66-.13-.71-.52,0-.86.26-1.3-.29C11.3,69.91,10,70.44,9.81,71.45Z"/><path class="cls-6" d="M14.08,69.64a2.87,2.87,0,0,0-1-.09c.54.25.51,1,.73,1,.44,0,.67-.37,1.11-.45A4.81,4.81,0,0,0,14.08,69.64Z"/><path class="cls-6" d="M16.56,72.45c0-.92-1.22-2.06-1.22-2.06A3.52,3.52,0,0,0,15,72.66a8.7,8.7,0,0,0,1.11-.06c.21.09.13.43.13.64,0,.51-.16,1.82-.16,1.82A13.73,13.73,0,0,0,16.56,72.45Z"/><polygon class="cls-7" points="5 62.72 4.63 63.53 3.77 63.63 4.4 64.23 4.23 65.09 4.99 64.67 5.77 65.09 5.62 64.22 6.23 63.63 5.37 63.51 5 62.72"/><line class="cls-5" x1="20.19" y1="65.28" x2="20.19" y2="87.15"/><path class="cls-9" d="M23.35,75.92,22.41,77a3.55,3.55,0,0,0,0,1.42c.75.3,11.27,3.6,11.27,3.6L38,77.35l-.67-.29c-.19-.3.42-1.33.42-1.33l-2.08-.82"/><path class="cls-9" d="M33.68,80a5,5,0,0,0,0,2.07S38,77.35,38,77.35l-.44-.4a6.7,6.7,0,0,1,.07-1.18Z"/><path class="cls-9" d="M33.29,77.07c-.18.08-.29,2.37,0,2.39l3.51-4-.34-.19Z"/><path class="cls-10" d="M24.64,74l-1.1,1.13c-.16.08,0,1.13,0,1.42l9.7,2.88,3.51-4L35.63,75"/><path class="cls-6" d="M34.81,68.2v6.68c-.91-.22-4.34-.65-4.69-.11-.28-.54-3-.3-4.69.07V68.41a1.94,1.94,0,0,1-.84,1.27v5.67L29.47,75a1.46,1.46,0,0,0,1.37,0l4.69.15V68.84A1,1,0,0,1,34.81,68.2Z"/><path class="cls-6" d="M34.81,74.88c-1,0-4-.8-4.67-.09.63,0,.65.4,0,.41s-.59-.45,0-.4c-.61-.78-4.7.17-4.7.17V68.41c1.14,0,2.31-.54,3.11-.54a5.22,5.22,0,0,1,1.64.33,7.4,7.4,0,0,1,2.15-.5c1.05,0,1.59.85,2.43.56C34.75,68.67,34.81,74.88,34.81,74.88Z"/><line class="cls-7" x1="30.17" y1="68.21" x2="30.13" y2="74.77"/><path class="cls-11" d="M25.29,77.13l-.35.36a3.11,3.11,0,0,0,0,1.74s.76.22.42.06a4.1,4.1,0,0,1,.09-1.64l.38-.37Z"/><path class="cls-11" d="M26.51,77.49l-.33.35a3.3,3.3,0,0,0-.06,1.78s.82.18.48,0A4.14,4.14,0,0,1,26.69,78l.35-.35Z"/><path class="cls-11" d="M29.49,78.36l-.4.43a3,3,0,0,0-.08,1.7s.84.25.5.1A4.08,4.08,0,0,1,29.6,79l.43-.44Z"/><path class="cls-11" d="M30.61,78.72l-.39.42a3.05,3.05,0,0,0-.07,1.71s.83.25.49.09a4.31,4.31,0,0,1,.08-1.64l.44-.44Z"/><path class="cls-11" d="M25.29,75.31l-.27.27A2.78,2.78,0,0,0,25,77a1.11,1.11,0,0,0,.4.13c.05,0,0-.13-.06-.19a3.16,3.16,0,0,1,.07-1.25l.29-.28Z"/><path class="cls-6" d="M30.18,68.16a1.7,1.7,0,0,1-1.61-1l.49,0s-.62-.38-.48-.75a3.34,3.34,0,0,1,.43,0,1.27,1.27,0,0,1,0-.85l.4.17a1.1,1.1,0,0,1,.81-.84,1.08,1.08,0,0,1,.84.84l.4-.17a1.3,1.3,0,0,1,0,.85,3.34,3.34,0,0,1,.43,0c.14.37-.48.75-.48.75l.49,0A1.88,1.88,0,0,1,30.18,68.16Z"/><line class="cls-5" x1="0.31" y1="59.11" x2="14.03" y2="59.11"/><line class="cls-12" x1="26.42" y1="59.11" x2="40.02" y2="59.11"/><polygon class="cls-13" points="20.21 54.04 24.59 61.73 15.8 61.73 20.21 54.04"/><path class="cls-6" d="M20.18,57.84a3.83,3.83,0,0,1,2.94,1.51,3.87,3.87,0,0,1-2.94,1.5,3.85,3.85,0,0,1-2.95-1.5A3.55,3.55,0,0,1,20.18,57.84Z"/><path class="cls-6" d="M18.7,59.35a1.48,1.48,0,1,1,1.47,1.48A1.48,1.48,0,0,1,18.7,59.35Z"/><path class="cls-14" d="M20,59.35a.18.18,0,0,1,.18-.19.19.19,0,1,1,0,.37A.18.18,0,0,1,20,59.35Z"/><path class="cls-6" d="M20.22,53.88a5.23,5.23,0,1,0,.83.07c-.93.07-1-.26-1-.44-.08-.47.53-.75,1-.75.76,0,.7.45,1.16.54A6.18,6.18,0,1,1,14,59.16a5.56,5.56,0,0,1,6-5.8C20,53.59,20.22,53.88,20.22,53.88Z"/><polygon class="cls-15" points="20.19 10.3 18.3 14.11 14.05 14.72 17.11 17.77 16.48 21.89 20.19 20.01 23.89 21.9 23.21 17.73 26.18 14.81 22.1 14.15 20.19 10.3"/><line class="cls-16" x1="20.19" y1="10.44" x2="20.19" y2="20.01"/><line class="cls-16" x1="14.19" y1="14.81" x2="23.21" y2="17.73"/><line class="cls-16" x1="16.48" y1="21.89" x2="22.1" y2="14.15"/><line class="cls-16" x1="23.89" y1="21.9" x2="18.3" y2="14.11"/><line class="cls-16" x1="26.18" y1="14.81" x2="17.11" y2="17.77"/><line class="cls-15" x1="17.06" y1="17.81" x2="4.31" y2="22.01"/><line class="cls-15" x1="36" y1="11.56" x2="26.19" y2="14.8"/><line class="cls-15" x1="18.29" y1="14.1" x2="10.42" y2="3.23"/><line class="cls-15" x1="31.16" y1="32.07" x2="23.82" y2="21.87"/><line class="cls-15" x1="22.11" y1="14.13" x2="29.94" y2="3.18"/><line class="cls-15" x1="9.04" y1="32.07" x2="16.47" y2="21.87"/><line class="cls-15" x1="14.15" y1="14.8" x2="4.36" y2="11.56"/><line class="cls-15" x1="35.95" y1="22.01" x2="23.26" y2="17.75"/><line class="cls-15" x1="20.19" x2="20.19" y2="10.68"/><line class="cls-16" x1="16.89" y1="19.27" x2="11.65" y2="23.06"/><line class="cls-16" x1="28.74" y1="10.58" x2="23.59" y2="14.34"/><line class="cls-16" x1="18.96" y1="20.67" x2="16.95" y2="26.88"/><line class="cls-16" x1="23.49" y1="6.66" x2="21.49" y2="12.82"/><line class="cls-16" x1="21.45" y1="20.67" x2="23.44" y2="26.84"/><line class="cls-16" x1="16.9" y1="6.6" x2="18.93" y2="12.87"/><line class="cls-16" x1="23.44" y1="19.18" x2="28.65" y2="22.98"/><line class="cls-16" x1="11.56" y1="10.5" x2="16.75" y2="14.29"/><line class="cls-16" x1="24.23" y1="16.81" x2="30.8" y2="16.81"/><line class="cls-16" x1="9.62" y1="16.81" x2="16.09" y2="16.81"/><path class="cls-6" d="M31,45.22c.29.43.87,1.42.86,1.42s-1.39.1-1.88-.37c-.11-.16-.94-1.5-.94-1.5S30.66,44.79,31,45.22Z"/><polygon class="cls-6" points="5.53 38.03 3.08 43.66 7.98 43.67 5.53 38.03"/><path class="cls-6" d="M12.8,43.68a2.49,2.49,0,0,0,5,0Z"/><polygon class="cls-6" points="15.29 38.03 17.74 43.66 12.84 43.67 15.29 38.03"/><line class="cls-6" x1="9.66" y1="53.03" x2="11.13" y2="52.34"/><line class="cls-6" x1="9.62" y1="52.09" x2="11.08" y2="51.4"/><polygon class="cls-7" points="10.35 37.93 5.53 37.93 5.53 37.36 10.3 37.36 10.35 37.93"/><polygon class="cls-7" points="10.43 37.36 15.27 37.36 15.27 37.93 10.46 37.93 10.43 37.36"/><path class="cls-7" d="M26.69,69.65c.67,0,1.53-.68,2.48-.36"/><path class="cls-7" d="M26.68,70.38c.67,0,1.54-.65,2.49-.33"/><path class="cls-7" d="M26.68,71.11c.67,0,1.54-.62,2.49-.3"/><path class="cls-7" d="M26.67,71.84c.67,0,1.54-.59,2.5-.27"/><path class="cls-7" d="M26.67,72.58c.66,0,1.54-.56,2.5-.24"/><path class="cls-7" d="M26.66,73.31c.67,0,1.55-.53,2.51-.21"/><path class="cls-7" d="M33.66,69.43a6,6,0,0,0-2.51-.14"/><path class="cls-7" d="M33.66,70.2a5.93,5.93,0,0,0-2.51-.15"/><path class="cls-7" d="M33.66,71a5.91,5.91,0,0,0-2.51-.16"/><path class="cls-7" d="M33.66,71.75c-.66,0-1.55-.5-2.51-.18"/><path class="cls-7" d="M33.66,72.52c-.66,0-1.55-.5-2.51-.18"/><path class="cls-7" d="M33.67,73.29c-.67,0-1.56-.51-2.52-.19"/><polygon class="cls-6" points="20.21 54.04 24.59 61.73 15.8 61.73 20.21 54.04"/><path class="cls-11" d="M26.22,75.53,26,75.8a2.81,2.81,0,0,0,0,1.44,1.47,1.47,0,0,0,.39.15c.06,0,0-.16,0-.22a3.19,3.19,0,0,1,.06-1.25l.29-.28Z"/><polygon class="cls-17" points="19.75 20.01 20.55 20.01 20.55 52.66 20.18 53.16 20.03 53.37 19.78 53.19 19.75 20.01"/><path class="cls-11" d="M30,76.63l-.27.27a2.78,2.78,0,0,0,0,1.43,1.34,1.34,0,0,0,.4.13c.05,0,0-.13-.05-.19A3,3,0,0,1,30.14,77l.29-.29Z"/><path class="cls-11" d="M31,76.85l-.26.27a2.71,2.71,0,0,0,0,1.44,1.47,1.47,0,0,0,.39.15c.06,0,0-.16,0-.22a3.19,3.19,0,0,1,.06-1.25l.29-.28Z"/></g></g></svg>