<svg xmlns="http://www.w3.org/2000/svg" viewBox="0 0 58.51 19.26"><defs><style>.cls-1{fill:#e63329;}.cls-2{fill:#e63429;}</style></defs><title>bot info 2</title><g id="Capa_2" data-name="Capa 2"><g id="Esquema"><rect class="cls-1" y="17.38" width="58.51" height="1.88"/><path class="cls-2" d="M1.2,9.49V.17H2.44V9.49Z"/><path class="cls-2" d="M4.6,9.49V.17H5.87l4.89,7.32V.17H12V9.49H10.68L5.78,2.16V9.49Z"/><path class="cls-2" d="M14.08,9.49V.17h6.3v1.1H15.32V4.15h4.37v1.1H15.32V9.49Z"/><path class="cls-2" d="M21.6,5a5.09,5.09,0,0,1,1.25-3.64A4.25,4.25,0,0,1,26.07,0,4.49,4.49,0,0,1,28.4.62,4,4,0,0,1,30,2.34a5.6,5.6,0,0,1,.54,2.5A5.52,5.52,0,0,1,30,7.38a3.84,3.84,0,0,1-1.62,1.69,4.59,4.59,0,0,1-2.27.58A4.34,4.34,0,0,1,23.71,9a4,4,0,0,1-1.57-1.73A5.24,5.24,0,0,1,21.6,5Zm1.28,0a3.73,3.73,0,0,0,.9,2.65,3.17,3.17,0,0,0,4.57,0,3.94,3.94,0,0,0,.9-2.78,4.69,4.69,0,0,0-.39-2,2.91,2.91,0,0,0-1.12-1.32,3.08,3.08,0,0,0-1.66-.47,3.16,3.16,0,0,0-2.26.9A4,4,0,0,0,22.88,5Z"/></g></g></svg>