<svg xmlns="http://www.w3.org/2000/svg" viewBox="0 0 58.56 19.09"><defs><style>.cls-1{fill:#007e48;}</style></defs><title>bot ayuda 2</title><g id="Capa_2" data-name="Capa 2"><g id="Esquema"><rect class="cls-1" x="0.03" y="17.21" width="58.52" height="1.88"/><path class="cls-1" d="M0,9.33,3.58,0H4.91L8.73,9.33H7.32L6.23,6.5H2.33l-1,2.83ZM2.69,5.5H5.85l-1-2.59c-.3-.78-.52-1.43-.66-1.93a11.57,11.57,0,0,1-.51,1.78Z"/><path class="cls-1" d="M11.37,9.33V5.38L7.78,0h1.5l1.84,2.81c.34.53.65,1,1,1.58.28-.49.62-1,1-1.65L14.89,0h1.44L12.61,5.38v4Z"/><path class="cls-1" d="M23.56,0h1.23V5.39a6.39,6.39,0,0,1-.32,2.23A2.72,2.72,0,0,1,23.32,9a4.1,4.1,0,0,1-2.17.51A4.51,4.51,0,0,1,19,9a2.6,2.6,0,0,1-1.19-1.3,6.2,6.2,0,0,1-.35-2.34V0h1.23V5.38a5,5,0,0,0,.23,1.79,1.68,1.68,0,0,0,.77.89A2.7,2.7,0,0,0,21,8.37,2.55,2.55,0,0,0,23,7.75a3.58,3.58,0,0,0,.58-2.37Z"/><path class="cls-1" d="M26.84,9.33V0h3.22a7.79,7.79,0,0,1,1.66.13A3.22,3.22,0,0,1,33.08.8a3.82,3.82,0,0,1,1.11,1.6,6.28,6.28,0,0,1,.36,2.21,6.78,6.78,0,0,1-.24,1.89,4.71,4.71,0,0,1-.64,1.35,3.43,3.43,0,0,1-.85.85,3.75,3.75,0,0,1-1.11.47,6.76,6.76,0,0,1-1.5.16Zm1.24-1.1h2a4.67,4.67,0,0,0,1.45-.18,1.92,1.92,0,0,0,.83-.48A3,3,0,0,0,33,6.39a5.85,5.85,0,0,0,.24-1.8,4.38,4.38,0,0,0-.48-2.25,2.43,2.43,0,0,0-1.17-1A4.72,4.72,0,0,0,30,1.1h-2Z"/><path class="cls-1" d="M35.23,9.33,38.81,0h1.33L44,9.33H42.55L41.46,6.5h-3.9l-1,2.83ZM37.92,5.5h3.16l-1-2.59c-.3-.78-.52-1.43-.66-1.93a11.57,11.57,0,0,1-.51,1.78Z"/></g></g></svg>