<svg xmlns="http://www.w3.org/2000/svg" viewBox="0 0 58.51 19.26"><defs><style>.cls-1{fill:#004b93;}</style></defs><title>bot inicio 2</title><g id="Capa_2" data-name="Capa 2"><g id="Esquema"><rect class="cls-1" y="17.38" width="58.51" height="1.88"/><path class="cls-1" d="M1.21,9.49V.17H2.45V9.49Z"/><path class="cls-1" d="M4.61,9.49V.17H5.88l4.9,7.32V.17H12V9.49H10.69L5.79,2.16V9.49Z"/><path class="cls-1" d="M14.24,9.49V.17h1.24V9.49Z"/><path class="cls-1" d="M24.31,6.22l1.23.31a4.1,4.1,0,0,1-1.4,2.32,3.85,3.85,0,0,1-2.46.8A4.4,4.4,0,0,1,19.23,9a3.88,3.88,0,0,1-1.44-1.78,6.33,6.33,0,0,1-.49-2.5,5.5,5.5,0,0,1,.55-2.54A3.73,3.73,0,0,1,19.44.57,4.56,4.56,0,0,1,21.7,0a3.77,3.77,0,0,1,2.35.71,3.65,3.65,0,0,1,1.33,2L24.17,3a2.85,2.85,0,0,0-1-1.48,2.49,2.49,0,0,0-1.55-.47,3,3,0,0,0-1.79.52,2.68,2.68,0,0,0-1,1.38,5.73,5.73,0,0,0-.29,1.79,5.74,5.74,0,0,0,.34,2.08A2.72,2.72,0,0,0,20,8.16a3.06,3.06,0,0,0,1.59.43A2.63,2.63,0,0,0,23.33,8,3.07,3.07,0,0,0,24.31,6.22Z"/><path class="cls-1" d="M27.27,9.49V.17H28.5V9.49Z"/><path class="cls-1" d="M30.3,5a5.09,5.09,0,0,1,1.25-3.64A4.26,4.26,0,0,1,34.77,0,4.49,4.49,0,0,1,37.1.62a4,4,0,0,1,1.58,1.72,5.6,5.6,0,0,1,.54,2.5,5.52,5.52,0,0,1-.57,2.54A3.84,3.84,0,0,1,37,9.07a4.59,4.59,0,0,1-2.27.58A4.36,4.36,0,0,1,32.41,9a4.1,4.1,0,0,1-1.57-1.73A5.24,5.24,0,0,1,30.3,5Zm1.28,0a3.73,3.73,0,0,0,.9,2.65,3,3,0,0,0,2.28,1,3,3,0,0,0,2.29-1A3.94,3.94,0,0,0,38,4.83a4.86,4.86,0,0,0-.38-2,3,3,0,0,0-1.13-1.32,3.06,3.06,0,0,0-1.66-.47,3.16,3.16,0,0,0-2.26.9A4,4,0,0,0,31.58,5Z"/></g></g></svg>