<?xml version="1.0" encoding="UTF-8" standalone="no"?>
<svg
   viewBox="0 0 296.78748 184.81946"
   version="1.1"
   id="svg69"
   sodipodi:docname="dibujo_1.svg"
   width="296.78748"
   height="184.81947"
   inkscape:version="1.1.1 (3bf5ae0d25, 2021-09-20, custom)"
   xmlns:inkscape="http://www.inkscape.org/namespaces/inkscape"
   xmlns:sodipodi="http://sodipodi.sourceforge.net/DTD/sodipodi-0.dtd"
   xmlns="http://www.w3.org/2000/svg"
   xmlns:svg="http://www.w3.org/2000/svg"
   xmlns:rdf="http://www.w3.org/1999/02/22-rdf-syntax-ns#"
   xmlns:cc="http://creativecommons.org/ns#"
   xmlns:dc="http://purl.org/dc/elements/1.1/">
  <sodipodi:namedview
     id="namedview71"
     pagecolor="#ffffff"
     bordercolor="#666666"
     borderopacity="1.0"
     inkscape:pageshadow="2"
     inkscape:pageopacity="0.0"
     inkscape:pagecheckerboard="0"
     showgrid="false"
     width="306.78748px"
     fit-margin-top="0"
     fit-margin-left="0"
     fit-margin-right="0"
     fit-margin-bottom="0"
     inkscape:zoom="2.4451688"
     inkscape:cx="152.13674"
     inkscape:cy="129.02995"
     inkscape:window-width="1920"
     inkscape:window-height="1007"
     inkscape:window-x="0"
     inkscape:window-y="0"
     inkscape:window-maximized="1"
     inkscape:current-layer="Esquema"
     height="220.81947px" />
  <defs
     id="defs7">
    <style
       id="style2">.cls-1{fill:none;}.cls-2{clip-path:url(#clip-path);}.cls-3{fill:#ffbe9d;}.cls-4{fill:#e63429;}.cls-5{fill:#e8505b;}.cls-6{opacity:0.4;}.cls-7{opacity:0.5;}.cls-8{fill:#eb996e;}.cls-9{fill:#004b93;}.cls-10{fill:#ff948f;}.cls-11{fill:#ffba9a;}.cls-12{fill:#382f3d;}</style>
    <clipPath
       id="clip-path"
       transform="translate(-9.03 -8.61)">
      <polyline
         class="cls-1"
         points="321.93 193.82 321.93 0 0 0 0 193.82"
         id="polyline4" />
    </clipPath>
  </defs>
  <title
     id="title9">dibujo 1</title>
  <g
     id="Capa_2"
     data-name="Capa 2"
     transform="translate(0,-5.3412323e-4)">
    <g
       id="Esquema">
      <g
         class="cls-2"
         clip-path="url(#clip-path)"
         id="g65"
         transform="translate(-9.6269,0.28046776)">
        <path
           class="cls-3"
           d="m 297.18,181.57 -13.44,-50.08 c 0,0 5.46,-18.71 4.61,-23 -0.85,-4.29 -6,-3.41 -6,-3.41 l -12.83,-6.43 -10.29,12.95 c 0,0 -5.18,-5.28 -8.8,-4.27 -3.62,1.01 -2.22,7.76 4.14,14.52 6.36,6.76 8.34,25.89 8.34,25.89 l 19.7,31.1 z"
           transform="translate(-9.03,-8.61)"
           id="path11" />
        <path
           class="cls-4"
           d="m 228,78.54 a 4.92,4.92 0 0 0 -1.75,6.11 v 0 a 3.69,3.69 0 0 0 5.26,2.06 l 8,-4.61 a 4.92,4.92 0 0 0 1.72,-6.1 v 0 A 3.69,3.69 0 0 0 236,73.93 Z"
           transform="translate(-9.03,-8.61)"
           id="path13" />
        <path
           class="cls-4"
           d="m 237.5,85.41 9.5,20.92 4.6,-1.55 23.47,21.65 a 4.26,4.26 0 0 0 6.52,-0.77 l 8.66,-12.06 c 0,0 -17.91,-8.69 -21.31,-16 -3.4,-7.31 0.39,-9.07 0.39,-9.07 l -8.52,-11 z"
           transform="translate(-9.03,-8.61)"
           id="path15" />
        <path
           class="cls-4"
           d="m 242.76,59.69 c 0,0 9.15,-2.49 21.87,-17.12 12.72,-14.63 18.53,-33.93 20.11,-33.86 1.58,0.07 8.44,-3.71 22.01,29.29 13.57,33 8.51,40.87 5.9,40.85 C 310.04,78.83 292.22,73.34 281.16,75 270.1,76.66 256,83.49 256,83.49 Z"
           transform="translate(-9.03,-8.61)"
           id="path17" />
        <path
           class="cls-4"
           d="m 250,64.88 c 0,0 14.15,-6.92 25.21,-8.53 11.06,-1.61 28.88,3.9 31.49,3.93 1.87,0 5,-4 1.66,-18.33 11.6,29.79 6.84,37 4.33,36.94 C 310.18,78.83 292.22,73.34 281.16,75 270.1,76.66 256,83.49 256,83.49 l -13.19,-23.8 a 19.1,19.1 0 0 0 3.49,-1.52 z"
           transform="translate(-9.03,-8.61)"
           id="path19" />
        <path
           class="cls-5"
           d="m 230.25,76.48 3.23,6.89 1.44,3.08 c 2,4.24 6.46,5.94 10.18,3.87 l 19.57,-8.24 -11.87,-30.3 -19.49,12.46 c -3.74,2.39 -5.11,7.86 -3.06,12.24 z"
           transform="translate(-9.03,-8.61)"
           id="path21" />
        <g
           class="cls-6"
           id="g25">
          <path
             d="m 230.25,76.48 3.23,6.89 1.44,3.08 c 2,4.24 6.46,5.94 10.18,3.87 l 19.57,-8.24 -11.87,-30.3 -19.49,12.46 c -3.74,2.39 -5.11,7.86 -3.06,12.24 z"
             transform="translate(-9.03,-8.61)"
             id="path23" />
        </g>
        <path
           class="cls-5"
           d="m 305.7,38.66 c 7.23,17.92 10.36,33.93 7,35.77 -3.36,1.84 -12,-11.21 -19.2,-29.13 -7.2,-17.92 -10.36,-33.93 -7,-35.77 3.36,-1.84 11.97,11.21 19.2,29.13 z"
           transform="translate(-9.03,-8.61)"
           id="path27" />
        <g
           class="cls-7"
           id="g31">
          <path
             d="m 305.7,38.66 c 7.23,17.92 10.36,33.93 7,35.77 -3.36,1.84 -12,-11.21 -19.2,-29.13 -7.2,-17.92 -10.36,-33.93 -7,-35.77 3.36,-1.84 11.97,11.21 19.2,29.13 z"
             transform="translate(-9.03,-8.61)"
             id="path29" />
        </g>
        <path
           class="cls-4"
           d="m 291.4,34.85 c 0,0 7.9,-5.87 12.44,6.62 4.54,12.49 -3.84,14.67 -3.84,14.67 a 91.44,91.44 0 0 1 -8.6,-21.29 z"
           transform="translate(-9.03,-8.61)"
           id="path33" />
        <path
           class="cls-3"
           d="m 269.92,99.39 -1.38,-2.34 c 0,0 -4.2,1.61 -7.12,1 -2.92,-0.61 -2.8,-3.83 0.29,-5.63 3.09,-1.8 9.29,-2.5 11.29,-0.61 2,1.89 0.17,6.04 -3.08,7.58 z"
           transform="translate(-9.03,-8.61)"
           id="path35" />
        <path
           class="cls-3"
           d="m 286,109.92 c 0,0 -4.09,7.75 -6.87,8.5 -2.78,0.75 -4.81,-3.39 0.91,-10.47 0,0 -1.58,-0.46 -3.48,2.59 -1.9,3.05 -3.83,4.31 -5.75,2.5 -1.92,-1.81 2,-7 2,-7 0,0 -3,4.08 -5.61,3.6 -2.61,-0.48 -1.46,-5.77 1.33,-8.61 2.79,-2.84 4.67,-3.81 6.72,-3.29 2.05,0.52 2.21,3.71 2.21,3.71 a 3.41,3.41 0 0 1 3.51,0 c 2.12,1.11 5.03,8.47 5.03,8.47 z"
           transform="translate(-9.03,-8.61)"
           id="path37" />
        <path
           class="cls-8"
           d="m 271.59,107.75 a 21.23,21.23 0 0 1 2.42,-3.5 18.82,18.82 0 0 1 3.17,-2.57 3.16,3.16 0 0 0 -1.08,0.47 9.66,9.66 0 0 0 -2.29,1.84 11.6,11.6 0 0 0 -1.75,2.53 4.27,4.27 0 0 0 -0.47,1.23 z"
           transform="translate(-9.03,-8.61)"
           id="path39" />
        <path
           class="cls-8"
           d="m 269.42,100.12 c 0.05,0 0.73,-0.6 1.64,-1.27 a 13.73,13.73 0 0 1 1.2,-0.8 c 0.32,-0.17 0.53,-0.23 0.53,-0.28 0,-0.05 -0.24,-0.07 -0.6,0.06 a 5,5 0 0 0 -1.28,0.73 4.4,4.4 0 0 0 -1.49,1.56 z"
           transform="translate(-9.03,-8.61)"
           id="path41" />
        <path
           class="cls-8"
           d="m 268,97.15 a 4,4 0 0 0 2,-0.29 3.5,3.5 0 0 0 1.26,-0.79 c 0.28,-0.29 0.39,-0.52 0.37,-0.55 a 8.19,8.19 0 0 1 -1.72,1 12,12 0 0 0 -1.91,0.63 z"
           transform="translate(-9.03,-8.61)"
           id="path43" />
        <path
           class="cls-8"
           d="m 278.18,111 a 8.45,8.45 0 0 0 0.92,-1.44 12.71,12.71 0 0 1 2.36,-3.21 4.35,4.35 0 0 1 3.39,-1.1 5.17,5.17 0 0 1 1.44,0.52 c 0,0 -0.1,-0.14 -0.33,-0.3 a 2.82,2.82 0 0 0 -1.08,-0.45 4.23,4.23 0 0 0 -3.59,1.06 11.3,11.3 0 0 0 -2.37,3.35 11.57,11.57 0 0 0 -0.74,1.57 z"
           transform="translate(-9.03,-8.61)"
           id="path45" />
        <path
           class="cls-8"
           d="m 270.66,137.59 a 53.37,53.37 0 0 0 8.46,1 25.32,25.32 0 0 0 -4.22,-0.65 26.48,26.48 0 0 0 -4.24,-0.35 z"
           transform="translate(-9.03,-8.61)"
           id="path47" />
        <path
           class="cls-9"
           d="m 214.57,129.44 c 0,0 31,14 31.45,30.52 0.45,16.52 -1.15,44.3 6.63,46 7.78,1.7 17.43,-27.7 -3.54,-57.46 l 43,-31.6 c 0,0 25.25,26.93 20.73,80.57 -4.8,57.07 -58.37,117.34 -101.51,54 L 45.88,251.57 9,204.65 130,104.6 c 0,0 14.7,-17.82 32.48,-8.35 z"
           transform="translate(-9.03,-8.61)"
           id="path49" />
        <path
           class="cls-10"
           d="m 199.51,70.3 q -0.19,7 -0.38,14 c 0,1.63 -0.19,3.51 -1.22,4.5 a 2,2 0 0 1 -3.16,-1 c -0.33,-0.89 -0.5,-2.25 -1.28,-2.23 -0.78,0.02 -1.47,1.94 -2.2,1.43 a 1.42,1.42 0 0 1 -0.37,-0.71 53.24,53.24 0 0 1 -1.84,-9.14 c -0.4,-3.6 -0.3,-7.73 1.73,-10.33 a 4.65,4.65 0 0 1 5.49,-1.68 6.64,6.64 0 0 1 3.46,5.58"
           transform="translate(-9.03,-8.61)"
           id="path51" />
        <path
           d="m 199.51,70.3 q -0.19,7 -0.38,14 c 0,1.63 -0.19,3.51 -1.22,4.5 a 2,2 0 0 1 -3.16,-1 c -0.33,-0.89 -0.5,-2.25 -1.28,-2.23 -0.78,0.02 -1.47,1.94 -2.2,1.43 a 1.42,1.42 0 0 1 -0.37,-0.71 53.24,53.24 0 0 1 -1.84,-9.14 c -0.4,-3.6 -0.3,-7.73 1.73,-10.33 a 4.65,4.65 0 0 1 5.49,-1.68 6.64,6.64 0 0 1 3.46,5.58"
           transform="translate(-9.03,-8.61)"
           id="path53" />
        <path
           class="cls-3"
           d="m 226.15,65.57 c -2.08,-0.86 -15.65,-2.33 -25.82,4.12 -7.13,4.94 -7,12.38 -7.36,12.28 -2.9,-0.87 -5.83,1.15 -6.55,4.51 -0.72,3.36 1,6.79 3.93,7.66 a 4.74,4.74 0 0 0 2.33,0.08 l -2.6,18.47 c -0.15,0.59 -2.67,15.42 -2.76,16.05 -1.1,7.85 2.5,15.38 10.23,16.63 10.75,1.74 15.48,-18.14 16.59,-26 a 17.78,17.78 0 0 0 0.14,-1.78 l 1.11,-7.89 c 6.77,-1.21 8.85,-8.69 9,-15.67 0.15,-6.98 1.78,-28.12 1.76,-28.46 z"
           transform="translate(-9.03,-8.61)"
           id="path55" />
        <path
           d="m 215.39,109.71 a 16.5,16.5 0 0 1 -7.32,-0.56 l 6.16,8.79 z"
           transform="translate(-9.03,-8.61)"
           id="path57" />
        <path
           class="cls-11"
           d="M 197.13,62.69 Z"
           transform="translate(-9.03,-8.61)"
           id="path59" />
        <path
           d="m 198.34,74.17 c 3.26,0.4 5.67,-4.79 8.92,-4.33 1.86,0.26 3.25,2.07 4.66,3.53 1.41,1.46 3.41,2.72 5.07,1.71 1.44,-0.88 2,-3.17 3.54,-3.86 2.16,-1 4.34,1.78 6.65,2.07 1.45,0.19 3.8,-0.34 5,-3.72 a 6.62,6.62 0 0 0 -2.46,-7.13 c -2.09,-1.62 -2.59,-4.93 -3.4,-7.73 -0.81,-2.8 -2.52,-5.83 -5,-5.77 -1.36,0 -2.57,1 -3.92,1.23 -2.68,0.4 -4.89,-2.29 -6.88,-4.47 -1.99,-2.18 -5.06,-4.1 -7.22,-2.19 -2.16,1.91 -2.24,6.39 -4.79,6.8 -1.41,0.23 -2.64,-1.1 -4,-1.59 -2.95,-1.06 -6.17,3 -5.12,6.44 0.29,1 0.86,2 0.5,3 a 4,4 0 0 1 -1.24,1.4 c -1.15,1.13 -1.86,3.36 -1,4.83 1.57,2.72 2.66,1.68 4.25,3.41 1.59,1.73 2.3,5.85 6.44,6.37 z"
           transform="translate(-9.03,-8.61)"
           id="path61" />
        <path
           class="cls-12"
           d="m 255.31,278.35 c -14.37,1.45 -29.73,-6 -43.95,-26.88 l 8.93,-24.35 c 0,0 8.29,40.29 35.02,51.23 z"
           transform="translate(-9.03,-8.61)"
           id="path63" />
      </g>
    </g>
  </g>
  <metadata
     id="metadata73">
    <rdf:RDF>
      <cc:Work
         rdf:about="">
        <dc:title>dibujo 1</dc:title>
      </cc:Work>
    </rdf:RDF>
  </metadata>
</svg>
