<svg xmlns="http://www.w3.org/2000/svg" viewBox="0 0 331.85 311"><defs><style>.cls-1{fill:#e63429;}.cls-2{fill:#fff;}.cls-3{fill:none;stroke:#00b7ff;stroke-miterlimit:10;stroke-dasharray:4;}.cls-4{fill:#221660;}.cls-5{fill:#004b93;}.cls-6{fill:#00b7ff;}.cls-7{fill:#ffbe9d;}.cls-8{fill:#eb996e;}.cls-9{fill:#f6a915;}.cls-10{fill:#fcde98;}.cls-11{fill:#3a4b73;}.cls-12{fill:#f65015;}</style></defs><title>dibujo 2</title><g id="Capa_2" data-name="Capa 2"><g id="Esquema"><circle class="cls-1" cx="231.79" cy="55.02" r="25.97"/><path class="cls-2" d="M221.69,51.46a.57.57,0,0,0-.91.13l-3.42,5.74a.75.75,0,0,0,.23,1l12.69,8.37a.87.87,0,0,0,1.09-.14l15-16.87a.83.83,0,0,0,0-1.08l-4.83-5.24a.57.57,0,0,0-.92.06L230,58.09a.63.63,0,0,1-1,.1Z"/><path class="cls-3" d="M146.47,2.53S26.85-22.61,2.57,104c-14.8,77.19,53.09,124.38,95.36,127.43C254,242.66,249.8,73.77,249.8,73.77"/><path class="cls-4" d="M123.44,70a16.13,16.13,0,0,0,1-5.1c0-1-1.46-1-1.5,0a14.54,14.54,0,0,1-1,4.7c-.34.9,1.11,1.29,1.45.4Z"/><path class="cls-5" d="M211.55,171.59l37.32,58.21s22.67-42.38,26-46.75S311,196.87,311,196.87s-18.72,37.85-28.11,59.61c-7.33,17-49.52,14-49.52,14l-31.92-46.71Z"/><path d="M307.82,196.87s-32.77-18.19-36.13-13.82c0,0,5.71-12.4,8-13.49,6.27-3,53.54,22.77,52.15,23.82-2.86,2.14-22.28-1.6-22.28-1.6Z"/><path class="cls-5" d="M145.4,216.48c6,12,47,81.2,64.15,91.61s62.5-9.74,90.73-19.82l-13.44-37.64-53.09,13.78-26.55-38s16.42-39.12,4.35-54.85Z"/><polygon points="153.45 234.28 218.82 198.63 221.02 185.48 153.45 234.28"/><path class="cls-6" d="M158.26,97.05c4.37-2.12,45.64,5.89,45.64,5.89l-4.5,31.76-21.52-4.5Z"/><path class="cls-5" d="M199.4,134.7l-18-3.9-14.63-24.16a38.13,38.13,0,0,1,11.39,6c.29.23,11,6.92,11.28,7.16,4.7,4,11.68,1.52,11.68,1.52Z"/><path class="cls-7" d="M21.64,118.23c-5.33-4-9.3-11.74-9.15-16.46s2.9-9.91,5.65-10.83,2.89,2.44,2.13,4.88-.76,7.78-.76,7.78Z"/><path class="cls-8" d="M20.27,95.82c-.76,2.44-.76,7.78-.76,7.78l2.13,14.63a43.21,43.21,0,0,1-5.75-13.62C14.45,97.41,20.27,95.82,20.27,95.82Z"/><path class="cls-7" d="M92.64,70.54c-4.34,8.09,3.08,31.61,3.67,33.07,1.33,3.26,3.68,12.34,21,5.25l3.91,7.55s20.76-8.86,22.34-12c0,0-3.94-6.8-8.38-16.57-4.15-9.12-8.54-21.17-15.77-23.07C104.45,60.82,96.58,63.19,92.64,70.54Z"/><path d="M81.82,80s3.93,9.19,20.21,1c0,0,2.36,4.47,7.08,4.73l.79,5.51,3.94-1.57s1.57,15.48,4.46,16.8,17.06-5,18.9-7.88c.69-1.08-1.42-12.38-1.84-17.85-.69-9.12-.54-18-9.57-13.53,0,0-3.12-6.94-6.27-8.78S113.05,60,113.05,60,110.16,51.9,101.76,53s-10.23,6.3-10.23,6.3-12.6-9.71-22,2.89C62.29,71.72,72.1,82.08,77.35,81Z"/><path class="cls-7" d="M33.84,108.47c-3.51.61-6.86-2.89-7.78-4.42s.36-3.28,4.88-8.84c3.36-4.12-.15-6.1-4-4.27,0,0-8.08,3.81-9.76,9.61-2.24,7.73,5.49,19.82,5.49,19.82s6.86,22.1,22.26,40.86c12.19,14.85,23,12.5,29.27,12.34S99.73,165,99.73,165L81,138.34l-13.11,5.35c-11-9.45-23-31.4-23-31.4Z"/><path class="cls-8" d="M30.94,95.21c-4.52,5.56-5.79,7.32-4.88,8.84s4.27,5,7.78,4.42l-5.76,2L26.43,114s-3.74-6.43-2.84-10.62S30.94,95.21,30.94,95.21Z"/><path class="cls-8" d="M81,138.34,99.73,165s-7,3.05-13.92,5.51c-1.51.53,3.74-2,3-6.73C87.37,154.28,81,138.34,81,138.34Z"/><path class="cls-7" d="M203.84,103.41c-.29.11,15.41,4.12,19.59,2.11,5.85-2.8,14.23-22.83,14.23-22.83s-3.26-11-1-12,4.25,4.76,4.25,4.76,3.5-18.26,5.75-18,3.09,4,3.14,9.24c0,0,.64,1.86,1.14-.15s1.63-8.72,3.88-9.47,3.69,6.62,2.44,11.63c0,0,4.34-8.58,5.59-8.33s2.82,5.58.07,11.58c0,0,3.65-4.71,4.9-4s.41,8.33-6.14,18.13c0,0-2.64,32.63-25.66,45.89-8,4.61-18,5.24-26.78,3.81a96.84,96.84,0,0,1-9.84-2.1Z"/><path class="cls-7" d="M115.73,92.38c1.92-5.76,3.5-6.61,6.25-3.32s-.49,9.91-4.33,9.64S115.73,92.38,115.73,92.38Z"/><path d="M286.84,250.63s13-5,15.82-3.77,25,53.54,23.8,60.76-21.14-21.34-21.14-21.34l-5,2Z"/><path class="cls-6" d="M79.84,135.23c.52,4.73,17.52,30.59,19.89,29.8,1.57-.52,12.86-6.3,12.86-6.3-.19.06,20.36,46.88,38.82,76.6,0,0,56.78-35.89,76.73-55.32,0,0-63-79.29-69.88-83l-53.55,26.51Z"/><path class="cls-4" d="M213.26,209.1a73.14,73.14,0,0,1-6.43,17.11.8.8,0,0,0,0,.82l26.22,37.78a.83.83,0,0,0,.91.37l50.3-13.35a.8.8,0,0,0-.43-1.55l-44,11.68c-1.83.48-4.31,1.67-6.22,1.65,1.31,0,.59.65.15-.56s-1.65-2.37-2.33-3.36l-15.92-22.94c-2-2.84-5.31-6.2-6.56-9.45-.77-2,.38-2.33,1.49-4.81a73.12,73.12,0,0,0,4.35-13,.8.8,0,0,0-1.55-.43Z"/><path d="M221.7,247.05l-14.18-20.43a66.31,66.31,0,0,0,4.17-9.31C212.64,214.69,221.7,247.05,221.7,247.05Z"/><path class="cls-8" d="M209.24,135.8a96.84,96.84,0,0,1-9.84-2.1l4.44-30.29s.54,20.64,2.68,25.34A74,74,0,0,1,209.24,135.8Z"/><path class="cls-9" d="M25.59,116.24l.87-3.21.94-3.73,3.54-14.09a10.66,10.66,0,0,1,3.5-4.66,14.25,14.25,0,0,1,1.31-.92,9.36,9.36,0,0,1,.76,1.43,12.64,12.64,0,0,1,1.1,5.69c-.1,2.36-1.3,8.92-2.33,14.22-.27,1.41-.53,2.74-.76,3.87-.43,2.15-.73,3.59-.73,3.59a9.25,9.25,0,0,1-4.74.91C26.86,119,25.59,116.24,25.59,116.24Z"/><path class="cls-10" d="M37.61,96.75a12.64,12.64,0,0,0-1.1-5.69,9.36,9.36,0,0,0-.76-1.43,14.25,14.25,0,0,0-1.31.92,10.66,10.66,0,0,0-3.5,4.66l2-1.36L33.64,95l1.56-1,1,2.11.9-1Z"/><path d="M36.51,91.06a9.36,9.36,0,0,0-.76-1.43,14.25,14.25,0,0,0-1.31.92Z"/><path class="cls-11" d="M34.52,114.84c.23-1.13.49-2.46.76-3.87A7.73,7.73,0,0,0,32,109.14a8,8,0,0,0-4.64.16c-.31,1.24-.62,2.49-.94,3.73Z"/><path class="cls-12" d="M34.52,114.84c-.43,2.15-.73,3.59-.73,3.59a9.25,9.25,0,0,1-4.74.91c-2.19-.36-3.46-3.1-3.46-3.1l.87-3.21s1.4-1.4,4.28-.8C33.77,112.86,34.52,114.84,34.52,114.84Z"/><path class="cls-7" d="M44.82,112.29c1.67-5.49-1.83-9.46-4.58-13.88s-4.42-4-5.64-3c-1.05.79,1.74,9.49.3,12.28a11.51,11.51,0,0,0-1.44,4.75c-.13,3.25.22,7.45,2.73,8.1.85.22.79-8.42,1.68-8.32A37.4,37.4,0,0,0,44.82,112.29Z"/><path class="cls-4" d="M85.57,36.24a.38.38,0,0,0,0-.75.38.38,0,0,0,0,.75Z"/><circle class="cls-6" cx="149.67" cy="3.46" r="2.82"/></g></g></svg>