<svg xmlns="http://www.w3.org/2000/svg" viewBox="0 0 363.09 79.42"><defs><style>.cls-1{fill:#004a92;}.cls-2{fill:#e53328;}.cls-3{fill:#ffd344;}.cls-4{fill:#007e47;}</style></defs><title>logo</title><g id="Capa_2" data-name="Capa 2"><g id="Esquema"><path class="cls-1" d="M19.63,29.18A13.4,13.4,0,0,1,23,32.93a13.08,13.08,0,0,1,.92,1.88,11.07,11.07,0,0,1,2.73-4.57l3.62-3.62a11.78,11.78,0,0,1,9-3.3h.31A11.61,11.61,0,0,0,49,18.7a11.47,11.47,0,0,0,2.33-6.54c0-.43,0-.86,0-1.29a.25.25,0,0,1,0-.08,11.27,11.27,0,0,0-.17-1.3.5.5,0,0,0,0-.12c-.08-.38-.18-.76-.29-1.14,0-.06,0-.12,0-.18a12,12,0,0,0-1.08-2.37l-.1-.17a13,13,0,0,0-.75-1.08,11.75,11.75,0,0,0-.94-1l-.32-.29c-.23-.21-.47-.43-.72-.63a12.16,12.16,0,0,0-3-1.69l-.2-.07a9,9,0,0,0-.88-.28L42.61.36c-.32-.08-.64-.15-1-.2l-.15,0a9.35,9.35,0,0,0-1-.11H39.37l-.48,0-.64.06-.44.06c-.32.05-.65.12-1,.2l-.15,0c-.33.09-.66.19-1,.31l-.27.1q-.4.17-.81.36l-.24.12a9.25,9.25,0,0,0-.87.49l-.13.08c-.33.21-.65.44-1,.68s-.35.31-.52.47-.29.25-.43.39l0,0c-.17.18-.33.37-.49.55s-.23.24-.33.37-.28.38-.42.57-.22.29-.32.44a.25.25,0,0,1,0,.07,11.71,11.71,0,0,0-1.8,6.71.75.75,0,0,1,0,.15,12,12,0,0,1-3.37,8.94l-3.47,3.47a11.5,11.5,0,0,1-4.65,2.78,12,12,0,0,1,1.87.92A13.9,13.9,0,0,1,19.63,29.18Zm15.61-22a6.32,6.32,0,0,1,8.94,0,6.31,6.31,0,0,1,0,9h0a6.33,6.33,0,0,1-8.94-8.95Z"/><path class="cls-2" d="M39.71,16.34A4.64,4.64,0,0,0,43,15h0a4.68,4.68,0,1,0-3.31,1.37Z"/><path class="cls-3" d="M29.18,59.79a13.5,13.5,0,0,1,3.74-3.34,13.08,13.08,0,0,1,1.88-.92,11.18,11.18,0,0,1-4.56-2.73l-3.62-3.62a11.07,11.07,0,0,1-2.73-4.57,12.64,12.64,0,0,1-.57-4.38c0-.18,0-.35,0-.52a11.58,11.58,0,0,0-4.61-9.32,11.28,11.28,0,0,0-2.21-1.31,11.89,11.89,0,0,0-4.41-1c-.35,0-.7,0-1,0h-.16q-.54,0-1.08.12h0a11.17,11.17,0,0,0-1.15.24h0c-.34.09-.69.21-1,.33l-.2.08c-.29.12-.58.24-.87.38l-.18.09c-.32.17-.64.35-.94.54l0,0c-.31.2-.61.41-.9.64l0,.05c-.2.16-.38.33-.57.5s-.26.22-.38.35-.29.31-.43.47-.29.31-.43.48-.25.34-.37.51-.25.33-.36.5-.21.36-.31.54-.21.35-.3.53-.17.38-.25.56-.17.37-.24.56-.13.38-.19.58-.13.38-.18.57-.08.39-.12.58-.09.4-.12.6,0,.4-.07.59l-.06.6c0,.2,0,.4,0,.6s0,.4,0,.6l.06.6c0,.2,0,.4.07.59s.08.4.12.59.07.4.12.59.12.38.18.57.12.39.19.58.16.37.24.56.16.38.25.56.2.35.3.53.2.37.31.54.24.34.36.5.24.35.37.52.28.31.42.46.27.32.42.47l0,0c.12.12.25.22.37.33s.38.35.58.51a10.42,10.42,0,0,0,1,.69l0,0c.3.19.62.37.94.54l.18.09c.29.14.58.27.87.38l.2.08c.33.12.68.24,1,.33h0a11.17,11.17,0,0,0,1.15.24h0c.36.06.72.09,1.08.12H11c.34,0,.69,0,1,0h0a12.72,12.72,0,0,1,4.44.59,11.5,11.5,0,0,1,4.65,2.78l3.47,3.47a11.5,11.5,0,0,1,2.78,4.65A12.11,12.11,0,0,1,28.38,61,13.73,13.73,0,0,1,29.18,59.79Zm-13-15.61a6.33,6.33,0,1,1,0-8.94A6.31,6.31,0,0,1,16.14,44.18Z"/><path class="cls-1" d="M11.66,35A4.67,4.67,0,1,0,15,36.4,4.7,4.7,0,0,0,11.66,35Z"/><path class="cls-4" d="M58.42,49.05a13.13,13.13,0,0,1-2-2.56,13.91,13.91,0,0,1-.93-1.85,11.16,11.16,0,0,1-2.72,4.54L49.18,52.8a11.18,11.18,0,0,1-4.56,2.73,12.69,12.69,0,0,1-4.39.57h-.52a11.59,11.59,0,0,0-4.87,1,11.75,11.75,0,0,0-4.45,3.57,11.16,11.16,0,0,0-1.3,2.2,11.76,11.76,0,0,0-1,4.42c0,.35,0,.69,0,1a.86.86,0,0,1,0,.16c0,.36.06.72.12,1.08v0a11.17,11.17,0,0,0,.24,1.15v0c.09.35.21.69.33,1l.08.2c.11.29.24.58.38.87l.09.18c.17.32.35.64.54.94l0,0c.2.31.41.61.64.9l.05.05c.16.2.34.39.51.58s.21.25.33.37.33.29.49.44.3.29.46.42l.51.37c.17.12.34.25.51.36s.35.2.53.31l.54.3.56.25c.18.08.37.17.56.24l.58.19c.19.06.38.13.57.18l.6.12c.19,0,.38.09.58.12l.6.07.59.06c.2,0,.4,0,.6,0s.4,0,.6,0l.59-.06.6-.07c.2,0,.39-.08.58-.12l.6-.12c.19,0,.38-.12.57-.18l.58-.19c.19-.07.37-.16.55-.24l.57-.25c.18-.09.35-.2.53-.3l.54-.31c.17-.11.33-.24.5-.36s.35-.24.51-.37.32-.29.48-.43A5.74,5.74,0,0,0,48,76l0,0a4,4,0,0,0,.34-.38c.18-.19.35-.37.51-.57a10.42,10.42,0,0,0,.69-1l0,0c.19-.3.37-.62.54-.94l.09-.18c.14-.29.26-.58.38-.87,0-.06,0-.13.08-.2q.18-.5.33-1v0a11.17,11.17,0,0,0,.24-1.15v0q.08-.54.12-1.08a.86.86,0,0,1,0-.16c0-.35,0-.69,0-1,0,0,0,0,0,0A12.8,12.8,0,0,1,52,62.85a11.53,11.53,0,0,1,2.78-4.64l3.47-3.47A11.5,11.5,0,0,1,62.86,52,12.91,12.91,0,0,1,61,51,13.31,13.31,0,0,1,58.42,49.05ZM44.18,72.23h0A6.31,6.31,0,1,1,46,67.76,6.31,6.31,0,0,1,44.18,72.23Z"/><path class="cls-3" d="M39.71,63.08a4.68,4.68,0,1,0,3.31,8h0a4.67,4.67,0,0,0,0-6.61A4.69,4.69,0,0,0,39.71,63.08Z"/><path class="cls-4" d="M67.76,35a4.67,4.67,0,1,0,3.3,1.36A4.66,4.66,0,0,0,67.76,35Z"/><path class="cls-2" d="M79.41,39.4c0-.14,0-.29,0-.43,0-.34-.05-.69-.1-1v0l0-.15c-.05-.32-.12-.64-.2-1L79,36.56c0-.16-.08-.32-.13-.47s-.1-.28-.15-.41v0l-.06-.16c-.12-.3-.26-.6-.4-.89,0-.09-.07-.18-.12-.27a11,11,0,0,0-1.05-1.65c0-.05-.08-.09-.12-.15-.2-.25-.42-.49-.63-.72s-.19-.22-.29-.32a11.66,11.66,0,0,0-2.12-1.69l-.17-.1a11.84,11.84,0,0,0-2.38-1.08l-.06,0-.11,0c-.38-.11-.76-.21-1.14-.29l-.12,0a11.27,11.27,0,0,0-1.3-.17h-.08c-.43,0-.86,0-1.29,0h0c-.42,0-.83,0-1.24,0L65.17,28l-.39,0c-.36-.05-.72-.13-1.07-.21l-.12,0c-.26-.07-.52-.16-.77-.24a11.12,11.12,0,0,1-4.48-2.67l-1-1-.11-.1h0l-2.6-2.6A11,11,0,0,1,52,16.6a12.81,12.81,0,0,1-1.71,3,13.28,13.28,0,0,1-5.66,4.28,11.29,11.29,0,0,1,4.67,2.78l2.52,2.52h0l.11.11,1,1h0a11.46,11.46,0,0,1,2.68,4.55c.07.25.15.49.22.73l0,.16c.08.35.15.69.2,1,0,.16,0,.32.05.48s.06.49.07.74c0,.42,0,.83,0,1.25,0,.23,0,.45,0,.67a11.53,11.53,0,0,0,1,4.64A11.76,11.76,0,0,0,59.5,48a11.61,11.61,0,0,0,3.44,2.36,11.54,11.54,0,0,0,8.66.4h0a7.77,7.77,0,0,0,.8-.31l.13-.06.67-.32c.26-.14.52-.3.78-.46l.08,0,.43-.31c.19-.14.39-.27.58-.43h0c.13-.1.24-.21.36-.32l.18-.16q.19-.16.39-.36h0l.21-.23.19-.21c.15-.17.31-.33.45-.51l0-.05a8.9,8.9,0,0,0,.58-.79.75.75,0,0,0,.07-.12l.08-.13a9.25,9.25,0,0,0,.49-.87l.12-.24c.13-.27.25-.54.35-.81,0-.09.08-.18.11-.27l.06-.15a7.93,7.93,0,0,0,.25-.83s0-.1,0-.15c.08-.32.15-.64.2-1l.06-.44c0-.13,0-.26,0-.39a2.09,2.09,0,0,0,0-.25l0-.48C79.42,39.83,79.42,39.62,79.41,39.4Zm-7.18,4.78a6.33,6.33,0,0,1-9-8.94,6.33,6.33,0,0,1,9,8.94Z"/><path class="cls-1" d="M90.71,28.76h9.37c5.2,0,7.18,3.29,7.18,6.66s-2,6.66-7.18,6.66h-4.8v7.44H90.71Zm4.57,9.77h3.55c2.09,0,4-.46,4-3.11s-1.92-3.11-4-3.11H95.28Z"/><path class="cls-1" d="M106,49.52l9.42-20.73H120l9.28,20.73h-4.42l-2-4.59H112.32l-2.18,4.59Zm11.78-16.83-3.49,8h6.89l-3.38-8Z"/><path class="cls-1" d="M143.26,41.85l5.81,7.7h-5.58l-5.24-7.47H136v7.47h-4.59V28.76h9.36c5.24,0,7.24,3.29,7.24,6.66a6.22,6.22,0,0,1-4.94,6.43ZM136,32.31v6.25h3.55c2.18,0,4-.49,4-3.14s-1.81-3.11-4-3.11Z"/><path class="cls-1" d="M157.15,32.6h-6.6V28.79h17.71v3.84h-6.54V49.52h-4.57Z"/><path class="cls-1" d="M170.88,28.76h4.56V49.52h-4.56Z"/><path class="cls-1" d="M188.67,49.58a10.53,10.53,0,1,1,9.13-15.67c-1.77.93-1.92,1-3.89,2a6.05,6.05,0,0,0-5.24-3,6.17,6.17,0,0,0,0,12.33A6.06,6.06,0,0,0,194.08,42c2,1,2,1.14,3.9,2A10.46,10.46,0,0,1,188.67,49.58Z"/><path class="cls-1" d="M200.8,28.76h4.56V49.52H200.8Z"/><path class="cls-1" d="M209.37,28.76h9.37c5.2,0,7.18,3.29,7.18,6.66s-2,6.66-7.18,6.66h-4.8v7.44h-4.57Zm4.57,9.77h3.55c2.09,0,4-.46,4-3.11s-1.92-3.11-4-3.11h-3.55Z"/><path class="cls-1" d="M224.64,49.52l9.42-20.73h4.59l9.28,20.73h-4.42l-2-4.59H231l-2.18,4.59Zm11.78-16.83-3.49,8h6.89l-3.38-8Z"/><path class="cls-1" d="M249.66,45h4.52v4.51h-4.52Z"/><path class="cls-1" d="M274.64,41.67c0,5.61-3.32,8.35-8.87,8.35s-8.84-2.68-8.84-8.35V28.76h4.56V41.67c0,2.27.59,4.51,4.28,4.51,3.26,0,4.3-1.4,4.3-4.51V28.76h4.57Z"/><path class="cls-1" d="M288,49.58a10.53,10.53,0,1,1,9.13-15.67c-1.77.93-1.92,1-3.89,2a6.05,6.05,0,0,0-5.24-3,6.17,6.17,0,0,0,0,12.33A6.06,6.06,0,0,0,293.39,42c2,1,2,1.14,3.9,2A10.46,10.46,0,0,1,288,49.58Z"/><path class="cls-1" d="M313.77,40.63h-9.62v8.84H299.7V28.65h4.45v7.53h9.62V28.7h4.48V49.47h-4.48Z"/><path class="cls-1" d="M321.65,28.76h4.57V49.52h-4.57Z"/><path class="cls-1" d="M329.8,49.38V28.67h4.47V45.54h10.65v3.84Z"/><path class="cls-1" d="M351.37,41.24v4.42h11.72v3.83H347V28.67H362.1v3.84H351.37V37.2h9.48v4Z"/></g></g></svg>