<svg xmlns="http://www.w3.org/2000/svg" viewBox="0 0 169.9 236.63"><defs><style>.cls-1{fill:#004b93;}</style></defs><title>pedacito azul</title><g id="Capa_2" data-name="Capa 2"><g id="Esquema"><path class="cls-1" d="M0,236.63c36.56-1,58-60.94,77.07-98s36.8-71.48,54.4-75.84c4.05-1-1.71,13-5.86,27.07s-6.69,28.33,3.84,27.83c4.71-.22,12.45-8.12,19.29-16.16s12.78-16.22,13.89-17c4.06-2.94,4.22-1,3.36,1.73a43.07,43.07,0,0,1-2.73,6.14l.56.23.56.22a24.2,24.2,0,0,0,4.92-8.37c1.08-3.3.93-6.38-2.45-7s-9.66,7-15.91,14.3-12.47,14.08-15.69,11.78,3.61-16.65,9.44-31.3,10.66-29.6,3.45-33.13c-4.39-2.15-8.89-1.56-13.38.3s-9,5-13.34,8c-4.89,3.35-9.55,6.52-13,7.77s-5.56.57-5.46-3.77c.06-2.13,7-10.1,10.9-19.6S118.83,11.26,107,3c-6.55-4.59-15.82-3.43-26.33.55S57,18.9,45.56,25.59C36.34,31,15.55,49.59,0,38.3Z"/></g></g></svg>